<?xml version="1.0" encoding="utf-8"?>
<svg id="Ebene_2" data-name="Ebene 2" viewBox="0 0 800 800" width="1330" height="1330" xmlns="http://www.w3.org/2000/svg" xmlns:xlink="http://www.w3.org/1999/xlink">
  <defs>
    <style>
            .cls-1, .cls-2, .cls-3, .cls-4 {
            fill: none;
            }

            .cls-1, .cls-5, .cls-6, .cls-7, .cls-8, .cls-9, .cls-10, .cls-11, .cls-12, .cls-13, .cls-14, .cls-15, .cls-16, .cls-17, .cls-18 {
            stroke-width: 0px;
            }

            .cls-2 {
            stroke-width: 1.52px;
            }

            .cls-2, .cls-3 {
            stroke: #6b6d6d;
            stroke-linejoin: round;
            }

            .cls-2, .cls-3, .cls-6 {
            fill-rule: evenodd;
            }

            .cls-5 {
            opacity: .9;
            }

            .cls-5, .cls-19, .cls-20 {
            fill: #fff;
            }

            .cls-3, .cls-21 {
            stroke-width: 1.53px;
            }

            .cls-4 {
            stroke: #1d1d1b;
            stroke-width: .63px;
            }

            .cls-4, .cls-21, .cls-19, .cls-20 {
            stroke-miterlimit: 10;
            }

            .cls-6 {
            fill: #4d4e51;
            }

            .cls-18 {
            fill: gold;
            }

            .cls-19 {
            stroke-width: 3.05px;
            }

            .cls-19, .cls-20 {
            stroke: #000;
            }

            .cls-20 {
            stroke-width: 3.05px;
            }

            .cls-8 {
            fill: #585959;
            }

            .cls-9 {
            fill: #3aa5c6;
            }

            .cls-10 {
            fill: #181716;
            }

            .cls-11 {
            fill: #1d1d21;
            }

            .cls-12 {
            fill: #c77c11;
            }

            .cls-13 {
            fill: #c8cccf;
            }

            .cls-14 {
            fill: #d6d2d1;
            }

            .cls-15 {
            fill: #b4b5b5;
            }

            .cls-16 {
            fill: #c43b3a;
            }

            .cls-17 {
            fill: #c1c5c6;
            }
        </style>
    <symbol id="Calliope_3_Small_LED_2" data-name="Calliope_3_Small_LED 2" viewBox="0 0 2.04 2.48">
      <polygon class="cls-4" points=".31 .31 1.73 .31 1.73 2.16 .31 2.16 .31 .31"/>
    </symbol>
  </defs>
  <g id="Ebene_2-2" data-name="Ebene 2">
    <path class="cls-7" d="m237.84,538.89v39.75c0,.95.77,1.73,1.73,1.73h329.32c.95,0,1.73-.77,1.73-1.73v-39.75c0-.95-.77-1.73-1.73-1.73H239.57c-.95,0-1.73.77-1.73,1.73Zm171.83,3.42v10.95h-10.92v-10.95h10.92Zm-153.66,32.9h-10.95v-10.95h10.95v10.95Zm0-21.96h-10.95v-10.95h10.95v10.95Zm21.96,21.96h-10.95v-10.95h10.95v10.95Zm0-21.96h-10.95v-10.95h10.95v10.95Zm21.96,21.96h-10.95v-10.95h10.95v10.95Zm0-21.96h-10.95v-10.95h10.95v10.95Zm21.96,21.96h-10.95v-10.95h10.95v10.95Zm0-21.96h-10.95v-10.95h10.95v10.95Zm21.96,21.96h-10.95v-10.95h10.95v10.95Zm0-21.96h-10.95v-10.95h10.95v10.95Zm21.96,21.96h-10.95v-10.95h10.95v10.95Zm0-21.96h-10.95v-10.95h10.95v10.95Zm21.92,21.96h-10.92v-10.95h10.92v10.95Zm0-21.96h-10.92v-10.95h10.92v10.95Zm21.96,21.96h-10.92v-10.95h10.92v10.95Zm21.96,0h-10.92v-10.95h10.92v10.95Zm0-21.96h-10.92v-10.95h10.92v10.95Zm21.96,21.96h-10.92v-10.95h10.92v10.95Zm0-21.96h-10.92v-10.95h10.92v10.95Zm21.96,21.96h-10.92v-10.95h10.92v10.95Zm0-21.96h-10.92v-10.95h10.92v10.95Zm21.96,21.96h-10.92v-10.95h10.92v10.95Zm0-21.96h-10.92v-10.95h10.92v10.95Zm21.96,21.96h-10.92v-10.95h10.92v10.95Zm0-21.96h-10.92v-10.95h10.92v10.95Zm21.96,21.96h-10.92v-10.95h10.92v10.95Zm0-21.96h-10.92v-10.95h10.92v10.95Zm21.96,21.96h-10.92v-10.95h10.92v10.95Zm0-21.96h-10.92v-10.95h10.92v10.95Z"/>
    <g id="Aussen">
      <path class="cls-7" d="m245.07,564.27v10.95h10.95v-10.95h-10.95Zm9.21,9.21h-7.47v-7.47h7.47v7.47Z"/>
      <path class="cls-7" d="m267.02,564.27v10.95h10.95v-10.95h-10.95Zm9.21,9.21h-7.47v-7.47h7.47v7.47Z"/>
      <path class="cls-7" d="m288.98,564.27v10.95h10.95v-10.95h-10.95Zm9.21,9.21h-7.47v-7.47h7.47v7.47Z"/>
      <path class="cls-7" d="m310.94,564.27v10.95h10.95v-10.95h-10.95Zm9.21,9.21h-7.47v-7.47h7.47v7.47Z"/>
      <path class="cls-7" d="m332.89,564.27v10.95h10.95v-10.95h-10.95Zm9.21,9.21h-7.47v-7.47h7.47v7.47Z"/>
      <path class="cls-7" d="m354.85,564.27v10.95h10.95v-10.95h-10.95Zm9.21,9.21h-7.47v-7.47h7.47v7.47Z"/>
      <path class="cls-7" d="m376.8,564.27v10.95h10.92v-10.95h-10.92Zm9.21,9.21h-7.47v-7.47h7.47v7.47Z"/>
      <path class="cls-7" d="m398.76,564.27v10.95h10.92v-10.95h-10.92Zm9.21,9.21h-7.47v-7.47h7.47v7.47Z"/>
      <path class="cls-7" d="m420.71,564.27v10.95h10.92v-10.95h-10.92Zm9.21,9.21h-7.47v-7.47h7.47v7.47Z"/>
      <path class="cls-7" d="m442.67,564.27v10.95h10.92v-10.95h-10.92Zm9.21,9.21h-7.47v-7.47h7.47v7.47Z"/>
      <path class="cls-7" d="m464.62,564.27v10.95h10.92v-10.95h-10.92Zm9.21,9.21h-7.47v-7.47h7.47v7.47Z"/>
      <path class="cls-7" d="m486.58,564.27v10.95h10.92v-10.95h-10.92Zm9.21,9.21h-7.5v-7.47h7.5v7.47Z"/>
      <path class="cls-7" d="m508.54,564.27v10.95h10.92v-10.95h-10.92Zm9.21,9.21h-7.5v-7.47h7.5v7.47Z"/>
      <path class="cls-7" d="m530.49,564.27v10.95h10.92v-10.95h-10.92Zm9.21,9.21h-7.5v-7.47h7.5v7.47Z"/>
      <path class="cls-7" d="m552.45,564.27v10.95h10.92v-10.95h-10.92Zm9.21,9.21h-7.5v-7.47h7.5v7.47Z"/>
      <path class="cls-7" d="m245.07,542.31v10.95h10.95v-10.95h-10.95Zm9.21,9.21h-7.47v-7.47h7.47v7.47Z"/>
      <path class="cls-7" d="m267.02,542.31v10.95h10.95v-10.95h-10.95Zm9.21,9.21h-7.47v-7.47h7.47v7.47Z"/>
      <path class="cls-7" d="m288.98,542.31v10.95h10.95v-10.95h-10.95Zm9.21,9.21h-7.47v-7.47h7.47v7.47Z"/>
      <path class="cls-7" d="m310.94,542.31v10.95h10.95v-10.95h-10.95Zm9.21,9.21h-7.47v-7.47h7.47v7.47Z"/>
      <path class="cls-7" d="m332.89,542.31v10.95h10.95v-10.95h-10.95Zm9.21,9.21h-7.47v-7.47h7.47v7.47Z"/>
      <path class="cls-7" d="m354.85,542.31v10.95h10.95v-10.95h-10.95Zm9.21,9.21h-7.47v-7.47h7.47v7.47Z"/>
      <path class="cls-7" d="m376.8,542.31v10.95h10.92v-10.95h-10.92Zm9.21,9.21h-7.47v-7.47h7.47v7.47Z"/>
      <path class="cls-7" d="m398.76,542.31v10.95h10.92v-10.95h-10.92Zm9.21,9.21h-7.47v-7.47h7.47v7.47Z"/>
      <path class="cls-7" d="m420.71,542.31v10.95h10.92v-10.95h-10.92Zm9.21,9.21h-7.47v-7.47h7.47v7.47Z"/>
      <path class="cls-7" d="m442.67,542.31v10.95h10.92v-10.95h-10.92Zm9.21,9.21h-7.47v-7.47h7.47v7.47Z"/>
      <path class="cls-7" d="m464.62,542.31v10.95h10.92v-10.95h-10.92Zm9.21,9.21h-7.47v-7.47h7.47v7.47Z"/>
      <path class="cls-7" d="m486.58,542.31v10.95h10.92v-10.95h-10.92Zm9.21,9.21h-7.5v-7.47h7.5v7.47Z"/>
      <path class="cls-7" d="m508.54,542.31v10.95h10.92v-10.95h-10.92Zm9.21,9.21h-7.5v-7.47h7.5v7.47Z"/>
      <path class="cls-7" d="m530.49,542.31v10.95h10.92v-10.95h-10.92Zm9.21,9.21h-7.5v-7.47h7.5v7.47Z"/>
      <path class="cls-7" d="m552.45,542.31v10.95h10.92v-10.95h-10.92Zm9.21,9.21h-7.5v-7.47h7.5v7.47Z"/>
    </g>
    <g id="Innen">
      <rect class="cls-19" x="246.81" y="566" width="7.47" height="7.47"/>
      <rect class="cls-19" x="268.76" y="566" width="7.47" height="7.47"/>
      <rect class="cls-19" x="290.72" y="566" width="7.47" height="7.47"/>
      <rect class="cls-19" x="312.67" y="566" width="7.47" height="7.47"/>
      <rect class="cls-19" x="334.63" y="566" width="7.47" height="7.47"/>
      <rect class="cls-19" x="356.58" y="566" width="7.47" height="7.47"/>
      <rect class="cls-19" x="378.54" y="566" width="7.47" height="7.47"/>
      <rect class="cls-19" x="400.5" y="566" width="7.47" height="7.47"/>
      <rect class="cls-19" x="422.45" y="566" width="7.47" height="7.47"/>
      <rect class="cls-19" x="444.41" y="566" width="7.47" height="7.47"/>
      <rect class="cls-19" x="466.36" y="566" width="7.47" height="7.47"/>
      <rect class="cls-19" x="488.29" y="566" width="7.5" height="7.47"/>
      <rect class="cls-19" x="510.24" y="566" width="7.5" height="7.47"/>
      <rect class="cls-19" x="532.2" y="566" width="7.5" height="7.47"/>
      <rect class="cls-19" x="554.15" y="566" width="7.5" height="7.47"/>
      <rect class="cls-19" x="246.81" y="544.05" width="7.47" height="7.47"/>
      <rect class="cls-19" x="268.76" y="544.05" width="7.47" height="7.47"/>
      <rect class="cls-19" x="290.72" y="544.05" width="7.47" height="7.47"/>
      <rect class="cls-19" x="312.67" y="544.05" width="7.47" height="7.47"/>
      <rect class="cls-19" x="334.63" y="544.05" width="7.47" height="7.47"/>
      <rect class="cls-19" x="356.58" y="544.05" width="7.47" height="7.47"/>
      <rect class="cls-19" x="378.54" y="544.05" width="7.47" height="7.47"/>
      <rect class="cls-19" x="400.5" y="544.05" width="7.47" height="7.47"/>
      <rect class="cls-19" x="422.45" y="544.05" width="7.47" height="7.47"/>
      <path id="_Pfad_" data-name="&amp;lt;Pfad&amp;gt;" class="cls-19" d="m451.88,551.52h-7.47v-7.47h7.47v7.47Z"/>
      <rect class="cls-19" x="466.36" y="544.05" width="7.47" height="7.47"/>
      <rect class="cls-19" x="488.29" y="544.05" width="7.5" height="7.47"/>
      <rect class="cls-19" x="510.24" y="544.05" width="7.5" height="7.47"/>
      <rect class="cls-19" x="532.2" y="544.05" width="7.5" height="7.47"/>
      <rect class="cls-19" x="554.15" y="544.05" width="7.5" height="7.47"/>
    </g>
    <rect id="Lagesensor" class="cls-7" x="251.5" y="326.6" width="17.26" height="17.29" rx="1.73" ry="1.73"/>
    <path id="Antenne" class="cls-2" d="m133.89,425.48l-23.68,23.68c-.24.24-.24.62,0,.86l9.54,9.54c.24.24.62.24.86,0l15.29-15.29c.24-.24.62-.24.86,0l17.5,17.5c.24.24.24.62,0,.86l-15.29,15.29c-.24.24-.24.62,0,.86l9.54,9.54c.24.24.62.24.86,0l15.29-15.29c.24-.24.62-.24.86,0l17.5,17.5c.24.24.24.62,0,.86l-15.29,15.29c-.24.24-.24.62,0,.86l9.54,9.54c.24.24.62.24.86,0l29.12-29.12c.24-.24.62-.24.86,0l2.2,2.2c.24.24.24.62,0,.86l-29.12,29.12c-.24.24-.24.62,0,.86l7.7,7.7c.24.24.62.24.86,0l25.48-25.48"/>
    <g>
      <path class="cls-11" d="M 743.616 362.23 C 647.226 323.39 589.886 223.75 604.936 120.85 C 605.346 118.61 605.546 116.17 605.546 113.73 C 605.546 91.77 587.656 73.87 565.686 73.87 C 558.166 73.87 551.046 75.9 545.146 79.56 C 544.536 79.97 544.126 80.17 543.516 80.58 C 542.496 81.19 541.686 81.8 540.876 82.41 C 511.386 106 465.226 131.62 400.566 131.62 C 335.906 131.62 292.996 107.42 264.526 85.66 C 257.206 77.93 247.036 73.26 235.646 73.26 C 213.686 73.26 195.586 91.15 195.586 113.12 C 195.586 114.95 195.786 116.98 195.996 118.81 L 195.996 119.42 C 211.446 222.11 154.716 321.96 58.936 361.2 C 42.466 366.08 30.266 381.33 30.266 399.63 C 30.266 416.1 40.436 430.34 54.666 436.44 C 55.076 436.64 55.276 436.64 55.476 436.85 C 151.256 474.47 209.206 572.08 196.596 673.96 C 196.796 673.35 197.006 672.74 197.206 672.33 C 197.206 671.92 197.406 671.72 197.616 671.72 C 197.416 671.92 197.416 672.13 197.206 672.33 C 195.576 676.6 194.766 681.48 194.766 686.36 C 194.766 708.93 213.066 727.03 235.436 727.03 C 257.806 727.03 276.106 708.73 276.106 686.36 C 276.106 682.9 275.696 679.45 274.886 676.19 L 269.396 644.47 C 268.786 640.4 270.816 636.54 274.476 634.91 L 280.376 633.89 C 285.056 633.08 289.526 636.13 290.336 641.01 L 296.436 675.99 C 297.046 679.65 300.706 682.29 304.566 681.68 L 345.436 674.56 L 347.066 674.15 C 350.726 673.54 353.366 669.88 352.756 666.22 L 346.856 632.87 L 346.446 631.24 C 345.636 626.56 348.686 622.09 353.356 621.28 L 358.846 620.26 C 363.116 620.26 366.576 623.31 367.386 627.38 L 373.486 661.95 C 374.296 666.42 378.166 669.47 382.636 669.07 C 394.226 668.26 405.816 668.26 417.406 669.07 C 421.876 669.48 425.746 666.43 426.556 661.95 L 432.656 627.38 C 433.266 623.31 436.726 620.47 440.786 620.26 L 446.686 621.28 C 451.366 622.09 454.616 626.57 453.806 631.24 L 447.706 666.22 C 447.096 669.88 449.536 673.54 453.196 674.15 L 494.066 681.47 L 495.696 681.88 C 499.556 682.49 503.016 680.05 503.826 676.19 L 509.726 642.84 L 510.136 641.21 C 510.946 636.53 515.426 633.28 520.096 634.09 L 525.586 635.11 C 529.446 636.53 531.686 640.6 531.076 644.67 L 525.786 674.97 C 524.766 678.43 524.156 682.29 524.156 686.15 C 524.156 708.52 542.256 726.62 564.626 726.62 C 586.996 726.62 605.096 708.52 605.096 686.15 C 605.096 683.1 604.686 680.05 604.076 677 C 590.246 574.51 647.996 475.48 744.186 437.25 C 759.436 431.76 770.216 417.12 770.216 399.83 C 770.626 382.34 759.236 367.5 743.576 362.21 L 743.616 362.23 Z M 70.126 417.13 C 60.566 417.13 52.846 409.4 52.846 399.85 C 52.846 390.3 60.576 382.57 70.126 382.57 C 79.676 382.57 87.406 390.3 87.406 399.85 C 87.406 409.4 79.676 417.13 70.126 417.13 Z M 235.246 96.05 C 244.806 96.05 252.526 103.78 252.526 113.33 C 252.526 122.88 244.796 130.61 235.246 130.61 C 225.696 130.61 217.966 122.88 217.966 113.33 C 217.966 103.78 225.696 96.05 235.246 96.05 L 235.246 96.05 Z M 198.036 670.51 C 198.236 669.9 198.646 669.29 198.846 668.68 C 198.436 669.29 198.236 669.9 198.036 670.51 Z M 235.456 703.86 C 225.896 703.86 217.966 696.13 217.966 686.37 C 217.966 676.61 225.696 668.88 235.456 668.88 C 245.216 668.88 252.946 676.61 252.946 686.37 C 252.946 696.13 245.016 703.86 235.456 703.86 Z M 331.736 424.1 L 318.076 424.1 L 318.076 399.79 L 331.736 399.79 L 331.736 424.1 Z M 331.736 388.86 L 318.076 388.86 L 318.076 364.55 L 331.736 364.55 L 331.736 388.86 Z M 331.736 353.62 L 318.076 353.62 L 318.076 329.31 L 331.736 329.31 L 331.736 353.62 Z M 331.736 318.38 L 318.076 318.38 L 318.076 294.07 L 331.736 294.07 L 331.736 318.38 Z M 331.736 283.14 L 318.076 283.14 L 318.076 258.69 L 331.736 258.69 L 331.736 283.14 Z M 367.796 424.09 L 354.136 424.09 L 354.136 399.78 L 367.796 399.78 L 367.796 424.09 Z M 367.796 388.85 L 354.136 388.85 L 354.136 364.54 L 367.796 364.54 L 367.796 388.85 Z M 367.796 353.61 L 354.136 353.61 L 354.136 329.3 L 367.796 329.3 L 367.796 353.61 Z M 367.796 318.37 L 354.136 318.37 L 354.136 294.06 L 367.796 294.06 L 367.796 318.37 Z M 367.796 283.13 L 354.136 283.13 L 354.136 258.68 L 367.796 258.68 L 367.796 283.13 Z M 403.716 424.08 L 390.056 424.08 L 390.056 399.77 L 403.716 399.77 L 403.716 424.08 Z M 403.716 388.84 L 390.056 388.84 L 390.056 364.53 L 403.716 364.53 L 403.716 388.84 Z M 403.716 353.6 L 390.056 353.6 L 390.056 329.29 L 403.716 329.29 L 403.716 353.6 Z M 403.716 318.36 L 390.056 318.36 L 390.056 294.05 L 403.716 294.05 L 403.716 318.36 Z M 403.716 283.12 L 390.056 283.12 L 390.056 258.67 L 403.716 258.67 L 403.716 283.12 Z M 439.636 424.07 L 425.976 424.07 L 425.976 399.76 L 439.636 399.76 L 439.636 424.07 Z M 439.636 388.83 L 425.976 388.83 L 425.976 364.52 L 439.636 364.52 L 439.636 388.83 Z M 439.636 353.59 L 425.976 353.59 L 425.976 329.28 L 439.636 329.28 L 439.636 353.59 Z M 439.636 318.35 L 425.976 318.35 L 425.976 294.04 L 439.636 294.04 L 439.636 318.35 Z M 439.636 283.11 L 425.976 283.11 L 425.976 258.66 L 439.636 258.66 L 439.636 283.11 Z M 475.556 424.19 L 461.896 424.19 L 461.896 399.74 L 475.556 399.74 L 475.556 424.19 Z M 475.556 388.95 L 461.896 388.95 L 461.896 364.5 L 475.556 364.5 L 475.556 388.95 Z M 475.556 353.71 L 461.896 353.71 L 461.896 329.26 L 475.556 329.26 L 475.556 353.71 Z M 475.556 318.47 L 461.896 318.47 L 461.896 294.02 L 475.556 294.02 L 475.556 318.47 Z M 475.556 283.23 L 461.896 283.23 L 461.896 258.78 L 475.556 258.78 L 475.556 283.23 Z M 565.096 703.19 C 555.536 703.19 547.816 695.46 547.816 685.91 C 547.816 676.36 555.546 668.63 565.096 668.63 C 574.646 668.63 582.376 676.36 582.376 685.91 C 582.376 695.46 574.646 703.19 565.096 703.19 Z M 565.706 130.96 C 556.146 130.96 548.426 123.23 548.426 113.68 C 548.426 104.13 556.156 96.4 565.706 96.4 C 575.256 96.4 582.986 104.13 582.986 113.68 C 582.986 123.23 575.256 130.96 565.706 130.96 Z M 730.826 417.07 C 721.266 417.07 713.546 409.34 713.546 399.79 C 713.546 390.24 721.276 382.51 730.826 382.51 C 740.376 382.51 748.106 390.24 748.106 399.79 C 748.106 409.34 740.376 417.07 730.826 417.07 Z"/>
      <g>
        <g id="Touchpins">
          <path id="Plus-Pin" class="cls-21" d="m564.65,73.03c-7.54,0-14.59,2.11-20.61,5.77-.55.3-1.1.67-1.62,1.01-.06.06-.12.09-.18.15-.7.46-1.37.95-2.02,1.47-.03,0-.06.03-.06.06-.64.49-1.28,1.04-1.92,1.59-.31.28-.61.55-.92.86-.31.28-.61.58-.92.89-.58.58-1.16,1.22-1.71,1.83-1.68,1.92-3.18,4-4.43,6.2-.43.73-.82,1.47-1.22,2.23-.37.76-.73,1.56-1.07,2.35-.18.4-.34.76-.46,1.16-.12.31-.24.61-.34.95-.37.98-.67,1.95-.92,2.93-.21.76-.4,1.53-.58,2.29-.06.43-.15.89-.21,1.31-.06.4-.12.82-.18,1.25-.09.7-.18,1.4-.24,2.11-.03.37-.06.76-.09,1.16-.03.73-.06,1.47-.06,2.2,0,21.95,17.8,39.75,39.75,39.75,1.28,0,2.57-.06,3.82-.18,3.79-.37,7.39-1.25,10.78-2.59.34-.12.7-.28,1.04-.43.85-.37,1.71-.76,2.53-1.19.82-.43,1.65-.89,2.44-1.37.64-.4,1.25-.79,1.86-1.19.61-.43,1.19-.86,1.77-1.31.58-.43,1.16-.89,1.71-1.37.58-.49,1.1-.98,1.62-1.47.52-.52,1.07-1.04,1.56-1.59.49-.55.98-1.1,1.43-1.65.52-.58.98-1.19,1.43-1.83.4-.55.79-1.13,1.19-1.71.49-.7.95-1.43,1.34-2.2.34-.58.67-1.16.98-1.77.34-.67.67-1.37.98-2.08.82-1.89,1.5-3.85,2.02-5.86.24-.92.43-1.86.61-2.81v-.09c.43-2.29.64-4.64.64-7.05,0-21.95-17.8-39.75-39.75-39.75Zm0,57.07c-9.56,0-17.31-7.76-17.31-17.31s7.76-17.31,17.31-17.31,17.31,7.76,17.31,17.31-7.76,17.31-17.31,17.31Z" style="fill: rgb(255, 215, 0);"/>
          <path id="Minus-Pin" class="cls-21" d="m274.34,110.07v-.03c.03-.06.03-.12,0-.15-.03-.52-.06-1.04-.12-1.56-.06-.73-.15-1.47-.28-2.2-.06-.43-.15-.86-.24-1.25-.7-3.82-1.98-7.42-3.72-10.75-.27-.58-.58-1.13-.92-1.68-.31-.55-.64-1.1-1.01-1.65-.28-.46-.55-.89-.86-1.31-.58-.79-1.16-1.59-1.77-2.32-.03-.06-.06-.09-.09-.12-.61-.73-1.22-1.4-1.86-2.08-7.27-7.66-17.53-12.46-28.95-12.46-22.05,0-39.94,17.86-39.94,39.91,0,1.92.12,3.79.4,5.62v.09c.03.09.03.18.06.24l.18,1.1c.12.89.31,1.74.55,2.6.15.58.31,1.19.49,1.77.12.43.24.85.4,1.25.43,1.34.92,2.63,1.53,3.88.24.58.52,1.1.79,1.65.24.49.52.98.79,1.47.28.52.58,1.04.92,1.53.21.4.46.76.73,1.13,1.43,2.14,3.05,4.12,4.86,5.92.58.58,1.19,1.13,1.8,1.68.61.55,1.22,1.04,1.83,1.53.86.67,1.71,1.28,2.63,1.89.82.52,1.65,1.04,2.5,1.5.15.12.31.21.46.28.89.49,1.8.92,2.75,1.34.98.46,1.98.86,3.02,1.22,1.16.43,2.35.76,3.57,1.07.95.24,1.89.46,2.87.61,1.56.28,3.14.46,4.76.52.67.03,1.34.06,2.05.06,22.04,0,39.91-17.86,39.91-39.94,0-.79-.03-1.59-.09-2.35Zm-39.81,19.66c-9.56,0-17.31-7.72-17.31-17.31s7.76-17.31,17.31-17.31,17.31,7.76,17.31,17.31-7.76,17.31-17.31,17.31Z" style="fill: rgb(255, 215, 0); stroke: rgb(255, 215, 0);"/>
          <path id="Pin_3" fill="#efda4c" stroke="#efda4c" data-name="Pin 3" class="cls-21" d="m742.45,362.83c-1.95-.67-4.03-1.19-6.14-1.53-.37-.06-.76-.12-1.16-.18-1.74-.24-3.54-.37-5.37-.37-.52,0-1.01,0-1.53.06-.4,0-.76.03-1.13.06-1.13.03-2.26.15-3.39.34-.98.15-1.95.37-2.9.58-.49.12-.98.24-1.43.37-1.28.31-2.5.7-3.73,1.19-.73.28-1.5.58-2.23.92-.73.34-1.47.7-2.17,1.07-.7.37-1.4.76-2.08,1.19-.76.46-1.5.92-2.2,1.43-.7.49-1.44,1.04-2.11,1.59-.37.31-.73.61-1.1.92-.49.4-.95.82-1.37,1.28-.24.21-.46.43-.7.67-7.21,7.21-11.63,17.1-11.63,28.06,0,21.92,17.77,39.72,39.69,39.72.89,0,1.77-.03,2.63-.09.27,0,.58-.03.85-.09.89-.03,1.74-.15,2.57-.27.89-.12,1.74-.27,2.56-.49.27-.06.55-.12.82-.18.79-.18,1.59-.43,2.38-.67.61-.18,1.25-.4,1.83-.61,15.24-5.59,26.08-20.18,26.08-37.31s-11.33-32.36-27.05-37.65Zm-12.64,54.96c-9.59,0-17.31-7.76-17.31-17.31s7.72-17.31,17.31-17.31,17.28,7.76,17.28,17.31-7.72,17.31-17.28,17.31Z"/>
          <ellipse style="fill: rgb(216, 216, 219);" cx="730" cy="400" rx="18" ry="18"/>
          <path stroke="null" d="M 698.797 400.009 L 700.195 400.009 C 700.595 400.009 701.194 400.009 701.594 399.609 C 701.993 399.208 702.393 399.208 702.593 398.808 C 702.992 398.407 702.992 398.407 703.392 398.007 C 703.791 397.607 703.791 397.206 703.791 397.006 C 703.791 396.205 703.392 395.604 702.992 394.803 C 702.593 394.403 701.993 394.003 700.795 394.003 C 700.395 394.003 699.996 394.003 699.796 394.403 C 699.396 394.403 698.997 394.803 698.997 394.803 C 698.597 395.204 698.597 395.204 698.198 395.604 C 697.798 396.005 697.798 396.405 697.798 396.605 L 696 396.605 C 696 395.805 696 395.604 696.4 394.803 C 696.799 394.403 697.199 393.802 697.398 393.402 C 697.798 393.001 698.397 392.601 698.797 392.401 C 699.596 392 699.796 392 700.595 392 C 701.394 392 701.993 392 702.393 392.401 C 702.792 392.801 703.392 392.801 703.791 393.202 C 704.191 393.602 704.59 394.003 704.79 394.603 C 705.19 395.404 705.19 395.604 705.19 396.405 C 705.19 396.806 705.19 397.206 705.19 397.406 C 705.19 397.807 704.79 398.207 704.79 398.407 C 704.79 398.608 704.391 399.208 703.991 399.208 C 703.592 399.609 703.192 399.609 702.992 400.009 C 703.392 400.009 703.991 400.41 703.991 400.81 C 703.991 401.211 704.79 401.611 704.79 401.611 C 705.19 402.011 705.19 402.412 705.19 402.612 C 705.19 402.812 705.19 403.413 705.19 403.613 C 705.19 404.414 705.19 405.015 704.79 405.415 C 704.391 405.816 703.991 406.416 703.791 406.817 C 703.392 407.217 702.792 407.618 702.393 407.618 C 701.594 408.018 701.394 408.018 700.595 408.018 C 699.796 408.018 699.196 408.018 698.797 407.618 C 698.397 407.217 697.798 407.217 697.398 406.817 C 696.999 406.416 696.599 406.016 696.4 405.415 C 696 405.015 696 404.414 696 403.613 L 697.798 403.613 C 697.798 404.014 697.798 404.414 698.198 404.614 C 698.198 405.015 698.597 405.415 698.997 405.415 C 699.396 405.415 699.796 405.816 699.996 405.816 C 700.195 405.816 700.795 406.216 700.994 406.216 C 701.394 406.216 701.794 406.216 701.993 406.216 C 702.393 406.216 702.793 405.816 702.992 405.816 C 703.392 405.816 703.392 405.415 703.791 405.015 C 703.791 404.614 704.191 404.214 704.191 404.014 C 704.191 403.813 704.191 403.213 703.791 403.013 C 703.791 402.612 703.392 402.212 702.992 402.212 C 702.593 401.811 702.193 401.811 701.993 401.811 C 701.594 401.811 701.194 401.811 700.595 401.811 L 699.196 401.811 L 699.196 400.009 L 698.797 400.009 Z" id="svg_217"/>
          <path id="Pin_2" fill="#efda4b" stroke="#efda4b" data-name="Pin 2" class="cls-21" d="m603.46,677.35c-.12-.52-.24-1.04-.4-1.53-.43-1.68-.98-3.3-1.65-4.85-.15-.37-.31-.73-.46-1.07-.82-1.92-1.83-3.73-2.96-5.43-.18-.31-.4-.61-.61-.92-1.77-2.6-3.82-4.98-6.14-7.05-.4-.37-.79-.7-1.22-1.07-.58-.49-1.16-.98-1.77-1.4-.49-.37-.98-.7-1.47-1.07-.95-.64-1.89-1.22-2.9-1.8-.49-.24-.98-.52-1.47-.76-1.01-.52-2.05-1.01-3.08-1.4-.52-.21-1.04-.43-1.59-.61-1.28-.49-2.57-.89-3.91-1.19-.52-.15-1.04-.27-1.59-.4-.79-.15-1.59-.31-2.38-.4-.55-.09-1.13-.15-1.71-.21-.67-.06-1.34-.12-2.05-.15-.67-.03-1.37-.06-2.08-.06s-1.4.03-2.08.06c-1.04.03-2.05.12-3.05.27-.55.06-1.1.15-1.65.24-1.8.27-3.54.7-5.25,1.25-.64.18-1.25.4-1.89.64-.61.21-1.22.46-1.83.73-.61.24-1.19.52-1.77.79-5.92,2.84-11.05,7.11-14.93,12.34-.64.86-1.25,1.74-1.8,2.66-.95,1.47-1.8,3.02-2.5,4.64-.64,1.34-1.19,2.75-1.65,4.15-.18.52-.34,1.04-.49,1.56-1.01,3.54-1.56,7.27-1.56,11.14,0,22.32,18.11,40.46,40.46,40.46s40.46-18.14,40.46-40.46c0-3.14-.37-6.17-1.04-9.1Zm-39.42,26.38c-9.56,0-17.31-7.72-17.31-17.28s7.76-17.31,17.31-17.31,17.31,7.72,17.31,17.31-7.76,17.28-17.31,17.28Z"/>
          <ellipse style="fill: rgb(216, 216, 218);" cx="564" cy="686" rx="18" ry="18"/>
          <path stroke="null" d="M 570.387 664.417 L 560.199 664.417 L 560.199 663.015 L 565.193 657.209 C 565.593 656.808 565.992 656.208 566.192 655.807 C 566.591 655.407 566.991 655.006 566.991 654.806 C 567.391 654.406 567.391 654.005 567.391 653.805 C 567.391 653.405 567.391 653.004 567.391 653.004 C 567.391 652.604 567.391 652.203 566.991 652.003 C 566.991 651.603 566.591 651.202 566.192 651.202 C 565.792 651.202 565.792 650.802 565.393 650.401 C 564.993 650.401 564.594 650.001 564.394 650.001 C 563.994 650.001 563.395 650.001 562.995 650.401 C 562.596 650.401 562.196 650.802 561.997 651.202 C 561.597 651.603 561.597 652.003 561.197 652.203 C 561.197 652.604 560.798 653.004 560.798 653.605 L 559 653.605 C 559 652.804 559 652.604 559.399 651.803 C 559.799 651.002 560.199 650.802 560.398 650.401 C 560.598 650.001 561.397 649.6 561.797 649.4 C 562.196 649 563.195 649 563.994 649 C 564.793 649 565.393 649 565.792 649.4 C 566.591 649.801 566.791 649.801 567.191 650.201 C 567.59 650.601 567.99 651.002 568.19 651.603 C 568.589 652.403 568.589 652.604 568.589 653.405 C 568.589 653.805 568.589 654.406 568.19 654.806 C 567.79 655.207 567.79 655.607 567.391 656.208 C 566.991 656.608 566.591 657.009 566.392 657.609 C 565.992 658.01 565.593 658.41 565.393 659.011 L 561.397 663.416 L 568.989 663.416 L 568.989 664.417 L 570.387 664.417 Z" id="svg_221"/>
          <path id="Pin_1" fill="#efda4a" stroke="#efda4a" data-name="Pin 1" class="cls-21" d="m274.1,676.65c-.24-.98-.55-1.92-.86-2.87-.03-.12-.06-.21-.12-.31-.27-.82-.58-1.65-.92-2.44-.09-.21-.18-.43-.3-.67-.34-.82-.73-1.62-1.13-2.38-.52-1.01-1.1-2.02-1.71-2.96-.49-.76-.98-1.5-1.53-2.2-.52-.73-1.04-1.4-1.62-2.08-.21-.27-.46-.55-.73-.82-.49-.61-1.04-1.19-1.62-1.77-.03-.03-.06-.06-.09-.09-.61-.61-1.22-1.19-1.89-1.77-.86-.76-1.77-1.5-2.72-2.17-.79-.61-1.65-1.19-2.53-1.74-.86-.55-1.74-1.07-2.66-1.53-.92-.52-1.83-.95-2.78-1.34-2.38-1.04-4.89-1.86-7.45-2.41-.52-.09-1.04-.21-1.56-.31-.52-.09-1.04-.18-1.59-.24-.52-.06-1.04-.12-1.59-.18-1.31-.15-2.66-.21-4-.21s-2.78.06-4.15.21c-.7.06-1.37.15-2.05.24-2.02.31-4,.76-5.89,1.37-3.82,1.19-7.42,2.93-10.66,5.1-.55.37-1.07.76-1.59,1.16-.55.4-1.07.79-1.56,1.19-.52.43-.98.86-1.47,1.28-.49.43-.95.89-1.4,1.34-.46.46-.92.92-1.34,1.4-1.31,1.47-2.53,2.99-3.63,4.61-.73,1.1-1.4,2.2-2.02,3.36-.34.58-.61,1.16-.92,1.74-.55,1.19-1.07,2.41-1.53,3.66-1.59,4.37-2.47,9.07-2.47,13.98,0,22.47,18.2,40.67,40.67,40.67s40.67-18.2,40.67-40.67c0-3.51-.46-6.93-1.28-10.17Zm-39.39,27.57c-9.62,0-17.4-7.79-17.4-17.4s7.79-17.4,17.4-17.4,17.4,7.82,17.4,17.4-7.82,17.4-17.4,17.4Z"/>
          <ellipse style="fill: rgb(216, 216, 217);" cx="235" cy="688" rx="18" ry="18"/>
          <path stroke="null" d="M 239 666.617 L 236.828 666.617 L 236.828 653.602 L 232 655.004 L 232 653.202 L 239 651 L 239 666.617 Z" id="svg_219"/>
          <path id="Pin_0" fill="#efda49" stroke="#efda49" data-name="Pin 0" class="cls-21" d="m69.44,360.54c-.7,0-1.37.03-2.05.06-.64.03-1.28.06-1.92.15-2.5.21-4.95.7-7.3,1.4-16.55,4.85-28.67,20.18-28.67,38.32,0,16.55,10.08,30.75,24.4,36.79,1.19.49,2.41.95,3.66,1.34,1.25.4,2.53.73,3.82.98.67.15,1.31.27,1.98.37.67.09,1.31.18,1.98.24,1.34.15,2.72.21,4.09.21,22.08,0,39.94-17.86,39.94-39.94s-17.86-39.94-39.94-39.94Zm0,57.25c-9.56,0-17.31-7.76-17.31-17.31s7.76-17.31,17.31-17.31,17.31,7.76,17.31,17.31-7.76,17.31-17.31,17.31Z"/>
          <ellipse style="fill: rgb(216, 216, 216);" cx="69" cy="400" rx="18" ry="18"/>
          <path stroke="null" d="M 102.621 401.644 C 102.621 402.645 102.621 403.446 102.222 404.247 C 101.822 405.048 101.423 405.649 101.223 406.049 C 100.823 406.449 100.224 407.05 99.824 407.05 C 99.425 407.05 98.426 407.451 97.627 407.451 C 96.828 407.451 96.228 407.451 95.429 407.05 C 94.63 406.65 94.43 406.249 94.031 406.049 C 93.631 405.649 93.232 405.048 93.032 404.247 C 92.632 403.446 92.632 402.445 92.632 401.644 L 92.632 398.04 C 92.632 397.039 92.632 396.238 93.032 395.437 C 93.431 394.636 93.831 394.036 94.031 393.635 C 94.43 393.235 95.03 392.634 95.429 392.634 C 96.228 392.234 96.828 392.234 97.627 392.234 C 98.426 392.234 99.025 392.234 99.824 392.634 C 100.623 393.035 100.823 393.435 101.223 393.635 C 101.622 393.835 102.022 394.636 102.222 395.437 C 102.621 396.238 102.621 397.239 102.621 398.04 L 102.621 401.644 Z M 94.63 401.244 L 100.823 396.438 C 100.823 395.437 100.424 394.636 100.024 394.236 C 99.625 393.835 99.025 393.435 97.827 393.435 C 96.828 393.435 96.029 393.835 95.629 394.436 C 95.229 395.237 94.83 396.238 94.83 397.239 L 94.83 400.843 L 94.63 400.843 L 94.63 401.244 Z M 100.424 398.24 L 94.231 403.046 C 94.231 404.047 94.63 404.848 95.229 405.248 C 96.029 405.649 96.228 406.049 97.427 406.049 C 98.426 406.049 99.225 405.649 99.625 405.048 C 100.024 404.247 100.424 403.246 100.424 402.245 L 100.424 398.24 Z" id="svg_211"/>
        </g>
        <g>
          <rect x="174.388" y="277.84" width="49.977" height="50" style="stroke: rgb(255, 255, 255); fill: none; stroke-width: 4px; transform-box: fill-box; transform-origin: 50% 50%;" transform="matrix(0.707145, 0.707069, -0.707069, 0.707145, 11.832737, 56.505884)"/>
          <text style="white-space: pre; fill: rgb(255, 255, 255); stroke-width: 0px; font-size: 30; font-family:Arial" x="142.683" y="262.805" transform="matrix(1, 0, 0, 1, -147.682999, 104.878998)">
                        A
                        <tspan x="142.68299865722656" dy="1em">​</tspan>
                    </text>
        </g>
        <g>
          <circle class="st6" cx="575" cy="344" r="29.868" id="circle-1" style="stroke: rgb(255, 255, 255); stroke-width: 4px; fill: none;"/>
          <text style="white-space: pre; fill: rgb(255, 255, 255); stroke-width: 0px; font-size: 30; font-family:Arial;" x="142.683" y="262.805" transform="matrix(1, 0, 0, 1, 215.317001, 90.634018)">
                        B
                        <tspan x="142.68299865722656" dy="1em">​</tspan>
                    </text>
        </g>
        <g id="Mikrofon">
          <rect class="cls-12" x="618.33" y="410.16" width="31.66" height="25.5" rx="1.73" ry="1.73"/>
          <rect class="cls-18" x="619.18" y="410.84" width="29.97" height="24.13" rx="1.64" ry="1.64"/>
          <circle class="cls-7" cx="625.78" cy="422.91" r="1.73"/>
        </g>
        <path class="cls-6" d="m597.15,370.65l-7.97-7.97,9.5-9.5,7.97,7.97-9.5,9.5Z"/>
        <path class="cls-6" d="m645.86,321.94l-7.97-7.97,9.5-9.5,7.97,7.97-9.5,9.5Z"/>
        <path class="cls-6" d="m624.72,398.22l-7.97-7.97,9.5-9.5,7.97,7.97-9.5,9.5Z"/>
        <path class="cls-6" d="m673.44,349.51l-7.97-7.97,9.5-9.5,7.97,7.97-9.5,9.5Z"/>
        <path class="cls-6" d="m513.88,447.23l-.1.77-.44.94-.73.73-.94.44-.77.1h-13.95l-.77-.1-.94-.44-.73-.73-.44-.94-.1-.77v-13.95l.1-.77.44-.94.73-.73.94-.44.77-.1h13.95l.77.1.94.44.73.73.44.94.1.77v13.95Z"/>
        <path class="cls-6" d="m575.4,447.23l-.1.77-.44.94-.73.73-.94.44-.77.1h-13.95l-.77-.1-.94-.44-.73-.73-.44-.94-.1-.77v-13.95l.1-.77.44-.94.73-.73.94-.44.77-.1h13.95l.77.1.94.44.73.73.44.94.1.77v13.95Z"/>
        <path class="cls-6" d="m575.4,385.71l-.1.77-.44.94-.73.73-.94.44-.77.1h-13.95l-.77-.1-.94-.44-.73-.73-.44-.94-.1-.77v-13.95l.1-.77.44-.94.73-.73.94-.44.77-.1h13.95l.77.1.94.44.73.73.44.94.1.77v13.95Z"/>
        <path class="cls-6" d="m513.88,385.71l-.1.77-.44.94-.73.73-.94.44-.77.1h-13.95l-.77-.1-.94-.44-.73-.73-.44-.94-.1-.77v-13.95l.1-.77.44-.94.73-.73.94-.44.77-.1h13.95l.77.1.94.44.73.73.44.94.1.77v13.95Z"/>
        <path class="cls-6" d="m179.2,390.26l-7.97,7.97-9.5-9.5,7.97-7.97,9.5,9.5Z"/>
        <path class="cls-6" d="m130.49,341.55l-7.97,7.97-9.5-9.5,7.97-7.97,9.5,9.5Z"/>
        <path class="cls-6" d="m206.77,362.69l-7.97,7.97-9.5-9.5,7.97-7.97,9.5,9.5Z"/>
        <path class="cls-6" d="m158.06,313.97l-7.97,7.97-9.5-9.5,7.97-7.97,9.5,9.5Z"/>
        <path id="Lautsprecher" class="cls-7" d="m511.59,446.28h46.17c.46,0,.9-.18,1.22-.51l11.97-11.97c.32-.32.51-.76.51-1.22v-46.17c0-.46-.18-.9-.51-1.22l-11.97-11.97c-.32-.32-.76-.51-1.22-.51h-46.17c-.46,0-.9.18-1.22.51l-11.97,11.97c-.32.32-.51.76-.51,1.22v46.17c0,.46.18.9.51,1.22l11.97,11.97c.32.32.76.51,1.22.51Z"/>
        <g id="Anwendungs-Prozessor">
          <rect class="cls-7" x="223.93" y="400.38" width="60.58" height="60.58" rx="1.73" ry="1.73" transform="translate(-230.07 305.91) rotate(-45)"/>
        </g>
        <g id="RGB-LEDs">
          <g id="RGB-LED">
            <path class="cls-14" d="m360.51,460.99c0,1.04.73,1.92,1.71,2.14v4.4c-.98.21-1.71,1.1-1.71,2.14s.73,1.92,1.71,2.14v1.31c0,.49-.37.89-.86.89h-17.33c-.49,0-.86-.4-.86-.89v-1.31c.98-.21,1.71-1.1,1.71-2.14s-.73-1.92-1.71-2.14v-4.4c.98-.21,1.71-1.1,1.71-2.14s-.73-1.92-1.71-2.14v-1.31c0-.49.37-.86.86-.86h17.33c.49,0,.86.37.86.86v1.31c-.98.21-1.71,1.1-1.71,2.14Z"/>
            <rect class="cls-10" x="347.59" y="458.08" width="6.06" height="2.86"/>
            <rect class="cls-5" x="346.43" y="456.68" width="12.55" height="17.31"/>
          </g>
          <g id="RGB-LED-2" data-name="RGB-LED">
            <path class="cls-14" d="m403.84,460.99c0,1.04.73,1.92,1.71,2.14v4.4c-.98.21-1.71,1.1-1.71,2.14s.73,1.92,1.71,2.14v1.31c0,.49-.37.89-.86.89h-17.33c-.49,0-.86-.4-.86-.89v-1.31c.98-.21,1.71-1.1,1.71-2.14s-.73-1.92-1.71-2.14v-4.4c.98-.21,1.71-1.1,1.71-2.14s-.73-1.92-1.71-2.14v-1.31c0-.49.37-.86.86-.86h17.33c.49,0,.86.37.86.86v1.31c-.98.21-1.71,1.1-1.71,2.14Z"/>
            <rect class="cls-10" x="390.92" y="458.08" width="6.06" height="2.86"/>
            <rect class="cls-5" x="389.76" y="456.68" width="12.55" height="17.31"/>
          </g>
          <g id="RGB-LED-3" data-name="RGB-LED">
            <path class="cls-14" d="m447.13,460.99c0,1.04.73,1.92,1.71,2.14v4.4c-.98.21-1.71,1.1-1.71,2.14s.73,1.92,1.71,2.14v1.31c0,.49-.37.89-.86.89h-17.33c-.49,0-.86-.4-.86-.89v-1.31c.98-.21,1.71-1.1,1.71-2.14s-.73-1.92-1.71-2.14v-4.4c.98-.21,1.71-1.1,1.71-2.14s-.73-1.92-1.71-2.14v-1.31c0-.49.37-.86.86-.86h17.33c.49,0,.86.37.86.86v1.31c-.98.21-1.71,1.1-1.71,2.14Z"/>
            <rect class="cls-10" x="434.21" y="458.08" width="6.06" height="2.86"/>
            <rect class="cls-5" x="433.05" y="456.68" width="12.55" height="17.31"/>
          </g>
        </g>
        <g id="Kleine_LEDs" data-name="Kleine LEDs">
          <use width="2.04" height="2.48" transform="matrix(3.049999952316284, 0, 0, 3.049999952316284, 335.7200012207031, 142.85000610351562)" xlink:href="#Calliope_3_Small_LED_2"/>
          <use width="2.04" height="2.48" transform="matrix(3.049999952316284, 0, 0, 3.049999952316284, 327.04998779296875, 142.85000610351562)" xlink:href="#Calliope_3_Small_LED_2"/>
          <use width="2.04" height="2.48" transform="matrix(0, -3.049999952316284, 3.049999952316284, 0, 652.4500122070312, 403.7200012207031)" xlink:href="#Calliope_3_Small_LED_2"/>
        </g>
        <g id="USB-C_Vorne" data-name="USB-C Vorne">
          <g id="Loetpads">
            <rect class="cls-13" x="425.24" y="188.91" width="1.74" height="6.08"/>
            <rect class="cls-13" x="420.48" y="188.91" width="1.74" height="6.08"/>
            <rect class="cls-13" x="418.34" y="188.91" width="1.71" height="6.08"/>
            <rect class="cls-13" x="413.79" y="188.91" width="1.71" height="6.08"/>
            <rect class="cls-13" x="427.41" y="188.91" width="1.74" height="6.08"/>
            <rect class="cls-13" x="409.45" y="188.91" width="1.74" height="6.08"/>
            <rect class="cls-13" x="405.12" y="188.91" width="1.74" height="6.08"/>
            <rect class="cls-13" x="400.81" y="188.91" width="1.71" height="6.08"/>
            <rect class="cls-13" x="396.48" y="188.91" width="1.74" height="6.08"/>
            <rect class="cls-13" x="392.14" y="188.91" width="1.74" height="6.08"/>
            <rect class="cls-13" x="387.81" y="188.91" width="1.74" height="6.08"/>
            <rect class="cls-13" x="383.5" y="188.91" width="1.71" height="6.08"/>
            <rect class="cls-13" x="378.95" y="188.91" width="1.74" height="6.08"/>
            <rect class="cls-13" x="376.78" y="188.91" width="1.74" height="6.08"/>
            <rect class="cls-13" x="372.02" y="188.91" width="1.74" height="6.08"/>
            <rect class="cls-13" x="369.85" y="188.91" width="1.74" height="6.08"/>
          </g>
          <rect id="Bruecke_unten_links" class="cls-15" x="349.58" y="181.98" width="11.24" height="6.93"/>
          <rect id="Brücke_unten_rechts" class="cls-15" x="438.19" y="181.98" width="11.27" height="6.93"/>
          <path id="USB" class="cls-17" d="m438.19,132.67v56.24h-13.92c-.18,0-.37-.03-.55-.06-.15-.03-.31-.06-.46-.15-.18-.06-.34-.12-.46-.24-.15-.09-.28-.18-.37-.3-.15-.12-.24-.24-.31-.37-.31-.43-.46-.92-.46-1.47v-4.76c0-.7-.58-1.28-1.31-1.28h-10.38c-.7,0-1.28.58-1.28,1.28v.7c0,.37.15.67.43.95v.03l.09.06.27.15.49.09h2.14v5.37h-25.22v-5.37h2.14c.34,0,.61-.12.86-.31.06-.06.12-.12.18-.21.09-.09.15-.21.18-.34.06-.15.09-.28.09-.43v-.7c0-.7-.58-1.28-1.31-1.28h-10.38c-.73,0-1.31.58-1.31,1.28v4.76c0,.55-.15,1.04-.46,1.47-.06.12-.15.24-.31.37-.12.12-.24.21-.37.3-.15.12-.31.18-.46.24-.15.06-.31.12-.46.15-.18.03-.37.06-.55.06h-13.92v-56.24h77.37Z"/>
          <path id="Bruecke_oben_links" class="cls-15" d="m449.45,145.65v3.02h-2.14c-.73,0-1.31.58-1.31,1.31v1.71c0,.73.58,1.31,1.31,1.31h2.14v3.02h-11.27v-10.38h11.27Z"/>
          <path id="Bruecke_oben_links-2" data-name="Bruecke_oben_links" class="cls-15" d="m360.81,145.65v10.38h-11.24v-3.02h2.14c.7,0,1.28-.58,1.28-1.31v-1.71c0-.73-.58-1.31-1.28-1.31h-2.14v-3.02h11.24Z"/>
          <rect class="cls-15" x="378.89" y="172.46" width="10.5" height="4.34" rx=".86" ry=".86"/>
          <rect class="cls-15" x="409.61" y="172.46" width="10.5" height="4.34" rx=".87" ry=".87"/>
          <path class="cls-8" d="m424.26,188.91h-12.15v-5.37h-2.14l-.49-.09-.27-.15-.09-.06v-.03c-.28-.27-.43-.58-.43-.95v-.7c0-.7.58-1.28,1.28-1.28h10.38c.73,0,1.31.58,1.31,1.28v4.76c0,.55.15,1.04.46,1.47.06.12.15.24.31.37.09.12.21.21.37.3.12.12.28.18.46.24.15.09.31.12.46.15.18.03.37.06.55.06Z"/>
          <path class="cls-8" d="m390.34,181.56v.7c0,.15-.03.27-.09.43-.03.12-.09.24-.18.34-.06.09-.12.15-.18.21-.24.18-.52.31-.86.31h-2.14v5.37h-12.15c.18,0,.37-.03.55-.06.15-.03.31-.09.46-.15.15-.06.3-.12.46-.24.12-.09.24-.18.37-.3.15-.12.24-.24.31-.37.31-.43.46-.92.46-1.47v-4.76c0-.7.58-1.28,1.31-1.28h10.38c.73,0,1.31.58,1.31,1.28Z"/>
        </g>
        <rect class="cls-11" x="167.87" y="335.59" width="24.68" height="28.84" transform="translate(-194.71 229.95) rotate(-45)"/>
      </g>
      <rect id="Lagesensor-2" data-name="Lagesensor" class="cls-7" x="249.03" y="328.57" width="17.28" height="17.31" rx="1.73" ry="1.73"/>
      <path id="Antenne-2" data-name="Antenne" class="cls-3" d="m131.27,427.58l-23.71,23.71c-.24.24-.24.63,0,.86l9.55,9.55c.24.24.63.24.86,0l15.31-15.31c.24-.24.63-.24.86,0l17.52,17.52c.24.24.24.63,0,.86l-15.31,15.31c-.24.24-.24.63,0,.86l9.55,9.55c.24.24.63.24.86,0l15.31-15.31c.24-.24.63-.24.86,0l17.52,17.52c.24.24.24.63,0,.86l-15.31,15.31c-.24.24-.24.63,0,.86l9.55,9.55c.24.24.63.24.86,0l29.16-29.16c.24-.24.63-.24.86,0l2.2,2.2c.24.24.24.63,0,.86l-29.16,29.16c-.24.24-.24.63,0,.86l7.71,7.71c.24.24.63.24.86,0l25.51-25.51"/>
      <path class="cls-7" d="m235.35,541.13v39.8c0,.96.77,1.73,1.73,1.73h329.75c.96,0,1.73-.77,1.73-1.73v-39.8c0-.96-.77-1.73-1.73-1.73H237.09c-.96,0-1.73.77-1.73,1.73Zm172.05,3.43v10.96h-10.93v-10.96h10.93Zm-153.86,32.95h-10.96v-10.96h10.96v10.96Zm0-21.98h-10.96v-10.96h10.96v10.96Zm21.98,21.98h-10.96v-10.96h10.96v10.96Zm0-21.98h-10.96v-10.96h10.96v10.96Zm21.98,21.98h-10.96v-10.96h10.96v10.96Zm0-21.98h-10.96v-10.96h10.96v10.96Zm21.98,21.98h-10.96v-10.96h10.96v10.96Zm0-21.98h-10.96v-10.96h10.96v10.96Zm21.98,21.98h-10.96v-10.96h10.96v10.96Zm0-21.98h-10.96v-10.96h10.96v10.96Zm21.98,21.98h-10.96v-10.96h10.96v10.96Zm0-21.98h-10.96v-10.96h10.96v10.96Zm21.95,21.98h-10.93v-10.96h10.93v10.96Zm0-21.98h-10.93v-10.96h10.93v10.96Zm21.98,21.98h-10.93v-10.96h10.93v10.96Zm21.98,0h-10.93v-10.96h10.93v10.96Zm0-21.98h-10.93v-10.96h10.93v10.96Zm21.98,21.98h-10.93v-10.96h10.93v10.96Zm0-21.98h-10.93v-10.96h10.93v10.96Zm21.98,21.98h-10.93v-10.96h10.93v10.96Zm0-21.98h-10.93v-10.96h10.93v10.96Zm21.98,21.98h-10.93v-10.96h10.93v10.96Zm0-21.98h-10.93v-10.96h10.93v10.96Zm21.98,21.98h-10.93v-10.96h10.93v10.96Zm0-21.98h-10.93v-10.96h10.93v10.96Zm21.98,21.98h-10.93v-10.96h10.93v10.96Zm0-21.98h-10.93v-10.96h10.93v10.96Zm21.98,21.98h-10.93v-10.96h10.93v10.96Zm0-21.98h-10.93v-10.96h10.93v10.96Z"/>
      <g id="Aussen-2" data-name="Aussen">
        <path class="cls-7" d="m242.59,566.55v10.96h10.96v-10.96h-10.96Zm9.22,9.22h-7.48v-7.48h7.48v7.48Z"/>
        <path class="cls-7" d="m264.57,566.55v10.96h10.96v-10.96h-10.96Zm9.22,9.22h-7.48v-7.48h7.48v7.48Z"/>
        <path class="cls-7" d="m286.56,566.55v10.96h10.96v-10.96h-10.96Zm9.22,9.22h-7.48v-7.48h7.48v7.48Z"/>
        <path class="cls-7" d="m308.54,566.55v10.96h10.96v-10.96h-10.96Zm9.22,9.22h-7.48v-7.48h7.48v7.48Z"/>
        <path class="cls-7" d="m330.53,566.55v10.96h10.96v-10.96h-10.96Zm9.22,9.22h-7.48v-7.48h7.48v7.48Z"/>
        <path class="cls-7" d="m352.51,566.55v10.96h10.96v-10.96h-10.96Zm9.22,9.22h-7.48v-7.48h7.48v7.48Z"/>
        <path class="cls-7" d="m374.49,566.55v10.96h10.93v-10.96h-10.93Zm9.22,9.22h-7.48v-7.48h7.48v7.48Z"/>
        <path class="cls-7" d="m396.48,566.55v10.96h10.93v-10.96h-10.93Zm9.22,9.22h-7.48v-7.48h7.48v7.48Z"/>
        <path class="cls-7" d="m418.46,566.55v10.96h10.93v-10.96h-10.93Zm9.22,9.22h-7.48v-7.48h7.48v7.48Z"/>
        <path class="cls-7" d="m440.44,566.55v10.96h10.93v-10.96h-10.93Zm9.22,9.22h-7.48v-7.48h7.48v7.48Z"/>
        <path class="cls-7" d="m462.43,566.55v10.96h10.93v-10.96h-10.93Zm9.22,9.22h-7.48v-7.48h7.48v7.48Z"/>
        <path class="cls-7" d="m484.41,566.55v10.96h10.93v-10.96h-10.93Zm9.22,9.22h-7.51v-7.48h7.51v7.48Z"/>
        <path class="cls-7" d="m506.4,566.55v10.96h10.93v-10.96h-10.93Zm9.22,9.22h-7.51v-7.48h7.51v7.48Z"/>
        <path class="cls-7" d="m528.38,566.55v10.96h10.93v-10.96h-10.93Zm9.22,9.22h-7.51v-7.48h7.51v7.48Z"/>
        <path class="cls-7" d="m550.36,566.55v10.96h10.93v-10.96h-10.93Zm9.22,9.22h-7.51v-7.48h7.51v7.48Z"/>
        <path class="cls-7" d="m242.59,544.56v10.96h10.96v-10.96h-10.96Zm9.22,9.22h-7.48v-7.48h7.48v7.48Z"/>
        <path class="cls-7" d="m264.57,544.56v10.96h10.96v-10.96h-10.96Zm9.22,9.22h-7.48v-7.48h7.48v7.48Z"/>
        <path class="cls-7" d="m286.56,544.56v10.96h10.96v-10.96h-10.96Zm9.22,9.22h-7.48v-7.48h7.48v7.48Z"/>
        <path class="cls-7" d="m308.54,544.56v10.96h10.96v-10.96h-10.96Zm9.22,9.22h-7.48v-7.48h7.48v7.48Z"/>
        <path class="cls-7" d="m330.53,544.56v10.96h10.96v-10.96h-10.96Zm9.22,9.22h-7.48v-7.48h7.48v7.48Z"/>
        <path class="cls-7" d="m352.51,544.56v10.96h10.96v-10.96h-10.96Zm9.22,9.22h-7.48v-7.48h7.48v7.48Z"/>
        <path class="cls-7" d="m374.49,544.56v10.96h10.93v-10.96h-10.93Zm9.22,9.22h-7.48v-7.48h7.48v7.48Z"/>
        <path class="cls-7" d="m396.48,544.56v10.96h10.93v-10.96h-10.93Zm9.22,9.22h-7.48v-7.48h7.48v7.48Z"/>
        <path class="cls-7" d="m418.46,544.56v10.96h10.93v-10.96h-10.93Zm9.22,9.22h-7.48v-7.48h7.48v7.48Z"/>
        <path class="cls-7" d="m440.44,544.56v10.96h10.93v-10.96h-10.93Zm9.22,9.22h-7.48v-7.48h7.48v7.48Z"/>
        <path class="cls-7" d="m462.43,544.56v10.96h10.93v-10.96h-10.93Zm9.22,9.22h-7.48v-7.48h7.48v7.48Z"/>
        <path class="cls-7" d="m484.41,544.56v10.96h10.93v-10.96h-10.93Zm9.22,9.22h-7.51v-7.48h7.51v7.48Z"/>
        <path class="cls-7" d="m506.4,544.56v10.96h10.93v-10.96h-10.93Zm9.22,9.22h-7.51v-7.48h7.51v7.48Z"/>
        <path class="cls-7" d="m528.38,544.56v10.96h10.93v-10.96h-10.93Zm9.22,9.22h-7.51v-7.48h7.51v7.48Z"/>
        <path class="cls-7" d="m550.36,544.56v10.96h10.93v-10.96h-10.93Zm9.22,9.22h-7.51v-7.48h7.51v7.48Z"/>
      </g>
      <g id="Innen-2" data-name="Innen">
        <rect class="cls-20" x="244.33" y="568.29" width="7.48" height="7.48"/>
        <rect class="cls-20" x="266.31" y="568.29" width="7.48" height="7.48"/>
        <rect class="cls-20" x="288.3" y="568.29" width="7.48" height="7.48"/>
        <rect class="cls-20" x="310.28" y="568.29" width="7.48" height="7.48"/>
        <rect class="cls-20" x="332.27" y="568.29" width="7.48" height="7.48"/>
        <rect class="cls-20" x="354.25" y="568.29" width="7.48" height="7.48"/>
        <rect class="cls-20" x="376.23" y="568.29" width="7.48" height="7.48"/>
        <rect class="cls-20" x="398.22" y="568.29" width="7.48" height="7.48"/>
        <rect class="cls-20" x="420.2" y="568.29" width="7.48" height="7.48"/>
        <rect class="cls-20" x="442.19" y="568.29" width="7.48" height="7.48"/>
        <rect class="cls-20" x="464.17" y="568.29" width="7.48" height="7.48"/>
        <rect class="cls-20" x="486.12" y="568.29" width="7.51" height="7.48"/>
        <rect class="cls-20" x="508.11" y="568.29" width="7.51" height="7.48"/>
        <rect class="cls-20" x="530.09" y="568.29" width="7.51" height="7.48"/>
        <rect class="cls-20" x="552.07" y="568.29" width="7.51" height="7.48"/>
        <rect class="cls-20" x="244.33" y="546.3" width="7.48" height="7.48"/>
        <rect class="cls-20" x="266.31" y="546.3" width="7.48" height="7.48"/>
        <rect class="cls-20" x="288.3" y="546.3" width="7.48" height="7.48"/>
        <rect class="cls-20" x="310.28" y="546.3" width="7.48" height="7.48"/>
        <rect class="cls-20" x="332.27" y="546.3" width="7.48" height="7.48"/>
        <rect class="cls-20" x="354.25" y="546.3" width="7.48" height="7.48"/>
        <rect class="cls-20" x="376.23" y="546.3" width="7.48" height="7.48"/>
        <rect class="cls-20" x="398.22" y="546.3" width="7.48" height="7.48"/>
        <rect class="cls-20" x="420.2" y="546.3" width="7.48" height="7.48"/>
        <path id="_Pfad_-2" data-name="&amp;lt;Pfad&amp;gt;" class="cls-20" d="m449.67,553.79h-7.48v-7.48h7.48v7.48Z"/>
        <rect class="cls-20" x="464.17" y="546.3" width="7.48" height="7.48"/>
        <rect class="cls-20" x="486.12" y="546.3" width="7.51" height="7.48"/>
        <rect class="cls-20" x="508.11" y="546.3" width="7.51" height="7.48"/>
        <rect class="cls-20" x="530.09" y="546.3" width="7.51" height="7.48"/>
        <rect class="cls-20" x="552.07" y="546.3" width="7.51" height="7.48"/>
      </g>
      <path stroke="null" id="svg_144" d="M 159.757 381.253 C 143.201 381.253 129.79 367.812 129.79 351.22 C 129.79 334.627 143.201 321.186 159.757 321.186 C 176.313 321.186 189.724 334.627 189.724 351.22 C 189.724 367.812 176.313 381.253 159.757 381.253 Z" opacity="undefined" fill="#0000FF"/>
      <circle stroke="null" class="st6" cx="635.976" cy="350.61" r="29.868" fill="#FF0000" id="svg_145"/>
    </g>
  </g>
  <g stroke="#333333" fill="#333333" stroke-width="0.25mm" font-size="9pt" fill-rule="evenodd" stroke-linecap="round" id="svgGroup" transform="matrix(1, 0, 0, 1, 15.677317, 4.497613)">
    <path stroke="null" id="svg_138" vector-effect="non-scaling-stroke" d="m54.79221,168.35213l-2.79221,0l6.85643,-20.35212l3.10246,0l6.85643,20.35212l-2.91631,0l-3.47475,-11.29294q-0.52742,-1.70635 -1.02381,-3.39719q-0.49639,-1.69084 -0.99279,-3.42821l-0.1241,0q-0.46537,1.73738 -0.94625,3.42821q-0.48088,1.69084 -1.03932,3.39719l-3.50578,11.29294zm51.31463,0l-6.57721,0l0,-20.35212l6.11184,0a14.42513,14.42513 0 0 1 1.87828,0.11634a10.6104,10.6104 0 0 1 1.76711,0.38005a5.9063,5.9063 0 0 1 1.26167,0.55069a4.46107,4.46107 0 0 1 1.2203,1.04708a3.85092,3.85092 0 0 1 0.72649,1.50728q0.15771,0.63471 0.15771,1.39352q0,1.48918 -0.7601,2.71465q-0.7601,1.22547 -2.18723,1.69084l0,0.1241q1.83045,0.34127 2.97836,1.56674a4.11463,4.11463 0 0 1 0.99925,1.92094a6.09891,6.09891 0 0 1 0.14866,1.38318a6.73621,6.73621 0 0 1 -0.15771,1.49564a4.77778,4.77778 0 0 1 -0.83508,1.8395a5.67103,5.67103 0 0 1 -1.99979,1.64947a7.18348,7.18348 0 0 1 -0.73037,0.32059a9.92269,9.92269 0 0 1 -2.05796,0.51837a13.48664,13.48664 0 0 1 -1.94421,0.13315zm-22.21359,-3.19553l-2.1407,0l0,-6.04979l-5.61545,0l0,-1.98557l5.61545,0l0,-6.04979l2.1407,0l0,6.04979l5.61545,0l0,1.98557l-5.61545,0l0,6.04979zm18.36654,-6.45311l0,7.47692l3.47475,0a11.31363,11.31363 0 0 0 1.49564,-0.09178q1.5202,-0.20425 2.49101,-0.85447q1.41162,-0.94625 1.41162,-2.96285a3.78112,3.78112 0 0 0 -0.14995,-1.09749a2.78963,2.78963 0 0 0 -1.24615,-1.60164q-1.38964,-0.86481 -3.97632,-0.86869a15.60406,15.60406 0 0 0 -0.02585,0l-3.47475,0zm0,-8.53176l0,6.45311l2.94733,0a11.63938,11.63938 0 0 0 1.25132,-0.06205q1.27847,-0.13961 2.05926,-0.58688a2.82582,2.82582 0 0 0 0.35032,-0.23527a2.8465,2.8465 0 0 0 1.10396,-2.07994a3.87161,3.87161 0 0 0 0.01293,-0.32447a3.99571,3.99571 0 0 0 -0.09824,-0.9191q-0.24303,-1.0251 -1.08069,-1.53184a4.11205,4.11205 0 0 0 -0.98503,-0.41883q-0.94883,-0.27534 -2.30099,-0.29344a14.33206,14.33206 0 0 0 -0.18873,-0.00129l-3.07143,0zm-37.19846,12.06856l-9.40044,0l0,-2.17172l9.40044,0l0,2.17172z"/>
  </g>
  <g stroke="null" id="svg_305" transform="matrix(1, 0, 0, 1, 21.298235, -6.833783)">
    <path stroke="null" fill-opacity="0.6" id="svg_303" d="m77.57983,268.63126c-16.55628,0 -29.96689,-13.44027 -29.96689,-30.03318c0,-16.59291 13.4106,-30.03318 29.96689,-30.03318c16.55628,0 29.96689,13.44027 29.96689,30.03318c0,16.59291 -13.4106,30.03318 -29.96689,30.03318z" opacity="undefined" fill="#0000ff"/>
    <circle stroke="null" fill-opacity="0.7" class="st6" cx="90.89845" cy="221.24557" r="29.86777" fill="#ff0000" id="svg_304"/>
  </g>
  <g transform="matrix(1, 0, 0, 1, 12.5, 10.800003)">
    <circle style="fill: rgb(245, 245, 245);" cx="686" cy="209.7" r="37.5"/>
    <polyline class="cls-6" points="671.661 191.172 670.77 191.914 670.388 192.19 669.985 192.444 669.603 192.741 669.094 193.187 668.903 193.569 668.585 194.142 668.203 194.396 668.012 194.778 667.694 195.329 667.503 195.711 667.312 196.093 666.994 196.666 666.803 197.027 666.761 197.493 666.485 198.066 666.442 198.554 666.442 199.042 666.421 199.487 666.421 199.954 666.294 200.633 666.294 201.1 666.379 201.397 666.549 201.969 666.633 202.266 678.683 194.757 682.034 200.187 681.95 200.378 682.14 200.463 682.204 200.76 682.204 200.76 682.098 200.951 682.289 201.036 682.204 201.227 682.289 201.524 682.162 201.715 682.162 201.715 682.268 202.012 682.162 202.203 682.162 202.203 682.077 202.351 681.971 202.542 682.034 202.839 681.95 203.03 681.843 203.221 681.759 203.412 681.653 203.603 681.462 203.497 681.377 203.688 681.25 203.857 681.143 204.048 681.143 204.048 680.762 204.345 679.192 205.427 679.001 205.321 678.619 205.576 678.343 205.682 678.343 205.682 678.237 205.873 678.046 205.767 677.855 205.682 677.77 205.873 677.579 205.745 677.283 205.83 677.283 205.83 677.092 205.745 676.795 205.83 676.795 205.83 676.604 205.703 676.328 205.809 676.137 205.703 675.967 205.618 675.967 205.618 675.776 205.512 675.586 205.385 675.395 205.3 675.395 205.3 675.204 205.194 675.119 204.918 674.949 204.812 674.949 204.812 674.652 204.43 674.461 204.345 671.406 199.254 666.633 202.266 666.506 202.457 666.697 203.03 666.676 203.497 666.952 203.9 667.121 204.472 667.397 204.854 667.567 205.427 673.931 215.652 673.103 218.113 678.534 214.761 677.855 206.148 683.795 211.303 684.092 211.218 681.822 203.688 689.226 207.951 684.092 211.218 673.103 218.113 668.33 230.056 667.885 231.753 667.567 232.771 667.63 233.556 667.694 235.274 667.949 236.144 668.012 236.908 668.267 237.756 668.627 238.435 669.009 239.135 669.54 239.899 669.9 240.578 670.537 241.193 671.025 241.66 671.661 242.275 672.297 242.848 673.061 243.272 673.804 243.675 674.376 243.972 675.204 244.184 675.967 244.608 676.795 244.799 677.579 244.736 678.428 244.948 679.192 244.884 680.252 244.736 681.016 244.672 681.886 244.417 682.756 244.12 683.519 243.59 686.447 241.787 685.301 238.987 684.156 236.165 683.71 234.723 683.286 233.302 682.777 231.562 682.331 230.12 682.013 228.507 681.843 226.959 681.44 225.516 681.271 223.989 681.25 222.271 681.271 220.828 681.334 219.428 681.377 217.985 691.093 212.109 692.344 212.512 693.744 213.022 695.059 213.743 696.269 214.634 697.584 215.334 698.984 216.352 700.193 217.243 701.275 218.325 702.505 219.237 703.799 220.404 705.921 222.737 708.127 224.922 709.888 227.086 713.452 224.922 713.77 224.816 714.152 224.54 714.364 224.18 714.448 223.989 714.83 223.713 714.958 223.522 715.149 223.162 715.255 222.971 715.446 222.589 715.658 222.207 715.764 222.016 715.955 221.655 715.891 221.38 716.082 220.998 715.976 220.701 716.209 220.319 716.209 219.831 716.294 219.64 716.209 219.364 716.23 218.876 716.146 218.601 716.082 218.304 716.082 217.816 715.976 217.54 715.912 217.243 715.827 216.967 715.721 216.67 715.467 216.288 715.085 215.61 701.126 193.06 693.702 181.286 693.702 181.286 693.511 181.201 693.511 181.201 693.426 180.904 693.426 180.904 693.235 180.819 693.044 180.692 693.044 180.692 692.853 180.586 692.853 180.586 692.662 180.501 692.493 180.395 692.365 180.586 692.217 180.501 692.005 180.374 692.005 180.374 692.005 180.374 691.729 180.459 691.729 180.459 691.432 180.565 691.241 180.459 691.241 180.459 690.965 180.522 690.965 180.522 682.501 185.889 682.289 185.805 682.204 185.996 682.098 186.144 682.013 186.335 682.013 186.335 681.886 186.547 681.78 186.738 681.78 186.738 681.589 187.12 681.589 187.12 681.504 187.311 681.568 187.587 681.568 187.587 681.462 187.777 681.568 188.074 681.568 188.074 681.653 188.35 681.653 188.35 681.568 188.541 681.716 188.647 681.716 188.647 682.374 189.708 683.922 188.605 692.684 183.174 699.387 194.057 690.647 199.509 683.922 188.605 682.374 189.708 685.662 194.842 685.365 194.46 684.622 193.59 684.347 193.187 683.795 192.89 683.519 192.508 683.159 192.296 682.692 191.808 682.289 191.617 681.95 191.384 681.377 191.108 680.995 190.917 680.634 190.684 679.977 190.599 679.574 190.366 679.107 190.366 678.725 190.153 678.089 190.047 677.601 190.026 677.113 190.026 676.646 189.984 676.158 189.984 675.586 190.153 675.119 190.153 674.631 190.111 674.058 190.302 673.485 190.472 673.103 190.747 672.616 190.726 672.234 191.002 671.661 191.172" style="fill: rgb(225, 181, 44); fill-rule: nonzero; transform-box: fill-box; transform-origin: 50% 50%;" transform="matrix(0.866025, 0.5, -0.5, 0.866025, -0.000004, -0.000005)"/>
  </g>
</svg>