<?xml version="1.0" encoding="UTF-8" standalone="no"?>
<!-- Generator: Adobe Illustrator 21.0.0, SVG Export Plug-In . SVG Version: 6.00 Build 0)  -->

<svg
   xmlns:dc="http://purl.org/dc/elements/1.1/"
   xmlns:cc="http://creativecommons.org/ns#"
   xmlns:rdf="http://www.w3.org/1999/02/22-rdf-syntax-ns#"
   xmlns:svg="http://www.w3.org/2000/svg"
   xmlns="http://www.w3.org/2000/svg"
   xmlns:sodipodi="http://sodipodi.sourceforge.net/DTD/sodipodi-0.dtd"
   xmlns:inkscape="http://www.inkscape.org/namespaces/inkscape"
   version="1.1"
   id="microbit"
   x="0px"
   y="0px"
   width="900"
   height="900"
   viewBox="0 0 900 900"
   xml:space="preserve"
   sodipodi:docname="microbitBackground.svg"
   inkscape:version="0.92.5 (2060ec1f9f, 2020-04-08)"><metadata
   id="metadata5321"><rdf:RDF><cc:Work
       rdf:about=""><dc:format>image/svg+xml</dc:format><dc:type
         rdf:resource="http://purl.org/dc/dcmitype/StillImage" /><dc:title></dc:title></cc:Work></rdf:RDF></metadata><defs
   id="defs5319" /><sodipodi:namedview
   pagecolor="#ffffff"
   bordercolor="#666666"
   borderopacity="1"
   objecttolerance="10"
   gridtolerance="10"
   guidetolerance="10"
   inkscape:pageopacity="0"
   inkscape:pageshadow="2"
   inkscape:window-width="3440"
   inkscape:window-height="1403"
   id="namedview5317"
   showgrid="false"
   inkscape:zoom="1.8522222"
   inkscape:cx="337.70246"
   inkscape:cy="419.85171"
   inkscape:window-x="0"
   inkscape:window-y="0"
   inkscape:window-maximized="1"
   inkscape:current-layer="g5188"
   showguides="true" />
<style
   type="text/css"
   id="style4545">
	.st0{fill:#034854;}
	.st1{display:none;}
	.st2{display:inline;}
	.st3{fill:#EFDA48;}
	.st4{fill:#FFFFFF;}
	.st5{fill:#4C636F;}
	.st6{fill:#179C7D;}
	.st7{fill:none;}
	.st8{fill:url(#SVGID_1_);}
	.st9{fill:url(#SVGID_2_);}
	.st10{fill:url(#SVGID_3_);}
	.st11{fill:url(#SVGID_4_);}
	.st12{fill:url(#SVGID_5_);}
	.st13{fill:url(#SVGID_6_);}
	.st14{fill:url(#SVGID_7_);}
	.st15{fill:url(#SVGID_8_);}
	.st16{fill:url(#SVGID_9_);}
	.st17{fill:url(#SVGID_10_);}
	.st18{fill:url(#SVGID_11_);}
	.st19{fill:url(#SVGID_12_);}
	.st20{fill:url(#SVGID_13_);}
	.st21{fill:url(#SVGID_14_);}
	.st22{fill:url(#SVGID_15_);}
	.st23{fill:url(#SVGID_16_);}
	.st24{fill:url(#SVGID_17_);}
	.st25{fill:url(#SVGID_18_);}
	.st26{fill:url(#SVGID_19_);}
	.st27{fill:url(#SVGID_20_);}
	.st28{fill:url(#SVGID_21_);}
	.st29{fill:url(#SVGID_22_);}
	.st30{fill:url(#SVGID_23_);}
	.st31{fill:url(#SVGID_24_);}
	.st32{fill:url(#SVGID_25_);}
	.st33{fill:#F29400;}
	.st34{fill:#BDD1CF;}
</style>
<symbol
   id="calliope_mini_backside"
   viewBox="-149.5 -131.8 298.9 263.5"
   transform="translate(0,448)">
	<path
   class="st0"
   d="m -75.9,127.6 v 0 c 6.2,4.6 14.6,4.8 20.9,0.5 12.5,-8.4 34.7,-21 56,-21 23.2,0 45.7,13.5 56.4,21 4.3,3 9.8,3.8 14.7,2 l 0.6,-0.2 c 7.3,-2.6 11.8,-9.8 11,-17.4 -1.7,-15.4 -3,-41.9 13,-62.9 16.8,-21.9 31.7,-31.2 42.3,-34.8 5.9,-2 9.9,-7.4 10.4,-13.6 v 0 c 0.5,-8 -5.1,-13.6 -12.3,-17 -12,-5.7 -30.8,-15.7 -42.8,-36.2 -14.4,-24.9 -13,-51.3 -11.4,-62.7 0.7,-5.1 -1.6,-10.1 -5.9,-12.8 -4.8,-3 -11.9,-4.6 -21.4,1.5 -5.5,3.6 -12,8.6 -20.8,12 -10.8,4.1 -16.9,5.5 -20.3,5.8 -2.4,0.2 -4.4,1.8 -5.2,4 -1.1,2.9 -3.4,6.2 -8.2,6.2 -5,0 -7.2,-3.6 -8.2,-6.6 -0.8,-2.5 -3.3,-3.4 -5.9,-3.7 -4.9,-0.4 -12.5,-2.4 -20.5,-6.1 -7.1,-3.3 -14,-7.9 -20.4,-12.7 -5.5,-4.1 -15,-5.5 -20.4,-1.3 v 0 c -5.7,4.4 -7.4,11.7 -6.5,18.8 1.9,15.3 1.1,43.3 -16.7,64.2 -17.6,20.8 -28.2,26.2 -37.2,29.2 -3.9,1.3 -11.4,5.4 -12.3,14.1 -0.9,8.7 3,14.5 10.9,18.4 12.3,6.1 30.5,17.2 42.1,34.1 15,22 15,48 13,61.7 -0.7,5.7 0.5,12.1 5.1,15.5 z"
   id="path4547"
   inkscape:connector-curvature="0"
   style="fill:#034854" />
	<g
   id="holes_6_">
		<g
   class="st1"
   id="g4627"
   style="display:none">
			<g
   class="st2"
   id="g4553"
   style="display:inline">
				<path
   class="st3"
   d="m -52.3,-89.3 c -1.4,0 -2.6,-1.2 -2.6,-2.6 0,-1.4 1.2,-2.6 2.6,-2.6 1.4,0 2.6,1.2 2.6,2.6 0,1.4 -1.1,2.6 -2.6,2.6 z m 0,-3.7 c -0.7,0 -1.2,0.6 -1.2,1.2 0,0.7 0.6,1.2 1.2,1.2 0.7,0 1.2,-0.6 1.2,-1.2 0.1,-0.7 -0.5,-1.2 -1.2,-1.2 z"
   id="path4549"
   inkscape:connector-curvature="0"
   style="fill:#efda48" />
				<path
   d="m -52.3,-93 c -0.7,0 -1.2,0.6 -1.2,1.2 0,0.7 0.6,1.2 1.2,1.2 0.7,0 1.2,-0.6 1.2,-1.2 0.1,-0.7 -0.5,-1.2 -1.2,-1.2 z"
   id="path4551"
   inkscape:connector-curvature="0" />
			</g>
			<g
   class="st2"
   id="g4559"
   style="display:inline">
				<path
   class="st3"
   d="m -43.5,-89.3 c -1.4,0 -2.6,-1.2 -2.6,-2.6 0,-1.4 1.2,-2.6 2.6,-2.6 1.4,0 2.6,1.2 2.6,2.6 0,1.4 -1.1,2.6 -2.6,2.6 z m 0,-3.7 c -0.7,0 -1.2,0.6 -1.2,1.2 0,0.7 0.6,1.2 1.2,1.2 0.7,0 1.2,-0.6 1.2,-1.2 0,-0.7 -0.5,-1.2 -1.2,-1.2 z"
   id="path4555"
   inkscape:connector-curvature="0"
   style="fill:#efda48" />
				<path
   d="m -43.5,-93 c -0.7,0 -1.2,0.6 -1.2,1.2 0,0.7 0.6,1.2 1.2,1.2 0.7,0 1.2,-0.6 1.2,-1.2 0,-0.7 -0.5,-1.2 -1.2,-1.2 z"
   id="path4557"
   inkscape:connector-curvature="0" />
			</g>
			<g
   class="st2"
   id="g4565"
   style="display:inline">
				<path
   class="st3"
   d="m -34.8,-89.3 c -1.4,0 -2.6,-1.2 -2.6,-2.6 0,-1.4 1.2,-2.6 2.6,-2.6 1.4,0 2.6,1.2 2.6,2.6 0,1.4 -1.1,2.6 -2.6,2.6 z m 0,-3.7 c -0.7,0 -1.2,0.6 -1.2,1.2 0,0.7 0.6,1.2 1.2,1.2 0.7,0 1.2,-0.6 1.2,-1.2 0.2,-0.7 -0.4,-1.2 -1.2,-1.2 z"
   id="path4561"
   inkscape:connector-curvature="0"
   style="fill:#efda48" />
				<path
   d="m -34.8,-93 c -0.7,0 -1.2,0.6 -1.2,1.2 0,0.7 0.6,1.2 1.2,1.2 0.7,0 1.2,-0.6 1.2,-1.2 0.2,-0.7 -0.4,-1.2 -1.2,-1.2 z"
   id="path4563"
   inkscape:connector-curvature="0" />
			</g>
			<g
   class="st2"
   id="g4571"
   style="display:inline">
				<path
   class="st3"
   d="m -25.8,-89.3 c -1.4,0 -2.6,-1.2 -2.6,-2.6 0,-1.4 1.2,-2.6 2.6,-2.6 1.4,0 2.6,1.2 2.6,2.6 0,1.4 -1.2,2.6 -2.6,2.6 z m 0,-3.7 c -0.7,0 -1.2,0.6 -1.2,1.2 0,0.7 0.6,1.2 1.2,1.2 0.7,0 1.2,-0.6 1.2,-1.2 0,-0.7 -0.6,-1.2 -1.2,-1.2 z"
   id="path4567"
   inkscape:connector-curvature="0"
   style="fill:#efda48" />
				<path
   d="m -25.8,-93 c -0.7,0 -1.2,0.6 -1.2,1.2 0,0.7 0.6,1.2 1.2,1.2 0.7,0 1.2,-0.6 1.2,-1.2 0,-0.7 -0.6,-1.2 -1.2,-1.2 z"
   id="path4569"
   inkscape:connector-curvature="0" />
			</g>
			<g
   class="st2"
   id="g4577"
   style="display:inline">
				<path
   class="st3"
   d="m -17,-89.3 c -1.4,0 -2.6,-1.2 -2.6,-2.6 0,-1.4 1.2,-2.6 2.6,-2.6 1.4,0 2.6,1.2 2.6,2.6 0,1.4 -1.2,2.6 -2.6,2.6 z m 0,-3.7 c -0.7,0 -1.2,0.6 -1.2,1.2 0,0.7 0.6,1.2 1.2,1.2 0.7,0 1.2,-0.6 1.2,-1.2 0,-0.7 -0.6,-1.2 -1.2,-1.2 z"
   id="path4573"
   inkscape:connector-curvature="0"
   style="fill:#efda48" />
				<path
   d="m -17,-93 c -0.7,0 -1.2,0.6 -1.2,1.2 0,0.7 0.6,1.2 1.2,1.2 0.7,0 1.2,-0.6 1.2,-1.2 0,-0.7 -0.6,-1.2 -1.2,-1.2 z"
   id="path4575"
   inkscape:connector-curvature="0" />
			</g>
			<g
   class="st2"
   id="g4583"
   style="display:inline">
				<path
   class="st3"
   d="m -8.2,-89.3 c -1.4,0 -2.6,-1.2 -2.6,-2.6 0,-1.4 1.2,-2.6 2.6,-2.6 1.4,0 2.6,1.2 2.6,2.6 0,1.4 -1.2,2.6 -2.6,2.6 z m 0,-3.7 c -0.7,0 -1.2,0.6 -1.2,1.2 0,0.7 0.6,1.2 1.2,1.2 0.6,0 1.2,-0.7 1.2,-1.2 0,-0.7 -0.5,-1.2 -1.2,-1.2 z"
   id="path4579"
   inkscape:connector-curvature="0"
   style="fill:#efda48" />
				<path
   d="m -8.2,-93 c -0.7,0 -1.2,0.6 -1.2,1.2 0,0.7 0.6,1.2 1.2,1.2 0.6,0 1.2,-0.7 1.2,-1.2 0,-0.7 -0.5,-1.2 -1.2,-1.2 z"
   id="path4581"
   inkscape:connector-curvature="0" />
			</g>
			<g
   class="st2"
   id="g4589"
   style="display:inline">
				<path
   class="st3"
   d="m 0.6,-89.3 c -1.4,0 -2.6,-1.2 -2.6,-2.6 0,-1.4 1.2,-2.6 2.6,-2.6 1.4,0 2.6,1.2 2.6,2.6 0,1.4 -1.2,2.6 -2.6,2.6 z m 0,-3.7 c -0.7,0 -1.2,0.6 -1.2,1.2 0,0.7 0.6,1.2 1.2,1.2 0.6,0 1.2,-0.6 1.2,-1.2 0,-0.7 -0.5,-1.2 -1.2,-1.2 z"
   id="path4585"
   inkscape:connector-curvature="0"
   style="fill:#efda48" />
				<path
   d="m 0.6,-93 c -0.7,0 -1.2,0.6 -1.2,1.2 0,0.7 0.6,1.2 1.2,1.2 0.6,0 1.2,-0.6 1.2,-1.2 0,-0.7 -0.5,-1.2 -1.2,-1.2 z"
   id="path4587"
   inkscape:connector-curvature="0" />
			</g>
			<g
   class="st2"
   id="g4595"
   style="display:inline">
				<path
   class="st3"
   d="m 9.4,-89.3 c -1.4,0 -2.6,-1.2 -2.6,-2.6 0,-1.4 1.2,-2.6 2.6,-2.6 1.4,0 2.6,1.2 2.6,2.6 0,1.4 -1.2,2.6 -2.6,2.6 z m 0,-3.7 c -0.7,0 -1.2,0.6 -1.2,1.2 0,0.7 0.6,1.2 1.2,1.2 0.6,0 1.2,-0.6 1.2,-1.2 0,-0.7 -0.5,-1.2 -1.2,-1.2 z"
   id="path4591"
   inkscape:connector-curvature="0"
   style="fill:#efda48" />
				<path
   d="m 9.4,-93 c -0.7,0 -1.2,0.6 -1.2,1.2 0,0.7 0.6,1.2 1.2,1.2 0.6,0 1.2,-0.6 1.2,-1.2 0,-0.7 -0.5,-1.2 -1.2,-1.2 z"
   id="path4593"
   inkscape:connector-curvature="0" />
			</g>
			<g
   class="st2"
   id="g4601"
   style="display:inline">
				<path
   class="st3"
   d="m 18.2,-89.3 c -1.4,0 -2.6,-1.2 -2.6,-2.6 0,-1.4 1.2,-2.6 2.6,-2.6 1.4,0 2.6,1.2 2.6,2.6 0,1.4 -1.2,2.6 -2.6,2.6 z m 0,-3.7 c -0.7,0 -1.2,0.6 -1.2,1.2 0,0.7 0.6,1.2 1.2,1.2 0.7,0 1.2,-0.6 1.2,-1.2 0,-0.7 -0.5,-1.2 -1.2,-1.2 z"
   id="path4597"
   inkscape:connector-curvature="0"
   style="fill:#efda48" />
				<path
   d="m 18.2,-93 c -0.7,0 -1.2,0.6 -1.2,1.2 0,0.7 0.6,1.2 1.2,1.2 0.7,0 1.2,-0.6 1.2,-1.2 0,-0.7 -0.5,-1.2 -1.2,-1.2 z"
   id="path4599"
   inkscape:connector-curvature="0" />
			</g>
			<g
   class="st2"
   id="g4607"
   style="display:inline">
				<path
   class="st3"
   d="m 27,-89.3 c -1.4,0 -2.6,-1.2 -2.6,-2.6 0,-1.4 1.2,-2.6 2.6,-2.6 1.4,0 2.6,1.2 2.6,2.6 0,1.4 -1.2,2.6 -2.6,2.6 z m 0,-3.7 c -0.7,0 -1.2,0.6 -1.2,1.2 0,0.7 0.6,1.2 1.2,1.2 0.6,0 1.2,-0.6 1.2,-1.2 0,-0.7 -0.5,-1.2 -1.2,-1.2 z"
   id="path4603"
   inkscape:connector-curvature="0"
   style="fill:#efda48" />
				<path
   d="m 27,-93 c -0.7,0 -1.2,0.6 -1.2,1.2 0,0.7 0.6,1.2 1.2,1.2 0.6,0 1.2,-0.6 1.2,-1.2 0,-0.7 -0.5,-1.2 -1.2,-1.2 z"
   id="path4605"
   inkscape:connector-curvature="0" />
			</g>
			<g
   class="st2"
   id="g4613"
   style="display:inline">
				<path
   class="st3"
   d="m 35.8,-89.3 c -1.4,0 -2.6,-1.2 -2.6,-2.6 0,-1.4 1.2,-2.6 2.6,-2.6 1.4,0 2.6,1.2 2.6,2.6 0,1.4 -1.1,2.6 -2.6,2.6 z m 0,-3.7 c -0.7,0 -1.2,0.6 -1.2,1.2 0,0.7 0.6,1.2 1.2,1.2 0.7,0 1.2,-0.6 1.2,-1.2 0.1,-0.7 -0.5,-1.2 -1.2,-1.2 z"
   id="path4609"
   inkscape:connector-curvature="0"
   style="fill:#efda48" />
				<path
   d="m 35.8,-93 c -0.7,0 -1.2,0.6 -1.2,1.2 0,0.7 0.6,1.2 1.2,1.2 0.7,0 1.2,-0.6 1.2,-1.2 0.1,-0.7 -0.5,-1.2 -1.2,-1.2 z"
   id="path4611"
   inkscape:connector-curvature="0" />
			</g>
			<g
   class="st2"
   id="g4619"
   style="display:inline">
				<path
   class="st3"
   d="m 44.6,-89.3 c -1.4,0 -2.6,-1.2 -2.6,-2.6 0,-1.4 1.2,-2.6 2.6,-2.6 1.4,0 2.6,1.2 2.6,2.6 0,1.4 -1.1,2.6 -2.6,2.6 z m 0,-3.7 c -0.7,0 -1.2,0.6 -1.2,1.2 0,0.7 0.6,1.2 1.2,1.2 0.6,0 1.2,-0.6 1.2,-1.2 0.1,-0.7 -0.5,-1.2 -1.2,-1.2 z"
   id="path4615"
   inkscape:connector-curvature="0"
   style="fill:#efda48" />
				<path
   d="m 44.6,-93 c -0.7,0 -1.2,0.6 -1.2,1.2 0,0.7 0.6,1.2 1.2,1.2 0.6,0 1.2,-0.6 1.2,-1.2 0.1,-0.7 -0.5,-1.2 -1.2,-1.2 z"
   id="path4617"
   inkscape:connector-curvature="0" />
			</g>
			<g
   class="st2"
   id="g4625"
   style="display:inline">
				<path
   class="st3"
   d="m 53.4,-89.3 c -1.4,0 -2.6,-1.2 -2.6,-2.6 0,-1.4 1.2,-2.6 2.6,-2.6 1.4,0 2.6,1.2 2.6,2.6 0,1.4 -1.1,2.6 -2.6,2.6 z m 0,-3.7 c -0.7,0 -1.2,0.6 -1.2,1.2 0,0.7 0.6,1.2 1.2,1.2 0.7,0 1.2,-0.6 1.2,-1.2 0.1,-0.7 -0.5,-1.2 -1.2,-1.2 z"
   id="path4621"
   inkscape:connector-curvature="0"
   style="fill:#efda48" />
				<path
   d="m 53.4,-93 c -0.7,0 -1.2,0.6 -1.2,1.2 0,0.7 0.6,1.2 1.2,1.2 0.7,0 1.2,-0.6 1.2,-1.2 0.1,-0.7 -0.5,-1.2 -1.2,-1.2 z"
   id="path4623"
   inkscape:connector-curvature="0" />
			</g>
		</g>
		<g
   class="st1"
   id="g4707"
   style="display:none">
			<g
   class="st2"
   id="g4633"
   style="display:inline">
				<path
   class="st3"
   d="m -52.3,-80.3 c -1.4,0 -2.6,-1.2 -2.6,-2.6 0,-1.4 1.2,-2.6 2.6,-2.6 1.4,0 2.6,1.2 2.6,2.6 0,1.4 -1.1,2.6 -2.6,2.6 z m 0,-4 c -0.7,0 -1.2,0.6 -1.2,1.2 0,0.6 0.6,1.2 1.2,1.2 0.7,0 1.2,-0.6 1.2,-1.2 0,-0.6 -0.5,-1.2 -1.2,-1.2 z"
   id="path4629"
   inkscape:connector-curvature="0"
   style="fill:#efda48" />
				<path
   d="m -52.3,-84.3 c -0.7,0 -1.2,0.6 -1.2,1.2 0,0.6 0.6,1.2 1.2,1.2 0.7,0 1.2,-0.6 1.2,-1.2 0,-0.6 -0.5,-1.2 -1.2,-1.2 z"
   id="path4631"
   inkscape:connector-curvature="0" />
			</g>
			<g
   class="st2"
   id="g4639"
   style="display:inline">
				<path
   class="st3"
   d="m -43.5,-80.3 c -1.4,0 -2.6,-1.2 -2.6,-2.6 0,-1.4 1.2,-2.6 2.6,-2.6 1.4,0 2.6,1.2 2.6,2.6 0,1.4 -1.1,2.6 -2.6,2.6 z m 0,-4 c -0.7,0 -1.2,0.6 -1.2,1.2 0,0.6 0.6,1.2 1.2,1.2 0.7,0 1.2,-0.6 1.2,-1.2 0,-0.6 -0.5,-1.2 -1.2,-1.2 z"
   id="path4635"
   inkscape:connector-curvature="0"
   style="fill:#efda48" />
				<path
   d="m -43.5,-84.3 c -0.7,0 -1.2,0.6 -1.2,1.2 0,0.6 0.6,1.2 1.2,1.2 0.7,0 1.2,-0.6 1.2,-1.2 0,-0.6 -0.5,-1.2 -1.2,-1.2 z"
   id="path4637"
   inkscape:connector-curvature="0" />
			</g>
			<g
   class="st2"
   id="g4645"
   style="display:inline">
				<path
   class="st3"
   d="m -34.8,-80.3 c -1.4,0 -2.6,-1.2 -2.6,-2.6 0,-1.4 1.2,-2.6 2.6,-2.6 1.4,0 2.6,1.2 2.6,2.6 0,1.4 -1.1,2.6 -2.6,2.6 z m 0,-4 c -0.7,0 -1.2,0.6 -1.2,1.2 0,0.6 0.6,1.2 1.2,1.2 0.7,0 1.2,-0.6 1.2,-1.2 0,-0.6 -0.4,-1.2 -1.2,-1.2 z"
   id="path4641"
   inkscape:connector-curvature="0"
   style="fill:#efda48" />
				<path
   d="m -34.8,-84.3 c -0.7,0 -1.2,0.6 -1.2,1.2 0,0.6 0.6,1.2 1.2,1.2 0.7,0 1.2,-0.6 1.2,-1.2 0,-0.6 -0.4,-1.2 -1.2,-1.2 z"
   id="path4643"
   inkscape:connector-curvature="0" />
			</g>
			<g
   class="st2"
   id="g4651"
   style="display:inline">
				<path
   class="st3"
   d="m -25.8,-80.3 c -1.4,0 -2.6,-1.2 -2.6,-2.6 0,-1.4 1.2,-2.6 2.6,-2.6 1.4,0 2.6,1.2 2.6,2.6 0,1.4 -1.2,2.6 -2.6,2.6 z m 0,-4 c -0.7,0 -1.2,0.6 -1.2,1.2 0,0.6 0.6,1.2 1.2,1.2 0.7,0 1.2,-0.6 1.2,-1.2 0,-0.6 -0.6,-1.2 -1.2,-1.2 z"
   id="path4647"
   inkscape:connector-curvature="0"
   style="fill:#efda48" />
				<path
   d="m -25.8,-84.3 c -0.7,0 -1.2,0.6 -1.2,1.2 0,0.6 0.6,1.2 1.2,1.2 0.7,0 1.2,-0.6 1.2,-1.2 0,-0.6 -0.6,-1.2 -1.2,-1.2 z"
   id="path4649"
   inkscape:connector-curvature="0" />
			</g>
			<g
   class="st2"
   id="g4657"
   style="display:inline">
				<path
   class="st3"
   d="m -17,-80.3 c -1.4,0 -2.6,-1.2 -2.6,-2.6 0,-1.4 1.2,-2.6 2.6,-2.6 1.4,0 2.6,1.2 2.6,2.6 0,1.4 -1.2,2.6 -2.6,2.6 z m 0,-4 c -0.7,0 -1.2,0.6 -1.2,1.2 0,0.6 0.6,1.2 1.2,1.2 0.7,0 1.2,-0.6 1.2,-1.2 0,-0.6 -0.6,-1.2 -1.2,-1.2 z"
   id="path4653"
   inkscape:connector-curvature="0"
   style="fill:#efda48" />
				<path
   d="m -17,-84.3 c -0.7,0 -1.2,0.6 -1.2,1.2 0,0.6 0.6,1.2 1.2,1.2 0.7,0 1.2,-0.6 1.2,-1.2 0,-0.6 -0.6,-1.2 -1.2,-1.2 z"
   id="path4655"
   inkscape:connector-curvature="0" />
			</g>
			<g
   class="st2"
   id="g4663"
   style="display:inline">
				<path
   class="st3"
   d="m -8.2,-80.3 c -1.4,0 -2.6,-1.2 -2.6,-2.6 0,-1.4 1.2,-2.6 2.6,-2.6 1.4,0 2.6,1.2 2.6,2.6 0,1.4 -1.2,2.6 -2.6,2.6 z m 0,-4 c -0.7,0 -1.2,0.6 -1.2,1.2 0,0.6 0.6,1.2 1.2,1.2 0.6,0 1.2,-0.6 1.2,-1.2 0,-0.6 -0.5,-1.2 -1.2,-1.2 z"
   id="path4659"
   inkscape:connector-curvature="0"
   style="fill:#efda48" />
				<path
   d="m -8.2,-84.3 c -0.7,0 -1.2,0.6 -1.2,1.2 0,0.6 0.6,1.2 1.2,1.2 0.6,0 1.2,-0.6 1.2,-1.2 0,-0.6 -0.5,-1.2 -1.2,-1.2 z"
   id="path4661"
   inkscape:connector-curvature="0" />
			</g>
			<g
   class="st2"
   id="g4669"
   style="display:inline">
				<path
   class="st3"
   d="m 0.6,-80.3 c -1.4,0 -2.6,-1.2 -2.6,-2.6 0,-1.4 1.2,-2.6 2.6,-2.6 1.4,0 2.6,1.1 2.6,2.5 0,1.4 -1.2,2.7 -2.6,2.7 z m 0,-4 c -0.7,0 -1.2,0.6 -1.2,1.2 0,0.6 0.6,1.2 1.2,1.2 0.6,0 1.2,-0.6 1.2,-1.2 0,-0.6 -0.5,-1.2 -1.2,-1.2 z"
   id="path4665"
   inkscape:connector-curvature="0"
   style="fill:#efda48" />
				<path
   d="m 0.6,-84.3 c -0.7,0 -1.2,0.6 -1.2,1.2 0,0.6 0.6,1.2 1.2,1.2 0.6,0 1.2,-0.6 1.2,-1.2 0,-0.6 -0.5,-1.2 -1.2,-1.2 z"
   id="path4667"
   inkscape:connector-curvature="0" />
			</g>
			<g
   class="st2"
   id="g4675"
   style="display:inline">
				<path
   class="st3"
   d="m 9.4,-80.3 c -1.4,0 -2.6,-1.2 -2.6,-2.6 0,-1.4 1.2,-2.6 2.6,-2.6 1.4,0 2.6,1.2 2.6,2.6 0,1.4 -1.2,2.6 -2.6,2.6 z m 0,-4 c -0.7,0 -1.2,0.6 -1.2,1.2 0,0.6 0.6,1.2 1.2,1.2 0.6,0 1.2,-0.6 1.2,-1.2 0,-0.6 -0.5,-1.2 -1.2,-1.2 z"
   id="path4671"
   inkscape:connector-curvature="0"
   style="fill:#efda48" />
				<path
   d="m 9.4,-84.3 c -0.7,0 -1.2,0.6 -1.2,1.2 0,0.6 0.6,1.2 1.2,1.2 0.6,0 1.2,-0.6 1.2,-1.2 0,-0.6 -0.5,-1.2 -1.2,-1.2 z"
   id="path4673"
   inkscape:connector-curvature="0" />
			</g>
			<g
   class="st2"
   id="g4681"
   style="display:inline">
				<path
   class="st3"
   d="m 18.2,-80.3 c -1.4,0 -2.6,-1.2 -2.6,-2.6 0,-1.4 1.2,-2.6 2.6,-2.6 1.4,0 2.6,1.2 2.6,2.6 0,1.4 -1.2,2.6 -2.6,2.6 z m 0,-4 c -0.7,0 -1.2,0.6 -1.2,1.2 0,0.6 0.6,1.2 1.2,1.2 0.7,0 1.2,-0.6 1.2,-1.2 0,-0.6 -0.5,-1.2 -1.2,-1.2 z"
   id="path4677"
   inkscape:connector-curvature="0"
   style="fill:#efda48" />
				<path
   d="m 18.2,-84.3 c -0.7,0 -1.2,0.6 -1.2,1.2 0,0.6 0.6,1.2 1.2,1.2 0.7,0 1.2,-0.6 1.2,-1.2 0,-0.6 -0.5,-1.2 -1.2,-1.2 z"
   id="path4679"
   inkscape:connector-curvature="0" />
			</g>
			<g
   class="st2"
   id="g4687"
   style="display:inline">
				<path
   class="st3"
   d="m 27,-80.3 c -1.4,0 -2.6,-1.2 -2.6,-2.6 0,-1.4 1.2,-2.6 2.6,-2.6 1.4,0 2.6,1.2 2.6,2.6 0,1.4 -1.2,2.6 -2.6,2.6 z m 0,-4 c -0.7,0 -1.2,0.6 -1.2,1.2 0,0.6 0.6,1.2 1.2,1.2 0.6,0 1.2,-0.6 1.2,-1.2 0,-0.6 -0.5,-1.2 -1.2,-1.2 z"
   id="path4683"
   inkscape:connector-curvature="0"
   style="fill:#efda48" />
				<path
   d="m 27,-84.3 c -0.7,0 -1.2,0.6 -1.2,1.2 0,0.6 0.6,1.2 1.2,1.2 0.6,0 1.2,-0.6 1.2,-1.2 0,-0.6 -0.5,-1.2 -1.2,-1.2 z"
   id="path4685"
   inkscape:connector-curvature="0" />
			</g>
			<g
   class="st2"
   id="g4693"
   style="display:inline">
				<path
   class="st3"
   d="m 35.8,-80.3 c -1.4,0 -2.6,-1.2 -2.6,-2.6 0,-1.4 1.2,-2.6 2.6,-2.6 1.4,0 2.6,1.2 2.6,2.6 0,1.4 -1.1,2.6 -2.6,2.6 z m 0,-4 c -0.7,0 -1.2,0.6 -1.2,1.2 0,0.6 0.6,1.2 1.2,1.2 0.7,0 1.2,-0.6 1.2,-1.2 0,-0.6 -0.5,-1.2 -1.2,-1.2 z"
   id="path4689"
   inkscape:connector-curvature="0"
   style="fill:#efda48" />
				<path
   d="m 35.8,-84.3 c -0.7,0 -1.2,0.6 -1.2,1.2 0,0.6 0.6,1.2 1.2,1.2 0.7,0 1.2,-0.6 1.2,-1.2 0,-0.6 -0.5,-1.2 -1.2,-1.2 z"
   id="path4691"
   inkscape:connector-curvature="0" />
			</g>
			<g
   class="st2"
   id="g4699"
   style="display:inline">
				<path
   class="st3"
   d="m 44.6,-80.3 c -1.4,0 -2.6,-1.2 -2.6,-2.6 0,-1.4 1.2,-2.6 2.6,-2.6 1.4,0 2.6,1.2 2.6,2.6 0,1.4 -1.1,2.6 -2.6,2.6 z m 0,-4 c -0.7,0 -1.2,0.6 -1.2,1.2 0,0.6 0.6,1.2 1.2,1.2 0.6,0 1.2,-0.6 1.2,-1.2 0,-0.6 -0.5,-1.2 -1.2,-1.2 z"
   id="path4695"
   inkscape:connector-curvature="0"
   style="fill:#efda48" />
				<path
   d="m 44.6,-84.3 c -0.7,0 -1.2,0.6 -1.2,1.2 0,0.6 0.6,1.2 1.2,1.2 0.6,0 1.2,-0.6 1.2,-1.2 0,-0.6 -0.5,-1.2 -1.2,-1.2 z"
   id="path4697"
   inkscape:connector-curvature="0" />
			</g>
			<g
   class="st2"
   id="g4705"
   style="display:inline">
				<path
   class="st3"
   d="m 53.4,-80.3 c -1.4,0 -2.6,-1.2 -2.6,-2.6 0,-1.4 1.2,-2.6 2.6,-2.6 1.4,0 2.6,1.2 2.6,2.6 0,1.4 -1.1,2.6 -2.6,2.6 z m 0,-4 c -0.7,0 -1.2,0.6 -1.2,1.2 0,0.6 0.6,1.2 1.2,1.2 0.7,0 1.2,-0.6 1.2,-1.2 0,-0.6 -0.5,-1.2 -1.2,-1.2 z"
   id="path4701"
   inkscape:connector-curvature="0"
   style="fill:#efda48" />
				<path
   d="m 53.4,-84.3 c -0.7,0 -1.2,0.6 -1.2,1.2 0,0.6 0.6,1.2 1.2,1.2 0.7,0 1.2,-0.6 1.2,-1.2 0,-0.6 -0.5,-1.2 -1.2,-1.2 z"
   id="path4703"
   inkscape:connector-curvature="0" />
			</g>
		</g>
		<g
   class="st1"
   id="g4739"
   style="display:none">
			<g
   class="st2"
   id="g4713"
   style="display:inline">
				<path
   class="st3"
   d="m -17,-63.4 c -1.4,0 -2.6,-1.2 -2.6,-2.6 0,-1.4 1.2,-2.6 2.6,-2.6 1.4,0 2.6,1.2 2.6,2.6 0,1.4 -1.2,2.6 -2.6,2.6 z m 0,-3.9 c -0.7,0 -1.2,0.6 -1.2,1.2 0,0.6 0.6,1.1 1.2,1.1 0.7,0 1.2,-0.6 1.2,-1.2 0,-0.6 -0.6,-1.1 -1.2,-1.1 z"
   id="path4709"
   inkscape:connector-curvature="0"
   style="fill:#efda48" />
				<path
   d="m -17,-67.3 c -0.7,0 -1.2,0.6 -1.2,1.2 0,0.6 0.6,1.1 1.2,1.1 0.7,0 1.2,-0.6 1.2,-1.2 0,-0.6 -0.6,-1.1 -1.2,-1.1 z"
   id="path4711"
   inkscape:connector-curvature="0" />
			</g>
			<g
   class="st2"
   id="g4719"
   style="display:inline">
				<path
   class="st3"
   d="m -8.2,-63.4 c -1.4,0 -2.6,-1.2 -2.6,-2.6 0,-1.4 1.2,-2.6 2.6,-2.6 1.4,0 2.6,1.2 2.6,2.6 0,1.4 -1.2,2.6 -2.6,2.6 z m 0,-3.9 c -0.7,0 -1.2,0.6 -1.2,1.2 0,0.6 0.6,1.1 1.2,1.1 0.6,0 1.2,-0.6 1.2,-1.2 0,-0.6 -0.5,-1.1 -1.2,-1.1 z"
   id="path4715"
   inkscape:connector-curvature="0"
   style="fill:#efda48" />
				<path
   d="m -8.2,-67.3 c -0.7,0 -1.2,0.6 -1.2,1.2 0,0.6 0.6,1.1 1.2,1.1 0.6,0 1.2,-0.6 1.2,-1.2 0,-0.6 -0.5,-1.1 -1.2,-1.1 z"
   id="path4717"
   inkscape:connector-curvature="0" />
			</g>
			<g
   class="st2"
   id="g4725"
   style="display:inline">
				<path
   class="st3"
   d="m 0.6,-63.4 c -1.4,0 -2.6,-1.2 -2.6,-2.6 0,-1.4 1.2,-2.6 2.6,-2.6 1.4,0 2.6,1.1 2.6,2.6 0,1.5 -1.2,2.6 -2.6,2.6 z m 0,-3.9 c -0.7,0 -1.2,0.6 -1.2,1.2 0,0.6 0.6,1.1 1.2,1.1 0.6,0 1.2,-0.6 1.2,-1.2 0,-0.6 -0.5,-1.1 -1.2,-1.1 z"
   id="path4721"
   inkscape:connector-curvature="0"
   style="fill:#efda48" />
				<path
   d="m 0.6,-67.3 c -0.7,0 -1.2,0.6 -1.2,1.2 0,0.6 0.6,1.1 1.2,1.1 0.6,0 1.2,-0.6 1.2,-1.2 0,-0.6 -0.5,-1.1 -1.2,-1.1 z"
   id="path4723"
   inkscape:connector-curvature="0" />
			</g>
			<g
   class="st2"
   id="g4731"
   style="display:inline">
				<path
   class="st3"
   d="m 9.4,-63.4 c -1.4,0 -2.6,-1.2 -2.6,-2.6 0,-1.4 1.2,-2.6 2.6,-2.6 1.4,0 2.6,1.2 2.6,2.6 0,1.4 -1.2,2.6 -2.6,2.6 z m 0,-3.9 c -0.7,0 -1.2,0.6 -1.2,1.2 0,0.6 0.6,1.1 1.2,1.1 0.6,0 1.2,-0.6 1.2,-1.2 0,-0.6 -0.5,-1.1 -1.2,-1.1 z"
   id="path4727"
   inkscape:connector-curvature="0"
   style="fill:#efda48" />
				<path
   d="m 9.4,-67.3 c -0.7,0 -1.2,0.6 -1.2,1.2 0,0.6 0.6,1.1 1.2,1.1 0.6,0 1.2,-0.6 1.2,-1.2 0,-0.6 -0.5,-1.1 -1.2,-1.1 z"
   id="path4729"
   inkscape:connector-curvature="0" />
			</g>
			<g
   class="st2"
   id="g4737"
   style="display:inline">
				<path
   class="st3"
   d="m 18.2,-63.4 c -1.4,0 -2.6,-1.2 -2.6,-2.6 0,-1.4 1.2,-2.6 2.6,-2.6 1.4,0 2.6,1.2 2.6,2.6 0,1.4 -1.2,2.6 -2.6,2.6 z m 0,-3.9 c -0.7,0 -1.2,0.6 -1.2,1.2 0,0.6 0.6,1.2 1.2,1.2 0.7,0 1.2,-0.6 1.2,-1.2 0,-0.6 -0.5,-1.2 -1.2,-1.2 z"
   id="path4733"
   inkscape:connector-curvature="0"
   style="fill:#efda48" />
				<path
   d="m 18.2,-67.3 c -0.7,0 -1.2,0.6 -1.2,1.2 0,0.6 0.6,1.2 1.2,1.2 0.7,0 1.2,-0.6 1.2,-1.2 0,-0.6 -0.5,-1.2 -1.2,-1.2 z"
   id="path4735"
   inkscape:connector-curvature="0" />
			</g>
		</g>
		<g
   class="st1"
   id="g4765"
   style="display:none">
			<g
   class="st2"
   id="g4745"
   style="display:inline">
				<polygon
   class="st3"
   points="98.3,28.1 94.7,31.7 98.3,35.3 101.8,31.7 "
   id="polygon4741"
   style="fill:#efda48" />
				<path
   d="m 97.3,30.9 c -0.5,0.5 -0.5,1.3 0,1.8 0.5,0.5 1.3,0.5 1.8,0 0.5,-0.5 0.5,-1.3 0,-1.8 -0.5,-0.5 -1.3,-0.5 -1.8,0 z"
   id="path4743"
   inkscape:connector-curvature="0" />
			</g>
			<g
   class="st2"
   id="g4751"
   style="display:inline">
				<path
   class="st3"
   d="m 105.3,28.7 c -1,1 -2.7,1 -3.7,0 -1,-1 -1,-2.7 0,-3.7 1,-1 2.7,-1 3.7,0 1,1 1,2.6 0,3.7 z m -2.7,-2.8 c -0.5,0.5 -0.5,1.3 0,1.8 0.5,0.5 1.3,0.5 1.8,0 0.5,-0.5 0.5,-1.3 0,-1.8 -0.6,-0.5 -1.3,-0.5 -1.8,0 z"
   id="path4747"
   inkscape:connector-curvature="0"
   style="fill:#efda48" />
				<path
   d="m 102.6,25.9 c -0.5,0.5 -0.5,1.3 0,1.8 0.5,0.5 1.3,0.5 1.8,0 0.5,-0.5 0.5,-1.3 0,-1.8 -0.6,-0.5 -1.3,-0.5 -1.8,0 z"
   id="path4749"
   inkscape:connector-curvature="0" />
			</g>
			<g
   class="st2"
   id="g4757"
   style="display:inline">
				<path
   class="st3"
   d="m 110,24.1 c -1,1 -2.7,1 -3.7,0 -1,-1 -1,-2.7 0,-3.7 1,-1 2.7,-1 3.7,0 1,1 1,2.7 0,3.7 z m -2.8,-2.7 c -0.5,0.5 -0.5,1.3 0,1.8 0.5,0.5 1.3,0.5 1.8,0 0.5,-0.5 0.5,-1.3 0,-1.8 -0.5,-0.5 -1.3,-0.5 -1.8,0 z"
   id="path4753"
   inkscape:connector-curvature="0"
   style="fill:#efda48" />
				<path
   d="m 107.2,21.4 c -0.5,0.5 -0.5,1.3 0,1.8 0.5,0.5 1.3,0.5 1.8,0 0.5,-0.5 0.5,-1.3 0,-1.8 -0.5,-0.5 -1.3,-0.5 -1.8,0 z"
   id="path4755"
   inkscape:connector-curvature="0" />
			</g>
			<g
   class="st2"
   id="g4763"
   style="display:inline">
				<path
   class="st3"
   d="m 115.3,18.8 c -1,1 -2.7,1 -3.7,0 -1,-1 -1,-2.7 0,-3.7 1,-1 2.7,-1 3.7,0 1,1 1,2.7 0,3.7 z m -2.8,-2.7 c -0.5,0.5 -0.5,1.3 0,1.8 0.5,0.5 1.3,0.5 1.8,0 0.5,-0.5 0.5,-1.3 0,-1.8 -0.5,-0.5 -1.3,-0.5 -1.8,0 z"
   id="path4759"
   inkscape:connector-curvature="0"
   style="fill:#efda48" />
				<path
   d="m 112.5,16.1 c -0.5,0.5 -0.5,1.3 0,1.8 0.5,0.5 1.3,0.5 1.8,0 0.5,-0.5 0.5,-1.3 0,-1.8 -0.5,-0.5 -1.3,-0.5 -1.8,0 z"
   id="path4761"
   inkscape:connector-curvature="0" />
			</g>
		</g>
		<g
   class="st1"
   id="g4791"
   style="display:none">
			<g
   class="st2"
   id="g4771"
   style="display:inline">
				<polygon
   class="st3"
   points="-108.2,17.1 -111.8,13.5 -115.4,17.1 -111.8,20.8 "
   id="polygon4767"
   style="fill:#efda48" />
				<path
   d="m -110.9,16.3 c -0.5,-0.5 -1.3,-0.5 -1.8,0 -0.5,0.5 -0.5,1.3 0,1.8 0.5,0.5 1.3,0.5 1.8,0 0.5,-0.5 0.5,-1.3 0,-1.8 z"
   id="path4769"
   inkscape:connector-curvature="0" />
			</g>
			<g
   class="st2"
   id="g4777"
   style="display:inline">
				<path
   class="st3"
   d="m -108.8,24.2 c -1,-1 -1,-2.7 0,-3.7 1,-1 2.7,-1 3.7,0 1,1 1,2.7 0,3.7 -1,1 -2.7,1 -3.7,0 z m 2.8,-2.8 c -0.5,-0.5 -1.3,-0.5 -1.8,0 -0.5,0.5 -0.5,1.3 0,1.8 0.5,0.5 1.3,0.5 1.8,0 0.5,-0.5 0.5,-1.3 0,-1.8 z"
   id="path4773"
   inkscape:connector-curvature="0"
   style="fill:#efda48" />
				<path
   d="m -106,21.4 c -0.5,-0.5 -1.3,-0.5 -1.8,0 -0.5,0.5 -0.5,1.3 0,1.8 0.5,0.5 1.3,0.5 1.8,0 0.5,-0.5 0.5,-1.3 0,-1.8 z"
   id="path4775"
   inkscape:connector-curvature="0" />
			</g>
			<g
   class="st2"
   id="g4783"
   style="display:inline">
				<path
   class="st3"
   d="m -104.2,28.8 c -1,-1 -1,-2.7 0,-3.7 1,-1 2.7,-1 3.7,0 1,1 1,2.7 0,3.7 -1,1 -2.7,1.1 -3.7,0 z m 2.8,-2.7 c -0.5,-0.5 -1.3,-0.5 -1.8,0 -0.5,0.5 -0.5,1.3 0,1.8 0.5,0.5 1.3,0.5 1.8,0 0.5,-0.5 0.5,-1.3 0,-1.8 z"
   id="path4779"
   inkscape:connector-curvature="0"
   style="fill:#efda48" />
				<path
   d="m -101.4,26.1 c -0.5,-0.5 -1.3,-0.5 -1.8,0 -0.5,0.5 -0.5,1.3 0,1.8 0.5,0.5 1.3,0.5 1.8,0 0.5,-0.5 0.5,-1.3 0,-1.8 z"
   id="path4781"
   inkscape:connector-curvature="0" />
			</g>
			<g
   class="st2"
   id="g4789"
   style="display:inline">
				<path
   class="st3"
   d="m -98.9,34.1 c -1,-1 -1,-2.7 0,-3.7 1,-1 2.7,-1 3.7,0 1,1 1,2.7 0,3.7 -1,1 -2.6,1 -3.7,0 z m 2.7,-2.7 c -0.5,-0.5 -1.3,-0.5 -1.8,0 -0.5,0.5 -0.5,1.3 0,1.8 0.5,0.5 1.3,0.5 1.8,0 0.5,-0.5 0.5,-1.3 0,-1.8 z"
   id="path4785"
   inkscape:connector-curvature="0"
   style="fill:#efda48" />
				<path
   d="m -96.2,31.4 c -0.5,-0.5 -1.3,-0.5 -1.8,0 -0.5,0.5 -0.5,1.3 0,1.8 0.5,0.5 1.3,0.5 1.8,0 0.5,-0.5 0.5,-1.3 0,-1.8 z"
   id="path4787"
   inkscape:connector-curvature="0" />
			</g>
		</g>
		<g
   id="g4805">
			<path
   class="st3"
   d="m -132.4,17.1 c -9.4,0 -17.1,-7.6 -17.1,-17.1 0,-9.5 7.6,-17.1 17.1,-17.1 9.5,0 17.1,7.6 17.1,17.1 0,9.5 -7.6,17.1 -17.1,17.1 z m 0,-25.2 c -4.5,0 -8.1,3.6 -8.1,8.1 0,4.5 3.6,8.1 8.1,8.1 4.5,0 8.1,-3.6 8.1,-8.1 0,-4.5 -3.5,-8.1 -8.1,-8.1 z"
   id="path4793"
   inkscape:connector-curvature="0"
   style="fill:#efda48" />
			<path
   class="st3"
   d="m 66.7,131.8 c -9.4,0 -17.1,-7.6 -17.1,-17.1 0,-9.5 7.6,-17.1 17.1,-17.1 9.5,0 17.1,7.6 17.1,17.1 0,9.5 -7.7,17.1 -17.1,17.1 z m 0,-25.2 c -4.5,0 -8.1,3.6 -8.1,8.1 0,4.5 3.6,8.1 8.1,8.1 4.5,0 8.1,-3.6 8.1,-8.1 0,-4.5 -3.6,-8.1 -8.1,-8.1 z"
   id="path4795"
   inkscape:connector-curvature="0"
   style="fill:#efda48" />
			<path
   class="st3"
   d="M 132.4,17.1 C 123,17.1 115.3,9.5 115.3,0 c 0,-9.5 7.6,-17.1 17.1,-17.1 9.5,0 17.1,7.6 17.1,17.1 0,9.5 -7.7,17.1 -17.1,17.1 z m 0,-25.2 c -4.5,0 -8.1,3.6 -8.1,8.1 0,4.5 3.6,8.1 8.1,8.1 4.5,0 8.1,-3.6 8.1,-8.1 0,-4.5 -3.7,-8.1 -8.1,-8.1 z"
   id="path4797"
   inkscape:connector-curvature="0"
   style="fill:#efda48" />
			<path
   class="st3"
   d="m 66.7,-96.5 c -9.4,0 -17.1,-7.6 -17.1,-17.1 0,-9.5 7.6,-17.1 17.1,-17.1 9.5,0 17.1,7.6 17.1,17.1 0,9.5 -7.7,17.1 -17.1,17.1 z m 0,-25.1 c -4.5,0 -8.1,3.6 -8.1,8.1 0,4.5 3.6,8.1 8.1,8.1 4.5,0 8.1,-3.6 8.1,-8.1 0,-4.5 -3.6,-8.1 -8.1,-8.1 z"
   id="path4799"
   inkscape:connector-curvature="0"
   style="fill:#efda48" />
			<path
   class="st3"
   d="m -65.3,-97.5 c -9.4,0 -17.1,-7.6 -17.1,-17.1 0,-9.5 7.6,-17.1 17.1,-17.1 9.5,0 17.1,7.6 17.1,17.1 0,9.5 -7.7,17.1 -17.1,17.1 z m 0,-25.1 c -4.5,0 -8.1,3.6 -8.1,8.1 0,4.5 3.6,8.1 8.1,8.1 4.5,0 8.1,-3.6 8.1,-8.1 0,-4.5 -3.6,-8.1 -8.1,-8.1 z"
   id="path4801"
   inkscape:connector-curvature="0"
   style="fill:#efda48" />
			<path
   class="st3"
   d="m -65.3,131.8 c -9.4,0 -17.1,-7.6 -17.1,-17.1 0,-9.5 7.6,-17.1 17.1,-17.1 9.5,0 17.1,7.6 17.1,17.1 0,9.5 -7.7,17.1 -17.1,17.1 z m 0,-25.2 c -4.5,0 -8.1,3.6 -8.1,8.1 0,4.5 3.6,8.1 8.1,8.1 4.5,0 8.1,-3.6 8.1,-8.1 0,-4.5 -3.6,-8.1 -8.1,-8.1 z"
   id="path4803"
   inkscape:connector-curvature="0"
   style="fill:#efda48" />
		</g>
	</g>
	<path
   class="st4"
   d="m 132.4,-8.1 c -4.5,0 -8.1,3.6 -8.1,8.1 0,4.5 3.6,8.1 8.1,8.1 4.5,0 8.1,-3.6 8.1,-8.1 0,-4.5 -3.7,-8.1 -8.1,-8.1 z"
   id="path4808"
   inkscape:connector-curvature="0"
   style="fill:#ffffff" />
	<path
   class="st4"
   d="m 66.7,106.6 c -4.5,0 -8.1,3.6 -8.1,8.1 0,4.5 3.6,8.1 8.1,8.1 4.5,0 8.1,-3.6 8.1,-8.1 0,-4.5 -3.6,-8.1 -8.1,-8.1 z"
   id="path4810"
   inkscape:connector-curvature="0"
   style="fill:#ffffff" />
	<path
   class="st4"
   d="m -65.3,106.6 c -4.5,0 -8.1,3.6 -8.1,8.1 0,4.5 3.6,8.1 8.1,8.1 4.5,0 8.1,-3.6 8.1,-8.1 0,-4.5 -3.6,-8.1 -8.1,-8.1 z"
   id="path4812"
   inkscape:connector-curvature="0"
   style="fill:#ffffff" />
	<path
   class="st4"
   d="m -132.4,-8 c -4.5,0 -8.1,3.6 -8.1,8.1 0,4.5 3.6,8.1 8.1,8.1 4.5,0 8.1,-3.6 8.1,-8.1 0,-4.5 -3.5,-8.1 -8.1,-8.1 z"
   id="path4814"
   inkscape:connector-curvature="0"
   style="fill:#ffffff" />
	<path
   class="st4"
   d="m -65.3,-122.6 c -4.5,0 -8.1,3.6 -8.1,8.1 0,4.5 3.6,8.1 8.1,8.1 4.5,0 8.1,-3.6 8.1,-8.1 0,-4.5 -3.6,-8.1 -8.1,-8.1 z"
   id="path4816"
   inkscape:connector-curvature="0"
   style="fill:#ffffff" />
	<path
   class="st4"
   d="m 66.7,-121.6 c -4.5,0 -8.1,3.6 -8.1,8.1 0,4.5 3.6,8.1 8.1,8.1 4.5,0 8.1,-3.6 8.1,-8.1 0,-4.5 -3.6,-8.1 -8.1,-8.1 z"
   id="path4818"
   inkscape:connector-curvature="0"
   style="fill:#ffffff" />
</symbol>
<g
   id="g5188"
   transform="matrix(1.9916468,0,0,1.9916468,0,54.514563)">
	<path
   class="st5"
   d="m 452,56.6 c 0,-16 -13,-28.9 -28.9,-28.9 H 28.9 C 13,27.6 0,40.6 0,56.6 v 310.6 c 0,16 13,28.9 28.9,28.9 H 423 c 16,0 28.9,-13 28.9,-28.9 z M 13,215.2 c -2.4,0 -4.4,-2 -4.4,-4.4 0,-2.4 2,-4.4 4.4,-4.4 2.4,0 4.4,2 4.4,4.4 0,2.5 -2,4.4 -4.4,4.4 z m 428.3,0 c -2.4,0 -4.4,-2 -4.4,-4.4 0,-2.5 0.2,-4.4 4.4,-4.4 2.4,0 4.4,2 4.4,4.4 0,2.5 -2,4.4 -4.4,4.4 z M 126.2,356.9 c -10.6,0 -19.2,-8.6 -19.2,-19.2 0,-10.6 8.6,-19.2 19.2,-19.2 10.6,0 19.2,8.6 19.2,19.2 0,10.6 -8.6,19.2 -19.2,19.2 z m 99.8,0 c -10.6,0 -19.2,-8.6 -19.2,-19.2 0,-10.6 8.6,-19.2 19.2,-19.2 10.6,0 19.2,8.6 19.2,19.2 0,10.6 -8.6,19.2 -19.2,19.2 z m 101,0 c -10.6,0 -19.2,-8.6 -19.2,-19.2 0,-10.6 8.6,-19.2 19.2,-19.2 10.6,0 19.2,8.6 19.2,19.2 0,10.6 -8.6,19.2 -19.2,19.2 z m 88.7,0 c -10.6,0 -19.2,-8.6 -19.2,-19.2 0,-10.6 8.6,-19.2 19.2,-19.2 10.6,0 19.2,8.6 19.2,19.2 0,10.6 -8.6,19.2 -19.2,19.2 z m -379.2,0 c -10.6,0 -19.2,-8.6 -19.2,-19.2 0,-10.6 8.6,-19.2 19.2,-19.2 10.6,0 19.2,8.6 19.2,19.2 0,10.6 -8.6,19.2 -19.2,19.2 z"
   id="path4821"
   inkscape:connector-curvature="0"
   style="fill:#4c636f" />
	<polygon
   class="st6"
   points="104.4,27.6 104.4,79.1 157.1,27.6 "
   id="polygon4823"
   style="fill:#179c7d" />
	<path
   class="st6"
   d="M 103.6,27.6 H 23.5 C 10.9,29.6 0,39.7 0,52.8 v 76.1 z"
   id="path4825"
   inkscape:connector-curvature="0"
   style="fill:#179c7d" />
	<polygon
   class="st6"
   points="157,27.6 157,52.9 183.8,27.6 "
   id="polygon4827"
   style="fill:#179c7d" />
	<polygon
   class="st6"
   points="20.3,276.4 49.1,247.7 49.1,276.4 "
   id="polygon4829"
   style="fill:#179c7d" />
	<polygon
   class="st6"
   points="433.8,148.2 405,177 405,148.2 "
   id="polygon4831"
   style="fill:#179c7d" />
	<g
   id="g4841">
		<circle
   class="st7"
   cx="234.10001"
   cy="95.699997"
   r="90.800003"
   id="circle4833"
   style="fill:none" />
		<path
   class="st6"
   d="m 245,73.2 v 0 h -35.8 v 0 c -12.8,0.1 -22.3,9.7 -22.3,22.5 0,12.6 9.5,22.1 22.1,22.4 v 0 h 36 c 12.9,0 22.5,-9.6 22.5,-22.4 C 267.3,83 257.8,73.3 245,73.2 m -0.2,35.4 v 0 h -35.6 c -7,-0.1 -12.7,-5.8 -12.7,-12.9 0,-7.1 5.8,-12.9 12.9,-12.9 h 35.5 c 7.1,0 12.9,5.8 12.9,12.9 -0.1,7.2 -5.9,12.9 -13,12.9"
   id="path4835"
   inkscape:connector-curvature="0"
   style="fill:#179c7d" />
		<path
   class="st6"
   d="m 209.3,90.9 c -2.6,0 -4.8,2.2 -4.8,4.8 0,2.6 2.2,4.8 4.8,4.8 2.6,0 4.8,-2.2 4.8,-4.8 0,-2.6 -2.2,-4.8 -4.8,-4.8"
   id="path4837"
   inkscape:connector-curvature="0"
   style="fill:#179c7d" />
		<path
   class="st6"
   d="m 244.8,100.5 c 2.6,0 4.8,-2.2 4.8,-4.8 0,-2.6 -2.2,-4.8 -4.8,-4.8 -2.6,0 -4.8,2.2 -4.8,4.8 0,2.6 2.2,4.8 4.8,4.8"
   id="path4839"
   inkscape:connector-curvature="0"
   style="fill:#179c7d" />
	</g>
	
		<linearGradient
   id="SVGID_1_"
   gradientUnits="userSpaceOnUse"
   x1="-1862.2386"
   y1="875.9787"
   x2="-1862.2386"
   y2="876.6004"
   gradientTransform="matrix(69.4493,0,0,128.9774,129367.7,-112665.63)">
		<stop
   offset="0"
   style="stop-color:#D4AF37"
   id="stop4843" />
		<stop
   offset="1"
   style="stop-color:#D4AF37"
   id="stop4845" />
		<stop
   offset="1"
   style="stop-color:#FF5500"
   id="stop4847" />
		<stop
   offset="1"
   style="stop-color:#FF5500"
   id="stop4849" />
	</linearGradient>
	<path
   class="st8"
   d="m 15,337.3 c 0,0.4 -0.1,0.8 -0.1,1.2 v 55.1 c 3.7,1.6 7.8,2.4 11.7,2.4 H 57.8 V 337.3 H 58 v -0.1 C 58,325.4 48.4,315.8 36.5,315.8 24.7,315.9 15,325.4 15,337.3 Z m 4.2,0.4 c 0,-9.7 7.9,-17.5 17.5,-17.5 9.7,0 17.5,7.9 17.5,17.5 0,9.7 -7.8,17.5 -17.5,17.5 -9.6,0 -17.5,-7.9 -17.5,-17.5 z"
   id="path4854"
   inkscape:connector-curvature="0"
   style="fill:#d4af38;fill-opacity:1">
<title
   id="title4852">P0, ANALOG IN</title>
	</path>
	
		<linearGradient
   id="SVGID_2_"
   gradientUnits="userSpaceOnUse"
   x1="-1862.2587"
   y1="875.95441"
   x2="-1862.2587"
   y2="876.57642"
   gradientTransform="matrix(67.4067,0,0,129.4151,125654.93,-113046.14)">
		<stop
   offset="0"
   style="stop-color:#D4AF37"
   id="stop4856" />
		<stop
   offset="1"
   style="stop-color:#D4AF37"
   id="stop4858" />
		<stop
   offset="1"
   style="stop-color:#FF5500"
   id="stop4860" />
		<stop
   offset="1"
   style="stop-color:#FF5500"
   id="stop4862" />
	</linearGradient>
	<path
   class="st9"
   d="m 126.2,315.6 c -11.6,0 -20,9.3 -21,21 v 59.5 h 41.9 v -59.5 c 0.1,-11.6 -9.2,-21 -20.9,-21 z m 0.2,38.9 c -9.7,0 -17.5,-7.8 -17.5,-17.5 0,-9.8 7.8,-17.5 17.5,-17.5 9.7,0 17.5,7.9 17.5,17.5 0,9.6 -7.8,17.5 -17.5,17.5 z"
   id="path4867"
   inkscape:connector-curvature="0"
   style="fill:#d4af39;fill-opacity:1">
<title
   id="title4865">P1, ANALOG IN</title>
	</path>
	
		<linearGradient
   id="SVGID_3_"
   gradientUnits="userSpaceOnUse"
   x1="-1863.1571"
   y1="875.95441"
   x2="-1863.1571"
   y2="876.57642"
   gradientTransform="matrix(67.4067,0,0,129.4151,125815.27,-113046.14)">
		<stop
   offset="0"
   style="stop-color:#D4AF37"
   id="stop4869" />
		<stop
   offset="1"
   style="stop-color:#D4AF37"
   id="stop4871" />
		<stop
   offset="1"
   style="stop-color:#FF5500"
   id="stop4873" />
		<stop
   offset="1"
   style="stop-color:#FF5500"
   id="stop4875" />
	</linearGradient>
	<path
   class="st10"
   d="m 226,315.6 c -11.6,0 -20,9.3 -21,21 v 59.5 h 42 v -59.5 c 0,-11.6 -9.4,-21 -21,-21 z m 0.4,38.9 c -9.7,0 -17.5,-7.8 -17.5,-17.5 0,-9.8 7.8,-17.5 17.5,-17.5 9.7,0 17.5,7.9 17.5,17.5 0,9.6 -7.8,17.5 -17.5,17.5 z"
   id="path4880"
   inkscape:connector-curvature="0"
   style="fill:#d4af3a;fill-opacity:1">
<title
   id="title4878">P2, ANALOG IN</title>
	</path>
	
		<linearGradient
   id="SVGID_4_"
   gradientUnits="userSpaceOnUse"
   x1="-1801.2705"
   y1="882.85681"
   x2="-1801.2705"
   y2="883.479"
   gradientTransform="matrix(21.0099,0,0,64.7805,37851.043,-56839.617)">
		<stop
   offset="0"
   style="stop-color:#D4AF37"
   id="stop4882" />
		<stop
   offset="1"
   style="stop-color:#D4AF37"
   id="stop4884" />
		<stop
   offset="1"
   style="stop-color:#FF5500"
   id="stop4886" />
		<stop
   offset="1"
   style="stop-color:#FF5500"
   id="stop4888" />
	</linearGradient>
	<path
   class="st11"
   d="m 0,352.3 v 17.4 c 0,9.8 5.6,18.4 13.1,22.9 v -40.3 z"
   id="path4893"
   inkscape:connector-curvature="0"
   style="fill:url(#SVGID_4_)">
<title
   id="title4891">P3, ANALOG IN, LED Col 1</title>
	</path>
	
		<linearGradient
   id="SVGID_5_"
   gradientUnits="userSpaceOnUse"
   x1="-1765.4119"
   y1="881.27759"
   x2="-1765.4119"
   y2="881.90009"
   gradientTransform="matrix(14.5902,0,0,72.951,25822.783,-63938.727)">
		<stop
   offset="0"
   style="stop-color:#D4AF37"
   id="stop4895" />
		<stop
   offset="1"
   style="stop-color:#D4AF37"
   id="stop4897" />
		<stop
   offset="1"
   style="stop-color:#FF5500"
   id="stop4899" />
		<stop
   offset="1"
   style="stop-color:#FF5500"
   id="stop4901" />
	</linearGradient>
	<rect
   x="60.5"
   y="351.39999"
   class="st12"
   width="9.1000004"
   height="45.400002"
   id="rect4906"
   style="fill:url(#SVGID_5_)">
	<title
   id="title4904">P4, ANALOG IN, LED Col 2</title>
	</rect>
	
		<linearGradient
   id="SVGID_6_"
   gradientUnits="userSpaceOnUse"
   x1="-1765.8802"
   y1="881.27759"
   x2="-1765.8802"
   y2="881.90009"
   gradientTransform="matrix(14.5902,0,0,72.951,25840.875,-63938.727)">
		<stop
   offset="0"
   style="stop-color:#D4AF37"
   id="stop4908" />
		<stop
   offset="1"
   style="stop-color:#D4AF37"
   id="stop4910" />
		<stop
   offset="1"
   style="stop-color:#FF5500"
   id="stop4912" />
		<stop
   offset="1"
   style="stop-color:#FF5500"
   id="stop4914" />
	</linearGradient>
	<rect
   x="71.800003"
   y="351.39999"
   class="st13"
   width="9.1000004"
   height="45.400002"
   id="rect4919"
   style="fill:url(#SVGID_6_)">
	<title
   id="title4917">P5, BUTTON A</title>
	</rect>
	
		<linearGradient
   id="SVGID_7_"
   gradientUnits="userSpaceOnUse"
   x1="-1766.347"
   y1="881.27759"
   x2="-1766.347"
   y2="881.90009"
   gradientTransform="matrix(14.5902,0,0,72.951,25858.82,-63938.727)">
		<stop
   offset="0"
   style="stop-color:#D4AF37"
   id="stop4921" />
		<stop
   offset="1"
   style="stop-color:#D4AF37"
   id="stop4923" />
		<stop
   offset="1"
   style="stop-color:#FF5500"
   id="stop4925" />
		<stop
   offset="1"
   style="stop-color:#FF5500"
   id="stop4927" />
	</linearGradient>
	<rect
   x="82.900002"
   y="351.39999"
   class="st14"
   width="9.1000004"
   height="45.400002"
   id="rect4932"
   style="fill:url(#SVGID_7_)">
	<title
   id="title4930">P6, LED Col 9</title>
	</rect>
	
		<linearGradient
   id="SVGID_8_"
   gradientUnits="userSpaceOnUse"
   x1="-1766.8096"
   y1="881.27759"
   x2="-1766.8096"
   y2="881.90009"
   gradientTransform="matrix(14.5902,0,0,72.951,25876.766,-63938.727)">
		<stop
   offset="0"
   style="stop-color:#D4AF37"
   id="stop4934" />
		<stop
   offset="1"
   style="stop-color:#D4AF37"
   id="stop4936" />
		<stop
   offset="1"
   style="stop-color:#FF5500"
   id="stop4938" />
		<stop
   offset="1"
   style="stop-color:#FF5500"
   id="stop4940" />
	</linearGradient>
	<rect
   x="94.099998"
   y="351.39999"
   class="st15"
   width="9.1000004"
   height="45.400002"
   id="rect4945"
   style="fill:url(#SVGID_8_)">
	<title
   id="title4943">P7, LED Col 8</title>
	</rect>
	
		<linearGradient
   id="SVGID_9_"
   gradientUnits="userSpaceOnUse"
   x1="-1769.1005"
   y1="881.27759"
   x2="-1769.1005"
   y2="881.90009"
   gradientTransform="matrix(14.5902,0,0,72.951,25965.184,-63938.727)">
		<stop
   offset="0"
   style="stop-color:#D4AF37"
   id="stop4947" />
		<stop
   offset="1"
   style="stop-color:#D4AF37"
   id="stop4949" />
		<stop
   offset="1"
   style="stop-color:#FF5500"
   id="stop4951" />
		<stop
   offset="1"
   style="stop-color:#FF5500"
   id="stop4953" />
	</linearGradient>
	<rect
   x="149.10001"
   y="351.39999"
   class="st16"
   width="9.1000004"
   height="45.400002"
   id="rect4958"
   style="fill:url(#SVGID_9_)">
	<title
   id="title4956">P8</title>
	</rect>
	
		<linearGradient
   id="SVGID_10_"
   gradientUnits="userSpaceOnUse"
   x1="-1769.563"
   y1="881.27759"
   x2="-1769.563"
   y2="881.90009"
   gradientTransform="matrix(14.5902,0,0,72.951,25983.129,-63938.727)">
		<stop
   offset="0"
   style="stop-color:#D4AF37"
   id="stop4960" />
		<stop
   offset="1"
   style="stop-color:#D4AF37"
   id="stop4962" />
		<stop
   offset="1"
   style="stop-color:#FF5500"
   id="stop4964" />
		<stop
   offset="1"
   style="stop-color:#FF5500"
   id="stop4966" />
	</linearGradient>
	<rect
   x="160.3"
   y="351.39999"
   class="st17"
   width="9.1000004"
   height="45.400002"
   id="rect4971"
   style="fill:url(#SVGID_10_)">
	<title
   id="title4969">P9, LED Col 7</title>
	</rect>
	
		<linearGradient
   id="SVGID_11_"
   gradientUnits="userSpaceOnUse"
   x1="-1770.0298"
   y1="881.27759"
   x2="-1770.0298"
   y2="881.90009"
   gradientTransform="matrix(14.5902,0,0,72.951,26001.074,-63938.727)">
		<stop
   offset="0"
   style="stop-color:#D4AF37"
   id="stop4973" />
		<stop
   offset="1"
   style="stop-color:#D4AF37"
   id="stop4975" />
		<stop
   offset="1"
   style="stop-color:#FF5500"
   id="stop4977" />
		<stop
   offset="1"
   style="stop-color:#FF5500"
   id="stop4979" />
	</linearGradient>
	<rect
   x="171.39999"
   y="351.39999"
   class="st18"
   width="9.1000004"
   height="45.400002"
   id="rect4984"
   style="fill:url(#SVGID_11_)">
	<title
   id="title4982">P10, ANALOG IN, LED Col 3</title>
	</rect>
	
		<linearGradient
   id="SVGID_12_"
   gradientUnits="userSpaceOnUse"
   x1="-1770.498"
   y1="881.27759"
   x2="-1770.498"
   y2="881.90009"
   gradientTransform="matrix(14.5902,0,0,72.951,26019.166,-63938.727)">
		<stop
   offset="0"
   style="stop-color:#D4AF37"
   id="stop4986" />
		<stop
   offset="1"
   style="stop-color:#D4AF37"
   id="stop4988" />
		<stop
   offset="1"
   style="stop-color:#FF5500"
   id="stop4990" />
		<stop
   offset="1"
   style="stop-color:#FF5500"
   id="stop4992" />
	</linearGradient>
	<rect
   x="182.7"
   y="351.39999"
   class="st19"
   width="9.1000004"
   height="45.400002"
   id="rect4997"
   style="fill:url(#SVGID_12_)">
	<title
   id="title4995">P11, BUTTON B</title>
	</rect>
	
		<linearGradient
   id="SVGID_13_"
   gradientUnits="userSpaceOnUse"
   x1="-1770.965"
   y1="881.27759"
   x2="-1770.965"
   y2="881.90009"
   gradientTransform="matrix(14.5902,0,0,72.951,26037.113,-63938.727)">
		<stop
   offset="0"
   style="stop-color:#D4AF37"
   id="stop4999" />
		<stop
   offset="1"
   style="stop-color:#D4AF37"
   id="stop5001" />
		<stop
   offset="1"
   style="stop-color:#FF5500"
   id="stop5003" />
		<stop
   offset="1"
   style="stop-color:#FF5500"
   id="stop5005" />
	</linearGradient>
	<rect
   x="193.8"
   y="351.39999"
   class="st20"
   width="9.1000004"
   height="45.400002"
   id="rect5010"
   style="fill:url(#SVGID_13_)">
	<title
   id="title5008">P12, RESERVED ACCESSIBILITY</title>
	</rect>
	
		<linearGradient
   id="SVGID_14_"
   gradientUnits="userSpaceOnUse"
   x1="-1773.2919"
   y1="881.27759"
   x2="-1773.2919"
   y2="881.90009"
   gradientTransform="matrix(14.5902,0,0,72.951,26126.988,-63938.727)">
		<stop
   offset="0"
   style="stop-color:#D4AF37"
   id="stop5012" />
		<stop
   offset="1"
   style="stop-color:#D4AF37"
   id="stop5014" />
		<stop
   offset="1"
   style="stop-color:#FF5500"
   id="stop5016" />
		<stop
   offset="1"
   style="stop-color:#FF5500"
   id="stop5018" />
	</linearGradient>
	<rect
   x="249.8"
   y="351.39999"
   class="st21"
   width="9.1000004"
   height="45.400002"
   id="rect5023"
   style="fill:url(#SVGID_14_)">
	<title
   id="title5021">P13, SPI - SCK</title>
	</rect>
	
		<linearGradient
   id="SVGID_15_"
   gradientUnits="userSpaceOnUse"
   x1="-1773.7544"
   y1="881.27759"
   x2="-1773.7544"
   y2="881.90009"
   gradientTransform="matrix(14.5902,0,0,72.951,26144.934,-63938.727)">
		<stop
   offset="0"
   style="stop-color:#D4AF37"
   id="stop5025" />
		<stop
   offset="1"
   style="stop-color:#D4AF37"
   id="stop5027" />
		<stop
   offset="1"
   style="stop-color:#FF5500"
   id="stop5029" />
		<stop
   offset="1"
   style="stop-color:#FF5500"
   id="stop5031" />
	</linearGradient>
	<rect
   x="261"
   y="351.39999"
   class="st22"
   width="9.1000004"
   height="45.400002"
   id="rect5036"
   style="fill:url(#SVGID_15_)">
	<title
   id="title5034">P14, SPI - MISO</title>
	</rect>
	
		<linearGradient
   id="SVGID_16_"
   gradientUnits="userSpaceOnUse"
   x1="-1774.2212"
   y1="881.27759"
   x2="-1774.2212"
   y2="881.90009"
   gradientTransform="matrix(14.5902,0,0,72.951,26162.881,-63938.727)">
		<stop
   offset="0"
   style="stop-color:#D4AF37"
   id="stop5038" />
		<stop
   offset="1"
   style="stop-color:#D4AF37"
   id="stop5040" />
		<stop
   offset="1"
   style="stop-color:#FF5500"
   id="stop5042" />
		<stop
   offset="1"
   style="stop-color:#FF5500"
   id="stop5044" />
	</linearGradient>
	<rect
   x="272.10001"
   y="351.39999"
   class="st23"
   width="9.1000004"
   height="45.400002"
   id="rect5049"
   style="fill:#d4af37;fill-opacity:1">
	<title
   id="title5047">P15, SPI - MOSI</title>
	</rect>
	
		<linearGradient
   id="SVGID_17_"
   gradientUnits="userSpaceOnUse"
   x1="-1774.6837"
   y1="881.27759"
   x2="-1774.6837"
   y2="881.90009"
   gradientTransform="matrix(14.5902,0,0,72.951,26180.826,-63938.727)">
		<stop
   offset="0"
   style="stop-color:#D4AF37"
   id="stop5051" />
		<stop
   offset="1"
   style="stop-color:#D4AF37"
   id="stop5053" />
		<stop
   offset="1"
   style="stop-color:#FF5500"
   id="stop5055" />
		<stop
   offset="1"
   style="stop-color:#FF5500"
   id="stop5057" />
	</linearGradient>
	<rect
   x="283.29999"
   y="351.39999"
   class="st24"
   width="9.1000004"
   height="45.400002"
   id="rect5062"
   style="fill:url(#SVGID_17_)">
	<title
   id="title5060">P16, SPI - Chip Select</title>
	</rect>
	
		<linearGradient
   id="SVGID_18_"
   gradientUnits="userSpaceOnUse"
   x1="-1775.1564"
   y1="881.27759"
   x2="-1775.1564"
   y2="881.90009"
   gradientTransform="matrix(14.5902,0,0,72.951,26198.918,-63938.727)">
		<stop
   offset="0"
   style="stop-color:#D4AF37"
   id="stop5064" />
		<stop
   offset="1"
   style="stop-color:#D4AF37"
   id="stop5066" />
		<stop
   offset="1"
   style="stop-color:#FF5500"
   id="stop5068" />
		<stop
   offset="1"
   style="stop-color:#FF5500"
   id="stop5070" />
	</linearGradient>
	<rect
   x="294.5"
   y="351.39999"
   class="st25"
   width="9.1000004"
   height="45.400002"
   id="rect5075"
   style="fill:url(#SVGID_18_)">
	<title
   id="title5073">P17, +3v3</title>
	</rect>
	
		<linearGradient
   id="SVGID_19_"
   gradientUnits="userSpaceOnUse"
   x1="-1777.443"
   y1="881.27759"
   x2="-1777.443"
   y2="881.90009"
   gradientTransform="matrix(14.5902,0,0,72.951,26287.334,-63938.727)">
		<stop
   offset="0"
   style="stop-color:#D4AF37"
   id="stop5077" />
		<stop
   offset="1"
   style="stop-color:#D4AF37"
   id="stop5079" />
		<stop
   offset="1"
   style="stop-color:#FF5500"
   id="stop5081" />
		<stop
   offset="1"
   style="stop-color:#FF5500"
   id="stop5083" />
	</linearGradient>
	<rect
   x="349.5"
   y="351.39999"
   class="st26"
   width="9.1000004"
   height="45.400002"
   id="rect5088"
   style="fill:url(#SVGID_19_)">
	<title
   id="title5086">P18, +3v3</title>
	</rect>
	
		<linearGradient
   id="SVGID_20_"
   gradientUnits="userSpaceOnUse"
   x1="-1777.9098"
   y1="881.27759"
   x2="-1777.9098"
   y2="881.90009"
   gradientTransform="matrix(14.5902,0,0,72.951,26305.281,-63938.727)">
		<stop
   offset="0"
   style="stop-color:#D4AF37"
   id="stop5090" />
		<stop
   offset="1"
   style="stop-color:#D4AF37"
   id="stop5092" />
		<stop
   offset="1"
   style="stop-color:#FF5500"
   id="stop5094" />
		<stop
   offset="1"
   style="stop-color:#FF5500"
   id="stop5096" />
	</linearGradient>
	<rect
   x="360.70001"
   y="351.39999"
   class="st27"
   width="9.1000004"
   height="45.400002"
   id="rect5101"
   style="fill:url(#SVGID_20_)">
	<title
   id="title5099">P19, I2C - SCL</title>
	</rect>
	
		<linearGradient
   id="SVGID_21_"
   gradientUnits="userSpaceOnUse"
   x1="-1778.3723"
   y1="881.27759"
   x2="-1778.3723"
   y2="881.90009"
   gradientTransform="matrix(14.5902,0,0,72.951,26323.227,-63938.727)">
		<stop
   offset="0"
   style="stop-color:#D4AF37"
   id="stop5103" />
		<stop
   offset="1"
   style="stop-color:#D4AF37"
   id="stop5105" />
		<stop
   offset="1"
   style="stop-color:#FF5500"
   id="stop5107" />
		<stop
   offset="1"
   style="stop-color:#FF5500"
   id="stop5109" />
	</linearGradient>
	<rect
   x="371.89999"
   y="351.39999"
   class="st28"
   width="9.1000004"
   height="45.400002"
   id="rect5114"
   style="fill:url(#SVGID_21_)">
	<title
   id="title5112">P20, I2C - SDA</title>
	</rect>
	
		<linearGradient
   id="SVGID_22_"
   gradientUnits="userSpaceOnUse"
   x1="-1778.8391"
   y1="881.27759"
   x2="-1778.8391"
   y2="881.90009"
   gradientTransform="matrix(14.5902,0,0,72.951,26341.172,-63938.727)">
		<stop
   offset="0"
   style="stop-color:#D4AF37"
   id="stop5116" />
		<stop
   offset="1"
   style="stop-color:#D4AF37"
   id="stop5118" />
		<stop
   offset="1"
   style="stop-color:#FF5500"
   id="stop5120" />
		<stop
   offset="1"
   style="stop-color:#FF5500"
   id="stop5122" />
	</linearGradient>
	<rect
   x="383"
   y="351.39999"
   class="st29"
   width="9.1000004"
   height="45.400002"
   id="rect5127"
   style="fill:url(#SVGID_22_)">
	<title
   id="title5125">GND</title>
	</rect>
	
		<linearGradient
   id="SVGID_23_"
   gradientUnits="userSpaceOnUse"
   x1="-1813.9619"
   y1="882.88879"
   x2="-1813.9619"
   y2="883.5105"
   gradientTransform="matrix(21.0099,0,0,64.6346,38556.625,-56712.875)">
		<stop
   offset="0"
   style="stop-color:#D4AF37"
   id="stop5129" />
		<stop
   offset="1"
   style="stop-color:#D4AF37"
   id="stop5131" />
		<stop
   offset="1"
   style="stop-color:#FF5500"
   id="stop5133" />
		<stop
   offset="1"
   style="stop-color:#FF5500"
   id="stop5135" />
	</linearGradient>
	<path
   class="st30"
   d="M 438.9,392.5 C 446.4,388 452,379.4 452,369.7 v -17.4 h -13.1 z"
   id="path5140"
   inkscape:connector-curvature="0"
   style="fill:url(#SVGID_23_)">
<title
   id="title5138">GND</title>
	</path>
	
		<linearGradient
   id="SVGID_24_"
   gradientUnits="userSpaceOnUse"
   x1="-1864.0643"
   y1="875.95441"
   x2="-1864.0643"
   y2="876.57642"
   gradientTransform="matrix(67.4067,0,0,129.4151,125977.08,-113046.14)">
		<stop
   offset="0"
   style="stop-color:#D4AF37"
   id="stop5142" />
		<stop
   offset="1"
   style="stop-color:#D4AF37"
   id="stop5144" />
		<stop
   offset="1"
   style="stop-color:#FF5500"
   id="stop5146" />
		<stop
   offset="1"
   style="stop-color:#FF5500"
   id="stop5148" />
	</linearGradient>
	<path
   class="st31"
   d="m 326.7,315.6 c -11.6,0 -20,9.3 -21,21 v 59.5 h 41.9 v -59.5 c 0,-11.6 -9.3,-21 -20.9,-21 z m 0,38.9 c -9.7,0 -17.5,-7.8 -17.5,-17.5 0,-9.8 7.8,-17.5 17.5,-17.5 9.8,0 17.5,7.9 17.5,17.5 0.1,9.6 -7.8,17.5 -17.5,17.5 z"
   id="path5153"
   inkscape:connector-curvature="0"
   style="fill:url(#SVGID_24_)">
<title
   id="title5151">+3v3</title>
	</path>
	
		<linearGradient
   id="SVGID_25_"
   gradientUnits="userSpaceOnUse"
   x1="-1865.3633"
   y1="875.97778"
   x2="-1865.3633"
   y2="876.59949"
   gradientTransform="matrix(68.8657,0,0,128.9773,128875.25,-112665.35)">
		<stop
   offset="0"
   style="stop-color:#D4AF37"
   id="stop5155" />
		<stop
   offset="1"
   style="stop-color:#D4AF37"
   id="stop5157" />
		<stop
   offset="1"
   style="stop-color:#FF5500"
   id="stop5159" />
		<stop
   offset="1"
   style="stop-color:#FF5500"
   id="stop5161" />
	</linearGradient>
	<path
   class="st32"
   d="m 415.7,315.9 c -11.8,0 -21.4,9.6 -21.4,21.4 v 0.1 0 58.7 h 31.4 c 3.9,0 7.7,-0.9 11.4,-2.4 v -55.1 c 0,-0.4 0,-0.8 0,-1.2 0,-12 -9.6,-21.5 -21.4,-21.5 z m -0.2,39.3 c -9.7,0 -17.5,-7.8 -17.5,-17.5 0,-9.7 7.8,-17.5 17.5,-17.5 9.7,0 17.5,7.9 17.5,17.5 0,9.6 -7.9,17.5 -17.5,17.5 z"
   id="path5166"
   inkscape:connector-curvature="0"
   style="fill:url(#SVGID_25_)">
<title
   id="title5164">GND</title>
	</path>
	<path
   d="m 32.4,369.3 c 0,-2.6 1.9,-4.6 5,-4.6 3,0 5,2.2 5,4.6 v 4.3 c 0,2.6 -2,4.6 -5,4.6 -3,0 -5,-2.2 -5,-4.6 z m 6.9,0 c 0,-1.2 -0.7,-2.1 -2,-2.1 -1.2,0 -1.9,1 -1.9,2.1 v 4.3 c 0,1.1 0.7,2.1 1.9,2.1 1.2,0 2,-1 2,-2.1 z"
   id="path5168"
   inkscape:connector-curvature="0" />
	<path
   d="m 123.6,367.2 c 2.6,0 3.1,-0.7 3.1,-2.2 h 2.6 v 12.9 h -3.1 v -8.6 h -2.7 v -2.1 z"
   id="path5170"
   inkscape:connector-curvature="0" />
	<path
   d="m 225.6,371.1 c 1.6,-0.9 2.7,-1.6 2.7,-2.8 0,-1 -0.6,-1.4 -1.4,-1.4 -0.9,0 -1.6,0.6 -1.6,1.9 h -3 c 0,-2.4 1.6,-4.2 4.6,-4.2 2.4,0 4.4,1.2 4.4,3.9 0,2.2 -2.1,3.5 -3.4,4.3 -1.8,1.2 -2.2,1.6 -2.2,2.6 h 5.5 v 2.4 h -9.1 c 0.1,-4.2 1.5,-5.4 3.5,-6.7 z"
   id="path5172"
   inkscape:connector-curvature="0" />
	<path
   class="st5"
   d="m 43.7,273.5 -0.6,-1.6 h -4.6 l -0.6,1.6 h -3.2 l 4.6,-13 h 2.8 l 4.7,13 z m -2.9,-9.2 -1.6,5.3 h 3.2 z"
   id="path5174"
   inkscape:connector-curvature="0"
   style="fill:#4c636f" />
	<path
   class="st5"
   d="m 407.6,150.9 h 5.3 c 3.5,0 4.3,2.2 4.3,3.5 0,1.6 -1.2,2.6 -2.2,2.9 0.8,0 2.4,1 2.4,3 0,1.4 -0.7,3.6 -4.3,3.6 h -5.5 z m 4.8,5.3 c 1.4,0 1.8,-0.9 1.8,-1.6 0,-0.6 -0.2,-1.6 -1.8,-1.6 h -1.8 v 3.1 h 1.8 z m -1.8,2.2 v 3.2 h 1.9 c 1.4,0 1.8,-0.9 1.8,-1.6 0,-0.6 -0.4,-1.6 -1.8,-1.6 z"
   id="path5176"
   inkscape:connector-curvature="0"
   style="fill:#4c636f" />
	<path
   d="m 319.6,373.5 c 0,1.4 0.8,2.2 2,2.2 1.1,0 1.7,-0.8 1.7,-1.7 0,-1.1 -0.6,-1.8 -1.9,-1.8 h -1.2 v -2.4 h 1.2 c 1.4,0 1.7,-0.6 1.7,-1.6 0,-1 -0.6,-1.4 -1.4,-1.4 -1.2,0 -1.6,0.7 -1.6,1.9 h -3 c 0,-2.2 1.4,-4.2 4.6,-4.2 2.4,0 4.5,1.2 4.5,3.6 0,1.4 -0.9,2.6 -1.9,2.9 1.2,0.4 2.1,1.4 2.1,3.2 0,2.4 -2.2,3.9 -4.7,3.9 -3.2,0 -5,-1.9 -5,-4.6 z"
   id="path5178"
   inkscape:connector-curvature="0" />
	<path
   d="m 334.4,377.9 h -2.8 l -4.6,-13 h 3.2 l 2.8,9.1 2.8,-9.1 h 3.3 z"
   id="path5180"
   inkscape:connector-curvature="0" />
	<path
   d="m 403.4,370.9 h 6.7 v 2.2 h -1.4 c -0.6,3 -2.7,5 -6.5,5 -4.4,0 -6.8,-3.2 -6.8,-6.8 0,-3.5 2.6,-6.8 6.8,-6.8 3.4,0 5.8,2.1 6,4.5 H 405 c -0.2,-1 -1.2,-2 -2.8,-2 -2.4,0 -3.7,2.1 -3.7,4.3 0,2.2 1.2,4.3 4,4.3 1.8,0 2.9,-1.1 3.1,-2.4 h -2.2 z"
   id="path5182"
   inkscape:connector-curvature="0" />
	<path
   d="m 418.8,373.3 v -8.5 h 3 v 13 h -3.2 l -4.7,-8.3 v 8.3 h -3 v -13 h 3.2 z"
   id="path5184"
   inkscape:connector-curvature="0" />
	<path
   d="m 429,364.9 c 4.4,0 6.8,3.2 6.8,6.5 0,3.3 -2.4,6.5 -6.8,6.5 h -4.8 v -13 z m -1.7,2.6 v 7.8 h 1.6 c 2.4,0 3.8,-1.9 3.8,-3.9 0,-2 -1.4,-3.9 -3.8,-3.9 z"
   id="path5186"
   inkscape:connector-curvature="0" />
</g>
<g
   id="g5300"
   transform="matrix(1.9916468,0,0,1.9916468,0,54.514563)">
	<g
   id="g5210">
		<g
   id="g5192">
			<polygon
   class="st4"
   points="163,214 163,198 169,198 169,214 "
   id="polygon5190"
   style="fill:#ffffff" />
		</g>
		<g
   id="g5196">
			<polygon
   class="st4"
   points="223,214 223,198 229,198 229,214 "
   id="polygon5194"
   style="fill:#ffffff" />
		</g>
		<g
   id="g5200">
			<polygon
   class="st4"
   points="253,214 253,198 259,198 259,214 "
   id="polygon5198"
   style="fill:#ffffff" />
		</g>
		<g
   id="g5204">
			<polygon
   class="st4"
   points="283,214 283,198 289,198 289,214 "
   id="polygon5202"
   style="fill:#ffffff" />
		</g>
		<g
   id="g5208">
			<polygon
   class="st4"
   points="193,214 193,198 199,198 199,214 "
   id="polygon5206"
   style="fill:#ffffff" />
		</g>
	</g>
	<g
   id="g5232">
		<g
   id="g5214">
			<polygon
   class="st4"
   points="163,184 163,168 169,168 169,184 "
   id="polygon5212"
   style="fill:#ffffff" />
		</g>
		<g
   id="g5218">
			<polygon
   class="st4"
   points="223,184 223,168 229,168 229,184 "
   id="polygon5216"
   style="fill:#ffffff" />
		</g>
		<g
   id="g5222">
			<polygon
   class="st4"
   points="253,184 253,168 259,168 259,184 "
   id="polygon5220"
   style="fill:#ffffff" />
		</g>
		<g
   id="g5226">
			<polygon
   class="st4"
   points="283,184 283,168 289,168 289,184 "
   id="polygon5224"
   style="fill:#ffffff" />
		</g>
		<g
   id="g5230">
			<polygon
   class="st4"
   points="193,184 193,168 199,168 199,184 "
   id="polygon5228"
   style="fill:#ffffff" />
		</g>
	</g>
	<g
   id="g5254">
		<g
   id="g5236">
			<polygon
   class="st4"
   points="163,154 163,138 169,138 169,154 "
   id="polygon5234"
   style="fill:#ffffff" />
		</g>
		<g
   id="g5240">
			<polygon
   class="st4"
   points="223,154 223,138 229,138 229,154 "
   id="polygon5238"
   style="fill:#ffffff" />
		</g>
		<g
   id="g5244">
			<polygon
   class="st4"
   points="253,154 253,138 259,138 259,154 "
   id="polygon5242"
   style="fill:#ffffff" />
		</g>
		<g
   id="g5248">
			<polygon
   class="st4"
   points="283,154 283,138 289,138 289,154 "
   id="polygon5246"
   style="fill:#ffffff" />
		</g>
		<g
   id="g5252">
			<polygon
   class="st4"
   points="193,154 193,138 199,138 199,154 "
   id="polygon5250"
   style="fill:#ffffff" />
		</g>
	</g>
	<g
   id="g5276">
		<g
   id="g5258">
			<polygon
   class="st4"
   points="163,244 163,228 169,228 169,244 "
   id="polygon5256"
   style="fill:#ffffff" />
		</g>
		<g
   id="g5262">
			<polygon
   class="st4"
   points="223,244 223,228 229,228 229,244 "
   id="polygon5260"
   style="fill:#ffffff" />
		</g>
		<g
   id="g5266">
			<polygon
   class="st4"
   points="253,244 253,228 259,228 259,244 "
   id="polygon5264"
   style="fill:#ffffff" />
		</g>
		<g
   id="g5270">
			<polygon
   class="st4"
   points="283,244 283,228 289,228 289,244 "
   id="polygon5268"
   style="fill:#ffffff" />
		</g>
		<g
   id="g5274">
			<polygon
   class="st4"
   points="193,244 193,228 199,228 199,244 "
   id="polygon5272"
   style="fill:#ffffff" />
		</g>
	</g>
	<g
   id="g5298">
		<g
   id="g5280">
			<polygon
   class="st4"
   points="163,274 163,258 169,258 169,274 "
   id="polygon5278"
   style="fill:#ffffff" />
		</g>
		<g
   id="g5284">
			<polygon
   class="st4"
   points="223,274 223,258 229,258 229,274 "
   id="polygon5282"
   style="fill:#ffffff" />
		</g>
		<g
   id="g5288">
			<polygon
   class="st4"
   points="253,274 253,258 259,258 259,274 "
   id="polygon5286"
   style="fill:#ffffff" />
		</g>
		<g
   id="g5292">
			<polygon
   class="st4"
   points="283,274 283,258 289,258 289,274 "
   id="polygon5290"
   style="fill:#ffffff" />
		</g>
		<g
   id="g5296">
			<polygon
   class="st4"
   points="193,274 193,258 199,258 199,274 "
   id="polygon5294"
   style="fill:#ffffff" />
		</g>
	</g>
</g>
<g
   id="g5306"
   transform="matrix(1.9916468,0,0,1.9916468,-6.4787043,58.833699)">
	<polygon
   class="st4"
   points="29,191.9 67,191.9 67,229.9 29,229.9 "
   id="polygon5302"
   style="fill:#ffffff" />
	<path
   class="st33"
   d="m 62.5,210.9 c 0,8.1 -6.4,14.5 -14.5,14.5 -8.1,0 -14.5,-6.4 -14.5,-14.5 0,-8.1 6.4,-14.5 14.5,-14.5 8.1,0 14.5,6.7 14.5,14.5 z"
   id="path5304"
   inkscape:connector-curvature="0"
   style="fill:#f29400" />
<path
   class="st33"
   d="m 236.78412,3.2602349 c 0,8.0999991 -6.4,14.5000001 -14.5,14.5000001 -8.1,0 -14.5,-6.400001 -14.5,-14.5000001 0,-8.0999996 6.4,-14.4999999 14.5,-14.4999999 8.1,0 14.5,6.7000003 14.5,14.4999999 z"
   id="path5304-3"
   inkscape:connector-curvature="0"
   style="opacity:1;fill:#f29400;stroke-width:1;fill-opacity:0.58823532" /><path
   class="st33"
   d="m 251.42234,3.2602343 c 0,8.0999997 -6.4,14.4999997 -14.5,14.4999997 -8.1,0 -14.5,-6.4 -14.5,-14.4999997 0,-8.1 6.4,-14.5000003 14.5,-14.5000003 8.1,0 14.5,6.7000003 14.5,14.5000003 z"
   id="path5304-3-6"
   inkscape:connector-curvature="0"
   style="opacity:1;fill:#f29400;stroke-width:1;fill-opacity:0.58823532" /><path
   inkscape:connector-curvature="0"
   style="vector-effect:non-scaling-stroke;stroke-width:0.50209707"
   stroke="null"
   id="svg_138"
   d="m 264.54748,6.4720497 h -1.40196 l 3.44259,-10.21874 h 1.55773 l 3.4426,10.21874 h -1.46427 l -1.74466,-5.67015201 q -0.26482,-0.85675401 -0.51406,-1.70571901 -0.24923,-0.84896598 -0.49847,-1.72129498 h -0.0623 q -0.23366,0.872334 -0.47511,1.72129498 -0.24145,0.848965 -0.52184,1.70571901 z m 25.76492,0 H 287.01 v -10.21874 h 3.06874 a 7.2428153,7.2428153 0 0 1 0.94308,0.05841 5.3274506,5.3274506 0 0 1 0.88726,0.190822 2.9655359,2.9655359 0 0 1 0.63348,0.2765 2.2398901,2.2398901 0 0 1 0.61271,0.525736 1.9335356,1.9335356 0 0 1 0.36477,0.7568 q 0.0792,0.318686 0.0792,0.699683 0,0.74771298 -0.38165,1.36301799 -0.38164,0.615304 -1.0982,0.848965 v 0.06231 q 0.91907,0.17135 1.49543,0.786655 a 2.0659436,2.0659436 0 0 1 0.50172,0.964498 3.0622448,3.0622448 0 0 1 0.0746,0.694491 3.3822312,3.3822312 0 0 1 -0.0792,0.750956 2.3989093,2.3989093 0 0 1 -0.41929,0.923608 2.8474075,2.8474075 0 0 1 -1.00409,0.828194 3.6068042,3.6068042 0 0 1 -0.36672,0.160967 4.9821535,4.9821535 0 0 1 -1.03329,0.260272 6.7716023,6.7716023 0 0 1 -0.97619,0.06686 z m -11.15338,-1.604467 h -1.07484 v -3.037581 h -2.8195 V 0.83305269 h 2.8195 V -2.2045293 h 1.07484 v 3.03758199 h 2.8195 V 1.8300017 h -2.8195 z m 9.22179,-3.240087 v 3.754139 h 1.74466 a 5.6805403,5.6805403 0 0 0 0.75096,-0.04609 q 0.76328,-0.102554 1.25072,-0.429027 0.70877,-0.475109 0.70877,-1.487638 a 1.8984892,1.8984892 0 0 0 -0.0753,-0.551047 1.400665,1.400665 0 0 0 -0.62568,-0.804179 q -0.69774,-0.434218 -1.9965,-0.436166 a 7.8347526,7.8347526 0 0 0 -0.013,0 z m 0,-4.283772 v 3.24008799 h 1.47984 a 5.8440985,5.8440985 0 0 0 0.62829,-0.03113 q 0.64191,-0.0701 1.03395,-0.294671 a 1.4188359,1.4188359 0 0 0 0.17589,-0.118128 1.4292193,1.4292193 0 0 0 0.5543,-1.04433201 1.943924,1.943924 0 0 0 0.007,-0.16291598 2.0062342,2.0062342 0 0 0 -0.0493,-0.461477 q -0.12203,-0.5147 -0.54262,-0.769132 a 2.0646482,2.0646482 0 0 0 -0.49458,-0.210294 q -0.4764,-0.138247 -1.15532,-0.147335 a 7.1960852,7.1960852 0 0 0 -0.0948,-5.02e-4 h -1.54217 z m -18.67724,6.059589 h -4.71993 v -1.090415 h 4.71993 z" /></g>
<g
   id="g5312"
   transform="matrix(1.9916468,0,0,1.9916468,0,54.514563)">
	<polygon
   class="st4"
   points="385,229.9 385,191.9 423,191.9 423,229.9 "
   id="polygon5308"
   style="fill:#ffffff" />
	<path
   class="st33"
   d="m 418.5,210.9 c 0,8.1 -6.4,14.5 -14.5,14.5 -8.1,0 -14.5,-6.4 -14.5,-14.5 0,-8.1 6.4,-14.5 14.5,-14.5 8.1,0 14.5,6.7 14.5,14.5 z"
   id="path5310"
   inkscape:connector-curvature="0"
   style="fill:#f29500;fill-opacity:1" />
</g>
<path
   class="st34"
   d="m 470.02864,154.6944 c 0,11.15322 -8.76325,19.91646 -19.91647,19.91646 -11.15322,0 -19.91647,-8.76324 -19.91647,-19.91646 0,-11.15323 8.76325,-19.91647 19.91647,-19.91647 11.15322,0 19.91647,9.16157 19.91647,19.91647 z"
   id="path5314"
   inkscape:connector-curvature="0"
   style="fill:#d8d8d8;stroke-width:1.99164677;fill-opacity:1" />
</svg>