<?xml version="1.0" encoding="utf-8"?>
<!-- Generator: Adobe Illustrator 21.0.0, SVG Export Plug-In . SVG Version: 6.00 Build 0)  -->
<svg version="1.1" id="Ebene_2" xmlns="http://www.w3.org/2000/svg" xmlns:xlink="http://www.w3.org/1999/xlink" x="0px" y="0px"
	 viewBox="0 0 1024 600" style="enable-background:new 0 0 1024 600;" xml:space="preserve">
<style type="text/css">
	.st0{fill:#034854;}
	.st1{display:none;}
	.st2{display:inline;}
	.st3{fill:#EFDA48;}
	.st4{fill:#FFFFFF;}
	.st5{fill:#BDD1CF;}
	.st6{fill:#476975;}
	.st7{fill:#F9B233;}
	.st8{fill:none;stroke:#FFFFFF;stroke-width:1.2482;stroke-miterlimit:10;}
	.st9{enable-background:new    ;}
	.st10{fill:#333333;}
	.st11{opacity:0.5;fill:#FFFFFF;enable-background:new    ;}
	.st12{fill:none;stroke:#333333;stroke-width:0.6378;stroke-miterlimit:10;}
	.st13{fill:none;stroke:#333333;stroke-miterlimit:10;}
</style>
<symbol  id="calliope_mini_backside" viewBox="-149.5 -131.8 299 263.6">
	<path class="st0" d="M-75.9,127.5L-75.9,127.5c6.2,4.6,14.6,4.8,20.9,0.5c12.5-8.4,34.7-21,56-21c23.2,0,45.7,13.5,56.4,21
		c4.3,3,9.8,3.8,14.7,2l0.6-0.2c7.3-2.6,11.8-9.8,11-17.4c-1.7-15.4-3-41.9,13-62.9c16.8-21.9,31.7-31.2,42.3-34.8
		c5.9-2,9.9-7.4,10.4-13.6l0,0c0.5-8-5.1-13.6-12.3-17c-12-5.7-30.8-15.7-42.8-36.2c-14.4-24.9-13-51.3-11.4-62.7
		c0.7-5.1-1.6-10.1-5.9-12.8c-4.8-3-11.9-4.6-21.4,1.5c-5.5,3.6-12,8.6-20.8,12c-10.8,4.1-16.9,5.5-20.3,5.8c-2.4,0.2-4.4,1.8-5.2,4
		c-1.1,2.9-3.4,6.2-8.2,6.2c-5,0-7.2-3.6-8.2-6.6c-0.8-2.5-3.3-3.4-5.9-3.7c-4.9-0.4-12.5-2.4-20.5-6.1c-7.1-3.3-14-7.9-20.4-12.7
		c-5.5-4.1-15-5.5-20.4-1.3l0,0c-5.7,4.4-7.4,11.7-6.5,18.8c1.9,15.3,1.1,43.3-16.7,64.2c-17.6,20.8-28.2,26.2-37.2,29.2
		c-3.9,1.3-11.4,5.4-12.3,14.1c-0.9,8.7,3,14.5,10.9,18.4c12.3,6.1,30.5,17.2,42.1,34.1c15,22,15,48,13,61.7
		C-81.7,117.8-80.5,124.1-75.9,127.5z"/>
	<g id="holes_2_">
		<g class="st1">
			<g class="st2">
				<path class="st3" d="M-52.3-89.4c-1.4,0-2.6-1.2-2.6-2.6s1.2-2.6,2.6-2.6s2.6,1.2,2.6,2.6S-50.8-89.4-52.3-89.4z M-52.3-93.1
					c-0.7,0-1.2,0.6-1.2,1.2c0,0.7,0.6,1.2,1.2,1.2c0.7,0,1.2-0.6,1.2-1.2C-51-92.6-51.6-93.1-52.3-93.1z"/>
				<path d="M-52.3-93.1c-0.7,0-1.2,0.6-1.2,1.2c0,0.7,0.6,1.2,1.2,1.2c0.7,0,1.2-0.6,1.2-1.2C-51-92.6-51.6-93.1-52.3-93.1z"/>
			</g>
			<g class="st2">
				<path class="st3" d="M-43.5-89.4c-1.4,0-2.6-1.2-2.6-2.6s1.2-2.6,2.6-2.6s2.6,1.2,2.6,2.6S-42-89.4-43.5-89.4z M-43.5-93.1
					c-0.7,0-1.2,0.6-1.2,1.2c0,0.7,0.6,1.2,1.2,1.2c0.7,0,1.2-0.6,1.2-1.2C-42.3-92.6-42.8-93.1-43.5-93.1z"/>
				<path d="M-43.5-93.1c-0.7,0-1.2,0.6-1.2,1.2c0,0.7,0.6,1.2,1.2,1.2c0.7,0,1.2-0.6,1.2-1.2C-42.3-92.6-42.8-93.1-43.5-93.1z"/>
			</g>
			<g class="st2">
				<path class="st3" d="M-34.8-89.4c-1.4,0-2.6-1.2-2.6-2.6s1.2-2.6,2.6-2.6s2.6,1.2,2.6,2.6S-33.3-89.4-34.8-89.4z M-34.8-93.1
					c-0.7,0-1.2,0.6-1.2,1.2c0,0.7,0.6,1.2,1.2,1.2c0.7,0,1.2-0.6,1.2-1.2C-33.4-92.6-34-93.1-34.8-93.1z"/>
				<path d="M-34.8-93.1c-0.7,0-1.2,0.6-1.2,1.2c0,0.7,0.6,1.2,1.2,1.2c0.7,0,1.2-0.6,1.2-1.2C-33.4-92.6-34-93.1-34.8-93.1z"/>
			</g>
			<g class="st2">
				<path class="st3" d="M-25.8-89.4c-1.4,0-2.6-1.2-2.6-2.6s1.2-2.6,2.6-2.6s2.6,1.2,2.6,2.6S-24.4-89.4-25.8-89.4z M-25.8-93.1
					c-0.7,0-1.2,0.6-1.2,1.2c0,0.7,0.6,1.2,1.2,1.2c0.7,0,1.2-0.6,1.2-1.2C-24.6-92.6-25.2-93.1-25.8-93.1z"/>
				<path d="M-25.8-93.1c-0.7,0-1.2,0.6-1.2,1.2c0,0.7,0.6,1.2,1.2,1.2c0.7,0,1.2-0.6,1.2-1.2C-24.6-92.6-25.2-93.1-25.8-93.1z"/>
			</g>
			<g class="st2">
				<path class="st3" d="M-17-89.4c-1.4,0-2.6-1.2-2.6-2.6s1.2-2.6,2.6-2.6s2.6,1.2,2.6,2.6S-15.6-89.4-17-89.4z M-17-93.1
					c-0.7,0-1.2,0.6-1.2,1.2c0,0.7,0.6,1.2,1.2,1.2c0.7,0,1.2-0.6,1.2-1.2C-15.8-92.6-16.4-93.1-17-93.1z"/>
				<path d="M-17-93.1c-0.7,0-1.2,0.6-1.2,1.2c0,0.7,0.6,1.2,1.2,1.2c0.7,0,1.2-0.6,1.2-1.2C-15.8-92.6-16.4-93.1-17-93.1z"/>
			</g>
			<g class="st2">
				<path class="st3" d="M-8.2-89.4c-1.4,0-2.6-1.2-2.6-2.6s1.2-2.6,2.6-2.6s2.6,1.2,2.6,2.6S-6.8-89.4-8.2-89.4z M-8.2-93.1
					c-0.7,0-1.2,0.6-1.2,1.2c0,0.7,0.6,1.2,1.2,1.2S-7-91.4-7-91.9C-7-92.6-7.5-93.1-8.2-93.1z"/>
				<path d="M-8.2-93.1c-0.7,0-1.2,0.6-1.2,1.2c0,0.7,0.6,1.2,1.2,1.2S-7-91.4-7-91.9C-7-92.6-7.5-93.1-8.2-93.1z"/>
			</g>
			<g class="st2">
				<path class="st3" d="M0.6-89.4C-0.8-89.4-2-90.6-2-92s1.2-2.6,2.6-2.6s2.6,1.2,2.6,2.6S2-89.4,0.6-89.4z M0.6-93.1
					c-0.7,0-1.2,0.6-1.2,1.2c0,0.7,0.6,1.2,1.2,1.2s1.2-0.6,1.2-1.2C1.8-92.6,1.3-93.1,0.6-93.1z"/>
				<path d="M0.6-93.1c-0.7,0-1.2,0.6-1.2,1.2c0,0.7,0.6,1.2,1.2,1.2s1.2-0.6,1.2-1.2C1.8-92.6,1.3-93.1,0.6-93.1z"/>
			</g>
			<g class="st2">
				<path class="st3" d="M9.4-89.4c-1.4,0-2.6-1.2-2.6-2.6s1.2-2.6,2.6-2.6S12-93.4,12-92S10.8-89.4,9.4-89.4z M9.4-93.1
					c-0.7,0-1.2,0.6-1.2,1.2c0,0.7,0.6,1.2,1.2,1.2s1.2-0.6,1.2-1.2C10.6-92.6,10.1-93.1,9.4-93.1z"/>
				<path d="M9.4-93.1c-0.7,0-1.2,0.6-1.2,1.2c0,0.7,0.6,1.2,1.2,1.2s1.2-0.6,1.2-1.2C10.6-92.6,10.1-93.1,9.4-93.1z"/>
			</g>
			<g class="st2">
				<path class="st3" d="M18.2-89.4c-1.4,0-2.6-1.2-2.6-2.6s1.2-2.6,2.6-2.6s2.6,1.2,2.6,2.6S19.6-89.4,18.2-89.4z M18.2-93.1
					c-0.7,0-1.2,0.6-1.2,1.2c0,0.7,0.6,1.2,1.2,1.2c0.7,0,1.2-0.6,1.2-1.2C19.4-92.6,18.9-93.1,18.2-93.1z"/>
				<path d="M18.2-93.1c-0.7,0-1.2,0.6-1.2,1.2c0,0.7,0.6,1.2,1.2,1.2c0.7,0,1.2-0.6,1.2-1.2C19.4-92.6,18.9-93.1,18.2-93.1z"/>
			</g>
			<g class="st2">
				<path class="st3" d="M27-89.4c-1.4,0-2.6-1.2-2.6-2.6s1.2-2.6,2.6-2.6s2.6,1.2,2.6,2.6S28.4-89.4,27-89.4z M27-93.1
					c-0.7,0-1.2,0.6-1.2,1.2c0,0.7,0.6,1.2,1.2,1.2s1.2-0.6,1.2-1.2C28.2-92.6,27.7-93.1,27-93.1z"/>
				<path d="M27-93.1c-0.7,0-1.2,0.6-1.2,1.2c0,0.7,0.6,1.2,1.2,1.2s1.2-0.6,1.2-1.2C28.2-92.6,27.7-93.1,27-93.1z"/>
			</g>
			<g class="st2">
				<path class="st3" d="M35.8-89.4c-1.4,0-2.6-1.2-2.6-2.6s1.2-2.6,2.6-2.6s2.6,1.2,2.6,2.6S37.3-89.4,35.8-89.4z M35.8-93.1
					c-0.7,0-1.2,0.6-1.2,1.2c0,0.7,0.6,1.2,1.2,1.2c0.7,0,1.2-0.6,1.2-1.2C37.1-92.6,36.5-93.1,35.8-93.1z"/>
				<path d="M35.8-93.1c-0.7,0-1.2,0.6-1.2,1.2c0,0.7,0.6,1.2,1.2,1.2c0.7,0,1.2-0.6,1.2-1.2C37.1-92.6,36.5-93.1,35.8-93.1z"/>
			</g>
			<g class="st2">
				<path class="st3" d="M44.6-89.4c-1.4,0-2.6-1.2-2.6-2.6s1.2-2.6,2.6-2.6s2.6,1.2,2.6,2.6S46.1-89.4,44.6-89.4z M44.6-93.1
					c-0.7,0-1.2,0.6-1.2,1.2c0,0.7,0.6,1.2,1.2,1.2s1.2-0.6,1.2-1.2C45.9-92.6,45.3-93.1,44.6-93.1z"/>
				<path d="M44.6-93.1c-0.7,0-1.2,0.6-1.2,1.2c0,0.7,0.6,1.2,1.2,1.2s1.2-0.6,1.2-1.2C45.9-92.6,45.3-93.1,44.6-93.1z"/>
			</g>
			<g class="st2">
				<path class="st3" d="M53.4-89.4c-1.4,0-2.6-1.2-2.6-2.6s1.2-2.6,2.6-2.6S56-93.4,56-92S54.9-89.4,53.4-89.4z M53.4-93.1
					c-0.7,0-1.2,0.6-1.2,1.2c0,0.7,0.6,1.2,1.2,1.2c0.7,0,1.2-0.6,1.2-1.2C54.7-92.6,54.1-93.1,53.4-93.1z"/>
				<path d="M53.4-93.1c-0.7,0-1.2,0.6-1.2,1.2c0,0.7,0.6,1.2,1.2,1.2c0.7,0,1.2-0.6,1.2-1.2C54.7-92.6,54.1-93.1,53.4-93.1z"/>
			</g>
		</g>
		<g class="st1">
			<g class="st2">
				<path class="st3" d="M-52.3-80.4c-1.4,0-2.6-1.2-2.6-2.6s1.2-2.6,2.6-2.6s2.6,1.2,2.6,2.6S-50.8-80.4-52.3-80.4z M-52.3-84.4
					c-0.7,0-1.2,0.6-1.2,1.2s0.6,1.2,1.2,1.2c0.7,0,1.2-0.6,1.2-1.2S-51.6-84.4-52.3-84.4z"/>
				<path d="M-52.3-84.4c-0.7,0-1.2,0.6-1.2,1.2s0.6,1.2,1.2,1.2c0.7,0,1.2-0.6,1.2-1.2S-51.6-84.4-52.3-84.4z"/>
			</g>
			<g class="st2">
				<path class="st3" d="M-43.5-80.4c-1.4,0-2.6-1.2-2.6-2.6s1.2-2.6,2.6-2.6s2.6,1.2,2.6,2.6S-42-80.4-43.5-80.4z M-43.5-84.4
					c-0.7,0-1.2,0.6-1.2,1.2s0.6,1.2,1.2,1.2c0.7,0,1.2-0.6,1.2-1.2S-42.8-84.4-43.5-84.4z"/>
				<path d="M-43.5-84.4c-0.7,0-1.2,0.6-1.2,1.2s0.6,1.2,1.2,1.2c0.7,0,1.2-0.6,1.2-1.2S-42.8-84.4-43.5-84.4z"/>
			</g>
			<g class="st2">
				<path class="st3" d="M-34.8-80.4c-1.4,0-2.6-1.2-2.6-2.6s1.2-2.6,2.6-2.6s2.6,1.2,2.6,2.6S-33.3-80.4-34.8-80.4z M-34.8-84.4
					c-0.7,0-1.2,0.6-1.2,1.2s0.6,1.2,1.2,1.2c0.7,0,1.2-0.6,1.2-1.2S-34-84.4-34.8-84.4z"/>
				<path d="M-34.8-84.4c-0.7,0-1.2,0.6-1.2,1.2s0.6,1.2,1.2,1.2c0.7,0,1.2-0.6,1.2-1.2S-34-84.4-34.8-84.4z"/>
			</g>
			<g class="st2">
				<path class="st3" d="M-25.8-80.4c-1.4,0-2.6-1.2-2.6-2.6s1.2-2.6,2.6-2.6s2.6,1.2,2.6,2.6S-24.4-80.4-25.8-80.4z M-25.8-84.4
					c-0.7,0-1.2,0.6-1.2,1.2s0.6,1.2,1.2,1.2c0.7,0,1.2-0.6,1.2-1.2S-25.2-84.4-25.8-84.4z"/>
				<path d="M-25.8-84.4c-0.7,0-1.2,0.6-1.2,1.2s0.6,1.2,1.2,1.2c0.7,0,1.2-0.6,1.2-1.2S-25.2-84.4-25.8-84.4z"/>
			</g>
			<g class="st2">
				<path class="st3" d="M-17-80.4c-1.4,0-2.6-1.2-2.6-2.6s1.2-2.6,2.6-2.6s2.6,1.2,2.6,2.6S-15.6-80.4-17-80.4z M-17-84.4
					c-0.7,0-1.2,0.6-1.2,1.2S-17.6-82-17-82c0.7,0,1.2-0.6,1.2-1.2S-16.4-84.4-17-84.4z"/>
				<path d="M-17-84.4c-0.7,0-1.2,0.6-1.2,1.2S-17.6-82-17-82c0.7,0,1.2-0.6,1.2-1.2S-16.4-84.4-17-84.4z"/>
			</g>
			<g class="st2">
				<path class="st3" d="M-8.2-80.4c-1.4,0-2.6-1.2-2.6-2.6s1.2-2.6,2.6-2.6s2.6,1.2,2.6,2.6S-6.8-80.4-8.2-80.4z M-8.2-84.4
					c-0.7,0-1.2,0.6-1.2,1.2S-8.8-82-8.2-82S-7-82.6-7-83.2S-7.5-84.4-8.2-84.4z"/>
				<path d="M-8.2-84.4c-0.7,0-1.2,0.6-1.2,1.2S-8.8-82-8.2-82S-7-82.6-7-83.2S-7.5-84.4-8.2-84.4z"/>
			</g>
			<g class="st2">
				<path class="st3" d="M0.6-80.4C-0.8-80.4-2-81.6-2-83s1.2-2.6,2.6-2.6s2.6,1.1,2.6,2.5S2-80.4,0.6-80.4z M0.6-84.4
					c-0.7,0-1.2,0.6-1.2,1.2S0-82,0.6-82s1.2-0.6,1.2-1.2S1.3-84.4,0.6-84.4z"/>
				<path d="M0.6-84.4c-0.7,0-1.2,0.6-1.2,1.2S0-82,0.6-82s1.2-0.6,1.2-1.2S1.3-84.4,0.6-84.4z"/>
			</g>
			<g class="st2">
				<path class="st3" d="M9.4-80.4c-1.4,0-2.6-1.2-2.6-2.6s1.2-2.6,2.6-2.6S12-84.4,12-83S10.8-80.4,9.4-80.4z M9.4-84.4
					c-0.7,0-1.2,0.6-1.2,1.2S8.8-82,9.4-82s1.2-0.6,1.2-1.2S10.1-84.4,9.4-84.4z"/>
				<path d="M9.4-84.4c-0.7,0-1.2,0.6-1.2,1.2S8.8-82,9.4-82s1.2-0.6,1.2-1.2S10.1-84.4,9.4-84.4z"/>
			</g>
			<g class="st2">
				<path class="st3" d="M18.2-80.4c-1.4,0-2.6-1.2-2.6-2.6s1.2-2.6,2.6-2.6s2.6,1.2,2.6,2.6S19.6-80.4,18.2-80.4z M18.2-84.4
					c-0.7,0-1.2,0.6-1.2,1.2s0.6,1.2,1.2,1.2c0.7,0,1.2-0.6,1.2-1.2S18.9-84.4,18.2-84.4z"/>
				<path d="M18.2-84.4c-0.7,0-1.2,0.6-1.2,1.2s0.6,1.2,1.2,1.2c0.7,0,1.2-0.6,1.2-1.2S18.9-84.4,18.2-84.4z"/>
			</g>
			<g class="st2">
				<path class="st3" d="M27-80.4c-1.4,0-2.6-1.2-2.6-2.6s1.2-2.6,2.6-2.6s2.6,1.2,2.6,2.6S28.4-80.4,27-80.4z M27-84.4
					c-0.7,0-1.2,0.6-1.2,1.2S26.4-82,27-82s1.2-0.6,1.2-1.2S27.7-84.4,27-84.4z"/>
				<path d="M27-84.4c-0.7,0-1.2,0.6-1.2,1.2S26.4-82,27-82s1.2-0.6,1.2-1.2S27.7-84.4,27-84.4z"/>
			</g>
			<g class="st2">
				<path class="st3" d="M35.8-80.4c-1.4,0-2.6-1.2-2.6-2.6s1.2-2.6,2.6-2.6s2.6,1.2,2.6,2.6S37.3-80.4,35.8-80.4z M35.8-84.4
					c-0.7,0-1.2,0.6-1.2,1.2s0.6,1.2,1.2,1.2c0.7,0,1.2-0.6,1.2-1.2S36.5-84.4,35.8-84.4z"/>
				<path d="M35.8-84.4c-0.7,0-1.2,0.6-1.2,1.2s0.6,1.2,1.2,1.2c0.7,0,1.2-0.6,1.2-1.2S36.5-84.4,35.8-84.4z"/>
			</g>
			<g class="st2">
				<path class="st3" d="M44.6-80.4c-1.4,0-2.6-1.2-2.6-2.6s1.2-2.6,2.6-2.6s2.6,1.2,2.6,2.6S46.1-80.4,44.6-80.4z M44.6-84.4
					c-0.7,0-1.2,0.6-1.2,1.2S44-82,44.6-82s1.2-0.6,1.2-1.2S45.3-84.4,44.6-84.4z"/>
				<path d="M44.6-84.4c-0.7,0-1.2,0.6-1.2,1.2S44-82,44.6-82s1.2-0.6,1.2-1.2S45.3-84.4,44.6-84.4z"/>
			</g>
			<g class="st2">
				<path class="st3" d="M53.4-80.4c-1.4,0-2.6-1.2-2.6-2.6s1.2-2.6,2.6-2.6S56-84.4,56-83S54.9-80.4,53.4-80.4z M53.4-84.4
					c-0.7,0-1.2,0.6-1.2,1.2s0.6,1.2,1.2,1.2c0.7,0,1.2-0.6,1.2-1.2S54.1-84.4,53.4-84.4z"/>
				<path d="M53.4-84.4c-0.7,0-1.2,0.6-1.2,1.2s0.6,1.2,1.2,1.2c0.7,0,1.2-0.6,1.2-1.2S54.1-84.4,53.4-84.4z"/>
			</g>
		</g>
		<g class="st1">
			<g class="st2">
				<path class="st3" d="M-17-63.5c-1.4,0-2.6-1.2-2.6-2.6s1.2-2.6,2.6-2.6s2.6,1.2,2.6,2.6S-15.6-63.5-17-63.5z M-17-67.4
					c-0.7,0-1.2,0.6-1.2,1.2s0.6,1.1,1.2,1.1c0.7,0,1.2-0.6,1.2-1.2S-16.4-67.4-17-67.4z"/>
				<path d="M-17-67.4c-0.7,0-1.2,0.6-1.2,1.2s0.6,1.1,1.2,1.1c0.7,0,1.2-0.6,1.2-1.2S-16.4-67.4-17-67.4z"/>
			</g>
			<g class="st2">
				<path class="st3" d="M-8.2-63.5c-1.4,0-2.6-1.2-2.6-2.6s1.2-2.6,2.6-2.6s2.6,1.2,2.6,2.6S-6.8-63.5-8.2-63.5z M-8.2-67.4
					c-0.7,0-1.2,0.6-1.2,1.2s0.6,1.1,1.2,1.1S-7-65.7-7-66.3S-7.5-67.4-8.2-67.4z"/>
				<path d="M-8.2-67.4c-0.7,0-1.2,0.6-1.2,1.2s0.6,1.1,1.2,1.1S-7-65.7-7-66.3S-7.5-67.4-8.2-67.4z"/>
			</g>
			<g class="st2">
				<path class="st3" d="M0.6-63.5c-1.4,0-2.6-1.2-2.6-2.6s1.2-2.6,2.6-2.6s2.6,1.1,2.6,2.6S2-63.5,0.6-63.5z M0.6-67.4
					c-0.7,0-1.2,0.6-1.2,1.2s0.6,1.1,1.2,1.1s1.2-0.6,1.2-1.2S1.3-67.4,0.6-67.4z"/>
				<path d="M0.6-67.4c-0.7,0-1.2,0.6-1.2,1.2s0.6,1.1,1.2,1.1s1.2-0.6,1.2-1.2S1.3-67.4,0.6-67.4z"/>
			</g>
			<g class="st2">
				<path class="st3" d="M9.4-63.5c-1.4,0-2.6-1.2-2.6-2.6s1.2-2.6,2.6-2.6s2.6,1.2,2.6,2.6S10.8-63.5,9.4-63.5z M9.4-67.4
					c-0.7,0-1.2,0.6-1.2,1.2s0.6,1.1,1.2,1.1s1.2-0.6,1.2-1.2S10.1-67.4,9.4-67.4z"/>
				<path d="M9.4-67.4c-0.7,0-1.2,0.6-1.2,1.2s0.6,1.1,1.2,1.1s1.2-0.6,1.2-1.2S10.1-67.4,9.4-67.4z"/>
			</g>
			<g class="st2">
				<path class="st3" d="M18.2-63.5c-1.4,0-2.6-1.2-2.6-2.6s1.2-2.6,2.6-2.6s2.6,1.2,2.6,2.6S19.6-63.5,18.2-63.5z M18.2-67.4
					c-0.7,0-1.2,0.6-1.2,1.2s0.6,1.2,1.2,1.2c0.7,0,1.2-0.6,1.2-1.2S18.9-67.4,18.2-67.4z"/>
				<path d="M18.2-67.4c-0.7,0-1.2,0.6-1.2,1.2s0.6,1.2,1.2,1.2c0.7,0,1.2-0.6,1.2-1.2S18.9-67.4,18.2-67.4z"/>
			</g>
		</g>
		<g class="st1">
			<g class="st2">
				<polygon class="st3" points="98.3,28 94.7,31.6 98.3,35.2 101.8,31.6 				"/>
				<path d="M97.3,30.8c-0.5,0.5-0.5,1.3,0,1.8s1.3,0.5,1.8,0s0.5-1.3,0-1.8S97.8,30.3,97.3,30.8z"/>
			</g>
			<g class="st2">
				<path class="st3" d="M105.3,28.6c-1,1-2.7,1-3.7,0s-1-2.7,0-3.7s2.7-1,3.7,0S106.3,27.5,105.3,28.6z M102.6,25.8
					c-0.5,0.5-0.5,1.3,0,1.8s1.3,0.5,1.8,0s0.5-1.3,0-1.8C103.8,25.3,103.1,25.3,102.6,25.8z"/>
				<path d="M102.6,25.8c-0.5,0.5-0.5,1.3,0,1.8s1.3,0.5,1.8,0s0.5-1.3,0-1.8C103.8,25.3,103.1,25.3,102.6,25.8z"/>
			</g>
			<g class="st2">
				<path class="st3" d="M110,24c-1,1-2.7,1-3.7,0s-1-2.7,0-3.7s2.7-1,3.7,0S111,23,110,24z M107.2,21.3c-0.5,0.5-0.5,1.3,0,1.8
					s1.3,0.5,1.8,0s0.5-1.3,0-1.8S107.7,20.8,107.2,21.3z"/>
				<path d="M107.2,21.3c-0.5,0.5-0.5,1.3,0,1.8s1.3,0.5,1.8,0s0.5-1.3,0-1.8S107.7,20.8,107.2,21.3z"/>
			</g>
			<g class="st2">
				<path class="st3" d="M115.3,18.7c-1,1-2.7,1-3.7,0s-1-2.7,0-3.7s2.7-1,3.7,0S116.3,17.7,115.3,18.7z M112.5,16
					c-0.5,0.5-0.5,1.3,0,1.8s1.3,0.5,1.8,0s0.5-1.3,0-1.8S113,15.5,112.5,16z"/>
				<path d="M112.5,16c-0.5,0.5-0.5,1.3,0,1.8s1.3,0.5,1.8,0s0.5-1.3,0-1.8S113,15.5,112.5,16z"/>
			</g>
		</g>
		<g class="st1">
			<g class="st2">
				<polygon class="st3" points="-108.2,17 -111.8,13.4 -115.4,17 -111.8,20.7 				"/>
				<path d="M-110.9,16.2c-0.5-0.5-1.3-0.5-1.8,0s-0.5,1.3,0,1.8s1.3,0.5,1.8,0S-110.4,16.7-110.9,16.2z"/>
			</g>
			<g class="st2">
				<path class="st3" d="M-108.8,24.1c-1-1-1-2.7,0-3.7s2.7-1,3.7,0s1,2.7,0,3.7S-107.8,25.1-108.8,24.1z M-106,21.3
					c-0.5-0.5-1.3-0.5-1.8,0s-0.5,1.3,0,1.8s1.3,0.5,1.8,0C-105.5,22.6-105.5,21.8-106,21.3z"/>
				<path d="M-106,21.3c-0.5-0.5-1.3-0.5-1.8,0s-0.5,1.3,0,1.8s1.3,0.5,1.8,0C-105.5,22.6-105.5,21.8-106,21.3z"/>
			</g>
			<g class="st2">
				<path class="st3" d="M-104.2,28.7c-1-1-1-2.7,0-3.7s2.7-1,3.7,0s1,2.7,0,3.7S-103.2,29.8-104.2,28.7z M-101.4,26
					c-0.5-0.5-1.3-0.5-1.8,0s-0.5,1.3,0,1.8s1.3,0.5,1.8,0S-100.9,26.5-101.4,26z"/>
				<path d="M-101.4,26c-0.5-0.5-1.3-0.5-1.8,0s-0.5,1.3,0,1.8s1.3,0.5,1.8,0S-100.9,26.5-101.4,26z"/>
			</g>
			<g class="st2">
				<path class="st3" d="M-98.9,34c-1-1-1-2.7,0-3.7s2.7-1,3.7,0s1,2.7,0,3.7S-97.8,35-98.9,34z M-96.2,31.3c-0.5-0.5-1.3-0.5-1.8,0
					s-0.5,1.3,0,1.8s1.3,0.5,1.8,0S-95.7,31.8-96.2,31.3z"/>
				<path d="M-96.2,31.3c-0.5-0.5-1.3-0.5-1.8,0s-0.5,1.3,0,1.8s1.3,0.5,1.8,0S-95.7,31.8-96.2,31.3z"/>
			</g>
		</g>
		<g>
			<path class="st3" d="M-132.4,17c-9.4,0-17.1-7.6-17.1-17.1s7.6-17.1,17.1-17.1s17.1,7.6,17.1,17.1S-122.9,17-132.4,17z
				 M-132.4-8.2c-4.5,0-8.1,3.6-8.1,8.1s3.6,8.1,8.1,8.1s8.1-3.6,8.1-8.1S-127.8-8.2-132.4-8.2z"/>
			<path class="st3" d="M66.7,131.8c-9.4,0-17.1-7.6-17.1-17.1s7.6-17.1,17.1-17.1s17.1,7.6,17.1,17.1S76.1,131.8,66.7,131.8z
				 M66.7,106.5c-4.5,0-8.1,3.6-8.1,8.1s3.6,8.1,8.1,8.1s8.1-3.6,8.1-8.1S71.2,106.5,66.7,106.5z"/>
			<path class="st3" d="M132.4,17c-9.4,0-17.1-7.6-17.1-17.1s7.6-17.1,17.1-17.1s17.1,7.6,17.1,17.1S141.8,17,132.4,17z M132.4-8.2
				c-4.5,0-8.1,3.6-8.1,8.1s3.6,8.1,8.1,8.1s8.1-3.6,8.1-8.1S136.8-8.2,132.4-8.2z"/>
			<path class="st3" d="M66.7-96.6c-9.4,0-17.1-7.6-17.1-17.1s7.6-17.1,17.1-17.1s17.1,7.6,17.1,17.1S76.1-96.6,66.7-96.6z
				 M66.7-121.7c-4.5,0-8.1,3.6-8.1,8.1s3.6,8.1,8.1,8.1s8.1-3.6,8.1-8.1S71.2-121.7,66.7-121.7z"/>
			<path class="st3" d="M-65.3-97.6c-9.4,0-17.1-7.6-17.1-17.1s7.6-17.1,17.1-17.1s17.1,7.6,17.1,17.1S-55.9-97.6-65.3-97.6z
				 M-65.3-122.7c-4.5,0-8.1,3.6-8.1,8.1s3.6,8.1,8.1,8.1s8.1-3.6,8.1-8.1S-60.8-122.7-65.3-122.7z"/>
			<path class="st3" d="M-65.3,131.8c-9.4,0-17.1-7.6-17.1-17.1s7.6-17.1,17.1-17.1s17.1,7.6,17.1,17.1S-55.9,131.8-65.3,131.8z
				 M-65.3,106.5c-4.5,0-8.1,3.6-8.1,8.1s3.6,8.1,8.1,8.1s8.1-3.6,8.1-8.1S-60.8,106.5-65.3,106.5z"/>
		</g>
	</g>
	<path class="st4" d="M132.4-8.2c-4.5,0-8.1,3.6-8.1,8.1s3.6,8.1,8.1,8.1s8.1-3.6,8.1-8.1S136.8-8.2,132.4-8.2z"/>
	<path class="st4" d="M66.7,106.5c-4.5,0-8.1,3.6-8.1,8.1s3.6,8.1,8.1,8.1s8.1-3.6,8.1-8.1S71.2,106.5,66.7,106.5z"/>
	<path class="st4" d="M-65.3,106.5c-4.5,0-8.1,3.6-8.1,8.1s3.6,8.1,8.1,8.1s8.1-3.6,8.1-8.1S-60.8,106.5-65.3,106.5z"/>
	<path class="st4" d="M-132.4-8.1c-4.5,0-8.1,3.6-8.1,8.1s3.6,8.1,8.1,8.1s8.1-3.6,8.1-8.1S-127.8-8.1-132.4-8.1z"/>
	<path class="st4" d="M-65.3-122.7c-4.5,0-8.1,3.6-8.1,8.1s3.6,8.1,8.1,8.1s8.1-3.6,8.1-8.1S-60.8-122.7-65.3-122.7z"/>
	<path class="st4" d="M66.7-121.7c-4.5,0-8.1,3.6-8.1,8.1s3.6,8.1,8.1,8.1s8.1-3.6,8.1-8.1S71.2-121.7,66.7-121.7z"/>
</symbol>
<g id="Ebene_5">
	<g id="XMLID_11_">
		<g>
			
				<use xlink:href="#calliope_mini_backside"  width="299" height="263.6" id="XMLID_2_" x="-149.5" y="-131.8" transform="matrix(1.3596 0 0 -1.3596 511.1726 308.1189)" style="overflow:visible;"/>
			<g id="holes_3_">
				<g>
					<g>
						<path class="st3" d="M440.8,429.4c-2,0-3.5,1.7-3.5,3.5s1.7,3.5,3.5,3.5s3.5-1.7,3.5-3.5S442.7,429.4,440.8,429.4z
							 M440.8,434.7c-1,0-1.7-0.8-1.7-1.7c0-1,0.8-1.7,1.7-1.7c1,0,1.7,0.8,1.7,1.7C442.5,433.9,441.7,434.7,440.8,434.7z"/>
						<path d="M440.8,434.7c-1,0-1.7-0.8-1.7-1.7c0-1,0.8-1.7,1.7-1.7c1,0,1.7,0.8,1.7,1.7C442.5,433.9,441.7,434.7,440.8,434.7z"/>
					</g>
					<g>
						<path class="st3" d="M452.8,429.4c-2,0-3.5,1.7-3.5,3.5s1.7,3.5,3.5,3.5c2,0,3.5-1.7,3.5-3.5S454.7,429.4,452.8,429.4z
							 M452.8,434.7c-1,0-1.7-0.8-1.7-1.7c0-1,0.8-1.7,1.7-1.7c1,0,1.7,0.8,1.7,1.7C454.5,433.9,453.7,434.7,452.8,434.7z"/>
						<path d="M452.8,434.7c-1,0-1.7-0.8-1.7-1.7c0-1,0.8-1.7,1.7-1.7c1,0,1.7,0.8,1.7,1.7C454.5,433.9,453.7,434.7,452.8,434.7z"/>
					</g>
					<g>
						<path class="st3" d="M464.8,429.4c-2,0-3.5,1.7-3.5,3.5s1.7,3.5,3.5,3.5c2,0,3.5-1.7,3.5-3.5S466.7,429.4,464.8,429.4z
							 M464.8,434.7c-1,0-1.7-0.8-1.7-1.7c0-1,0.8-1.7,1.7-1.7c0.8,0,1.7,0.8,1.7,1.7C466.5,433.9,465.7,434.7,464.8,434.7z"/>
						<path d="M464.8,434.7c-1,0-1.7-0.8-1.7-1.7c0-1,0.8-1.7,1.7-1.7c0.8,0,1.7,0.8,1.7,1.7C466.5,433.9,465.7,434.7,464.8,434.7z"
							/>
					</g>
					<g>
						<path class="st3" d="M476.7,429.4c-2,0-3.5,1.7-3.5,3.5s1.7,3.5,3.5,3.5c2,0,3.5-1.7,3.5-3.5S478.7,429.4,476.7,429.4z
							 M476.7,434.7c-1,0-1.7-0.8-1.7-1.7c0-1,0.8-1.7,1.7-1.7s1.7,0.8,1.7,1.7C478.5,433.9,477.7,434.7,476.7,434.7z"/>
						<path d="M476.7,434.7c-1,0-1.7-0.8-1.7-1.7c0-1,0.8-1.7,1.7-1.7s1.7,0.8,1.7,1.7C478.5,433.9,477.7,434.7,476.7,434.7z"/>
					</g>
					<g>
						<path class="st3" d="M488.7,429.4c-2,0-3.5,1.7-3.5,3.5s1.7,3.5,3.5,3.5s3.5-1.7,3.5-3.5S490.7,429.4,488.7,429.4z
							 M488.7,434.7c-1,0-1.7-0.8-1.7-1.7c0-1,0.8-1.7,1.7-1.7s1.7,0.8,1.7,1.7C490.5,433.9,489.7,434.7,488.7,434.7z"/>
						<path d="M488.7,434.7c-1,0-1.7-0.8-1.7-1.7c0-1,0.8-1.7,1.7-1.7s1.7,0.8,1.7,1.7C490.5,433.9,489.7,434.7,488.7,434.7z"/>
					</g>
					<g>
						<path class="st3" d="M500.7,429.4c-2,0-3.5,1.7-3.5,3.5s1.7,3.5,3.5,3.5s3.5-1.7,3.5-3.5S502.7,429.4,500.7,429.4z
							 M500.7,434.7c-1,0-1.7-0.8-1.7-1.7c0-1,0.8-1.7,1.7-1.7s1.7,0.8,1.7,1.7C502.5,433.9,501.7,434.7,500.7,434.7z"/>
						<path d="M500.7,434.7c-1,0-1.7-0.8-1.7-1.7c0-1,0.8-1.7,1.7-1.7s1.7,0.8,1.7,1.7C502.5,433.9,501.7,434.7,500.7,434.7z"/>
					</g>
					<g>
						<path class="st3" d="M512.7,429.4c-2,0-3.5,1.7-3.5,3.5s1.7,3.5,3.5,3.5s3.5-1.7,3.5-3.5S514.7,429.4,512.7,429.4z
							 M512.7,434.7c-1,0-1.7-0.8-1.7-1.7c0-1,0.8-1.7,1.7-1.7s1.7,0.8,1.7,1.7C514.5,433.9,513.7,434.7,512.7,434.7z"/>
						<path d="M512.7,434.7c-1,0-1.7-0.8-1.7-1.7c0-1,0.8-1.7,1.7-1.7s1.7,0.8,1.7,1.7C514.5,433.9,513.7,434.7,512.7,434.7z"/>
					</g>
					<g>
						<path class="st3" d="M524.7,429.4c-2,0-3.5,1.7-3.5,3.5s1.7,3.5,3.5,3.5s3.5-1.7,3.5-3.5S526.7,429.4,524.7,429.4z
							 M524.7,434.7c-1,0-1.7-0.8-1.7-1.7c0-1,0.8-1.7,1.7-1.7s1.7,0.8,1.7,1.7C526.3,433.9,525.7,434.7,524.7,434.7z"/>
						<path d="M524.7,434.7c-1,0-1.7-0.8-1.7-1.7c0-1,0.8-1.7,1.7-1.7s1.7,0.8,1.7,1.7C526.3,433.9,525.7,434.7,524.7,434.7z"/>
					</g>
					<g>
						<path class="st3" d="M536.7,429.4c-2,0-3.5,1.7-3.5,3.5s1.7,3.5,3.5,3.5s3.5-1.7,3.5-3.5S538.7,429.4,536.7,429.4z
							 M536.7,434.7c-1,0-1.7-0.8-1.7-1.7c0-1,0.8-1.7,1.7-1.7c1,0,1.7,0.8,1.7,1.7C538.3,433.9,537.7,434.7,536.7,434.7z"/>
						<path d="M536.7,434.7c-1,0-1.7-0.8-1.7-1.7c0-1,0.8-1.7,1.7-1.7c1,0,1.7,0.8,1.7,1.7C538.3,433.9,537.7,434.7,536.7,434.7z"/>
					</g>
					<g>
						<path class="st3" d="M548.7,429.4c-2,0-3.5,1.7-3.5,3.5s1.7,3.5,3.5,3.5c2,0,3.5-1.7,3.5-3.5S550.7,429.4,548.7,429.4z
							 M548.7,434.7c-1,0-1.7-0.8-1.7-1.7c0-1,0.8-1.7,1.7-1.7c0.8,0,1.7,0.8,1.7,1.7C550.3,433.9,549.7,434.7,548.7,434.7z"/>
						<path d="M548.7,434.7c-1,0-1.7-0.8-1.7-1.7c0-1,0.8-1.7,1.7-1.7c0.8,0,1.7,0.8,1.7,1.7C550.3,433.9,549.7,434.7,548.7,434.7z"
							/>
					</g>
					<g>
						<path class="st3" d="M560.7,429.4c-2,0-3.5,1.7-3.5,3.5s1.7,3.5,3.5,3.5c2,0,3.5-1.7,3.5-3.5S562.7,429.4,560.7,429.4z
							 M560.7,434.7c-1,0-1.7-0.8-1.7-1.7c0-1,0.8-1.7,1.7-1.7c0.8,0,1.7,0.8,1.7,1.7C562.3,433.9,561.7,434.7,560.7,434.7z"/>
						<path d="M560.7,434.7c-1,0-1.7-0.8-1.7-1.7c0-1,0.8-1.7,1.7-1.7c0.8,0,1.7,0.8,1.7,1.7C562.3,433.9,561.7,434.7,560.7,434.7z"
							/>
					</g>
					<g>
						<path class="st3" d="M572.7,429.4c-2,0-3.5,1.7-3.5,3.5s1.7,3.5,3.5,3.5c2,0,3.5-1.7,3.5-3.5S574.7,429.4,572.7,429.4z
							 M572.7,434.7c-1,0-1.7-0.8-1.7-1.7c0-1,0.8-1.7,1.7-1.7c1,0,1.7,0.8,1.7,1.7C574.3,433.9,573.7,434.7,572.7,434.7z"/>
						<path d="M572.7,434.7c-1,0-1.7-0.8-1.7-1.7c0-1,0.8-1.7,1.7-1.7c1,0,1.7,0.8,1.7,1.7C574.3,433.9,573.7,434.7,572.7,434.7z"/>
					</g>
					<g>
						<path class="st3" d="M584.7,429.4c-2,0-3.5,1.7-3.5,3.5s1.7,3.5,3.5,3.5c2,0,3.5-1.7,3.5-3.5S586.7,429.4,584.7,429.4z
							 M584.7,434.7c-1,0-1.7-0.8-1.7-1.7c0-1,0.8-1.7,1.7-1.7c1,0,1.7,0.8,1.7,1.7C586.3,433.9,585.7,434.7,584.7,434.7z"/>
						<path d="M584.7,434.7c-1,0-1.7-0.8-1.7-1.7c0-1,0.8-1.7,1.7-1.7c1,0,1.7,0.8,1.7,1.7C586.3,433.9,585.7,434.7,584.7,434.7z"/>
					</g>
				</g>
				<g>
					<g>
						<path class="st3" d="M440.8,417.3c-2,0-3.5,1.7-3.5,3.5c0,2,1.7,3.5,3.5,3.5s3.5-1.7,3.5-3.5
							C444.3,418.8,442.7,417.3,440.8,417.3z M440.8,422.5c-1,0-1.7-0.8-1.7-1.7c0-1,0.8-1.7,1.7-1.7c1,0,1.7,0.8,1.7,1.7
							C442.5,421.8,441.7,422.5,440.8,422.5z"/>
						<path d="M440.8,422.5c-1,0-1.7-0.8-1.7-1.7c0-1,0.8-1.7,1.7-1.7c1,0,1.7,0.8,1.7,1.7C442.5,421.8,441.7,422.5,440.8,422.5z"/>
					</g>
					<g>
						<path class="st3" d="M452.8,417.3c-2,0-3.5,1.7-3.5,3.5c0,2,1.7,3.5,3.5,3.5c2,0,3.5-1.7,3.5-3.5
							C456.3,418.8,454.7,417.3,452.8,417.3z M452.8,422.5c-1,0-1.7-0.8-1.7-1.7c0-1,0.8-1.7,1.7-1.7c1,0,1.7,0.8,1.7,1.7
							C454.5,421.8,453.7,422.5,452.8,422.5z"/>
						<path d="M452.8,422.5c-1,0-1.7-0.8-1.7-1.7c0-1,0.8-1.7,1.7-1.7c1,0,1.7,0.8,1.7,1.7C454.5,421.8,453.7,422.5,452.8,422.5z"/>
					</g>
					<g>
						<path class="st3" d="M464.8,417.3c-2,0-3.5,1.7-3.5,3.5c0,2,1.7,3.5,3.5,3.5c2,0,3.5-1.7,3.5-3.5
							C468.3,418.8,466.7,417.3,464.8,417.3z M464.8,422.5c-1,0-1.7-0.8-1.7-1.7c0-1,0.8-1.7,1.7-1.7c0.8,0,1.7,0.8,1.7,1.7
							C466.5,421.8,465.7,422.5,464.8,422.5z"/>
						<path d="M464.8,422.5c-1,0-1.7-0.8-1.7-1.7c0-1,0.8-1.7,1.7-1.7c0.8,0,1.7,0.8,1.7,1.7C466.5,421.8,465.7,422.5,464.8,422.5z"
							/>
					</g>
					<g>
						<path class="st3" d="M476.7,417.3c-2,0-3.5,1.7-3.5,3.5c0,2,1.7,3.5,3.5,3.5c2,0,3.5-1.7,3.5-3.5
							C480.3,418.8,478.7,417.3,476.7,417.3z M476.7,422.5c-1,0-1.7-0.8-1.7-1.7c0-1,0.8-1.7,1.7-1.7s1.7,0.8,1.7,1.7
							C478.5,421.8,477.7,422.5,476.7,422.5z"/>
						<path d="M476.7,422.5c-1,0-1.7-0.8-1.7-1.7c0-1,0.8-1.7,1.7-1.7s1.7,0.8,1.7,1.7C478.5,421.8,477.7,422.5,476.7,422.5z"/>
					</g>
					<g>
						<path class="st3" d="M488.7,417.3c-2,0-3.5,1.7-3.5,3.5c0,2,1.7,3.5,3.5,3.5s3.5-1.7,3.5-3.5
							C492.3,418.8,490.7,417.3,488.7,417.3z M488.7,422.5c-1,0-1.7-0.8-1.7-1.7c0-1,0.8-1.7,1.7-1.7s1.7,0.8,1.7,1.7
							C490.5,421.8,489.7,422.5,488.7,422.5z"/>
						<path d="M488.7,422.5c-1,0-1.7-0.8-1.7-1.7c0-1,0.8-1.7,1.7-1.7s1.7,0.8,1.7,1.7C490.5,421.8,489.7,422.5,488.7,422.5z"/>
					</g>
					<g>
						<path class="st3" d="M500.7,417.3c-2,0-3.5,1.7-3.5,3.5c0,2,1.7,3.5,3.5,3.5s3.5-1.7,3.5-3.5
							C504.3,418.8,502.7,417.3,500.7,417.3z M500.7,422.5c-1,0-1.7-0.8-1.7-1.7c0-1,0.8-1.7,1.7-1.7s1.7,0.8,1.7,1.7
							C502.5,421.8,501.7,422.5,500.7,422.5z"/>
						<path d="M500.7,422.5c-1,0-1.7-0.8-1.7-1.7c0-1,0.8-1.7,1.7-1.7s1.7,0.8,1.7,1.7C502.5,421.8,501.7,422.5,500.7,422.5z"/>
					</g>
					<g>
						<path class="st3" d="M512.7,417.3c-2,0-3.5,1.7-3.5,3.5c0,2,1.7,3.5,3.5,3.5s3.5-1.7,3.5-3.5
							C516.3,418.8,514.7,417.3,512.7,417.3z M512.7,422.5c-1,0-1.7-0.8-1.7-1.7c0-1,0.8-1.7,1.7-1.7s1.7,0.8,1.7,1.7
							C514.5,421.8,513.7,422.5,512.7,422.5z"/>
						<path d="M512.7,422.5c-1,0-1.7-0.8-1.7-1.7c0-1,0.8-1.7,1.7-1.7s1.7,0.8,1.7,1.7C514.5,421.8,513.7,422.5,512.7,422.5z"/>
					</g>
					<g>
						<path class="st3" d="M524.7,417.3c-2,0-3.5,1.7-3.5,3.5c0,2,1.7,3.5,3.5,3.5s3.5-1.7,3.5-3.5
							C528.3,418.8,526.7,417.3,524.7,417.3z M524.7,422.5c-1,0-1.7-0.8-1.7-1.7c0-1,0.8-1.7,1.7-1.7s1.7,0.8,1.7,1.7
							C526.3,421.8,525.7,422.5,524.7,422.5z"/>
						<path d="M524.7,422.5c-1,0-1.7-0.8-1.7-1.7c0-1,0.8-1.7,1.7-1.7s1.7,0.8,1.7,1.7C526.3,421.8,525.7,422.5,524.7,422.5z"/>
					</g>
					<g>
						<path class="st3" d="M536.7,417.3c-2,0-3.5,1.7-3.5,3.5c0,2,1.7,3.5,3.5,3.5s3.5-1.7,3.5-3.5
							C540.3,418.8,538.7,417.3,536.7,417.3z M536.7,422.5c-1,0-1.7-0.8-1.7-1.7c0-1,0.8-1.7,1.7-1.7c1,0,1.7,0.8,1.7,1.7
							C538.3,421.8,537.7,422.5,536.7,422.5z"/>
						<path d="M536.7,422.5c-1,0-1.7-0.8-1.7-1.7c0-1,0.8-1.7,1.7-1.7c1,0,1.7,0.8,1.7,1.7C538.3,421.8,537.7,422.5,536.7,422.5z"/>
					</g>
					<g>
						<path class="st3" d="M548.7,417.3c-2,0-3.5,1.7-3.5,3.5c0,2,1.7,3.5,3.5,3.5c2,0,3.5-1.7,3.5-3.5
							C552.3,418.8,550.7,417.3,548.7,417.3z M548.7,422.5c-1,0-1.7-0.8-1.7-1.7c0-1,0.8-1.7,1.7-1.7c0.8,0,1.7,0.8,1.7,1.7
							C550.3,421.8,549.7,422.5,548.7,422.5z"/>
						<path d="M548.7,422.5c-1,0-1.7-0.8-1.7-1.7c0-1,0.8-1.7,1.7-1.7c0.8,0,1.7,0.8,1.7,1.7C550.3,421.8,549.7,422.5,548.7,422.5z"
							/>
					</g>
					<g>
						<path class="st3" d="M560.7,417.3c-2,0-3.5,1.7-3.5,3.5c0,2,1.7,3.5,3.5,3.5c2,0,3.5-1.7,3.5-3.5
							C564.3,418.8,562.7,417.3,560.7,417.3z M560.7,422.5c-1,0-1.7-0.8-1.7-1.7c0-1,0.8-1.7,1.7-1.7c0.8,0,1.7,0.8,1.7,1.7
							C562.3,421.8,561.7,422.5,560.7,422.5z"/>
						<path d="M560.7,422.5c-1,0-1.7-0.8-1.7-1.7c0-1,0.8-1.7,1.7-1.7c0.8,0,1.7,0.8,1.7,1.7C562.3,421.8,561.7,422.5,560.7,422.5z"
							/>
					</g>
					<g>
						<path class="st3" d="M572.7,417.3c-2,0-3.5,1.7-3.5,3.5c0,2,1.7,3.5,3.5,3.5c2,0,3.5-1.7,3.5-3.5
							C576.3,418.8,574.7,417.3,572.7,417.3z M572.7,422.5c-1,0-1.7-0.8-1.7-1.7c0-1,0.8-1.7,1.7-1.7c1,0,1.7,0.8,1.7,1.7
							C574.3,421.8,573.7,422.5,572.7,422.5z"/>
						<path d="M572.7,422.5c-1,0-1.7-0.8-1.7-1.7c0-1,0.8-1.7,1.7-1.7c1,0,1.7,0.8,1.7,1.7C574.3,421.8,573.7,422.5,572.7,422.5z"/>
					</g>
					<g>
						<path class="st3" d="M584.7,417.3c-2,0-3.5,1.7-3.5,3.5c0,2,1.7,3.5,3.5,3.5c2,0,3.5-1.7,3.5-3.5
							C588.2,418.8,586.7,417.3,584.7,417.3z M584.7,422.5c-1,0-1.7-0.8-1.7-1.7c0-1,0.8-1.7,1.7-1.7c1,0,1.7,0.8,1.7,1.7
							C586.3,421.8,585.7,422.5,584.7,422.5z"/>
						<path d="M584.7,422.5c-1,0-1.7-0.8-1.7-1.7c0-1,0.8-1.7,1.7-1.7c1,0,1.7,0.8,1.7,1.7C586.3,421.8,585.7,422.5,584.7,422.5z"/>
					</g>
				</g>
				<g>
					<g>
						<path class="st3" d="M488.7,394.3c-2,0-3.5,1.7-3.5,3.5c0,2,1.7,3.5,3.5,3.5s3.5-1.7,3.5-3.5
							C492.3,395.8,490.7,394.3,488.7,394.3z M488.7,399.5c-1,0-1.7-0.8-1.7-1.7c0-1,0.8-1.7,1.7-1.7s1.7,0.8,1.7,1.7
							C490.5,398.8,489.7,399.5,488.7,399.5z"/>
						<path d="M488.7,399.5c-1,0-1.7-0.8-1.7-1.7c0-1,0.8-1.7,1.7-1.7s1.7,0.8,1.7,1.7C490.5,398.8,489.7,399.5,488.7,399.5z"/>
					</g>
					<g>
						<path class="st3" d="M500.7,394.3c-2,0-3.5,1.7-3.5,3.5c0,2,1.7,3.5,3.5,3.5s3.5-1.7,3.5-3.5
							C504.3,395.8,502.7,394.3,500.7,394.3z M500.7,399.5c-1,0-1.7-0.8-1.7-1.7c0-1,0.8-1.7,1.7-1.7s1.7,0.8,1.7,1.7
							C502.5,398.8,501.7,399.5,500.7,399.5z"/>
						<path d="M500.7,399.5c-1,0-1.7-0.8-1.7-1.7c0-1,0.8-1.7,1.7-1.7s1.7,0.8,1.7,1.7C502.5,398.8,501.7,399.5,500.7,399.5z"/>
					</g>
					<g>
						<path class="st3" d="M512.7,394.3c-2,0-3.5,1.7-3.5,3.5c0,2,1.7,3.5,3.5,3.5s3.5-1.7,3.5-3.5
							C516.3,395.8,514.7,394.3,512.7,394.3z M512.7,399.5c-1,0-1.7-0.8-1.7-1.7c0-1,0.8-1.7,1.7-1.7s1.7,0.8,1.7,1.7
							C514.5,398.8,513.7,399.5,512.7,399.5z"/>
						<path d="M512.7,399.5c-1,0-1.7-0.8-1.7-1.7c0-1,0.8-1.7,1.7-1.7s1.7,0.8,1.7,1.7C514.5,398.8,513.7,399.5,512.7,399.5z"/>
					</g>
					<g>
						<path class="st3" d="M524.7,394.3c-2,0-3.5,1.7-3.5,3.5c0,2,1.7,3.5,3.5,3.5s3.5-1.7,3.5-3.5
							C528.3,395.8,526.7,394.3,524.7,394.3z M524.7,399.5c-1,0-1.7-0.8-1.7-1.7c0-1,0.8-1.7,1.7-1.7s1.7,0.8,1.7,1.7
							C526.3,398.8,525.7,399.5,524.7,399.5z"/>
						<path d="M524.7,399.5c-1,0-1.7-0.8-1.7-1.7c0-1,0.8-1.7,1.7-1.7s1.7,0.8,1.7,1.7C526.3,398.8,525.7,399.5,524.7,399.5z"/>
					</g>
					<g>
						<path class="st3" d="M536.7,394.3c-2,0-3.5,1.7-3.5,3.5c0,2,1.7,3.5,3.5,3.5s3.5-1.7,3.5-3.5
							C540.3,395.8,538.7,394.3,536.7,394.3z M536.7,399.5c-1,0-1.7-0.8-1.7-1.7c0-1,0.8-1.7,1.7-1.7c1,0,1.7,0.8,1.7,1.7
							C538.3,398.8,537.7,399.5,536.7,399.5z"/>
						<path d="M536.7,399.5c-1,0-1.7-0.8-1.7-1.7c0-1,0.8-1.7,1.7-1.7c1,0,1.7,0.8,1.7,1.7C538.3,398.8,537.7,399.5,536.7,399.5z"/>
					</g>
				</g>
				<g>
					<g>
						<polygon class="st3" points="645.8,269.7 640.8,264.8 645.8,259.8 650.7,264.8 						"/>
						<path d="M644.7,266c-0.7-0.7-0.7-1.7,0-2.3c0.7-0.7,1.7-0.7,2.3,0c0.7,0.7,0.7,1.7,0,2.3C646.3,266.7,645.3,266.7,644.7,266z"
							/>
					</g>
					<g>
						<path class="st3" d="M655.3,268.8c-1.3-1.3-3.7-1.3-5,0s-1.3,3.7,0,5s3.7,1.3,5,0C656.7,272.5,656.7,270.3,655.3,268.8z
							 M651.7,272.7c-0.7-0.7-0.7-1.7,0-2.3c0.7-0.7,1.7-0.7,2.3,0c0.7,0.7,0.7,1.7,0,2.3S652.3,273.3,651.7,272.7z"/>
						<path d="M651.7,272.7c-0.7-0.7-0.7-1.7,0-2.3c0.7-0.7,1.7-0.7,2.3,0c0.7,0.7,0.7,1.7,0,2.3S652.3,273.3,651.7,272.7z"/>
					</g>
					<g>
						<path class="st3" d="M661.7,275.2c-1.3-1.3-3.7-1.3-5,0s-1.3,3.7,0,5s3.7,1.3,5,0S663,276.5,661.7,275.2z M658,278.8
							c-0.7-0.7-0.7-1.7,0-2.3c0.7-0.7,1.7-0.7,2.3,0c0.7,0.7,0.7,1.7,0,2.3C659.7,279.5,658.7,279.5,658,278.8z"/>
						<path d="M658,278.8c-0.7-0.7-0.7-1.7,0-2.3c0.7-0.7,1.7-0.7,2.3,0c0.7,0.7,0.7,1.7,0,2.3C659.7,279.5,658.7,279.5,658,278.8z"
							/>
					</g>
					<g>
						<path class="st3" d="M668.8,282.3c-1.3-1.3-3.7-1.3-5,0s-1.3,3.7,0,5s3.7,1.3,5,0C670.3,286,670.3,283.7,668.8,282.3z
							 M665.2,286c-0.7-0.7-0.7-1.7,0-2.3c0.7-0.7,1.7-0.7,2.3,0c0.7,0.7,0.7,1.7,0,2.3C666.8,286.7,665.8,286.7,665.2,286z"/>
						<path d="M665.2,286c-0.7-0.7-0.7-1.7,0-2.3c0.7-0.7,1.7-0.7,2.3,0c0.7,0.7,0.7,1.7,0,2.3C666.8,286.7,665.8,286.7,665.2,286z"
							/>
					</g>
				</g>
				<g>
					<g>
						<polygon class="st3" points="364.8,284.7 359.8,289.5 354.8,284.7 359.8,279.7 						"/>
						<path d="M361,285.7c-0.7,0.7-1.7,0.7-2.3,0c-0.7-0.7-0.7-1.7,0-2.3c0.7-0.7,1.7-0.7,2.3,0C361.6,284,361.6,285.2,361,285.7z"
							/>
					</g>
					<g>
						<path class="st3" d="M364,275c-1.3,1.3-1.3,3.7,0,5s3.7,1.3,5,0s1.3-3.7,0-5C367.6,273.7,365.3,273.7,364,275z M367.6,278.7
							c-0.7,0.7-1.7,0.7-2.3,0c-0.7-0.7-0.7-1.7,0-2.3c0.7-0.7,1.7-0.7,2.3,0C368.3,277,368.3,278.2,367.6,278.7z"/>
						<path d="M367.6,278.7c-0.7,0.7-1.7,0.7-2.3,0c-0.7-0.7-0.7-1.7,0-2.3c0.7-0.7,1.7-0.7,2.3,0
							C368.3,277,368.3,278.2,367.6,278.7z"/>
					</g>
					<g>
						<path class="st3" d="M370.1,268.7c-1.3,1.3-1.3,3.7,0,5s3.7,1.3,5,0s1.3-3.7,0-5S371.5,267.3,370.1,268.7z M373.8,272.3
							c-0.7,0.7-1.7,0.7-2.3,0c-0.7-0.7-0.7-1.7,0-2.3c0.7-0.7,1.7-0.7,2.3,0C374.5,270.7,374.5,271.7,373.8,272.3z"/>
						<path d="M373.8,272.3c-0.7,0.7-1.7,0.7-2.3,0c-0.7-0.7-0.7-1.7,0-2.3c0.7-0.7,1.7-0.7,2.3,0
							C374.5,270.7,374.5,271.7,373.8,272.3z"/>
					</g>
					<g>
						<path class="st3" d="M377.3,261.5c-1.3,1.3-1.3,3.7,0,5s3.7,1.3,5,0s1.3-3.7,0-5S378.6,260.2,377.3,261.5z M381,265.2
							c-0.7,0.7-1.7,0.7-2.3,0c-0.7-0.7-0.7-1.7,0-2.3c0.7-0.7,1.7-0.7,2.3,0C381.6,263.5,381.6,264.5,381,265.2z"/>
						<path d="M381,265.2c-0.7,0.7-1.7,0.7-2.3,0c-0.7-0.7-0.7-1.7,0-2.3c0.7-0.7,1.7-0.7,2.3,0C381.6,263.5,381.6,264.5,381,265.2z
							"/>
					</g>
				</g>
				<g>
					<path class="st3" d="M331.8,284.7c-12.8,0-23.2,10.3-23.2,23.2c0,12.8,10.3,23.2,23.2,23.2c12.8,0,23.2-10.3,23.2-23.2
						S344.6,284.7,331.8,284.7z M331.8,319c-6.2,0-11-5-11-11s5-11,11-11c6.2,0,11,5,11,11S338,319,331.8,319z"/>
					<path class="st3" d="M602.8,128.5c-12.8,0-23.2,10.3-23.2,23.2c0,12.8,10.3,23.2,23.2,23.2c12.8,0,23.2-10.3,23.2-23.2
						S615.5,128.5,602.8,128.5z M602.8,162.8c-6.2,0-11-5-11-11s5-11,11-11s11,5,11,11S608.8,162.8,602.8,162.8z"/>
					<path class="st3" d="M692.2,284.7c-12.8,0-23.2,10.3-23.2,23.2c0,12.8,10.3,23.2,23.2,23.2c12.8,0,23.2-10.3,23.2-23.2
						C715.3,295,705,284.7,692.2,284.7z M692.2,319c-6.2,0-11-5-11-11s5-11,11-11s11,5,11,11S698.2,319,692.2,319z"/>
					<path class="st3" d="M602.8,439.4c-12.8,0-23.2,10.3-23.2,23.2c0,12.8,10.3,23.2,23.2,23.2c12.8,0,23.2-10.3,23.2-23.2
						C626,449.7,615.5,439.4,602.8,439.4z M602.8,473.5c-6.2,0-11-5-11-11s5-11,11-11c6.2,0,11,5,11,11S608.8,473.5,602.8,473.5z"/>
					<path class="st3" d="M423,440.7c-12.8,0-23.2,10.3-23.2,23.2S410.1,487,423,487c12.8,0,23.2-10.3,23.2-23.2
						S435.8,440.7,423,440.7z M423,474.9c-6.2,0-11-5-11-11c0-6.2,5-11,11-11s11,5,11,11C434,470,429.2,474.9,423,474.9z"/>
					<path class="st3" d="M423,128.5c-12.8,0-23.2,10.3-23.2,23.2c0,12.8,10.3,23.2,23.2,23.2c12.8,0,23.2-10.3,23.2-23.2
						S435.8,128.5,423,128.5z M423,162.8c-6.2,0-11-5-11-11s5-11,11-11c6.2,0,11,5,11,11S429.2,162.8,423,162.8z"/>
				</g>
			</g>
		</g>
		<g>
			<g>
				<polygon class="st4" points="476.7,238 473.2,238 473.2,229 476.7,229 				"/>
				<polygon class="st4" points="495,238 491.3,238 491.3,229 495,229 				"/>
				<polygon class="st4" points="513.2,238 509.7,238 509.7,229 513.2,229 				"/>
				<polygon class="st4" points="531.5,238 527.8,238 527.8,229 531.5,229 				"/>
				<polygon class="st4" points="549.7,238 546.2,238 546.2,229 549.7,229 				"/>
			</g>
			<g>
				<polygon class="st4" points="476.7,255.8 473.2,255.8 473.2,246.8 476.7,246.8 				"/>
				<polygon class="st4" points="495,255.8 491.3,255.8 491.3,246.8 495,246.8 				"/>
				<polygon class="st4" points="513.2,255.8 509.7,255.8 509.7,246.8 513.2,246.8 				"/>
				<polygon class="st4" points="531.5,255.8 527.8,255.8 527.8,246.8 531.5,246.8 				"/>
				<polygon class="st4" points="549.7,255.8 546.2,255.8 546.2,246.8 549.7,246.8 				"/>
			</g>
			<g>
				<polygon class="st4" points="476.7,273.8 473.2,273.8 473.2,264.7 476.7,264.7 				"/>
				<polygon class="st4" points="495,273.8 491.3,273.8 491.3,264.7 495,264.7 				"/>
				<polygon class="st4" points="513.2,273.8 509.7,273.8 509.7,264.7 513.2,264.7 				"/>
				<polygon class="st4" points="531.5,273.8 527.8,273.8 527.8,264.7 531.5,264.7 				"/>
				<polygon class="st4" points="549.7,273.8 546.2,273.8 546.2,264.7 549.7,264.7 				"/>
			</g>
			<g>
				<polygon class="st4" points="476.7,291.7 473.2,291.7 473.2,282.5 476.7,282.5 				"/>
				<polygon class="st4" points="495,291.7 491.3,291.7 491.3,282.5 495,282.5 				"/>
				<polygon class="st4" points="513.2,291.7 509.7,291.7 509.7,282.5 513.2,282.5 				"/>
				<polygon class="st4" points="531.5,291.7 527.8,291.7 527.8,282.5 531.5,282.5 				"/>
				<polygon class="st4" points="549.7,291.7 546.2,291.7 546.2,282.5 549.7,282.5 				"/>
			</g>
			<g>
				<polygon class="st4" points="476.7,309.5 473.2,309.5 473.2,300.5 476.7,300.5 				"/>
				<polygon class="st4" points="495,309.5 491.3,309.5 491.3,300.5 495,300.5 				"/>
				<polygon class="st4" points="513.2,309.5 509.7,309.5 509.7,300.5 513.2,300.5 				"/>
				<polygon class="st4" points="531.5,309.5 527.8,309.5 527.8,300.5 531.5,300.5 				"/>
				<polygon class="st4" points="549.7,309.5 546.2,309.5 546.2,300.5 549.7,300.5 				"/>
			</g>
		</g>
		<g>
			<path class="st3" d="M409.1,220c0,1.5-1.2,2.7-2.7,2.7s-2.7-1.2-2.7-2.7s1.2-2.7,2.7-2.7S409.1,218.5,409.1,220z"/>
			<path class="st3" d="M418.3,220c0,1.5-1.2,2.7-2.7,2.7s-2.7-1.2-2.7-2.7s1.2-2.7,2.7-2.7C417.1,217.3,418.3,218.5,418.3,220z"/>
			<path class="st3" d="M427.5,220c0,1.5-1.2,2.7-2.7,2.7s-2.7-1.2-2.7-2.7s1.2-2.7,2.7-2.7S427.5,218.5,427.5,220z"/>
			<path class="st3" d="M436.5,220c0,1.5-1.2,2.7-2.7,2.7s-2.7-1.2-2.7-2.7s1.2-2.7,2.7-2.7C435.3,217.2,436.5,218.5,436.5,220z"/>
			<path class="st3" d="M445.7,220c0,1.5-1.2,2.7-2.7,2.7s-2.7-1.2-2.7-2.7s1.2-2.7,2.7-2.7S445.7,218.5,445.7,220z"/>
			<path class="st3" d="M454.7,220c0,1.5-1.2,2.7-2.7,2.7s-2.7-1.2-2.7-2.7s1.2-2.7,2.7-2.7S454.7,218.5,454.7,220z"/>
		</g>
		<g>
			<path class="st3" d="M445.7,171.3c0,1.5-1.2,2.7-2.7,2.7s-2.7-1.2-2.7-2.7s1.2-2.7,2.7-2.7C444.5,168.7,445.7,169.8,445.7,171.3z
				"/>
			<path class="st3" d="M454.7,171.3c0,1.5-1.2,2.7-2.7,2.7s-2.7-1.2-2.7-2.7s1.2-2.7,2.7-2.7S454.7,169.8,454.7,171.3z"/>
			<path class="st3" d="M463.8,171.3c0,1.5-1.2,2.7-2.7,2.7s-2.7-1.2-2.7-2.7s1.2-2.7,2.7-2.7S463.8,169.8,463.8,171.3z"/>
			<path class="st3" d="M473,171.3c0,1.5-1.2,2.7-2.7,2.7s-2.7-1.2-2.7-2.7s1.2-2.7,2.7-2.7C471.8,168.7,473,169.8,473,171.3z"/>
			<path class="st3" d="M482,171.3c0,1.5-1.2,2.7-2.7,2.7s-2.7-1.2-2.7-2.7s1.2-2.7,2.7-2.7S482,169.8,482,171.3z"/>
			<path class="st3" d="M482,185.2c0,1.5-1.2,2.7-2.7,2.7s-2.7-1.2-2.7-2.7s1.2-2.7,2.7-2.7S482,183.8,482,185.2z"/>
		</g>
		<g>
			<path class="st3" d="M511.3,220c0,1.5-1.2,2.7-2.7,2.7s-2.7-1.2-2.7-2.7s1.2-2.7,2.7-2.7S511.3,218.5,511.3,220z"/>
			<path class="st3" d="M520.5,220c0,1.5-1.2,2.7-2.7,2.7s-2.7-1.2-2.7-2.7s1.2-2.7,2.7-2.7S520.5,218.5,520.5,220z"/>
		</g>
		<path class="st5" d="M526.2,188h-29.3c-1.2,0-2-0.8-2-2v-22.5c0-1.2,0.8-2,2-2h29.3c1.2,0,2,0.8,2,2V186
			C528.2,187,527.2,188,526.2,188z"/>
		<g>
			<g>
				<polygon class="st4" points="411.6,238 408.1,238 408.1,229 411.6,229 				"/>
				<polygon class="st4" points="431.2,238 427.7,238 427.7,229 431.2,229 				"/>
				<polygon class="st4" points="411.6,272.3 408.1,272.3 408.1,263.2 411.6,263.2 				"/>
				<polygon class="st4" points="431.2,272.3 427.7,272.3 427.7,263.2 431.2,263.2 				"/>
			</g>
			<path class="st5" d="M431,263.3h-22.7c-1,0-1.8-0.8-1.8-1.8v-22.8c0-1,0.8-1.8,1.8-1.8H431c1,0,1.8,0.8,1.8,1.8v23
				C432.8,262.7,432,263.3,431,263.3z"/>
			<path class="st6" d="M427.8,250.2c0,4.5-3.7,8.2-8.2,8.2s-8.2-3.7-8.2-8.2s3.7-8.2,8.2-8.2C424.2,242,427.8,245.7,427.8,250.2z"
				/>
			<path d="M412.6,240.3c0,1.5-1.2,2.7-2.7,2.7s-2.7-1.2-2.7-2.7s1.2-2.7,2.7-2.7C411.5,237.7,412.6,238.8,412.6,240.3z"/>
			<path d="M432.2,240.3c0,1.5-1.2,2.7-2.7,2.7s-2.7-1.2-2.7-2.7s1.2-2.7,2.7-2.7C430.8,237.7,432.2,238.8,432.2,240.3z"/>
			<path d="M412.6,259.7c0,1.5-1.2,2.7-2.7,2.7s-2.7-1.2-2.7-2.7s1.2-2.7,2.7-2.7C411.5,257,412.6,258.2,412.6,259.7z"/>
			<path d="M432.2,259.7c0,1.5-1.2,2.7-2.7,2.7s-2.7-1.2-2.7-2.7s1.2-2.7,2.7-2.7C430.8,257,432.2,258.2,432.2,259.7z"/>
		</g>
		<g>
			<path class="st4" d="M626,401.3h-28.3c-1.3,0-2.5-1.2-2.5-2.5V364c0-1.3,1.2-2.5,2.5-2.5H626c1.3,0,2.5,1.2,2.5,2.5v34.8
				C628.5,400.2,627.3,401.3,626,401.3z"/>
			<polygon class="st4" points="602.2,367 584.8,367 584.8,361.5 602.2,361.5 			"/>
			<polygon class="st4" points="602.2,401.3 584.8,401.3 584.8,395.7 602.2,395.7 			"/>
		</g>
		<path d="M639.2,302.7c-16.5,0-29.8,13.3-29.8,29.8s13.3,29.8,29.8,29.8S669,349,669,332.5S655.7,302.7,639.2,302.7z"/>
		<g>
			<path class="st3" d="M576.7,394.3c-2,0-3.5,1.7-3.5,3.5c0,2,1.7,3.5,3.5,3.5s3.5-1.7,3.5-3.5
				C580.3,395.8,578.7,394.3,576.7,394.3z"/>
		</g>
		<g>
			<g>
				<polygon class="st4" points="597.5,238 594,238 594,229 597.5,229 				"/>
				<polygon class="st4" points="617,238 613.3,238 613.3,229 617,229 				"/>
				<polygon class="st4" points="597.5,272.3 594,272.3 594,263.2 597.5,263.2 				"/>
				<polygon class="st4" points="617,272.3 613.3,272.3 613.3,263.2 617,263.2 				"/>
			</g>
			<path class="st5" d="M616.8,263.3h-22.7c-1,0-1.8-0.8-1.8-1.8v-22.8c0-1,0.8-1.8,1.8-1.8h22.7c1,0,1.8,0.8,1.8,1.8v23
				C618.7,262.7,617.8,263.3,616.8,263.3z"/>
			<path class="st6" d="M613.7,250.2c0,4.5-3.7,8.2-8.2,8.2s-8.2-3.7-8.2-8.2s3.7-8.2,8.2-8.2S613.7,245.7,613.7,250.2z"/>
			<path d="M598.5,240.3c0,1.5-1.2,2.7-2.7,2.7s-2.7-1.2-2.7-2.7s1.2-2.7,2.7-2.7C597.3,237.7,598.5,238.8,598.5,240.3z"/>
			<path d="M617.8,240.3c0,1.5-1.2,2.7-2.7,2.7s-2.7-1.2-2.7-2.7s1.2-2.7,2.7-2.7S617.8,238.8,617.8,240.3z"/>
			<path d="M598.5,259.7c0,1.5-1.2,2.7-2.7,2.7s-2.7-1.2-2.7-2.7s1.2-2.7,2.7-2.7S598.5,258.2,598.5,259.7z"/>
			<path d="M617.8,259.7c0,1.5-1.2,2.7-2.7,2.7s-2.7-1.2-2.7-2.7s1.2-2.7,2.7-2.7S617.8,258.2,617.8,259.7z"/>
		</g>
		<g>
			<path class="st5" d="M573.7,199H551c-1,0-1.8-0.8-1.8-1.8v-22.8c0-1,0.8-1.8,1.8-1.8h22.7c1,0,1.8,0.8,1.8,1.8v22.8
				C575.5,198.2,574.7,199,573.7,199z"/>
			<path class="st6" d="M570.7,185.7c0,4.5-3.7,8.2-8.2,8.2s-8.2-3.7-8.2-8.2s3.7-8.2,8.2-8.2S570.7,181.2,570.7,185.7z"/>
		</g>
		<polygon class="st7" points="573.3,375.7 553.8,375.7 553.8,340.7 573.3,340.7 		"/>
		<polygon points="458.5,378 438.7,358.2 458.5,338.3 478.3,358.2 		"/>
		<polygon points="505.5,386.5 505.5,376.3 515.7,376.3 515.7,386.5 		"/>
		<g>
			<polygon class="st4" points="520.3,358.2 502.3,358.2 502.3,340.7 520.3,340.7 			"/>
			<path class="st5" d="M518.2,349.3c0,3.8-3,6.8-6.8,6.8s-6.8-3-6.8-6.8s3-6.8,6.8-6.8S518.2,345.7,518.2,349.3z"/>
		</g>
		<polygon class="st4" points="450.2,390 438.8,397.3 432.3,387.2 443.7,379.8 		"/>
	</g>
	<g>
		<path class="st4" d="M498.8,192.4v4.8c0,0.3,0,0.7-0.2,1s-0.3,0.5-0.5,0.8s-0.5,0.3-0.7,0.5c-0.3,0.2-0.7,0.2-1,0.2s-0.7,0-1-0.2
			s-0.5-0.3-0.7-0.5s-0.3-0.5-0.5-0.8s-0.2-0.7-0.2-1v-4.8h0.8v4.8c0,0.2,0,0.3,0.2,0.7c0,0.2,0.2,0.3,0.3,0.5
			c0.2,0.2,0.3,0.3,0.5,0.3c0.2,0.2,0.3,0.2,0.7,0.2s0.5,0,0.7-0.2s0.3-0.2,0.5-0.3s0.2-0.3,0.3-0.5c0.2-0.2,0.2-0.3,0.2-0.7v-4.8
			H498.8z"/>
		<path class="st4" d="M504.1,197.7c0-0.2,0-0.3-0.2-0.5s-0.2-0.3-0.3-0.3c-0.2-0.2-0.3-0.2-0.5-0.3c-0.2-0.2-0.3-0.2-0.5-0.2
			c-0.3,0-0.5-0.2-0.8-0.3s-0.5-0.3-0.7-0.5s-0.3-0.3-0.5-0.7c-0.2-0.2-0.2-0.5-0.2-0.8s0-0.5,0.2-0.8c0.2-0.2,0.3-0.5,0.5-0.7
			s0.5-0.3,0.7-0.3s0.5-0.2,0.8-0.2s0.7,0,0.8,0.2c0.3,0.2,0.5,0.2,0.8,0.5s0.3,0.3,0.5,0.7c0.2,0.3,0.2,0.5,0.2,0.8h-1
			c0-0.2,0-0.3-0.2-0.5s-0.2-0.3-0.3-0.5c-0.2-0.2-0.3-0.2-0.5-0.3c-0.2,0-0.3-0.2-0.5-0.2s-0.3,0-0.5,0s-0.3,0.2-0.5,0.2
			c-0.2,0.2-0.2,0.2-0.3,0.3s-0.2,0.3-0.2,0.5s0,0.3,0.2,0.5s0.2,0.3,0.3,0.3c0.2,0.2,0.3,0.2,0.5,0.2s0.3,0.2,0.5,0.2
			s0.3,0.2,0.5,0.2s0.3,0.2,0.5,0.2s0.3,0.2,0.5,0.3s0.3,0.2,0.3,0.3c0.2,0.2,0.2,0.3,0.3,0.5c0,0.2,0.2,0.3,0.2,0.5
			c0,0.3,0,0.7-0.2,0.8s-0.3,0.5-0.5,0.7s-0.5,0.3-0.8,0.3s-0.5,0.2-0.8,0.2s-0.7,0-1-0.2s-0.5-0.2-0.8-0.5
			c-0.2-0.2-0.5-0.3-0.7-0.7c-0.2-0.3-0.2-0.5-0.2-0.8h1c0,0.2,0.2,0.3,0.2,0.7c0.2,0.2,0.2,0.3,0.3,0.5c0.2,0.2,0.3,0.2,0.5,0.3
			s0.3,0.2,0.7,0.2c0.2,0,0.3,0,0.5,0s0.3-0.2,0.5-0.2c0.2-0.2,0.2-0.2,0.3-0.3C504.1,198,504.1,197.9,504.1,197.7z"/>
		<path class="st4" d="M506.3,199.5v-7.2h2.2c0.3,0,0.5,0,0.8,0.2c0.3,0,0.5,0.2,0.7,0.3c0.2,0.2,0.3,0.3,0.5,0.7
			c0.2,0.3,0.2,0.5,0.2,0.8c0,0.2,0,0.3-0.2,0.5s-0.2,0.3-0.2,0.3c-0.2,0.2-0.2,0.2-0.3,0.3c-0.2,0.2-0.3,0.2-0.5,0.2
			c0.2,0,0.3,0.2,0.5,0.2c0.2,0.2,0.3,0.2,0.3,0.3s0.2,0.3,0.3,0.5c0,0.2,0.2,0.3,0.2,0.7c0,0.3,0,0.7-0.2,0.8
			c-0.2,0.2-0.3,0.5-0.5,0.7s-0.5,0.3-0.8,0.3c-0.3,0.2-0.5,0.2-0.8,0.2h-2.2V199.5z M507.3,195.4h1.3c0.2,0,0.3,0,0.5,0
			s0.3-0.2,0.5-0.2c0.2-0.2,0.2-0.2,0.3-0.3s0.2-0.3,0.2-0.5s0-0.3-0.2-0.5c0-0.2-0.2-0.3-0.3-0.3s-0.3-0.2-0.5-0.2s-0.3,0-0.5,0
			h-1.2L507.3,195.4L507.3,195.4z M507.3,196.2v2.5h1.3c0.2,0,0.3,0,0.5-0.2c0.2,0,0.3-0.2,0.5-0.3s0.2-0.2,0.3-0.3
			c0-0.2,0.2-0.3,0.2-0.5s0-0.3-0.2-0.5s-0.2-0.3-0.3-0.3s-0.3-0.2-0.5-0.3c-0.2-0.2-0.3-0.2-0.5-0.2h-1.3V196.2z"/>
	</g>
	<g>
		<path d="M350,308.1c0,0.5,0,0.8-0.2,1.2c-0.2,0.3-0.3,0.7-0.5,0.8c-0.2,0.2-0.5,0.5-0.7,0.5s-0.7,0.2-1,0.2s-0.7,0-1-0.2
			s-0.5-0.3-0.7-0.5s-0.3-0.5-0.5-0.8s-0.2-0.8-0.2-1.2v-1.7c0-0.5,0-0.8,0.2-1.2c0.2-0.3,0.3-0.7,0.5-0.8s0.5-0.5,0.7-0.5
			c0.3-0.2,0.7-0.2,1-0.2s0.7,0,1,0.2s0.5,0.3,0.7,0.5s0.3,0.5,0.5,0.8s0.2,0.8,0.2,1.2V308.1z M346.3,307.9l2.8-2.2
			c0-0.5-0.2-0.8-0.3-1c-0.2-0.2-0.5-0.3-1-0.3s-0.8,0.2-1,0.5s-0.3,0.8-0.3,1.3v1.7H346.3z M349,306.6l-2.8,2.2
			c0,0.5,0.2,0.8,0.5,1s0.5,0.3,1,0.3s0.8-0.2,1-0.5s0.3-0.8,0.3-1.3V306.6z"/>
	</g>
	<g>
		<path d="M424.1,169.3h-3.7v-0.7h3.7V169.3z"/>
	</g>
	<g>
		<path d="M602,168.3h2v0.8h-2v2.2h-0.8v-2.2h-2v-0.8h2v-2h0.8V168.3z"/>
	</g>
	<g>
		<path d="M673.7,306.7h0.7c0.2,0,0.5,0,0.7-0.2s0.3-0.2,0.5-0.3s0.2-0.2,0.3-0.3s0.2-0.3,0.2-0.5c0-0.3-0.2-0.7-0.3-1
			c-0.2-0.2-0.5-0.3-1-0.3c-0.2,0-0.3,0-0.5,0.2c-0.2,0-0.3,0.2-0.3,0.2c-0.2,0.2-0.2,0.2-0.3,0.3c-0.2,0.2-0.2,0.3-0.2,0.5h-0.8
			c0-0.3,0-0.5,0.2-0.8c0.2-0.2,0.3-0.5,0.5-0.7s0.5-0.3,0.7-0.5c0.3-0.2,0.5-0.2,0.8-0.2s0.7,0,0.8,0.2c0.2,0.2,0.5,0.2,0.7,0.3
			c0.2,0.2,0.3,0.3,0.5,0.7c0.2,0.3,0.2,0.5,0.2,0.8c0,0.2,0,0.3,0,0.5s-0.2,0.3-0.2,0.5s-0.2,0.3-0.3,0.3c-0.2,0.2-0.3,0.2-0.5,0.3
			c0.2,0,0.5,0.2,0.5,0.3s0.3,0.3,0.3,0.3c0.2,0.2,0.2,0.3,0.2,0.5s0,0.3,0,0.5c0,0.3,0,0.7-0.2,0.8c-0.2,0.2-0.3,0.5-0.5,0.7
			s-0.5,0.3-0.7,0.3c-0.3,0.2-0.5,0.2-0.8,0.2s-0.7,0-0.8-0.2c-0.2-0.2-0.5-0.2-0.7-0.3c-0.2-0.2-0.3-0.3-0.5-0.7
			c-0.2-0.2-0.2-0.5-0.2-0.8h0.8c0,0.2,0,0.3,0.2,0.5c0,0.2,0.2,0.3,0.3,0.3s0.3,0.2,0.5,0.2s0.3,0.2,0.5,0.2s0.3,0,0.5,0
			s0.3-0.2,0.5-0.2s0.2-0.2,0.3-0.3c0-0.2,0.2-0.3,0.2-0.5s0-0.3-0.2-0.5c0-0.2-0.2-0.3-0.3-0.3c-0.2-0.2-0.3-0.2-0.5-0.2
			s-0.3,0-0.7,0H674v-0.8H673.7z"/>
	</g>
	<g>
		<path d="M423.9,449.4h-0.8v-6l-1.8,0.7v-0.8l2.7-1l0,0v7.1L423.9,449.4L423.9,449.4z"/>
	</g>
	<g>
		<path d="M603.3,448.4h-4.7v-0.7l2.3-2.7c0.2-0.2,0.3-0.5,0.5-0.7s0.3-0.3,0.3-0.5c0.2-0.2,0.2-0.3,0.2-0.5s0-0.3,0-0.3
			c0-0.2,0-0.3-0.2-0.5c0-0.2-0.2-0.3-0.3-0.3c-0.2,0-0.2-0.2-0.3-0.3c-0.2,0-0.3-0.2-0.5-0.2s-0.5,0-0.7,0.2
			c-0.2,0-0.3,0.2-0.5,0.3c-0.2,0.2-0.2,0.3-0.3,0.5c0,0.2-0.2,0.3-0.2,0.7h-0.8c0-0.3,0-0.5,0.2-0.8s0.3-0.5,0.5-0.7
			s0.5-0.3,0.7-0.5s0.7-0.2,1-0.2s0.7,0,0.8,0.2c0.3,0.2,0.5,0.2,0.7,0.3c0.2,0.2,0.3,0.3,0.5,0.7s0.2,0.5,0.2,0.8
			c0,0.2,0,0.5-0.2,0.7s-0.2,0.3-0.3,0.7c-0.2,0.2-0.3,0.3-0.5,0.7c-0.2,0.2-0.3,0.3-0.5,0.7l-1.8,2h3.5v0.5h0.4L603.3,448.4
			L603.3,448.4z"/>
	</g>
	<g>
		<path class="st4" d="M514.9,335.3v-7.2h2.2c0.3,0,0.5,0,0.8,0.2c0.3,0,0.5,0.2,0.7,0.3c0.2,0.2,0.3,0.3,0.5,0.7s0.2,0.5,0.2,0.8
			c0,0.2,0,0.3-0.2,0.5s-0.2,0.3-0.2,0.3c-0.2,0.2-0.2,0.2-0.3,0.3c-0.2,0.2-0.3,0.2-0.5,0.2c0.2,0,0.3,0.2,0.5,0.2
			c0.2,0.2,0.3,0.2,0.3,0.3s0.2,0.3,0.3,0.5c0,0.2,0.2,0.3,0.2,0.7s0,0.7-0.2,0.8c-0.2,0.2-0.3,0.5-0.5,0.7s-0.5,0.3-0.8,0.3
			c-0.3,0.2-0.5,0.2-0.8,0.2h-2.2V335.3z M515.8,331.4h1.3c0.2,0,0.3,0,0.5,0s0.3-0.2,0.5-0.2c0.2-0.2,0.2-0.2,0.3-0.3
			c0.2-0.2,0.2-0.3,0.2-0.5s0-0.3-0.2-0.5c0-0.2-0.2-0.3-0.3-0.3c-0.2,0-0.3-0.2-0.5-0.2s-0.3,0-0.5,0h-1.2L515.8,331.4L515.8,331.4
			z M515.8,332v2.5h1.3c0.2,0,0.3,0,0.5-0.2c0.2,0,0.3-0.2,0.5-0.3s0.2-0.2,0.3-0.3c0-0.2,0.2-0.3,0.2-0.5s0-0.3-0.2-0.5
			s-0.2-0.3-0.3-0.3c-0.2,0-0.3-0.2-0.5-0.3s-0.3-0.2-0.5-0.2L515.8,332L515.8,332z"/>
		<path class="st4" d="M524.2,333.5h-2.3l-0.5,1.8h-0.8l2.3-7.2h0.8l2.3,7.2h-0.8L524.2,333.5z M522.3,332.7h1.8l-1-3.2L522.3,332.7
			z"/>
		<path class="st4" d="M531.7,329h-2.2v6.3h-0.8V329h-2.2v-0.8h5.3L531.7,329L531.7,329z"/>
		<path class="st4" d="M537.7,329h-2.2v6.3h-0.8V329h-2.2v-0.8h5.3L537.7,329L537.7,329z"/>
		<path class="st4" d="M542.9,332h-3v2.5h3.5v0.8h-4.3v-7.2h4.3v0.8h-3.5v2.3h3V332z"/>
		<path class="st4" d="M547.2,332.5h-1.3v2.8h-0.8v-7.2h2.2c0.3,0,0.7,0,1,0.2s0.5,0.2,0.8,0.3c0.2,0.2,0.3,0.3,0.5,0.7
			s0.2,0.5,0.2,1c0,0.2,0,0.5-0.2,0.7s-0.2,0.3-0.3,0.5c-0.2,0.2-0.3,0.3-0.5,0.3s-0.3,0.2-0.5,0.3l1.5,3l0,0h-1L547.2,332.5z
			 M545.9,331.7h1.2c0.2,0,0.3,0,0.5-0.2s0.3-0.2,0.5-0.3c0.2-0.2,0.2-0.3,0.3-0.5c0-0.2,0.2-0.3,0.2-0.5s0-0.5-0.2-0.7
			c0-0.2-0.2-0.3-0.3-0.5c-0.2-0.2-0.3-0.2-0.5-0.3s-0.3-0.2-0.7-0.2h-1V331.7z"/>
		<path class="st4" d="M550.9,328.2h4.3v0.8h-1.7v5.5h1.7v0.8h-4.3v-0.8h1.7V329h-1.7V328.2z"/>
		<path class="st4" d="M560.9,332h-3v2.5h3.5v0.8H557v-7.2h4.3v0.8h-3.5v2.3h3v0.8L560.9,332L560.9,332z"/>
	</g>
	<g>
		<path class="st4" d="M515.9,323.2h3.5v0.8h-4.3v-7.2h0.8V323.2z"/>
		<path class="st4" d="M524.2,322.2h-2.3l-0.5,1.8h-0.8l2.3-7.2h0.8l2.3,7.2h-0.8L524.2,322.2z M522.3,321.4h1.8l-1-3.2L522.3,321.4
			z"/>
		<path class="st4" d="M531.4,316.9v4.8c0,0.3,0,0.7-0.2,1s-0.3,0.5-0.5,0.8s-0.5,0.3-0.7,0.5c-0.3,0.2-0.7,0.2-1,0.2s-0.7,0-1-0.2
			s-0.5-0.3-0.7-0.5s-0.3-0.5-0.5-0.8s-0.2-0.7-0.2-1v-4.8h0.8v4.8c0,0.2,0,0.3,0.2,0.7c0,0.2,0.2,0.3,0.3,0.5
			c0.2,0.2,0.3,0.3,0.5,0.3c0.2,0.2,0.3,0.2,0.7,0.2c0.3,0,0.5,0,0.7-0.2s0.3-0.2,0.5-0.3c0.2-0.2,0.2-0.3,0.3-0.5s0.2-0.3,0.2-0.7
			v-4.8H531.4z"/>
		<path class="st4" d="M537.7,317.7h-2.2v6.3h-0.8v-6.3h-2.2v-0.8h5.3L537.7,317.7L537.7,317.7z"/>
		<path class="st4" d="M542.6,322.2c0-0.2,0-0.3-0.2-0.5s-0.2-0.3-0.3-0.3c-0.2-0.2-0.3-0.2-0.5-0.3s-0.3-0.2-0.5-0.2
			c-0.3,0-0.5-0.2-0.8-0.3c-0.3-0.2-0.5-0.3-0.7-0.5s-0.3-0.3-0.5-0.7c-0.2-0.2-0.2-0.5-0.2-0.8s0-0.5,0.2-0.8
			c0.2-0.2,0.3-0.5,0.5-0.7s0.5-0.3,0.7-0.3s0.5-0.2,0.8-0.2s0.7,0,0.8,0.2c0.3,0.2,0.5,0.2,0.8,0.5s0.3,0.3,0.5,0.7
			s0.2,0.5,0.2,0.8h-0.8c0-0.2,0-0.3-0.2-0.5s-0.2-0.3-0.3-0.5c-0.2-0.2-0.3-0.2-0.5-0.3c-0.2,0-0.3-0.2-0.5-0.2s-0.3,0-0.5,0
			s-0.3,0.2-0.5,0.2c-0.2,0.2-0.2,0.2-0.3,0.3c-0.2,0.2-0.2,0.3-0.2,0.5s0,0.3,0.2,0.5s0.2,0.3,0.3,0.3c0.2,0.2,0.3,0.2,0.5,0.2
			s0.3,0.2,0.5,0.2s0.3,0.2,0.5,0.2s0.3,0.2,0.5,0.2s0.3,0.2,0.5,0.3s0.3,0.2,0.3,0.3c0.2,0.2,0.2,0.3,0.3,0.5
			c0,0.2,0.2,0.3,0.2,0.5c0,0.3,0,0.7-0.2,0.8s-0.3,0.5-0.5,0.7s-0.5,0.3-0.8,0.3s-0.5,0.2-0.8,0.2s-0.7,0-1-0.2s-0.5-0.2-0.8-0.5
			c-0.2-0.2-0.5-0.3-0.7-0.7s-0.2-0.5-0.2-0.8h1c0,0.2,0.2,0.3,0.2,0.7c0.2,0.2,0.2,0.3,0.3,0.5s0.3,0.2,0.5,0.3s0.3,0.2,0.7,0.2
			c0.2,0,0.3,0,0.5,0s0.3-0.2,0.5-0.2c0.2-0.2,0.2-0.2,0.3-0.3C542.6,322.5,542.6,322.4,542.6,322.2z"/>
		<path class="st4" d="M545.9,321.2v2.8h-0.8v-7.2h2.3c0.3,0,0.7,0,0.8,0.2c0.3,0.2,0.5,0.2,0.7,0.3c0.2,0.2,0.3,0.3,0.5,0.7
			s0.2,0.5,0.2,0.8s0,0.7-0.2,0.8c-0.2,0.3-0.3,0.5-0.5,0.7s-0.5,0.3-0.7,0.3c-0.3,0.2-0.7,0.2-0.8,0.2h-1.5V321.2z M545.9,320.4
			h1.3c0.2,0,0.3,0,0.5-0.2c0.2,0,0.3-0.2,0.5-0.3s0.2-0.3,0.3-0.5c0-0.2,0.2-0.3,0.2-0.5s0-0.3-0.2-0.5c0-0.2-0.2-0.3-0.3-0.5
			c-0.2-0.2-0.3-0.2-0.5-0.3s-0.3-0.2-0.5-0.2h-1.3V320.4z"/>
		<path class="st4" d="M553.2,321h-1.5v2.8h-0.8v-7.2h2.2c0.3,0,0.7,0,1,0.2s0.5,0.2,0.8,0.3c0.2,0.2,0.3,0.3,0.5,0.7s0.2,0.5,0.2,1
			c0,0.2,0,0.5-0.2,0.7s-0.2,0.3-0.3,0.5c-0.2,0.2-0.3,0.3-0.5,0.3s-0.3,0.2-0.5,0.3l1.5,3l0,0h-1L553.2,321z M551.9,320.4h1.2
			c0.2,0,0.3,0,0.5-0.2s0.3-0.2,0.5-0.3c0.2-0.2,0.2-0.3,0.3-0.5c0-0.2,0.2-0.3,0.2-0.5s0-0.5-0.2-0.7c0-0.2-0.2-0.3-0.3-0.5
			c-0.2-0.2-0.3-0.2-0.5-0.3c-0.2-0.2-0.3-0.2-0.7-0.2h-1.2v3.2H551.9z"/>
		<path class="st4" d="M560.9,320.7h-3v2.5h3.5v0.8H557v-7.2h4.3v0.8h-3.5v2.3h3v0.8L560.9,320.7L560.9,320.7z"/>
		<path class="st4" d="M567.5,321.9c0,0.3-0.2,0.7-0.3,0.8c-0.2,0.3-0.3,0.5-0.5,0.7s-0.5,0.3-0.7,0.5c-0.3,0.2-0.7,0.2-1,0.2
			s-0.5,0-0.8-0.2c-0.2-0.2-0.5-0.2-0.7-0.3c-0.2-0.2-0.3-0.3-0.5-0.5s-0.2-0.3-0.3-0.7c-0.2-0.2-0.2-0.5-0.2-0.7c0-0.3,0-0.5,0-0.8
			v-1c0-0.3,0-0.5,0-0.8s0.2-0.5,0.2-0.7c0.2-0.2,0.2-0.5,0.3-0.7c0.2-0.2,0.3-0.3,0.5-0.5s0.3-0.3,0.7-0.3c0.2,0,0.5-0.2,0.8-0.2
			s0.7,0,1,0.2s0.5,0.3,0.7,0.5s0.3,0.5,0.5,0.7c0.2,0.3,0.2,0.7,0.2,1h-0.8c0-0.2,0-0.3-0.2-0.7s-0.2-0.3-0.3-0.5
			c-0.2-0.2-0.3-0.2-0.5-0.3c-0.2,0-0.3-0.2-0.7-0.2c-0.2,0-0.3,0-0.5,0.2c-0.2,0-0.3,0.2-0.5,0.3s-0.2,0.3-0.3,0.5
			c0,0.2-0.2,0.3-0.2,0.5s-0.2,0.3-0.2,0.5s0,0.3,0,0.5v1c0,0.2,0,0.3,0,0.5s0,0.3,0.2,0.5c0,0.2,0.2,0.3,0.2,0.5s0.2,0.3,0.3,0.5
			s0.3,0.2,0.5,0.3s0.3,0.2,0.5,0.2s0.5,0,0.7-0.2s0.3-0.2,0.5-0.3s0.2-0.3,0.3-0.5c0.2-0.2,0.2-0.3,0.2-0.7h1v0.2H567.5z"/>
		<path class="st4" d="M573.3,324h-0.8v-3.3h-2.8v3.3h-0.8v-7.2h0.8v3h2.8v-3h0.8V324z"/>
		<path class="st4" d="M578.8,320.7h-3v2.5h3.5v0.8H575v-7.2h4.3v0.8h-3.5v2.3h3V320.7z"/>
		<path class="st4" d="M583.2,321h-1.5v2.8h-0.8v-7.2h2.2c0.3,0,0.7,0,1,0.2s0.5,0.2,0.8,0.3c0.2,0.2,0.3,0.3,0.5,0.7s0.2,0.5,0.2,1
			c0,0.2,0,0.5-0.2,0.7s-0.2,0.3-0.3,0.5c-0.2,0.2-0.3,0.3-0.5,0.3s-0.3,0.2-0.5,0.3l1.5,3l0,0h-1L583.2,321z M581.8,320.4h1.2
			c0.2,0,0.3,0,0.5-0.2s0.3-0.2,0.5-0.3c0.2-0.2,0.2-0.3,0.3-0.5c0-0.2,0.2-0.3,0.2-0.5s0-0.5-0.2-0.7c0-0.2-0.2-0.3-0.3-0.5
			c-0.2-0.2-0.3-0.2-0.5-0.3c-0.2-0.2-0.3-0.2-0.7-0.2h-1.2v3.2H581.8z"/>
	</g>
	<g>
		<path class="st4" d="M363,332.5v2.8h-0.8v-7.2h2.3c0.3,0,0.7,0,0.8,0.2c0.3,0.2,0.5,0.2,0.7,0.3c0.2,0.2,0.3,0.3,0.5,0.7
			s0.2,0.5,0.2,0.8s0,0.7-0.2,0.8c-0.2,0.3-0.3,0.5-0.5,0.7s-0.5,0.3-0.7,0.3c-0.3,0.2-0.7,0.2-0.8,0.2H363V332.5z M363,331.9h1.3
			c0.2,0,0.3,0,0.5-0.2c0.2,0,0.3-0.2,0.5-0.3s0.2-0.3,0.3-0.5c0-0.2,0.2-0.3,0.2-0.5s0-0.3-0.2-0.5c0-0.2-0.2-0.3-0.3-0.5
			c-0.2-0.2-0.3-0.2-0.5-0.3c-0.2-0.2-0.3-0.2-0.5-0.2H363V331.9z"/>
		<path class="st4" d="M370.3,332.5h-1.5v2.8H368v-7.2h2.2c0.3,0,0.7,0,1,0.2s0.5,0.2,0.8,0.3c0.2,0.2,0.3,0.3,0.5,0.7
			c0.2,0.3,0.2,0.5,0.2,1c0,0.2,0,0.5-0.2,0.7s-0.2,0.3-0.3,0.5c-0.2,0.2-0.3,0.3-0.5,0.3s-0.3,0.2-0.5,0.3l1.5,3l0,0h-1
			L370.3,332.5z M369,331.7h1.2c0.2,0,0.3,0,0.5-0.2s0.3-0.2,0.5-0.3c0.2-0.2,0.2-0.3,0.3-0.5c0-0.2,0.2-0.3,0.2-0.5s0-0.5-0.2-0.7
			c0-0.2-0.2-0.3-0.3-0.5c-0.2-0.2-0.3-0.2-0.5-0.3s-0.3-0.2-0.7-0.2h-1.2v3.2H369z"/>
		<path class="st4" d="M378.6,332.2c0,0.3,0,0.5,0,0.8s-0.2,0.5-0.2,0.8s-0.2,0.5-0.3,0.7c-0.2,0.2-0.3,0.3-0.5,0.5
			s-0.3,0.3-0.7,0.3c-0.2,0.2-0.5,0.2-0.8,0.2s-0.5,0-0.8-0.2c-0.2-0.2-0.5-0.2-0.7-0.3c-0.2-0.2-0.3-0.3-0.5-0.5s-0.2-0.5-0.3-0.7
			c-0.2-0.2-0.2-0.5-0.2-0.7s0-0.5,0-0.8v-0.8c0-0.3,0-0.5,0-0.8s0.2-0.5,0.2-0.8c0.2-0.2,0.2-0.5,0.3-0.7c0.2-0.2,0.3-0.3,0.5-0.5
			s0.3-0.3,0.7-0.3c0.2-0.2,0.5-0.2,0.8-0.2s0.5,0,0.8,0.2c0.2,0.2,0.5,0.2,0.7,0.3c0.2,0.2,0.3,0.3,0.5,0.5s0.2,0.5,0.3,0.7
			c0.2,0.2,0.2,0.5,0.2,0.8s0,0.5,0,0.8V332.2z M377.6,331.4c0-0.2,0-0.3,0-0.5s0-0.3-0.2-0.5c0-0.2-0.2-0.3-0.2-0.5
			s-0.2-0.3-0.3-0.5c-0.2-0.2-0.3-0.2-0.3-0.3c-0.2,0-0.3-0.2-0.5-0.2s-0.3,0-0.5,0.2s-0.3,0.2-0.3,0.3c-0.2,0.2-0.2,0.3-0.3,0.5
			c-0.2,0.2-0.2,0.3-0.2,0.5s0,0.3-0.2,0.5s0,0.3,0,0.5v0.8c0,0.2,0,0.3,0,0.5s0,0.3,0.2,0.5c0,0.2,0.2,0.3,0.2,0.5s0.2,0.3,0.3,0.5
			c0.2,0.2,0.3,0.2,0.3,0.3s0.3,0.2,0.5,0.2s0.3,0,0.5-0.2c0.2,0,0.3-0.2,0.3-0.3c0.2-0.2,0.2-0.3,0.3-0.5c0-0.2,0.2-0.3,0.2-0.5
			s0-0.3,0.2-0.5s0-0.3,0-0.5V331.4z"/>
		<path class="st4" d="M380.6,334.5h3.8v0.8h-4.7v-0.7l3.5-5.7h-3.5v-0.8h4.5v0.7L380.6,334.5z"/>
		<path class="st4" d="M389.8,332h-3v2.5h3.5v0.8H386v-7.2h4.3v0.8h-3.5v2.3h3V332z"/>
		<path class="st4" d="M395.6,333.5c0-0.2,0-0.3-0.2-0.5s-0.2-0.3-0.3-0.3c-0.2-0.2-0.3-0.2-0.5-0.3s-0.3-0.2-0.5-0.2
			c-0.3,0-0.5-0.2-0.8-0.3c-0.3-0.2-0.5-0.3-0.7-0.5s-0.3-0.3-0.5-0.7c-0.2-0.2-0.2-0.5-0.2-0.8s0-0.5,0.2-0.8
			c0.2-0.2,0.3-0.5,0.5-0.7s0.5-0.3,0.7-0.3s0.5-0.2,0.8-0.2s0.7,0,0.8,0.2c0.3,0.2,0.5,0.2,0.8,0.5s0.3,0.3,0.5,0.7
			c0.2,0.3,0.2,0.5,0.2,0.8h-1c0-0.2,0-0.3-0.2-0.5s-0.2-0.3-0.3-0.5c-0.2-0.2-0.3-0.2-0.5-0.3c-0.2,0-0.3-0.2-0.5-0.2s-0.3,0-0.5,0
			s-0.3,0.2-0.5,0.2c-0.2,0.2-0.2,0.2-0.3,0.3c-0.2,0.2-0.2,0.3-0.2,0.5s0,0.3,0.2,0.5s0.2,0.3,0.3,0.3c0.2,0.2,0.3,0.2,0.5,0.2
			s0.3,0.2,0.5,0.2s0.3,0.2,0.5,0.2s0.3,0.2,0.5,0.2s0.3,0.2,0.5,0.3c0.2,0.2,0.3,0.2,0.3,0.3c0.2,0.2,0.2,0.3,0.3,0.5
			c0,0.2,0.2,0.3,0.2,0.5c0,0.3,0,0.7-0.2,0.8c-0.2,0.2-0.3,0.5-0.5,0.7s-0.5,0.3-0.8,0.3s-0.5,0.2-0.8,0.2s-0.7,0-1-0.2
			s-0.5-0.2-0.8-0.5c-0.2-0.2-0.5-0.3-0.7-0.7c-0.2-0.3-0.2-0.5-0.2-0.8h1c0,0.2,0.2,0.3,0.2,0.7c0.2,0.2,0.2,0.3,0.3,0.5
			c0.2,0.2,0.3,0.2,0.5,0.3s0.3,0.2,0.7,0.2c0.2,0,0.3,0,0.5,0s0.3-0.2,0.5-0.2c0.2-0.2,0.2-0.2,0.3-0.3
			C395.6,333.9,395.6,333.7,395.6,333.5z"/>
		<path class="st4" d="M401.6,333.5c0-0.2,0-0.3-0.2-0.5s-0.2-0.3-0.3-0.3c-0.2-0.2-0.3-0.2-0.5-0.3s-0.3-0.2-0.5-0.2
			c-0.3,0-0.5-0.2-0.8-0.3c-0.3-0.2-0.5-0.3-0.7-0.5s-0.3-0.3-0.5-0.7c-0.2-0.2-0.2-0.5-0.2-0.8s0-0.5,0.2-0.8
			c0.2-0.2,0.3-0.5,0.5-0.7s0.5-0.3,0.7-0.3s0.5-0.2,0.8-0.2s0.7,0,0.8,0.2c0.3,0.2,0.5,0.2,0.8,0.5s0.3,0.3,0.5,0.7
			s0.2,0.5,0.2,0.8h-1c0-0.2,0-0.3-0.2-0.5s-0.2-0.3-0.3-0.5c-0.2-0.2-0.3-0.2-0.5-0.3c-0.2,0-0.3-0.2-0.5-0.2s-0.3,0-0.5,0
			s-0.3,0.2-0.5,0.2c-0.2,0.2-0.2,0.2-0.3,0.3c-0.2,0.2-0.2,0.3-0.2,0.5s0,0.3,0.2,0.5s0.2,0.3,0.3,0.3c0.2,0.2,0.3,0.2,0.5,0.2
			s0.3,0.2,0.5,0.2s0.3,0.2,0.5,0.2s0.3,0.2,0.5,0.2s0.3,0.2,0.5,0.3c0.2,0.2,0.3,0.2,0.3,0.3c0.2,0.2,0.2,0.3,0.3,0.5
			c0,0.2,0.2,0.3,0.2,0.5c0,0.3,0,0.7-0.2,0.8c-0.2,0.2-0.3,0.5-0.5,0.7s-0.5,0.3-0.8,0.3s-0.5,0.2-0.8,0.2s-0.7,0-1-0.2
			s-0.5-0.2-0.8-0.5c-0.2-0.2-0.5-0.3-0.7-0.7c-0.2-0.3-0.2-0.5-0.2-0.8h1c0,0.2,0.2,0.3,0.2,0.7c0.2,0.2,0.2,0.3,0.3,0.5
			c0.2,0.2,0.3,0.2,0.5,0.3s0.3,0.2,0.7,0.2c0.2,0,0.3,0,0.5,0s0.3-0.2,0.5-0.2c0.2-0.2,0.2-0.2,0.3-0.3
			C401.6,333.9,401.6,333.7,401.6,333.5z"/>
		<path class="st4" d="M408.6,332.2c0,0.3,0,0.5,0,0.8s-0.2,0.5-0.2,0.8s-0.2,0.5-0.3,0.7c-0.2,0.2-0.3,0.3-0.5,0.5
			s-0.3,0.3-0.7,0.3c-0.2,0.2-0.5,0.2-0.8,0.2s-0.5,0-0.8-0.2c-0.2-0.2-0.5-0.2-0.7-0.3c-0.2-0.2-0.3-0.3-0.5-0.5s-0.2-0.5-0.3-0.7
			c-0.2-0.2-0.2-0.5-0.2-0.7s0-0.5,0-0.8v-0.8c0-0.3,0-0.5,0-0.8s0.2-0.5,0.2-0.8c0.2-0.2,0.2-0.5,0.3-0.7c0.2-0.2,0.3-0.3,0.5-0.5
			s0.3-0.3,0.7-0.3c0.2-0.2,0.5-0.2,0.8-0.2s0.5,0,0.8,0.2c0.2,0.2,0.5,0.2,0.7,0.3s0.3,0.3,0.5,0.5s0.2,0.5,0.3,0.7
			c0.2,0.2,0.2,0.5,0.2,0.8s0,0.5,0,0.8V332.2z M407.6,331.4c0-0.2,0-0.3,0-0.5s0-0.3-0.2-0.5c0-0.2-0.2-0.3-0.2-0.5
			s-0.2-0.3-0.3-0.5c-0.2-0.2-0.3-0.2-0.3-0.3c-0.2,0-0.3-0.2-0.5-0.2s-0.3,0-0.5,0.2s-0.3,0.2-0.3,0.3c-0.2,0.2-0.2,0.3-0.3,0.5
			c-0.2,0.2-0.2,0.3-0.2,0.5s0,0.3-0.2,0.5s0,0.3,0,0.5v0.8c0,0.2,0,0.3,0,0.5s0,0.3,0.2,0.5c0,0.2,0.2,0.3,0.2,0.5s0.2,0.3,0.3,0.5
			c0.2,0.2,0.3,0.2,0.3,0.3s0.3,0.2,0.5,0.2s0.3,0,0.5-0.2c0.2,0,0.3-0.2,0.3-0.3c0.2-0.2,0.2-0.3,0.3-0.5c0-0.2,0.2-0.3,0.2-0.5
			s0-0.3,0.2-0.5s0-0.3,0-0.5V331.4z"/>
		<path class="st4" d="M412.2,332.5h-1.5v2.8h-0.8v-7.2h2.2c0.3,0,0.7,0,1,0.2s0.5,0.2,0.8,0.3c0.2,0.2,0.3,0.3,0.5,0.7
			c0.2,0.3,0.2,0.5,0.2,1c0,0.2,0,0.5-0.2,0.7s-0.2,0.3-0.3,0.5c-0.2,0.2-0.3,0.3-0.5,0.3s-0.3,0.2-0.5,0.3l1.5,3l0,0h-1
			L412.2,332.5z M410.9,331.7h1.2c0.2,0,0.3,0,0.5-0.2s0.3-0.2,0.5-0.3c0.2-0.2,0.2-0.3,0.3-0.5c0-0.2,0.2-0.3,0.2-0.5
			s0-0.5-0.2-0.7c0-0.2-0.2-0.3-0.3-0.5c-0.2-0.2-0.3-0.2-0.5-0.3s-0.3-0.2-0.7-0.2h-1.2v3.2H410.9z"/>
	</g>
	<g>
		<path class="st4" d="M364.3,321h-1.5v2.8H362v-7.2h2.2c0.3,0,0.7,0,1,0.2s0.5,0.2,0.8,0.3c0.2,0.2,0.3,0.3,0.5,0.7s0.2,0.5,0.2,1
			c0,0.2,0,0.5-0.2,0.7s-0.2,0.3-0.3,0.5c-0.2,0.2-0.3,0.3-0.5,0.3s-0.3,0.2-0.5,0.3l1.5,3l0,0h-1L364.3,321z M363,320.4h1.2
			c0.2,0,0.3,0,0.5-0.2s0.3-0.2,0.5-0.3c0.2-0.2,0.2-0.3,0.3-0.5c0-0.2,0.2-0.3,0.2-0.5s0-0.5-0.2-0.7c0-0.2-0.2-0.3-0.3-0.5
			c-0.2-0.2-0.3-0.2-0.5-0.3c-0.2-0.2-0.3-0.2-0.7-0.2h-1.2v3.2H363z"/>
		<path class="st4" d="M372.6,323c-0.3,0.3-0.7,0.7-1,0.8s-0.8,0.3-1.3,0.2c-0.3,0-0.5,0-0.8-0.2c-0.2-0.2-0.5-0.2-0.7-0.3
			c-0.2-0.2-0.3-0.3-0.5-0.5s-0.3-0.5-0.3-0.7c-0.2-0.2-0.2-0.5-0.2-0.8s0-0.5,0-0.8v-0.8c0-0.3,0-0.5,0-0.8s0.2-0.5,0.2-0.8
			s0.2-0.5,0.3-0.7c0.2-0.2,0.3-0.3,0.5-0.5s0.3-0.3,0.7-0.3c0.3,0,0.5-0.2,0.8-0.2s0.7,0,1,0.2s0.5,0.3,0.7,0.5s0.3,0.5,0.5,0.7
			c0.2,0.3,0.2,0.5,0.2,0.8h-0.8c0-0.2-0.2-0.3-0.2-0.5s-0.2-0.3-0.3-0.5c-0.2-0.2-0.3-0.2-0.5-0.3c-0.2,0-0.3-0.2-0.7-0.2
			c-0.2,0-0.3,0-0.5,0.2c-0.2,0-0.3,0.2-0.5,0.3c-0.2,0.2-0.2,0.3-0.3,0.5c0,0.2-0.2,0.3-0.2,0.5s-0.2,0.3-0.2,0.5s0,0.3,0,0.5v0.8
			c0,0.2,0,0.3,0,0.5s0,0.3,0.2,0.5s0.2,0.3,0.2,0.5s0.2,0.3,0.3,0.5c0.2,0.2,0.3,0.2,0.5,0.3c0.2,0,0.3,0.2,0.5,0.2s0.3,0,0.3,0
			c0.2,0,0.3,0,0.3,0s0.2-0.2,0.3-0.2c0.2,0,0.2-0.2,0.3-0.3v-1.7H370V320h2.3L372.6,323z"/>
		<path class="st4" d="M374,324v-7.2h2.2c0.3,0,0.5,0,0.8,0.2c0.3,0,0.5,0.2,0.7,0.3c0.2,0.2,0.3,0.3,0.5,0.7s0.2,0.5,0.2,0.8
			c0,0.2,0,0.3-0.2,0.5s-0.2,0.3-0.2,0.3c-0.2,0.2-0.2,0.2-0.3,0.3c-0.2,0.2-0.3,0.2-0.5,0.2c0.2,0,0.3,0.2,0.5,0.2
			c0.2,0.2,0.3,0.2,0.3,0.3s0.2,0.3,0.3,0.5c0,0.2,0.2,0.3,0.2,0.7s0,0.7-0.2,0.8c-0.2,0.2-0.3,0.5-0.5,0.7s-0.5,0.3-0.8,0.3
			c-0.3,0.2-0.5,0.2-0.8,0.2H374V324z M374.8,319.9h1.3c0.2,0,0.3,0,0.5,0s0.3-0.2,0.5-0.2c0.2-0.2,0.2-0.2,0.3-0.3
			c0.2-0.2,0.2-0.3,0.2-0.5s0-0.3-0.2-0.5c0-0.2-0.2-0.3-0.3-0.3c-0.2,0-0.3-0.2-0.5-0.2s-0.3,0-0.5,0H375v2H374.8z M374.8,320.7
			v2.5h1.3c0.2,0,0.3,0,0.5-0.2c0.2,0,0.3-0.2,0.5-0.3s0.2-0.2,0.3-0.3c0-0.2,0.2-0.3,0.2-0.5s0-0.3-0.2-0.5s-0.2-0.3-0.3-0.3
			c-0.2,0-0.3-0.2-0.5-0.3c-0.2-0.2-0.3-0.2-0.5-0.2L374.8,320.7L374.8,320.7z"/>
		<path class="st4" d="M383.6,323.2h3.5v0.8h-4.3v-7.2h0.8V323.2z"/>
		<path class="st4" d="M392.4,320.7h-3v2.5h3.5v0.8h-4.3v-7.2h4.3v0.8h-3.5v2.3h3V320.7z"/>
		<path class="st4" d="M394.4,324v-7.2h1.7c0.5,0,1,0.2,1.3,0.3c0.3,0.2,0.7,0.3,1,0.7s0.5,0.7,0.7,1s0.2,0.8,0.2,1.3v0.5
			c0,0.5,0,1-0.2,1.3s-0.3,0.7-0.7,1c-0.3,0.3-0.7,0.5-1,0.7s-0.8,0.2-1.3,0.2h-1.7V324z M395.4,317.5v5.7h0.7c0.3,0,0.7,0,1-0.2
			s0.5-0.3,0.7-0.5s0.3-0.5,0.3-0.8c0.2-0.3,0.2-0.7,0.2-1v-0.5c0-0.3,0-0.7-0.2-1s-0.2-0.5-0.3-0.8c-0.2-0.2-0.3-0.3-0.7-0.5
			c-0.3-0.2-0.7-0.2-1-0.2h-0.7V317.5z"/>
	</g>
	<g>
		<path class="st4" d="M462.5,411.2h3.5v0.8h-4.3v-7.2h0.8V411.2z"/>
		<path class="st4" d="M471,410.1h-2.3l-0.5,1.8h-0.8l2.3-7.2h0.8l2.3,7.2H472L471,410.1z M468.8,409.4h1.8l-1-3.2L468.8,409.4z"/>
		<path class="st4" d="M478.1,411.1c-0.3,0.3-0.7,0.7-1,0.8c-0.3,0.2-0.8,0.3-1.3,0.2c-0.3,0-0.5,0-0.8-0.2
			c-0.2-0.2-0.5-0.2-0.7-0.3c-0.2-0.2-0.3-0.3-0.5-0.5s-0.3-0.5-0.3-0.7c-0.2-0.2-0.2-0.5-0.2-0.8s0-0.5,0-0.8V408
			c0-0.3,0-0.5,0-0.8s0.2-0.5,0.2-0.8s0.2-0.5,0.3-0.7s0.3-0.3,0.5-0.5s0.3-0.3,0.7-0.3s0.5-0.2,0.8-0.2s0.7,0,1,0.2
			s0.5,0.3,0.7,0.5s0.3,0.5,0.5,0.7c0.2,0.3,0.2,0.5,0.2,0.8h-0.8c0-0.2-0.2-0.3-0.2-0.5s-0.2-0.3-0.3-0.5c-0.2-0.2-0.3-0.2-0.5-0.3
			c-0.2,0-0.3-0.2-0.7-0.2c-0.2,0-0.3,0-0.5,0.2c-0.2,0-0.3,0.2-0.5,0.3s-0.2,0.3-0.3,0.5c0,0.2-0.2,0.3-0.2,0.5s-0.2,0.3-0.2,0.5
			s0,0.3,0,0.5v0.8c0,0.2,0,0.3,0,0.5s0,0.3,0.2,0.5s0.2,0.3,0.2,0.5s0.2,0.3,0.3,0.5s0.3,0.2,0.5,0.3c0.2,0,0.3,0.2,0.5,0.2
			s0.3,0,0.3,0c0.2,0,0.3,0,0.3,0s0.2-0.2,0.3-0.2c0.2,0,0.2-0.2,0.3-0.3V409h-1.5v-0.8h2.3L478.1,411.1z"/>
		<path class="st4" d="M483.5,408.7h-3v2.5h3.5v0.8h-4.3v-7.2h4.3v0.8h-3.5v2.3h3V408.7z"/>
		<path class="st4" d="M489.1,410.2c0-0.2,0-0.3-0.2-0.5s-0.2-0.3-0.3-0.3c-0.2-0.2-0.3-0.2-0.5-0.3s-0.3-0.2-0.5-0.2
			c-0.3,0-0.5-0.2-0.8-0.3c-0.3-0.2-0.5-0.3-0.7-0.5s-0.3-0.3-0.5-0.7c-0.2-0.2-0.2-0.5-0.2-0.8s0-0.5,0.2-0.8
			c0.2-0.2,0.3-0.5,0.5-0.7s0.5-0.3,0.7-0.3s0.5-0.2,0.8-0.2s0.7,0,0.8,0.2c0.3,0.2,0.5,0.2,0.8,0.5s0.3,0.3,0.5,0.7
			s0.2,0.5,0.2,0.8h-1c0-0.2,0-0.3-0.2-0.5s-0.2-0.3-0.3-0.5s-0.3-0.2-0.5-0.3c-0.2,0-0.3-0.2-0.5-0.2s-0.3,0-0.5,0
			s-0.3,0.2-0.5,0.2c-0.2,0.2-0.2,0.2-0.3,0.3s-0.2,0.3-0.2,0.5s0,0.3,0.2,0.5s0.2,0.3,0.3,0.3c0.2,0.2,0.3,0.2,0.5,0.2
			s0.3,0.2,0.5,0.2s0.3,0.2,0.5,0.2s0.3,0.2,0.5,0.2s0.3,0.2,0.5,0.3s0.3,0.2,0.3,0.3c0.2,0.2,0.2,0.3,0.3,0.5
			c0,0.2,0.2,0.3,0.2,0.5c0,0.3,0,0.7-0.2,0.8s-0.3,0.5-0.5,0.7s-0.5,0.3-0.8,0.3s-0.5,0.2-0.8,0.2s-0.7,0-1-0.2s-0.5-0.2-0.8-0.5
			c-0.2-0.2-0.5-0.3-0.7-0.7c-0.2-0.3-0.2-0.5-0.2-0.8h1c0,0.2,0.2,0.3,0.2,0.7c0.2,0.2,0.2,0.3,0.3,0.5c0.2,0.2,0.3,0.2,0.5,0.3
			c0.2,0.2,0.3,0.2,0.7,0.2c0.2,0,0.3,0,0.5,0s0.3-0.2,0.5-0.2c0.2-0.2,0.2-0.2,0.3-0.3C489.1,410.6,489.1,410.4,489.1,410.2z"/>
		<path class="st4" d="M495.5,408.7h-3v2.5h3.5v0.8h-4.3v-7.2h4.3v0.8h-3.5v2.3h3V408.7z"/>
		<path class="st4" d="M501.9,412.1h-1l-2.8-5.3v5.3h-0.8v-7.2h1l2.8,5.3v-5.3h0.8V412.1z"/>
		<path class="st4" d="M507.3,410.2c0-0.2,0-0.3-0.2-0.5s-0.2-0.3-0.3-0.3c-0.2-0.2-0.3-0.2-0.5-0.3s-0.3-0.2-0.5-0.2
			c-0.3,0-0.5-0.2-0.8-0.3c-0.3-0.2-0.5-0.3-0.7-0.5s-0.3-0.3-0.5-0.7c-0.2-0.2-0.2-0.5-0.2-0.8s0-0.5,0.2-0.8
			c0.2-0.2,0.3-0.5,0.5-0.7s0.5-0.3,0.7-0.3s0.5-0.2,0.8-0.2s0.7,0,0.8,0.2c0.3,0.2,0.5,0.2,0.8,0.5s0.3,0.3,0.5,0.7
			s0.2,0.5,0.2,0.8h-1c0-0.2,0-0.3-0.2-0.5s-0.2-0.3-0.3-0.5s-0.3-0.2-0.5-0.3c-0.2,0-0.3-0.2-0.5-0.2s-0.3,0-0.5,0
			s-0.3,0.2-0.5,0.2c-0.2,0.2-0.2,0.2-0.3,0.3s-0.2,0.3-0.2,0.5s0,0.3,0.2,0.5s0.2,0.3,0.3,0.3c0.2,0.2,0.3,0.2,0.5,0.2
			s0.3,0.2,0.5,0.2s0.3,0.2,0.5,0.2s0.3,0.2,0.5,0.2s0.3,0.2,0.5,0.3s0.3,0.2,0.3,0.3c0.2,0.2,0.2,0.3,0.3,0.5
			c0,0.2,0.2,0.3,0.2,0.5c0,0.3,0,0.7-0.2,0.8s-0.3,0.5-0.5,0.7s-0.5,0.3-0.8,0.3s-0.5,0.2-0.8,0.2s-0.7,0-1-0.2s-0.5-0.2-0.8-0.5
			c-0.2-0.2-0.5-0.3-0.7-0.7c-0.2-0.3-0.2-0.5-0.2-0.8h1c0,0.2,0.2,0.3,0.2,0.7c0.2,0.2,0.2,0.3,0.3,0.5c0.2,0.2,0.3,0.2,0.5,0.3
			s0.3,0.2,0.7,0.2c0.2,0,0.3,0,0.5,0s0.3-0.2,0.5-0.2c0.2-0.2,0.2-0.2,0.3-0.3C507.1,410.6,507.3,410.4,507.3,410.2z"/>
		<path class="st4" d="M514.1,408.9c0,0.3,0,0.5,0,0.8s-0.2,0.5-0.2,0.8s-0.2,0.5-0.3,0.7c-0.2,0.2-0.3,0.3-0.5,0.5
			s-0.3,0.3-0.7,0.3c-0.2,0.2-0.5,0.2-0.8,0.2s-0.5,0-0.8-0.2c-0.2-0.2-0.5-0.2-0.7-0.3c-0.2-0.2-0.3-0.3-0.5-0.5s-0.2-0.5-0.3-0.7
			c-0.2-0.2-0.2-0.5-0.2-0.7s0-0.5,0-0.8v-0.8c0-0.3,0-0.5,0-0.8s0.2-0.5,0.2-0.8c0.2-0.2,0.2-0.5,0.3-0.7c0.2-0.2,0.3-0.3,0.5-0.5
			s0.3-0.3,0.7-0.3c0.2-0.2,0.5-0.2,0.8-0.2s0.5,0,0.8,0.2c0.2,0.2,0.5,0.2,0.7,0.3c0.2,0.2,0.3,0.3,0.5,0.5s0.2,0.5,0.3,0.7
			c0.2,0.2,0.2,0.5,0.2,0.8s0,0.5,0,0.8V408.9z M513.3,408.1c0-0.2,0-0.3,0-0.5s0-0.3-0.2-0.5c0-0.2-0.2-0.3-0.2-0.5
			s-0.2-0.3-0.3-0.5c-0.2-0.2-0.3-0.2-0.3-0.3c-0.2,0-0.3-0.2-0.5-0.2s-0.3,0-0.5,0.2s-0.3,0.2-0.3,0.3c-0.2,0.2-0.2,0.3-0.3,0.5
			c-0.2,0.2-0.2,0.3-0.2,0.5s0,0.3-0.2,0.5s0,0.3,0,0.5v0.8c0,0.2,0,0.3,0,0.5s0,0.3,0.2,0.5c0,0.2,0.2,0.3,0.2,0.5s0.2,0.3,0.3,0.5
			c0.2,0.2,0.3,0.2,0.3,0.3c0,0.2,0.3,0.2,0.5,0.2s0.3,0,0.5-0.2c0.2,0,0.3-0.2,0.3-0.3c0.2-0.2,0.2-0.3,0.3-0.5
			c0-0.2,0.2-0.3,0.2-0.5s0-0.3,0.2-0.5s0-0.3,0-0.5V408.1z"/>
		<path class="st4" d="M517.8,409.1h-1.5v2.8h-0.8v-7.2h2.2c0.3,0,0.7,0,1,0.2s0.5,0.2,0.8,0.3c0.2,0.2,0.3,0.3,0.5,0.7
			s0.2,0.5,0.2,1c0,0.2,0,0.5-0.2,0.7s-0.2,0.3-0.3,0.5c-0.2,0.2-0.3,0.3-0.5,0.3s-0.3,0.2-0.5,0.3l1.5,3l0,0h-0.8L517.8,409.1z
			 M516.4,408.4h1.2c0.2,0,0.3,0,0.5-0.2s0.3-0.2,0.5-0.3c0.2-0.2,0.2-0.3,0.3-0.5c0-0.2,0.2-0.3,0.2-0.5s0-0.5-0.2-0.7
			c0-0.2-0.2-0.3-0.3-0.5c-0.2-0.2-0.3-0.2-0.5-0.3s-0.3-0.2-0.7-0.2h-1.2v3.2H516.4z"/>
	</g>
	<g>
		<path class="st4" d="M496.8,207.4h-1.5v2.8h-0.8V203h2.2c0.3,0,0.7,0,1,0.2s0.5,0.2,0.8,0.3c0.2,0.2,0.3,0.3,0.5,0.7
			c0.2,0.3,0.2,0.5,0.2,1c0,0.2,0,0.5-0.2,0.7s-0.2,0.3-0.3,0.5c-0.2,0.2-0.3,0.3-0.5,0.3s-0.3,0.2-0.5,0.3l1.5,3l0,0h-1
			L496.8,207.4z M495.3,206.7h1.2c0.2,0,0.3,0,0.5-0.2c0.2,0,0.3-0.2,0.5-0.3s0.2-0.3,0.3-0.3c0-0.2,0.2-0.3,0.2-0.5s0-0.5-0.2-0.7
			c0-0.2-0.2-0.3-0.3-0.5c-0.2-0.2-0.3-0.2-0.5-0.3s-0.3-0.2-0.7-0.2h-1.2v3H495.3z"/>
		<path class="st4" d="M504.3,207h-3v2.5h3.5v0.8h-4.3v-7.2h4.3v0.8h-3.5v2.3h3V207z"/>
		<path class="st4" d="M510.1,208.5c0-0.2,0-0.3-0.2-0.5s-0.2-0.3-0.3-0.3c-0.2-0.2-0.3-0.2-0.5-0.3s-0.3-0.2-0.5-0.2
			c-0.3,0-0.5-0.2-0.8-0.3s-0.5-0.3-0.7-0.5s-0.3-0.3-0.5-0.7c-0.2-0.2-0.2-0.5-0.2-0.8s0-0.5,0.2-0.8c0.2-0.2,0.3-0.5,0.5-0.7
			s0.5-0.3,0.7-0.3c0.3-0.2,0.5-0.2,0.8-0.2s0.7,0,0.8,0.2c0.3,0.2,0.5,0.2,0.8,0.5s0.3,0.3,0.5,0.7s0.2,0.5,0.2,0.8h-1
			c0-0.2,0-0.3-0.2-0.5c0-0.2-0.2-0.3-0.3-0.5s-0.3-0.2-0.5-0.3c-0.2,0-0.3-0.2-0.5-0.2s-0.3,0-0.5,0s-0.3,0.2-0.5,0.2
			c-0.2,0.2-0.2,0.2-0.3,0.3s-0.2,0.3-0.2,0.5s0,0.3,0.2,0.5s0.2,0.3,0.3,0.3c0.2,0.2,0.3,0.2,0.5,0.2s0.3,0.2,0.5,0.2
			s0.3,0.2,0.5,0.2s0.3,0.2,0.5,0.2s0.3,0.2,0.5,0.3c0.2,0.2,0.3,0.2,0.3,0.3c0.2,0.2,0.2,0.3,0.3,0.5c0,0.2,0.2,0.3,0.2,0.5
			c0,0.3,0,0.7-0.2,0.8c-0.2,0.2-0.3,0.5-0.5,0.7s-0.5,0.3-0.8,0.3s-0.5,0.2-0.8,0.2s-0.7,0-1-0.2s-0.5-0.2-0.8-0.5
			c-0.2-0.2-0.5-0.3-0.7-0.7c-0.2-0.3-0.2-0.5-0.2-0.8h1c0,0.2,0.2,0.3,0.2,0.7c0.2,0.2,0.2,0.3,0.3,0.5c0.2,0.2,0.3,0.2,0.5,0.3
			c0.2,0,0.3,0.2,0.7,0.2c0.2,0,0.3,0,0.5,0s0.3-0.2,0.5-0.2c0.2-0.2,0.2-0.2,0.3-0.3C510.1,208.9,510.1,208.7,510.1,208.5z"/>
		<path class="st4" d="M516.3,207h-3v2.5h3.5v0.8h-4.3v-7.2h4.3v0.8h-3.5v2.3h3V207z"/>
		<path class="st4" d="M523.1,204h-2.2v6.3h-0.8V204h-2.2v-0.8h5.3L523.1,204L523.1,204z"/>
	</g>
	<g>
		<g>
			<path class="st4" d="M626.3,229.7c1.3,0,2.5,0.3,3.3,0.8s1.2,1.3,1.2,2.5c0,0.5-0.2,1-0.5,1.5s-0.7,0.8-1.3,1
				c0.7,0.2,1.2,0.5,1.7,1c0.3,0.5,0.5,1,0.5,1.7c0,1.2-0.3,2-1.2,2.5c-0.7,0.7-1.8,0.8-3.2,0.8H621V240l1.3-0.2v-8.5l-1.3-0.2v-1.5
				h1.3L626.3,229.7L626.3,229.7z M624.6,234.5h1.7c0.7,0,1.2-0.2,1.5-0.3c0.3-0.2,0.5-0.7,0.5-1.2s-0.2-1-0.5-1.2
				c-0.3-0.3-0.8-0.3-1.5-0.3h-1.7V234.5z M624.6,236.2v3.5h2.2c0.7,0,1.2-0.2,1.5-0.3c0.3-0.3,0.5-0.7,0.5-1.2s-0.2-1-0.5-1.3
				s-0.7-0.5-1.3-0.5h-2.3v-0.2H624.6z"/>
		</g>
		<g>
			<polygon class="st4" points="634.1,253.3 631.3,251.8 632.8,254.6 			"/>
			<path class="st4" d="M638.1,245.6c-2.2-2.2-5.7-2.2-7.7,0l-2,2c-2.2,2.2-2.2,5.7,0,7.7l7,7l9.8-9.8L638.1,245.6z M636.6,254.5
				l-1.7-0.8l-1.7,1.7l0.8,1.7l-0.7,0.7l-3.3-6.7l0.5-0.5l6.7,3.5L636.6,254.5z M634.4,248.3l-0.8,1.8l-0.5-0.7l1.2-2.7l0,0l5,5
				l-0.7,0.7L634.4,248.3z"/>
		</g>
	</g>
	<g>
		<g>
			<path class="st4" d="M389.8,240.3l0.8-0.2l3.7-10.3h2.5l3.5,10.3l0.8,0.2v1.5h-4v-1.5l0.8-0.2l-0.5-1.7h-3.8l-0.5,1.7l0.8,0.2
				v1.5h-4L389.8,240.3L389.8,240.3z M394.1,236.8h2.7l-1.3-4.2l0,0L394.1,236.8z"/>
		</g>
		<g>
			<path class="st4" d="M387.3,254.8c0,0.3,0.2,0.7,0.5,1s0.7,0.5,1.2,0.3c0.5-0.2,0.8-0.3,1.2-0.8l1.2-1.2l-3.5-0.5
				C387.3,254.1,387.3,254.5,387.3,254.8z"/>
			<path class="st4" d="M390.6,251.3c-0.3,0-0.8,0.3-1.2,0.8l-1.2,1.2l3.5,0.5c0.3-0.3,0.5-0.7,0.5-1s-0.2-0.7-0.5-1
				C391.4,251.3,391.1,251.1,390.6,251.3z"/>
			<polygon class="st4" points="385.9,251.3 387.4,248.5 384.6,250 			"/>
			<path class="st4" d="M393.4,248.1l-2-2c-2.2-2.2-5.7-2.2-7.7,0l-7,7l9.8,9.8l7-7C395.6,253.6,395.6,250.3,393.4,248.1z
				 M384.6,253.6l0.8-1.7l-1.7-1.7L382,251l-0.7-0.7l6.7-3.3l0.5,0.5l-3.5,6.7L384.6,253.6z M392.6,253.8c-0.2,0.3-0.5,0.7-0.7,1
				l-1.2,1.2c-0.3,0.3-0.7,0.5-1,0.7s-0.7,0.3-1,0.3s-0.7,0-0.8-0.2c-0.3-0.2-0.5-0.3-0.8-0.5c-0.3-0.3-0.5-0.5-0.5-0.8
				c-0.2-0.3-0.2-0.7-0.2-0.8c0-0.3,0.2-0.7,0.3-1c0.2-0.3,0.5-0.7,0.7-1l1.2-1.2c0.3-0.3,0.7-0.5,1-0.7s0.7-0.3,1-0.3
				s0.7,0,0.8,0.2c0.3,0.2,0.5,0.3,0.8,0.5c0.3,0.3,0.5,0.5,0.5,0.8c0.2,0.3,0.2,0.7,0.2,0.8S392.8,253.5,392.6,253.8z"/>
		</g>
	</g>
	<g>
		<path class="st4" d="M597.8,272.8h-7.3c-1.2,0-2,0.8-2,2c0,0,0,6.3,0,5.5c0-4.7-3.8-8.5-8.5-8.5s-8.5,3.8-8.5,8.5
			c0,0.7,0,5.7,0,9.3l-10,7.5c-6.7,5.2-3.2,15.8,5.3,15.8h2c0.8-6.2,2.8-13.8,6.7-18.5h0.2h9c4,4.7,5.7,12.3,6.5,18.5h2.8
			c3.2,0,5.7-2.5,5.7-5.7v-21.6v-11C599.8,273.6,598.8,272.8,597.8,272.8z M576.7,277.3h7v4.7c0,1.5-1.2,2.7-2.7,2.7h-1.5
			c-1.5,0-2.7-1.2-2.7-2.7L576.7,277.3L576.7,277.3z M575,290.9l3.2-6l1.8,6H575z M580.2,290.9l1.8-6l3.2,6H580.2z M589.8,285.6
			v-10.3h8.3v10.3H589.8z"/>
		<path class="st4" d="M586.8,312.9c-4.5-3.2-8.2-11.7-11-18.5v18.5H586.8z"/>
	</g>
	<polyline class="st8" points="523.9,207.2 536.7,207.2 539.6,204.4 539.6,192.2 542.1,189.6 547.2,189.6 	"/>
	<polyline class="st8" points="499.9,345 473,345 453,325 422.4,325 417.7,320 400.6,320 	"/>
	<polyline class="st8" points="417.9,331.5 422.4,331.5 426.6,327.4 445,327.4 455.2,337.7 	"/>
	<polyline class="st8" points="514.3,195.5 532.1,195.5 534.9,192.7 534.9,183.7 532.4,181.2 529.2,181.2 	"/>
	<polyline class="st8" points="563.4,331.2 586,331.2 588.8,334 588.8,356.3 	"/>
	<line class="st8" x1="588.3" y1="320" x2="609.3" y2="320"/>
	<polyline class="st8" points="501.9,381.1 466.2,381.1 452.4,395.8 452.4,403.4 458,409.2 	"/>
</g>
<g class="st9">
	<path class="st10" d="M729.5,226h4.4v1.5h-6.4v-10h2V226z"/>
	<path class="st10" d="M741.2,223.1H737v2.8h4.8v1.5H735v-10h6.8v1.5H737v2.5h4.1V223.1z"/>
	<path class="st10" d="M743.1,227.5v-10h3.4c1.2,0,2.2,0.4,3,1.2c0.8,0.8,1.2,1.8,1.2,3v1.6c0,1.2-0.4,2.2-1.2,3
		c-0.8,0.8-1.8,1.2-3,1.2H743.1z M745.1,219.1v6.9h1.3c0.7,0,1.3-0.2,1.7-0.7c0.4-0.5,0.6-1.1,0.6-1.9v-1.7c0-0.8-0.2-1.4-0.6-1.9
		c-0.4-0.5-1-0.7-1.7-0.7H745.1z"/>
	<path class="st10" d="M756,224h-3.9v-1.5h3.9V224z"/>
	<path class="st10" d="M759.7,223.9v3.6h-2v-10h4c1.1,0,2,0.3,2.7,0.9s1,1.4,1,2.3s-0.3,1.7-1,2.3s-1.6,0.9-2.7,0.9H759.7z
		 M759.7,222.4h2c0.6,0,1-0.2,1.3-0.5c0.3-0.3,0.4-0.7,0.4-1.2c0-0.5-0.1-0.9-0.4-1.2c-0.3-0.3-0.7-0.5-1.3-0.5h-2V222.4z"/>
	<path class="st10" d="M770.9,227.5c-0.1-0.2-0.1-0.3-0.2-0.5s-0.1-0.4-0.1-0.6c-0.2,0.4-0.5,0.7-0.8,0.9s-0.7,0.4-1.2,0.4
		c-0.8,0-1.4-0.2-1.8-0.6c-0.4-0.4-0.6-0.9-0.6-1.6c0-0.7,0.3-1.3,0.8-1.7c0.6-0.4,1.4-0.6,2.4-0.6h1.1v-0.6c0-0.4-0.1-0.6-0.3-0.8
		c-0.2-0.2-0.5-0.3-0.8-0.3c-0.3,0-0.6,0.1-0.7,0.2c-0.2,0.2-0.3,0.4-0.3,0.7l-1.9,0l0,0c0-0.6,0.2-1.2,0.8-1.6
		c0.6-0.5,1.3-0.7,2.3-0.7c0.9,0,1.6,0.2,2.2,0.7c0.6,0.4,0.8,1.1,0.8,1.9v3.1c0,0.3,0,0.7,0.1,1s0.1,0.6,0.3,0.9H770.9z
		 M769.1,226.2c0.4,0,0.7-0.1,0.9-0.3s0.5-0.4,0.6-0.6v-1h-1.1c-0.4,0-0.7,0.1-1,0.3c-0.2,0.2-0.3,0.5-0.3,0.8
		c0,0.2,0.1,0.4,0.2,0.6S768.8,226.2,769.1,226.2z"/>
	<path class="st10" d="M776,220.1l0.1,1.1c0.2-0.4,0.5-0.7,0.9-0.9c0.4-0.2,0.8-0.3,1.2-0.3c0.7,0,1.3,0.2,1.8,0.7
		c0.4,0.5,0.6,1.2,0.6,2.2v4.6h-2v-4.6c0-0.5-0.1-0.9-0.3-1.1c-0.2-0.2-0.5-0.3-0.9-0.3c-0.3,0-0.5,0.1-0.7,0.2
		c-0.2,0.1-0.4,0.3-0.5,0.5v5.4h-2v-7.4H776z"/>
	<path class="st10" d="M785.3,227.7c-1.1,0-1.9-0.3-2.6-1c-0.6-0.7-1-1.6-1-2.6v-0.3c0-1.1,0.3-2,0.9-2.7s1.4-1.1,2.4-1.1
		c1,0,1.8,0.3,2.3,0.9c0.6,0.6,0.8,1.4,0.8,2.4v1.1h-4.4l0,0c0,0.5,0.2,0.9,0.5,1.2s0.7,0.5,1.2,0.5c0.4,0,0.8,0,1.1-0.1
		c0.3-0.1,0.6-0.2,1-0.4l0.5,1.2c-0.3,0.2-0.7,0.5-1.2,0.6C786.4,227.6,785.9,227.7,785.3,227.7z M785.1,221.5
		c-0.4,0-0.7,0.1-0.9,0.4c-0.2,0.3-0.3,0.7-0.4,1.1l0,0h2.4v-0.2c0-0.4-0.1-0.8-0.3-1C785.8,221.6,785.5,221.5,785.1,221.5z"/>
	<path class="st10" d="M791.5,227.5h-2v-10.7h2V227.5z"/>
</g>
<g>
	<rect x="466" y="224" class="st11" width="90.3" height="90"/>
	<rect x="466" y="224" class="st12" width="90.3" height="90"/>
</g>
<line class="st13" x1="556.3" y1="224" x2="722.7" y2="224"/>
<line class="st13" x1="617.3" y1="250" x2="722.7" y2="250"/>
<g class="st9">
	<path class="st10" d="M730.6,249.4h-1.1v4.2h-2v-10h2v4.1h0.9l2.6-4.1h2.4l-3.3,4.6l3.6,5.3h-2.4L730.6,249.4z"/>
	<path class="st10" d="M738.2,246.1l0.1,1.1c0.2-0.4,0.5-0.7,0.9-0.9c0.4-0.2,0.8-0.3,1.2-0.3c0.7,0,1.3,0.2,1.8,0.7
		c0.4,0.5,0.6,1.2,0.6,2.2v4.6h-2v-4.6c0-0.5-0.1-0.9-0.3-1.1c-0.2-0.2-0.5-0.3-0.9-0.3c-0.3,0-0.5,0.1-0.7,0.2
		c-0.2,0.1-0.4,0.3-0.5,0.5v5.4h-2v-7.4H738.2z"/>
	<path class="st10" d="M743.9,249.7c0-1.1,0.3-2,0.9-2.7c0.6-0.7,1.5-1.1,2.6-1.1c1.1,0,2,0.4,2.6,1.1c0.6,0.7,0.9,1.6,0.9,2.7v0.1
		c0,1.1-0.3,2-0.9,2.7c-0.6,0.7-1.5,1-2.6,1c-1.1,0-1.9-0.3-2.6-1c-0.6-0.7-0.9-1.6-0.9-2.7V249.7z M745.9,249.9
		c0,0.7,0.1,1.2,0.4,1.6c0.2,0.4,0.6,0.6,1.1,0.6c0.5,0,0.9-0.2,1.1-0.6s0.4-0.9,0.4-1.6v-0.1c0-0.7-0.1-1.2-0.4-1.6
		c-0.2-0.4-0.6-0.6-1.1-0.6c-0.5,0-0.9,0.2-1.1,0.6c-0.2,0.4-0.4,0.9-0.4,1.6V249.9z"/>
	<path class="st10" d="M758.8,250c0,1.1-0.3,2-0.8,2.6s-1.2,1-2.1,1c-0.4,0-0.7-0.1-1-0.2c-0.3-0.1-0.6-0.4-0.8-0.6v3.5h-2v-10.2
		h1.8l0.1,0.9c0.2-0.3,0.5-0.6,0.8-0.7c0.3-0.2,0.7-0.3,1.1-0.3c0.9,0,1.6,0.4,2.1,1.1s0.8,1.7,0.8,2.8V250z M756.8,249.9
		c0-0.7-0.1-1.3-0.3-1.7s-0.6-0.7-1.1-0.7c-0.3,0-0.6,0.1-0.8,0.2c-0.2,0.1-0.4,0.3-0.5,0.5v3.2c0.1,0.2,0.3,0.4,0.5,0.5
		s0.5,0.2,0.8,0.2c0.5,0,0.8-0.2,1.1-0.6s0.3-0.9,0.3-1.5V249.9z"/>
	<path class="st10" d="M760.6,253.5v-6h-1.1v-1.4h1.1v-0.8c0-0.8,0.2-1.5,0.7-1.9c0.5-0.4,1.2-0.7,2-0.7c0.2,0,0.3,0,0.5,0
		c0.2,0,0.4,0.1,0.6,0.1l-0.2,1.5c-0.1,0-0.2,0-0.3,0s-0.2,0-0.4,0c-0.3,0-0.6,0.1-0.7,0.3s-0.3,0.4-0.3,0.8v0.8h1.5v1.4h-1.5v6
		H760.6z"/>
	<path class="st10" d="M768.7,253.5v-10h3.4c1.2,0,2.1,0.2,2.7,0.7s1,1.1,1,2c0,0.5-0.1,0.9-0.4,1.2c-0.2,0.4-0.6,0.6-1.1,0.8
		c0.6,0.1,1,0.4,1.3,0.8s0.4,0.9,0.4,1.5c0,1-0.3,1.7-0.9,2.2c-0.6,0.5-1.5,0.7-2.7,0.7H768.7z M770.7,247.7h1.4
		c0.5,0,0.9-0.1,1.2-0.3s0.4-0.5,0.4-1c0-0.5-0.1-0.8-0.4-1s-0.7-0.3-1.3-0.3h-1.4V247.7z M770.7,249.1v2.9h1.8
		c0.5,0,0.9-0.1,1.2-0.3c0.3-0.2,0.4-0.6,0.4-1c0-0.5-0.1-0.9-0.4-1.1c-0.2-0.3-0.6-0.4-1.1-0.4H770.7z"/>
</g>
<line class="st13" x1="302.3" y1="250" x2="407.7" y2="250"/>
<g class="st9">
	<path class="st10" d="M250.5,249.4h-1.1v4.2h-2v-10h2v4.1h0.9l2.6-4.1h2.4l-3.3,4.6l3.6,5.3h-2.4L250.5,249.4z"/>
	<path class="st10" d="M258.1,246.1l0.1,1.1c0.2-0.4,0.5-0.7,0.9-0.9s0.8-0.3,1.2-0.3c0.7,0,1.3,0.2,1.8,0.7s0.6,1.2,0.6,2.2v4.6h-2
		v-4.6c0-0.5-0.1-0.9-0.3-1.1s-0.5-0.3-0.9-0.3c-0.3,0-0.5,0.1-0.7,0.2s-0.4,0.3-0.5,0.5v5.4h-2v-7.4H258.1z"/>
	<path class="st10" d="M263.9,249.7c0-1.1,0.3-2,0.9-2.7c0.6-0.7,1.5-1.1,2.6-1.1c1.1,0,2,0.4,2.6,1.1s0.9,1.6,0.9,2.7v0.1
		c0,1.1-0.3,2-0.9,2.7c-0.6,0.7-1.5,1-2.6,1c-1.1,0-1.9-0.3-2.6-1c-0.6-0.7-0.9-1.6-0.9-2.7V249.7z M265.9,249.9
		c0,0.7,0.1,1.2,0.4,1.6c0.2,0.4,0.6,0.6,1.1,0.6c0.5,0,0.9-0.2,1.1-0.6s0.4-0.9,0.4-1.6v-0.1c0-0.7-0.1-1.2-0.4-1.6
		s-0.6-0.6-1.1-0.6c-0.5,0-0.9,0.2-1.1,0.6c-0.2,0.4-0.4,0.9-0.4,1.6V249.9z"/>
	<path class="st10" d="M278.8,250c0,1.1-0.3,2-0.8,2.6s-1.2,1-2.1,1c-0.4,0-0.7-0.1-1-0.2c-0.3-0.1-0.6-0.4-0.8-0.6v3.5h-2v-10.2
		h1.8l0.1,0.9c0.2-0.3,0.5-0.6,0.8-0.7c0.3-0.2,0.7-0.3,1.1-0.3c0.9,0,1.6,0.4,2.1,1.1s0.8,1.7,0.8,2.8V250z M276.8,249.9
		c0-0.7-0.1-1.3-0.3-1.7s-0.6-0.7-1.1-0.7c-0.3,0-0.6,0.1-0.8,0.2c-0.2,0.1-0.4,0.3-0.5,0.5v3.2c0.1,0.2,0.3,0.4,0.5,0.5
		s0.5,0.2,0.8,0.2c0.5,0,0.8-0.2,1.1-0.6s0.3-0.9,0.3-1.5V249.9z"/>
	<path class="st10" d="M280.5,253.5v-6h-1.1v-1.4h1.1v-0.8c0-0.8,0.2-1.5,0.7-1.9c0.5-0.4,1.2-0.7,2-0.7c0.2,0,0.3,0,0.5,0
		c0.2,0,0.4,0.1,0.6,0.1l-0.2,1.5c-0.1,0-0.2,0-0.3,0s-0.2,0-0.4,0c-0.3,0-0.6,0.1-0.7,0.3s-0.2,0.4-0.2,0.8v0.8h1.5v1.4h-1.5v6
		H280.5z"/>
	<path class="st10" d="M288.7,253.5v-10h3.4c1.2,0,2.1,0.2,2.7,0.7s1,1.1,1,2c0,0.5-0.1,0.9-0.4,1.2c-0.2,0.4-0.6,0.6-1.1,0.8
		c0.6,0.1,1,0.4,1.3,0.8s0.4,0.9,0.4,1.5c0,1-0.3,1.7-0.9,2.2c-0.6,0.5-1.5,0.7-2.7,0.7H288.7z M290.7,247.7h1.4
		c0.5,0,0.9-0.1,1.2-0.3s0.4-0.5,0.4-1c0-0.5-0.1-0.8-0.4-1s-0.7-0.3-1.3-0.3h-1.4V247.7z M290.7,249.1v2.9h1.8
		c0.5,0,0.9-0.1,1.2-0.3c0.3-0.2,0.4-0.6,0.4-1c0-0.5-0.1-0.9-0.4-1.1s-0.6-0.4-1.1-0.4H290.7z"/>
</g>
<g class="st9">
	<path class="st10" d="M401.9,531.4v3.6h-2v-10h4c1.1,0,2,0.3,2.7,0.9s1,1.4,1,2.3s-0.3,1.7-1,2.3s-1.6,0.9-2.7,0.9H401.9z
		 M401.9,529.9h2c0.6,0,1-0.2,1.3-0.5c0.3-0.3,0.4-0.7,0.4-1.2c0-0.5-0.1-0.9-0.4-1.2c-0.3-0.3-0.7-0.5-1.3-0.5h-2V529.9z"/>
	<path class="st10" d="M413.3,535h-2v-8.2h-2v-1.4l4-0.4V535z"/>
	<path class="st10" d="M424.7,535c-0.1-0.2-0.1-0.3-0.2-0.5s-0.1-0.4-0.1-0.6c-0.2,0.4-0.5,0.7-0.8,0.9s-0.7,0.4-1.2,0.4
		c-0.8,0-1.4-0.2-1.8-0.6c-0.4-0.4-0.6-0.9-0.6-1.6c0-0.7,0.3-1.3,0.8-1.7c0.6-0.4,1.4-0.6,2.4-0.6h1.1V530c0-0.4-0.1-0.6-0.3-0.8
		s-0.5-0.3-0.8-0.3c-0.3,0-0.6,0.1-0.7,0.2c-0.2,0.2-0.3,0.4-0.3,0.7l-1.9,0l0,0c0-0.6,0.2-1.2,0.8-1.6c0.6-0.5,1.3-0.7,2.3-0.7
		c0.9,0,1.6,0.2,2.2,0.7c0.6,0.4,0.8,1.1,0.8,1.9v3.1c0,0.3,0,0.7,0.1,1s0.1,0.6,0.2,0.9H424.7z M422.9,533.7c0.4,0,0.7-0.1,0.9-0.3
		s0.5-0.4,0.6-0.6v-1h-1.1c-0.4,0-0.7,0.1-1,0.3c-0.2,0.2-0.3,0.5-0.3,0.8c0,0.2,0.1,0.4,0.2,0.6S422.6,533.7,422.9,533.7z"/>
	<path class="st10" d="M430,535h-2v-10.7h2V535z"/>
	<path class="st10" d="M435.6,533c0-0.2-0.1-0.4-0.3-0.6s-0.6-0.3-1.2-0.4c-0.9-0.2-1.5-0.4-2-0.8c-0.4-0.3-0.7-0.8-0.7-1.4
		c0-0.6,0.3-1.2,0.8-1.6c0.5-0.4,1.3-0.7,2.1-0.7c0.9,0,1.7,0.2,2.3,0.7s0.8,1,0.8,1.7l0,0h-1.9c0-0.3-0.1-0.5-0.3-0.7
		s-0.5-0.3-0.8-0.3c-0.3,0-0.6,0.1-0.8,0.2c-0.2,0.2-0.3,0.4-0.3,0.6c0,0.2,0.1,0.4,0.3,0.6s0.6,0.3,1.2,0.4c0.9,0.2,1.6,0.5,2,0.8
		c0.4,0.4,0.7,0.8,0.7,1.5c0,0.7-0.3,1.2-0.9,1.6c-0.6,0.4-1.3,0.6-2.3,0.6c-1,0-1.8-0.2-2.3-0.7c-0.6-0.5-0.8-1.1-0.8-1.7l0,0h1.8
		c0,0.4,0.1,0.7,0.4,0.9s0.6,0.3,1,0.3c0.4,0,0.7-0.1,0.8-0.2S435.6,533.2,435.6,533z"/>
</g>
<g class="st9">
	<path class="st10" d="M370.3,549.4c-0.1-0.2-0.1-0.3-0.2-0.5s-0.1-0.4-0.1-0.6c-0.2,0.4-0.5,0.7-0.8,0.9s-0.7,0.4-1.2,0.4
		c-0.8,0-1.4-0.2-1.8-0.6c-0.4-0.4-0.6-0.9-0.6-1.6c0-0.7,0.3-1.3,0.8-1.7c0.6-0.4,1.4-0.6,2.4-0.6h1.1v-0.6c0-0.4-0.1-0.6-0.3-0.8
		s-0.5-0.3-0.8-0.3c-0.3,0-0.6,0.1-0.7,0.2c-0.2,0.2-0.3,0.4-0.3,0.7l-1.9,0l0,0c0-0.6,0.2-1.2,0.8-1.6c0.6-0.5,1.3-0.7,2.3-0.7
		c0.9,0,1.6,0.2,2.2,0.7c0.6,0.4,0.8,1.1,0.8,1.9v3.1c0,0.3,0,0.7,0.1,1s0.1,0.6,0.2,0.9H370.3z M368.5,548.1c0.4,0,0.7-0.1,0.9-0.3
		s0.5-0.4,0.6-0.6v-1h-1.1c-0.4,0-0.7,0.1-1,0.3c-0.2,0.2-0.3,0.5-0.3,0.8c0,0.2,0.1,0.4,0.2,0.6S368.2,548.1,368.5,548.1z"/>
	<path class="st10" d="M375.3,542l0.1,1.1c0.2-0.4,0.5-0.7,0.9-0.9s0.8-0.3,1.2-0.3c0.7,0,1.3,0.2,1.8,0.7s0.6,1.2,0.6,2.2v4.6h-2
		v-4.6c0-0.5-0.1-0.9-0.3-1.1s-0.5-0.3-0.9-0.3c-0.3,0-0.5,0.1-0.7,0.2s-0.4,0.3-0.5,0.5v5.4h-2V542H375.3z"/>
	<path class="st10" d="M385.7,549.4c-0.1-0.2-0.1-0.3-0.2-0.5s-0.1-0.4-0.1-0.6c-0.2,0.4-0.5,0.7-0.8,0.9s-0.7,0.4-1.2,0.4
		c-0.8,0-1.4-0.2-1.8-0.6c-0.4-0.4-0.6-0.9-0.6-1.6c0-0.7,0.3-1.3,0.8-1.7c0.6-0.4,1.4-0.6,2.4-0.6h1.1v-0.6c0-0.4-0.1-0.6-0.3-0.8
		s-0.5-0.3-0.8-0.3c-0.3,0-0.6,0.1-0.7,0.2c-0.2,0.2-0.3,0.4-0.3,0.7l-1.9,0l0,0c0-0.6,0.2-1.2,0.8-1.6c0.6-0.5,1.3-0.7,2.3-0.7
		c0.9,0,1.6,0.2,2.2,0.7c0.6,0.4,0.8,1.1,0.8,1.9v3.1c0,0.3,0,0.7,0.1,1s0.1,0.6,0.2,0.9H385.7z M383.9,548.1c0.4,0,0.7-0.1,0.9-0.3
		s0.5-0.4,0.6-0.6v-1h-1.1c-0.4,0-0.7,0.1-1,0.3c-0.2,0.2-0.3,0.5-0.3,0.8c0,0.2,0.1,0.4,0.2,0.6S383.6,548.1,383.9,548.1z"/>
	<path class="st10" d="M391,549.4h-2v-10.7h2V549.4z"/>
	<path class="st10" d="M392.3,545.6c0-1.1,0.3-2,0.9-2.7c0.6-0.7,1.5-1.1,2.6-1.1c1.1,0,2,0.4,2.6,1.1s0.9,1.6,0.9,2.7v0.1
		c0,1.1-0.3,2-0.9,2.7c-0.6,0.7-1.5,1-2.6,1c-1.1,0-1.9-0.3-2.6-1c-0.6-0.7-0.9-1.6-0.9-2.7V545.6z M394.3,545.8
		c0,0.7,0.1,1.2,0.4,1.6c0.2,0.4,0.6,0.6,1.1,0.6c0.5,0,0.9-0.2,1.1-0.6s0.4-0.9,0.4-1.6v-0.1c0-0.7-0.1-1.2-0.4-1.6
		s-0.6-0.6-1.1-0.6c-0.5,0-0.9,0.2-1.1,0.6c-0.2,0.4-0.4,0.9-0.4,1.6V545.8z"/>
	<path class="st10" d="M400.2,545.8c0-1.2,0.3-2.1,0.8-2.8s1.2-1.1,2.1-1.1c0.4,0,0.8,0.1,1.1,0.3s0.6,0.5,0.8,0.8l0.2-0.9h1.7v7.4
		c0,1-0.3,1.7-0.9,2.2c-0.6,0.5-1.5,0.8-2.6,0.8c-0.4,0-0.8-0.1-1.2-0.2c-0.4-0.1-0.8-0.2-1.2-0.4l0.4-1.5c0.3,0.1,0.6,0.3,0.9,0.3
		c0.3,0.1,0.7,0.1,1,0.1c0.5,0,0.9-0.1,1.2-0.3s0.4-0.6,0.4-1.1v-0.7c-0.2,0.3-0.5,0.5-0.8,0.6s-0.6,0.2-1,0.2c-0.9,0-1.6-0.3-2.1-1
		c-0.5-0.7-0.8-1.5-0.8-2.6V545.8z M402.2,545.9c0,0.7,0.1,1.2,0.3,1.5c0.2,0.4,0.6,0.6,1.1,0.6c0.3,0,0.6-0.1,0.8-0.2
		c0.2-0.1,0.4-0.3,0.5-0.5v-3.2c-0.1-0.2-0.3-0.4-0.5-0.5s-0.5-0.2-0.8-0.2c-0.5,0-0.8,0.2-1.1,0.7s-0.3,1-0.3,1.7V545.9z"/>
	<path class="st10" d="M411.7,549.5c-1.1,0-1.9-0.3-2.6-1s-1-1.6-1-2.6v-0.3c0-1.1,0.3-2,0.9-2.7s1.4-1.1,2.4-1.1
		c1,0,1.8,0.3,2.3,0.9s0.8,1.4,0.8,2.4v1.1h-4.4l0,0c0,0.5,0.2,0.9,0.5,1.2s0.7,0.5,1.2,0.5c0.4,0,0.8,0,1.1-0.1
		c0.3-0.1,0.6-0.2,1-0.4l0.5,1.2c-0.3,0.2-0.7,0.5-1.2,0.6C412.9,549.5,412.3,549.5,411.7,549.5z M411.6,543.4
		c-0.4,0-0.7,0.1-0.9,0.4s-0.3,0.7-0.4,1.1l0,0h2.4v-0.2c0-0.4-0.1-0.8-0.3-1C412.3,543.5,412,543.4,411.6,543.4z"/>
	<path class="st10" d="M419.8,543.7l-0.7,0c-0.3,0-0.5,0.1-0.7,0.2s-0.3,0.3-0.4,0.5v5h-2V542h1.9l0.1,1.1c0.2-0.4,0.4-0.7,0.7-0.9
		c0.3-0.2,0.6-0.3,1-0.3c0.1,0,0.2,0,0.3,0c0.1,0,0.2,0,0.3,0.1L419.8,543.7z"/>
	<path class="st10" d="M429.8,547.3h-3.5l-0.7,2.1h-2l3.4-10h2l3.4,10h-2L429.8,547.3z M426.8,545.7h2.5l-1.2-3.9h0L426.8,545.7z"/>
	<path class="st10" d="M437.7,548.3c-0.2,0.4-0.5,0.7-0.9,0.9s-0.8,0.3-1.2,0.3c-0.8,0-1.4-0.2-1.8-0.7c-0.4-0.5-0.7-1.3-0.7-2.3
		V542h2v4.5c0,0.5,0.1,0.9,0.3,1.2s0.5,0.4,0.8,0.4c0.3,0,0.6-0.1,0.8-0.2s0.4-0.3,0.6-0.5V542h2v7.4h-1.7L437.7,548.3z"/>
	<path class="st10" d="M445.1,547.4c0-0.2-0.1-0.4-0.3-0.6s-0.6-0.3-1.2-0.4c-0.9-0.2-1.5-0.4-2-0.8c-0.4-0.3-0.7-0.8-0.7-1.4
		c0-0.6,0.3-1.2,0.8-1.6c0.5-0.4,1.3-0.7,2.1-0.7c0.9,0,1.7,0.2,2.3,0.7s0.8,1,0.8,1.7l0,0H445c0-0.3-0.1-0.5-0.3-0.7
		s-0.5-0.3-0.8-0.3c-0.3,0-0.6,0.1-0.8,0.2c-0.2,0.2-0.3,0.4-0.3,0.6c0,0.2,0.1,0.4,0.3,0.6s0.6,0.3,1.2,0.4c0.9,0.2,1.6,0.5,2,0.8
		c0.4,0.4,0.7,0.8,0.7,1.5c0,0.7-0.3,1.2-0.9,1.6c-0.6,0.4-1.3,0.6-2.3,0.6c-1,0-1.8-0.2-2.3-0.7c-0.6-0.5-0.8-1.1-0.8-1.7l0,0h1.8
		c0,0.4,0.1,0.7,0.4,0.9s0.6,0.3,1,0.3c0.4,0,0.7-0.1,0.8-0.2S445.1,547.6,445.1,547.4z"/>
	<path class="st10" d="M448,545.8c0-1.2,0.3-2.1,0.8-2.8s1.2-1.1,2.1-1.1c0.4,0,0.8,0.1,1.1,0.3s0.6,0.5,0.8,0.8l0.2-0.9h1.7v7.4
		c0,1-0.3,1.7-0.9,2.2c-0.6,0.5-1.5,0.8-2.6,0.8c-0.4,0-0.8-0.1-1.2-0.2c-0.4-0.1-0.8-0.2-1.2-0.4l0.4-1.5c0.3,0.1,0.6,0.3,0.9,0.3
		c0.3,0.1,0.7,0.1,1,0.1c0.5,0,0.9-0.1,1.2-0.3s0.4-0.6,0.4-1.1v-0.7c-0.2,0.3-0.5,0.5-0.8,0.6s-0.6,0.2-1,0.2c-0.9,0-1.6-0.3-2.1-1
		c-0.5-0.7-0.8-1.5-0.8-2.6V545.8z M450,545.9c0,0.7,0.1,1.2,0.3,1.5c0.2,0.4,0.6,0.6,1.1,0.6c0.3,0,0.6-0.1,0.8-0.2
		c0.2-0.1,0.4-0.3,0.5-0.5v-3.2c-0.1-0.2-0.3-0.4-0.5-0.5s-0.5-0.2-0.8-0.2c-0.5,0-0.8,0.2-1.1,0.7s-0.3,1-0.3,1.7V545.9z"/>
	<path class="st10" d="M460.6,549.4c-0.1-0.2-0.1-0.3-0.2-0.5s-0.1-0.4-0.1-0.6c-0.2,0.4-0.5,0.7-0.8,0.9s-0.7,0.4-1.2,0.4
		c-0.8,0-1.4-0.2-1.8-0.6c-0.4-0.4-0.6-0.9-0.6-1.6c0-0.7,0.3-1.3,0.8-1.7c0.6-0.4,1.4-0.6,2.4-0.6h1.1v-0.6c0-0.4-0.1-0.6-0.3-0.8
		s-0.5-0.3-0.8-0.3c-0.3,0-0.6,0.1-0.7,0.2c-0.2,0.2-0.3,0.4-0.3,0.7l-1.9,0l0,0c0-0.6,0.2-1.2,0.8-1.6c0.6-0.5,1.3-0.7,2.3-0.7
		c0.9,0,1.6,0.2,2.2,0.7c0.6,0.4,0.8,1.1,0.8,1.9v3.1c0,0.3,0,0.7,0.1,1s0.1,0.6,0.2,0.9H460.6z M458.8,548.1c0.4,0,0.7-0.1,0.9-0.3
		s0.5-0.4,0.6-0.6v-1h-1.1c-0.4,0-0.7,0.1-1,0.3c-0.2,0.2-0.3,0.5-0.3,0.8c0,0.2,0.1,0.4,0.2,0.6S458.5,548.1,458.8,548.1z"/>
	<path class="st10" d="M465.6,542l0.1,1.1c0.2-0.4,0.5-0.7,0.9-0.9s0.8-0.3,1.2-0.3c0.7,0,1.3,0.2,1.8,0.7s0.6,1.2,0.6,2.2v4.6h-2
		v-4.6c0-0.5-0.1-0.9-0.3-1.1s-0.5-0.3-0.9-0.3c-0.3,0-0.5,0.1-0.7,0.2s-0.4,0.3-0.5,0.5v5.4h-2V542H465.6z"/>
	<path class="st10" d="M471.4,545.8c0-1.2,0.3-2.1,0.8-2.8s1.2-1.1,2.1-1.1c0.4,0,0.8,0.1,1.1,0.3s0.6,0.5,0.8,0.8l0.2-0.9h1.7v7.4
		c0,1-0.3,1.7-0.9,2.2c-0.6,0.5-1.5,0.8-2.6,0.8c-0.4,0-0.8-0.1-1.2-0.2c-0.4-0.1-0.8-0.2-1.2-0.4l0.4-1.5c0.3,0.1,0.6,0.3,0.9,0.3
		c0.3,0.1,0.7,0.1,1,0.1c0.5,0,0.9-0.1,1.2-0.3s0.4-0.6,0.4-1.1v-0.7c-0.2,0.3-0.5,0.5-0.8,0.6s-0.6,0.2-1,0.2c-0.9,0-1.6-0.3-2.1-1
		c-0.5-0.7-0.8-1.5-0.8-2.6V545.8z M473.3,545.9c0,0.7,0.1,1.2,0.3,1.5c0.2,0.4,0.6,0.6,1.1,0.6c0.3,0,0.6-0.1,0.8-0.2
		c0.2-0.1,0.4-0.3,0.5-0.5v-3.2c-0.1-0.2-0.3-0.4-0.5-0.5s-0.5-0.2-0.8-0.2c-0.5,0-0.8,0.2-1.1,0.7s-0.3,1-0.3,1.7V545.9z"/>
</g>
<line class="st13" x1="422" y1="486.6" x2="422" y2="519"/>
<g class="st9">
	<path class="st10" d="M581.9,531.4v3.6h-2v-10h4c1.1,0,2,0.3,2.7,0.9s1,1.4,1,2.3s-0.3,1.7-1,2.3s-1.6,0.9-2.7,0.9H581.9z
		 M581.9,529.9h2c0.6,0,1-0.2,1.3-0.5c0.3-0.3,0.4-0.7,0.4-1.2c0-0.5-0.1-0.9-0.4-1.2c-0.3-0.3-0.7-0.5-1.3-0.5h-2V529.9z"/>
	<path class="st10" d="M595.5,535h-6.8v-1.3l3.2-3.5c0.5-0.5,0.8-1,1-1.3c0.2-0.4,0.3-0.7,0.3-1c0-0.4-0.1-0.8-0.3-1
		c-0.2-0.3-0.5-0.4-1-0.4c-0.5,0-0.8,0.2-1,0.5c-0.2,0.3-0.4,0.7-0.4,1.2h-1.9l0,0c0-0.9,0.3-1.7,0.9-2.3c0.6-0.6,1.4-0.9,2.5-0.9
		c1,0,1.8,0.3,2.4,0.8c0.6,0.5,0.9,1.2,0.9,2.1c0,0.6-0.2,1.2-0.5,1.7c-0.3,0.5-0.9,1.2-1.6,2l-1.8,1.9l0,0h4.2V535z"/>
	<path class="st10" d="M604.7,535c-0.1-0.2-0.1-0.3-0.2-0.5c-0.1-0.2-0.1-0.4-0.1-0.6c-0.2,0.4-0.5,0.7-0.8,0.9s-0.7,0.4-1.2,0.4
		c-0.8,0-1.4-0.2-1.8-0.6c-0.4-0.4-0.6-0.9-0.6-1.6c0-0.7,0.3-1.3,0.8-1.7c0.6-0.4,1.4-0.6,2.4-0.6h1.1V530c0-0.4-0.1-0.6-0.3-0.8
		c-0.2-0.2-0.5-0.3-0.8-0.3c-0.3,0-0.6,0.1-0.7,0.2c-0.2,0.2-0.3,0.4-0.3,0.7l-1.9,0l0,0c0-0.6,0.2-1.2,0.8-1.6
		c0.6-0.5,1.3-0.7,2.3-0.7c0.9,0,1.6,0.2,2.2,0.7c0.6,0.4,0.8,1.1,0.8,1.9v3.1c0,0.3,0,0.7,0.1,1c0.1,0.3,0.1,0.6,0.2,0.9H604.7z
		 M602.9,533.7c0.4,0,0.7-0.1,0.9-0.3s0.5-0.4,0.6-0.6v-1h-1.1c-0.4,0-0.7,0.1-1,0.3c-0.2,0.2-0.3,0.5-0.3,0.8
		c0,0.2,0.1,0.4,0.2,0.6S602.6,533.7,602.9,533.7z"/>
	<path class="st10" d="M610,535h-2v-10.7h2V535z"/>
	<path class="st10" d="M615.6,533c0-0.2-0.1-0.4-0.3-0.6s-0.6-0.3-1.2-0.4c-0.9-0.2-1.5-0.4-2-0.8c-0.4-0.3-0.7-0.8-0.7-1.4
		c0-0.6,0.3-1.2,0.8-1.6c0.5-0.4,1.3-0.7,2.1-0.7c0.9,0,1.7,0.2,2.3,0.7c0.6,0.4,0.8,1,0.8,1.7l0,0h-1.9c0-0.3-0.1-0.5-0.3-0.7
		c-0.2-0.2-0.5-0.3-0.8-0.3c-0.3,0-0.6,0.1-0.8,0.2c-0.2,0.2-0.3,0.4-0.3,0.6c0,0.2,0.1,0.4,0.3,0.6c0.2,0.1,0.6,0.3,1.2,0.4
		c0.9,0.2,1.6,0.5,2,0.8c0.4,0.4,0.7,0.8,0.7,1.5c0,0.7-0.3,1.2-0.9,1.6c-0.6,0.4-1.3,0.6-2.3,0.6c-1,0-1.8-0.2-2.3-0.7
		c-0.6-0.5-0.8-1.1-0.8-1.7l0,0h1.8c0,0.4,0.1,0.7,0.4,0.9s0.6,0.3,1,0.3c0.4,0,0.7-0.1,0.8-0.2C615.5,533.4,615.6,533.2,615.6,533z
		"/>
</g>
<g class="st9">
	<path class="st10" d="M550.3,549.4c-0.1-0.2-0.1-0.3-0.2-0.5c-0.1-0.2-0.1-0.4-0.1-0.6c-0.2,0.4-0.5,0.7-0.8,0.9s-0.7,0.4-1.2,0.4
		c-0.8,0-1.4-0.2-1.8-0.6c-0.4-0.4-0.6-0.9-0.6-1.6c0-0.7,0.3-1.3,0.8-1.7c0.6-0.4,1.4-0.6,2.4-0.6h1.1v-0.6c0-0.4-0.1-0.6-0.3-0.8
		c-0.2-0.2-0.5-0.3-0.8-0.3c-0.3,0-0.6,0.1-0.7,0.2c-0.2,0.2-0.3,0.4-0.3,0.7l-1.9,0l0,0c0-0.6,0.2-1.2,0.8-1.6
		c0.6-0.5,1.3-0.7,2.3-0.7c0.9,0,1.6,0.2,2.2,0.7c0.6,0.4,0.8,1.1,0.8,1.9v3.1c0,0.3,0,0.7,0.1,1c0.1,0.3,0.1,0.6,0.2,0.9H550.3z
		 M548.5,548.1c0.4,0,0.7-0.1,0.9-0.3s0.5-0.4,0.6-0.6v-1h-1.1c-0.4,0-0.7,0.1-1,0.3c-0.2,0.2-0.3,0.5-0.3,0.8
		c0,0.2,0.1,0.4,0.2,0.6S548.2,548.1,548.5,548.1z"/>
	<path class="st10" d="M555.3,542l0.1,1.1c0.2-0.4,0.5-0.7,0.9-0.9c0.4-0.2,0.8-0.3,1.2-0.3c0.7,0,1.3,0.2,1.8,0.7
		c0.4,0.5,0.6,1.2,0.6,2.2v4.6h-2v-4.6c0-0.5-0.1-0.9-0.3-1.1c-0.2-0.2-0.5-0.3-0.9-0.3c-0.3,0-0.5,0.1-0.7,0.2
		c-0.2,0.1-0.4,0.3-0.5,0.5v5.4h-2V542H555.3z"/>
	<path class="st10" d="M565.7,549.4c-0.1-0.2-0.1-0.3-0.2-0.5c-0.1-0.2-0.1-0.4-0.1-0.6c-0.2,0.4-0.5,0.7-0.8,0.9s-0.7,0.4-1.2,0.4
		c-0.8,0-1.4-0.2-1.8-0.6c-0.4-0.4-0.6-0.9-0.6-1.6c0-0.7,0.3-1.3,0.8-1.7c0.6-0.4,1.4-0.6,2.4-0.6h1.1v-0.6c0-0.4-0.1-0.6-0.3-0.8
		c-0.2-0.2-0.5-0.3-0.8-0.3c-0.3,0-0.6,0.1-0.7,0.2c-0.2,0.2-0.3,0.4-0.3,0.7l-1.9,0l0,0c0-0.6,0.2-1.2,0.8-1.6
		c0.6-0.5,1.3-0.7,2.3-0.7c0.9,0,1.6,0.2,2.2,0.7c0.6,0.4,0.8,1.1,0.8,1.9v3.1c0,0.3,0,0.7,0.1,1c0.1,0.3,0.1,0.6,0.2,0.9H565.7z
		 M563.9,548.1c0.4,0,0.7-0.1,0.9-0.3s0.5-0.4,0.6-0.6v-1h-1.1c-0.4,0-0.7,0.1-1,0.3c-0.2,0.2-0.3,0.5-0.3,0.8
		c0,0.2,0.1,0.4,0.2,0.6S563.6,548.1,563.9,548.1z"/>
	<path class="st10" d="M571,549.4h-2v-10.7h2V549.4z"/>
	<path class="st10" d="M572.3,545.6c0-1.1,0.3-2,0.9-2.7c0.6-0.7,1.5-1.1,2.6-1.1c1.1,0,2,0.4,2.6,1.1c0.6,0.7,0.9,1.6,0.9,2.7v0.1
		c0,1.1-0.3,2-0.9,2.7c-0.6,0.7-1.5,1-2.6,1c-1.1,0-1.9-0.3-2.6-1c-0.6-0.7-0.9-1.6-0.9-2.7V545.6z M574.3,545.8
		c0,0.7,0.1,1.2,0.4,1.6c0.2,0.4,0.6,0.6,1.1,0.6c0.5,0,0.9-0.2,1.1-0.6s0.4-0.9,0.4-1.6v-0.1c0-0.7-0.1-1.2-0.4-1.6
		c-0.2-0.4-0.6-0.6-1.1-0.6c-0.5,0-0.9,0.2-1.1,0.6c-0.2,0.4-0.4,0.9-0.4,1.6V545.8z"/>
	<path class="st10" d="M580.2,545.8c0-1.2,0.3-2.1,0.8-2.8c0.5-0.7,1.2-1.1,2.1-1.1c0.4,0,0.8,0.1,1.1,0.3s0.6,0.5,0.8,0.8l0.2-0.9
		h1.7v7.4c0,1-0.3,1.7-0.9,2.2c-0.6,0.5-1.5,0.8-2.6,0.8c-0.4,0-0.8-0.1-1.2-0.2c-0.4-0.1-0.8-0.2-1.2-0.4l0.4-1.5
		c0.3,0.1,0.6,0.3,0.9,0.3c0.3,0.1,0.7,0.1,1,0.1c0.5,0,0.9-0.1,1.2-0.3c0.3-0.2,0.4-0.6,0.4-1.1v-0.7c-0.2,0.3-0.5,0.5-0.8,0.6
		c-0.3,0.1-0.6,0.2-1,0.2c-0.9,0-1.6-0.3-2.1-1c-0.5-0.7-0.8-1.5-0.8-2.6V545.8z M582.2,545.9c0,0.7,0.1,1.2,0.3,1.5
		c0.2,0.4,0.6,0.6,1.1,0.6c0.3,0,0.6-0.1,0.8-0.2c0.2-0.1,0.4-0.3,0.5-0.5v-3.2c-0.1-0.2-0.3-0.4-0.5-0.5s-0.5-0.2-0.8-0.2
		c-0.5,0-0.8,0.2-1.1,0.7s-0.3,1-0.3,1.7V545.9z"/>
	<path class="st10" d="M591.7,549.5c-1.1,0-1.9-0.3-2.6-1c-0.6-0.7-1-1.6-1-2.6v-0.3c0-1.1,0.3-2,0.9-2.7c0.6-0.7,1.4-1.1,2.4-1.1
		c1,0,1.8,0.3,2.3,0.9c0.6,0.6,0.8,1.4,0.8,2.4v1.1h-4.4l0,0c0,0.5,0.2,0.9,0.5,1.2c0.3,0.3,0.7,0.5,1.2,0.5c0.4,0,0.8,0,1.1-0.1
		c0.3-0.1,0.6-0.2,1-0.4l0.5,1.2c-0.3,0.2-0.7,0.5-1.2,0.6C592.9,549.5,592.3,549.5,591.7,549.5z M591.6,543.4
		c-0.4,0-0.7,0.1-0.9,0.4c-0.2,0.3-0.3,0.7-0.4,1.1l0,0h2.4v-0.2c0-0.4-0.1-0.8-0.3-1C592.3,543.5,592,543.4,591.6,543.4z"/>
	<path class="st10" d="M599.8,543.7l-0.7,0c-0.3,0-0.5,0.1-0.7,0.2s-0.3,0.3-0.4,0.5v5h-2V542h1.9l0.1,1.1c0.2-0.4,0.4-0.7,0.7-0.9
		c0.3-0.2,0.6-0.3,1-0.3c0.1,0,0.2,0,0.3,0c0.1,0,0.2,0,0.3,0.1L599.8,543.7z"/>
	<path class="st10" d="M609.8,547.3h-3.5l-0.7,2.1h-2l3.4-10h2l3.4,10h-2L609.8,547.3z M606.8,545.7h2.5l-1.2-3.9h0L606.8,545.7z"/>
	<path class="st10" d="M617.7,548.3c-0.2,0.4-0.5,0.7-0.9,0.9c-0.4,0.2-0.8,0.3-1.2,0.3c-0.8,0-1.4-0.2-1.8-0.7
		c-0.4-0.5-0.7-1.3-0.7-2.3V542h2v4.5c0,0.5,0.1,0.9,0.3,1.2c0.2,0.2,0.5,0.4,0.8,0.4c0.3,0,0.6-0.1,0.8-0.2
		c0.2-0.1,0.4-0.3,0.6-0.5V542h2v7.4h-1.7L617.7,548.3z"/>
	<path class="st10" d="M625.1,547.4c0-0.2-0.1-0.4-0.3-0.6s-0.6-0.3-1.2-0.4c-0.9-0.2-1.5-0.4-2-0.8c-0.4-0.3-0.7-0.8-0.7-1.4
		c0-0.6,0.3-1.2,0.8-1.6c0.5-0.4,1.3-0.7,2.1-0.7c0.9,0,1.7,0.2,2.3,0.7c0.6,0.4,0.8,1,0.8,1.7l0,0H625c0-0.3-0.1-0.5-0.3-0.7
		c-0.2-0.2-0.5-0.3-0.8-0.3c-0.3,0-0.6,0.1-0.8,0.2c-0.2,0.2-0.3,0.4-0.3,0.6c0,0.2,0.1,0.4,0.3,0.6c0.2,0.1,0.6,0.3,1.2,0.4
		c0.9,0.2,1.6,0.5,2,0.8c0.4,0.4,0.7,0.8,0.7,1.5c0,0.7-0.3,1.2-0.9,1.6c-0.6,0.4-1.3,0.6-2.3,0.6c-1,0-1.8-0.2-2.3-0.7
		c-0.6-0.5-0.8-1.1-0.8-1.7l0,0h1.8c0,0.4,0.1,0.7,0.4,0.9s0.6,0.3,1,0.3c0.4,0,0.7-0.1,0.8-0.2C625,547.8,625.1,547.6,625.1,547.4z
		"/>
	<path class="st10" d="M628,545.8c0-1.2,0.3-2.1,0.8-2.8c0.5-0.7,1.2-1.1,2.1-1.1c0.4,0,0.8,0.1,1.1,0.3s0.6,0.5,0.8,0.8l0.2-0.9
		h1.7v7.4c0,1-0.3,1.7-0.9,2.2c-0.6,0.5-1.5,0.8-2.6,0.8c-0.4,0-0.8-0.1-1.2-0.2c-0.4-0.1-0.8-0.2-1.2-0.4l0.4-1.5
		c0.3,0.1,0.6,0.3,0.9,0.3c0.3,0.1,0.7,0.1,1,0.1c0.5,0,0.9-0.1,1.2-0.3c0.3-0.2,0.4-0.6,0.4-1.1v-0.7c-0.2,0.3-0.5,0.5-0.8,0.6
		c-0.3,0.1-0.6,0.2-1,0.2c-0.9,0-1.6-0.3-2.1-1c-0.5-0.7-0.8-1.5-0.8-2.6V545.8z M630,545.9c0,0.7,0.1,1.2,0.3,1.5
		c0.2,0.4,0.6,0.6,1.1,0.6c0.3,0,0.6-0.1,0.8-0.2c0.2-0.1,0.4-0.3,0.5-0.5v-3.2c-0.1-0.2-0.3-0.4-0.5-0.5s-0.5-0.2-0.8-0.2
		c-0.5,0-0.8,0.2-1.1,0.7s-0.3,1-0.3,1.7V545.9z"/>
	<path class="st10" d="M640.6,549.4c-0.1-0.2-0.1-0.3-0.2-0.5c-0.1-0.2-0.1-0.4-0.1-0.6c-0.2,0.4-0.5,0.7-0.8,0.9s-0.7,0.4-1.2,0.4
		c-0.8,0-1.4-0.2-1.8-0.6c-0.4-0.4-0.6-0.9-0.6-1.6c0-0.7,0.3-1.3,0.8-1.7c0.6-0.4,1.4-0.6,2.4-0.6h1.1v-0.6c0-0.4-0.1-0.6-0.3-0.8
		c-0.2-0.2-0.5-0.3-0.8-0.3c-0.3,0-0.6,0.1-0.7,0.2c-0.2,0.2-0.3,0.4-0.3,0.7l-1.9,0l0,0c0-0.6,0.2-1.2,0.8-1.6
		c0.6-0.5,1.3-0.7,2.3-0.7c0.9,0,1.6,0.2,2.2,0.7c0.6,0.4,0.8,1.1,0.8,1.9v3.1c0,0.3,0,0.7,0.1,1c0.1,0.3,0.1,0.6,0.2,0.9H640.6z
		 M638.8,548.1c0.4,0,0.7-0.1,0.9-0.3s0.5-0.4,0.6-0.6v-1h-1.1c-0.4,0-0.7,0.1-1,0.3c-0.2,0.2-0.3,0.5-0.3,0.8
		c0,0.2,0.1,0.4,0.2,0.6S638.5,548.1,638.8,548.1z"/>
	<path class="st10" d="M645.6,542l0.1,1.1c0.2-0.4,0.5-0.7,0.9-0.9c0.4-0.2,0.8-0.3,1.2-0.3c0.7,0,1.3,0.2,1.8,0.7
		c0.4,0.5,0.6,1.2,0.6,2.2v4.6h-2v-4.6c0-0.5-0.1-0.9-0.3-1.1c-0.2-0.2-0.5-0.3-0.9-0.3c-0.3,0-0.5,0.1-0.7,0.2
		c-0.2,0.1-0.4,0.3-0.5,0.5v5.4h-2V542H645.6z"/>
	<path class="st10" d="M651.4,545.8c0-1.2,0.3-2.1,0.8-2.8c0.5-0.7,1.2-1.1,2.1-1.1c0.4,0,0.8,0.1,1.1,0.3s0.6,0.5,0.8,0.8l0.2-0.9
		h1.7v7.4c0,1-0.3,1.7-0.9,2.2c-0.6,0.5-1.5,0.8-2.6,0.8c-0.4,0-0.8-0.1-1.2-0.2c-0.4-0.1-0.8-0.2-1.2-0.4l0.4-1.5
		c0.3,0.1,0.6,0.3,0.9,0.3c0.3,0.1,0.7,0.1,1,0.1c0.5,0,0.9-0.1,1.2-0.3c0.3-0.2,0.4-0.6,0.4-1.1v-0.7c-0.2,0.3-0.5,0.5-0.8,0.6
		c-0.3,0.1-0.6,0.2-1,0.2c-0.9,0-1.6-0.3-2.1-1c-0.5-0.7-0.8-1.5-0.8-2.6V545.8z M653.3,545.9c0,0.7,0.1,1.2,0.3,1.5
		c0.2,0.4,0.6,0.6,1.1,0.6c0.3,0,0.6-0.1,0.8-0.2c0.2-0.1,0.4-0.3,0.5-0.5v-3.2c-0.1-0.2-0.3-0.4-0.5-0.5s-0.5-0.2-0.8-0.2
		c-0.5,0-0.8,0.2-1.1,0.7s-0.3,1-0.3,1.7V545.9z"/>
</g>
<line class="st13" x1="602" y1="486.6" x2="602" y2="519"/>
</svg>
