<?xml version="1.0" encoding="utf-8"?>
<!-- Generator: Adobe Illustrator 21.0.0, SVG Export Plug-In . SVG Version: 6.00 Build 0)  -->
<svg version="1.1" id="Ebene_1" xmlns="http://www.w3.org/2000/svg" xmlns:xlink="http://www.w3.org/1999/xlink" x="0px" y="0px"
	 viewBox="0 0 1024 600" style="enable-background:new 0 0 1024 600;" xml:space="preserve">
<style type="text/css">
	.st0{fill:#034854;}
	.st1{display:none;}
	.st2{display:inline;}
	.st3{fill:#EFDA48;}
	.st4{fill:#FFFFFF;}
	.st5{fill:#4C636F;}
	.st6{fill:#179C7D;}
	.st7{fill:#202020;}
	.st8{fill:#FF7F7F;fill-opacity:0;}
	.st9{fill:none;}
	.st10{fill:url(#SVGID_1_);}
	.st11{fill:url(#SVGID_2_);}
	.st12{fill:url(#SVGID_3_);}
	.st13{fill:url(#SVGID_4_);}
	.st14{fill:url(#SVGID_5_);}
	.st15{fill:url(#SVGID_6_);}
	.st16{fill:url(#SVGID_7_);}
	.st17{fill:url(#SVGID_8_);}
	.st18{fill:url(#SVGID_9_);}
	.st19{fill:url(#SVGID_10_);}
	.st20{fill:url(#SVGID_11_);}
	.st21{fill:url(#SVGID_12_);}
	.st22{fill:url(#SVGID_13_);}
	.st23{fill:url(#SVGID_14_);}
	.st24{fill:url(#SVGID_15_);}
	.st25{fill:url(#SVGID_16_);}
	.st26{fill:url(#SVGID_17_);}
	.st27{fill:url(#SVGID_18_);}
	.st28{fill:url(#SVGID_19_);}
	.st29{fill:url(#SVGID_20_);}
	.st30{fill:url(#SVGID_21_);}
	.st31{fill:url(#SVGID_22_);}
	.st32{fill:url(#SVGID_23_);}
	.st33{fill:url(#SVGID_24_);}
	.st34{fill:url(#SVGID_25_);}
	.st35{fill:#979797;}
	.st36{fill:#704A4A;}
	.st37{display:none;fill:#333333;}
	.st38{display:none;fill:#704A4A;}
	.st39{fill:#333333;}
	.st40{font-family:'Roboto-Regular';}
	.st41{font-size:12px;}
	.st42{fill:none;stroke:#333333;stroke-miterlimit:10;}
	.st43{opacity:0.5;fill:#FFFFFF;enable-background:new    ;}
	.st44{fill:none;stroke:#333333;stroke-width:0.9784;stroke-miterlimit:10;}
</style>
<symbol  id="calliope_mini_backside" viewBox="-149.5 -131.8 299 263.5">
	<path class="st0" d="M-75.9,127.5L-75.9,127.5c6.2,4.6,14.6,4.8,20.9,0.5c12.5-8.4,34.7-21,56-21c23.2,0,45.7,13.5,56.4,21
		c4.3,3,9.8,3.8,14.7,2l0.6-0.2c7.3-2.6,11.8-9.8,11-17.4c-1.7-15.4-3-41.9,13-62.9c16.8-21.9,31.7-31.2,42.3-34.8
		c5.9-2,9.9-7.4,10.4-13.6l0,0c0.5-8-5.1-13.6-12.3-17c-12-5.7-30.8-15.7-42.8-36.2c-14.4-24.9-13-51.3-11.4-62.7
		c0.7-5.1-1.6-10.1-5.9-12.8c-4.8-3-11.9-4.6-21.4,1.5c-5.5,3.6-12,8.6-20.8,12c-10.8,4.1-16.9,5.5-20.3,5.8c-2.4,0.2-4.4,1.8-5.2,4
		c-1.1,2.9-3.4,6.2-8.2,6.2c-5,0-7.2-3.6-8.2-6.6c-0.8-2.5-3.3-3.4-5.9-3.7c-4.9-0.4-12.5-2.4-20.5-6.1c-7.1-3.3-14-7.9-20.4-12.7
		c-5.5-4.1-15-5.5-20.4-1.3l0,0c-5.7,4.4-7.4,11.7-6.5,18.8c1.9,15.3,1.1,43.3-16.7,64.2c-17.6,20.8-28.2,26.2-37.2,29.2
		c-3.9,1.3-11.4,5.4-12.3,14.1c-0.9,8.7,3,14.5,10.9,18.4c12.3,6.1,30.5,17.2,42.1,34.1c15,22,15,48,13,61.7
		C-81.7,117.8-80.5,124.1-75.9,127.5z"/>
	<g id="holes_2_">
		<g class="st1">
			<g class="st2">
				<path class="st3" d="M-52.3-89.4c-1.4,0-2.6-1.2-2.6-2.6s1.2-2.6,2.6-2.6s2.6,1.2,2.6,2.6S-50.8-89.4-52.3-89.4z M-52.3-93.1
					c-0.7,0-1.2,0.6-1.2,1.2c0,0.7,0.6,1.2,1.2,1.2c0.7,0,1.2-0.6,1.2-1.2C-51-92.6-51.6-93.1-52.3-93.1z"/>
				<path d="M-52.3-93.1c-0.7,0-1.2,0.6-1.2,1.2c0,0.7,0.6,1.2,1.2,1.2c0.7,0,1.2-0.6,1.2-1.2C-51-92.6-51.6-93.1-52.3-93.1z"/>
			</g>
			<g class="st2">
				<path class="st3" d="M-43.5-89.4c-1.4,0-2.6-1.2-2.6-2.6s1.2-2.6,2.6-2.6s2.6,1.2,2.6,2.6S-42-89.4-43.5-89.4z M-43.5-93.1
					c-0.7,0-1.2,0.6-1.2,1.2c0,0.7,0.6,1.2,1.2,1.2c0.7,0,1.2-0.6,1.2-1.2C-42.3-92.6-42.8-93.1-43.5-93.1z"/>
				<path d="M-43.5-93.1c-0.7,0-1.2,0.6-1.2,1.2c0,0.7,0.6,1.2,1.2,1.2c0.7,0,1.2-0.6,1.2-1.2C-42.3-92.6-42.8-93.1-43.5-93.1z"/>
			</g>
			<g class="st2">
				<path class="st3" d="M-34.8-89.4c-1.4,0-2.6-1.2-2.6-2.6s1.2-2.6,2.6-2.6s2.6,1.2,2.6,2.6S-33.3-89.4-34.8-89.4z M-34.8-93.1
					c-0.7,0-1.2,0.6-1.2,1.2c0,0.7,0.6,1.2,1.2,1.2c0.7,0,1.2-0.6,1.2-1.2C-33.4-92.6-34-93.1-34.8-93.1z"/>
				<path d="M-34.8-93.1c-0.7,0-1.2,0.6-1.2,1.2c0,0.7,0.6,1.2,1.2,1.2c0.7,0,1.2-0.6,1.2-1.2C-33.4-92.6-34-93.1-34.8-93.1z"/>
			</g>
			<g class="st2">
				<path class="st3" d="M-25.8-89.4c-1.4,0-2.6-1.2-2.6-2.6s1.2-2.6,2.6-2.6s2.6,1.2,2.6,2.6S-24.4-89.4-25.8-89.4z M-25.8-93.1
					c-0.7,0-1.2,0.6-1.2,1.2c0,0.7,0.6,1.2,1.2,1.2c0.7,0,1.2-0.6,1.2-1.2C-24.6-92.6-25.2-93.1-25.8-93.1z"/>
				<path d="M-25.8-93.1c-0.7,0-1.2,0.6-1.2,1.2c0,0.7,0.6,1.2,1.2,1.2c0.7,0,1.2-0.6,1.2-1.2C-24.6-92.6-25.2-93.1-25.8-93.1z"/>
			</g>
			<g class="st2">
				<path class="st3" d="M-17-89.4c-1.4,0-2.6-1.2-2.6-2.6s1.2-2.6,2.6-2.6s2.6,1.2,2.6,2.6S-15.6-89.4-17-89.4z M-17-93.1
					c-0.7,0-1.2,0.6-1.2,1.2c0,0.7,0.6,1.2,1.2,1.2c0.7,0,1.2-0.6,1.2-1.2C-15.8-92.6-16.4-93.1-17-93.1z"/>
				<path d="M-17-93.1c-0.7,0-1.2,0.6-1.2,1.2c0,0.7,0.6,1.2,1.2,1.2c0.7,0,1.2-0.6,1.2-1.2C-15.8-92.6-16.4-93.1-17-93.1z"/>
			</g>
			<g class="st2">
				<path class="st3" d="M-8.2-89.4c-1.4,0-2.6-1.2-2.6-2.6s1.2-2.6,2.6-2.6s2.6,1.2,2.6,2.6S-6.8-89.4-8.2-89.4z M-8.2-93.1
					c-0.7,0-1.2,0.6-1.2,1.2c0,0.7,0.6,1.2,1.2,1.2S-7-91.4-7-91.9C-7-92.6-7.5-93.1-8.2-93.1z"/>
				<path d="M-8.2-93.1c-0.7,0-1.2,0.6-1.2,1.2c0,0.7,0.6,1.2,1.2,1.2S-7-91.4-7-91.9C-7-92.6-7.5-93.1-8.2-93.1z"/>
			</g>
			<g class="st2">
				<path class="st3" d="M0.6-89.4C-0.8-89.4-2-90.6-2-92s1.2-2.6,2.6-2.6s2.6,1.2,2.6,2.6S2-89.4,0.6-89.4z M0.6-93.1
					c-0.7,0-1.2,0.6-1.2,1.2c0,0.7,0.6,1.2,1.2,1.2s1.2-0.6,1.2-1.2C1.8-92.6,1.3-93.1,0.6-93.1z"/>
				<path d="M0.6-93.1c-0.7,0-1.2,0.6-1.2,1.2c0,0.7,0.6,1.2,1.2,1.2s1.2-0.6,1.2-1.2C1.8-92.6,1.3-93.1,0.6-93.1z"/>
			</g>
			<g class="st2">
				<path class="st3" d="M9.4-89.4c-1.4,0-2.6-1.2-2.6-2.6s1.2-2.6,2.6-2.6S12-93.4,12-92S10.8-89.4,9.4-89.4z M9.4-93.1
					c-0.7,0-1.2,0.6-1.2,1.2c0,0.7,0.6,1.2,1.2,1.2s1.2-0.6,1.2-1.2C10.6-92.6,10.1-93.1,9.4-93.1z"/>
				<path d="M9.4-93.1c-0.7,0-1.2,0.6-1.2,1.2c0,0.7,0.6,1.2,1.2,1.2s1.2-0.6,1.2-1.2C10.6-92.6,10.1-93.1,9.4-93.1z"/>
			</g>
			<g class="st2">
				<path class="st3" d="M18.2-89.4c-1.4,0-2.6-1.2-2.6-2.6s1.2-2.6,2.6-2.6s2.6,1.2,2.6,2.6S19.6-89.4,18.2-89.4z M18.2-93.1
					c-0.7,0-1.2,0.6-1.2,1.2c0,0.7,0.6,1.2,1.2,1.2c0.7,0,1.2-0.6,1.2-1.2C19.4-92.6,18.9-93.1,18.2-93.1z"/>
				<path d="M18.2-93.1c-0.7,0-1.2,0.6-1.2,1.2c0,0.7,0.6,1.2,1.2,1.2c0.7,0,1.2-0.6,1.2-1.2C19.4-92.6,18.9-93.1,18.2-93.1z"/>
			</g>
			<g class="st2">
				<path class="st3" d="M27-89.4c-1.4,0-2.6-1.2-2.6-2.6s1.2-2.6,2.6-2.6s2.6,1.2,2.6,2.6S28.4-89.4,27-89.4z M27-93.1
					c-0.7,0-1.2,0.6-1.2,1.2c0,0.7,0.6,1.2,1.2,1.2s1.2-0.6,1.2-1.2C28.2-92.6,27.7-93.1,27-93.1z"/>
				<path d="M27-93.1c-0.7,0-1.2,0.6-1.2,1.2c0,0.7,0.6,1.2,1.2,1.2s1.2-0.6,1.2-1.2C28.2-92.6,27.7-93.1,27-93.1z"/>
			</g>
			<g class="st2">
				<path class="st3" d="M35.8-89.4c-1.4,0-2.6-1.2-2.6-2.6s1.2-2.6,2.6-2.6s2.6,1.2,2.6,2.6S37.3-89.4,35.8-89.4z M35.8-93.1
					c-0.7,0-1.2,0.6-1.2,1.2c0,0.7,0.6,1.2,1.2,1.2c0.7,0,1.2-0.6,1.2-1.2C37.1-92.6,36.5-93.1,35.8-93.1z"/>
				<path d="M35.8-93.1c-0.7,0-1.2,0.6-1.2,1.2c0,0.7,0.6,1.2,1.2,1.2c0.7,0,1.2-0.6,1.2-1.2C37.1-92.6,36.5-93.1,35.8-93.1z"/>
			</g>
			<g class="st2">
				<path class="st3" d="M44.6-89.4c-1.4,0-2.6-1.2-2.6-2.6s1.2-2.6,2.6-2.6s2.6,1.2,2.6,2.6S46.1-89.4,44.6-89.4z M44.6-93.1
					c-0.7,0-1.2,0.6-1.2,1.2c0,0.7,0.6,1.2,1.2,1.2s1.2-0.6,1.2-1.2C45.9-92.6,45.3-93.1,44.6-93.1z"/>
				<path d="M44.6-93.1c-0.7,0-1.2,0.6-1.2,1.2c0,0.7,0.6,1.2,1.2,1.2s1.2-0.6,1.2-1.2C45.9-92.6,45.3-93.1,44.6-93.1z"/>
			</g>
			<g class="st2">
				<path class="st3" d="M53.4-89.4c-1.4,0-2.6-1.2-2.6-2.6s1.2-2.6,2.6-2.6S56-93.4,56-92S54.9-89.4,53.4-89.4z M53.4-93.1
					c-0.7,0-1.2,0.6-1.2,1.2c0,0.7,0.6,1.2,1.2,1.2c0.7,0,1.2-0.6,1.2-1.2C54.7-92.6,54.1-93.1,53.4-93.1z"/>
				<path d="M53.4-93.1c-0.7,0-1.2,0.6-1.2,1.2c0,0.7,0.6,1.2,1.2,1.2c0.7,0,1.2-0.6,1.2-1.2C54.7-92.6,54.1-93.1,53.4-93.1z"/>
			</g>
		</g>
		<g class="st1">
			<g class="st2">
				<path class="st3" d="M-52.3-80.4c-1.4,0-2.6-1.2-2.6-2.6s1.2-2.6,2.6-2.6s2.6,1.2,2.6,2.6S-50.8-80.4-52.3-80.4z M-52.3-84.4
					c-0.7,0-1.2,0.6-1.2,1.2s0.6,1.2,1.2,1.2c0.7,0,1.2-0.6,1.2-1.2S-51.6-84.4-52.3-84.4z"/>
				<path d="M-52.3-84.4c-0.7,0-1.2,0.6-1.2,1.2s0.6,1.2,1.2,1.2c0.7,0,1.2-0.6,1.2-1.2S-51.6-84.4-52.3-84.4z"/>
			</g>
			<g class="st2">
				<path class="st3" d="M-43.5-80.4c-1.4,0-2.6-1.2-2.6-2.6s1.2-2.6,2.6-2.6s2.6,1.2,2.6,2.6S-42-80.4-43.5-80.4z M-43.5-84.4
					c-0.7,0-1.2,0.6-1.2,1.2s0.6,1.2,1.2,1.2c0.7,0,1.2-0.6,1.2-1.2S-42.8-84.4-43.5-84.4z"/>
				<path d="M-43.5-84.4c-0.7,0-1.2,0.6-1.2,1.2s0.6,1.2,1.2,1.2c0.7,0,1.2-0.6,1.2-1.2S-42.8-84.4-43.5-84.4z"/>
			</g>
			<g class="st2">
				<path class="st3" d="M-34.8-80.4c-1.4,0-2.6-1.2-2.6-2.6s1.2-2.6,2.6-2.6s2.6,1.2,2.6,2.6S-33.3-80.4-34.8-80.4z M-34.8-84.4
					c-0.7,0-1.2,0.6-1.2,1.2s0.6,1.2,1.2,1.2c0.7,0,1.2-0.6,1.2-1.2S-34-84.4-34.8-84.4z"/>
				<path d="M-34.8-84.4c-0.7,0-1.2,0.6-1.2,1.2s0.6,1.2,1.2,1.2c0.7,0,1.2-0.6,1.2-1.2S-34-84.4-34.8-84.4z"/>
			</g>
			<g class="st2">
				<path class="st3" d="M-25.8-80.4c-1.4,0-2.6-1.2-2.6-2.6s1.2-2.6,2.6-2.6s2.6,1.2,2.6,2.6S-24.4-80.4-25.8-80.4z M-25.8-84.4
					c-0.7,0-1.2,0.6-1.2,1.2s0.6,1.2,1.2,1.2c0.7,0,1.2-0.6,1.2-1.2S-25.2-84.4-25.8-84.4z"/>
				<path d="M-25.8-84.4c-0.7,0-1.2,0.6-1.2,1.2s0.6,1.2,1.2,1.2c0.7,0,1.2-0.6,1.2-1.2S-25.2-84.4-25.8-84.4z"/>
			</g>
			<g class="st2">
				<path class="st3" d="M-17-80.4c-1.4,0-2.6-1.2-2.6-2.6s1.2-2.6,2.6-2.6s2.6,1.2,2.6,2.6S-15.6-80.4-17-80.4z M-17-84.4
					c-0.7,0-1.2,0.6-1.2,1.2S-17.6-82-17-82c0.7,0,1.2-0.6,1.2-1.2S-16.4-84.4-17-84.4z"/>
				<path d="M-17-84.4c-0.7,0-1.2,0.6-1.2,1.2S-17.6-82-17-82c0.7,0,1.2-0.6,1.2-1.2S-16.4-84.4-17-84.4z"/>
			</g>
			<g class="st2">
				<path class="st3" d="M-8.2-80.4c-1.4,0-2.6-1.2-2.6-2.6s1.2-2.6,2.6-2.6s2.6,1.2,2.6,2.6S-6.8-80.4-8.2-80.4z M-8.2-84.4
					c-0.7,0-1.2,0.6-1.2,1.2S-8.8-82-8.2-82S-7-82.6-7-83.2S-7.5-84.4-8.2-84.4z"/>
				<path d="M-8.2-84.4c-0.7,0-1.2,0.6-1.2,1.2S-8.8-82-8.2-82S-7-82.6-7-83.2S-7.5-84.4-8.2-84.4z"/>
			</g>
			<g class="st2">
				<path class="st3" d="M0.6-80.4C-0.8-80.4-2-81.6-2-83s1.2-2.6,2.6-2.6s2.6,1.1,2.6,2.5S2-80.4,0.6-80.4z M0.6-84.4
					c-0.7,0-1.2,0.6-1.2,1.2S0-82,0.6-82s1.2-0.6,1.2-1.2S1.3-84.4,0.6-84.4z"/>
				<path d="M0.6-84.4c-0.7,0-1.2,0.6-1.2,1.2S0-82,0.6-82s1.2-0.6,1.2-1.2S1.3-84.4,0.6-84.4z"/>
			</g>
			<g class="st2">
				<path class="st3" d="M9.4-80.4c-1.4,0-2.6-1.2-2.6-2.6s1.2-2.6,2.6-2.6S12-84.4,12-83S10.8-80.4,9.4-80.4z M9.4-84.4
					c-0.7,0-1.2,0.6-1.2,1.2S8.8-82,9.4-82s1.2-0.6,1.2-1.2S10.1-84.4,9.4-84.4z"/>
				<path d="M9.4-84.4c-0.7,0-1.2,0.6-1.2,1.2S8.8-82,9.4-82s1.2-0.6,1.2-1.2S10.1-84.4,9.4-84.4z"/>
			</g>
			<g class="st2">
				<path class="st3" d="M18.2-80.4c-1.4,0-2.6-1.2-2.6-2.6s1.2-2.6,2.6-2.6s2.6,1.2,2.6,2.6S19.6-80.4,18.2-80.4z M18.2-84.4
					c-0.7,0-1.2,0.6-1.2,1.2s0.6,1.2,1.2,1.2c0.7,0,1.2-0.6,1.2-1.2S18.9-84.4,18.2-84.4z"/>
				<path d="M18.2-84.4c-0.7,0-1.2,0.6-1.2,1.2s0.6,1.2,1.2,1.2c0.7,0,1.2-0.6,1.2-1.2S18.9-84.4,18.2-84.4z"/>
			</g>
			<g class="st2">
				<path class="st3" d="M27-80.4c-1.4,0-2.6-1.2-2.6-2.6s1.2-2.6,2.6-2.6s2.6,1.2,2.6,2.6S28.4-80.4,27-80.4z M27-84.4
					c-0.7,0-1.2,0.6-1.2,1.2S26.4-82,27-82s1.2-0.6,1.2-1.2S27.7-84.4,27-84.4z"/>
				<path d="M27-84.4c-0.7,0-1.2,0.6-1.2,1.2S26.4-82,27-82s1.2-0.6,1.2-1.2S27.7-84.4,27-84.4z"/>
			</g>
			<g class="st2">
				<path class="st3" d="M35.8-80.4c-1.4,0-2.6-1.2-2.6-2.6s1.2-2.6,2.6-2.6s2.6,1.2,2.6,2.6S37.3-80.4,35.8-80.4z M35.8-84.4
					c-0.7,0-1.2,0.6-1.2,1.2s0.6,1.2,1.2,1.2c0.7,0,1.2-0.6,1.2-1.2S36.5-84.4,35.8-84.4z"/>
				<path d="M35.8-84.4c-0.7,0-1.2,0.6-1.2,1.2s0.6,1.2,1.2,1.2c0.7,0,1.2-0.6,1.2-1.2S36.5-84.4,35.8-84.4z"/>
			</g>
			<g class="st2">
				<path class="st3" d="M44.6-80.4c-1.4,0-2.6-1.2-2.6-2.6s1.2-2.6,2.6-2.6s2.6,1.2,2.6,2.6S46.1-80.4,44.6-80.4z M44.6-84.4
					c-0.7,0-1.2,0.6-1.2,1.2S44-82,44.6-82s1.2-0.6,1.2-1.2S45.3-84.4,44.6-84.4z"/>
				<path d="M44.6-84.4c-0.7,0-1.2,0.6-1.2,1.2S44-82,44.6-82s1.2-0.6,1.2-1.2S45.3-84.4,44.6-84.4z"/>
			</g>
			<g class="st2">
				<path class="st3" d="M53.4-80.4c-1.4,0-2.6-1.2-2.6-2.6s1.2-2.6,2.6-2.6S56-84.4,56-83S54.9-80.4,53.4-80.4z M53.4-84.4
					c-0.7,0-1.2,0.6-1.2,1.2s0.6,1.2,1.2,1.2c0.7,0,1.2-0.6,1.2-1.2S54.1-84.4,53.4-84.4z"/>
				<path d="M53.4-84.4c-0.7,0-1.2,0.6-1.2,1.2s0.6,1.2,1.2,1.2c0.7,0,1.2-0.6,1.2-1.2S54.1-84.4,53.4-84.4z"/>
			</g>
		</g>
		<g class="st1">
			<g class="st2">
				<path class="st3" d="M-17-63.5c-1.4,0-2.6-1.2-2.6-2.6s1.2-2.6,2.6-2.6s2.6,1.2,2.6,2.6S-15.6-63.5-17-63.5z M-17-67.4
					c-0.7,0-1.2,0.6-1.2,1.2s0.6,1.1,1.2,1.1c0.7,0,1.2-0.6,1.2-1.2S-16.4-67.4-17-67.4z"/>
				<path d="M-17-67.4c-0.7,0-1.2,0.6-1.2,1.2s0.6,1.1,1.2,1.1c0.7,0,1.2-0.6,1.2-1.2S-16.4-67.4-17-67.4z"/>
			</g>
			<g class="st2">
				<path class="st3" d="M-8.2-63.5c-1.4,0-2.6-1.2-2.6-2.6s1.2-2.6,2.6-2.6s2.6,1.2,2.6,2.6S-6.8-63.5-8.2-63.5z M-8.2-67.4
					c-0.7,0-1.2,0.6-1.2,1.2s0.6,1.1,1.2,1.1S-7-65.7-7-66.3S-7.5-67.4-8.2-67.4z"/>
				<path d="M-8.2-67.4c-0.7,0-1.2,0.6-1.2,1.2s0.6,1.1,1.2,1.1S-7-65.7-7-66.3S-7.5-67.4-8.2-67.4z"/>
			</g>
			<g class="st2">
				<path class="st3" d="M0.6-63.5c-1.4,0-2.6-1.2-2.6-2.6s1.2-2.6,2.6-2.6s2.6,1.1,2.6,2.6S2-63.5,0.6-63.5z M0.6-67.4
					c-0.7,0-1.2,0.6-1.2,1.2s0.6,1.1,1.2,1.1s1.2-0.6,1.2-1.2S1.3-67.4,0.6-67.4z"/>
				<path d="M0.6-67.4c-0.7,0-1.2,0.6-1.2,1.2s0.6,1.1,1.2,1.1s1.2-0.6,1.2-1.2S1.3-67.4,0.6-67.4z"/>
			</g>
			<g class="st2">
				<path class="st3" d="M9.4-63.5c-1.4,0-2.6-1.2-2.6-2.6s1.2-2.6,2.6-2.6s2.6,1.2,2.6,2.6S10.8-63.5,9.4-63.5z M9.4-67.4
					c-0.7,0-1.2,0.6-1.2,1.2s0.6,1.1,1.2,1.1s1.2-0.6,1.2-1.2S10.1-67.4,9.4-67.4z"/>
				<path d="M9.4-67.4c-0.7,0-1.2,0.6-1.2,1.2s0.6,1.1,1.2,1.1s1.2-0.6,1.2-1.2S10.1-67.4,9.4-67.4z"/>
			</g>
			<g class="st2">
				<path class="st3" d="M18.2-63.5c-1.4,0-2.6-1.2-2.6-2.6s1.2-2.6,2.6-2.6s2.6,1.2,2.6,2.6S19.6-63.5,18.2-63.5z M18.2-67.4
					c-0.7,0-1.2,0.6-1.2,1.2s0.6,1.2,1.2,1.2c0.7,0,1.2-0.6,1.2-1.2S18.9-67.4,18.2-67.4z"/>
				<path d="M18.2-67.4c-0.7,0-1.2,0.6-1.2,1.2s0.6,1.2,1.2,1.2c0.7,0,1.2-0.6,1.2-1.2S18.9-67.4,18.2-67.4z"/>
			</g>
		</g>
		<g class="st1">
			<g class="st2">
				<polygon class="st3" points="98.3,28 94.7,31.6 98.3,35.2 101.8,31.6 				"/>
				<path d="M97.3,30.8c-0.5,0.5-0.5,1.3,0,1.8s1.3,0.5,1.8,0s0.5-1.3,0-1.8S97.8,30.3,97.3,30.8z"/>
			</g>
			<g class="st2">
				<path class="st3" d="M105.3,28.6c-1,1-2.7,1-3.7,0s-1-2.7,0-3.7s2.7-1,3.7,0S106.3,27.5,105.3,28.6z M102.6,25.8
					c-0.5,0.5-0.5,1.3,0,1.8s1.3,0.5,1.8,0s0.5-1.3,0-1.8C103.8,25.3,103.1,25.3,102.6,25.8z"/>
				<path d="M102.6,25.8c-0.5,0.5-0.5,1.3,0,1.8s1.3,0.5,1.8,0s0.5-1.3,0-1.8C103.8,25.3,103.1,25.3,102.6,25.8z"/>
			</g>
			<g class="st2">
				<path class="st3" d="M110,24c-1,1-2.7,1-3.7,0s-1-2.7,0-3.7s2.7-1,3.7,0S111,23,110,24z M107.2,21.3c-0.5,0.5-0.5,1.3,0,1.8
					s1.3,0.5,1.8,0s0.5-1.3,0-1.8S107.7,20.8,107.2,21.3z"/>
				<path d="M107.2,21.3c-0.5,0.5-0.5,1.3,0,1.8s1.3,0.5,1.8,0s0.5-1.3,0-1.8S107.7,20.8,107.2,21.3z"/>
			</g>
			<g class="st2">
				<path class="st3" d="M115.3,18.7c-1,1-2.7,1-3.7,0s-1-2.7,0-3.7s2.7-1,3.7,0S116.3,17.7,115.3,18.7z M112.5,16
					c-0.5,0.5-0.5,1.3,0,1.8s1.3,0.5,1.8,0s0.5-1.3,0-1.8S113,15.5,112.5,16z"/>
				<path d="M112.5,16c-0.5,0.5-0.5,1.3,0,1.8s1.3,0.5,1.8,0s0.5-1.3,0-1.8S113,15.5,112.5,16z"/>
			</g>
		</g>
		<g class="st1">
			<g class="st2">
				<polygon class="st3" points="-108.2,17 -111.8,13.4 -115.4,17 -111.8,20.7 				"/>
				<path d="M-110.9,16.2c-0.5-0.5-1.3-0.5-1.8,0s-0.5,1.3,0,1.8s1.3,0.5,1.8,0S-110.4,16.7-110.9,16.2z"/>
			</g>
			<g class="st2">
				<path class="st3" d="M-108.8,24.1c-1-1-1-2.7,0-3.7s2.7-1,3.7,0s1,2.7,0,3.7S-107.8,25.1-108.8,24.1z M-106,21.3
					c-0.5-0.5-1.3-0.5-1.8,0s-0.5,1.3,0,1.8s1.3,0.5,1.8,0C-105.5,22.6-105.5,21.8-106,21.3z"/>
				<path d="M-106,21.3c-0.5-0.5-1.3-0.5-1.8,0s-0.5,1.3,0,1.8s1.3,0.5,1.8,0C-105.5,22.6-105.5,21.8-106,21.3z"/>
			</g>
			<g class="st2">
				<path class="st3" d="M-104.2,28.7c-1-1-1-2.7,0-3.7s2.7-1,3.7,0s1,2.7,0,3.7S-103.2,29.8-104.2,28.7z M-101.4,26
					c-0.5-0.5-1.3-0.5-1.8,0s-0.5,1.3,0,1.8s1.3,0.5,1.8,0S-100.9,26.5-101.4,26z"/>
				<path d="M-101.4,26c-0.5-0.5-1.3-0.5-1.8,0s-0.5,1.3,0,1.8s1.3,0.5,1.8,0S-100.9,26.5-101.4,26z"/>
			</g>
			<g class="st2">
				<path class="st3" d="M-98.9,34c-1-1-1-2.7,0-3.7s2.7-1,3.7,0s1,2.7,0,3.7S-97.8,35-98.9,34z M-96.2,31.3c-0.5-0.5-1.3-0.5-1.8,0
					s-0.5,1.3,0,1.8s1.3,0.5,1.8,0S-95.7,31.8-96.2,31.3z"/>
				<path d="M-96.2,31.3c-0.5-0.5-1.3-0.5-1.8,0s-0.5,1.3,0,1.8s1.3,0.5,1.8,0S-95.7,31.8-96.2,31.3z"/>
			</g>
		</g>
		<g>
			<path class="st3" d="M-132.4,17c-9.4,0-17.1-7.6-17.1-17.1s7.6-17.1,17.1-17.1s17.1,7.6,17.1,17.1S-122.9,17-132.4,17z
				 M-132.4-8.2c-4.5,0-8.1,3.6-8.1,8.1s3.6,8.1,8.1,8.1s8.1-3.6,8.1-8.1S-127.8-8.2-132.4-8.2z"/>
			<path class="st3" d="M66.7,131.8c-9.4,0-17.1-7.6-17.1-17.1s7.6-17.1,17.1-17.1s17.1,7.6,17.1,17.1S76.1,131.8,66.7,131.8z
				 M66.7,106.5c-4.5,0-8.1,3.6-8.1,8.1s3.6,8.1,8.1,8.1s8.1-3.6,8.1-8.1S71.2,106.5,66.7,106.5z"/>
			<path class="st3" d="M132.4,17c-9.4,0-17.1-7.6-17.1-17.1s7.6-17.1,17.1-17.1s17.1,7.6,17.1,17.1S141.8,17,132.4,17z M132.4-8.2
				c-4.5,0-8.1,3.6-8.1,8.1s3.6,8.1,8.1,8.1s8.1-3.6,8.1-8.1S136.8-8.2,132.4-8.2z"/>
			<path class="st3" d="M66.7-96.6c-9.4,0-17.1-7.6-17.1-17.1s7.6-17.1,17.1-17.1s17.1,7.6,17.1,17.1S76.1-96.6,66.7-96.6z
				 M66.7-121.7c-4.5,0-8.1,3.6-8.1,8.1s3.6,8.1,8.1,8.1s8.1-3.6,8.1-8.1S71.2-121.7,66.7-121.7z"/>
			<path class="st3" d="M-65.3-97.6c-9.4,0-17.1-7.6-17.1-17.1s7.6-17.1,17.1-17.1s17.1,7.6,17.1,17.1S-55.9-97.6-65.3-97.6z
				 M-65.3-122.7c-4.5,0-8.1,3.6-8.1,8.1s3.6,8.1,8.1,8.1s8.1-3.6,8.1-8.1S-60.8-122.7-65.3-122.7z"/>
			<path class="st3" d="M-65.3,131.8c-9.4,0-17.1-7.6-17.1-17.1s7.6-17.1,17.1-17.1s17.1,7.6,17.1,17.1S-55.9,131.8-65.3,131.8z
				 M-65.3,106.5c-4.5,0-8.1,3.6-8.1,8.1s3.6,8.1,8.1,8.1s8.1-3.6,8.1-8.1S-60.8,106.5-65.3,106.5z"/>
		</g>
	</g>
	<path class="st4" d="M132.4-8.2c-4.5,0-8.1,3.6-8.1,8.1s3.6,8.1,8.1,8.1s8.1-3.6,8.1-8.1S136.8-8.2,132.4-8.2z"/>
	<path class="st4" d="M66.7,106.5c-4.5,0-8.1,3.6-8.1,8.1s3.6,8.1,8.1,8.1s8.1-3.6,8.1-8.1S71.2,106.5,66.7,106.5z"/>
	<path class="st4" d="M-65.3,106.5c-4.5,0-8.1,3.6-8.1,8.1s3.6,8.1,8.1,8.1s8.1-3.6,8.1-8.1S-60.8,106.5-65.3,106.5z"/>
	<path class="st4" d="M-132.4-8.1c-4.5,0-8.1,3.6-8.1,8.1s3.6,8.1,8.1,8.1s8.1-3.6,8.1-8.1S-127.8-8.1-132.4-8.1z"/>
	<path class="st4" d="M-65.3-122.7c-4.5,0-8.1,3.6-8.1,8.1s3.6,8.1,8.1,8.1s8.1-3.6,8.1-8.1S-60.8-122.7-65.3-122.7z"/>
	<path class="st4" d="M66.7-121.7c-4.5,0-8.1,3.6-8.1,8.1s3.6,8.1,8.1,8.1s8.1-3.6,8.1-8.1S71.2-121.7,66.7-121.7z"/>
</symbol>
<g id="Ebene_1_1_">
	<g>
		<path class="st5" d="M678.4,193.6c0-11.8-9.6-21.3-21.3-21.3H366.5c-11.7,0-21.3,9.6-21.3,21.3v229c0,11.8,9.6,21.3,21.3,21.3H657
			c11.8,0,21.3-9.6,21.3-21.3L678.4,193.6L678.4,193.6z M354.8,310.6c-1.8,0-3.2-1.5-3.2-3.2c0-1.8,1.5-3.2,3.2-3.2
			c1.8,0,3.2,1.5,3.2,3.2C358.1,309.2,356.6,310.6,354.8,310.6z M670.5,310.6c-1.8,0-3.2-1.5-3.2-3.2c0-1.8,0.1-3.2,3.2-3.2
			c1.8,0,3.2,1.5,3.2,3.2C673.7,309.2,672.3,310.6,670.5,310.6z"/>
		<path class="st5" d="M568.5,379.9H456.2c-5.5,0-10-4.5-10-10V257.6c0-5.5,4.5-10,10-10h112.3c5.5,0,10,4.5,10,10v112.3
			C578.6,375.5,574.1,379.9,568.5,379.9z"/>
		<polygon class="st6" points="422.2,210.2 461,172.3 422.2,172.3 		"/>
		<path class="st6" d="M421.6,172.3h-59.1c-9.3,1.4-17.3,8.9-17.3,18.5V247L421.6,172.3z"/>
		<polygon class="st6" points="461,191 480.7,172.3 461,172.3 		"/>
		<polygon class="st6" points="381.4,334.5 381.4,355.7 360.2,355.7 		"/>
		<polygon class="st6" points="643.7,282.5 643.7,261.2 665,261.2 		"/>
		<path class="st7" d="M449.6,247.9h4c0.7,0,1.3,0.6,1.3,1.3v10.7c0,0.7-0.6,1.3-1.3,1.3h-4c-0.7,0-1.3-0.6-1.3-1.3v-10.7
			C448.3,248.5,448.9,247.9,449.6,247.9z"/>
		<path class="st8" d="M448.9,246.6h5.4c1.1,0,2,0.9,2,2v12.1c0,1.1-0.9,2-2,2h-5.4c-1.1,0-2-0.9-2-2v-12.1
			C446.9,247.5,447.8,246.6,448.9,246.6z		">
<title>(0,0)</title>
		</path>
		<path class="st7" d="M480.4,247.9h4c0.7,0,1.3,0.6,1.3,1.3v10.7c0,0.7-0.6,1.3-1.3,1.3h-4c-0.7,0-1.3-0.6-1.3-1.3v-10.7
			C479,248.5,479.6,247.9,480.4,247.9z"/>
		<path class="st8" d="M479.7,246.6h5.4c1.1,0,2,0.9,2,2v12.1c0,1.1-0.9,2-2,2h-5.4c-1.1,0-2-0.9-2-2v-12.1
			C477.7,247.5,478.6,246.6,479.7,246.6z		">
<title>(1,0)</title>
		</path>
		<path class="st7" d="M511.1,247.9h4c0.7,0,1.3,0.6,1.3,1.3v10.7c0,0.7-0.6,1.3-1.3,1.3h-4c-0.7,0-1.3-0.6-1.3-1.3v-10.7
			C509.8,248.5,510.4,247.9,511.1,247.9z"/>
		<path class="st8" d="M510.5,246.6h5.4c1.1,0,2,0.9,2,2v12.1c0,1.1-0.9,2-2,2h-5.4c-1.1,0-2-0.9-2-2v-12.1
			C508.5,247.5,509.4,246.6,510.5,246.6z		">
<title>(2,0)</title>
		</path>
		<path class="st7" d="M541.9,247.9h4c0.7,0,1.3,0.6,1.3,1.3v10.7c0,0.7-0.6,1.3-1.3,1.3h-4c-0.7,0-1.3-0.6-1.3-1.3v-10.7
			C540.6,248.5,541.2,247.9,541.9,247.9z"/>
		<path class="st8" d="M541.3,246.6h5.4c1.1,0,2,0.9,2,2v12.1c0,1.1-0.9,2-2,2h-5.4c-1.1,0-2-0.9-2-2v-12.1
			C539.2,247.5,540.2,246.6,541.3,246.6z		">
<title>(3,0)</title>
		</path>
		<path class="st7" d="M572.7,247.9h4c0.7,0,1.3,0.6,1.3,1.3v10.7c0,0.7-0.6,1.3-1.3,1.3h-4c-0.7,0-1.3-0.6-1.3-1.3v-10.7
			C571.3,248.5,571.9,247.9,572.7,247.9z"/>
		<path class="st8" d="M572,246.6h5.4c1.1,0,2,0.9,2,2v12.1c0,1.1-0.9,2-2,2H572c-1.1,0-2-0.9-2-2v-12.1
			C570,247.5,570.9,246.6,572,246.6z		">
<title>(4,0)</title>
		</path>
		<path class="st7" d="M449.6,277.4h4c0.7,0,1.3,0.6,1.3,1.3v10.7c0,0.7-0.6,1.3-1.3,1.3h-4c-0.7,0-1.3-0.6-1.3-1.3v-10.7
			C448.3,278,448.9,277.4,449.6,277.4z"/>
		<path class="st8" d="M448.9,276h5.4c1.1,0,2,0.9,2,2v12.1c0,1.1-0.9,2-2,2h-5.4c-1.1,0-2-0.9-2-2V278
			C446.9,276.9,447.8,276,448.9,276z		">
<title>(0,1)</title>
		</path>
		<path class="st7" d="M480.4,277.4h4c0.7,0,1.3,0.6,1.3,1.3v10.7c0,0.7-0.6,1.3-1.3,1.3h-4c-0.7,0-1.3-0.6-1.3-1.3v-10.7
			C479,278,479.6,277.4,480.4,277.4z"/>
		<path class="st8" d="M479.7,276h5.4c1.1,0,2,0.9,2,2v12.1c0,1.1-0.9,2-2,2h-5.4c-1.1,0-2-0.9-2-2V278
			C477.7,276.9,478.6,276,479.7,276z		">
<title>(1,1)</title>
		</path>
		<path class="st7" d="M511.1,277.4h4c0.7,0,1.3,0.6,1.3,1.3v10.7c0,0.7-0.6,1.3-1.3,1.3h-4c-0.7,0-1.3-0.6-1.3-1.3v-10.7
			C509.8,278,510.4,277.4,511.1,277.4z"/>
		<path class="st8" d="M510.5,276h5.4c1.1,0,2,0.9,2,2v12.1c0,1.1-0.9,2-2,2h-5.4c-1.1,0-2-0.9-2-2V278
			C508.5,276.9,509.4,276,510.5,276z		">
<title>(2,1)</title>
		</path>
		<path class="st7" d="M541.9,277.4h4c0.7,0,1.3,0.6,1.3,1.3v10.7c0,0.7-0.6,1.3-1.3,1.3h-4c-0.7,0-1.3-0.6-1.3-1.3v-10.7
			C540.6,278,541.2,277.4,541.9,277.4z"/>
		<path class="st8" d="M541.3,276h5.4c1.1,0,2,0.9,2,2v12.1c0,1.1-0.9,2-2,2h-5.4c-1.1,0-2-0.9-2-2V278
			C539.2,276.9,540.2,276,541.3,276z		">
<title>(3,1)</title>
		</path>
		<path class="st7" d="M572.7,277.4h4c0.7,0,1.3,0.6,1.3,1.3v10.7c0,0.7-0.6,1.3-1.3,1.3h-4c-0.7,0-1.3-0.6-1.3-1.3v-10.7
			C571.3,278,571.9,277.4,572.7,277.4z"/>
		<path class="st8" d="M572,276h5.4c1.1,0,2,0.9,2,2v12.1c0,1.1-0.9,2-2,2H572c-1.1,0-2-0.9-2-2V278C570,276.9,570.9,276,572,276z		
			">
<title>(4,1)</title>
		</path>
		<path class="st7" d="M449.6,306.8h4c0.7,0,1.3,0.6,1.3,1.3v10.7c0,0.7-0.6,1.3-1.3,1.3h-4c-0.7,0-1.3-0.6-1.3-1.3v-10.7
			C448.3,307.4,448.9,306.8,449.6,306.8z"/>
		<path class="st8" d="M448.9,305.4h5.4c1.1,0,2,0.9,2,2v12.1c0,1.1-0.9,2-2,2h-5.4c-1.1,0-2-0.9-2-2v-12.1
			C446.9,306.4,447.8,305.4,448.9,305.4z		">
<title>(0,2)</title>
		</path>
		<path class="st7" d="M480.4,306.8h4c0.7,0,1.3,0.6,1.3,1.3v10.7c0,0.7-0.6,1.3-1.3,1.3h-4c-0.7,0-1.3-0.6-1.3-1.3v-10.7
			C479,307.4,479.6,306.8,480.4,306.8z"/>
		<path class="st8" d="M479.7,305.4h5.4c1.1,0,2,0.9,2,2v12.1c0,1.1-0.9,2-2,2h-5.4c-1.1,0-2-0.9-2-2v-12.1
			C477.7,306.4,478.6,305.4,479.7,305.4z		">
<title>(1,2)</title>
		</path>
		<path class="st7" d="M511.1,306.8h4c0.7,0,1.3,0.6,1.3,1.3v10.7c0,0.7-0.6,1.3-1.3,1.3h-4c-0.7,0-1.3-0.6-1.3-1.3v-10.7
			C509.8,307.4,510.4,306.8,511.1,306.8z"/>
		<path class="st8" d="M510.5,305.4h5.4c1.1,0,2,0.9,2,2v12.1c0,1.1-0.9,2-2,2h-5.4c-1.1,0-2-0.9-2-2v-12.1
			C508.5,306.4,509.4,305.4,510.5,305.4z		">
<title>(2,2)</title>
		</path>
		<path class="st7" d="M541.9,306.8h4c0.7,0,1.3,0.6,1.3,1.3v10.7c0,0.7-0.6,1.3-1.3,1.3h-4c-0.7,0-1.3-0.6-1.3-1.3v-10.7
			C540.6,307.4,541.2,306.8,541.9,306.8z"/>
		<path class="st8" d="M541.3,305.4h5.4c1.1,0,2,0.9,2,2v12.1c0,1.1-0.9,2-2,2h-5.4c-1.1,0-2-0.9-2-2v-12.1
			C539.2,306.4,540.2,305.4,541.3,305.4z		">
<title>(3,2)</title>
		</path>
		<path class="st7" d="M572.7,306.8h4c0.7,0,1.3,0.6,1.3,1.3v10.7c0,0.7-0.6,1.3-1.3,1.3h-4c-0.7,0-1.3-0.6-1.3-1.3v-10.7
			C571.3,307.4,571.9,306.8,572.7,306.8z"/>
		<path class="st8" d="M572,305.4h5.4c1.1,0,2,0.9,2,2v12.1c0,1.1-0.9,2-2,2H572c-1.1,0-2-0.9-2-2v-12.1
			C570,306.4,570.9,305.4,572,305.4z		">
<title>(4,2)</title>
		</path>
		<path class="st7" d="M449.6,336.2h4c0.7,0,1.3,0.6,1.3,1.3v10.7c0,0.7-0.6,1.3-1.3,1.3h-4c-0.7,0-1.3-0.6-1.3-1.3v-10.7
			C448.3,336.8,448.9,336.2,449.6,336.2z"/>
		<path class="st8" d="M448.9,334.9h5.4c1.1,0,2,0.9,2,2V349c0,1.1-0.9,2-2,2h-5.4c-1.1,0-2-0.9-2-2v-12.1
			C446.9,335.8,447.8,334.9,448.9,334.9z		">
<title>(0,3)</title>
		</path>
		<path class="st7" d="M480.4,336.2h4c0.7,0,1.3,0.6,1.3,1.3v10.7c0,0.7-0.6,1.3-1.3,1.3h-4c-0.7,0-1.3-0.6-1.3-1.3v-10.7
			C479,336.8,479.6,336.2,480.4,336.2z"/>
		<path class="st8" d="M479.7,334.9h5.4c1.1,0,2,0.9,2,2V349c0,1.1-0.9,2-2,2h-5.4c-1.1,0-2-0.9-2-2v-12.1
			C477.7,335.8,478.6,334.9,479.7,334.9z		">
<title>(1,3)</title>
		</path>
		<path class="st7" d="M511.1,336.2h4c0.7,0,1.3,0.6,1.3,1.3v10.7c0,0.7-0.6,1.3-1.3,1.3h-4c-0.7,0-1.3-0.6-1.3-1.3v-10.7
			C509.8,336.8,510.4,336.2,511.1,336.2z"/>
		<path class="st8" d="M510.5,334.9h5.4c1.1,0,2,0.9,2,2V349c0,1.1-0.9,2-2,2h-5.4c-1.1,0-2-0.9-2-2v-12.1
			C508.5,335.8,509.4,334.9,510.5,334.9z		">
<title>(2,3)</title>
		</path>
		<path class="st7" d="M541.9,336.2h4c0.7,0,1.3,0.6,1.3,1.3v10.7c0,0.7-0.6,1.3-1.3,1.3h-4c-0.7,0-1.3-0.6-1.3-1.3v-10.7
			C540.6,336.8,541.2,336.2,541.9,336.2z"/>
		<path class="st8" d="M541.3,334.9h5.4c1.1,0,2,0.9,2,2V349c0,1.1-0.9,2-2,2h-5.4c-1.1,0-2-0.9-2-2v-12.1
			C539.2,335.8,540.2,334.9,541.3,334.9z		">
<title>(3,3)</title>
		</path>
		<path class="st7" d="M572.7,336.2h4c0.7,0,1.3,0.6,1.3,1.3v10.7c0,0.7-0.6,1.3-1.3,1.3h-4c-0.7,0-1.3-0.6-1.3-1.3v-10.7
			C571.3,336.8,571.9,336.2,572.7,336.2z"/>
		<path class="st8" d="M572,334.9h5.4c1.1,0,2,0.9,2,2V349c0,1.1-0.9,2-2,2H572c-1.1,0-2-0.9-2-2v-12.1
			C570,335.8,570.9,334.9,572,334.9z		">
<title>(4,3)</title>
		</path>
		<path class="st7" d="M449.6,365.7h4c0.7,0,1.3,0.6,1.3,1.3v10.7c0,0.7-0.6,1.3-1.3,1.3h-4c-0.7,0-1.3-0.6-1.3-1.3V367
			C448.3,366.3,448.9,365.7,449.6,365.7z"/>
		<path class="st8" d="M448.9,364.3h5.4c1.1,0,2,0.9,2,2v12.1c0,1.1-0.9,2-2,2h-5.4c-1.1,0-2-0.9-2-2v-12.1
			C446.9,365.2,447.8,364.3,448.9,364.3z		">
<title>(0,4)</title>
		</path>
		<path class="st7" d="M480.4,365.7h4c0.7,0,1.3,0.6,1.3,1.3v10.7c0,0.7-0.6,1.3-1.3,1.3h-4c-0.7,0-1.3-0.6-1.3-1.3V367
			C479,366.3,479.6,365.7,480.4,365.7z"/>
		<path class="st8" d="M479.7,364.3h5.4c1.1,0,2,0.9,2,2v12.1c0,1.1-0.9,2-2,2h-5.4c-1.1,0-2-0.9-2-2v-12.1
			C477.7,365.2,478.6,364.3,479.7,364.3z		">
<title>(1,4)</title>
		</path>
		<path class="st7" d="M511.1,365.7h4c0.7,0,1.3,0.6,1.3,1.3v10.7c0,0.7-0.6,1.3-1.3,1.3h-4c-0.7,0-1.3-0.6-1.3-1.3V367
			C509.8,366.3,510.4,365.7,511.1,365.7z"/>
		<path class="st8" d="M510.5,364.3h5.4c1.1,0,2,0.9,2,2v12.1c0,1.1-0.9,2-2,2h-5.4c-1.1,0-2-0.9-2-2v-12.1
			C508.5,365.2,509.4,364.3,510.5,364.3z		">
<title>(2,4)</title>
		</path>
		<path class="st7" d="M541.9,365.7h4c0.7,0,1.3,0.6,1.3,1.3v10.7c0,0.7-0.6,1.3-1.3,1.3h-4c-0.7,0-1.3-0.6-1.3-1.3V367
			C540.6,366.3,541.2,365.7,541.9,365.7z"/>
		<path class="st8" d="M541.3,364.3h5.4c1.1,0,2,0.9,2,2v12.1c0,1.1-0.9,2-2,2h-5.4c-1.1,0-2-0.9-2-2v-12.1
			C539.2,365.2,540.2,364.3,541.3,364.3z		">
<title>(3,4)</title>
		</path>
		<path class="st7" d="M572.7,365.7h4c0.7,0,1.3,0.6,1.3,1.3v10.7c0,0.7-0.6,1.3-1.3,1.3h-4c-0.7,0-1.3-0.6-1.3-1.3V367
			C571.3,366.3,571.9,365.7,572.7,365.7z"/>
		<path class="st8" d="M572,364.3h5.4c1.1,0,2,0.9,2,2v12.1c0,1.1-0.9,2-2,2H572c-1.1,0-2-0.9-2-2v-12.1
			C570,365.2,570.9,364.3,572,364.3z		">
<title>(4,4)</title>
		</path>
		<g>
			<circle class="st9" cx="517.8" cy="222.5" r="66.9"/>
			<path class="st6" d="M525.8,205.9L525.8,205.9h-26.4l0,0c-9.4,0-16.5,7.2-16.5,16.6c0,9.3,7,16.3,16.3,16.5l0,0h26.5
				c9.5,0,16.6-7.1,16.6-16.5C542.3,213.1,535.2,206,525.8,205.9 M525.7,232L525.7,232h-26.3c-5.1,0-9.4-4.3-9.4-9.5
				s4.3-9.5,9.5-9.5h26.1c5.2,0,9.5,4.3,9.5,9.5C535.2,227.8,530.9,232,525.7,232"/>
			<path class="st6" d="M499.5,219c-1.9,0-3.5,1.6-3.5,3.5s1.6,3.5,3.5,3.5s3.5-1.6,3.5-3.5C503.1,220.6,501.5,219,499.5,219"/>
			<path class="st6" d="M525.7,226.1c1.9,0,3.5-1.6,3.5-3.5s-1.6-3.5-3.5-3.5s-3.5,1.6-3.5,3.5C522.1,224.5,523.7,226.1,525.7,226.1
				"/>
		</g>
		
			<linearGradient id="SVGID_1_" gradientUnits="userSpaceOnUse" x1="1008.5331" y1="-258.8038" x2="1008.5331" y2="-258.3456" gradientTransform="matrix(69.4493 0 0 128.9774 -69669.7188 33764.6406)">
			<stop  offset="0" style="stop-color:#D4AF37"/>
			<stop  offset="1" style="stop-color:#D4AF37"/>
			<stop  offset="1" style="stop-color:#FF5500"/>
			<stop  offset="1" style="stop-color:#FF5500"/>
		</linearGradient>
		<path class="st10" d="M356.3,400.6c0,0.3,0,0.6,0,0.9v40.6c2.8,1.1,5.7,1.8,8.6,1.8h23v-43.3h0.2l0,0c0-8.7-7.1-15.8-15.9-15.8
			C363.4,384.8,356.3,391.8,356.3,400.6z M359.4,400.9c0-7.2,5.8-12.9,12.9-12.9c7.2,0,12.9,5.8,12.9,12.9c0,7.2-5.7,12.9-12.9,12.9
			C365.2,413.8,359.4,408,359.4,400.9z		">
<title>P0, ANALOG IN</title>
		</path>
		
			<linearGradient id="SVGID_2_" gradientUnits="userSpaceOnUse" x1="1007.04" y1="-258.781" x2="1007.04" y2="-258.3225" gradientTransform="matrix(67.4067 0 0 129.4151 -67442.9922 33874.7656)">
			<stop  offset="0" style="stop-color:#D4AF37"/>
			<stop  offset="1" style="stop-color:#D4AF37"/>
			<stop  offset="1" style="stop-color:#FF5500"/>
			<stop  offset="1" style="stop-color:#FF5500"/>
		</linearGradient>
		<path class="st11" d="M438.3,384.6c-8.6,0-14.8,6.9-15.5,15.5V444h30.9v-44C453.7,391.5,446.8,384.6,438.3,384.6z M438.4,413.2
			c-7.2,0-12.9-5.7-12.9-12.9c0-7.2,5.7-12.9,12.9-12.9c7.2,0,12.9,5.8,12.9,12.9C451.3,407.5,445.6,413.2,438.4,413.2z		">
<title>P1, ANALOG IN</title>
		</path>
		
			<linearGradient id="SVGID_3_" gradientUnits="userSpaceOnUse" x1="1005.7516" y1="-258.781" x2="1005.7516" y2="-258.3225" gradientTransform="matrix(67.4067 0 0 129.4151 -67282.6484 33874.7656)">
			<stop  offset="0" style="stop-color:#D4AF37"/>
			<stop  offset="1" style="stop-color:#D4AF37"/>
			<stop  offset="1" style="stop-color:#FF5500"/>
			<stop  offset="1" style="stop-color:#FF5500"/>
		</linearGradient>
		<path class="st12" d="M511.8,384.6c-8.6,0-14.8,6.9-15.5,15.5V444h30.9v-44C527.3,391.5,520.4,384.6,511.8,384.6z M512.1,413.2
			c-7.2,0-12.9-5.7-12.9-12.9c0-7.2,5.7-12.9,12.9-12.9c7.2,0,12.9,5.8,12.9,12.9C525,407.5,519.2,413.2,512.1,413.2z		">
<title>P2, ANALOG IN</title>
		</path>
		
			<linearGradient id="SVGID_4_" gradientUnits="userSpaceOnUse" x1="984.4834" y1="-265.7603" x2="984.4834" y2="-265.3019" gradientTransform="matrix(21.0099 0 0 64.7805 -20333.8965 17627.7188)">
			<stop  offset="0" style="stop-color:#D4AF37"/>
			<stop  offset="1" style="stop-color:#D4AF37"/>
			<stop  offset="1" style="stop-color:#FF5500"/>
			<stop  offset="1" style="stop-color:#FF5500"/>
		</linearGradient>
		<path class="st13" d="M345.2,411.6v12.8c0,7.2,4.1,13.5,9.6,16.9v-29.7L345.2,411.6L345.2,411.6z		">
<title>P3, ANALOG IN, LED Col 1</title>
		</path>
		
			<linearGradient id="SVGID_5_" gradientUnits="userSpaceOnUse" x1="965.5836" y1="-264.2398" x2="965.5836" y2="-263.7806" gradientTransform="matrix(14.5902 0 0 72.951 -13694.9072 19687.5039)">
			<stop  offset="0" style="stop-color:#D4AF37"/>
			<stop  offset="1" style="stop-color:#D4AF37"/>
			<stop  offset="1" style="stop-color:#FF5500"/>
			<stop  offset="1" style="stop-color:#FF5500"/>
		</linearGradient>
		<rect x="389.8" y="410.9" class="st14" width="6.7" height="33.5">
		<title>P4, ANALOG IN, LED Col 2</title>
		</rect>
		
			<linearGradient id="SVGID_6_" gradientUnits="userSpaceOnUse" x1="964.9124" y1="-264.2398" x2="964.9124" y2="-263.7806" gradientTransform="matrix(14.5902 0 0 72.951 -13676.8154 19687.5039)">
			<stop  offset="0" style="stop-color:#D4AF37"/>
			<stop  offset="1" style="stop-color:#D4AF37"/>
			<stop  offset="1" style="stop-color:#FF5500"/>
			<stop  offset="1" style="stop-color:#FF5500"/>
		</linearGradient>
		<rect x="398.1" y="410.9" class="st15" width="6.7" height="33.5">
		<title>P5, BUTTON A</title>
		</rect>
		
			<linearGradient id="SVGID_7_" gradientUnits="userSpaceOnUse" x1="964.2444" y1="-264.2398" x2="964.2444" y2="-263.7806" gradientTransform="matrix(14.5902 0 0 72.951 -13658.8691 19687.5039)">
			<stop  offset="0" style="stop-color:#D4AF37"/>
			<stop  offset="1" style="stop-color:#D4AF37"/>
			<stop  offset="1" style="stop-color:#FF5500"/>
			<stop  offset="1" style="stop-color:#FF5500"/>
		</linearGradient>
		<rect x="406.3" y="410.9" class="st16" width="6.7" height="33.5">
		<title>P6, LED Col 9</title>
		</rect>
		
			<linearGradient id="SVGID_8_" gradientUnits="userSpaceOnUse" x1="963.5833" y1="-264.2398" x2="963.5833" y2="-263.7806" gradientTransform="matrix(14.5902 0 0 72.951 -13640.9238 19687.5039)">
			<stop  offset="0" style="stop-color:#D4AF37"/>
			<stop  offset="1" style="stop-color:#D4AF37"/>
			<stop  offset="1" style="stop-color:#FF5500"/>
			<stop  offset="1" style="stop-color:#FF5500"/>
		</linearGradient>
		<rect x="414.6" y="410.9" class="st17" width="6.7" height="33.5">
		<title>P7, LED Col 8</title>
		</rect>
		
			<linearGradient id="SVGID_9_" gradientUnits="userSpaceOnUse" x1="960.2991" y1="-264.2398" x2="960.2991" y2="-263.7806" gradientTransform="matrix(14.5902 0 0 72.951 -13552.5068 19687.5039)">
			<stop  offset="0" style="stop-color:#D4AF37"/>
			<stop  offset="1" style="stop-color:#D4AF37"/>
			<stop  offset="1" style="stop-color:#FF5500"/>
			<stop  offset="1" style="stop-color:#FF5500"/>
		</linearGradient>
		<rect x="455.1" y="410.9" class="st18" width="6.7" height="33.5">
		<title>P8</title>
		</rect>
		
			<linearGradient id="SVGID_10_" gradientUnits="userSpaceOnUse" x1="959.6381" y1="-264.2398" x2="959.6381" y2="-263.7806" gradientTransform="matrix(14.5902 0 0 72.951 -13534.5615 19687.5039)">
			<stop  offset="0" style="stop-color:#D4AF37"/>
			<stop  offset="1" style="stop-color:#D4AF37"/>
			<stop  offset="1" style="stop-color:#FF5500"/>
			<stop  offset="1" style="stop-color:#FF5500"/>
		</linearGradient>
		<rect x="463.4" y="410.9" class="st19" width="6.7" height="33.5">
		<title>P9, LED Col 7</title>
		</rect>
		
			<linearGradient id="SVGID_11_" gradientUnits="userSpaceOnUse" x1="958.97" y1="-264.2398" x2="958.97" y2="-263.7806" gradientTransform="matrix(14.5902 0 0 72.951 -13516.6152 19687.5039)">
			<stop  offset="0" style="stop-color:#D4AF37"/>
			<stop  offset="1" style="stop-color:#D4AF37"/>
			<stop  offset="1" style="stop-color:#FF5500"/>
			<stop  offset="1" style="stop-color:#FF5500"/>
		</linearGradient>
		<rect x="471.6" y="410.9" class="st20" width="6.7" height="33.5">
		<title>P10, ANALOG IN, LED Col 3</title>
		</rect>
		
			<linearGradient id="SVGID_12_" gradientUnits="userSpaceOnUse" x1="958.299" y1="-264.2398" x2="958.299" y2="-263.7806" gradientTransform="matrix(14.5902 0 0 72.951 -13498.5234 19687.5039)">
			<stop  offset="0" style="stop-color:#D4AF37"/>
			<stop  offset="1" style="stop-color:#D4AF37"/>
			<stop  offset="1" style="stop-color:#FF5500"/>
			<stop  offset="1" style="stop-color:#FF5500"/>
		</linearGradient>
		<rect x="479.9" y="410.9" class="st21" width="6.7" height="33.5">
		<title>P11, BUTTON B</title>
		</rect>
		
			<linearGradient id="SVGID_13_" gradientUnits="userSpaceOnUse" x1="957.6309" y1="-264.2398" x2="957.6309" y2="-263.7806" gradientTransform="matrix(14.5902 0 0 72.951 -13480.5771 19687.5039)">
			<stop  offset="0" style="stop-color:#D4AF37"/>
			<stop  offset="1" style="stop-color:#D4AF37"/>
			<stop  offset="1" style="stop-color:#FF5500"/>
			<stop  offset="1" style="stop-color:#FF5500"/>
		</linearGradient>
		<rect x="488.1" y="410.9" class="st22" width="6.7" height="33.5">
		<title>P12, RESERVED ACCESSIBILITY</title>
		</rect>
		
			<linearGradient id="SVGID_14_" gradientUnits="userSpaceOnUse" x1="954.2948" y1="-264.2398" x2="954.2948" y2="-263.7806" gradientTransform="matrix(14.5902 0 0 72.951 -13390.7021 19687.5039)">
			<stop  offset="0" style="stop-color:#D4AF37"/>
			<stop  offset="1" style="stop-color:#D4AF37"/>
			<stop  offset="1" style="stop-color:#FF5500"/>
			<stop  offset="1" style="stop-color:#FF5500"/>
		</linearGradient>
		<rect x="529.3" y="410.9" class="st23" width="6.7" height="33.5">
		<title>P13, SPI - SCK</title>
		</rect>
		
			<linearGradient id="SVGID_15_" gradientUnits="userSpaceOnUse" x1="953.6337" y1="-264.2398" x2="953.6337" y2="-263.7806" gradientTransform="matrix(14.5902 0 0 72.951 -13372.7559 19687.5039)">
			<stop  offset="0" style="stop-color:#D4AF37"/>
			<stop  offset="1" style="stop-color:#D4AF37"/>
			<stop  offset="1" style="stop-color:#FF5500"/>
			<stop  offset="1" style="stop-color:#FF5500"/>
		</linearGradient>
		<rect x="537.6" y="410.9" class="st24" width="6.7" height="33.5">
		<title>P14, SPI - MISO</title>
		</rect>
		
			<linearGradient id="SVGID_16_" gradientUnits="userSpaceOnUse" x1="952.9656" y1="-264.2398" x2="952.9656" y2="-263.7806" gradientTransform="matrix(14.5902 0 0 72.951 -13354.8096 19687.5039)">
			<stop  offset="0" style="stop-color:#D4AF37"/>
			<stop  offset="1" style="stop-color:#D4AF37"/>
			<stop  offset="1" style="stop-color:#FF5500"/>
			<stop  offset="1" style="stop-color:#FF5500"/>
		</linearGradient>
		<rect x="545.8" y="410.9" class="st25" width="6.7" height="33.5">
		<title>P15, SPI - MOSI</title>
		</rect>
		
			<linearGradient id="SVGID_17_" gradientUnits="userSpaceOnUse" x1="952.2977" y1="-264.2398" x2="952.2977" y2="-263.7806" gradientTransform="matrix(14.5902 0 0 72.951 -13336.8643 19687.5039)">
			<stop  offset="0" style="stop-color:#D4AF37"/>
			<stop  offset="1" style="stop-color:#D4AF37"/>
			<stop  offset="1" style="stop-color:#FF5500"/>
			<stop  offset="1" style="stop-color:#FF5500"/>
		</linearGradient>
		<rect x="554" y="410.9" class="st26" width="6.7" height="33.5">
		<title>P16, SPI - Chip Select</title>
		</rect>
		
			<linearGradient id="SVGID_18_" gradientUnits="userSpaceOnUse" x1="951.6266" y1="-264.2398" x2="951.6266" y2="-263.7806" gradientTransform="matrix(14.5902 0 0 72.951 -13318.7725 19687.5039)">
			<stop  offset="0" style="stop-color:#D4AF37"/>
			<stop  offset="1" style="stop-color:#D4AF37"/>
			<stop  offset="1" style="stop-color:#FF5500"/>
			<stop  offset="1" style="stop-color:#FF5500"/>
		</linearGradient>
		<rect x="562.3" y="410.9" class="st27" width="6.7" height="33.5">
		<title>P17, +3v3</title>
		</rect>
		
			<linearGradient id="SVGID_19_" gradientUnits="userSpaceOnUse" x1="948.3492" y1="-264.2398" x2="948.3492" y2="-263.7806" gradientTransform="matrix(14.5902 0 0 72.951 -13230.3555 19687.5039)">
			<stop  offset="0" style="stop-color:#D4AF37"/>
			<stop  offset="1" style="stop-color:#D4AF37"/>
			<stop  offset="1" style="stop-color:#FF5500"/>
			<stop  offset="1" style="stop-color:#FF5500"/>
		</linearGradient>
		<rect x="602.9" y="410.9" class="st28" width="6.7" height="33.5">
		<title>P18, +3v3</title>
		</rect>
		
			<linearGradient id="SVGID_20_" gradientUnits="userSpaceOnUse" x1="947.6813" y1="-264.2398" x2="947.6813" y2="-263.7806" gradientTransform="matrix(14.5902 0 0 72.951 -13212.4102 19687.5039)">
			<stop  offset="0" style="stop-color:#D4AF37"/>
			<stop  offset="1" style="stop-color:#D4AF37"/>
			<stop  offset="1" style="stop-color:#FF5500"/>
			<stop  offset="1" style="stop-color:#FF5500"/>
		</linearGradient>
		<rect x="611.1" y="410.9" class="st29" width="6.7" height="33.5">
		<title>P19, I2C - SCL</title>
		</rect>
		
			<linearGradient id="SVGID_21_" gradientUnits="userSpaceOnUse" x1="947.0133" y1="-264.2398" x2="947.0133" y2="-263.7806" gradientTransform="matrix(14.5902 0 0 72.951 -13194.4639 19687.5039)">
			<stop  offset="0" style="stop-color:#D4AF37"/>
			<stop  offset="1" style="stop-color:#D4AF37"/>
			<stop  offset="1" style="stop-color:#FF5500"/>
			<stop  offset="1" style="stop-color:#FF5500"/>
		</linearGradient>
		<rect x="619.3" y="410.9" class="st30" width="6.7" height="33.5">
		<title>P20, I2C - SDA</title>
		</rect>
		
			<linearGradient id="SVGID_22_" gradientUnits="userSpaceOnUse" x1="946.3522" y1="-264.2398" x2="946.3522" y2="-263.7806" gradientTransform="matrix(14.5902 0 0 72.951 -13176.5176 19687.5039)">
			<stop  offset="0" style="stop-color:#D4AF37"/>
			<stop  offset="1" style="stop-color:#D4AF37"/>
			<stop  offset="1" style="stop-color:#FF5500"/>
			<stop  offset="1" style="stop-color:#FF5500"/>
		</linearGradient>
		<rect x="627.6" y="410.9" class="st31" width="6.7" height="33.5">
		<title>GND</title>
		</rect>
		
			<linearGradient id="SVGID_23_" gradientUnits="userSpaceOnUse" x1="966.3024" y1="-265.7908" x2="966.3024" y2="-265.3328" gradientTransform="matrix(21.0099 0 0 64.6346 -19628.3145 17590.9082)">
			<stop  offset="0" style="stop-color:#D4AF37"/>
			<stop  offset="1" style="stop-color:#D4AF37"/>
			<stop  offset="1" style="stop-color:#FF5500"/>
			<stop  offset="1" style="stop-color:#FF5500"/>
		</linearGradient>
		<path class="st32" d="M668.8,441.3c5.5-3.3,9.6-9.6,9.6-16.8v-12.8h-9.6V441.3z		">
<title>GND</title>
		</path>
		
			<linearGradient id="SVGID_24_" gradientUnits="userSpaceOnUse" x1="1004.4519" y1="-258.781" x2="1004.4519" y2="-258.3225" gradientTransform="matrix(67.4067 0 0 129.4151 -67120.8359 33874.7656)">
			<stop  offset="0" style="stop-color:#D4AF37"/>
			<stop  offset="1" style="stop-color:#D4AF37"/>
			<stop  offset="1" style="stop-color:#FF5500"/>
			<stop  offset="1" style="stop-color:#FF5500"/>
		</linearGradient>
		<path class="st33" d="M586,384.6c-8.6,0-14.8,6.9-15.5,15.5V444h30.9v-44C601.5,391.5,594.6,384.6,586,384.6z M586.1,413.2
			c-7.2,0-12.9-5.7-12.9-12.9c0-7.2,5.7-12.9,12.9-12.9s12.9,5.8,12.9,12.9C599,407.5,593.2,413.2,586.1,413.2z		">
<title>+3v3</title>
		</path>
		
			<linearGradient id="SVGID_25_" gradientUnits="userSpaceOnUse" x1="1003.6456" y1="-258.8052" x2="1003.6456" y2="-258.347" gradientTransform="matrix(68.8657 0 0 128.9773 -68465.1641 33764.793)">
			<stop  offset="0" style="stop-color:#D4AF37"/>
			<stop  offset="1" style="stop-color:#D4AF37"/>
			<stop  offset="1" style="stop-color:#FF5500"/>
			<stop  offset="1" style="stop-color:#FF5500"/>
		</linearGradient>
		<path class="st34" d="M651.6,384.8c-8.7,0-15.8,7.1-15.8,15.8l0,0l0,0v43.3H659c2.9,0,5.6-0.7,8.4-1.8v-40.6c0-0.3,0-0.6,0-0.9
			C667.4,391.8,660.3,384.8,651.6,384.8z M651.5,413.8c-7.2,0-12.9-5.7-12.9-12.9c0-7.2,5.7-12.9,12.9-12.9s12.9,5.8,12.9,12.9
			S658.6,413.8,651.5,413.8z		">
<title>GND</title>
		</path>
		<g>
			<path class="st35" d="M365.2,290.3h32.2c1.5,0,2.7,1.2,2.7,2.7v32.2c0,1.5-1.2,2.7-2.7,2.7h-32.2c-1.5,0-2.7-1.2-2.7-2.7V293
				C362.6,291.5,363.7,290.3,365.2,290.3z"/>
			<circle class="st36" cx="369.3" cy="297" r="4"/>
			<circle class="st36" cx="369.3" cy="321.3" r="4"/>
			<circle class="st36" cx="393.5" cy="321.3" r="4"/>
			<circle class="st36" cx="393.5" cy="297" r="4"/>
		</g>
		<path d="M391.9,308.5c0,5.8-4.7,10.5-10.5,10.5s-10.5-4.7-10.5-10.5s4.7-10.5,10.5-10.5C387.2,298,391.9,302.7,391.9,308.5"/>
		<g>
			<path class="st35" d="M627.6,290.3h32.2c1.5,0,2.7,1.2,2.7,2.7v32.2c0,1.5-1.2,2.7-2.7,2.7h-32.2c-1.5,0-2.7-1.2-2.7-2.7V293
				C624.9,291.5,626.1,290.3,627.6,290.3z"/>
			<circle class="st36" cx="631.6" cy="297" r="4"/>
			<circle class="st36" cx="631.6" cy="321.3" r="4"/>
			<circle class="st36" cx="655.8" cy="321.3" r="4"/>
			<circle class="st36" cx="655.8" cy="297" r="4"/>
		</g>
		<path d="M654.2,308.5c0,5.8-4.7,10.5-10.5,10.5s-10.5-4.7-10.5-10.5s4.7-10.5,10.5-10.5C649.6,298,654.2,302.7,654.2,308.5"/>
		<g>
			<path class="st37" d="M686.3,317.5h39c1.8,0,3.2,1.4,3.2,3.2v39c0,1.8-1.4,3.2-3.2,3.2h-39c-1.8,0-3.2-1.4-3.2-3.2v-39
				C683,318.9,684.5,317.5,686.3,317.5z"/>
			<circle class="st38" cx="691.1" cy="325.5" r="4.9"/>
			<circle class="st38" cx="691.1" cy="354.9" r="4.9"/>
			<circle class="st38" cx="720.5" cy="354.9" r="4.9"/>
			<circle class="st38" cx="720.5" cy="325.5" r="4.9"/>
		</g>
		<circle class="st1" cx="706.5" cy="340.1" r="13.4"/>
		<path d="M369.1,424.2c0-1.9,1.4-3.4,3.7-3.4c2.2,0,3.7,1.6,3.7,3.4v3.2c0,1.9-1.5,3.4-3.7,3.4s-3.7-1.6-3.7-3.4V424.2z
			 M374.2,424.2c0-0.9-0.6-1.6-1.5-1.6s-1.4,0.7-1.4,1.6v3.2c0,0.8,0.6,1.6,1.4,1.6c0.9,0,1.5-0.7,1.5-1.6V424.2z"/>
		<path d="M436.3,422.6c1.9,0,2.3-0.6,2.3-1.7h1.9v9.5h-2.3V424h-2L436.3,422.6L436.3,422.6L436.3,422.6z"/>
		<path d="M511.5,425.5c1.1-0.7,2-1.1,2-2.1c0-0.7-0.5-1.1-1.1-1.1c-0.7,0-1.2,0.4-1.2,1.4H509c0-1.7,1.2-3.1,3.4-3.1
			c1.7,0,3.3,0.9,3.3,2.9c0,1.6-1.6,2.6-2.5,3.2c-1.3,0.9-1.7,1.2-1.7,1.9h4.1v1.8H509C509,427.4,510.1,426.5,511.5,425.5z"/>
		<path d="M377.4,353.5l-0.4-1.1h-3.4l-0.4,1.1h-2.3l3.4-9.6h2.1l3.5,9.6H377.4z M375.3,346.7l-1.2,3.9h2.3L375.3,346.7z"/>
		<path d="M645.7,263.2h3.9c2.6,0,3.2,1.6,3.2,2.6c0,1.2-0.9,1.9-1.7,2.2c0.6,0,1.7,0.7,1.7,2.2c0,1-0.6,2.7-3.2,2.7h-4L645.7,263.2
			L645.7,263.2z M649.2,267.1c1.1,0,1.3-0.7,1.3-1.1s-0.2-1.1-1.3-1.1h-1.3v2.3L649.2,267.1L649.2,267.1z M647.9,268.7v2.3h1.4
			c1.1,0,1.3-0.7,1.3-1.2s-0.3-1.2-1.3-1.2L647.9,268.7L647.9,268.7z"/>
		<path d="M580.8,427.3c0,1.1,0.6,1.7,1.5,1.7c0.8,0,1.3-0.6,1.3-1.3c0-0.8-0.4-1.3-1.4-1.3h-0.9v-1.7h0.9c1,0,1.3-0.5,1.3-1.2
			s-0.5-1.1-1.1-1.1c-0.9,0-1.2,0.6-1.2,1.4H579c0-1.6,1-3.1,3.4-3.1c1.7,0,3.3,0.9,3.3,2.7c0,1.1-0.7,1.9-1.4,2.2
			c0.9,0.3,1.6,1.1,1.6,2.3c0,1.8-1.6,2.9-3.5,2.9c-2.3,0-3.7-1.4-3.7-3.4L580.8,427.3L580.8,427.3z"/>
		<path d="M591.7,430.5h-2.1l-3.4-9.6h2.3l2.1,6.7l2.1-6.7h2.4L591.7,430.5z"/>
		<path d="M642.5,425.4h5v1.7h-1c-0.4,2.2-2,3.7-4.8,3.7c-3.2,0-5-2.3-5-5c0-2.6,1.9-5,5-5c2.5,0,4.3,1.6,4.4,3.3h-2.3
			c-0.1-0.7-0.9-1.5-2.1-1.5c-1.8,0-2.8,1.6-2.8,3.2c0,1.7,0.9,3.2,2.9,3.2c1.3,0,2.2-0.8,2.3-1.8h-1.7L642.5,425.4L642.5,425.4z"/>
		<path d="M653.9,427.1v-6.2h2.2v9.6h-2.3l-3.5-6.1v6.1h-2.2v-9.6h2.3L653.9,427.1z"/>
		<path d="M661.5,420.9c3.2,0,5,2.3,5,4.8s-1.8,4.8-5,4.8H658V421L661.5,420.9L661.5,420.9z M660.2,422.8v5.7h1.2
			c1.8,0,2.8-1.4,2.8-2.9s-1.1-2.9-2.8-2.9L660.2,422.8L660.2,422.8z"/>
	</g>
	<text transform="matrix(1 0 0 1 443.5269 128.9599)" class="st39 st40 st41"> 2 programmable buttons</text>
	<text transform="matrix(1 0 0 1 339.3826 481.9998)" class="st39 st40 st41">3 digital/analogue input/output rings</text>
	<text transform="matrix(1 0 0 1 726.5425 362.5049)" class="st39 st40 st41">25 individually programmable LEDs</text>
	<text transform="matrix(1 0 0 1 623.0728 498.0008)" class="st39 st40 st41">power port</text>
	<text transform="matrix(1 0 0 1 539.9956 531.0008)" class="st39 st40 st41">ground back port</text>
	<line class="st42" x1="652.1" y1="443.9" x2="652.1" y2="486"/>
	<line class="st42" x1="586" y1="443.9" x2="586" y2="519"/>
	<line class="st42" x1="513" y1="443.9" x2="513" y2="470"/>
	<line class="st42" x1="439" y1="443.9" x2="439" y2="470"/>
	<line class="st42" x1="373" y1="443.9" x2="373" y2="470"/>
	<polyline class="st42" points="381.4,290 381.4,125 436.2,125 	"/>
	<polyline class="st42" points="642.3,290 642.3,125 587.4,125 	"/>
	<g>
		<rect x="444" y="243.7" class="st43" width="138.3" height="138.3"/>
		<rect x="444" y="243.7" class="st44" width="138.3" height="138.3"/>
	</g>
	<line class="st42" x1="582.3" y1="359" x2="722.7" y2="359"/>
</g>
</svg>
