<?xml version="1.0" encoding="utf-8"?>
<!-- Generator: Adobe Illustrator 21.0.0, SVG Export Plug-In . SVG Version: 6.00 Build 0)  -->
<svg version="1.1" id="Ebene_1" xmlns="http://www.w3.org/2000/svg" xmlns:xlink="http://www.w3.org/1999/xlink" x="0px" y="0px"
	 viewBox="0 0 1024 600" style="enable-background:new 0 0 1024 600;" xml:space="preserve">
<style type="text/css">
	.st0{fill:#4C636F;}
	.st1{fill:#179C7D;}
	.st2{fill:#202020;}
	.st3{fill:#FF7F7F;fill-opacity:0;}
	.st4{fill:none;}
	.st5{fill:url(#SVGID_1_);}
	.st6{fill:url(#SVGID_2_);}
	.st7{fill:url(#SVGID_3_);}
	.st8{fill:url(#SVGID_4_);}
	.st9{fill:url(#SVGID_5_);}
	.st10{fill:url(#SVGID_6_);}
	.st11{fill:url(#SVGID_7_);}
	.st12{fill:url(#SVGID_8_);}
	.st13{fill:url(#SVGID_9_);}
	.st14{fill:url(#SVGID_10_);}
	.st15{fill:url(#SVGID_11_);}
	.st16{fill:url(#SVGID_12_);}
	.st17{fill:url(#SVGID_13_);}
	.st18{fill:url(#SVGID_14_);}
	.st19{fill:url(#SVGID_15_);}
	.st20{fill:url(#SVGID_16_);}
	.st21{fill:url(#SVGID_17_);}
	.st22{fill:url(#SVGID_18_);}
	.st23{fill:url(#SVGID_19_);}
	.st24{fill:url(#SVGID_20_);}
	.st25{fill:url(#SVGID_21_);}
	.st26{fill:url(#SVGID_22_);}
	.st27{fill:url(#SVGID_23_);}
	.st28{fill:url(#SVGID_24_);}
	.st29{fill:url(#SVGID_25_);}
	.st30{fill:#979797;}
	.st31{fill:#704A4A;}
	.st32{display:none;fill:#333333;}
	.st33{display:none;fill:#704A4A;}
	.st34{display:none;}
	.st35{enable-background:new    ;}
	.st36{fill:#333333;}
	.st37{fill:none;stroke:#333333;stroke-miterlimit:10;}
	.st38{opacity:0.5;fill:#FFFFFF;enable-background:new    ;}
	.st39{fill:none;stroke:#333333;stroke-width:0.9784;stroke-miterlimit:10;}
</style>
<g id="Ebene_1_1_">
	<g>
		<path class="st0" d="M678.4,193.6c0-11.8-9.6-21.3-21.3-21.3H366.5c-11.7,0-21.3,9.6-21.3,21.3v229c0,11.8,9.6,21.3,21.3,21.3H657
			c11.8,0,21.3-9.6,21.3-21.3L678.4,193.6L678.4,193.6z M354.8,310.6c-1.8,0-3.2-1.5-3.2-3.2c0-1.8,1.5-3.2,3.2-3.2
			c1.8,0,3.2,1.5,3.2,3.2C358.1,309.2,356.6,310.6,354.8,310.6z M670.5,310.6c-1.8,0-3.2-1.5-3.2-3.2c0-1.8,0.1-3.2,3.2-3.2
			c1.8,0,3.2,1.5,3.2,3.2C673.7,309.2,672.3,310.6,670.5,310.6z"/>
		<path class="st0" d="M568.5,379.9H456.2c-5.5,0-10-4.5-10-10V257.6c0-5.5,4.5-10,10-10h112.3c5.5,0,10,4.5,10,10v112.3
			C578.6,375.5,574.1,379.9,568.5,379.9z"/>
		<polygon class="st1" points="422.2,210.2 461,172.3 422.2,172.3 		"/>
		<path class="st1" d="M421.6,172.3h-59.1c-9.3,1.4-17.3,8.9-17.3,18.5V247L421.6,172.3z"/>
		<polygon class="st1" points="461,191 480.7,172.3 461,172.3 		"/>
		<polygon class="st1" points="381.4,334.5 381.4,355.7 360.2,355.7 		"/>
		<polygon class="st1" points="643.7,282.5 643.7,261.2 665,261.2 		"/>
		<path class="st2" d="M449.6,247.9h4c0.7,0,1.3,0.6,1.3,1.3v10.7c0,0.7-0.6,1.3-1.3,1.3h-4c-0.7,0-1.3-0.6-1.3-1.3v-10.7
			C448.3,248.5,448.9,247.9,449.6,247.9z"/>
		<path class="st3" d="M448.9,246.6h5.4c1.1,0,2,0.9,2,2v12.1c0,1.1-0.9,2-2,2h-5.4c-1.1,0-2-0.9-2-2v-12.1
			C446.9,247.5,447.8,246.6,448.9,246.6z		">
<title>(0,0)</title>
		</path>
		<path class="st2" d="M480.4,247.9h4c0.7,0,1.3,0.6,1.3,1.3v10.7c0,0.7-0.6,1.3-1.3,1.3h-4c-0.7,0-1.3-0.6-1.3-1.3v-10.7
			C479,248.5,479.6,247.9,480.4,247.9z"/>
		<path class="st3" d="M479.7,246.6h5.4c1.1,0,2,0.9,2,2v12.1c0,1.1-0.9,2-2,2h-5.4c-1.1,0-2-0.9-2-2v-12.1
			C477.7,247.5,478.6,246.6,479.7,246.6z		">
<title>(1,0)</title>
		</path>
		<path class="st2" d="M511.1,247.9h4c0.7,0,1.3,0.6,1.3,1.3v10.7c0,0.7-0.6,1.3-1.3,1.3h-4c-0.7,0-1.3-0.6-1.3-1.3v-10.7
			C509.8,248.5,510.4,247.9,511.1,247.9z"/>
		<path class="st3" d="M510.5,246.6h5.4c1.1,0,2,0.9,2,2v12.1c0,1.1-0.9,2-2,2h-5.4c-1.1,0-2-0.9-2-2v-12.1
			C508.5,247.5,509.4,246.6,510.5,246.6z		">
<title>(2,0)</title>
		</path>
		<path class="st2" d="M541.9,247.9h4c0.7,0,1.3,0.6,1.3,1.3v10.7c0,0.7-0.6,1.3-1.3,1.3h-4c-0.7,0-1.3-0.6-1.3-1.3v-10.7
			C540.6,248.5,541.2,247.9,541.9,247.9z"/>
		<path class="st3" d="M541.3,246.6h5.4c1.1,0,2,0.9,2,2v12.1c0,1.1-0.9,2-2,2h-5.4c-1.1,0-2-0.9-2-2v-12.1
			C539.2,247.5,540.2,246.6,541.3,246.6z		">
<title>(3,0)</title>
		</path>
		<path class="st2" d="M572.7,247.9h4c0.7,0,1.3,0.6,1.3,1.3v10.7c0,0.7-0.6,1.3-1.3,1.3h-4c-0.7,0-1.3-0.6-1.3-1.3v-10.7
			C571.3,248.5,571.9,247.9,572.7,247.9z"/>
		<path class="st3" d="M572,246.6h5.4c1.1,0,2,0.9,2,2v12.1c0,1.1-0.9,2-2,2H572c-1.1,0-2-0.9-2-2v-12.1
			C570,247.5,570.9,246.6,572,246.6z		">
<title>(4,0)</title>
		</path>
		<path class="st2" d="M449.6,277.4h4c0.7,0,1.3,0.6,1.3,1.3v10.7c0,0.7-0.6,1.3-1.3,1.3h-4c-0.7,0-1.3-0.6-1.3-1.3v-10.7
			C448.3,278,448.9,277.4,449.6,277.4z"/>
		<path class="st3" d="M448.9,276h5.4c1.1,0,2,0.9,2,2v12.1c0,1.1-0.9,2-2,2h-5.4c-1.1,0-2-0.9-2-2V278
			C446.9,276.9,447.8,276,448.9,276z		">
<title>(0,1)</title>
		</path>
		<path class="st2" d="M480.4,277.4h4c0.7,0,1.3,0.6,1.3,1.3v10.7c0,0.7-0.6,1.3-1.3,1.3h-4c-0.7,0-1.3-0.6-1.3-1.3v-10.7
			C479,278,479.6,277.4,480.4,277.4z"/>
		<path class="st3" d="M479.7,276h5.4c1.1,0,2,0.9,2,2v12.1c0,1.1-0.9,2-2,2h-5.4c-1.1,0-2-0.9-2-2V278
			C477.7,276.9,478.6,276,479.7,276z		">
<title>(1,1)</title>
		</path>
		<path class="st2" d="M511.1,277.4h4c0.7,0,1.3,0.6,1.3,1.3v10.7c0,0.7-0.6,1.3-1.3,1.3h-4c-0.7,0-1.3-0.6-1.3-1.3v-10.7
			C509.8,278,510.4,277.4,511.1,277.4z"/>
		<path class="st3" d="M510.5,276h5.4c1.1,0,2,0.9,2,2v12.1c0,1.1-0.9,2-2,2h-5.4c-1.1,0-2-0.9-2-2V278
			C508.5,276.9,509.4,276,510.5,276z		">
<title>(2,1)</title>
		</path>
		<path class="st2" d="M541.9,277.4h4c0.7,0,1.3,0.6,1.3,1.3v10.7c0,0.7-0.6,1.3-1.3,1.3h-4c-0.7,0-1.3-0.6-1.3-1.3v-10.7
			C540.6,278,541.2,277.4,541.9,277.4z"/>
		<path class="st3" d="M541.3,276h5.4c1.1,0,2,0.9,2,2v12.1c0,1.1-0.9,2-2,2h-5.4c-1.1,0-2-0.9-2-2V278
			C539.2,276.9,540.2,276,541.3,276z		">
<title>(3,1)</title>
		</path>
		<path class="st2" d="M572.7,277.4h4c0.7,0,1.3,0.6,1.3,1.3v10.7c0,0.7-0.6,1.3-1.3,1.3h-4c-0.7,0-1.3-0.6-1.3-1.3v-10.7
			C571.3,278,571.9,277.4,572.7,277.4z"/>
		<path class="st3" d="M572,276h5.4c1.1,0,2,0.9,2,2v12.1c0,1.1-0.9,2-2,2H572c-1.1,0-2-0.9-2-2V278C570,276.9,570.9,276,572,276z		
			">
<title>(4,1)</title>
		</path>
		<path class="st2" d="M449.6,306.8h4c0.7,0,1.3,0.6,1.3,1.3v10.7c0,0.7-0.6,1.3-1.3,1.3h-4c-0.7,0-1.3-0.6-1.3-1.3v-10.7
			C448.3,307.4,448.9,306.8,449.6,306.8z"/>
		<path class="st3" d="M448.9,305.4h5.4c1.1,0,2,0.9,2,2v12.1c0,1.1-0.9,2-2,2h-5.4c-1.1,0-2-0.9-2-2v-12.1
			C446.9,306.4,447.8,305.4,448.9,305.4z		">
<title>(0,2)</title>
		</path>
		<path class="st2" d="M480.4,306.8h4c0.7,0,1.3,0.6,1.3,1.3v10.7c0,0.7-0.6,1.3-1.3,1.3h-4c-0.7,0-1.3-0.6-1.3-1.3v-10.7
			C479,307.4,479.6,306.8,480.4,306.8z"/>
		<path class="st3" d="M479.7,305.4h5.4c1.1,0,2,0.9,2,2v12.1c0,1.1-0.9,2-2,2h-5.4c-1.1,0-2-0.9-2-2v-12.1
			C477.7,306.4,478.6,305.4,479.7,305.4z		">
<title>(1,2)</title>
		</path>
		<path class="st2" d="M511.1,306.8h4c0.7,0,1.3,0.6,1.3,1.3v10.7c0,0.7-0.6,1.3-1.3,1.3h-4c-0.7,0-1.3-0.6-1.3-1.3v-10.7
			C509.8,307.4,510.4,306.8,511.1,306.8z"/>
		<path class="st3" d="M510.5,305.4h5.4c1.1,0,2,0.9,2,2v12.1c0,1.1-0.9,2-2,2h-5.4c-1.1,0-2-0.9-2-2v-12.1
			C508.5,306.4,509.4,305.4,510.5,305.4z		">
<title>(2,2)</title>
		</path>
		<path class="st2" d="M541.9,306.8h4c0.7,0,1.3,0.6,1.3,1.3v10.7c0,0.7-0.6,1.3-1.3,1.3h-4c-0.7,0-1.3-0.6-1.3-1.3v-10.7
			C540.6,307.4,541.2,306.8,541.9,306.8z"/>
		<path class="st3" d="M541.3,305.4h5.4c1.1,0,2,0.9,2,2v12.1c0,1.1-0.9,2-2,2h-5.4c-1.1,0-2-0.9-2-2v-12.1
			C539.2,306.4,540.2,305.4,541.3,305.4z		">
<title>(3,2)</title>
		</path>
		<path class="st2" d="M572.7,306.8h4c0.7,0,1.3,0.6,1.3,1.3v10.7c0,0.7-0.6,1.3-1.3,1.3h-4c-0.7,0-1.3-0.6-1.3-1.3v-10.7
			C571.3,307.4,571.9,306.8,572.7,306.8z"/>
		<path class="st3" d="M572,305.4h5.4c1.1,0,2,0.9,2,2v12.1c0,1.1-0.9,2-2,2H572c-1.1,0-2-0.9-2-2v-12.1
			C570,306.4,570.9,305.4,572,305.4z		">
<title>(4,2)</title>
		</path>
		<path class="st2" d="M449.6,336.2h4c0.7,0,1.3,0.6,1.3,1.3v10.7c0,0.7-0.6,1.3-1.3,1.3h-4c-0.7,0-1.3-0.6-1.3-1.3v-10.7
			C448.3,336.8,448.9,336.2,449.6,336.2z"/>
		<path class="st3" d="M448.9,334.9h5.4c1.1,0,2,0.9,2,2V349c0,1.1-0.9,2-2,2h-5.4c-1.1,0-2-0.9-2-2v-12.1
			C446.9,335.8,447.8,334.9,448.9,334.9z		">
<title>(0,3)</title>
		</path>
		<path class="st2" d="M480.4,336.2h4c0.7,0,1.3,0.6,1.3,1.3v10.7c0,0.7-0.6,1.3-1.3,1.3h-4c-0.7,0-1.3-0.6-1.3-1.3v-10.7
			C479,336.8,479.6,336.2,480.4,336.2z"/>
		<path class="st3" d="M479.7,334.9h5.4c1.1,0,2,0.9,2,2V349c0,1.1-0.9,2-2,2h-5.4c-1.1,0-2-0.9-2-2v-12.1
			C477.7,335.8,478.6,334.9,479.7,334.9z		">
<title>(1,3)</title>
		</path>
		<path class="st2" d="M511.1,336.2h4c0.7,0,1.3,0.6,1.3,1.3v10.7c0,0.7-0.6,1.3-1.3,1.3h-4c-0.7,0-1.3-0.6-1.3-1.3v-10.7
			C509.8,336.8,510.4,336.2,511.1,336.2z"/>
		<path class="st3" d="M510.5,334.9h5.4c1.1,0,2,0.9,2,2V349c0,1.1-0.9,2-2,2h-5.4c-1.1,0-2-0.9-2-2v-12.1
			C508.5,335.8,509.4,334.9,510.5,334.9z		">
<title>(2,3)</title>
		</path>
		<path class="st2" d="M541.9,336.2h4c0.7,0,1.3,0.6,1.3,1.3v10.7c0,0.7-0.6,1.3-1.3,1.3h-4c-0.7,0-1.3-0.6-1.3-1.3v-10.7
			C540.6,336.8,541.2,336.2,541.9,336.2z"/>
		<path class="st3" d="M541.3,334.9h5.4c1.1,0,2,0.9,2,2V349c0,1.1-0.9,2-2,2h-5.4c-1.1,0-2-0.9-2-2v-12.1
			C539.2,335.8,540.2,334.9,541.3,334.9z		">
<title>(3,3)</title>
		</path>
		<path class="st2" d="M572.7,336.2h4c0.7,0,1.3,0.6,1.3,1.3v10.7c0,0.7-0.6,1.3-1.3,1.3h-4c-0.7,0-1.3-0.6-1.3-1.3v-10.7
			C571.3,336.8,571.9,336.2,572.7,336.2z"/>
		<path class="st3" d="M572,334.9h5.4c1.1,0,2,0.9,2,2V349c0,1.1-0.9,2-2,2H572c-1.1,0-2-0.9-2-2v-12.1
			C570,335.8,570.9,334.9,572,334.9z		">
<title>(4,3)</title>
		</path>
		<path class="st2" d="M449.6,365.7h4c0.7,0,1.3,0.6,1.3,1.3v10.7c0,0.7-0.6,1.3-1.3,1.3h-4c-0.7,0-1.3-0.6-1.3-1.3V367
			C448.3,366.3,448.9,365.7,449.6,365.7z"/>
		<path class="st3" d="M448.9,364.3h5.4c1.1,0,2,0.9,2,2v12.1c0,1.1-0.9,2-2,2h-5.4c-1.1,0-2-0.9-2-2v-12.1
			C446.9,365.2,447.8,364.3,448.9,364.3z		">
<title>(0,4)</title>
		</path>
		<path class="st2" d="M480.4,365.7h4c0.7,0,1.3,0.6,1.3,1.3v10.7c0,0.7-0.6,1.3-1.3,1.3h-4c-0.7,0-1.3-0.6-1.3-1.3V367
			C479,366.3,479.6,365.7,480.4,365.7z"/>
		<path class="st3" d="M479.7,364.3h5.4c1.1,0,2,0.9,2,2v12.1c0,1.1-0.9,2-2,2h-5.4c-1.1,0-2-0.9-2-2v-12.1
			C477.7,365.2,478.6,364.3,479.7,364.3z		">
<title>(1,4)</title>
		</path>
		<path class="st2" d="M511.1,365.7h4c0.7,0,1.3,0.6,1.3,1.3v10.7c0,0.7-0.6,1.3-1.3,1.3h-4c-0.7,0-1.3-0.6-1.3-1.3V367
			C509.8,366.3,510.4,365.7,511.1,365.7z"/>
		<path class="st3" d="M510.5,364.3h5.4c1.1,0,2,0.9,2,2v12.1c0,1.1-0.9,2-2,2h-5.4c-1.1,0-2-0.9-2-2v-12.1
			C508.5,365.2,509.4,364.3,510.5,364.3z		">
<title>(2,4)</title>
		</path>
		<path class="st2" d="M541.9,365.7h4c0.7,0,1.3,0.6,1.3,1.3v10.7c0,0.7-0.6,1.3-1.3,1.3h-4c-0.7,0-1.3-0.6-1.3-1.3V367
			C540.6,366.3,541.2,365.7,541.9,365.7z"/>
		<path class="st3" d="M541.3,364.3h5.4c1.1,0,2,0.9,2,2v12.1c0,1.1-0.9,2-2,2h-5.4c-1.1,0-2-0.9-2-2v-12.1
			C539.2,365.2,540.2,364.3,541.3,364.3z		">
<title>(3,4)</title>
		</path>
		<path class="st2" d="M572.7,365.7h4c0.7,0,1.3,0.6,1.3,1.3v10.7c0,0.7-0.6,1.3-1.3,1.3h-4c-0.7,0-1.3-0.6-1.3-1.3V367
			C571.3,366.3,571.9,365.7,572.7,365.7z"/>
		<path class="st3" d="M572,364.3h5.4c1.1,0,2,0.9,2,2v12.1c0,1.1-0.9,2-2,2H572c-1.1,0-2-0.9-2-2v-12.1
			C570,365.2,570.9,364.3,572,364.3z		">
<title>(4,4)</title>
		</path>
		<g>
			<circle class="st4" cx="517.8" cy="222.5" r="66.9"/>
			<path class="st1" d="M525.8,205.9L525.8,205.9h-26.4l0,0c-9.4,0-16.5,7.2-16.5,16.6c0,9.3,7,16.3,16.3,16.5l0,0h26.5
				c9.5,0,16.6-7.1,16.6-16.5C542.3,213.1,535.2,206,525.8,205.9 M525.7,232L525.7,232h-26.3c-5.1,0-9.4-4.3-9.4-9.5
				s4.3-9.5,9.5-9.5h26.1c5.2,0,9.5,4.3,9.5,9.5C535.2,227.8,530.9,232,525.7,232"/>
			<path class="st1" d="M499.5,219c-1.9,0-3.5,1.6-3.5,3.5s1.6,3.5,3.5,3.5s3.5-1.6,3.5-3.5C503.1,220.6,501.5,219,499.5,219"/>
			<path class="st1" d="M525.7,226.1c1.9,0,3.5-1.6,3.5-3.5s-1.6-3.5-3.5-3.5s-3.5,1.6-3.5,3.5C522.1,224.5,523.7,226.1,525.7,226.1
				"/>
		</g>
		
			<linearGradient id="SVGID_1_" gradientUnits="userSpaceOnUse" x1="1098.2228" y1="856.0993" x2="1098.2228" y2="855.6411" gradientTransform="matrix(69.4493 0 0 -128.9774 -75898.6016 110802.2656)">
			<stop  offset="0" style="stop-color:#D4AF37"/>
			<stop  offset="1" style="stop-color:#D4AF37"/>
			<stop  offset="1" style="stop-color:#FF5500"/>
			<stop  offset="1" style="stop-color:#FF5500"/>
		</linearGradient>
		<path class="st5" d="M356.3,400.6c0,0.3,0,0.6,0,0.9v40.6c2.8,1.1,5.7,1.8,8.6,1.8h23v-43.3h0.2l0,0c0-8.7-7.1-15.8-15.9-15.8
			C363.4,384.8,356.3,391.8,356.3,400.6z M359.4,400.9c0-7.2,5.8-12.9,12.9-12.9c7.2,0,12.9,5.8,12.9,12.9c0,7.2-5.7,12.9-12.9,12.9
			C365.2,413.8,359.4,408,359.4,400.9z		">
<title>P0, ANALOG IN</title>
		</path>
		
			<linearGradient id="SVGID_2_" gradientUnits="userSpaceOnUse" x1="1096.6899" y1="856.0764" x2="1096.6899" y2="855.6179" gradientTransform="matrix(67.4067 0 0 -129.4151 -73486 111173.8203)">
			<stop  offset="0" style="stop-color:#D4AF37"/>
			<stop  offset="1" style="stop-color:#D4AF37"/>
			<stop  offset="1" style="stop-color:#FF5500"/>
			<stop  offset="1" style="stop-color:#FF5500"/>
		</linearGradient>
		<path class="st6" d="M438.3,384.6c-8.6,0-14.8,6.9-15.5,15.5V444h30.9v-44C453.7,391.5,446.8,384.6,438.3,384.6z M438.4,413.2
			c-7.2,0-12.9-5.7-12.9-12.9c0-7.2,5.7-12.9,12.9-12.9c7.2,0,12.9,5.8,12.9,12.9C451.3,407.5,445.6,413.2,438.4,413.2z		">
<title>P1, ANALOG IN</title>
		</path>
		
			<linearGradient id="SVGID_3_" gradientUnits="userSpaceOnUse" x1="1095.4016" y1="856.0764" x2="1095.4016" y2="855.6179" gradientTransform="matrix(67.4067 0 0 -129.4151 -73325.6563 111173.8203)">
			<stop  offset="0" style="stop-color:#D4AF37"/>
			<stop  offset="1" style="stop-color:#D4AF37"/>
			<stop  offset="1" style="stop-color:#FF5500"/>
			<stop  offset="1" style="stop-color:#FF5500"/>
		</linearGradient>
		<path class="st7" d="M511.8,384.6c-8.6,0-14.8,6.9-15.5,15.5V444h30.9v-44C527.3,391.5,520.4,384.6,511.8,384.6z M512.1,413.2
			c-7.2,0-12.9-5.7-12.9-12.9c0-7.2,5.7-12.9,12.9-12.9c7.2,0,12.9,5.8,12.9,12.9C525,407.5,519.2,413.2,512.1,413.2z		">
<title>P2, ANALOG IN</title>
		</path>
		
			<linearGradient id="SVGID_4_" gradientUnits="userSpaceOnUse" x1="1071.1521" y1="863.0712" x2="1071.1521" y2="862.6127" gradientTransform="matrix(21.0099 0 0 -64.7805 -22154.7969 56321.8164)">
			<stop  offset="0" style="stop-color:#D4AF37"/>
			<stop  offset="1" style="stop-color:#D4AF37"/>
			<stop  offset="1" style="stop-color:#FF5500"/>
			<stop  offset="1" style="stop-color:#FF5500"/>
		</linearGradient>
		<path class="st8" d="M345.2,411.6v12.8c0,7.2,4.1,13.5,9.6,16.9v-29.7L345.2,411.6L345.2,411.6z		">
<title>P3, ANALOG IN, LED Col 1</title>
		</path>
		
			<linearGradient id="SVGID_5_" gradientUnits="userSpaceOnUse" x1="1050.3464" y1="861.5472" x2="1050.3464" y2="861.088" gradientTransform="matrix(14.5902 0 0 -72.951 -14931.6152 63261.6758)">
			<stop  offset="0" style="stop-color:#D4AF37"/>
			<stop  offset="1" style="stop-color:#D4AF37"/>
			<stop  offset="1" style="stop-color:#FF5500"/>
			<stop  offset="1" style="stop-color:#FF5500"/>
		</linearGradient>
		<rect x="389.8" y="410.9" class="st9" width="6.7" height="33.5">
		<title>P4, ANALOG IN, LED Col 2</title>
		</rect>
		
			<linearGradient id="SVGID_6_" gradientUnits="userSpaceOnUse" x1="1049.6753" y1="861.5472" x2="1049.6753" y2="861.088" gradientTransform="matrix(14.5902 0 0 -72.951 -14913.5234 63261.6758)">
			<stop  offset="0" style="stop-color:#D4AF37"/>
			<stop  offset="1" style="stop-color:#D4AF37"/>
			<stop  offset="1" style="stop-color:#FF5500"/>
			<stop  offset="1" style="stop-color:#FF5500"/>
		</linearGradient>
		<rect x="398.1" y="410.9" class="st10" width="6.7" height="33.5">
		<title>P5, BUTTON A</title>
		</rect>
		
			<linearGradient id="SVGID_7_" gradientUnits="userSpaceOnUse" x1="1049.0073" y1="861.5472" x2="1049.0073" y2="861.088" gradientTransform="matrix(14.5902 0 0 -72.951 -14895.5771 63261.6758)">
			<stop  offset="0" style="stop-color:#D4AF37"/>
			<stop  offset="1" style="stop-color:#D4AF37"/>
			<stop  offset="1" style="stop-color:#FF5500"/>
			<stop  offset="1" style="stop-color:#FF5500"/>
		</linearGradient>
		<rect x="406.3" y="410.9" class="st11" width="6.7" height="33.5">
		<title>P6, LED Col 9</title>
		</rect>
		
			<linearGradient id="SVGID_8_" gradientUnits="userSpaceOnUse" x1="1048.3463" y1="861.5472" x2="1048.3463" y2="861.088" gradientTransform="matrix(14.5902 0 0 -72.951 -14877.6318 63261.6758)">
			<stop  offset="0" style="stop-color:#D4AF37"/>
			<stop  offset="1" style="stop-color:#D4AF37"/>
			<stop  offset="1" style="stop-color:#FF5500"/>
			<stop  offset="1" style="stop-color:#FF5500"/>
		</linearGradient>
		<rect x="414.6" y="410.9" class="st12" width="6.7" height="33.5">
		<title>P7, LED Col 8</title>
		</rect>
		
			<linearGradient id="SVGID_9_" gradientUnits="userSpaceOnUse" x1="1045.062" y1="861.5472" x2="1045.062" y2="861.088" gradientTransform="matrix(14.5902 0 0 -72.951 -14789.2148 63261.6758)">
			<stop  offset="0" style="stop-color:#D4AF37"/>
			<stop  offset="1" style="stop-color:#D4AF37"/>
			<stop  offset="1" style="stop-color:#FF5500"/>
			<stop  offset="1" style="stop-color:#FF5500"/>
		</linearGradient>
		<rect x="455.1" y="410.9" class="st13" width="6.7" height="33.5">
		<title>P8</title>
		</rect>
		
			<linearGradient id="SVGID_10_" gradientUnits="userSpaceOnUse" x1="1044.401" y1="861.5472" x2="1044.401" y2="861.088" gradientTransform="matrix(14.5902 0 0 -72.951 -14771.2695 63261.6758)">
			<stop  offset="0" style="stop-color:#D4AF37"/>
			<stop  offset="1" style="stop-color:#D4AF37"/>
			<stop  offset="1" style="stop-color:#FF5500"/>
			<stop  offset="1" style="stop-color:#FF5500"/>
		</linearGradient>
		<rect x="463.4" y="410.9" class="st14" width="6.7" height="33.5">
		<title>P9, LED Col 7</title>
		</rect>
		
			<linearGradient id="SVGID_11_" gradientUnits="userSpaceOnUse" x1="1043.733" y1="861.5472" x2="1043.733" y2="861.088" gradientTransform="matrix(14.5902 0 0 -72.951 -14753.3232 63261.6758)">
			<stop  offset="0" style="stop-color:#D4AF37"/>
			<stop  offset="1" style="stop-color:#D4AF37"/>
			<stop  offset="1" style="stop-color:#FF5500"/>
			<stop  offset="1" style="stop-color:#FF5500"/>
		</linearGradient>
		<rect x="471.6" y="410.9" class="st15" width="6.7" height="33.5">
		<title>P10, ANALOG IN, LED Col 3</title>
		</rect>
		
			<linearGradient id="SVGID_12_" gradientUnits="userSpaceOnUse" x1="1043.0619" y1="861.5472" x2="1043.0619" y2="861.088" gradientTransform="matrix(14.5902 0 0 -72.951 -14735.2314 63261.6758)">
			<stop  offset="0" style="stop-color:#D4AF37"/>
			<stop  offset="1" style="stop-color:#D4AF37"/>
			<stop  offset="1" style="stop-color:#FF5500"/>
			<stop  offset="1" style="stop-color:#FF5500"/>
		</linearGradient>
		<rect x="479.9" y="410.9" class="st16" width="6.7" height="33.5">
		<title>P11, BUTTON B</title>
		</rect>
		
			<linearGradient id="SVGID_13_" gradientUnits="userSpaceOnUse" x1="1042.3939" y1="861.5472" x2="1042.3939" y2="861.088" gradientTransform="matrix(14.5902 0 0 -72.951 -14717.2852 63261.6758)">
			<stop  offset="0" style="stop-color:#D4AF37"/>
			<stop  offset="1" style="stop-color:#D4AF37"/>
			<stop  offset="1" style="stop-color:#FF5500"/>
			<stop  offset="1" style="stop-color:#FF5500"/>
		</linearGradient>
		<rect x="488.1" y="410.9" class="st17" width="6.7" height="33.5">
		<title>P12, RESERVED ACCESSIBILITY</title>
		</rect>
		
			<linearGradient id="SVGID_14_" gradientUnits="userSpaceOnUse" x1="1039.0577" y1="861.5472" x2="1039.0577" y2="861.088" gradientTransform="matrix(14.5902 0 0 -72.951 -14627.4102 63261.6758)">
			<stop  offset="0" style="stop-color:#D4AF37"/>
			<stop  offset="1" style="stop-color:#D4AF37"/>
			<stop  offset="1" style="stop-color:#FF5500"/>
			<stop  offset="1" style="stop-color:#FF5500"/>
		</linearGradient>
		<rect x="529.3" y="410.9" class="st18" width="6.7" height="33.5">
		<title>P13, SPI - SCK</title>
		</rect>
		
			<linearGradient id="SVGID_15_" gradientUnits="userSpaceOnUse" x1="1038.3966" y1="861.5472" x2="1038.3966" y2="861.088" gradientTransform="matrix(14.5902 0 0 -72.951 -14609.4639 63261.6758)">
			<stop  offset="0" style="stop-color:#D4AF37"/>
			<stop  offset="1" style="stop-color:#D4AF37"/>
			<stop  offset="1" style="stop-color:#FF5500"/>
			<stop  offset="1" style="stop-color:#FF5500"/>
		</linearGradient>
		<rect x="537.6" y="410.9" class="st19" width="6.7" height="33.5">
		<title>P14, SPI - MISO</title>
		</rect>
		
			<linearGradient id="SVGID_16_" gradientUnits="userSpaceOnUse" x1="1037.7285" y1="861.5472" x2="1037.7285" y2="861.088" gradientTransform="matrix(14.5902 0 0 -72.951 -14591.5176 63261.6758)">
			<stop  offset="0" style="stop-color:#D4AF37"/>
			<stop  offset="1" style="stop-color:#D4AF37"/>
			<stop  offset="1" style="stop-color:#FF5500"/>
			<stop  offset="1" style="stop-color:#FF5500"/>
		</linearGradient>
		<rect x="545.8" y="410.9" class="st20" width="6.7" height="33.5">
		<title>P15, SPI - MOSI</title>
		</rect>
		
			<linearGradient id="SVGID_17_" gradientUnits="userSpaceOnUse" x1="1037.0607" y1="861.5472" x2="1037.0607" y2="861.088" gradientTransform="matrix(14.5902 0 0 -72.951 -14573.5723 63261.6758)">
			<stop  offset="0" style="stop-color:#D4AF37"/>
			<stop  offset="1" style="stop-color:#D4AF37"/>
			<stop  offset="1" style="stop-color:#FF5500"/>
			<stop  offset="1" style="stop-color:#FF5500"/>
		</linearGradient>
		<rect x="554" y="410.9" class="st21" width="6.7" height="33.5">
		<title>P16, SPI - Chip Select</title>
		</rect>
		
			<linearGradient id="SVGID_18_" gradientUnits="userSpaceOnUse" x1="1036.3895" y1="861.5472" x2="1036.3895" y2="861.088" gradientTransform="matrix(14.5902 0 0 -72.951 -14555.4805 63261.6758)">
			<stop  offset="0" style="stop-color:#D4AF37"/>
			<stop  offset="1" style="stop-color:#D4AF37"/>
			<stop  offset="1" style="stop-color:#FF5500"/>
			<stop  offset="1" style="stop-color:#FF5500"/>
		</linearGradient>
		<rect x="562.3" y="410.9" class="st22" width="6.7" height="33.5">
		<title>P17, +3v3</title>
		</rect>
		
			<linearGradient id="SVGID_19_" gradientUnits="userSpaceOnUse" x1="1033.1122" y1="861.5472" x2="1033.1122" y2="861.088" gradientTransform="matrix(14.5902 0 0 -72.951 -14467.0635 63261.6758)">
			<stop  offset="0" style="stop-color:#D4AF37"/>
			<stop  offset="1" style="stop-color:#D4AF37"/>
			<stop  offset="1" style="stop-color:#FF5500"/>
			<stop  offset="1" style="stop-color:#FF5500"/>
		</linearGradient>
		<rect x="602.9" y="410.9" class="st23" width="6.7" height="33.5">
		<title>P18, +3v3</title>
		</rect>
		
			<linearGradient id="SVGID_20_" gradientUnits="userSpaceOnUse" x1="1032.4442" y1="861.5472" x2="1032.4442" y2="861.088" gradientTransform="matrix(14.5902 0 0 -72.951 -14449.1182 63261.6758)">
			<stop  offset="0" style="stop-color:#D4AF37"/>
			<stop  offset="1" style="stop-color:#D4AF37"/>
			<stop  offset="1" style="stop-color:#FF5500"/>
			<stop  offset="1" style="stop-color:#FF5500"/>
		</linearGradient>
		<rect x="611.1" y="410.9" class="st24" width="6.7" height="33.5">
		<title>P19, I2C - SCL</title>
		</rect>
		
			<linearGradient id="SVGID_21_" gradientUnits="userSpaceOnUse" x1="1031.7762" y1="861.5472" x2="1031.7762" y2="861.088" gradientTransform="matrix(14.5902 0 0 -72.951 -14431.1719 63261.6758)">
			<stop  offset="0" style="stop-color:#D4AF37"/>
			<stop  offset="1" style="stop-color:#D4AF37"/>
			<stop  offset="1" style="stop-color:#FF5500"/>
			<stop  offset="1" style="stop-color:#FF5500"/>
		</linearGradient>
		<rect x="619.3" y="410.9" class="st25" width="6.7" height="33.5">
		<title>P20, I2C - SDA</title>
		</rect>
		
			<linearGradient id="SVGID_22_" gradientUnits="userSpaceOnUse" x1="1031.1151" y1="861.5472" x2="1031.1151" y2="861.088" gradientTransform="matrix(14.5902 0 0 -72.951 -14413.2256 63261.6758)">
			<stop  offset="0" style="stop-color:#D4AF37"/>
			<stop  offset="1" style="stop-color:#D4AF37"/>
			<stop  offset="1" style="stop-color:#FF5500"/>
			<stop  offset="1" style="stop-color:#FF5500"/>
		</linearGradient>
		<rect x="627.6" y="410.9" class="st26" width="6.7" height="33.5">
		<title>GND</title>
		</rect>
		
			<linearGradient id="SVGID_23_" gradientUnits="userSpaceOnUse" x1="1052.9711" y1="863.1017" x2="1052.9711" y2="862.6438" gradientTransform="matrix(21.0099 0 0 -64.6346 -21449.2148 56197.8594)">
			<stop  offset="0" style="stop-color:#D4AF37"/>
			<stop  offset="1" style="stop-color:#D4AF37"/>
			<stop  offset="1" style="stop-color:#FF5500"/>
			<stop  offset="1" style="stop-color:#FF5500"/>
		</linearGradient>
		<path class="st27" d="M668.8,441.3c5.5-3.3,9.6-9.6,9.6-16.8v-12.8h-9.6V441.3z		">
<title>GND</title>
		</path>
		
			<linearGradient id="SVGID_24_" gradientUnits="userSpaceOnUse" x1="1094.1018" y1="856.0764" x2="1094.1018" y2="855.6179" gradientTransform="matrix(67.4067 0 0 -129.4151 -73163.8438 111173.8203)">
			<stop  offset="0" style="stop-color:#D4AF37"/>
			<stop  offset="1" style="stop-color:#D4AF37"/>
			<stop  offset="1" style="stop-color:#FF5500"/>
			<stop  offset="1" style="stop-color:#FF5500"/>
		</linearGradient>
		<path class="st28" d="M586,384.6c-8.6,0-14.8,6.9-15.5,15.5V444h30.9v-44C601.5,391.5,594.6,384.6,586,384.6z M586.1,413.2
			c-7.2,0-12.9-5.7-12.9-12.9c0-7.2,5.7-12.9,12.9-12.9s12.9,5.8,12.9,12.9C599,407.5,593.2,413.2,586.1,413.2z		">
<title>+3v3</title>
		</path>
		
			<linearGradient id="SVGID_25_" gradientUnits="userSpaceOnUse" x1="1093.3243" y1="856.1007" x2="1093.3243" y2="855.6425" gradientTransform="matrix(68.8657 0 0 -128.9773 -74640.9453 110802.3516)">
			<stop  offset="0" style="stop-color:#D4AF37"/>
			<stop  offset="1" style="stop-color:#D4AF37"/>
			<stop  offset="1" style="stop-color:#FF5500"/>
			<stop  offset="1" style="stop-color:#FF5500"/>
		</linearGradient>
		<path class="st29" d="M651.6,384.8c-8.7,0-15.8,7.1-15.8,15.8l0,0l0,0v43.3H659c2.9,0,5.6-0.7,8.4-1.8v-40.6c0-0.3,0-0.6,0-0.9
			C667.4,391.8,660.3,384.8,651.6,384.8z M651.5,413.8c-7.2,0-12.9-5.7-12.9-12.9c0-7.2,5.7-12.9,12.9-12.9s12.9,5.8,12.9,12.9
			S658.6,413.8,651.5,413.8z		">
<title>GND</title>
		</path>
		<g>
			<path class="st30" d="M365.2,290.3h32.2c1.5,0,2.7,1.2,2.7,2.7v32.2c0,1.5-1.2,2.7-2.7,2.7h-32.2c-1.5,0-2.7-1.2-2.7-2.7V293
				C362.6,291.5,363.7,290.3,365.2,290.3z"/>
			<circle class="st31" cx="369.3" cy="297" r="4"/>
			<circle class="st31" cx="369.3" cy="321.3" r="4"/>
			<circle class="st31" cx="393.5" cy="321.3" r="4"/>
			<circle class="st31" cx="393.5" cy="297" r="4"/>
		</g>
		<path d="M391.9,308.5c0,5.8-4.7,10.5-10.5,10.5s-10.5-4.7-10.5-10.5s4.7-10.5,10.5-10.5C387.2,298,391.9,302.7,391.9,308.5"/>
		<g>
			<path class="st30" d="M627.6,290.3h32.2c1.5,0,2.7,1.2,2.7,2.7v32.2c0,1.5-1.2,2.7-2.7,2.7h-32.2c-1.5,0-2.7-1.2-2.7-2.7V293
				C624.9,291.5,626.1,290.3,627.6,290.3z"/>
			<circle class="st31" cx="631.6" cy="297" r="4"/>
			<circle class="st31" cx="631.6" cy="321.3" r="4"/>
			<circle class="st31" cx="655.8" cy="321.3" r="4"/>
			<circle class="st31" cx="655.8" cy="297" r="4"/>
		</g>
		<path d="M654.2,308.5c0,5.8-4.7,10.5-10.5,10.5s-10.5-4.7-10.5-10.5s4.7-10.5,10.5-10.5C649.6,298,654.2,302.7,654.2,308.5"/>
		<g>
			<path class="st32" d="M686.3,317.5h39c1.8,0,3.2,1.4,3.2,3.2v39c0,1.8-1.4,3.2-3.2,3.2h-39c-1.8,0-3.2-1.4-3.2-3.2v-39
				C683,318.9,684.5,317.5,686.3,317.5z"/>
			<circle class="st33" cx="691.1" cy="325.5" r="4.9"/>
			<circle class="st33" cx="691.1" cy="354.9" r="4.9"/>
			<circle class="st33" cx="720.5" cy="354.9" r="4.9"/>
			<circle class="st33" cx="720.5" cy="325.5" r="4.9"/>
		</g>
		<circle class="st34" cx="706.5" cy="340.1" r="13.4"/>
		<path d="M369.1,424.2c0-1.9,1.4-3.4,3.7-3.4c2.2,0,3.7,1.6,3.7,3.4v3.2c0,1.9-1.5,3.4-3.7,3.4s-3.7-1.6-3.7-3.4V424.2z
			 M374.2,424.2c0-0.9-0.6-1.6-1.5-1.6s-1.4,0.7-1.4,1.6v3.2c0,0.8,0.6,1.6,1.4,1.6c0.9,0,1.5-0.7,1.5-1.6V424.2z"/>
		<path d="M436.3,422.6c1.9,0,2.3-0.6,2.3-1.7h1.9v9.5h-2.3V424h-2L436.3,422.6L436.3,422.6L436.3,422.6z"/>
		<path d="M511.5,425.5c1.1-0.7,2-1.1,2-2.1c0-0.7-0.5-1.1-1.1-1.1c-0.7,0-1.2,0.4-1.2,1.4H509c0-1.7,1.2-3.1,3.4-3.1
			c1.7,0,3.3,0.9,3.3,2.9c0,1.6-1.6,2.6-2.5,3.2c-1.3,0.9-1.7,1.2-1.7,1.9h4.1v1.8H509C509,427.4,510.1,426.5,511.5,425.5z"/>
		<path d="M377.4,353.5l-0.4-1.1h-3.4l-0.4,1.1h-2.3l3.4-9.6h2.1l3.5,9.6H377.4z M375.3,346.7l-1.2,3.9h2.3L375.3,346.7z"/>
		<path d="M645.7,263.2h3.9c2.6,0,3.2,1.6,3.2,2.6c0,1.2-0.9,1.9-1.7,2.2c0.6,0,1.7,0.7,1.7,2.2c0,1-0.6,2.7-3.2,2.7h-4L645.7,263.2
			L645.7,263.2z M649.2,267.1c1.1,0,1.3-0.7,1.3-1.1s-0.2-1.1-1.3-1.1h-1.3v2.3L649.2,267.1L649.2,267.1z M647.9,268.7v2.3h1.4
			c1.1,0,1.3-0.7,1.3-1.2s-0.3-1.2-1.3-1.2L647.9,268.7L647.9,268.7z"/>
		<path d="M580.8,427.3c0,1.1,0.6,1.7,1.5,1.7c0.8,0,1.3-0.6,1.3-1.3c0-0.8-0.4-1.3-1.4-1.3h-0.9v-1.7h0.9c1,0,1.3-0.5,1.3-1.2
			s-0.5-1.1-1.1-1.1c-0.9,0-1.2,0.6-1.2,1.4H579c0-1.6,1-3.1,3.4-3.1c1.7,0,3.3,0.9,3.3,2.7c0,1.1-0.7,1.9-1.4,2.2
			c0.9,0.3,1.6,1.1,1.6,2.3c0,1.8-1.6,2.9-3.5,2.9c-2.3,0-3.7-1.4-3.7-3.4L580.8,427.3L580.8,427.3z"/>
		<path d="M591.7,430.5h-2.1l-3.4-9.6h2.3l2.1,6.7l2.1-6.7h2.4L591.7,430.5z"/>
		<path d="M642.5,425.4h5v1.7h-1c-0.4,2.2-2,3.7-4.8,3.7c-3.2,0-5-2.3-5-5c0-2.6,1.9-5,5-5c2.5,0,4.3,1.6,4.4,3.3h-2.3
			c-0.1-0.7-0.9-1.5-2.1-1.5c-1.8,0-2.8,1.6-2.8,3.2c0,1.7,0.9,3.2,2.9,3.2c1.3,0,2.2-0.8,2.3-1.8h-1.7L642.5,425.4L642.5,425.4z"/>
		<path d="M653.9,427.1v-6.2h2.2v9.6h-2.3l-3.5-6.1v6.1h-2.2v-9.6h2.3L653.9,427.1z"/>
		<path d="M661.5,420.9c3.2,0,5,2.3,5,4.8s-1.8,4.8-5,4.8H658V421L661.5,420.9L661.5,420.9z M660.2,422.8v5.7h1.2
			c1.8,0,2.8-1.4,2.8-2.9s-1.1-2.9-2.8-2.9L660.2,422.8L660.2,422.8z"/>
	</g>
	<g class="st35">
		<path class="st36" d="M443.3,129h-6.8v-1.3l3.2-3.5c0.5-0.5,0.8-1,1-1.3c0.2-0.4,0.3-0.7,0.3-1c0-0.4-0.1-0.8-0.3-1
			c-0.2-0.3-0.5-0.4-1-0.4c-0.5,0-0.8,0.2-1,0.5c-0.2,0.3-0.4,0.7-0.4,1.2h-1.9l0,0c0-0.9,0.3-1.7,0.9-2.3c0.6-0.6,1.4-0.9,2.5-0.9
			c1,0,1.8,0.3,2.4,0.8s0.9,1.2,0.9,2.1c0,0.6-0.2,1.2-0.5,1.7c-0.3,0.5-0.9,1.2-1.6,2l-1.8,1.9l0,0h4.2V129z"/>
		<path class="st36" d="M454.8,125.5c0,1.1-0.3,2-0.8,2.6s-1.2,1-2.1,1c-0.4,0-0.7-0.1-1-0.2c-0.3-0.1-0.6-0.4-0.8-0.6v3.5h-2v-10.2
			h1.8l0.1,0.9c0.2-0.3,0.5-0.6,0.8-0.7c0.3-0.2,0.7-0.3,1.1-0.3c0.9,0,1.6,0.4,2.1,1.1s0.8,1.7,0.8,2.8V125.5z M452.8,125.3
			c0-0.7-0.1-1.3-0.3-1.7s-0.6-0.7-1.1-0.7c-0.3,0-0.6,0.1-0.8,0.2c-0.2,0.1-0.4,0.3-0.5,0.5v3.2c0.1,0.2,0.3,0.4,0.5,0.5
			s0.5,0.2,0.8,0.2c0.5,0,0.8-0.2,1.1-0.6s0.3-0.9,0.3-1.5V125.3z"/>
		<path class="st36" d="M459.9,123.3l-0.7,0c-0.3,0-0.5,0.1-0.7,0.2s-0.3,0.3-0.4,0.5v5h-2v-7.4h1.9l0.1,1.1
			c0.2-0.4,0.4-0.7,0.7-0.9c0.3-0.2,0.6-0.3,1-0.3c0.1,0,0.2,0,0.3,0c0.1,0,0.2,0,0.3,0.1L459.9,123.3z"/>
		<path class="st36" d="M460.6,125.2c0-1.1,0.3-2,0.9-2.7c0.6-0.7,1.5-1.1,2.6-1.1c1.1,0,2,0.4,2.6,1.1s0.9,1.6,0.9,2.7v0.1
			c0,1.1-0.3,2-0.9,2.7c-0.6,0.7-1.5,1-2.6,1c-1.1,0-1.9-0.3-2.6-1c-0.6-0.7-0.9-1.6-0.9-2.7V125.2z M462.6,125.3
			c0,0.7,0.1,1.2,0.4,1.6c0.2,0.4,0.6,0.6,1.1,0.6c0.5,0,0.9-0.2,1.1-0.6s0.4-0.9,0.4-1.6v-0.1c0-0.7-0.1-1.2-0.4-1.6
			s-0.6-0.6-1.1-0.6c-0.5,0-0.9,0.2-1.1,0.6c-0.2,0.4-0.4,0.9-0.4,1.6V125.3z"/>
		<path class="st36" d="M468.5,125.3c0-1.2,0.3-2.1,0.8-2.8s1.2-1.1,2.1-1.1c0.4,0,0.8,0.1,1.1,0.3s0.6,0.5,0.8,0.8l0.2-0.9h1.7v7.4
			c0,1-0.3,1.7-0.9,2.2c-0.6,0.5-1.5,0.8-2.6,0.8c-0.4,0-0.8-0.1-1.2-0.2c-0.4-0.1-0.8-0.2-1.2-0.4l0.4-1.5c0.3,0.1,0.6,0.3,0.9,0.3
			c0.3,0.1,0.7,0.1,1,0.1c0.5,0,0.9-0.1,1.2-0.3s0.4-0.6,0.4-1.1v-0.7c-0.2,0.3-0.5,0.5-0.8,0.6s-0.6,0.2-1,0.2
			c-0.9,0-1.6-0.3-2.1-1c-0.5-0.7-0.8-1.5-0.8-2.6V125.3z M470.5,125.5c0,0.7,0.1,1.2,0.3,1.5c0.2,0.4,0.6,0.6,1.1,0.6
			c0.3,0,0.6-0.1,0.8-0.2c0.2-0.1,0.4-0.3,0.5-0.5v-3.2c-0.1-0.2-0.3-0.4-0.5-0.5s-0.5-0.2-0.8-0.2c-0.5,0-0.8,0.2-1.1,0.7
			s-0.3,1-0.3,1.7V125.5z"/>
		<path class="st36" d="M480.6,123.3l-0.7,0c-0.3,0-0.5,0.1-0.7,0.2s-0.3,0.3-0.4,0.5v5h-2v-7.4h1.9l0.1,1.1
			c0.2-0.4,0.4-0.7,0.7-0.9c0.3-0.2,0.6-0.3,1-0.3c0.1,0,0.2,0,0.3,0c0.1,0,0.2,0,0.3,0.1L480.6,123.3z"/>
		<path class="st36" d="M486,129c-0.1-0.2-0.1-0.3-0.2-0.5s-0.1-0.4-0.1-0.6c-0.2,0.4-0.5,0.7-0.8,0.9s-0.7,0.4-1.2,0.4
			c-0.8,0-1.4-0.2-1.8-0.6c-0.4-0.4-0.6-0.9-0.6-1.6c0-0.7,0.3-1.3,0.8-1.7c0.6-0.4,1.4-0.6,2.4-0.6h1.1V124c0-0.4-0.1-0.6-0.3-0.8
			s-0.5-0.3-0.8-0.3c-0.3,0-0.6,0.1-0.7,0.2c-0.2,0.2-0.3,0.4-0.3,0.7l-1.9,0l0,0c0-0.6,0.2-1.2,0.8-1.6c0.6-0.5,1.3-0.7,2.3-0.7
			c0.9,0,1.6,0.2,2.2,0.7c0.6,0.4,0.8,1.1,0.8,1.9v3.1c0,0.3,0,0.7,0.1,1s0.1,0.6,0.2,0.9H486z M484.1,127.6c0.4,0,0.7-0.1,0.9-0.3
			s0.5-0.4,0.6-0.6v-1h-1.1c-0.4,0-0.7,0.1-1,0.3c-0.2,0.2-0.3,0.5-0.3,0.8c0,0.2,0.1,0.4,0.2,0.6S483.9,127.6,484.1,127.6z"/>
		<path class="st36" d="M491,121.6l0.1,1c0.2-0.4,0.5-0.6,0.9-0.8c0.4-0.2,0.8-0.3,1.2-0.3c0.5,0,0.9,0.1,1.2,0.3s0.6,0.5,0.8,1
			c0.2-0.4,0.5-0.7,0.9-0.9s0.8-0.3,1.3-0.3c0.7,0,1.3,0.3,1.7,0.8c0.4,0.5,0.6,1.3,0.6,2.3v4.5h-2v-4.5c0-0.6-0.1-1-0.3-1.2
			c-0.2-0.2-0.5-0.3-0.8-0.3c-0.3,0-0.5,0.1-0.7,0.2s-0.4,0.3-0.5,0.5c0,0.1,0,0.2,0,0.2s0,0.1,0,0.2v4.9h-2v-4.5
			c0-0.5-0.1-0.9-0.3-1.2c-0.2-0.2-0.5-0.3-0.8-0.3c-0.3,0-0.5,0.1-0.7,0.2s-0.4,0.2-0.5,0.4v5.4h-2v-7.4H491z"/>
		<path class="st36" d="M503.1,121.6l0.1,1c0.2-0.4,0.5-0.6,0.9-0.8c0.4-0.2,0.8-0.3,1.2-0.3c0.5,0,0.9,0.1,1.2,0.3s0.6,0.5,0.8,1
			c0.2-0.4,0.5-0.7,0.9-0.9s0.8-0.3,1.3-0.3c0.7,0,1.3,0.3,1.7,0.8c0.4,0.5,0.6,1.3,0.6,2.3v4.5h-2v-4.5c0-0.6-0.1-1-0.3-1.2
			c-0.2-0.2-0.5-0.3-0.8-0.3c-0.3,0-0.5,0.1-0.7,0.2s-0.4,0.3-0.5,0.5c0,0.1,0,0.2,0,0.2s0,0.1,0,0.2v4.9h-2v-4.5
			c0-0.5-0.1-0.9-0.3-1.2c-0.2-0.2-0.5-0.3-0.8-0.3c-0.3,0-0.5,0.1-0.7,0.2s-0.4,0.2-0.5,0.4v5.4h-2v-7.4H503.1z"/>
		<path class="st36" d="M517.7,129c-0.1-0.2-0.1-0.3-0.2-0.5c-0.1-0.2-0.1-0.4-0.1-0.6c-0.2,0.4-0.5,0.7-0.8,0.9s-0.7,0.4-1.2,0.4
			c-0.8,0-1.4-0.2-1.8-0.6c-0.4-0.4-0.6-0.9-0.6-1.6c0-0.7,0.3-1.3,0.8-1.7c0.6-0.4,1.4-0.6,2.4-0.6h1.1V124c0-0.4-0.1-0.6-0.3-0.8
			c-0.2-0.2-0.5-0.3-0.8-0.3c-0.3,0-0.6,0.1-0.7,0.2c-0.2,0.2-0.3,0.4-0.3,0.7l-1.9,0l0,0c0-0.6,0.2-1.2,0.8-1.6
			c0.6-0.5,1.3-0.7,2.3-0.7c0.9,0,1.6,0.2,2.2,0.7c0.6,0.4,0.8,1.1,0.8,1.9v3.1c0,0.3,0,0.7,0.1,1c0.1,0.3,0.1,0.6,0.2,0.9H517.7z
			 M515.9,127.6c0.4,0,0.7-0.1,0.9-0.3s0.5-0.4,0.6-0.6v-1h-1.1c-0.4,0-0.7,0.1-1,0.3c-0.2,0.2-0.3,0.5-0.3,0.8
			c0,0.2,0.1,0.4,0.2,0.6S515.6,127.6,515.9,127.6z"/>
		<path class="st36" d="M527.6,125.5c0,1.1-0.2,2-0.7,2.6s-1.2,1-2.1,1c-0.4,0-0.8-0.1-1.1-0.3c-0.3-0.2-0.6-0.4-0.8-0.8l-0.2,0.9
			h-1.7v-10.7h2v4.1c0.2-0.3,0.5-0.5,0.8-0.7c0.3-0.2,0.6-0.2,1-0.2c0.9,0,1.7,0.4,2.1,1.1c0.5,0.7,0.7,1.7,0.7,2.8V125.5z
			 M525.6,125.3c0-0.7-0.1-1.3-0.3-1.7c-0.2-0.4-0.6-0.6-1.1-0.6c-0.3,0-0.6,0.1-0.8,0.2c-0.2,0.1-0.4,0.3-0.5,0.6v3.1
			c0.1,0.2,0.3,0.4,0.5,0.5c0.2,0.1,0.5,0.2,0.8,0.2c0.5,0,0.9-0.2,1.1-0.5s0.3-0.9,0.3-1.6V125.3z"/>
		<path class="st36" d="M530.9,129h-2v-10.7h2V129z"/>
		<path class="st36" d="M535.8,129.1c-1.1,0-1.9-0.3-2.6-1c-0.6-0.7-1-1.6-1-2.6v-0.3c0-1.1,0.3-2,0.9-2.7c0.6-0.7,1.4-1.1,2.4-1.1
			c1,0,1.8,0.3,2.3,0.9c0.6,0.6,0.8,1.4,0.8,2.4v1.1h-4.4l0,0c0,0.5,0.2,0.9,0.5,1.2c0.3,0.3,0.7,0.5,1.2,0.5c0.4,0,0.8,0,1.1-0.1
			c0.3-0.1,0.6-0.2,1-0.4l0.5,1.2c-0.3,0.2-0.7,0.5-1.2,0.6C536.9,129,536.4,129.1,535.8,129.1z M535.6,123c-0.4,0-0.7,0.1-0.9,0.4
			c-0.2,0.3-0.3,0.7-0.4,1.1l0,0h2.4v-0.2c0-0.4-0.1-0.8-0.3-1C536.3,123.1,536,123,535.6,123z"/>
		<path class="st36" d="M550.1,125.5c0,1.1-0.2,2-0.7,2.6s-1.2,1-2.1,1c-0.4,0-0.8-0.1-1.1-0.3c-0.3-0.2-0.6-0.4-0.8-0.8l-0.2,0.9
			h-1.7v-10.7h2v4.1c0.2-0.3,0.5-0.5,0.8-0.7c0.3-0.2,0.6-0.2,1-0.2c0.9,0,1.7,0.4,2.1,1.1c0.5,0.7,0.7,1.7,0.7,2.8V125.5z
			 M548.1,125.3c0-0.7-0.1-1.3-0.3-1.7c-0.2-0.4-0.6-0.6-1.1-0.6c-0.3,0-0.6,0.1-0.8,0.2c-0.2,0.1-0.4,0.3-0.5,0.6v3.1
			c0.1,0.2,0.3,0.4,0.5,0.5c0.2,0.1,0.5,0.2,0.8,0.2c0.5,0,0.9-0.2,1.1-0.5s0.3-0.9,0.3-1.6V125.3z"/>
		<path class="st36" d="M555.8,127.9c-0.2,0.4-0.5,0.7-0.9,0.9c-0.4,0.2-0.8,0.3-1.2,0.3c-0.8,0-1.4-0.2-1.8-0.7
			c-0.4-0.5-0.7-1.3-0.7-2.3v-4.5h2v4.5c0,0.5,0.1,0.9,0.3,1.2c0.2,0.2,0.5,0.4,0.8,0.4c0.3,0,0.6-0.1,0.8-0.2
			c0.2-0.1,0.4-0.3,0.6-0.5v-5.4h2v7.4H556L555.8,127.9z"/>
		<path class="st36" d="M561.6,119.8v1.8h1.2v1.4h-1.2v3.8c0,0.3,0.1,0.5,0.2,0.6c0.1,0.1,0.3,0.2,0.5,0.2c0.1,0,0.2,0,0.3,0
			c0.1,0,0.2,0,0.3-0.1l0.2,1.4c-0.2,0.1-0.4,0.1-0.6,0.2c-0.2,0-0.4,0.1-0.6,0.1c-0.7,0-1.2-0.2-1.6-0.6c-0.4-0.4-0.6-1-0.6-1.8
			V123h-1.1v-1.4h1.1v-1.8H561.6z"/>
		<path class="st36" d="M566.5,119.8v1.8h1.2v1.4h-1.2v3.8c0,0.3,0.1,0.5,0.2,0.6c0.1,0.1,0.3,0.2,0.5,0.2c0.1,0,0.2,0,0.3,0
			c0.1,0,0.2,0,0.3-0.1l0.2,1.4c-0.2,0.1-0.4,0.1-0.6,0.2c-0.2,0-0.4,0.1-0.6,0.1c-0.7,0-1.2-0.2-1.6-0.6c-0.4-0.4-0.6-1-0.6-1.8
			V123h-1.1v-1.4h1.1v-1.8H566.5z"/>
		<path class="st36" d="M568.7,125.2c0-1.1,0.3-2,0.9-2.7c0.6-0.7,1.5-1.1,2.6-1.1c1.1,0,2,0.4,2.6,1.1c0.6,0.7,0.9,1.6,0.9,2.7v0.1
			c0,1.1-0.3,2-0.9,2.7c-0.6,0.7-1.5,1-2.6,1c-1.1,0-1.9-0.3-2.6-1c-0.6-0.7-0.9-1.6-0.9-2.7V125.2z M570.7,125.3
			c0,0.7,0.1,1.2,0.4,1.6c0.2,0.4,0.6,0.6,1.1,0.6c0.5,0,0.9-0.2,1.1-0.6s0.4-0.9,0.4-1.6v-0.1c0-0.7-0.1-1.2-0.4-1.6
			c-0.2-0.4-0.6-0.6-1.1-0.6c-0.5,0-0.9,0.2-1.1,0.6c-0.2,0.4-0.4,0.9-0.4,1.6V125.3z"/>
		<path class="st36" d="M578.7,121.6l0.1,1.1c0.2-0.4,0.5-0.7,0.9-0.9c0.4-0.2,0.8-0.3,1.2-0.3c0.7,0,1.3,0.2,1.8,0.7
			c0.4,0.5,0.6,1.2,0.6,2.2v4.6h-2v-4.6c0-0.5-0.1-0.9-0.3-1.1c-0.2-0.2-0.5-0.3-0.9-0.3c-0.3,0-0.5,0.1-0.7,0.2
			c-0.2,0.1-0.4,0.3-0.5,0.5v5.4h-2v-7.4H578.7z"/>
		<path class="st36" d="M588.8,126.9c0-0.2-0.1-0.4-0.3-0.6s-0.6-0.3-1.2-0.4c-0.9-0.2-1.5-0.4-2-0.8c-0.4-0.3-0.7-0.8-0.7-1.4
			c0-0.6,0.3-1.2,0.8-1.6c0.5-0.4,1.3-0.7,2.1-0.7c0.9,0,1.7,0.2,2.3,0.7c0.6,0.4,0.8,1,0.8,1.7l0,0h-1.9c0-0.3-0.1-0.5-0.3-0.7
			c-0.2-0.2-0.5-0.3-0.8-0.3c-0.3,0-0.6,0.1-0.8,0.2c-0.2,0.2-0.3,0.4-0.3,0.6c0,0.2,0.1,0.4,0.3,0.6c0.2,0.1,0.6,0.3,1.2,0.4
			c0.9,0.2,1.6,0.5,2,0.8c0.4,0.4,0.7,0.8,0.7,1.5c0,0.7-0.3,1.2-0.9,1.6c-0.6,0.4-1.3,0.6-2.3,0.6c-1,0-1.8-0.2-2.3-0.7
			c-0.6-0.5-0.8-1.1-0.8-1.7l0,0h1.8c0,0.4,0.1,0.7,0.4,0.9s0.6,0.3,1,0.3c0.4,0,0.7-0.1,0.8-0.2
			C588.7,127.4,588.8,127.2,588.8,126.9z"/>
	</g>
	<g class="st35">
		<path class="st36" d="M342.1,480.2h1.1c0.5,0,0.8-0.1,1.1-0.4c0.2-0.2,0.3-0.6,0.3-1c0-0.4-0.1-0.7-0.3-1s-0.6-0.4-1-0.4
			c-0.4,0-0.7,0.1-0.9,0.3s-0.4,0.5-0.4,0.9H340l0,0c0-0.8,0.3-1.4,0.9-1.9s1.4-0.8,2.3-0.8c1,0,1.9,0.2,2.5,0.7s0.9,1.2,0.9,2.1
			c0,0.4-0.1,0.8-0.4,1.2c-0.3,0.4-0.6,0.7-1.1,0.9c0.6,0.2,1,0.5,1.3,0.9s0.4,0.9,0.4,1.4c0,0.9-0.3,1.6-1,2.2
			c-0.7,0.5-1.5,0.8-2.5,0.8c-0.9,0-1.7-0.2-2.4-0.7c-0.7-0.5-1-1.2-1-2.1l0,0h1.9c0,0.4,0.1,0.7,0.4,0.9c0.3,0.2,0.6,0.4,1,0.4
			c0.5,0,0.8-0.1,1.1-0.4s0.4-0.6,0.4-1c0-0.5-0.1-0.9-0.4-1.1s-0.6-0.4-1.2-0.4h-1.1V480.2z"/>
		<path class="st36" d="M351.4,482.4c0-1.2,0.3-2.1,0.8-2.8s1.2-1.1,2.1-1.1c0.4,0,0.7,0.1,1,0.2s0.6,0.4,0.8,0.7v-4.1h2V486h-1.7
			l-0.2-0.9c-0.2,0.3-0.5,0.6-0.8,0.8s-0.7,0.3-1.1,0.3c-0.9,0-1.6-0.3-2.1-1s-0.8-1.5-0.8-2.6V482.4z M353.3,482.5
			c0,0.7,0.1,1.2,0.3,1.5c0.2,0.4,0.6,0.6,1.1,0.6c0.3,0,0.5-0.1,0.8-0.2c0.2-0.1,0.4-0.3,0.5-0.5v-3.2c-0.1-0.2-0.3-0.4-0.5-0.5
			s-0.5-0.2-0.7-0.2c-0.5,0-0.8,0.2-1.1,0.7s-0.3,1-0.3,1.7V482.5z"/>
		<path class="st36" d="M361.7,476.8h-2v-1.5h2V476.8z M361.7,486h-2v-7.4h2V486z"/>
		<path class="st36" d="M363,482.4c0-1.2,0.3-2.1,0.8-2.8s1.2-1.1,2.1-1.1c0.4,0,0.8,0.1,1.1,0.3s0.6,0.5,0.8,0.8l0.2-0.9h1.7v7.4
			c0,1-0.3,1.7-0.9,2.2c-0.6,0.5-1.5,0.8-2.6,0.8c-0.4,0-0.8-0.1-1.2-0.2c-0.4-0.1-0.8-0.2-1.2-0.4l0.4-1.5c0.3,0.1,0.6,0.3,0.9,0.3
			c0.3,0.1,0.7,0.1,1,0.1c0.5,0,0.9-0.1,1.2-0.3s0.4-0.6,0.4-1.1v-0.7c-0.2,0.3-0.5,0.5-0.8,0.6s-0.6,0.2-1,0.2
			c-0.9,0-1.6-0.3-2.1-1c-0.5-0.7-0.8-1.5-0.8-2.6V482.4z M365,482.5c0,0.7,0.1,1.2,0.3,1.5c0.2,0.4,0.6,0.6,1.1,0.6
			c0.3,0,0.6-0.1,0.8-0.2c0.2-0.1,0.4-0.3,0.5-0.5v-3.2c-0.1-0.2-0.3-0.4-0.5-0.5s-0.5-0.2-0.8-0.2c-0.5,0-0.8,0.2-1.1,0.7
			s-0.3,1-0.3,1.7V482.5z"/>
		<path class="st36" d="M373.3,476.8h-2v-1.5h2V476.8z M373.3,486h-2v-7.4h2V486z"/>
		<path class="st36" d="M377.3,476.8v1.8h1.2v1.4h-1.2v3.8c0,0.3,0.1,0.5,0.2,0.6s0.3,0.2,0.5,0.2c0.1,0,0.2,0,0.3,0
			c0.1,0,0.2,0,0.3-0.1l0.2,1.4c-0.2,0.1-0.4,0.1-0.6,0.2c-0.2,0-0.4,0.1-0.6,0.1c-0.7,0-1.2-0.2-1.6-0.6s-0.6-1-0.6-1.8V480h-1.1
			v-1.4h1.1v-1.8H377.3z"/>
		<path class="st36" d="M384.2,486c-0.1-0.2-0.1-0.3-0.2-0.5s-0.1-0.4-0.1-0.6c-0.2,0.4-0.5,0.7-0.8,0.9s-0.7,0.4-1.2,0.4
			c-0.8,0-1.4-0.2-1.8-0.6c-0.4-0.4-0.6-0.9-0.6-1.6c0-0.7,0.3-1.3,0.8-1.7c0.6-0.4,1.4-0.6,2.4-0.6h1.1V481c0-0.4-0.1-0.6-0.3-0.8
			s-0.5-0.3-0.8-0.3c-0.3,0-0.6,0.1-0.7,0.2c-0.2,0.2-0.3,0.4-0.3,0.7l-1.9,0l0,0c0-0.6,0.2-1.2,0.8-1.6c0.6-0.5,1.3-0.7,2.3-0.7
			c0.9,0,1.6,0.2,2.2,0.7c0.6,0.4,0.8,1.1,0.8,1.9v3.1c0,0.3,0,0.7,0.1,1s0.1,0.6,0.2,0.9H384.2z M382.4,484.7
			c0.4,0,0.7-0.1,0.9-0.3s0.5-0.4,0.6-0.6v-1h-1.1c-0.4,0-0.7,0.1-1,0.3c-0.2,0.2-0.3,0.5-0.3,0.8c0,0.2,0.1,0.4,0.2,0.6
			S382.1,484.7,382.4,484.7z"/>
		<path class="st36" d="M389.5,486h-2v-10.7h2V486z"/>
		<path class="st36" d="M392.2,486.9h-1.9l3.7-10.8h1.9L392.2,486.9z"/>
		<path class="st36" d="M401.1,486c-0.1-0.2-0.1-0.3-0.2-0.5s-0.1-0.4-0.1-0.6c-0.2,0.4-0.5,0.7-0.8,0.9s-0.7,0.4-1.2,0.4
			c-0.8,0-1.4-0.2-1.8-0.6c-0.4-0.4-0.6-0.9-0.6-1.6c0-0.7,0.3-1.3,0.8-1.7c0.6-0.4,1.4-0.6,2.4-0.6h1.1V481c0-0.4-0.1-0.6-0.3-0.8
			s-0.5-0.3-0.8-0.3c-0.3,0-0.6,0.1-0.7,0.2c-0.2,0.2-0.3,0.4-0.3,0.7l-1.9,0l0,0c0-0.6,0.2-1.2,0.8-1.6c0.6-0.5,1.3-0.7,2.3-0.7
			c0.9,0,1.6,0.2,2.2,0.7c0.6,0.4,0.8,1.1,0.8,1.9v3.1c0,0.3,0,0.7,0.1,1s0.1,0.6,0.2,0.9H401.1z M399.3,484.7
			c0.4,0,0.7-0.1,0.9-0.3s0.5-0.4,0.6-0.6v-1h-1.1c-0.4,0-0.7,0.1-1,0.3c-0.2,0.2-0.3,0.5-0.3,0.8c0,0.2,0.1,0.4,0.2,0.6
			S399,484.7,399.3,484.7z"/>
		<path class="st36" d="M406.1,478.6l0.1,1.1c0.2-0.4,0.5-0.7,0.9-0.9s0.8-0.3,1.2-0.3c0.7,0,1.3,0.2,1.8,0.7s0.6,1.2,0.6,2.2v4.6
			h-2v-4.6c0-0.5-0.1-0.9-0.3-1.1s-0.5-0.3-0.9-0.3c-0.3,0-0.5,0.1-0.7,0.2s-0.4,0.3-0.5,0.5v5.4h-2v-7.4H406.1z"/>
		<path class="st36" d="M416.5,486c-0.1-0.2-0.1-0.3-0.2-0.5s-0.1-0.4-0.1-0.6c-0.2,0.4-0.5,0.7-0.8,0.9s-0.7,0.4-1.2,0.4
			c-0.8,0-1.4-0.2-1.8-0.6c-0.4-0.4-0.6-0.9-0.6-1.6c0-0.7,0.3-1.3,0.8-1.7c0.6-0.4,1.4-0.6,2.4-0.6h1.1V481c0-0.4-0.1-0.6-0.3-0.8
			s-0.5-0.3-0.8-0.3c-0.3,0-0.6,0.1-0.7,0.2c-0.2,0.2-0.3,0.4-0.3,0.7l-1.9,0l0,0c0-0.6,0.2-1.2,0.8-1.6c0.6-0.5,1.3-0.7,2.3-0.7
			c0.9,0,1.6,0.2,2.2,0.7c0.6,0.4,0.8,1.1,0.8,1.9v3.1c0,0.3,0,0.7,0.1,1s0.1,0.6,0.2,0.9H416.5z M414.7,484.7
			c0.4,0,0.7-0.1,0.9-0.3s0.5-0.4,0.6-0.6v-1H415c-0.4,0-0.7,0.1-1,0.3c-0.2,0.2-0.3,0.5-0.3,0.8c0,0.2,0.1,0.4,0.2,0.6
			S414.4,484.7,414.7,484.7z"/>
		<path class="st36" d="M421.8,486h-2v-10.7h2V486z"/>
		<path class="st36" d="M423.1,482.2c0-1.1,0.3-2,0.9-2.7c0.6-0.7,1.5-1.1,2.6-1.1c1.1,0,2,0.4,2.6,1.1s0.9,1.6,0.9,2.7v0.1
			c0,1.1-0.3,2-0.9,2.7c-0.6,0.7-1.5,1-2.6,1c-1.1,0-1.9-0.3-2.6-1c-0.6-0.7-0.9-1.6-0.9-2.7V482.2z M425.1,482.4
			c0,0.7,0.1,1.2,0.4,1.6c0.2,0.4,0.6,0.6,1.1,0.6c0.5,0,0.9-0.2,1.1-0.6s0.4-0.9,0.4-1.6v-0.1c0-0.7-0.1-1.2-0.4-1.6
			s-0.6-0.6-1.1-0.6c-0.5,0-0.9,0.2-1.1,0.6c-0.2,0.4-0.4,0.9-0.4,1.6V482.4z"/>
		<path class="st36" d="M431,482.4c0-1.2,0.3-2.1,0.8-2.8s1.2-1.1,2.1-1.1c0.4,0,0.8,0.1,1.1,0.3s0.6,0.5,0.8,0.8l0.2-0.9h1.7v7.4
			c0,1-0.3,1.7-0.9,2.2c-0.6,0.5-1.5,0.8-2.6,0.8c-0.4,0-0.8-0.1-1.2-0.2c-0.4-0.1-0.8-0.2-1.2-0.4l0.4-1.5c0.3,0.1,0.6,0.3,0.9,0.3
			c0.3,0.1,0.7,0.1,1,0.1c0.5,0,0.9-0.1,1.2-0.3s0.4-0.6,0.4-1.1v-0.7c-0.2,0.3-0.5,0.5-0.8,0.6s-0.6,0.2-1,0.2
			c-0.9,0-1.6-0.3-2.1-1c-0.5-0.7-0.8-1.5-0.8-2.6V482.4z M433,482.5c0,0.7,0.1,1.2,0.3,1.5c0.2,0.4,0.6,0.6,1.1,0.6
			c0.3,0,0.6-0.1,0.8-0.2c0.2-0.1,0.4-0.3,0.5-0.5v-3.2c-0.1-0.2-0.3-0.4-0.5-0.5s-0.5-0.2-0.8-0.2c-0.5,0-0.8,0.2-1.1,0.7
			s-0.3,1-0.3,1.7V482.5z"/>
		<path class="st36" d="M443.7,484.9c-0.2,0.4-0.5,0.7-0.9,0.9s-0.8,0.3-1.2,0.3c-0.8,0-1.4-0.2-1.8-0.7c-0.4-0.5-0.7-1.3-0.7-2.3
			v-4.5h2v4.5c0,0.5,0.1,0.9,0.3,1.2s0.5,0.4,0.8,0.4c0.3,0,0.6-0.1,0.8-0.2s0.4-0.3,0.6-0.5v-5.4h2v7.4h-1.7L443.7,484.9z"/>
		<path class="st36" d="M450.4,486.1c-1.1,0-1.9-0.3-2.6-1s-1-1.6-1-2.6v-0.3c0-1.1,0.3-2,0.9-2.7s1.4-1.1,2.4-1.1
			c1,0,1.8,0.3,2.3,0.9s0.8,1.4,0.8,2.4v1.1H449l0,0c0,0.5,0.2,0.9,0.5,1.2s0.7,0.5,1.2,0.5c0.4,0,0.8,0,1.1-0.1
			c0.3-0.1,0.6-0.2,1-0.4l0.5,1.2c-0.3,0.2-0.7,0.5-1.2,0.6C451.5,486.1,451,486.1,450.4,486.1z M450.2,480c-0.4,0-0.7,0.1-0.9,0.4
			s-0.3,0.7-0.4,1.1l0,0h2.4v-0.2c0-0.4-0.1-0.8-0.3-1C450.9,480.1,450.6,480,450.2,480z"/>
		<path class="st36" d="M460.1,476.8h-2v-1.5h2V476.8z M460.1,486h-2v-7.4h2V486z"/>
		<path class="st36" d="M463.6,478.6l0.1,1.1c0.2-0.4,0.5-0.7,0.9-0.9s0.8-0.3,1.2-0.3c0.7,0,1.3,0.2,1.8,0.7s0.6,1.2,0.6,2.2v4.6
			h-2v-4.6c0-0.5-0.1-0.9-0.3-1.1s-0.5-0.3-0.9-0.3c-0.3,0-0.5,0.1-0.7,0.2s-0.4,0.3-0.5,0.5v5.4h-2v-7.4H463.6z"/>
		<path class="st36" d="M476.3,482.5c0,1.1-0.3,2-0.8,2.6s-1.2,1-2.1,1c-0.4,0-0.7-0.1-1-0.2c-0.3-0.1-0.6-0.4-0.8-0.6v3.5h-2v-10.2
			h1.8l0.1,0.9c0.2-0.3,0.5-0.6,0.8-0.7c0.3-0.2,0.7-0.3,1.1-0.3c0.9,0,1.6,0.4,2.1,1.1s0.8,1.7,0.8,2.8V482.5z M474.3,482.4
			c0-0.7-0.1-1.3-0.3-1.7s-0.6-0.7-1.1-0.7c-0.3,0-0.6,0.1-0.8,0.2c-0.2,0.1-0.4,0.3-0.5,0.5v3.2c0.1,0.2,0.3,0.4,0.5,0.5
			s0.5,0.2,0.8,0.2c0.5,0,0.8-0.2,1.1-0.6s0.3-0.9,0.3-1.5V482.4z"/>
		<path class="st36" d="M482.1,484.9c-0.2,0.4-0.5,0.7-0.9,0.9s-0.8,0.3-1.2,0.3c-0.8,0-1.4-0.2-1.8-0.7c-0.4-0.5-0.7-1.3-0.7-2.3
			v-4.5h2v4.5c0,0.5,0.1,0.9,0.3,1.2s0.5,0.4,0.8,0.4c0.3,0,0.6-0.1,0.8-0.2s0.4-0.3,0.6-0.5v-5.4h2v7.4h-1.7L482.1,484.9z"/>
		<path class="st36" d="M487.8,476.8v1.8h1.2v1.4h-1.2v3.8c0,0.3,0.1,0.5,0.2,0.6s0.3,0.2,0.5,0.2c0.1,0,0.2,0,0.3,0
			c0.1,0,0.2,0,0.3-0.1l0.2,1.4c-0.2,0.1-0.4,0.1-0.6,0.2c-0.2,0-0.4,0.1-0.6,0.1c-0.7,0-1.2-0.2-1.6-0.6s-0.6-1-0.6-1.8V480h-1.1
			v-1.4h1.1v-1.8H487.8z"/>
		<path class="st36" d="M491.4,486.9h-1.9l3.7-10.8h1.9L491.4,486.9z"/>
		<path class="st36" d="M495.7,482.2c0-1.1,0.3-2,0.9-2.7c0.6-0.7,1.5-1.1,2.6-1.1c1.1,0,2,0.4,2.6,1.1s0.9,1.6,0.9,2.7v0.1
			c0,1.1-0.3,2-0.9,2.7c-0.6,0.7-1.5,1-2.6,1c-1.1,0-1.9-0.3-2.6-1c-0.6-0.7-0.9-1.6-0.9-2.7V482.2z M497.7,482.4
			c0,0.7,0.1,1.2,0.4,1.6c0.2,0.4,0.6,0.6,1.1,0.6c0.5,0,0.9-0.2,1.1-0.6s0.4-0.9,0.4-1.6v-0.1c0-0.7-0.1-1.2-0.4-1.6
			s-0.6-0.6-1.1-0.6c-0.5,0-0.9,0.2-1.1,0.6c-0.2,0.4-0.4,0.9-0.4,1.6V482.4z"/>
		<path class="st36" d="M508.4,484.9c-0.2,0.4-0.5,0.7-0.9,0.9s-0.8,0.3-1.2,0.3c-0.8,0-1.4-0.2-1.8-0.7c-0.4-0.5-0.7-1.3-0.7-2.3
			v-4.5h2v4.5c0,0.5,0.1,0.9,0.3,1.2s0.5,0.4,0.8,0.4c0.3,0,0.6-0.1,0.8-0.2s0.4-0.3,0.6-0.5v-5.4h2v7.4h-1.7L508.4,484.9z"/>
		<path class="st36" d="M514.2,476.8v1.8h1.2v1.4h-1.2v3.8c0,0.3,0.1,0.5,0.2,0.6c0.1,0.1,0.3,0.2,0.5,0.2c0.1,0,0.2,0,0.3,0
			c0.1,0,0.2,0,0.3-0.1l0.2,1.4c-0.2,0.1-0.4,0.1-0.6,0.2c-0.2,0-0.4,0.1-0.6,0.1c-0.7,0-1.2-0.2-1.6-0.6c-0.4-0.4-0.6-1-0.6-1.8
			V480h-1.1v-1.4h1.1v-1.8H514.2z"/>
		<path class="st36" d="M523.4,482.5c0,1.1-0.3,2-0.8,2.6s-1.2,1-2.1,1c-0.4,0-0.7-0.1-1-0.2c-0.3-0.1-0.6-0.4-0.8-0.6v3.5h-2v-10.2
			h1.8l0.1,0.9c0.2-0.3,0.5-0.6,0.8-0.7c0.3-0.2,0.7-0.3,1.1-0.3c0.9,0,1.6,0.4,2.1,1.1s0.8,1.7,0.8,2.8V482.5z M521.4,482.4
			c0-0.7-0.1-1.3-0.3-1.7s-0.6-0.7-1.1-0.7c-0.3,0-0.6,0.1-0.8,0.2c-0.2,0.1-0.4,0.3-0.5,0.5v3.2c0.1,0.2,0.3,0.4,0.5,0.5
			s0.5,0.2,0.8,0.2c0.5,0,0.8-0.2,1.1-0.6s0.3-0.9,0.3-1.5V482.4z"/>
		<path class="st36" d="M529.1,484.9c-0.2,0.4-0.5,0.7-0.9,0.9c-0.4,0.2-0.8,0.3-1.2,0.3c-0.8,0-1.4-0.2-1.8-0.7
			c-0.4-0.5-0.7-1.3-0.7-2.3v-4.5h2v4.5c0,0.5,0.1,0.9,0.3,1.2c0.2,0.2,0.5,0.4,0.8,0.4c0.3,0,0.6-0.1,0.8-0.2
			c0.2-0.1,0.4-0.3,0.6-0.5v-5.4h2v7.4h-1.7L529.1,484.9z"/>
		<path class="st36" d="M534.9,476.8v1.8h1.2v1.4h-1.2v3.8c0,0.3,0.1,0.5,0.2,0.6c0.1,0.1,0.3,0.2,0.5,0.2c0.1,0,0.2,0,0.3,0
			c0.1,0,0.2,0,0.3-0.1l0.2,1.4c-0.2,0.1-0.4,0.1-0.6,0.2c-0.2,0-0.4,0.1-0.6,0.1c-0.7,0-1.2-0.2-1.6-0.6c-0.4-0.4-0.6-1-0.6-1.8
			V480h-1.1v-1.4h1.1v-1.8H534.9z"/>
		<path class="st36" d="M544.8,480.3l-0.7,0c-0.3,0-0.5,0.1-0.7,0.2s-0.3,0.3-0.4,0.5v5h-2v-7.4h1.9l0.1,1.1
			c0.2-0.4,0.4-0.7,0.7-0.9c0.3-0.2,0.6-0.3,1-0.3c0.1,0,0.2,0,0.3,0c0.1,0,0.2,0,0.3,0.1L544.8,480.3z"/>
		<path class="st36" d="M547.9,476.8h-2v-1.5h2V476.8z M547.9,486h-2v-7.4h2V486z"/>
		<path class="st36" d="M551.3,478.6l0.1,1.1c0.2-0.4,0.5-0.7,0.9-0.9c0.4-0.2,0.8-0.3,1.2-0.3c0.7,0,1.3,0.2,1.8,0.7
			c0.4,0.5,0.6,1.2,0.6,2.2v4.6h-2v-4.6c0-0.5-0.1-0.9-0.3-1.1c-0.2-0.2-0.5-0.3-0.9-0.3c-0.3,0-0.5,0.1-0.7,0.2
			c-0.2,0.1-0.4,0.3-0.5,0.5v5.4h-2v-7.4H551.3z"/>
		<path class="st36" d="M557.1,482.4c0-1.2,0.3-2.1,0.8-2.8c0.5-0.7,1.2-1.1,2.1-1.1c0.4,0,0.8,0.1,1.1,0.3s0.6,0.5,0.8,0.8l0.2-0.9
			h1.7v7.4c0,1-0.3,1.7-0.9,2.2c-0.6,0.5-1.5,0.8-2.6,0.8c-0.4,0-0.8-0.1-1.2-0.2c-0.4-0.1-0.8-0.2-1.2-0.4l0.4-1.5
			c0.3,0.1,0.6,0.3,0.9,0.3c0.3,0.1,0.7,0.1,1,0.1c0.5,0,0.9-0.1,1.2-0.3c0.3-0.2,0.4-0.6,0.4-1.1v-0.7c-0.2,0.3-0.5,0.5-0.8,0.6
			c-0.3,0.1-0.6,0.2-1,0.2c-0.9,0-1.6-0.3-2.1-1c-0.5-0.7-0.8-1.5-0.8-2.6V482.4z M559.1,482.5c0,0.7,0.1,1.2,0.3,1.5
			c0.2,0.4,0.6,0.6,1.1,0.6c0.3,0,0.6-0.1,0.8-0.2c0.2-0.1,0.4-0.3,0.5-0.5v-3.2c-0.1-0.2-0.3-0.4-0.5-0.5s-0.5-0.2-0.8-0.2
			c-0.5,0-0.8,0.2-1.1,0.7s-0.3,1-0.3,1.7V482.5z"/>
		<path class="st36" d="M569.3,484c0-0.2-0.1-0.4-0.3-0.6s-0.6-0.3-1.2-0.4c-0.9-0.2-1.5-0.4-2-0.8c-0.4-0.3-0.7-0.8-0.7-1.4
			c0-0.6,0.3-1.2,0.8-1.6c0.5-0.4,1.3-0.7,2.2-0.7c0.9,0,1.7,0.2,2.3,0.7c0.6,0.4,0.8,1,0.8,1.7l0,0h-1.9c0-0.3-0.1-0.5-0.3-0.7
			c-0.2-0.2-0.5-0.3-0.8-0.3c-0.3,0-0.6,0.1-0.8,0.2c-0.2,0.2-0.3,0.4-0.3,0.6c0,0.2,0.1,0.4,0.3,0.6c0.2,0.1,0.6,0.3,1.2,0.4
			c0.9,0.2,1.6,0.5,2,0.8c0.4,0.4,0.7,0.8,0.7,1.5c0,0.7-0.3,1.2-0.9,1.6c-0.6,0.4-1.3,0.6-2.3,0.6c-1,0-1.8-0.2-2.3-0.7
			c-0.6-0.5-0.8-1.1-0.8-1.7l0,0h1.8c0,0.4,0.1,0.7,0.4,0.9s0.6,0.3,1,0.3c0.4,0,0.7-0.1,0.8-0.2C569.2,484.4,569.3,484.2,569.3,484
			z"/>
	</g>
	<g class="st35">
		<path class="st36" d="M736,362.5h-6.8v-1.3l3.2-3.5c0.5-0.5,0.8-1,1-1.3c0.2-0.4,0.3-0.7,0.3-1c0-0.4-0.1-0.8-0.3-1
			c-0.2-0.3-0.5-0.4-1-0.4c-0.5,0-0.8,0.2-1,0.5c-0.2,0.3-0.4,0.7-0.4,1.2h-1.9l0,0c0-0.9,0.3-1.7,0.9-2.3c0.6-0.6,1.4-0.9,2.5-0.9
			c1,0,1.8,0.3,2.4,0.8c0.6,0.5,0.9,1.2,0.9,2.1c0,0.6-0.2,1.2-0.5,1.7c-0.3,0.5-0.9,1.2-1.6,2l-1.8,1.9l0,0h4.2V362.5z"/>
		<path class="st36" d="M737.5,358.1l0.6-5.5h5.6v1.6h-3.9l-0.3,2.3c0.2-0.1,0.4-0.3,0.7-0.3c0.3-0.1,0.5-0.1,0.9-0.1
			c1,0,1.7,0.3,2.2,0.9s0.8,1.4,0.8,2.5c0,1-0.3,1.8-0.9,2.4c-0.6,0.6-1.4,1-2.5,1c-0.9,0-1.7-0.3-2.4-0.8c-0.7-0.5-1-1.2-0.9-2.1
			l0,0l1.9-0.1c0,0.4,0.1,0.8,0.4,1c0.3,0.2,0.6,0.4,1,0.4c0.5,0,0.8-0.2,1-0.5c0.2-0.3,0.3-0.8,0.3-1.3c0-0.6-0.1-1-0.4-1.4
			c-0.2-0.3-0.6-0.5-1.1-0.5c-0.4,0-0.7,0.1-0.9,0.2c-0.2,0.1-0.3,0.3-0.4,0.6L737.5,358.1z"/>
		<path class="st36" d="M751,353.3h-2v-1.5h2V353.3z M751,362.5h-2v-7.4h2V362.5z"/>
		<path class="st36" d="M754.4,355.1l0.1,1.1c0.2-0.4,0.5-0.7,0.9-0.9c0.4-0.2,0.8-0.3,1.2-0.3c0.7,0,1.3,0.2,1.8,0.7
			c0.4,0.5,0.6,1.2,0.6,2.2v4.6h-2v-4.6c0-0.5-0.1-0.9-0.3-1.1c-0.2-0.2-0.5-0.3-0.9-0.3c-0.3,0-0.5,0.1-0.7,0.2
			c-0.2,0.1-0.4,0.3-0.5,0.5v5.4h-2v-7.4H754.4z"/>
		<path class="st36" d="M760.2,358.9c0-1.2,0.3-2.1,0.8-2.8c0.5-0.7,1.2-1.1,2.1-1.1c0.4,0,0.7,0.1,1,0.2c0.3,0.2,0.6,0.4,0.8,0.7
			v-4.1h2v10.7h-1.7l-0.2-0.9c-0.2,0.3-0.5,0.6-0.8,0.8c-0.3,0.2-0.7,0.3-1.1,0.3c-0.9,0-1.6-0.3-2.1-1c-0.5-0.7-0.8-1.5-0.8-2.6
			V358.9z M762.2,359c0,0.7,0.1,1.2,0.3,1.5c0.2,0.4,0.6,0.6,1.1,0.6c0.3,0,0.5-0.1,0.8-0.2c0.2-0.1,0.4-0.3,0.5-0.5v-3.2
			c-0.1-0.2-0.3-0.4-0.5-0.5s-0.5-0.2-0.7-0.2c-0.5,0-0.8,0.2-1.1,0.7s-0.3,1-0.3,1.7V359z"/>
		<path class="st36" d="M770.5,353.3h-2v-1.5h2V353.3z M770.5,362.5h-2v-7.4h2V362.5z"/>
		<path class="st36" d="M774.8,359.7l0.1,0.7h0l0.1-0.7l1.2-4.6h2.1l-2.5,7.4H774l-2.5-7.4h2.1L774.8,359.7z"/>
		<path class="st36" d="M781.4,353.3h-2v-1.5h2V353.3z M781.4,362.5h-2v-7.4h2V362.5z"/>
		<path class="st36" d="M782.7,358.9c0-1.2,0.3-2.1,0.8-2.8c0.5-0.7,1.2-1.1,2.1-1.1c0.4,0,0.7,0.1,1,0.2c0.3,0.2,0.6,0.4,0.8,0.7
			v-4.1h2v10.7h-1.7l-0.2-0.9c-0.2,0.3-0.5,0.6-0.8,0.8c-0.3,0.2-0.7,0.3-1.1,0.3c-0.9,0-1.6-0.3-2.1-1c-0.5-0.7-0.8-1.5-0.8-2.6
			V358.9z M784.7,359c0,0.7,0.1,1.2,0.3,1.5c0.2,0.4,0.6,0.6,1.1,0.6c0.3,0,0.5-0.1,0.8-0.2c0.2-0.1,0.4-0.3,0.5-0.5v-3.2
			c-0.1-0.2-0.3-0.4-0.5-0.5s-0.5-0.2-0.7-0.2c-0.5,0-0.8,0.2-1.1,0.7s-0.3,1-0.3,1.7V359z"/>
		<path class="st36" d="M795.5,361.4c-0.2,0.4-0.5,0.7-0.9,0.9c-0.4,0.2-0.8,0.3-1.2,0.3c-0.8,0-1.4-0.2-1.8-0.7
			c-0.4-0.5-0.7-1.3-0.7-2.3v-4.5h2v4.5c0,0.5,0.1,0.9,0.3,1.2c0.2,0.2,0.5,0.4,0.8,0.4c0.3,0,0.6-0.1,0.8-0.2
			c0.2-0.1,0.4-0.3,0.6-0.5v-5.4h2v7.4h-1.7L795.5,361.4z"/>
		<path class="st36" d="M803.2,362.5c-0.1-0.2-0.1-0.3-0.2-0.5c-0.1-0.2-0.1-0.4-0.1-0.6c-0.2,0.4-0.5,0.7-0.8,0.9s-0.7,0.4-1.2,0.4
			c-0.8,0-1.4-0.2-1.8-0.6c-0.4-0.4-0.6-0.9-0.6-1.6c0-0.7,0.3-1.3,0.8-1.7c0.6-0.4,1.4-0.6,2.4-0.6h1.1v-0.6c0-0.4-0.1-0.6-0.3-0.8
			c-0.2-0.2-0.5-0.3-0.8-0.3c-0.3,0-0.6,0.1-0.7,0.2c-0.2,0.2-0.3,0.4-0.3,0.7l-1.9,0l0,0c0-0.6,0.2-1.2,0.8-1.6
			c0.6-0.5,1.3-0.7,2.3-0.7c0.9,0,1.6,0.2,2.2,0.7c0.6,0.4,0.8,1.1,0.8,1.9v3.1c0,0.3,0,0.7,0.1,1c0.1,0.3,0.1,0.6,0.3,0.9H803.2z
			 M801.4,361.2c0.4,0,0.7-0.1,0.9-0.3s0.5-0.4,0.6-0.6v-1h-1.1c-0.4,0-0.7,0.1-1,0.3c-0.2,0.2-0.3,0.5-0.3,0.8
			c0,0.2,0.1,0.4,0.2,0.6S801.1,361.2,801.4,361.2z"/>
		<path class="st36" d="M808.5,362.5h-2v-10.7h2V362.5z"/>
		<path class="st36" d="M812.2,362.5h-2v-10.7h2V362.5z"/>
		<path class="st36" d="M816.5,359.4l0.1,0.4h0l1.4-4.7h2.1l-3,8.5c-0.2,0.5-0.5,1-0.9,1.3c-0.4,0.4-0.9,0.5-1.6,0.5
			c-0.2,0-0.3,0-0.5,0s-0.3-0.1-0.5-0.1l0.2-1.5c0.1,0,0.1,0,0.2,0s0.1,0,0.2,0c0.3,0,0.6-0.1,0.8-0.2c0.2-0.2,0.3-0.4,0.4-0.6
			l0.2-0.6l-2.6-7.4h2.1L816.5,359.4z"/>
		<path class="st36" d="M831.1,359c0,1.1-0.3,2-0.8,2.6s-1.2,1-2.1,1c-0.4,0-0.7-0.1-1-0.2c-0.3-0.1-0.6-0.4-0.8-0.6v3.5h-2v-10.2
			h1.8l0.1,0.9c0.2-0.3,0.5-0.6,0.8-0.7c0.3-0.2,0.7-0.3,1.1-0.3c0.9,0,1.6,0.4,2.1,1.1s0.8,1.7,0.8,2.8V359z M829.1,358.9
			c0-0.7-0.1-1.3-0.3-1.7s-0.6-0.7-1.1-0.7c-0.3,0-0.6,0.1-0.8,0.2c-0.2,0.1-0.4,0.3-0.5,0.5v3.2c0.1,0.2,0.3,0.4,0.5,0.5
			s0.5,0.2,0.8,0.2c0.5,0,0.8-0.2,1.1-0.6s0.3-0.9,0.3-1.5V358.9z"/>
		<path class="st36" d="M836.3,356.8l-0.7,0c-0.3,0-0.5,0.1-0.7,0.2s-0.3,0.3-0.4,0.5v5h-2v-7.4h1.9l0.1,1.1
			c0.2-0.4,0.4-0.7,0.7-0.9c0.3-0.2,0.6-0.3,1-0.3c0.1,0,0.2,0,0.3,0c0.1,0,0.2,0,0.3,0.1L836.3,356.8z"/>
		<path class="st36" d="M837,358.7c0-1.1,0.3-2,0.9-2.7c0.6-0.7,1.5-1.1,2.6-1.1c1.1,0,2,0.4,2.6,1.1c0.6,0.7,0.9,1.6,0.9,2.7v0.1
			c0,1.1-0.3,2-0.9,2.7c-0.6,0.7-1.5,1-2.6,1c-1.1,0-1.9-0.3-2.6-1c-0.6-0.7-0.9-1.6-0.9-2.7V358.7z M839,358.9
			c0,0.7,0.1,1.2,0.4,1.6c0.2,0.4,0.6,0.6,1.1,0.6c0.5,0,0.9-0.2,1.1-0.6s0.4-0.9,0.4-1.6v-0.1c0-0.7-0.1-1.2-0.4-1.6
			c-0.2-0.4-0.6-0.6-1.1-0.6c-0.5,0-0.9,0.2-1.1,0.6c-0.2,0.4-0.4,0.9-0.4,1.6V358.9z"/>
		<path class="st36" d="M844.9,358.9c0-1.2,0.3-2.1,0.8-2.8c0.5-0.7,1.2-1.1,2.1-1.1c0.4,0,0.8,0.1,1.1,0.3s0.6,0.5,0.8,0.8l0.2-0.9
			h1.7v7.4c0,1-0.3,1.7-0.9,2.2c-0.6,0.5-1.5,0.8-2.6,0.8c-0.4,0-0.8-0.1-1.2-0.2c-0.4-0.1-0.8-0.2-1.2-0.4l0.4-1.5
			c0.3,0.1,0.6,0.3,0.9,0.3c0.3,0.1,0.7,0.1,1,0.1c0.5,0,0.9-0.1,1.2-0.3c0.3-0.2,0.4-0.6,0.4-1.1v-0.7c-0.2,0.3-0.5,0.5-0.8,0.6
			c-0.3,0.1-0.6,0.2-1,0.2c-0.9,0-1.6-0.3-2.1-1c-0.5-0.7-0.8-1.5-0.8-2.6V358.9z M846.9,359c0,0.7,0.1,1.2,0.3,1.5
			c0.2,0.4,0.6,0.6,1.1,0.6c0.3,0,0.6-0.1,0.8-0.2c0.2-0.1,0.4-0.3,0.5-0.5v-3.2c-0.1-0.2-0.3-0.4-0.5-0.5s-0.5-0.2-0.8-0.2
			c-0.5,0-0.8,0.2-1.1,0.7s-0.3,1-0.3,1.7V359z"/>
		<path class="st36" d="M857,356.8l-0.7,0c-0.3,0-0.5,0.1-0.7,0.2s-0.3,0.3-0.4,0.5v5h-2v-7.4h1.9l0.1,1.1c0.2-0.4,0.4-0.7,0.7-0.9
			c0.3-0.2,0.6-0.3,1-0.3c0.1,0,0.2,0,0.3,0c0.1,0,0.2,0,0.3,0.1L857,356.8z"/>
		<path class="st36" d="M862.3,362.5c-0.1-0.2-0.1-0.3-0.2-0.5c-0.1-0.2-0.1-0.4-0.1-0.6c-0.2,0.4-0.5,0.7-0.8,0.9s-0.7,0.4-1.2,0.4
			c-0.8,0-1.4-0.2-1.8-0.6c-0.4-0.4-0.6-0.9-0.6-1.6c0-0.7,0.3-1.3,0.8-1.7c0.6-0.4,1.4-0.6,2.4-0.6h1.1v-0.6c0-0.4-0.1-0.6-0.3-0.8
			c-0.2-0.2-0.5-0.3-0.8-0.3c-0.3,0-0.6,0.1-0.7,0.2c-0.2,0.2-0.3,0.4-0.3,0.7l-1.9,0l0,0c0-0.6,0.2-1.2,0.8-1.6
			c0.6-0.5,1.3-0.7,2.3-0.7c0.9,0,1.6,0.2,2.2,0.7c0.6,0.4,0.8,1.1,0.8,1.9v3.1c0,0.3,0,0.7,0.1,1c0.1,0.3,0.1,0.6,0.3,0.9H862.3z
			 M860.5,361.2c0.4,0,0.7-0.1,0.9-0.3s0.5-0.4,0.6-0.6v-1h-1.1c-0.4,0-0.7,0.1-1,0.3c-0.2,0.2-0.3,0.5-0.3,0.8
			c0,0.2,0.1,0.4,0.2,0.6S860.2,361.2,860.5,361.2z"/>
		<path class="st36" d="M867.4,355.1l0.1,1c0.2-0.4,0.5-0.6,0.9-0.8c0.4-0.2,0.8-0.3,1.2-0.3c0.5,0,0.9,0.1,1.2,0.3
			c0.3,0.2,0.6,0.5,0.8,1c0.2-0.4,0.5-0.7,0.9-0.9c0.4-0.2,0.8-0.3,1.3-0.3c0.7,0,1.3,0.3,1.7,0.8c0.4,0.5,0.6,1.3,0.6,2.3v4.5h-2
			V358c0-0.6-0.1-1-0.3-1.2c-0.2-0.2-0.5-0.3-0.8-0.3c-0.3,0-0.5,0.1-0.7,0.2c-0.2,0.1-0.4,0.3-0.5,0.5c0,0.1,0,0.2,0,0.2
			c0,0.1,0,0.1,0,0.2v4.9h-2V358c0-0.5-0.1-0.9-0.3-1.2c-0.2-0.2-0.5-0.3-0.8-0.3c-0.3,0-0.5,0.1-0.7,0.2c-0.2,0.1-0.4,0.2-0.5,0.4
			v5.4h-2v-7.4H867.4z"/>
		<path class="st36" d="M879.5,355.1l0.1,1c0.2-0.4,0.5-0.6,0.9-0.8c0.4-0.2,0.8-0.3,1.2-0.3c0.5,0,0.9,0.1,1.2,0.3
			c0.3,0.2,0.6,0.5,0.8,1c0.2-0.4,0.5-0.7,0.9-0.9c0.4-0.2,0.8-0.3,1.3-0.3c0.7,0,1.3,0.3,1.7,0.8c0.4,0.5,0.6,1.3,0.6,2.3v4.5h-2
			V358c0-0.6-0.1-1-0.3-1.2c-0.2-0.2-0.5-0.3-0.8-0.3c-0.3,0-0.5,0.1-0.7,0.2c-0.2,0.1-0.4,0.3-0.5,0.5c0,0.1,0,0.2,0,0.2
			c0,0.1,0,0.1,0,0.2v4.9h-2V358c0-0.5-0.1-0.9-0.3-1.2c-0.2-0.2-0.5-0.3-0.8-0.3c-0.3,0-0.5,0.1-0.7,0.2c-0.2,0.1-0.4,0.2-0.5,0.4
			v5.4h-2v-7.4H879.5z"/>
		<path class="st36" d="M894.1,362.5c-0.1-0.2-0.1-0.3-0.2-0.5c-0.1-0.2-0.1-0.4-0.1-0.6c-0.2,0.4-0.5,0.7-0.8,0.9s-0.7,0.4-1.2,0.4
			c-0.8,0-1.4-0.2-1.8-0.6c-0.4-0.4-0.6-0.9-0.6-1.6c0-0.7,0.3-1.3,0.8-1.7c0.6-0.4,1.4-0.6,2.4-0.6h1.1v-0.6c0-0.4-0.1-0.6-0.3-0.8
			c-0.2-0.2-0.5-0.3-0.8-0.3c-0.3,0-0.6,0.1-0.7,0.2c-0.2,0.2-0.3,0.4-0.3,0.7l-1.9,0l0,0c0-0.6,0.2-1.2,0.8-1.6
			c0.6-0.5,1.3-0.7,2.3-0.7c0.9,0,1.6,0.2,2.2,0.7c0.6,0.4,0.8,1.1,0.8,1.9v3.1c0,0.3,0,0.7,0.1,1c0.1,0.3,0.1,0.6,0.3,0.9H894.1z
			 M892.2,361.2c0.4,0,0.7-0.1,0.9-0.3s0.5-0.4,0.6-0.6v-1h-1.1c-0.4,0-0.7,0.1-1,0.3c-0.2,0.2-0.3,0.5-0.3,0.8
			c0,0.2,0.1,0.4,0.2,0.6S892,361.2,892.2,361.2z"/>
		<path class="st36" d="M903.9,359c0,1.1-0.2,2-0.7,2.6s-1.2,1-2.1,1c-0.4,0-0.8-0.1-1.1-0.3c-0.3-0.2-0.6-0.4-0.8-0.8l-0.2,0.9
			h-1.7v-10.7h2v4.1c0.2-0.3,0.5-0.5,0.8-0.7c0.3-0.2,0.6-0.2,1-0.2c0.9,0,1.7,0.4,2.1,1.1c0.5,0.7,0.7,1.7,0.7,2.8V359z
			 M901.9,358.9c0-0.7-0.1-1.3-0.3-1.7c-0.2-0.4-0.6-0.6-1.1-0.6c-0.3,0-0.6,0.1-0.8,0.2c-0.2,0.1-0.4,0.3-0.5,0.6v3.1
			c0.1,0.2,0.3,0.4,0.5,0.5c0.2,0.1,0.5,0.2,0.8,0.2c0.5,0,0.9-0.2,1.1-0.5s0.3-0.9,0.3-1.6V358.9z"/>
		<path class="st36" d="M907.2,362.5h-2v-10.7h2V362.5z"/>
		<path class="st36" d="M912.2,362.6c-1.1,0-1.9-0.3-2.6-1c-0.6-0.7-1-1.6-1-2.6v-0.3c0-1.1,0.3-2,0.9-2.7c0.6-0.7,1.4-1.1,2.4-1.1
			c1,0,1.8,0.3,2.3,0.9c0.6,0.6,0.8,1.4,0.8,2.4v1.1h-4.4l0,0c0,0.5,0.2,0.9,0.5,1.2c0.3,0.3,0.7,0.5,1.2,0.5c0.4,0,0.8,0,1.1-0.1
			c0.3-0.1,0.6-0.2,1-0.4l0.5,1.2c-0.3,0.2-0.7,0.5-1.2,0.6C913.3,362.6,912.8,362.6,912.2,362.6z M912,356.5
			c-0.4,0-0.7,0.1-0.9,0.4c-0.2,0.3-0.3,0.7-0.4,1.1l0,0h2.4v-0.2c0-0.4-0.1-0.8-0.3-1C912.7,356.6,912.4,356.5,912,356.5z"/>
		<path class="st36" d="M921.9,361h4.4v1.5h-6.4v-10h2V361z"/>
		<path class="st36" d="M933.6,358.1h-4.1v2.8h4.8v1.5h-6.8v-10h6.8v1.5h-4.8v2.5h4.1V358.1z"/>
		<path class="st36" d="M935.6,362.5v-10h3.4c1.2,0,2.2,0.4,3,1.2c0.8,0.8,1.2,1.8,1.2,3v1.6c0,1.2-0.4,2.2-1.2,3
			c-0.8,0.8-1.8,1.2-3,1.2H935.6z M937.6,354.1v6.9h1.3c0.7,0,1.3-0.2,1.7-0.7c0.4-0.5,0.6-1.1,0.6-1.9v-1.7c0-0.8-0.2-1.4-0.6-1.9
			c-0.4-0.5-1-0.7-1.7-0.7H937.6z"/>
		<path class="st36" d="M948.6,360.5c0-0.2-0.1-0.4-0.3-0.6s-0.6-0.3-1.2-0.4c-0.9-0.2-1.5-0.4-2-0.8c-0.4-0.3-0.7-0.8-0.7-1.4
			c0-0.6,0.3-1.2,0.8-1.6c0.5-0.4,1.3-0.7,2.2-0.7c0.9,0,1.7,0.2,2.3,0.7c0.6,0.4,0.8,1,0.8,1.7l0,0h-1.9c0-0.3-0.1-0.5-0.3-0.7
			c-0.2-0.2-0.5-0.3-0.8-0.3c-0.3,0-0.6,0.1-0.8,0.2c-0.2,0.2-0.3,0.4-0.3,0.6c0,0.2,0.1,0.4,0.3,0.6c0.2,0.1,0.6,0.3,1.2,0.4
			c0.9,0.2,1.6,0.5,2,0.8c0.4,0.4,0.7,0.8,0.7,1.5c0,0.7-0.3,1.2-0.9,1.6c-0.6,0.4-1.3,0.6-2.3,0.6c-1,0-1.8-0.2-2.3-0.7
			c-0.6-0.5-0.8-1.1-0.8-1.7l0,0h1.8c0,0.4,0.1,0.7,0.4,0.9s0.6,0.3,1,0.3c0.4,0,0.7-0.1,0.8-0.2
			C948.5,360.9,948.6,360.7,948.6,360.5z"/>
	</g>
	<g class="st35">
		<path class="st36" d="M630.5,495.5c0,1.1-0.3,2-0.8,2.6s-1.2,1-2.1,1c-0.4,0-0.7-0.1-1-0.2c-0.3-0.1-0.6-0.4-0.8-0.6v3.5h-2v-10.2
			h1.8l0.1,0.9c0.2-0.3,0.5-0.6,0.8-0.7c0.3-0.2,0.7-0.3,1.1-0.3c0.9,0,1.6,0.4,2.1,1.1s0.8,1.7,0.8,2.8V495.5z M628.5,495.4
			c0-0.7-0.1-1.3-0.3-1.7s-0.6-0.7-1.1-0.7c-0.3,0-0.6,0.1-0.8,0.2c-0.2,0.1-0.4,0.3-0.5,0.5v3.2c0.1,0.2,0.3,0.4,0.5,0.5
			s0.5,0.2,0.8,0.2c0.5,0,0.8-0.2,1.1-0.6s0.3-0.9,0.3-1.5V495.4z"/>
		<path class="st36" d="M631.4,495.2c0-1.1,0.3-2,0.9-2.7c0.6-0.7,1.5-1.1,2.6-1.1c1.1,0,2,0.4,2.6,1.1c0.6,0.7,0.9,1.6,0.9,2.7v0.1
			c0,1.1-0.3,2-0.9,2.7c-0.6,0.7-1.5,1-2.6,1c-1.1,0-1.9-0.3-2.6-1c-0.6-0.7-0.9-1.6-0.9-2.7V495.2z M633.4,495.4
			c0,0.7,0.1,1.2,0.4,1.6c0.2,0.4,0.6,0.6,1.1,0.6c0.5,0,0.9-0.2,1.1-0.6s0.4-0.9,0.4-1.6v-0.1c0-0.7-0.1-1.2-0.4-1.6
			c-0.2-0.4-0.6-0.6-1.1-0.6c-0.5,0-0.9,0.2-1.1,0.6c-0.2,0.4-0.4,0.9-0.4,1.6V495.4z"/>
		<path class="st36" d="M646.1,496.4L646.1,496.4l1-4.8h1.9l-1.9,7.4h-1.7l-1.4-4.4h0l-1.4,4.4H641l-1.9-7.4h1.9l1,4.7h0l1.4-4.7
			h1.3L646.1,496.4z"/>
		<path class="st36" d="M653.2,499.1c-1.1,0-1.9-0.3-2.6-1c-0.6-0.7-1-1.6-1-2.6v-0.3c0-1.1,0.3-2,0.9-2.7c0.6-0.7,1.4-1.1,2.4-1.1
			c1,0,1.8,0.3,2.3,0.9c0.6,0.6,0.8,1.4,0.8,2.4v1.1h-4.4l0,0c0,0.5,0.2,0.9,0.5,1.2c0.3,0.3,0.7,0.5,1.2,0.5c0.4,0,0.8,0,1.1-0.1
			c0.3-0.1,0.6-0.2,1-0.4l0.5,1.2c-0.3,0.2-0.7,0.5-1.2,0.6C654.4,499.1,653.8,499.1,653.2,499.1z M653,493c-0.4,0-0.7,0.1-0.9,0.4
			c-0.2,0.3-0.3,0.7-0.4,1.1l0,0h2.4v-0.2c0-0.4-0.1-0.8-0.3-1C653.7,493.1,653.4,493,653,493z"/>
		<path class="st36" d="M661.2,493.3l-0.7,0c-0.3,0-0.5,0.1-0.7,0.2s-0.3,0.3-0.4,0.5v5h-2v-7.4h1.9l0.1,1.1
			c0.2-0.4,0.4-0.7,0.7-0.9c0.3-0.2,0.6-0.3,1-0.3c0.1,0,0.2,0,0.3,0c0.1,0,0.2,0,0.3,0.1L661.2,493.3z"/>
		<path class="st36" d="M672.4,495.5c0,1.1-0.3,2-0.8,2.6s-1.2,1-2.1,1c-0.4,0-0.7-0.1-1-0.2c-0.3-0.1-0.6-0.4-0.8-0.6v3.5h-2v-10.2
			h1.8l0.1,0.9c0.2-0.3,0.5-0.6,0.8-0.7c0.3-0.2,0.7-0.3,1.1-0.3c0.9,0,1.6,0.4,2.1,1.1s0.8,1.7,0.8,2.8V495.5z M670.4,495.4
			c0-0.7-0.1-1.3-0.3-1.7s-0.6-0.7-1.1-0.7c-0.3,0-0.6,0.1-0.8,0.2c-0.2,0.1-0.4,0.3-0.5,0.5v3.2c0.1,0.2,0.3,0.4,0.5,0.5
			s0.5,0.2,0.8,0.2c0.5,0,0.8-0.2,1.1-0.6s0.3-0.9,0.3-1.5V495.4z"/>
		<path class="st36" d="M673.3,495.2c0-1.1,0.3-2,0.9-2.7c0.6-0.7,1.5-1.1,2.6-1.1c1.1,0,2,0.4,2.6,1.1c0.6,0.7,0.9,1.6,0.9,2.7v0.1
			c0,1.1-0.3,2-0.9,2.7c-0.6,0.7-1.5,1-2.6,1c-1.1,0-1.9-0.3-2.6-1c-0.6-0.7-0.9-1.6-0.9-2.7V495.2z M675.3,495.4
			c0,0.7,0.1,1.2,0.4,1.6c0.2,0.4,0.6,0.6,1.1,0.6c0.5,0,0.9-0.2,1.1-0.6s0.4-0.9,0.4-1.6v-0.1c0-0.7-0.1-1.2-0.4-1.6
			c-0.2-0.4-0.6-0.6-1.1-0.6c-0.5,0-0.9,0.2-1.1,0.6c-0.2,0.4-0.4,0.9-0.4,1.6V495.4z"/>
		<path class="st36" d="M685.4,493.3l-0.7,0c-0.3,0-0.5,0.1-0.7,0.2s-0.3,0.3-0.4,0.5v5h-2v-7.4h1.9l0.1,1.1
			c0.2-0.4,0.4-0.7,0.7-0.9c0.3-0.2,0.6-0.3,1-0.3c0.1,0,0.2,0,0.3,0c0.1,0,0.2,0,0.3,0.1L685.4,493.3z"/>
		<path class="st36" d="M689,489.8v1.8h1.2v1.4H689v3.8c0,0.3,0.1,0.5,0.2,0.6c0.1,0.1,0.3,0.2,0.5,0.2c0.1,0,0.2,0,0.3,0
			c0.1,0,0.2,0,0.3-0.1l0.2,1.4c-0.2,0.1-0.4,0.1-0.6,0.2c-0.2,0-0.4,0.1-0.6,0.1c-0.7,0-1.2-0.2-1.6-0.6c-0.4-0.4-0.6-1-0.6-1.8
			V493h-1.1v-1.4h1.1v-1.8H689z"/>
	</g>
	<g class="st35">
		<path class="st36" d="M540.5,531.4c0-1.2,0.3-2.1,0.8-2.8s1.2-1.1,2.1-1.1c0.4,0,0.8,0.1,1.1,0.3s0.6,0.5,0.8,0.8l0.2-0.9h1.7v7.4
			c0,1-0.3,1.7-0.9,2.2c-0.6,0.5-1.5,0.8-2.6,0.8c-0.4,0-0.8-0.1-1.2-0.2c-0.4-0.1-0.8-0.2-1.2-0.4l0.4-1.5c0.3,0.1,0.6,0.3,0.9,0.3
			c0.3,0.1,0.7,0.1,1,0.1c0.5,0,0.9-0.1,1.2-0.3s0.4-0.6,0.4-1.1v-0.7c-0.2,0.3-0.5,0.5-0.8,0.6c-0.3,0.1-0.6,0.2-1,0.2
			c-0.9,0-1.6-0.3-2.1-1c-0.5-0.7-0.8-1.5-0.8-2.6V531.4z M542.4,531.5c0,0.7,0.1,1.2,0.3,1.5c0.2,0.4,0.6,0.6,1.1,0.6
			c0.3,0,0.6-0.1,0.8-0.2c0.2-0.1,0.4-0.3,0.5-0.5v-3.2c-0.1-0.2-0.3-0.4-0.5-0.5s-0.5-0.2-0.8-0.2c-0.5,0-0.8,0.2-1.1,0.7
			s-0.3,1-0.3,1.7V531.5z"/>
		<path class="st36" d="M552.6,529.3l-0.7,0c-0.3,0-0.5,0.1-0.7,0.2s-0.3,0.3-0.4,0.5v5h-2v-7.4h1.9l0.1,1.1
			c0.2-0.4,0.4-0.7,0.7-0.9c0.3-0.2,0.6-0.3,1-0.3c0.1,0,0.2,0,0.3,0c0.1,0,0.2,0,0.3,0.1L552.6,529.3z"/>
		<path class="st36" d="M553.3,531.2c0-1.1,0.3-2,0.9-2.7c0.6-0.7,1.5-1.1,2.6-1.1c1.1,0,2,0.4,2.6,1.1c0.6,0.7,0.9,1.6,0.9,2.7v0.1
			c0,1.1-0.3,2-0.9,2.7c-0.6,0.7-1.5,1-2.6,1c-1.1,0-1.9-0.3-2.6-1c-0.6-0.7-0.9-1.6-0.9-2.7V531.2z M555.2,531.4
			c0,0.7,0.1,1.2,0.4,1.6c0.2,0.4,0.6,0.6,1.1,0.6c0.5,0,0.9-0.2,1.1-0.6s0.4-0.9,0.4-1.6v-0.1c0-0.7-0.1-1.2-0.4-1.6
			c-0.2-0.4-0.6-0.6-1.1-0.6c-0.5,0-0.9,0.2-1.1,0.6c-0.2,0.4-0.4,0.9-0.4,1.6V531.4z"/>
		<path class="st36" d="M566,533.9c-0.2,0.4-0.5,0.7-0.9,0.9c-0.4,0.2-0.8,0.3-1.2,0.3c-0.8,0-1.4-0.2-1.8-0.7
			c-0.4-0.5-0.7-1.3-0.7-2.3v-4.5h2v4.5c0,0.5,0.1,0.9,0.3,1.2c0.2,0.2,0.5,0.4,0.8,0.4c0.3,0,0.6-0.1,0.8-0.2
			c0.2-0.1,0.4-0.3,0.6-0.5v-5.4h2v7.4h-1.7L566,533.9z"/>
		<path class="st36" d="M571.2,527.6l0.1,1.1c0.2-0.4,0.5-0.7,0.9-0.9c0.4-0.2,0.8-0.3,1.2-0.3c0.7,0,1.3,0.2,1.8,0.7
			c0.4,0.5,0.6,1.2,0.6,2.2v4.6h-2v-4.6c0-0.5-0.1-0.9-0.3-1.1c-0.2-0.2-0.5-0.3-0.9-0.3c-0.3,0-0.5,0.1-0.7,0.2
			c-0.2,0.1-0.4,0.3-0.5,0.5v5.4h-2v-7.4H571.2z"/>
		<path class="st36" d="M577,531.4c0-1.2,0.3-2.1,0.8-2.8s1.2-1.1,2.1-1.1c0.4,0,0.7,0.1,1,0.2c0.3,0.2,0.6,0.4,0.8,0.7v-4.1h2V535
			h-1.7l-0.2-0.9c-0.2,0.3-0.5,0.6-0.8,0.8s-0.7,0.3-1.1,0.3c-0.9,0-1.6-0.3-2.1-1s-0.8-1.5-0.8-2.6V531.4z M579,531.5
			c0,0.7,0.1,1.2,0.3,1.5c0.2,0.4,0.6,0.6,1.1,0.6c0.3,0,0.5-0.1,0.8-0.2c0.2-0.1,0.4-0.3,0.5-0.5v-3.2c-0.1-0.2-0.3-0.4-0.5-0.5
			s-0.5-0.2-0.7-0.2c-0.5,0-0.8,0.2-1.1,0.7s-0.3,1-0.3,1.7V531.5z"/>
		<path class="st36" d="M595.3,531.5c0,1.1-0.2,2-0.7,2.6s-1.2,1-2.1,1c-0.4,0-0.8-0.1-1.1-0.3c-0.3-0.2-0.6-0.4-0.8-0.8l-0.2,0.9
			h-1.7v-10.7h2v4.1c0.2-0.3,0.5-0.5,0.8-0.7s0.6-0.2,1-0.2c0.9,0,1.7,0.4,2.1,1.1c0.5,0.7,0.7,1.7,0.7,2.8V531.5z M593.3,531.4
			c0-0.7-0.1-1.3-0.3-1.7c-0.2-0.4-0.6-0.6-1.1-0.6c-0.3,0-0.6,0.1-0.8,0.2c-0.2,0.1-0.4,0.3-0.5,0.6v3.1c0.1,0.2,0.3,0.4,0.5,0.5
			s0.5,0.2,0.8,0.2c0.5,0,0.9-0.2,1.1-0.5s0.3-0.9,0.3-1.6V531.4z"/>
		<path class="st36" d="M600.9,535c-0.1-0.2-0.1-0.3-0.2-0.5s-0.1-0.4-0.1-0.6c-0.2,0.4-0.5,0.7-0.8,0.9s-0.7,0.4-1.2,0.4
			c-0.8,0-1.4-0.2-1.8-0.6c-0.4-0.4-0.6-0.9-0.6-1.6c0-0.7,0.3-1.3,0.8-1.7c0.6-0.4,1.4-0.6,2.4-0.6h1.1V530c0-0.4-0.1-0.6-0.3-0.8
			c-0.2-0.2-0.5-0.3-0.8-0.3c-0.3,0-0.6,0.1-0.7,0.2c-0.2,0.2-0.3,0.4-0.3,0.7l-1.9,0l0,0c0-0.6,0.2-1.2,0.8-1.6
			c0.6-0.5,1.3-0.7,2.3-0.7c0.9,0,1.6,0.2,2.2,0.7c0.6,0.4,0.8,1.1,0.8,1.9v3.1c0,0.3,0,0.7,0.1,1s0.1,0.6,0.3,0.9H600.9z
			 M599.1,533.7c0.4,0,0.7-0.1,0.9-0.3s0.5-0.4,0.6-0.6v-1h-1.1c-0.4,0-0.7,0.1-1,0.3c-0.2,0.2-0.3,0.5-0.3,0.8
			c0,0.2,0.1,0.4,0.2,0.6S598.8,533.7,599.1,533.7z"/>
		<path class="st36" d="M607.2,533.6c0.4,0,0.6-0.1,0.9-0.3c0.2-0.2,0.3-0.5,0.3-0.8h1.8l0,0c0,0.7-0.3,1.4-0.8,1.9
			c-0.6,0.5-1.3,0.8-2.2,0.8c-1.1,0-2-0.3-2.5-1c-0.6-0.7-0.9-1.6-0.9-2.7v-0.2c0-1.1,0.3-2,0.9-2.7s1.4-1.1,2.5-1.1
			c0.9,0,1.6,0.3,2.2,0.8s0.8,1.2,0.8,2.1l0,0h-1.8c0-0.4-0.1-0.7-0.3-1c-0.2-0.3-0.5-0.4-0.9-0.4c-0.5,0-0.9,0.2-1.1,0.6
			s-0.3,0.9-0.3,1.6v0.2c0,0.7,0.1,1.2,0.3,1.6C606.3,533.4,606.7,533.6,607.2,533.6z"/>
		<path class="st36" d="M613.9,531.9h-0.5v3.1h-2v-10.7h2v6h0.5l1.7-2.8h2.3l-2.4,3.3l2.7,4h-2.3L613.9,531.9z"/>
		<path class="st36" d="M629,531.5c0,1.1-0.3,2-0.8,2.6s-1.2,1-2.1,1c-0.4,0-0.7-0.1-1-0.2c-0.3-0.1-0.6-0.4-0.8-0.6v3.5h-2v-10.2
			h1.8l0.1,0.9c0.2-0.3,0.5-0.6,0.8-0.7c0.3-0.2,0.7-0.3,1.1-0.3c0.9,0,1.6,0.4,2.1,1.1s0.8,1.7,0.8,2.8V531.5z M627,531.4
			c0-0.7-0.1-1.3-0.3-1.7s-0.6-0.7-1.1-0.7c-0.3,0-0.6,0.1-0.8,0.2c-0.2,0.1-0.4,0.3-0.5,0.5v3.2c0.1,0.2,0.3,0.4,0.5,0.5
			s0.5,0.2,0.8,0.2c0.5,0,0.8-0.2,1.1-0.6s0.3-0.9,0.3-1.5V531.4z"/>
		<path class="st36" d="M629.9,531.2c0-1.1,0.3-2,0.9-2.7c0.6-0.7,1.5-1.1,2.6-1.1c1.1,0,2,0.4,2.6,1.1c0.6,0.7,0.9,1.6,0.9,2.7v0.1
			c0,1.1-0.3,2-0.9,2.7c-0.6,0.7-1.5,1-2.6,1c-1.1,0-1.9-0.3-2.6-1c-0.6-0.7-0.9-1.6-0.9-2.7V531.2z M631.9,531.4
			c0,0.7,0.1,1.2,0.4,1.6c0.2,0.4,0.6,0.6,1.1,0.6c0.5,0,0.9-0.2,1.1-0.6s0.4-0.9,0.4-1.6v-0.1c0-0.7-0.1-1.2-0.4-1.6
			c-0.2-0.4-0.6-0.6-1.1-0.6c-0.5,0-0.9,0.2-1.1,0.6c-0.2,0.4-0.4,0.9-0.4,1.6V531.4z"/>
		<path class="st36" d="M642,529.3l-0.7,0c-0.3,0-0.5,0.1-0.7,0.2s-0.3,0.3-0.4,0.5v5h-2v-7.4h1.9l0.1,1.1c0.2-0.4,0.4-0.7,0.7-0.9
			c0.3-0.2,0.6-0.3,1-0.3c0.1,0,0.2,0,0.3,0c0.1,0,0.2,0,0.3,0.1L642,529.3z"/>
		<path class="st36" d="M645.6,525.8v1.8h1.2v1.4h-1.2v3.8c0,0.3,0.1,0.5,0.2,0.6c0.1,0.1,0.3,0.2,0.5,0.2c0.1,0,0.2,0,0.3,0
			c0.1,0,0.2,0,0.3-0.1l0.2,1.4c-0.2,0.1-0.4,0.1-0.6,0.2c-0.2,0-0.4,0.1-0.6,0.1c-0.7,0-1.2-0.2-1.6-0.6s-0.6-1-0.6-1.8V529h-1.1
			v-1.4h1.1v-1.8H645.6z"/>
	</g>
	<line class="st37" x1="652.1" y1="443.9" x2="652.1" y2="486"/>
	<line class="st37" x1="586" y1="443.9" x2="586" y2="519"/>
	<line class="st37" x1="513" y1="443.9" x2="513" y2="470"/>
	<line class="st37" x1="439" y1="443.9" x2="439" y2="470"/>
	<line class="st37" x1="373" y1="443.9" x2="373" y2="470"/>
	<polyline class="st37" points="381.4,290 381.4,125 431.2,125 	"/>
	<polyline class="st37" points="642.3,290 642.3,125 595.4,125 	"/>
	<g>
		<rect x="444" y="243.7" class="st38" width="138.3" height="138.3"/>
		<rect x="444" y="243.7" class="st39" width="138.3" height="138.3"/>
	</g>
	<line class="st37" x1="582.3" y1="359" x2="722.7" y2="359"/>
</g>
</svg>
