<?xml version="1.0" encoding="UTF-8"?>
<!-- Generator: Adobe Illustrator 21.0.0, SVG Export Plug-In . SVG Version: 6.00 Build 0)  -->
<svg xmlns="http://www.w3.org/2000/svg" xmlns:xlink="http://www.w3.org/1999/xlink" version="1.1" id="Ebene_1" x="0px" y="0px" viewBox="0 0 300 123.3" style="enable-background:new 0 0 300 123.3;" xml:space="preserve">
<style type="text/css">
	.st0{fill:#FFDD00;}
</style>
<g>
	<polygon class="st0" points="0,0 0,123.3 123.3,123.3 123.3,92.5 107.8,77.1 123.3,61.8 123.3,15.5 107.8,0  "></polygon>
	<path d="M292.2,59v-2H282V47h9.3v-2H282v-9.2h9.8v-2h-12.1V59H292.2z M276,33.8h-2.2l-8.4,23.1l-8.3-23.1h-2.4l9.5,25.2h2.4   L276,33.8z M251.1,33.8h-2.3V59h2.3V33.8z M245.1,35.8v-2H228v2h7.4V59h2.3V35.8H245.1z M223.4,50h-11.2l5.6-14.1L223.4,50z    M229.2,59L219,33.8h-2.5L206.4,59h2.2l2.8-7h12.8l2.7,7H229.2z M202.8,33.8h-2.3V59h2.3V33.8z M196.9,35.8v-2h-17.1v2h7.4V59h2.3   V35.8H196.9z M176.1,33.8h-2.3V59h2.3V33.8z M167.2,59V33.8H165v22.6L152,33.8h-3.1V59h2.2V36.4L164.1,59H167.2z M142.3,33.8H140   V59h2.3V33.8z"></path>
	<g>
		<path d="M290.8,17.4h-8.4l4.3-11.5L290.8,17.4z M300,27.6l-9.6-25.2H283l-9.6,25.2h5.5l2.3-6.3h10.7l2.2,6.3H300z M276.4,6.8V2.3    H255v4.5h7.9v20.8h5.6V6.8H276.4z M247.6,9.6c0,3-2.7,3.8-5.3,3.8h-2.5V6.1h2.7C245.2,6.1,247.6,6.7,247.6,9.6 M254.6,27.6    l-3.3-8.7c-0.8-2.1-1.7-3.3-4-3.7c3.3-0.6,5.8-2.6,5.8-6.1c0-5-4.3-6.7-8.6-6.7h-10.3v25.2h5.5V17.1h2c2.8,0,3.3,0.8,4.2,3.2    l2.6,7.2H254.6z M230,27.6v-3.9h-11.3v-7.1h10.5v-3.8h-10.5V6.2h11V2.3h-16.5v25.2H230z M203.1,20.2c0,3.1-3,3.9-5.6,3.9h-2.6    v-7.9h2.4C200.1,16.2,203.1,16.8,203.1,20.2 M202.6,9.3c0,3-2.5,3.7-5,3.7h-2.7V5.8h3.1C200.3,5.8,202.6,6.6,202.6,9.3     M208.8,20.5c0-3.4-2.4-5.4-5.6-6c3.1-0.7,5-2.7,5-5.9c0-4.8-4.2-6.2-8.3-6.2h-10.3v25.2h9.2C203.7,27.6,208.8,26.4,208.8,20.5     M180.1,15c0,4.2-1.5,9.1-6.5,9.1c-4.9,0-6.5-5-6.5-9.1c0-4.1,1.6-9.1,6.5-9.1C178.6,5.9,180.1,10.8,180.1,15 M186,15    c0-7.9-4.4-13-12.4-13c-7.9,0-12.4,5.3-12.4,13c0,7.9,4.3,13,12.4,13C181.5,28,186,22.7,186,15 M152.7,9.6c0,3-2.7,3.8-5.3,3.8    h-2.5V6.1h2.7C150.3,6.1,152.7,6.7,152.7,9.6 M159.7,27.6l-3.3-8.7c-0.8-2.1-1.7-3.3-4-3.7c3.3-0.6,5.8-2.6,5.8-6.1    c0-5-4.3-6.7-8.6-6.7h-10.3v25.2h5.5V17.1h2c2.8,0,3.3,0.8,4.2,3.2l2.6,7.2H159.7z"></path>
	</g>
</g>
</svg>
