<svg id="Calque_1" data-name="Calque 1" xmlns="http://www.w3.org/2000/svg" viewBox="0 0 320 320"><title>Plan de travail 2</title><path d="M42.43,184.16a.69.69,0,0,1-.19-1.36l7.2-2.06a.71.71,0,0,1,.85.48.69.69,0,0,1-.48.85l-7.2,2.06Z"/><path d="M164.39,233.66c-16.53,0-29.15-1.63-33.3-3.52-9.43-4.31-37.27-19.09-37.55-19.24a.69.69,0,0,1-.37-.61V194.76c0-11-2.61-22.63-7-31.13-5.35-10.37-17.75-24.82-29.92-22.2-8.72,1.88-13.14,10.26-13.14,24.91v17.12a.69.69,0,0,1-.36.61.7.7,0,0,1-.71,0l-6.11-4a.7.7,0,0,1-.31-.58v-54c0-4.68,1.55-7.59,4.6-8.65C44,115.52,179.59,87.11,180.81,86.87c3.44-.67,7.29-.35,12.13,1,3.78,1.07,82.89,31,86.37,32.69l.56.27c2.34,1.12,5,2.38,5,6v57.22c0,11.17-19.54,32.5-61.47,42.79A254.84,254.84,0,0,1,164.39,233.66ZM94.55,209.87c3.33,1.77,28.31,15,37.11,19,7,3.2,49.3,7,91.41-3.36,42.7-10.48,60.42-32.17,60.42-41.45V126.85c0-2.74-2-3.67-4.21-4.74l-.57-.27c-3.48-1.67-82.38-31.54-86.15-32.61-4.62-1.3-8.27-1.62-11.49-1-1.22.24-136.69,28.6-140.4,29.87-2.47.85-3.67,3.26-3.67,7.34v53.63l4.72,3.11V166.34c0-15.39,4.79-24.22,14.24-26.26C70,137,82.65,153.76,87.42,163c4.46,8.68,7.13,20.56,7.13,31.76Z"/><path d="M164.39,234.66c-15.43,0-29-1.45-33.71-3.61-9-4.12-34.67-17.71-37.56-19.25a1.72,1.72,0,0,1-.95-1.52V194.76c0-10.84-2.57-22.31-6.86-30.67C80.1,154,68.13,139.91,56.48,142.41c-8.2,1.77-12.35,9.82-12.35,23.93v17.13a1.69,1.69,0,0,1-2.62,1.42l-6.12-4a1.69,1.69,0,0,1-.76-1.41v-54c0-5.16,1.77-8.38,5.28-9.6,3.76-1.29,139.48-29.72,140.72-30,3.6-.7,7.6-.37,12.6,1,3.77,1.07,83,31.07,86.54,32.75l.56.27c2.35,1.12,5.57,2.65,5.57,6.89v57.22c0,11.49-19.78,33.35-62.24,43.76A256.06,256.06,0,0,1,164.39,234.66ZM95.55,209.26c4.61,2.44,28,14.82,36.53,18.71,6.91,3.15,48.84,6.88,90.76-3.42,42.16-10.34,59.66-31.47,59.66-40.48V126.85c0-2-1.25-2.7-3.64-3.84l-.57-.28c-3.48-1.67-82.24-31.48-86-32.55-4.46-1.26-8-1.57-11-1C180,89.45,44.71,117.78,41,119.05c-1.28.44-3,1.59-3,6.4v53.09l2.72,1.79v-14c0-15.93,5.06-25.09,15-27.24C70.3,135.92,83.41,153,88.31,162.54c4.53,8.82,7.24,20.87,7.24,32.22Z"/><path d="M240.09,186.09a.7.7,0,0,1-.43-.15.7.7,0,0,1-.26-.54v-6.93a.69.69,0,0,1,.53-.67,82.34,82.34,0,0,0,11.86-3.93.69.69,0,0,1,1,.64v6.75a.69.69,0,0,1-.38.61,60.83,60.83,0,0,1-12.13,4.2Zm.69-7.08v5.5a60.13,60.13,0,0,0,10.58-3.69v-5.29A86.33,86.33,0,0,1,240.79,179Z"/><path d="M240.09,186.59a1.19,1.19,0,0,1-1.19-1.19v-6.93a1.19,1.19,0,0,1,.91-1.16,82,82,0,0,0,11.77-3.91,1.2,1.2,0,0,1,1.13.1,1.18,1.18,0,0,1,.54,1v6.75a1.2,1.2,0,0,1-.65,1.06,61.33,61.33,0,0,1-12.24,4.24A1.1,1.1,0,0,1,240.09,186.59Zm12-12.28H252a83,83,0,0,1-11.94,4,.19.19,0,0,0-.15.19v6.93a.19.19,0,0,0,.07.15.14.14,0,0,0,.15,0,60.34,60.34,0,0,0,12-4.16.2.2,0,0,0,.11-.17V174.5a.19.19,0,0,0-.09-.16A.19.19,0,0,0,252.06,174.31Zm-11.77,10.85v-6.53l.38-.1a85.68,85.68,0,0,0,10.52-3.45l.69-.28v6.34l-.28.14A60.58,60.58,0,0,1,240.91,185Zm1-5.76v4.47a60.16,60.16,0,0,0,9.58-3.36v-4.23A88.18,88.18,0,0,1,241.29,179.4Z"/><path d="M269.63,173a.71.71,0,0,1-.34-.09.69.69,0,0,1-.35-.6v-6.63a.69.69,0,0,1,.33-.59,54.79,54.79,0,0,0,7.43-5.36.68.68,0,0,1,.75-.15.69.69,0,0,1,.43.64v6.44a.69.69,0,0,1-.24.52,52.29,52.29,0,0,1-7.64,5.71A.68.68,0,0,1,269.63,173Zm.69-6.94v5a50.09,50.09,0,0,0,6.17-4.71v-4.6A69.18,69.18,0,0,1,270.32,166.1Z"/><path d="M269.63,173.54a1.21,1.21,0,0,1-.58-.15,1.19,1.19,0,0,1-.61-1v-6.63a1.2,1.2,0,0,1,.57-1,54.17,54.17,0,0,0,7.34-5.29,1.19,1.19,0,0,1,2,.85v6.44a1.19,1.19,0,0,1-.41.9,52.6,52.6,0,0,1-7.71,5.76A1.17,1.17,0,0,1,269.63,173.54Zm7.55-13.48a.19.19,0,0,0-.13.06,55.23,55.23,0,0,1-7.52,5.43.19.19,0,0,0-.09.16v6.63a.19.19,0,0,0,.1.17.2.2,0,0,0,.19,0,51.78,51.78,0,0,0,7.58-5.67.19.19,0,0,0,.07-.14v-6.44a.19.19,0,0,0-.12-.18ZM269.82,172v-6.19l.23-.15a69.26,69.26,0,0,0,6.12-4.28l.82-.66v5.88l-.17.15a50.59,50.59,0,0,1-6.23,4.75Zm1-5.63v3.79a50.32,50.32,0,0,0,5.17-4v-3.34C274.35,164.08,272.3,165.45,270.82,166.38Z"/><path d="M195.88,195.25a.68.68,0,0,1-.48-.2.7.7,0,0,1-.21-.5l.09-7.66a.69.69,0,0,1,.63-.68c2.8-.24,12.11-1.18,15.69-1.89a.69.69,0,0,1,.57.15.7.7,0,0,1,.25.53v7.6a.69.69,0,0,1-.52.67,116.7,116.7,0,0,1-16,2Zm.78-7.72-.08,6.31A125.12,125.12,0,0,0,211,192v-6.22C207.07,186.51,199.26,187.29,196.66,187.53Z"/><path d="M195.91,195.75h0a1.18,1.18,0,0,1-.84-.34,1.2,1.2,0,0,1-.36-.86l.09-7.67a1.19,1.19,0,0,1,1.09-1.17c2.79-.24,12-1.17,15.64-1.88a1.2,1.2,0,0,1,1.43,1.17v7.6a1.19,1.19,0,0,1-.9,1.16,117.63,117.63,0,0,1-16.11,2Zm15.83-11h0c-3.63.73-12.95,1.66-15.75,1.9a.19.19,0,0,0-.17.19l-.09,7.66a.2.2,0,0,0,.06.14.18.18,0,0,0,.13.06h0a116,116,0,0,0,15.88-2,.19.19,0,0,0,.15-.19V185a.2.2,0,0,0-.07-.15A.19.19,0,0,0,211.73,184.8Zm-15.66,9.56.09-7.29.45,0c3.35-.31,10.66-1.06,14.35-1.7l.58-.1v7.21l-.39.09a126.39,126.39,0,0,1-14.55,1.8Zm1.08-6.38-.07,5.32a130.59,130.59,0,0,0,13.46-1.67v-5.22C206.85,187,200.49,187.67,197.15,188Z"/><path d="M144.71,164.75a.69.69,0,0,1,0-1.39c.52,0,52.31-.64,83.52-8,39.34-9.23,55.22-24.13,55.22-28.78a.69.69,0,1,1,1.39,0c0,5.9-16.51,20.79-56.29,30.13-31.36,7.38-83.31,8-83.83,8Z"/><path d="M133,225a.69.69,0,0,1-.69-.69V164.93a2.75,2.75,0,0,0-1.17-1.86c-1.42-.8-60.57-26.45-91.63-39.89a.69.69,0,0,1-.36-.91.7.7,0,0,1,.91-.36c15.2,6.58,91.05,39.42,91.9,40a4,4,0,0,1,1.73,3v59.39A.69.69,0,0,1,133,225Z"/><path d="M149.63,116c-6.45,0-13-1.59-13-4.64,0-6,26-6,26,0C162.61,114.37,156.08,116,149.63,116Zm0-7.86c-7.07,0-11.59,1.91-11.59,3.22s4.41,3.25,11.59,3.25,11.59-1.89,11.59-3.25S156.71,108.11,149.63,108.11Z"/><path d="M205.79,152.7h-1.43l-1.84,0a2.36,2.36,0,0,1-1.68-.75,2.29,2.29,0,0,1-.62-1.66,2.26,2.26,0,0,1,.73-1.59,2.48,2.48,0,0,1,1.72-.65l1.74,0a96.19,96.19,0,0,0,14.3-.85,2.42,2.42,0,0,1,2.69,2,2.25,2.25,0,0,1-.43,1.71,2.37,2.37,0,0,1-1.59.93A99.3,99.3,0,0,1,205.79,152.7Zm-3.21-3.31a1,1,0,0,0-.69.28.88.88,0,0,0-.29.63.92.92,0,0,0,.25.67,1,1,0,0,0,.69.31l1.83,0a91.83,91.83,0,0,0,14.81-.89,1,1,0,0,0,.67-.39.89.89,0,0,0,.17-.67,1,1,0,0,0-1.13-.8,101.16,101.16,0,0,1-14.51.87l-1.77,0Zm-12.91,2.16a2.55,2.55,0,0,1-.35,0,69.85,69.85,0,0,1-16.5-4.31,2.34,2.34,0,0,1-1.23-3.07,2.4,2.4,0,0,1,3.12-1.21,64,64,0,0,0,15.32,4,2.34,2.34,0,0,1,1.57.94,2.26,2.26,0,0,1,.41,1.72A2.37,2.37,0,0,1,189.67,151.54Zm-15.9-7.43a1,1,0,0,0-.91.58.94.94,0,0,0,.51,1.24,68.15,68.15,0,0,0,16.15,4.21l.16,0a1,1,0,0,0,1-.8.9.9,0,0,0-.16-.68,1,1,0,0,0-.65-.39,65.39,65.39,0,0,1-15.66-4.1A1.06,1.06,0,0,0,173.77,144.11Zm57.88,4.82a2.39,2.39,0,0,1-2.23-1.55,2.3,2.3,0,0,1,.1-1.79,2.32,2.32,0,0,1,1.37-1.19c6.26-2.15,10.31-5.12,10.31-7.56a2.43,2.43,0,0,1,2.34-2.4,2.34,2.34,0,0,1,2.41,2.19c0,4.91-4.79,9.17-13.51,12.15A2.62,2.62,0,0,1,231.65,148.93Zm11.95-13.09h0a1,1,0,0,0-1,1c0,3.13-4.21,6.44-11.25,8.87a1,1,0,0,0-.57.49.92.92,0,0,0,0,.71,1,1,0,0,0,.93.64,1.22,1.22,0,0,0,.36-.06c8.09-2.77,12.55-6.57,12.55-10.68A.91.91,0,0,0,243.59,135.84ZM164.92,139a2.29,2.29,0,0,1-2.36-2.21c0-4.86,4.78-9.12,13.47-12.09a2.36,2.36,0,0,1,3,1.41,2.29,2.29,0,0,1-.09,1.78,2.34,2.34,0,0,1-1.36,1.19c-6.25,2.15-10.3,5.11-10.3,7.54A2.37,2.37,0,0,1,165,139Zm11.91-13a1.08,1.08,0,0,0-.34.06c-8.09,2.77-12.54,6.56-12.54,10.67a.93.93,0,0,0,1,.94h0a1,1,0,0,0,.95-1c0-3.12,4.2-6.43,11.24-8.85a.94.94,0,0,0,.56-.48.92.92,0,0,0,0-.71A1,1,0,0,0,176.83,125.92Zm57.86,4.77a2.65,2.65,0,0,1-.91-.17,64,64,0,0,0-15.34-4,2.37,2.37,0,0,1-1.57-.95,2.26,2.26,0,0,1-.42-1.72,2.35,2.35,0,0,1,2.69-1.94,68.73,68.73,0,0,1,16.5,4.31,2.32,2.32,0,0,1,1.23,3.06A2.37,2.37,0,0,1,234.69,130.69Zm-15.91-7.4a1,1,0,0,0-1,.81.91.91,0,0,0,.17.68,1,1,0,0,0,.66.39,65.37,65.37,0,0,1,15.64,4.08,1.11,1.11,0,0,0,1.31-.49.91.91,0,0,0,0-.71.94.94,0,0,0-.51-.52,67.34,67.34,0,0,0-16.17-4.22Zm-29.37,3a2.32,2.32,0,0,1-.33-4.63,102.38,102.38,0,0,1,15.08-.91h.67l1.12,0a2.41,2.41,0,0,1,1.7.77,2.28,2.28,0,0,1,.6,1.64,2.36,2.36,0,0,1-2.36,2.25l-1.79,0a92.32,92.32,0,0,0-14.34.87h-.35Zm13.42-4.16a97.91,97.91,0,0,0-13.56.91,1,1,0,0,0-.83,1.07,1,1,0,0,0,1,.8v.69l.1-.7a97.22,97.22,0,0,1,14.61-.88l1.73,0a1,1,0,0,0,1-.91.9.9,0,0,0-.24-.65,1,1,0,0,0-.72-.32l-1.09,0h-2Z"/><path d="M104.52,173.27a.68.68,0,0,1-.3-.07l-2-1a.69.69,0,0,1-.39-.62v-2.1l-1.51-.73a.69.69,0,0,1-.39-.62v-2.72a.69.69,0,0,1,.32-.58.71.71,0,0,1,.67,0l.91.44V163.8a.69.69,0,0,1,.32-.59.68.68,0,0,1,.67,0l2,1a.69.69,0,0,1,.39.62v2.11l1.51.73a.69.69,0,0,1,.39.62V171a.69.69,0,0,1-1,.62l-.9-.44v1.44a.7.7,0,0,1-.33.59A.7.7,0,0,1,104.52,173.27Zm-1.33-2.12.64.31V170a.7.7,0,0,1,.32-.59.71.71,0,0,1,.67,0l.9.44v-1.18l-1.51-.73a.69.69,0,0,1-.39-.62v-2.11l-.65-.31v1.42a.69.69,0,0,1-.32.59.71.71,0,0,1-.67,0l-.91-.44v1.19l1.51.73a.69.69,0,0,1,.39.62Z"/><path d="M104.52,199.42a.67.67,0,0,1-.3-.07l-2-1a.69.69,0,0,1-.39-.62v-2.11l-1.51-.73a.69.69,0,0,1-.39-.62v-2.72a.69.69,0,0,1,1-.62l.9.44V190a.7.7,0,0,1,1-.63l2,1a.7.7,0,0,1,.39.63V193l1.51.73a.69.69,0,0,1,.39.62v2.72a.7.7,0,0,1-.32.59.69.69,0,0,1-.67,0l-.9-.44v1.44a.7.7,0,0,1-.32.59A.72.72,0,0,1,104.52,199.42Zm-1.33-2.11.64.31v-1.44a.7.7,0,0,1,.32-.59.71.71,0,0,1,.67,0l.9.44v-1.18l-1.51-.73a.69.69,0,0,1-.39-.62v-2.11l-.65-.31v1.43a.69.69,0,0,1-.32.59.67.67,0,0,1-.67,0l-.91-.44v1.18l1.51.73a.69.69,0,0,1,.39.62Z"/><path d="M154.72,197.87c-1.19,0-2.49,0-3.85,0-4.23-.07-7.69-.38-7.73-.38a.69.69,0,0,1-.63-.69v-7.65a.7.7,0,0,1,.21-.5.73.73,0,0,1,.51-.19s4.89.21,8.45.21H161a.69.69,0,0,1,.69.69v7.78a.69.69,0,0,1-.67.69S158.37,197.87,154.72,197.87Zm-10.82-1.74c1.18.09,3.87.28,7,.32,4.27.06,7.93,0,9.39,0V190h-8.59c-2.77,0-6.3-.13-7.79-.18Z"/><path d="M154.72,198.37c-1.19,0-2.49,0-3.86,0-4.26-.07-7.74-.38-7.77-.38a1.19,1.19,0,0,1-1.08-1.19v-7.65a1.19,1.19,0,0,1,.36-.86,1.34,1.34,0,0,1,.87-.33c.06,0,4.88.21,8.44.21H161a1.19,1.19,0,0,1,1.19,1.19v7.78A1.19,1.19,0,0,1,161,198.3C160.07,198.32,157.73,198.37,154.72,198.37Zm-11.51-9.45a.23.23,0,0,0-.14.06.19.19,0,0,0-.05.13v7.65a.19.19,0,0,0,.17.19s3.48.31,7.69.38c4.79.07,8.83,0,10,0,.17,0,.25-.09.25-.19v-7.78a.19.19,0,0,0-.19-.19h-9.28c-3.59,0-8.45-.21-8.48-.21ZM154.64,197l-3.75,0c-3.07,0-5.72-.22-7-.33l-.46,0v-7.28l.52,0c1.76.07,5.12.18,7.77.18h9.09v7.4h-.49C159.09,197,157.07,197,154.64,197Zm-10.24-1.31c1.4.1,3.78.25,6.5.29,3.69,0,7,0,8.88,0v-5.42h-8.09c-2.43,0-5.43-.09-7.29-.16Z"/><path d="M127.08,149.65c-2.23,0-4.84-.52-4.84-2s2.61-2,4.84-2c2.41,0,4.84.62,4.84,2S129.32,149.65,127.08,149.65Zm-3.36-2a9.41,9.41,0,0,0,6.71,0,9.32,9.32,0,0,0-6.71,0Z"/><path d="M117.29,145.26c-2.41,0-4.84-.62-4.84-2s2.61-2,4.84-2c1.8,0,4.84.42,4.84,2S119.09,145.26,117.29,145.26Zm-3.35-2a7,7,0,0,0,3.35.62,7.17,7.17,0,0,0,3.35-.62,7.23,7.23,0,0,0-3.35-.62A7.1,7.1,0,0,0,113.94,143.25Z"/><path d="M139.67,146.14c-2.23,0-4.83-.52-4.83-2s2.6-2,4.83-2,4.84.53,4.84,2S141.91,146.14,139.67,146.14Zm-3.35-2a7,7,0,0,0,3.35.62,7.11,7.11,0,0,0,3.36-.62,7,7,0,0,0-3.36-.63A6.92,6.92,0,0,0,136.33,144.14Z"/><path d="M130,142.2c-2.41,0-4.85-.62-4.85-2s2.61-2,4.85-2,4.84.53,4.84,2S132.45,142.2,130,142.2Zm-3.37-2a9.36,9.36,0,0,0,6.73,0,9.41,9.41,0,0,0-6.73,0Z"/><path d="M127.08,152.35c-2.41,0-4.84-.62-4.84-2a.69.69,0,1,1,1.39,0,7.28,7.28,0,0,0,3.45.63c2.07,0,3.31-.49,3.48-.74a.64.64,0,0,1,.68-.64.73.73,0,0,1,.68.75C131.92,151.93,128.88,152.35,127.08,152.35Z"/><path d="M117.29,148c-2.23,0-4.84-.52-4.84-2a.69.69,0,1,1,1.39,0,7.4,7.4,0,0,0,3.45.61c2.08,0,3.31-.48,3.48-.73a.64.64,0,0,1,.68-.64.73.73,0,0,1,.68.75C122.13,147.44,119.53,148,117.29,148Z"/><path d="M139.67,148.85c-2.4,0-4.83-.63-4.83-2a.69.69,0,0,1,1.39,0,7.13,7.13,0,0,0,3.44.63c2.12,0,3.34-.52,3.48-.74a.64.64,0,0,1,.68-.64.73.73,0,0,1,.68.75C144.52,148.22,142.08,148.85,139.67,148.85Z"/><path d="M130,144.9c-1.8,0-4.85-.42-4.85-2a.69.69,0,0,1,1.39,0,7.5,7.5,0,0,0,3.46.62c2.07,0,3.31-.49,3.48-.73a.63.63,0,0,1,.68-.64.73.73,0,0,1,.68.75C134.88,144.48,131.84,144.9,130,144.9Z"/><path d="M113.15,146.65a.69.69,0,0,1-.69-.69v-2.71a.69.69,0,1,1,1.39,0V146A.69.69,0,0,1,113.15,146.65Z"/><path d="M121.44,146.65a.69.69,0,0,1-.69-.69v-2.71a.69.69,0,1,1,1.39,0V146A.69.69,0,0,1,121.44,146.65Z"/><path d="M125.89,143.59a.69.69,0,0,1-.69-.69v-2.71a.69.69,0,0,1,1.39,0v2.71A.69.69,0,0,1,125.89,143.59Z"/><path d="M134.19,143.59a.69.69,0,0,1-.69-.69v-2.71a.69.69,0,0,1,1.39,0v2.71A.69.69,0,0,1,134.19,143.59Z"/><path d="M135.54,147.52a.69.69,0,0,1-.69-.69v-2.69a.69.69,0,1,1,1.39,0v2.69A.69.69,0,0,1,135.54,147.52Z"/><path d="M143.82,147.52a.69.69,0,0,1-.69-.69v-2.69a.69.69,0,0,1,1.39,0v2.69A.69.69,0,0,1,143.82,147.52Z"/><path d="M122.94,151a.69.69,0,0,1-.69-.69v-2.69a.69.69,0,1,1,1.39,0v2.69A.69.69,0,0,1,122.94,151Z"/><path d="M131.23,151a.69.69,0,0,1-.69-.69v-2.69a.69.69,0,1,1,1.39,0v2.69A.69.69,0,0,1,131.23,151Z"/><path d="M236.6,119.76c-2,0-4.24-.47-4.24-1.79s2.28-1.8,4.24-1.8,4.26.47,4.26,1.8S238.57,119.76,236.6,119.76ZM234,118a7.2,7.2,0,0,0,2.63.41,6.88,6.88,0,0,0,2.73-.45,9.48,9.48,0,0,0-2.73-.37A7.07,7.07,0,0,0,234,118Z"/><path d="M228.21,116.1c-.71,0-4.25-.09-4.25-1.79,0-1.33,2.29-1.8,4.25-1.8s4.25.47,4.25,1.8S230.18,116.1,228.21,116.1Zm-2.65-1.79a7.08,7.08,0,0,0,2.65.41,6.84,6.84,0,0,0,2.73-.45,9.44,9.44,0,0,0-2.73-.37A7.18,7.18,0,0,0,225.57,114.31Z"/><path d="M247.41,116.83c-2,0-4.26-.47-4.26-1.8s2.29-1.79,4.26-1.79,4.25.47,4.25,1.79S249.37,116.83,247.41,116.83ZM244.77,115a8.75,8.75,0,0,0,5.29,0,8.82,8.82,0,0,0-5.29,0Z"/><path d="M239.14,113.53c-2,0-4.25-.47-4.25-1.79,0-1.7,3.54-1.78,4.25-1.78,2,0,4.24.47,4.24,1.78S241.1,113.53,239.14,113.53Zm-2.64-1.79a8.75,8.75,0,0,0,5.26,0,8.82,8.82,0,0,0-5.26,0Z"/><path d="M236.6,122c-2,0-4.24-.47-4.24-1.79a.69.69,0,0,1,1.37-.14,5.73,5.73,0,0,0,2.87.54,5.82,5.82,0,0,0,2.89-.54.69.69,0,0,1,1.37.14C240.86,121.55,238.57,122,236.6,122Zm2.88-1.79h0Zm-5.73,0h0Z"/><path d="M228.21,118.35c-2,0-4.25-.47-4.25-1.79a.69.69,0,0,1,1.39,0,9.11,9.11,0,0,0,2.86.41,5.85,5.85,0,0,0,2.88-.54.69.69,0,0,1,1.37.14C232.47,117.88,230.18,118.35,228.21,118.35Zm2.87-1.79h0Z"/><path d="M247.41,119.08c-.71,0-4.26-.09-4.26-1.79a.69.69,0,0,1,1.37-.14,8,8,0,0,0,5.77,0,.69.69,0,0,1,1.37.14C251.67,118.61,249.37,119.08,247.41,119.08Zm2.87-1.79h0Zm-5.74,0h0Z"/><path d="M239.14,115.79c-2,0-4.25-.47-4.25-1.79a.69.69,0,0,1,1.37-.14,7.92,7.92,0,0,0,5.75,0,.69.69,0,0,1,1.37.14C243.38,115.32,241.1,115.79,239.14,115.79ZM242,114h0Zm-5.72,0h0Z"/><path d="M224.66,117.25a.69.69,0,0,1-.69-.69v-2.25a.69.69,0,1,1,1.39,0v2.25A.69.69,0,0,1,224.66,117.25Z"/><path d="M231.77,117.25a.69.69,0,0,1-.69-.69v-2.25a.69.69,0,1,1,1.39,0v2.25A.69.69,0,0,1,231.77,117.25Z"/><path d="M235.58,114.69a.69.69,0,0,1-.69-.69v-2.26a.69.69,0,0,1,1.39,0V114A.69.69,0,0,1,235.58,114.69Z"/><path d="M242.69,114.69A.69.69,0,0,1,242,114v-2.26a.69.69,0,0,1,1.39,0V114A.69.69,0,0,1,242.69,114.69Z"/><path d="M243.85,118a.69.69,0,0,1-.69-.69V115a.69.69,0,0,1,1.39,0v2.26A.69.69,0,0,1,243.85,118Z"/><path d="M251,118a.69.69,0,0,1-.69-.69V115a.69.69,0,1,1,1.39,0v2.26A.69.69,0,0,1,251,118Z"/><path d="M233.05,120.92a.69.69,0,0,1-.69-.69V118a.69.69,0,0,1,1.39,0v2.26A.69.69,0,0,1,233.05,120.92Z"/><path d="M240.17,120.92a.69.69,0,0,1-.69-.69V118a.69.69,0,0,1,1.39,0v2.26A.69.69,0,0,1,240.17,120.92Z"/><path d="M72.51,124.9h-.2c-2.05,0-4.45-.54-4.45-1.91a1.18,1.18,0,0,1,.38-.85c.77-.76,2.59-1,4.09-1,2,0,4.44.55,4.44,1.92a1.18,1.18,0,0,1-.38.85C75.66,124.64,73.95,124.9,72.51,124.9ZM69.42,123a7.14,7.14,0,0,0,2.92.53,5.9,5.9,0,0,0,2.89-.44,7.09,7.09,0,0,0-2.91-.53h-.19A6.72,6.72,0,0,0,69.42,123Z"/><path d="M63.56,120.85h-.14c-1.65,0-4.45-.43-4.45-1.92a1.16,1.16,0,0,1,.38-.84c.76-.75,2.52-1,4.09-1s4.45.43,4.45,1.91a1.19,1.19,0,0,1-.38.85C66.78,120.6,65,120.85,63.56,120.85Zm-3-1.91a7,7,0,0,0,2.91.52h.14a7,7,0,0,0,2.76-.45,7,7,0,0,0-2.91-.52h-.16A6.91,6.91,0,0,0,60.53,118.95Z"/><path d="M84.29,122h-.23c-2,0-4.44-.53-4.44-1.91a1.18,1.18,0,0,1,.38-.85c.76-.75,2.54-1,4.09-1,2.05,0,4.45.54,4.45,1.91a1.19,1.19,0,0,1-.39.85C87.41,121.76,85.71,122,84.29,122Zm-3.12-1.9a7.09,7.09,0,0,0,2.91.52,6.38,6.38,0,0,0,2.89-.44,7.17,7.17,0,0,0-2.91-.52h-.19A6.78,6.78,0,0,0,81.17,120.1Z"/><path d="M75.44,118.37h-.12c-2.05,0-4.44-.55-4.44-1.92a1.17,1.17,0,0,1,.38-.84c.76-.75,2.61-1,4.08-1,.74,0,4.44.16,4.44,1.92a1.15,1.15,0,0,1-.38.83C78.67,118.12,76.9,118.37,75.44,118.37Zm-3-1.91a7.06,7.06,0,0,0,2.91.53h.11a7,7,0,0,0,2.77-.45,7.23,7.23,0,0,0-2.91-.52A7.12,7.12,0,0,0,72.43,116.46Z"/><path d="M72.46,127.31h-.14c-2.05,0-4.45-.53-4.45-1.92a.69.69,0,0,1,1.39,0,8,8,0,0,0,3.08.53h.14a5.28,5.28,0,0,0,3-.59.62.62,0,0,1,.67-.62.74.74,0,0,1,.67.76,1.18,1.18,0,0,1-.38.85C75.66,127.06,73.91,127.31,72.46,127.31Z"/><path d="M63.56,123.28h-.14c-1.65,0-4.45-.44-4.45-1.92a.69.69,0,0,1,1.39,0,8,8,0,0,0,3.08.53,4.81,4.81,0,0,0,3.1-.59.62.62,0,0,1,.68-.62.74.74,0,0,1,.67.76,1.19,1.19,0,0,1-.38.85C66.77,123,65,123.28,63.56,123.28Z"/><path d="M84.27,124.43h-.22c-1.65,0-4.44-.43-4.44-1.91a.69.69,0,0,1,1.39,0,8,8,0,0,0,3.08.53h.21a5.15,5.15,0,0,0,2.9-.58.61.61,0,0,1,.67-.62.74.74,0,0,1,.67.77,1.17,1.17,0,0,1-.38.84C87.41,124.18,85.7,124.43,84.27,124.43Z"/><path d="M75.47,120.79h-.16c-2,0-4.44-.54-4.44-1.93a.69.69,0,0,1,1.39,0,7.69,7.69,0,0,0,3.07.54,5.6,5.6,0,0,0,3.11-.59.61.61,0,0,1,.67-.61.74.74,0,0,1,.67.77,1.17,1.17,0,0,1-.38.84C78.67,120.54,76.92,120.79,75.47,120.79Z"/><path d="M59.67,122.05a.69.69,0,0,1-.69-.69v-2.42a.69.69,0,0,1,1.39,0v2.42A.69.69,0,0,1,59.67,122.05Z"/><path d="M67.19,122.14a.69.69,0,0,1-.69-.69V119a.69.69,0,0,1,1.39,0v2.42A.69.69,0,0,1,67.19,122.14Z"/><path d="M71.57,119.56a.69.69,0,0,1-.69-.69v-2.42a.69.69,0,0,1,1.39,0v2.42A.69.69,0,0,1,71.57,119.56Z"/><path d="M79.09,119.66a.69.69,0,0,1-.69-.69v-2.42a.69.69,0,0,1,1.39,0V119A.69.69,0,0,1,79.09,119.66Z"/><path d="M80.3,123.21a.69.69,0,0,1-.69-.69V120.1a.69.69,0,0,1,1.39,0v2.42A.69.69,0,0,1,80.3,123.21Z"/><path d="M87.83,123.31a.69.69,0,0,1-.69-.69v-2.43a.69.69,0,0,1,1.39,0v2.43A.69.69,0,0,1,87.83,123.31Z"/><path d="M68.56,126.09a.69.69,0,0,1-.69-.69V123a.69.69,0,0,1,1.39,0v2.42A.69.69,0,0,1,68.56,126.09Z"/><path d="M76.08,126.17a.69.69,0,0,1-.69-.69v-2.41a.69.69,0,0,1,1.39,0v2.41A.69.69,0,0,1,76.08,126.17Z"/><path d="M183.76,99.45h-.07c-.69,0-4.11-.13-4.11-1.75a1.08,1.08,0,0,1,.35-.79c.69-.68,2.44-.9,3.77-.88.42,0,4.12.07,4.12,1.74a1.09,1.09,0,0,1-.35.78C186.64,99.38,184.51,99.45,183.76,99.45Zm-2.48-1.74a7.52,7.52,0,0,0,2.42.36h.08a7.77,7.77,0,0,0,2.31-.29,7.61,7.61,0,0,0-2.41-.35h-.18A7.34,7.34,0,0,0,181.28,97.71Z"/><path d="M175.71,96h-.13c-.69,0-4.11-.11-4.11-1.75a1.07,1.07,0,0,1,.35-.78c.69-.68,2.41-.9,3.78-.88.69,0,4.11.13,4.11,1.74a1.08,1.08,0,0,1-.34.78C178.71,95.73,177.07,96,175.71,96Zm-2.52-1.73a7.51,7.51,0,0,0,2.41.35,6.91,6.91,0,0,0,2.39-.29,7.72,7.72,0,0,0-2.4-.35A7.86,7.86,0,0,0,173.19,94.23Z"/><path d="M194.46,97h-.06c-.69,0-4.11-.14-4.11-1.75a1.08,1.08,0,0,1,.35-.78c.68-.68,2.44-.9,3.77-.89,1.89,0,4.11.48,4.11,1.75a1.08,1.08,0,0,1-.34.77C197.5,96.74,195.83,97,194.46,97ZM192,95.23a8.92,8.92,0,0,0,4.8.06,7.5,7.5,0,0,0-2.4-.35h-.13A7.53,7.53,0,0,0,192,95.23Z"/><path d="M186.51,93.83h-.08c-.7,0-4.14-.14-4.14-1.76a1.07,1.07,0,0,1,.34-.77c.68-.68,2.39-.92,3.8-.89.69,0,4.11.14,4.11,1.74a1.07,1.07,0,0,1-.34.77C189.54,93.6,187.88,93.83,186.51,93.83ZM184,92.09a7.81,7.81,0,0,0,2.43.36,8.87,8.87,0,0,0,2.38-.3,7.8,7.8,0,0,0-2.4-.35h-.13A7.76,7.76,0,0,0,184,92.09Z"/><path d="M183.87,101.54h-.19c-.68,0-4.11-.12-4.11-1.75a.69.69,0,0,1,1.37-.16,5.89,5.89,0,0,0,2.76.52,6.24,6.24,0,0,0,2.75-.45.69.69,0,0,1,1.37.17,1.08,1.08,0,0,1-.35.78C186.81,101.31,185.21,101.54,183.87,101.54Z"/><path d="M175.75,98.06h-.17c-1,0-4.11-.2-4.11-1.75a.69.69,0,0,1,1.37-.16,6.06,6.06,0,0,0,2.76.52h.15a5.64,5.64,0,0,0,2.59-.46.69.69,0,0,1,1.37.17,1.08,1.08,0,0,1-.35.78C178.7,97.83,177.09,98.06,175.75,98.06Z"/><path d="M194.54,99h-.15c-.68,0-4.1-.1-4.1-1.74a.69.69,0,0,1,1.37-.15,5.68,5.68,0,0,0,2.75.51,5.49,5.49,0,0,0,2.74-.44.69.69,0,0,1,1.37.17,1.07,1.07,0,0,1-.35.78C197.51,98.82,195.89,99,194.54,99Z"/><path d="M186.54,95.91h-.11c-.7,0-4.13-.16-4.13-1.75a.69.69,0,0,1,1.37-.17,6,6,0,0,0,2.79.53,5.64,5.64,0,0,0,2.74-.45.69.69,0,0,1,1.37.17,1.08,1.08,0,0,1-.34.78C189.54,95.68,187.9,95.91,186.54,95.91Z"/><path d="M172.17,97a.69.69,0,0,1-.69-.69v-2.1a.69.69,0,0,1,1.39,0v2.1A.69.69,0,0,1,172.17,97Z"/><path d="M179,97.08a.69.69,0,0,1-.69-.69V94.3a.69.69,0,1,1,1.39,0v2.09A.69.69,0,0,1,179,97.08Z"/><path d="M183,94.86a.69.69,0,0,1-.69-.69V92.07a.69.69,0,0,1,1.39,0v2.09A.69.69,0,0,1,183,94.86Z"/><path d="M189.86,94.94a.69.69,0,0,1-.69-.69V92.16a.69.69,0,1,1,1.39,0v2.09A.69.69,0,0,1,189.86,94.94Z"/><path d="M191,98a.69.69,0,0,1-.69-.69V95.22a.69.69,0,1,1,1.39,0v2.08A.69.69,0,0,1,191,98Z"/><path d="M197.82,98.08a.69.69,0,0,1-.69-.69V95.3a.69.69,0,1,1,1.39,0v2.09A.69.69,0,0,1,197.82,98.08Z"/><path d="M180.27,100.48a.69.69,0,0,1-.69-.69V97.7a.69.69,0,0,1,1.39,0v2.08A.69.69,0,0,1,180.27,100.48Z"/><path d="M187.12,100.57a.69.69,0,0,1-.69-.69v-2.1a.69.69,0,0,1,1.39,0v2.1A.69.69,0,0,1,187.12,100.57Z"/><path d="M73,180.77a2.58,2.58,0,0,1-1.13-.27,5,5,0,0,1-2.37-3.11c-.74-2.41,0-4.8,1.6-5.44a2.46,2.46,0,0,1,2,.12,5,5,0,0,1,2.37,3.11c.74,2.38,0,4.82-1.63,5.44A2.19,2.19,0,0,1,73,180.77Zm-1.05-7.6a.88.88,0,0,0-.34.06h0c-.81.32-1.33,1.94-.78,3.75a3.67,3.67,0,0,0,1.64,2.26,1,1,0,0,0,.86.07c.84-.32,1.37-1.93.8-3.74a3.7,3.7,0,0,0-1.65-2.27A1.25,1.25,0,0,0,71.95,173.18Zm-.59-.58h0Z"/><path d="M65.54,174a2.64,2.64,0,0,1-1.16-.28,5,5,0,0,1-2.36-3.1c-.72-2.4,0-4.79,1.6-5.44h0a2.44,2.44,0,0,1,2,.13A5,5,0,0,1,68,168.36c.73,2.42,0,4.8-1.62,5.44A2.28,2.28,0,0,1,65.54,174Zm-1.4-7.54c-.82.33-1.33,1.92-.79,3.76A3.7,3.7,0,0,0,65,172.43a1.09,1.09,0,0,0,.88.08c.82-.32,1.34-1.93.79-3.75A3.71,3.71,0,0,0,65,166.5,1.1,1.1,0,0,0,64.14,166.42Z"/><path d="M72.59,193.47a2.62,2.62,0,0,1-1.14-.28,5,5,0,0,1-2.37-3.11c-.71-2.41,0-4.8,1.62-5.44h0a2.43,2.43,0,0,1,2,.13A5,5,0,0,1,75,187.89c.75,2.39,0,4.78-1.62,5.43A2.3,2.3,0,0,1,72.59,193.47Zm-1.39-7.55c-.82.33-1.34,1.92-.8,3.76a3.71,3.71,0,0,0,1.65,2.26,1,1,0,0,0,.87.07c.85-.33,1.37-1.91.8-3.73A3.71,3.71,0,0,0,72.09,186,1.09,1.09,0,0,0,71.21,185.93Z"/><path d="M65.9,186.5a2.63,2.63,0,0,1-1.14-.28,5,5,0,0,1-2.34-3.11c-.75-2.39-.06-4.78,1.58-5.45h0a2.46,2.46,0,0,1,2,.13,5.05,5.05,0,0,1,2.38,3.1c.74,2.42,0,4.81-1.62,5.45A2.29,2.29,0,0,1,65.9,186.5ZM64.51,179c-.82.33-1.33,2-.77,3.76A3.66,3.66,0,0,0,65.36,185a1,1,0,0,0,.88.07c.82-.32,1.35-1.94.8-3.75A3.71,3.71,0,0,0,65.38,179,1,1,0,0,0,64.51,179Z"/><path d="M76.76,179.43a.69.69,0,0,1-.62-.42.71.71,0,0,1,.35-.91c.3-.15.94-1.69.36-3.58a4.57,4.57,0,0,0-1.2-2c-.47-.44-.82-.51-.9-.49a.71.71,0,0,1-.88-.43.67.67,0,0,1,.39-.86,1.78,1.78,0,0,1,1.45.15,5.38,5.38,0,0,1,2.46,3.26c.67,2.18.1,4.74-1.16,5.25A.64.64,0,0,1,76.76,179.43Z"/><path d="M69.23,172.63a.68.68,0,0,1-.63-.43.71.71,0,0,1,.36-.91c.3-.15.93-1.69.36-3.59s-1.77-2.53-2.09-2.5a.72.72,0,0,1-.88-.43.67.67,0,0,1,.38-.87,1.78,1.78,0,0,1,1.44.13,5.42,5.42,0,0,1,2.48,3.25c.68,2.26.11,4.77-1.18,5.28A.69.69,0,0,1,69.23,172.63Z"/><path d="M76.23,192.18a.69.69,0,0,1-.63-.43.7.7,0,0,1,.37-.91c.33-.15.92-1.76.36-3.6s-1.74-2.56-2.08-2.5a.69.69,0,0,1-.49-1.29,1.78,1.78,0,0,1,1.45.15,5.36,5.36,0,0,1,2.45,3.25c.68,2.24.12,4.76-1.18,5.27A.64.64,0,0,1,76.23,192.18Z"/><path d="M69.22,185.32A.69.69,0,0,1,69,184c.33-.15.92-1.75.38-3.59s-1.82-2.64-2.1-2.51a.69.69,0,1,1-.51-1.28,1.76,1.76,0,0,1,1.42.12A5.47,5.47,0,0,1,70.66,180c.67,2.25.1,4.76-1.19,5.27A.65.65,0,0,1,69.22,185.32Z"/><path d="M64,166.43a.69.69,0,0,1-.25-1.34l3-1.17a.69.69,0,0,1,.5,1.29l-3,1.17A.71.71,0,0,1,64,166.43Z"/><path d="M66.19,173.81a.69.69,0,0,1-.25-1.34l3-1.18a.7.7,0,0,1,.9.4.69.69,0,0,1-.4.9l-3,1.18A.71.71,0,0,1,66.19,173.81Z"/><path d="M64,179.12a.69.69,0,0,1-.25-1.34l3-1.19a.69.69,0,1,1,.51,1.29l-3,1.19A.75.75,0,0,1,64,179.12Z"/><path d="M66.21,186.5a.69.69,0,0,1-.25-1.34L69,184a.69.69,0,0,1,.51,1.29l-3,1.18A.75.75,0,0,1,66.21,186.5Z"/><path d="M71,186a.69.69,0,0,1-.25-1.33l3-1.19a.69.69,0,0,1,.51,1.28l-3,1.19A.67.67,0,0,1,71,186Z"/><path d="M73.22,193.36A.69.69,0,0,1,73,192l3-1.18a.69.69,0,0,1,.51,1.29l-3,1.18A.75.75,0,0,1,73.22,193.36Z"/><path d="M71.5,173.23a.69.69,0,0,1-.25-1.34l3-1.18a.7.7,0,0,1,.9.4.69.69,0,0,1-.4.9l-3,1.18A.71.71,0,0,1,71.5,173.23Z"/><path d="M73.72,180.62a.69.69,0,0,1-.25-1.34l3-1.18a.7.7,0,0,1,.9.4.69.69,0,0,1-.4.9l-3,1.18A.71.71,0,0,1,73.72,180.62Z"/><path d="M75.09,211.23c-11,0-23.17-14.52-26.58-31.7h0c-2.15-10.85-.62-20.76,4.1-26.51a12.21,12.21,0,0,1,9.64-4.75c10.88,0,22.93,14.35,26.3,31.33,2.2,11.12.68,21.21-4.08,27A11.9,11.9,0,0,1,75.09,211.23Zm-25.22-32c3.23,16.29,15,30.58,25.22,30.58a10.56,10.56,0,0,0,8.33-4.13c4.43-5.39,5.88-15.29,3.78-25.85-3.25-16.38-14.68-30.22-24.94-30.22a10.87,10.87,0,0,0-8.57,4.24c-4.46,5.43-5.89,14.92-3.81,25.36Z"/><path d="M75.09,211.73c-11.22,0-23.61-14.7-27.07-32.1-2.18-11-.61-21.06,4.21-26.92a12.7,12.7,0,0,1,10-4.93c11.11,0,23.38,14.53,26.79,31.73,2.23,11.26.67,21.51-4.18,27.41A12.38,12.38,0,0,1,75.09,211.73Zm-12.83-63A11.73,11.73,0,0,0,53,153.34c-4.63,5.64-6.12,15.39-4,26.09,3.37,17,15.31,31.3,26.09,31.3a11.42,11.42,0,0,0,9-4.45c4.66-5.67,6.15-15.61,4-26.58C84.74,162.94,72.92,148.77,62.25,148.77Zm12.83,61.57c-10.42,0-22.43-14.48-25.71-31h0c-2.1-10.59-.64-20.23,3.92-25.77a11.36,11.36,0,0,1,9-4.43c10.49,0,22.14,14,25.43,30.62,2.12,10.7.63,20.76-3.89,26.26A11.05,11.05,0,0,1,75.09,210.35ZM50.36,179.16c3.19,16.08,14.75,30.18,24.73,30.18A10.08,10.08,0,0,0,83,205.4c4.33-5.28,5.74-15,3.68-25.43-3.21-16.16-14.41-29.81-24.45-29.81a10.39,10.39,0,0,0-8.18,4.06c-4.37,5.32-5.75,14.64-3.71,24.94Z"/><path d="M74.23,206.39h0c-9.25,0-19.48-12.19-22.34-26.62h0c-1.8-9.11-.52-17.44,3.45-22.27a10.32,10.32,0,0,1,8.14-4c7.61,0,19.16,11.74,22.1,26.32,1.85,9.15.55,17.84-3.39,22.65A10.07,10.07,0,0,1,74.23,206.39ZM53.17,179.51c2.7,13.62,12.54,25.57,21.05,25.57h0a8.8,8.8,0,0,0,6.94-3.45c3.7-4.52,4.9-12.78,3.12-21.56-2.82-14-13.69-25.26-20.81-25.26a9,9,0,0,0-7.13,3.53c-3.72,4.53-4.91,12.45-3.18,21.18Z"/><path d="M121.83,182.1h-.12c-2.21-.07-4.23-2.63-4.61-5.81a6,6,0,0,1,1.17-4.75,2.79,2.79,0,0,1,2.27-1c2.22.08,4.24,2.64,4.61,5.81h0a6,6,0,0,1-1.18,4.76A2.86,2.86,0,0,1,121.83,182.1Zm-1.39-10.17a1.52,1.52,0,0,0-1.15.55,4.74,4.74,0,0,0-.82,3.65c.29,2.44,1.8,4.54,3.29,4.59a1.34,1.34,0,0,0,1.19-.53,4.74,4.74,0,0,0,.82-3.66h0c-.28-2.43-1.79-4.53-3.28-4.59Z"/><path d="M124,180c-2,0-3.8-2-4.15-4.86a6.81,6.81,0,0,1,.71-4.13.69.69,0,0,1,1.21.67,5.52,5.52,0,0,0-.54,3.29c.25,2,1.49,3.65,2.78,3.65h.13a.69.69,0,0,1,0,1.38Z"/><path d="M78.88,212.63A21.34,21.34,0,0,1,66,208.12a.69.69,0,0,1,.9-1.05c.07.06,7.15,6,16.53,3.62a43.35,43.35,0,0,0,10.12-4.45.69.69,0,0,1,.72,1.18A44.33,44.33,0,0,1,83.71,212,20,20,0,0,1,78.88,212.63Z"/><path d="M78.88,213.13a21.83,21.83,0,0,1-13.25-4.62,1.19,1.19,0,0,1,1.54-1.82,19.32,19.32,0,0,0,16.09,3.52,42.91,42.91,0,0,0,10-4.39,1.21,1.21,0,0,1,1.64.39,1.2,1.2,0,0,1-.39,1.64,44.61,44.61,0,0,1-10.66,4.67A20.64,20.64,0,0,1,78.88,213.13ZM66.41,207.4a.2.2,0,0,0-.13.34,20.74,20.74,0,0,0,12.6,4.38,19.64,19.64,0,0,0,4.71-.58A43.5,43.5,0,0,0,93.94,207a.22.22,0,0,0,.09-.28.2.2,0,0,0-.27-.06,44,44,0,0,1-10.26,4.51c-9.66,2.4-16.91-3.67-17-3.74A.17.17,0,0,0,66.41,207.4Z"/><path d="M48.76,164.63h-.08a.69.69,0,0,1-.6-.77c.05-.49,1.5-12,10.06-15.61,4.24-1.82,12.92-3.8,13.29-3.88a.69.69,0,0,1,.3,1.35c-.09,0-8.92,2-13,3.8-7.84,3.32-9.22,14.39-9.23,14.5A.69.69,0,0,1,48.76,164.63Z"/><path d="M48.76,165.13h-.15a1.19,1.19,0,0,1-1-1.32c.05-.49,1.45-12.24,10.36-16,4.18-1.79,12.44-3.7,13.37-3.91a1.19,1.19,0,1,1,.52,2.33c-.93.21-9.08,2.11-13,3.78-7.51,3.18-8.92,14-8.93,14.1A1.19,1.19,0,0,1,48.76,165.13Zm22.81-20.29h0c-.36.08-9,2.07-13.2,3.85-8.38,3.55-9.75,15.09-9.76,15.21a.19.19,0,0,0,0,.14.19.19,0,0,0,.13.07h0A.19.19,0,0,0,49,164c.06-.47,1.5-11.5,9.53-14.91,4-1.7,12.19-3.62,13.11-3.83a.22.22,0,0,0,.17-.23A.2.2,0,0,0,71.57,144.85Z"/></svg>