<?xml version="1.0" encoding="UTF-8" standalone="no"?>
<svg
   xmlns:dc="http://purl.org/dc/elements/1.1/"
   xmlns:cc="http://creativecommons.org/ns#"
   xmlns:rdf="http://www.w3.org/1999/02/22-rdf-syntax-ns#"
   xmlns:svg="http://www.w3.org/2000/svg"
   xmlns="http://www.w3.org/2000/svg"
   xmlns:sodipodi="http://sodipodi.sourceforge.net/DTD/sodipodi-0.dtd"
   xmlns:inkscape="http://www.inkscape.org/namespaces/inkscape"
   version="1.1"
   id="svg2"
   xml:space="preserve"
   width="97.813332"
   height="181.02667"
   viewBox="0 0 97.813332 181.02667"
   sodipodi:docname="Lampe_aus.eps"><metadata
     id="metadata8"><rdf:RDF><cc:Work
         rdf:about=""><dc:format>image/svg+xml</dc:format><dc:type
           rdf:resource="http://purl.org/dc/dcmitype/StillImage" /></cc:Work></rdf:RDF></metadata><defs
     id="defs6" /><sodipodi:namedview
     pagecolor="#ffffff"
     bordercolor="#666666"
     borderopacity="1"
     objecttolerance="10"
     gridtolerance="10"
     guidetolerance="10"
     inkscape:pageopacity="0"
     inkscape:pageshadow="2"
     inkscape:window-width="640"
     inkscape:window-height="480"
     id="namedview4" /><g
     id="g10"
     inkscape:groupmode="layer"
     inkscape:label="ink_ext_XXXXXX"
     transform="matrix(1.3333333,0,0,-1.3333333,0,181.02667)"><g
       id="g12"
       transform="scale(0.1)"><path
         d="m 696.461,1152.02 c 57.715,-120.79 54.25,-319.434 -53.258,-406.766 9.406,-41.625 -9.82,-68.402 -24.59,-96.617 -18.808,-85.895 -35.64,-240.184 -55.031,-251.035 -19.391,-10.805 -34.902,-12.043 -34.902,-12.043 6.683,-13.45 0,-30.899 -6.723,-38.95 29.535,-25.488 -8.047,-60.39 6.723,-87.25 -25.496,-20.539 6.683,-65.757 -32.219,-77.847 8.047,-12.082 12.086,-40.262 -4.043,-50.992 C 479.012,104.988 464.242,72.7695 444.109,47.2695 448.109,16.4219 415.934,5.64844 393.078,1.64844 354.176,-2.39844 321.957,0.289063 289.734,17.7305 264.242,67.4102 225.297,102.309 209.207,160.02 c 6.684,20.171 5.363,60.441 -12.086,73.851 -14.769,28.168 28.176,46.981 0,71.117 -10.726,17.492 13.078,22.813 -4.043,32.223 -4.91,44.594 3.137,39.602 3.137,52.598 -19.02,1.976 -29.004,8 -38.039,21.242 -18.645,76.816 -25.988,143.73 -46.988,231.726 -9.985,22.028 -31.9732,68.028 -21.4497,83.703 l 6.6797,6.727 c -81.8477,100.66 -126.1524,248.348 -73.8008,382.543 34.8984,100.71 130.1958,191.96 238.9418,225.54 174.507,56.35 362.418,-38.94 434.902,-189.27"
         style="fill:#151821;fill-opacity:1;fill-rule:nonzero;stroke:none"
         id="path14" /><path
         d="m 644.113,1212.43 c 75.246,-88.7 77.477,-232.016 77.477,-232.016 -1.32,-92.617 -38.531,-182.758 -102.973,-235.109 -161.097,0 -343.644,-10.766 -508.746,-2.68 -98.1835,116.832 -120.5858,264.645 -68.4804,386.585 46.9883,109.91 170.5044,209.42 303.3824,212.09 119.473,5.37 226.774,-43.35 299.34,-128.87"
         style="fill:#b2e6fa;fill-opacity:1;fill-rule:nonzero;stroke:none"
         id="path16" /><path
         d="m 248.121,1258.06 c -65.758,-80.53 -16.086,-210.72 -67.117,-299.337 -20.133,-20.133 -49.672,-5.364 -71.125,0 -6.723,123.477 18.773,252.347 138.242,299.337"
         style="fill:#ffffff;fill-opacity:1;fill-rule:nonzero;stroke:none"
         id="path18" /><path
         d="m 181.012,986.914 c -1.364,-26.855 -37.582,-18.812 -55.035,-16.09 -1.36,100.656 17.453,191.916 83.211,255.036 -25.497,-63.12 -10.727,-162.42 -28.176,-238.946"
         style="fill:#ffffff;fill-opacity:1;fill-rule:nonzero;stroke:none"
         id="path20" /><path
         d="m 401.293,740.688 c -11.883,-0.622 -24.344,0.285 -36.387,0.121 l -6.726,340.471 c 8.086,8.17 24.175,10.89 38.945,9.53 l 4.168,-350.122"
         style="fill:#849dbe;fill-opacity:1;fill-rule:nonzero;stroke:none"
         id="path22" /><path
         d="m 420.031,1101.87 25.574,-8.71 c 39.938,-114.48 65.473,-231.351 100.083,-348.144 -5.032,-1.442 -12.704,0.086 -19.387,0 -38.613,112.297 -56.848,231.273 -99.422,340.184 -6.727,2.19 -9.367,-2.31 -13.367,-5.69 7.715,-114.772 27.433,-219.436 28.465,-336.514 -3.301,-1.57 -11.676,-0.082 -18.399,-0.125 l -28.836,336.469 c -9.449,4.37 -20.258,9.86 -30.242,2.8 L 323.742,741.426 c -8.004,-2.68 -11.512,-1.895 -20.543,-1.649 13.446,109.407 49.34,326.443 33.496,336.353 C 288.594,1087.96 254.27,841.305 208.852,739.984 H 193.75 c 27.188,115.098 73.02,233.414 106.93,349.666 13.738,-15.71 64.109,36.27 100.66,0.91 l 18.691,11.31"
         style="fill:#f47216;fill-opacity:1;fill-rule:nonzero;stroke:none"
         id="path24" /><path
         d="m 628.004,726.5 c 4.043,-32.223 -17.449,-56.395 -28.176,-83.211 -1.363,-77.891 -26.238,-140.676 -35.644,-214.48 -17.45,-37.582 -74.422,-20.422 -109.325,-24.465 l -264.437,6.722 c 0,0 -12.461,2.891 -22.817,22.817 -10.394,19.926 -24.132,145.543 -41.417,208.91 -12.004,25 -23.43,51.195 -25.7,67.617 -2.2692,16.375 18.77,13.406 18.77,13.406 159.734,-13.406 339.605,10.727 508.746,2.684"
         style="fill:#d9f3fd;fill-opacity:1;fill-rule:nonzero;stroke:none"
         id="path26" /><path
         d="M 519.188,365.797 508.543,346.609 C 413.246,319.762 300.457,326.48 209.203,353.34 l -3.012,13.445 7.016,21.453 300.371,-3.711 5.61,-18.73"
         style="fill:#9bb5bd;fill-opacity:1;fill-rule:nonzero;stroke:none"
         id="path28" /><path
         d="m 512.563,323.801 c 16.089,-42.949 -40.387,-42.992 -64.442,-48.313 -73.801,-8.047 -157.051,-1.359 -225.492,18.774 -9.406,4.039 -9.406,28.218 0,32.218 91.254,-21.5 195.957,-22.82 289.934,-2.679"
         style="fill:#b8c9ce;fill-opacity:1;fill-rule:nonzero;stroke:none"
         id="path30" /><path
         d="m 503.164,268.77 c 10.727,-5.36 5.363,-18.809 0,-22.809 -85.891,-38.949 -204.043,-34.902 -289.934,-2.68 l 12.086,32.219 c 87.254,-14.77 191.957,-45.672 277.848,-6.73"
         style="fill:#9bb5bd;fill-opacity:1;fill-rule:nonzero;stroke:none"
         id="path32" /><path
         d="m 476.32,192.25 c -71.164,-24.168 -169.14,-29.531 -241.625,-4 l -9.406,22.77 c 85.934,-8.04 183.91,-29.489 267.121,6.73 12.086,-10.73 -6.683,-21.449 -16.09,-25.5"
         style="fill:#b8c9ce;fill-opacity:1;fill-rule:nonzero;stroke:none"
         id="path34" /><path
         d="m 476.32,143.93 c -67.121,-37.578 -158.414,-26.86 -230.898,-10.731 -12.047,6.68 -16.09,24.141 -22.813,32.223 28.176,1.316 57.711,-13.453 89.934,-12.09 56.395,0 116.789,-5.363 163.777,18.77 0,-6.68 14.77,-21.454 0,-28.172"
         style="fill:#9bb5bd;fill-opacity:1;fill-rule:nonzero;stroke:none"
         id="path36" /><path
         d="M 460.211,107.691 C 422.629,62.0586 336.738,72.7813 280.344,84.8711 c -13.41,6.7305 -29.539,12.0898 -32.223,29.5389 68.442,-6.719 143.649,-28.2186 212.09,-6.719"
         style="fill:#b8c9ce;fill-opacity:1;fill-rule:nonzero;stroke:none"
         id="path38" /><path
         d="m 432.02,59.3711 c 1.359,-45.6328 -52.356,-36.2695 -84.575,-41.6328 -29.539,0 -55.031,18.8125 -64.437,45.6719 45.668,-10.7696 100.703,-8.0899 149.012,-4.0391"
         style="fill:#40464c;fill-opacity:1;fill-rule:nonzero;stroke:none"
         id="path40" /></g></g></svg>
