<?xml version="1.0" encoding="UTF-8" standalone="no"?>
<svg
   xmlns:dc="http://purl.org/dc/elements/1.1/"
   xmlns:cc="http://creativecommons.org/ns#"
   xmlns:rdf="http://www.w3.org/1999/02/22-rdf-syntax-ns#"
   xmlns:svg="http://www.w3.org/2000/svg"
   xmlns="http://www.w3.org/2000/svg"
   xmlns:sodipodi="http://sodipodi.sourceforge.net/DTD/sodipodi-0.dtd"
   xmlns:inkscape="http://www.inkscape.org/namespaces/inkscape"
   version="1.1"
   id="svg2"
   xml:space="preserve"
   width="138.94667"
   height="197.70667"
   viewBox="0 0 138.94667 197.70667"
   sodipodi:docname="Lampe_an.eps"><metadata
     id="metadata8"><rdf:RDF><cc:Work
         rdf:about=""><dc:format>image/svg+xml</dc:format><dc:type
           rdf:resource="http://purl.org/dc/dcmitype/StillImage" /></cc:Work></rdf:RDF></metadata><defs
     id="defs6" /><sodipodi:namedview
     pagecolor="#ffffff"
     bordercolor="#666666"
     borderopacity="1"
     objecttolerance="10"
     gridtolerance="10"
     guidetolerance="10"
     inkscape:pageopacity="0"
     inkscape:pageshadow="2"
     inkscape:window-width="640"
     inkscape:window-height="480"
     id="namedview4" /><g
     id="g10"
     inkscape:groupmode="layer"
     inkscape:label="ink_ext_XXXXXX"
     transform="matrix(1.3333333,0,0,-1.3333333,0,197.70667)"><g
       id="g12"
       transform="scale(0.1)"><path
         d="M 521.031,1482.75 C 233.27,1482.75 0,1249.48 0,961.758 0,673.992 226.449,479.461 514.215,479.461 c 325.312,0 527.845,194.531 527.845,482.297 0,287.722 -233.267,520.992 -521.029,520.992"
         style="fill:#fffbb8;fill-opacity:1;fill-rule:nonzero;stroke:none"
         id="path14" /><path
         d="m 828.133,1094.71 c 54.652,-114.351 51.344,-302.382 -50.399,-385.093 8.868,-39.359 -9.336,-64.777 -23.324,-91.453 -17.769,-81.328 -33.73,-227.355 -52.094,-237.605 -18.359,-10.278 -33.019,-11.457 -33.019,-11.457 6.344,-12.731 0,-29.243 -6.383,-36.852 27.977,-24.148 -7.605,-57.168 6.383,-82.629 -24.152,-19.461 6.344,-62.25 -30.496,-73.68 7.605,-11.429 11.426,-38.101 -3.824,-48.312 C 622.25,103.52 608.301,73.0195 589.23,48.8594 593.055,19.6289 562.555,9.46094 540.922,5.64063 504.078,1.85938 473.582,4.37891 443.082,20.9297 c -24.152,47 -60.996,80.0313 -76.242,134.6793 6.344,19.071 5.082,57.172 -11.43,69.903 -13.988,26.668 26.676,44.476 0,67.34 -10.164,16.507 12.371,21.589 -3.82,30.5 -4.652,42.199 2.953,37.468 2.953,49.757 -18.008,1.942 -27.465,7.571 -35.977,20.141 -17.691,72.738 -24.625,136.059 -44.484,219.398 -9.496,20.805 -30.301,64.344 -20.332,79.239 l 6.344,6.343 c -77.508,95.321 -119.434,235.083 -69.903,362.16 33.063,95.32 123.293,181.73 226.215,213.49 165.18,53.39 343.086,-36.84 411.727,-179.17"
         style="fill:#151821;fill-opacity:1;fill-rule:nonzero;stroke:none"
         id="path16" /><path
         d="m 778.574,1151.89 c 71.242,-83.97 73.371,-219.671 73.371,-219.671 -1.3,-87.676 -36.527,-172.985 -97.523,-222.555 -152.492,0 -325.317,-10.164 -481.629,-2.559 -92.91,110.645 -114.113,250.567 -64.777,365.985 44.445,104.06 161.355,198.23 287.172,200.79 113.085,5.09 214.707,-41.02 283.386,-121.99"
         style="fill:#feed7e;fill-opacity:1;fill-rule:nonzero;stroke:none"
         id="path18" /><path
         d="M 763.32,691.871 C 767.141,661.375 746.809,638.52 736.641,613.105 735.383,539.383 711.816,479.922 702.914,410.059 686.363,374.441 632.422,390.711 599.398,386.891 l -250.367,6.339 c 0,0 -11.742,2.758 -21.593,21.641 -9.809,18.828 -22.817,137.789 -39.168,197.762 -11.348,23.64 -22.223,48.465 -24.348,63.988 -2.168,15.527 17.769,12.731 17.769,12.731 141.852,-3.114 321.493,10.164 481.629,2.519"
         style="fill:#fffbb2;fill-opacity:1;fill-rule:nonzero;stroke:none"
         id="path20" /><path
         d="M 660.309,350.398 650.223,332.27 c -90.235,-25.418 -196.977,-19.071 -283.387,6.339 l -2.84,12.731 6.66,20.289 284.336,-3.5 5.317,-17.731"
         style="fill:#9bb5bd;fill-opacity:1;fill-rule:nonzero;stroke:none"
         id="path22" /><path
         d="m 654.031,310.641 c 15.25,-40.661 -38.218,-40.7 -60.996,-45.743 -69.898,-7.648 -148.668,-1.257 -213.484,17.813 -8.906,3.777 -8.906,26.668 0,30.488 86.41,-20.328 185.551,-21.629 274.48,-2.558"
         style="fill:#b8c9ce;fill-opacity:1;fill-rule:nonzero;stroke:none"
         id="path24" /><path
         d="m 645.141,258.551 c 10.164,-5.082 5.082,-17.813 0,-21.59 -81.328,-36.852 -193.157,-33.063 -274.485,-2.563 l 11.426,30.493 c 82.59,-13.981 181.731,-43.18 263.059,-6.34"
         style="fill:#9bb5bd;fill-opacity:1;fill-rule:nonzero;stroke:none"
         id="path26" /><path
         d="m 619.73,186.109 c -67.343,-22.89 -160.136,-27.98 -228.738,-3.82 l -8.906,21.59 c 81.328,-7.598 174.086,-27.938 252.891,6.383 11.429,-10.16 -6.344,-20.332 -15.247,-24.153"
         style="fill:#b8c9ce;fill-opacity:1;fill-rule:nonzero;stroke:none"
         id="path28" /><path
         d="m 619.73,140.359 c -63.558,-35.578 -149.972,-25.418 -218.574,-10.168 -11.426,6.348 -15.246,22.899 -21.59,30.5 26.676,1.258 54.614,-12.691 85.11,-11.429 53.39,0 110.566,-5.082 155.054,17.769 0,-6.34 13.989,-20.332 0,-26.672"
         style="fill:#9bb5bd;fill-opacity:1;fill-rule:nonzero;stroke:none"
         id="path30" /><path
         d="M 604.477,106.051 C 568.895,62.8594 487.566,72.9883 434.176,84.4609 c -12.692,6.3399 -27.938,11.418 -30.5,27.9301 64.816,-6.34 135.98,-26.6722 200.801,-6.34"
         style="fill:#b8c9ce;fill-opacity:1;fill-rule:nonzero;stroke:none"
         id="path32" /><path
         d="m 577.789,60.3008 c 1.262,-43.1914 -49.57,-34.3203 -80.07,-39.4024 -27.938,0 -52.09,17.8125 -60.996,43.2227 43.226,-10.1719 95.316,-7.6406 141.066,-3.8203"
         style="fill:#40464c;fill-opacity:1;fill-rule:nonzero;stroke:none"
         id="path34" /><path
         d="m 841.16,1100.34 c 55.125,-115.379 51.817,-305.106 -50.871,-388.524 8.984,-39.757 -9.379,-65.328 -23.484,-92.281 -17.965,-82.039 -34.043,-229.406 -52.563,-239.773 -18.519,-10.321 -33.336,-11.5 -33.336,-11.5 6.383,-12.852 0,-29.512 -6.422,-37.203 28.211,-24.348 -7.683,-57.68 6.422,-83.34 -24.351,-19.617 6.383,-62.809 -30.773,-74.348 C 657.816,161.82 661.68,134.91 646.27,124.672 633.465,100.281 619.359,69.5 600.129,45.1484 603.949,15.6797 573.219,5.39063 551.387,1.57031 514.23,-2.28906 483.457,0.269531 452.684,16.9414 428.328,64.3789 391.133,97.7188 375.766,152.84 c 6.382,19.269 5.125,57.73 -11.543,70.531 -14.11,26.91 26.91,44.879 0,67.93 -10.246,16.711 12.488,21.789 -3.864,30.777 -4.687,42.594 2.996,37.832 2.996,50.242 -18.167,1.891 -27.703,7.641 -36.332,20.289 -17.808,73.371 -24.824,137.282 -44.878,221.329 -9.536,21.042 -30.54,64.98 -20.493,79.953 l 6.383,6.422 c -78.176,96.144 -120.492,237.207 -70.488,365.387 33.332,96.18 124.355,183.34 228.223,215.42 166.675,53.82 346.16,-37.2 415.39,-180.78"
         style="fill:#151821;fill-opacity:1;fill-rule:nonzero;stroke:none"
         id="path36" /><path
         d="m 791.16,1158.04 c 71.871,-84.72 74,-221.61 74,-221.61 -1.262,-88.461 -36.801,-174.559 -98.351,-224.563 -153.868,0 -328.231,-10.281 -485.922,-2.558 -93.782,111.589 -115.176,252.769 -65.41,369.241 44.882,104.98 162.855,200.02 289.773,202.58 114.113,5.12 216.602,-41.41 285.91,-123.09"
         style="fill:#b2e6fa;fill-opacity:1;fill-rule:nonzero;stroke:none"
         id="path38" /><path
         d="m 412.938,1201.62 c -62.809,-76.92 -15.372,-201.27 -64.114,-285.909 -19.226,-19.231 -47.437,-5.121 -67.929,0 -6.422,117.929 17.929,241.029 132.043,285.909"
         style="fill:#ffffff;fill-opacity:1;fill-rule:nonzero;stroke:none"
         id="path40" /><path
         d="m 348.836,942.641 c -1.301,-25.653 -35.898,-17.969 -52.566,-15.371 -1.301,96.15 16.668,183.3 79.476,243.59 -24.351,-60.29 -10.242,-155.13 -26.91,-228.219"
         style="fill:#ffffff;fill-opacity:1;fill-rule:nonzero;stroke:none"
         id="path42" /><path
         d="m 559.234,707.457 c -11.351,-0.594 -23.25,0.273 -34.754,0.117 l -6.425,325.196 c 7.722,7.8 23.09,10.4 37.199,9.11 l 3.98,-334.423"
         style="fill:#849dbe;fill-opacity:1;fill-rule:nonzero;stroke:none"
         id="path44" /><path
         d="m 577.129,1052.43 24.43,-8.31 c 38.144,-109.347 62.535,-220.975 95.593,-332.526 -4.808,-1.379 -12.136,0.078 -18.519,0 -36.883,107.254 -54.297,220.894 -94.961,324.916 -6.426,2.09 -8.945,-2.2 -12.77,-5.44 7.371,-109.613 26.203,-209.582 27.192,-321.406 -3.153,-1.5 -11.153,-0.082 -17.574,-0.121 l -27.543,321.377 c -9.024,4.17 -19.348,9.42 -28.883,2.68 L 485.16,708.164 c -7.64,-2.559 -10.992,-1.812 -19.621,-1.574 12.848,104.496 47.129,311.8 31.996,321.25 -45.945,11.31 -78.726,-224.277 -122.109,-321.055 h -14.422 c 25.965,109.938 69.742,222.945 102.133,333.985 13.121,-15.01 61.23,34.63 96.144,0.87 l 17.848,10.79"
         style="fill:#f47216;fill-opacity:1;fill-rule:nonzero;stroke:none"
         id="path46" /><path
         d="m 775.773,693.906 c 3.864,-30.773 -16.668,-53.867 -26.914,-79.48 C 747.563,540.035 723.801,480.059 714.816,409.57 698.148,373.672 643.734,390.059 610.398,386.199 l -252.578,6.43 c 0,0 -11.898,2.75 -21.789,21.793 -9.929,19.027 -23.051,139.012 -39.558,199.531 -11.469,23.883 -22.383,48.902 -24.551,64.582 -2.168,15.645 17.93,12.809 17.93,12.809 152.57,-12.809 324.367,10.246 485.921,2.562"
         style="fill:#d9f3fd;fill-opacity:1;fill-rule:nonzero;stroke:none"
         id="path48" /><path
         d="M 671.84,349.391 661.676,331.059 C 570.652,305.41 462.922,311.828 375.762,337.488 l -2.875,12.844 6.699,20.488 286.894,-3.55 5.36,-17.879"
         style="fill:#9bb5bd;fill-opacity:1;fill-rule:nonzero;stroke:none"
         id="path50" /><path
         d="m 665.512,309.27 c 15.367,-41.02 -38.574,-41.059 -61.547,-46.141 -70.492,-7.688 -150.012,-1.301 -215.379,17.93 -8.984,3.863 -8.984,26.953 0,30.769 87.16,-20.527 187.164,-21.789 276.926,-2.558"
         style="fill:#b8c9ce;fill-opacity:1;fill-rule:nonzero;stroke:none"
         id="path52" /><path
         d="m 656.535,256.711 c 10.246,-5.121 5.121,-17.973 0,-21.789 -82.039,-37.192 -194.89,-33.332 -276.926,-2.563 l 11.543,30.782 c 83.34,-14.11 183.344,-43.621 265.383,-6.43"
         style="fill:#9bb5bd;fill-opacity:1;fill-rule:nonzero;stroke:none"
         id="path54" /><path
         d="m 630.895,183.629 c -67.969,-23.09 -161.551,-28.207 -230.786,-3.82 l -8.984,21.75 c 82.078,-7.688 175.66,-28.18 255.137,6.421 11.547,-10.25 -6.383,-20.492 -15.367,-24.351"
         style="fill:#b8c9ce;fill-opacity:1;fill-rule:nonzero;stroke:none"
         id="path56" /><path
         d="m 630.895,137.469 c -64.11,-35.899 -151.309,-25.649 -220.54,-10.25 -11.507,6.39 -15.367,23.062 -21.789,30.781 26.911,1.262 55.125,-12.852 85.899,-11.551 53.863,0 111.551,-5.117 156.43,17.93 0,-6.379 14.109,-20.488 0,-26.91"
         style="fill:#9bb5bd;fill-opacity:1;fill-rule:nonzero;stroke:none"
         id="path58" /><path
         d="M 615.508,102.852 C 579.613,59.2695 497.574,69.5195 443.711,81.0586 c -12.809,6.4297 -28.215,11.5508 -30.777,28.2224 65.371,-6.429 137.203,-26.9607 202.574,-6.429"
         style="fill:#b8c9ce;fill-opacity:1;fill-rule:nonzero;stroke:none"
         id="path60" /><path
         d="m 588.582,56.6992 c 1.301,-43.5781 -50.004,-34.6406 -80.777,-39.7578 -28.215,0 -52.567,17.9688 -61.551,43.6172 43.621,-10.2773 96.184,-7.7188 142.328,-3.8594"
         style="fill:#40464c;fill-opacity:1;fill-rule:nonzero;stroke:none"
         id="path62" /></g></g></svg>
