<?xml version="1.0" encoding="UTF-8"?>
<svg id="Ebene_1" xmlns="http://www.w3.org/2000/svg" viewBox="0 0 792.91 325.99">
    <defs>
        <style>.cls-1{fill:#fdc300;}.cls-1,.cls-2,.cls-3,.cls-4,.cls-5{stroke-width:0px;}.cls-3{fill:#39378b;}.cls-4{fill:#33b8ca;}.cls-5{fill:#88bce2;}</style>
    </defs>
    <polygon class="cls-4" points="155.9 19.63 136.27 0 19.4 0 0 19.63 0 136.5 19.4 155.9 136.27 155.9 155.9 136.5 155.9 19.63"/>
    <polygon class="cls-1" points="0 170.09 0 325.99 155.9 325.99 155.9 248.16 136.27 248.16 136.27 209.12 116.87 209.12 116.87 170.09 0 170.09"/>
    <polygon class="cls-5" points="286.95 170.09 267.55 189.72 228.51 170.09 170.08 170.09 170.08 325.99 209.11 325.99 228.51 306.59 267.55 325.99 325.98 325.99 325.98 170.09 286.95 170.09"/>
    <polygon class="cls-3" points="325.98 97.48 325.98 19.64 306.35 0 170.08 0 170.08 155.91 306.35 155.91 306.35 116.88 325.98 97.48"/>
    <path class="cls-2" d="m768.51,129.11h-22.3l11.3-30.5,11,30.5Zm24.4,26.8l-25.5-66.7h-19.4l-25.4,66.7h14.6l6-16.7h28.4l5.9,16.7h15.4Zm-62.29-54.9v-11.8h-56.7v11.8h20.9v54.9h14.9v-54.9h20.9Zm-76.3,7.4c0,7.9-7.1,10-13.9,10h-6.7v-19.3h7.1c7.2,0,13.5,1.5,13.5,9.3m18.7,47.5l-8.6-22.9c-2.1-5.6-4.6-8.7-10.6-9.9,8.6-1.5,15.4-7,15.4-16.2,0-13.3-11.3-17.7-22.7-17.7h-27.2v66.7h14.5v-27.6h5.4c7.3,0,8.8,2,11.1,8.5l6.9,19.1h15.8Zm-65.1,0v-10.2h-29.9v-18.7h27.7v-10.1h-27.7v-17.5h29v-10.2h-43.5v66.7h44.4Zm-71.1-19.4c0,8.3-7.9,10.3-14.7,10.3h-7v-20.9h6.4c7.3,0,15.3,1.6,15.3,10.6m-1.4-29c0,7.8-6.6,9.9-13.2,9.9h-7.1v-19.1h8.3c6,0,12,2.2,12,9.2m16.4,29.6c0-9-6.4-14.4-14.8-15.8,8.1-1.8,13.1-7.1,13.1-15.6,0-12.8-11.1-16.5-22-16.5h-27.2v66.7h24.4c13.1,0,26.5-3,26.5-18.8m-75.7-14.5c0,11.1-4,24.1-17.3,24.1s-17.2-13.3-17.2-24.1,4.2-24.1,17.2-24.1,17.3,13,17.3,24.1m15.5,0c0-20.8-11.5-34.4-32.8-34.4s-32.7,14.1-32.7,34.4,11.3,34.4,32.7,34.4,32.8-13.9,32.8-34.4m-88.1-14.2c0,7.9-7.1,10-13.9,10h-6.7v-19.3h7.1c7.2,0,13.5,1.5,13.5,9.3m18.7,47.5l-8.6-22.9c-2.1-5.6-4.6-8.7-10.6-9.9,8.6-1.5,15.4-7,15.4-16.2,0-13.3-11.3-17.7-22.7-17.7h-27.2v66.7h14.5v-27.6h5.4c7.3,0,8.8,2,11.1,8.5l6.9,19.1h15.8Z"/>
    <path class="cls-2" d="m582.22,72.91V6.21h-5.8v59.6l-34.2-59.6h-8.2v66.7h5.8V13.31l34.2,59.6h8.2Zm-61.8,0v-5.4h-27v-26.3h24.5v-5.2h-24.5V11.61h25.9v-5.4h-31.9v66.7h33Zm-51.1-48c0,12.2-9.2,13.5-19.1,13.5h-5V11.61h10.3c8.4,0,13.8,4.8,13.8,13.3m6.3-.1c0-12.4-9.2-18.6-21-18.6h-15.4v66.7h6v-29.1h8.8c10.8,0,21.6-5.7,21.6-19m-56.9,14.8c0,14.2-6.7,28.8-22.9,28.8s-22.9-14.8-22.9-28.8,6.9-28.8,22.9-28.8,22.9,14.6,22.9,28.8m6.3,0c0-18.4-8.9-34.4-29.2-34.4s-29.2,16.5-29.2,34.4,8.8,34.4,29.2,34.4,29.2-16.4,29.2-34.4"/>
    <path class="cls-2" d="m368.53,172h6.59v60.96h26.76v5.73h-33.35v-66.7Z"/>
    <path class="cls-2" d="m434.27,172h7.45l26.47,66.7h-6.88l-7.17-17.87h-33.5l-7.11,17.87h-6.59l27.33-66.7Zm-11.16,43.09h28.84l-14.43-36.79-14.41,36.79Z"/>
    <path class="cls-2" d="m477.07,172h15.86c5.67-.06,10.57,1.05,14.72,3.34,4.14,2.42,6.27,6.78,6.4,13.09,0,8.47-4.05,13.54-12.14,15.19v.19c4.27.76,7.68,2.48,10.22,5.16,2.55,2.68,3.85,6.24,3.92,10.7-.13,7.13-2.68,12.1-7.64,14.91-2.29,1.4-5,2.45-8.12,3.15-3.06.64-6.37.96-9.94.96h-13.28v-66.7Zm6.59,60.96h6.88c2.29,0,4.55-.22,6.78-.67,2.23-.38,4.27-1.02,6.12-1.91,1.85-.96,3.31-2.29,4.4-4.01,1.08-1.72,1.62-3.85,1.62-6.4,0-2.99-.54-5.38-1.62-7.17-1.15-1.78-2.68-3.09-4.59-3.92-1.91-.89-4.05-1.46-6.4-1.72-2.42-.19-4.87-.29-7.36-.29h-5.83v26.09Zm.19-31.82h7.36c1.85,0,3.73-.19,5.64-.57,1.85-.32,3.57-.89,5.16-1.72,1.66-.96,2.96-2.23,3.92-3.82,1.02-1.66,1.53-3.76,1.53-6.31s-.45-4.46-1.34-5.92c-1.02-1.4-2.26-2.48-3.73-3.25-1.47-.76-3.03-1.27-4.68-1.53-1.72-.19-3.31-.29-4.78-.29h-9.08v23.41Z"/>
</svg>