<?xml version="1.0" encoding="utf-8"?>
<!-- Generator: Adobe Illustrator 16.0.3, SVG Export Plug-In . SVG Version: 6.00 Build 0)  -->
<!DOCTYPE svg PUBLIC "-//W3C//DTD SVG 1.1//EN" "http://www.w3.org/Graphics/SVG/1.1/DTD/svg11.dtd">
<svg version="1.1" id="Ebene_1" xmlns="http://www.w3.org/2000/svg" xmlns:xlink="http://www.w3.org/1999/xlink" x="0px" y="0px"
	 width="243.521px" height="73.198px" viewBox="0 0 243.521 73.198" style="enable-background:new 0 0 243.521 73.198;"
	 xml:space="preserve">
<style type="text/css">
<![CDATA[
	.st0{fill:#8FA402;}
	.st1{fill:#F29400;}
	.st2{fill:none;}
	.st3{fill:#33B8CA;}
	.st4{fill:#006E92;}
]]>
</style>
<g>
	<path class="st4" d="M63.562,15.949v-5c0-0.717-0.58-1.306-1.303-1.306H10.927c-0.723,0-1.309,0.589-1.309,1.306v51.339
		c0,0.721,0.586,1.303,1.309,1.303h51.333c0.723,0,1.303-0.582,1.303-1.303V25.463l3.609,0.252l1.141-2.535
		C69.716,18.246,68.47,15.682,63.562,15.949z M54.718,56.327H41.673L27.894,29.386h-0.111l0.336,26.941H18.46V16.904h13.385
		l13.33,26.772h0.113l-0.168-26.772h9.598V56.327z"/>
	<path class="st3" d="M120.345,47.785V10.949c0-0.723-0.582-1.302-1.303-1.302H67.705c-0.717,0-1.307,0.58-1.307,1.302v3.289
		c4.42,0.723,5.402,4.152,3.758,9.928l-1.586,3.525l-2.172-0.152v34.743c0,0.723,0.59,1.309,1.307,1.309h51.338
		c0.721,0,1.303-0.586,1.303-1.309v-4.983l3.609,0.252l1.141-2.535C126.5,50.083,125.253,47.519,120.345,47.785z M107.576,56.33
		H79.167V16.908h27.787v7.455H89.671v8.135h16.324v7.453H89.671v8.924h17.904V56.33z"/>
	<g>
		<path class="st0" d="M175.82,63.58c0.723,0,1.303-0.582,1.303-1.303V25.452l3.608,0.252l1.141-2.535
			c1.404-4.933,0.158-7.497-4.749-7.23v-4.999c0-0.717-0.58-1.307-1.303-1.307h-51.334c-0.723,0-1.309,0.59-1.309,1.307v35.153
			c4.441,0.715,5.43,4.148,3.783,9.939l-1.588,3.527l-2.195-0.152v2.87c0,0.721,0.586,1.303,1.309,1.303H175.82z M161.136,39.166
			c-2.75,2.242-6.596,3.367-11.527,3.367h-4.064v13.784h-10.504V16.895h12.539c6.057,0,10.521,1.043,13.381,3.127
			c2.863,2.096,4.299,5.357,4.299,9.801C165.259,33.813,163.878,36.934,161.136,39.166z"/>
		<path class="st0" d="M153.103,25.469c-0.582-0.404-1.27-0.693-2.059-0.867c-0.787-0.174-1.641-0.256-2.543-0.256h-2.709v10.736
			h2.709c0.902,0,1.756-0.092,2.543-0.27c0.789-0.156,1.477-0.457,2.059-0.893c0.592-0.432,1.049-0.994,1.389-1.693
			c0.332-0.699,0.504-1.555,0.504-2.561c0-1.029-0.172-1.873-0.504-2.557C154.152,26.434,153.695,25.893,153.103,25.469z"/>
	</g>
	<path class="st1" d="M213.542,28.046c-0.693-1.115-1.586-1.992-2.674-2.652c-1.098-0.648-2.408-0.98-3.934-0.98
		c-1.523,0-2.844,0.332-3.932,0.98c-1.098,0.66-1.98,1.537-2.676,2.652s-1.201,2.402-1.527,3.877
		c-0.334,1.479-0.49,3.029-0.49,4.672c0,1.559,0.156,3.076,0.49,4.557c0.326,1.471,0.832,2.78,1.527,3.901
		c0.695,1.132,1.578,2.03,2.676,2.704c1.088,0.678,2.408,1.012,3.932,1.012c1.525,0,2.836-0.334,3.934-1.012
		c1.088-0.674,1.98-1.572,2.674-2.704c0.684-1.121,1.203-2.431,1.526-3.901c0.326-1.48,0.494-2.998,0.494-4.557
		c0-1.643-0.168-3.193-0.494-4.672C214.745,30.448,214.225,29.161,213.542,28.046z"/>
	<path class="st1" d="M233.904,15.921v-5c0-0.721-0.586-1.303-1.309-1.303h-51.331c-0.723,0-1.303,0.582-1.303,1.303v3.32
		c4.423,0.723,5.406,4.155,3.762,9.937l-1.589,3.527l-2.173-0.15v34.704c0,0.717,0.58,1.307,1.303,1.307h36.829l-0.252,3.605
		l2.535,1.142c4.933,1.403,7.496,0.158,7.23-4.747h4.988c0.723,0,1.309-0.59,1.309-1.307V25.435l3.609,0.252l1.141-2.535
		C240.058,18.218,238.812,15.653,233.904,15.921z M215.148,54.937c-2.376,0.916-5.124,1.367-8.214,1.367
		c-3.133,0-5.879-0.451-8.25-1.367c-2.361-0.902-4.363-2.223-5.977-3.936c-1.621-1.689-2.842-3.781-3.66-6.22
		c-0.814-2.442-1.229-5.169-1.229-8.187c0-3.063,0.414-5.811,1.229-8.252c0.818-2.441,2.027-4.502,3.637-6.197
		c1.594-1.691,3.584-2.992,5.977-3.9c2.385-0.922,5.141-1.363,8.273-1.363c3.137,0,5.891,0.441,8.269,1.363
		c2.385,0.908,4.379,2.209,5.986,3.9c1.594,1.695,2.811,3.756,3.637,6.197c0.813,2.441,1.225,5.189,1.225,8.252
		c0,3.018-0.412,5.744-1.225,8.187c-0.826,2.438-2.053,4.53-3.664,6.22C219.537,52.714,217.537,54.034,215.148,54.937z"/>
</g>
<rect class="st2" width="243.521" height="73.198"/>
<g>
</g>
<g>
</g>
<g>
</g>
<g>
</g>
<g>
</g>
<g>
</g>
</svg>
