<?xml version="1.0" encoding="utf-8"?>
<!-- Generator: Adobe Illustrator 21.0.0, SVG Export Plug-In . SVG Version: 6.00 Build 0)  -->
<svg version="1.1" id="Ebene_1" xmlns="http://www.w3.org/2000/svg" xmlns:xlink="http://www.w3.org/1999/xlink" x="0px" y="0px"
	 viewBox="0 0 300 126" style="enable-background:new 0 0 300 126;" xml:space="preserve">
<style type="text/css">
	.st0{fill:#F39100;}
	.st1{fill:#24B8CD;}
	.st2{fill:#006D94;}
	.st3{fill:#8DA502;}
</style>
<g>
	<g>
		<path d="M139.2,16.5c0-3.7,0.9-6.8,2.8-9.4c1.9-2.6,4.8-4,8.7-4.1c3.9,0.1,6.9,1.4,8.8,4.1c1.9,2.6,2.8,5.8,2.7,9.4
			c0,4.1-1,7.3-2.9,9.7c-1.9,2.5-4.8,3.7-8.6,3.8c-3.7-0.1-6.6-1.3-8.5-3.8C140.2,23.8,139.2,20.6,139.2,16.5z M150.7,5.2
			c-3,0.1-5.3,1.2-6.7,3.5c-1.4,2.3-2.2,4.9-2.2,7.7c0,2.9,0.7,5.5,2.2,7.7c1.4,2.3,3.7,3.5,6.7,3.6c3.1,0,5.3-1.2,6.8-3.6
			c1.4-2.2,2.1-4.8,2.1-7.7c0-2.9-0.7-5.5-2.1-7.7C156,6.5,153.7,5.3,150.7,5.2z"/>
		<path d="M167.4,3.4h6.4c5.3,0,8,2.5,8.1,7.4c0,2.4-0.8,4.3-2.4,5.5c-1.5,1.3-3.5,1.9-5.9,1.9H170v11.3h-2.6V3.4z M170,16h1.8
			c1,0,1.9-0.1,2.8-0.2c0.9-0.1,1.7-0.3,2.4-0.6c0.7-0.3,1.3-0.9,1.7-1.6c0.4-0.7,0.6-1.6,0.6-2.8c-0.1-3.4-1.8-5.1-5.2-5.2H170V16z
			"/>
		<path d="M186.1,3.4h12.8v2.2h-10.2V15h9.7v2.2h-9.7v10.1h10.7v2.2h-13.2V3.4z"/>
		<path d="M204.5,3.4h3.3l13.3,23h0.1v-23h2.6v26.1h-3.5L207.1,7H207v22.5h-2.6V3.4z"/>
	</g>
	<g>
		<path d="M139.7,34.5h5.6c1.4,0,2.9,0,4.3,0c1.4,0.1,2.8,0.3,4,0.7c1.2,0.4,2.2,1.1,2.9,2.1c0.7,1,1.1,2.4,1.1,4.2
			c0,1.5-0.5,2.9-1.4,4c-0.9,1.1-2.3,1.8-4,2.1v0.1c0.7,0.1,1.3,0.4,1.7,0.9s0.8,1.1,1,1.8l4.2,10.2h-5.8l-3.1-8.2
			c-0.3-1-0.7-1.7-1.2-2.1c-0.5-0.4-1.3-0.6-2.4-0.6H145v10.9h-5.2V34.5z M145,45.6h1.7c0.7,0,1.3,0,2-0.1c0.6-0.1,1.2-0.2,1.8-0.5
			c0.5-0.2,1-0.6,1.3-1.1c0.3-0.5,0.4-1.1,0.4-1.9c0-0.8-0.1-1.4-0.4-1.9c-0.3-0.4-0.8-0.8-1.3-1c-0.5-0.2-1.1-0.4-1.8-0.4
			c-0.7,0-1.3,0-2,0H145V45.6z"/>
		<path d="M161,47.5c0-4.1,1.1-7.3,3.3-9.7c2.2-2.4,5.3-3.7,9.5-3.7c4.1,0.1,7.3,1.3,9.5,3.7c2.2,2.4,3.3,5.6,3.3,9.7
			c0,4-1.1,7.3-3.3,9.7c-2.2,2.5-5.4,3.8-9.5,3.9c-4.2-0.1-7.4-1.3-9.5-3.8C162.1,54.8,161,51.5,161,47.5z M166.5,47.5
			c0,2.4,0.5,4.6,1.7,6.5c1.1,1.9,3,2.9,5.6,3c1.3,0,2.5-0.3,3.4-0.8c0.9-0.5,1.7-1.3,2.2-2.2c1.1-1.9,1.6-4,1.6-6.5
			c0-2.4-0.6-4.6-1.7-6.4c-1.2-1.9-3.1-2.9-5.6-2.9c-2.6,0.1-4.4,1-5.6,2.9C167.1,42.9,166.5,45,166.5,47.5z"/>
		<path d="M190.7,34.5h9.1c0.9,0,1.8,0.1,2.8,0.2c0.9,0.2,1.8,0.5,2.7,1c0.9,0.5,1.6,1.1,2.1,2c0.5,0.9,0.8,2.1,0.8,3.5
			c0,1.5-0.5,2.8-1.4,3.9c-0.9,1-2.2,1.7-3.8,2v0.1c1.8,0.2,3.3,0.8,4.3,1.9c1.1,1.1,1.6,2.4,1.6,4.1c0,1.6-0.3,2.9-0.9,3.9
			c-0.6,1-1.4,1.8-2.4,2.3c-0.9,0.5-1.9,0.9-3,1c-1.1,0.2-2,0.3-2.9,0.3h-9.1V34.5z M195.9,45h2.1c1.2,0,2.3-0.2,3.3-0.6
			c0.5-0.2,0.9-0.5,1.2-1c0.3-0.4,0.4-0.9,0.4-1.6c0-0.8-0.1-1.4-0.4-1.8c-0.3-0.4-0.7-0.8-1.2-1c-0.5-0.2-1-0.4-1.6-0.4
			c-0.6,0-1.2,0-1.8,0h-2V45z M195.9,56.5h2.5c0.6,0,1.3,0,1.9-0.1c0.6-0.1,1.2-0.3,1.7-0.6c1.1-0.5,1.7-1.5,1.8-2.9
			c0-0.8-0.1-1.5-0.4-2.1c-0.3-0.5-0.7-0.9-1.2-1.2c-0.5-0.3-1.1-0.5-1.7-0.6c-0.6,0-1.3-0.1-2-0.1h-2.5V56.5z"/>
		<path d="M213.6,34.5H229v4.1h-10.2V45h9.3v4.1h-9.3v7.3H229v4.1h-15.5V34.5z"/>
		<path d="M233.9,34.5h5.6c1.4,0,2.9,0,4.3,0c1.4,0.1,2.8,0.3,4,0.7c1.2,0.4,2.2,1.1,2.9,2.1c0.7,1,1.1,2.4,1.1,4.2
			c0,1.5-0.5,2.9-1.4,4c-0.9,1.1-2.3,1.8-4,2.1v0.1c0.7,0.1,1.3,0.4,1.7,0.9s0.8,1.1,1,1.8l4.2,10.2h-5.8l-3.1-8.2
			c-0.3-1-0.7-1.7-1.2-2.1c-0.5-0.4-1.3-0.6-2.4-0.6h-1.7v10.9h-5.2V34.5z M239.1,45.6h1.7c0.7,0,1.3,0,2-0.1
			c0.6-0.1,1.2-0.2,1.8-0.5c0.5-0.2,1-0.6,1.3-1.1c0.3-0.5,0.4-1.1,0.4-1.9c0-0.8-0.1-1.4-0.4-1.9c-0.3-0.4-0.8-0.8-1.3-1
			c-0.5-0.2-1.1-0.4-1.8-0.4c-0.7,0-1.3,0-2,0h-1.7V45.6z"/>
		<path d="M261.2,38.6h-7.5v-4.1h20.2v4.1h-7.5v22h-5.2V38.6z"/>
		<path d="M281.5,34.5h5.9l10.3,26.1h-5.8l-2.2-6H279l-2.3,6h-5.4L281.5,34.5z M284.4,39.7L284.4,39.7l-3.9,10.8h7.6L284.4,39.7z"/>
	</g>
	<polygon class="st0" points="60.3,9.6 53,2.3 9.3,2.3 2,9.6 2,53.3 9.3,60.6 53,60.6 60.3,53.3 	"/>
	<polygon class="st1" points="2,124.2 60.3,124.2 60.3,95.1 53,95.1 53,80.5 45.7,80.5 45.7,65.9 2,65.9 	"/>
	<polygon class="st2" points="124,65.9 109.4,65.9 102.1,73.3 87.5,65.9 65.6,65.9 65.6,124.2 80.2,124.2 87.5,117 102.1,124.2 
		124,124.2 	"/>
	<polygon class="st3" points="124,38.7 124,9.6 116.6,2.3 65.6,2.3 65.6,60.6 116.6,60.6 116.6,46 	"/>
</g>
</svg>
