<?xml version="1.0" encoding="utf-8"?>
<!-- Generator: Adobe Illustrator 24.0.2, SVG Export Plug-In . SVG Version: 6.00 Build 0)  -->
<svg version="1.1" id="Ebene_1" xmlns="http://www.w3.org/2000/svg" xmlns:xlink="http://www.w3.org/1999/xlink" x="0px" y="0px"
	 viewBox="0 0 793.7 326" style="enable-background:new 0 0 793.7 326;" xml:space="preserve">
<style type="text/css">
	.st0{fill:#F29400;}
	.st1{fill:#33B8CA;}
	.st2{fill:#006E92;}
	.st3{fill:#8FA402;}
</style>
<g>
	<path d="M768.5,129.1h-22.3l11.3-30.5L768.5,129.1z M792.9,155.9l-25.5-66.7H748l-25.4,66.7h14.6l6-16.7h28.4l5.9,16.7H792.9z
		 M730.6,101V89.2h-56.7V101h20.9v54.9h14.9V101H730.6z M654.3,108.4c0,7.9-7.1,10-13.9,10h-6.7V99.1h7.1
		C648,99.1,654.3,100.6,654.3,108.4 M673,155.9l-8.6-22.9c-2.1-5.6-4.6-8.7-10.6-9.9c8.6-1.5,15.4-7,15.4-16.2
		c0-13.3-11.3-17.7-22.7-17.7h-27.2v66.7h14.5v-27.6h5.4c7.3,0,8.8,2,11.1,8.5l6.9,19.1H673z M607.9,155.9v-10.2H578V127h27.7v-10.1
		H578V99.4h29V89.2h-43.5v66.7H607.9z M536.8,136.5c0,8.3-7.9,10.3-14.7,10.3h-7v-20.9h6.4C528.8,125.9,536.8,127.5,536.8,136.5
		 M535.4,107.5c0,7.8-6.6,9.9-13.2,9.9h-7.1V98.3h8.3C529.4,98.3,535.4,100.5,535.4,107.5 M551.8,137.1c0-9-6.4-14.4-14.8-15.8
		c8.1-1.8,13.1-7.1,13.1-15.6c0-12.8-11.1-16.5-22-16.5h-27.2v66.7h24.4C538.4,155.9,551.8,152.9,551.8,137.1 M476.1,122.6
		c0,11.1-4,24.1-17.3,24.1c-12.9,0-17.2-13.3-17.2-24.1s4.2-24.1,17.2-24.1C472.1,98.5,476.1,111.5,476.1,122.6 M491.6,122.6
		c0-20.8-11.5-34.4-32.8-34.4c-20.9,0-32.7,14.1-32.7,34.4c0,20.8,11.3,34.4,32.7,34.4C479.8,157,491.6,143.1,491.6,122.6
		 M403.5,108.4c0,7.9-7.1,10-13.9,10h-6.7V99.1h7.1C397.2,99.1,403.5,100.6,403.5,108.4 M422.2,155.9l-8.6-22.9
		c-2.1-5.6-4.6-8.7-10.6-9.9c8.6-1.5,15.4-7,15.4-16.2c0-13.3-11.3-17.7-22.7-17.7h-27.2v66.7H383v-27.6h5.4c7.3,0,8.8,2,11.1,8.5
		l6.9,19.1H422.2z"/>
	<path d="M582.2,72.9V6.2h-5.8v59.6L542.2,6.2H534v66.7h5.8V13.3L574,72.9H582.2z M520.4,72.9v-5.4h-27V41.2h24.5V36h-24.5V11.6
		h25.9V6.2h-31.9v66.7H520.4z M469.3,24.9c0,12.2-9.2,13.5-19.1,13.5h-5V11.6h10.3C463.9,11.6,469.3,16.4,469.3,24.9 M475.6,24.8
		c0-12.4-9.2-18.6-21-18.6h-15.4v66.7h6V43.8h8.8C464.8,43.8,475.6,38.1,475.6,24.8 M418.7,39.6c0,14.2-6.7,28.8-22.9,28.8
		c-15.9,0-22.9-14.8-22.9-28.8s6.9-28.8,22.9-28.8C412,10.8,418.7,25.4,418.7,39.6 M425,39.6c0-18.4-8.9-34.4-29.2-34.4
		c-19.7,0-29.2,16.5-29.2,34.4c0,18.5,8.8,34.4,29.2,34.4C415.6,74,425,57.6,425,39.6"/>
</g>
<polygon class="st0" points="155.9,19.6 136.3,0 19.4,0 0,19.6 0,136.5 19.4,155.9 136.3,155.9 155.9,136.5 "/>
<polygon class="st1" points="0,170.1 0,326 155.9,326 155.9,248.2 136.3,248.2 136.3,209.1 116.9,209.1 116.9,170.1 "/>
<polygon class="st2" points="286.9,170.1 267.5,189.7 228.5,170.1 170.1,170.1 170.1,326 209.1,326 228.5,306.6 267.5,326 326,326 
	326,170.1 "/>
<polygon class="st3" points="326,97.5 326,19.6 306.4,0 170.1,0 170.1,155.9 306.4,155.9 306.4,116.9 "/>
<g>
	<path d="M368.5,172h6.6v61h26.8v5.7h-33.3V172z"/>
	<path d="M434.3,172h7.5l26.5,66.7h-6.9l-7.2-17.9h-33.5l-7.1,17.9h-6.6L434.3,172z M423.1,215.1h28.8l-14.4-36.8L423.1,215.1z"/>
	<path d="M477.1,172h15.9c5.7-0.1,10.6,1.1,14.7,3.3c4.1,2.4,6.3,6.8,6.4,13.1c0,8.5-4,13.5-12.1,15.2v0.2c4.3,0.8,7.7,2.5,10.2,5.2
		c2.5,2.7,3.9,6.2,3.9,10.7c-0.1,7.1-2.7,12.1-7.6,14.9c-2.3,1.4-5,2.5-8.1,3.2c-3.1,0.6-6.4,1-9.9,1h-13.3V172z M483.7,233h6.9
		c2.3,0,4.6-0.2,6.8-0.7c2.2-0.4,4.3-1,6.1-1.9c1.8-1,3.3-2.3,4.4-4c1.1-1.7,1.6-3.9,1.6-6.4c0-3-0.5-5.4-1.6-7.2
		c-1.1-1.8-2.7-3.1-4.6-3.9c-1.9-0.9-4-1.5-6.4-1.7c-2.4-0.2-4.9-0.3-7.4-0.3h-5.8V233z M483.9,201.1h7.4c1.8,0,3.7-0.2,5.6-0.6
		c1.8-0.3,3.6-0.9,5.2-1.7c1.7-1,3-2.2,3.9-3.8c1-1.7,1.5-3.8,1.5-6.3c0-2.5-0.4-4.5-1.3-5.9c-1-1.4-2.3-2.5-3.7-3.2
		c-1.5-0.8-3-1.3-4.7-1.5c-1.7-0.2-3.3-0.3-4.8-0.3h-9.1V201.1z"/>
</g>
</svg>
