<?xml version="1.0" encoding="utf-8"?>
<!-- Generator: Adobe Illustrator 16.0.4, SVG Export Plug-In . SVG Version: 6.00 Build 0)  -->
<svg version="1.2" baseProfile="tiny" xmlns="http://www.w3.org/2000/svg" xmlns:xlink="http://www.w3.org/1999/xlink" x="0px"
	 y="0px" width="240.879px" height="123.639px" viewBox="1549.333 -28.5 240.879 123.639" xml:space="preserve">
<g id="Ebene_2">
</g>
<g id="Ebene_1">
	<path id="_x31_0_4_" fill="#E2001A" d="M1549.833-26.5c0-1.105,0.896-2,2-2h110.584v33h-82.584h-3.5l-4,4l-4-4h-3.5h-15V-26.5z"/>
	<path id="_x37_9_4_" fill="#F29400" d="M1603.896,45.547c0-1.105,0.896-2,2-2h13h2.5l5,5l5-5h2.5h46.583v4.1l-5.153-0.469
		c0,0-1.097,3.125-1.33,4.656c-0.234,1.531-0.25,3.703,0.405,5.078c0.656,1.375,1.984,2.688,3.484,2.953
		c1.5,0.264,2.375,0.203,2.594,0.219v3.5v13h-46.583h-3.5l-4,4l-4-4h-3.5h-13c-1.104,0-2-0.896-2-2V45.547z"/>
	<path id="_x32_2_4_" fill="#EB6A0A" d="M1549.833,5.502h15h2.5l5,5l5-5h2.5h69.75v4.1l-5.154-0.469c0,0-1.096,3.125-1.33,4.656
		c-0.233,1.531-0.25,3.703,0.406,5.078s1.984,2.688,3.484,2.953c1.5,0.264,2.375,0.203,2.594,0.219v3.5v17h-15.684h-3.5l-4,4l-4-4
		h-3.5h-14c-1.104,0-2,0.895-2,2v34.6c0,1.105,0.896,2,2,2h44.684v10h-69.75h-3.5l-4,4l-4-4h-3.5h-15V5.502z"/>
	<path id="_x33_1_4_" fill="#33B8CA" d="M1650.629,5.5h20h119.583v37h-139.583v-17v-5c-4.217,0.098-4.471-0.541-5.281-1.609
		c-1.108-1.459-1.159-3.82-0.159-7.12l0.33-1.062l5.11,0.441V5.949V5.5z M1786.246,10.5h-117.018v1v4.1l-5.153-0.469
		c0,0-1.097,3.125-1.33,4.656c-0.234,1.531-0.25,3.703,0.406,5.078c0.655,1.375,1.983,2.688,3.483,2.953
		c1.5,0.264,2.375,0.203,2.594,0.219v3.5v6h117.018V10.5z"/>
	<path id="_x39_7_4_" fill="#B1C800" d="M1670.259,11.582h115.017v25h-115.017v-5v-5c-4.217,0.098-4.471-0.541-5.281-1.609
		c-1.108-1.459-1.159-3.82-0.159-7.119l0.33-1.062l5.11,0.441v-5.202V11.582z"/>
	<g>
		<path fill="#FFFFFF" d="M1564.495-9.688c0-0.254-0.097-0.463-0.29-0.627s-0.56-0.307-1.099-0.428
			c-0.77-0.168-1.349-0.395-1.737-0.682c-0.389-0.286-0.583-0.678-0.583-1.173c0-0.515,0.219-0.953,0.656-1.316
			c0.438-0.362,1.008-0.544,1.711-0.544c0.738,0,1.325,0.189,1.761,0.568s0.644,0.84,0.624,1.383l-0.012,0.035h-1.102
			c0-0.277-0.116-0.526-0.349-0.747s-0.54-0.331-0.923-0.331c-0.41,0-0.715,0.09-0.914,0.27s-0.299,0.396-0.299,0.65
			c0,0.25,0.088,0.447,0.264,0.592s0.533,0.273,1.072,0.387c0.801,0.172,1.396,0.405,1.787,0.7s0.586,0.69,0.586,1.187
			c0,0.562-0.228,1.018-0.683,1.365s-1.05,0.521-1.784,0.521c-0.809,0-1.445-0.205-1.91-0.615s-0.686-0.889-0.662-1.436l0.012-0.035
			h1.102c0.02,0.408,0.172,0.706,0.457,0.895c0.285,0.189,0.619,0.283,1.002,0.283c0.41,0,0.731-0.083,0.964-0.249
			S1564.495-9.418,1564.495-9.688z"/>
		<path fill="#FFFFFF" d="M1568.608-15.87v1.529h1.201v0.855h-1.201v3.85c0,0.297,0.062,0.506,0.185,0.627s0.286,0.182,0.489,0.182
			c0.066,0,0.14-0.008,0.22-0.023s0.151-0.035,0.214-0.059l0.152,0.791c-0.086,0.07-0.212,0.128-0.378,0.173
			s-0.333,0.067-0.501,0.067c-0.469,0-0.842-0.142-1.119-0.425s-0.416-0.728-0.416-1.333v-3.85h-1.008v-0.855h1.008v-1.529H1568.608
			z"/>
		<path fill="#FFFFFF" d="M1575.13-8c-0.039-0.191-0.069-0.36-0.091-0.507s-0.034-0.294-0.038-0.442
			c-0.215,0.305-0.495,0.56-0.841,0.765s-0.718,0.308-1.116,0.308c-0.66,0-1.163-0.169-1.509-0.507s-0.519-0.804-0.519-1.397
			c0-0.605,0.245-1.079,0.735-1.421s1.155-0.513,1.995-0.513h1.254v-0.627c0-0.371-0.113-0.665-0.34-0.882s-0.547-0.325-0.961-0.325
			c-0.371,0-0.673,0.095-0.905,0.284s-0.349,0.417-0.349,0.683h-1.102l-0.012-0.035c-0.023-0.461,0.194-0.883,0.653-1.266
			s1.052-0.574,1.778-0.574c0.719,0,1.297,0.183,1.734,0.548s0.656,0.892,0.656,1.579v3.053c0,0.227,0.012,0.445,0.035,0.656
			s0.066,0.418,0.129,0.621H1575.13z M1573.214-8.85c0.418,0,0.795-0.107,1.131-0.321s0.555-0.46,0.656-0.736v-1.028h-1.295
			c-0.465,0-0.837,0.117-1.116,0.351s-0.419,0.509-0.419,0.824c0,0.28,0.088,0.502,0.264,0.666
			C1572.61-8.932,1572.87-8.85,1573.214-8.85z"/>
		<path fill="#FFFFFF" d="M1580.831-13.321l-0.592-0.035c-0.305,0-0.562,0.072-0.771,0.217s-0.37,0.348-0.483,0.609V-8h-1.154v-6.34
			h1.031l0.111,0.926c0.18-0.328,0.401-0.584,0.665-0.768s0.567-0.275,0.911-0.275c0.086,0,0.168,0.007,0.246,0.021
			s0.143,0.028,0.193,0.044L1580.831-13.321z"/>
		<path fill="#FFFFFF" d="M1583.567-15.87v1.529h1.201v0.855h-1.201v3.85c0,0.297,0.062,0.506,0.185,0.627s0.286,0.182,0.489,0.182
			c0.066,0,0.14-0.008,0.22-0.023s0.151-0.035,0.214-0.059l0.152,0.791c-0.086,0.07-0.212,0.128-0.378,0.173
			s-0.333,0.067-0.501,0.067c-0.469,0-0.842-0.142-1.119-0.425s-0.416-0.728-0.416-1.333v-3.85h-1.008v-0.855h1.008v-1.529H1583.567
			z"/>
		<path fill="#FFFFFF" d="M1594.577-10.93c0,0.914-0.219,1.651-0.656,2.212s-1.041,0.841-1.811,0.841
			c-0.391,0-0.733-0.065-1.028-0.196s-0.546-0.327-0.753-0.589v3.1h-1.154v-8.777h0.885l0.182,0.82
			c0.207-0.305,0.465-0.537,0.773-0.697s0.668-0.24,1.078-0.24c0.785,0,1.396,0.312,1.831,0.935s0.653,1.446,0.653,2.47V-10.93z
			 M1593.423-11.056c0-0.718-0.142-1.308-0.425-1.771c-0.283-0.462-0.7-0.693-1.251-0.693c-0.332,0-0.615,0.075-0.85,0.226
			s-0.424,0.355-0.568,0.617v3.061c0.145,0.262,0.334,0.465,0.568,0.611s0.521,0.22,0.861,0.22c0.547,0,0.961-0.2,1.242-0.6
			c0.281-0.4,0.422-0.916,0.422-1.548V-11.056z"/>
		<path fill="#FFFFFF" d="M1598.995-13.321l-0.592-0.035c-0.305,0-0.562,0.072-0.771,0.217s-0.37,0.348-0.483,0.609V-8h-1.154v-6.34
			h1.031l0.111,0.926c0.18-0.328,0.401-0.584,0.665-0.768s0.567-0.275,0.911-0.275c0.086,0,0.168,0.007,0.246,0.021
			s0.143,0.028,0.193,0.044L1598.995-13.321z"/>
		<path fill="#FFFFFF" d="M1599.722-11.229c0-0.938,0.254-1.71,0.762-2.317s1.197-0.911,2.068-0.911
			c0.879,0,1.573,0.303,2.083,0.908s0.765,1.379,0.765,2.32v0.129c0,0.945-0.254,1.719-0.762,2.32s-1.199,0.902-2.074,0.902
			s-1.567-0.302-2.077-0.905s-0.765-1.376-0.765-2.317V-11.229z M1600.876-11.103c0,0.671,0.142,1.225,0.425,1.662
			c0.283,0.437,0.704,0.655,1.263,0.655c0.551,0,0.969-0.219,1.254-0.655c0.285-0.438,0.428-0.991,0.428-1.662v-0.129
			c0-0.663-0.144-1.215-0.431-1.656c-0.287-0.44-0.708-0.661-1.263-0.661c-0.551,0-0.968,0.221-1.251,0.661
			c-0.283,0.441-0.425,0.993-0.425,1.656V-11.103z"/>
		<path fill="#FFFFFF" d="M1606.56-11.053c0-1.02,0.223-1.842,0.668-2.467s1.061-0.938,1.846-0.938c0.402,0,0.756,0.081,1.061,0.243
			s0.559,0.396,0.762,0.7l0.141-0.826h0.92v6.375c0,0.812-0.236,1.437-0.709,1.872s-1.154,0.653-2.045,0.653
			c-0.305,0-0.634-0.042-0.987-0.126s-0.665-0.198-0.935-0.343l0.293-0.896c0.207,0.117,0.457,0.212,0.75,0.284
			s0.582,0.108,0.867,0.108c0.562,0,0.972-0.128,1.228-0.384s0.384-0.646,0.384-1.169V-8.68c-0.207,0.266-0.455,0.466-0.744,0.601
			s-0.621,0.202-0.996,0.202c-0.777,0-1.389-0.281-1.834-0.844s-0.668-1.299-0.668-2.209V-11.053z M1607.714-10.93
			c0,0.637,0.135,1.148,0.404,1.535s0.68,0.58,1.23,0.58c0.348,0,0.639-0.079,0.873-0.237s0.428-0.382,0.58-0.671v-2.918
			c-0.148-0.27-0.342-0.483-0.58-0.642s-0.525-0.237-0.861-0.237c-0.551,0-0.963,0.23-1.236,0.691s-0.41,1.053-0.41,1.775V-10.93z"
			/>
		<path fill="#FFFFFF" d="M1616.632-13.321l-0.592-0.035c-0.305,0-0.562,0.072-0.771,0.217s-0.37,0.348-0.483,0.609V-8h-1.154v-6.34
			h1.031l0.111,0.926c0.18-0.328,0.401-0.584,0.665-0.768s0.567-0.275,0.911-0.275c0.086,0,0.168,0.007,0.246,0.021
			s0.143,0.028,0.193,0.044L1616.632-13.321z"/>
		<path fill="#FFFFFF" d="M1621.642-8c-0.039-0.191-0.069-0.36-0.091-0.507s-0.034-0.294-0.038-0.442
			c-0.215,0.305-0.495,0.56-0.841,0.765s-0.718,0.308-1.116,0.308c-0.66,0-1.163-0.169-1.509-0.507s-0.519-0.804-0.519-1.397
			c0-0.605,0.245-1.079,0.735-1.421s1.155-0.513,1.995-0.513h1.254v-0.627c0-0.371-0.113-0.665-0.34-0.882s-0.547-0.325-0.961-0.325
			c-0.371,0-0.673,0.095-0.905,0.284s-0.349,0.417-0.349,0.683h-1.102l-0.012-0.035c-0.023-0.461,0.194-0.883,0.653-1.266
			s1.052-0.574,1.778-0.574c0.719,0,1.297,0.183,1.734,0.548s0.656,0.892,0.656,1.579v3.053c0,0.227,0.012,0.445,0.035,0.656
			s0.066,0.418,0.129,0.621H1621.642z M1619.726-8.85c0.418,0,0.795-0.107,1.131-0.321s0.555-0.46,0.656-0.736v-1.028h-1.295
			c-0.465,0-0.837,0.117-1.116,0.351s-0.419,0.509-0.419,0.824c0,0.28,0.088,0.502,0.264,0.666
			C1619.122-8.932,1619.382-8.85,1619.726-8.85z"/>
		<path fill="#FFFFFF" d="M1625.374-14.34l0.082,0.832c0.207-0.301,0.47-0.534,0.788-0.7s0.688-0.249,1.11-0.249
			s0.784,0.098,1.087,0.293s0.53,0.488,0.683,0.879c0.199-0.359,0.463-0.645,0.791-0.855s0.711-0.316,1.148-0.316
			c0.645,0,1.154,0.222,1.529,0.665s0.562,1.11,0.562,2.001V-8h-1.154v-3.803c0-0.625-0.107-1.067-0.322-1.327
			s-0.535-0.39-0.961-0.39c-0.395,0-0.714,0.137-0.958,0.41s-0.388,0.619-0.431,1.037v0.047V-8h-1.16v-3.803
			c0-0.594-0.11-1.028-0.331-1.304s-0.538-0.413-0.952-0.413c-0.352,0-0.641,0.072-0.867,0.217s-0.4,0.348-0.521,0.609V-8h-1.154
			v-6.34H1625.374z"/>
	</g>
	<g>
		<path fill="#FFFFFF" d="M1561.919,19.625h-1.154v-1.178h1.154V19.625z M1561.919,27.588h-1.154v-6.34h1.154V27.588z"/>
		<path fill="#FFFFFF" d="M1564.175,27.588v-5.484h-0.99v-0.855h0.99v-0.803c0-0.676,0.177-1.197,0.53-1.566
			s0.847-0.555,1.479-0.555c0.133,0,0.267,0.012,0.401,0.033s0.284,0.051,0.448,0.09l-0.141,0.879
			c-0.07-0.016-0.155-0.029-0.255-0.041s-0.204-0.018-0.313-0.018c-0.336,0-0.586,0.102-0.75,0.303s-0.246,0.492-0.246,0.875v0.803
			h1.318v0.855h-1.318v5.484H1564.175z"/>
	</g>
	<g>
		<path fill="#FFFFFF" d="M1562.194,55.701v1.529h1.201v0.855h-1.201v3.85c0,0.297,0.062,0.506,0.185,0.627s0.286,0.182,0.489,0.182
			c0.066,0,0.14-0.008,0.22-0.023s0.151-0.035,0.214-0.059l0.152,0.791c-0.086,0.07-0.212,0.129-0.378,0.174
			s-0.333,0.066-0.501,0.066c-0.469,0-0.842-0.141-1.119-0.424s-0.416-0.729-0.416-1.334v-3.85h-1.008V57.23h1.008v-1.529H1562.194z
			"/>
		<path fill="#FFFFFF" d="M1565.974,58.08c0.219-0.305,0.487-0.541,0.806-0.711s0.671-0.256,1.058-0.256
			c0.676,0,1.202,0.203,1.579,0.609s0.565,1.031,0.565,1.875v3.973h-1.154v-3.984c0-0.523-0.112-0.91-0.337-1.16
			s-0.56-0.375-1.005-0.375c-0.32,0-0.61,0.076-0.87,0.227s-0.474,0.354-0.642,0.611v4.682h-1.154V54.43h1.154V58.08z"/>
		<path fill="#FFFFFF" d="M1574.271,63.693c-0.883,0-1.585-0.293-2.106-0.881s-0.782-1.352-0.782-2.289v-0.258
			c0-0.902,0.269-1.652,0.806-2.252s1.173-0.9,1.907-0.9c0.855,0,1.502,0.258,1.939,0.773s0.656,1.203,0.656,2.062v0.721h-4.113
			l-0.018,0.029c0.012,0.607,0.166,1.107,0.463,1.5c0.297,0.391,0.713,0.586,1.248,0.586c0.391,0,0.733-0.055,1.028-0.166
			s0.55-0.266,0.765-0.461l0.451,0.752c-0.227,0.223-0.525,0.41-0.896,0.559C1575.247,63.619,1574.798,63.693,1574.271,63.693z
			 M1574.095,58.021c-0.387,0-0.717,0.162-0.99,0.488c-0.273,0.324-0.441,0.732-0.504,1.223l0.012,0.029h2.924v-0.15
			c0-0.453-0.121-0.83-0.363-1.135C1574.931,58.174,1574.571,58.021,1574.095,58.021z"/>
		<path fill="#FFFFFF" d="M1579.017,57.23l0.082,0.943c0.211-0.336,0.476-0.596,0.794-0.781s0.681-0.279,1.087-0.279
			c0.684,0,1.213,0.201,1.588,0.602s0.562,1.018,0.562,1.854v4.002h-1.154v-3.979c0-0.559-0.11-0.955-0.331-1.189
			s-0.558-0.352-1.011-0.352c-0.332,0-0.626,0.08-0.882,0.24s-0.46,0.379-0.612,0.656v4.623h-1.154v-6.34H1579.017z"/>
	</g>
	<g>
		<path fill="#FFFFFF" d="M1633.143,58.25l-0.592-0.035c-0.305,0-0.562,0.072-0.771,0.217s-0.37,0.348-0.483,0.609v4.529h-1.154
			v-6.34h1.031l0.111,0.926c0.18-0.328,0.401-0.584,0.665-0.768s0.567-0.275,0.911-0.275c0.086,0,0.168,0.008,0.246,0.021
			s0.143,0.027,0.193,0.043L1633.143,58.25z"/>
		<path fill="#FFFFFF" d="M1636.775,63.693c-0.883,0-1.585-0.293-2.106-0.881s-0.782-1.352-0.782-2.289v-0.258
			c0-0.902,0.269-1.652,0.806-2.252s1.173-0.9,1.907-0.9c0.855,0,1.502,0.258,1.939,0.773s0.656,1.203,0.656,2.062v0.721h-4.113
			l-0.018,0.029c0.012,0.607,0.166,1.107,0.463,1.5c0.297,0.391,0.713,0.586,1.248,0.586c0.391,0,0.733-0.055,1.028-0.166
			s0.55-0.266,0.765-0.461l0.451,0.752c-0.227,0.223-0.525,0.41-0.896,0.559C1637.752,63.619,1637.303,63.693,1636.775,63.693z
			 M1636.6,58.021c-0.387,0-0.717,0.162-0.99,0.488c-0.273,0.324-0.441,0.732-0.504,1.223l0.012,0.029h2.924v-0.15
			c0-0.453-0.121-0.83-0.363-1.135C1637.436,58.174,1637.076,58.021,1636.6,58.021z"/>
		<path fill="#FFFFFF" d="M1644.387,63.57c-0.039-0.191-0.069-0.359-0.091-0.506s-0.034-0.295-0.038-0.443
			c-0.215,0.305-0.495,0.561-0.841,0.766s-0.718,0.307-1.116,0.307c-0.66,0-1.163-0.168-1.509-0.506s-0.519-0.805-0.519-1.398
			c0-0.605,0.245-1.078,0.735-1.42s1.155-0.514,1.995-0.514h1.254v-0.627c0-0.371-0.113-0.664-0.34-0.881s-0.547-0.326-0.961-0.326
			c-0.371,0-0.673,0.096-0.905,0.285s-0.349,0.416-0.349,0.682h-1.102l-0.012-0.035c-0.023-0.461,0.194-0.883,0.653-1.266
			s1.052-0.574,1.778-0.574c0.719,0,1.297,0.184,1.734,0.549s0.656,0.891,0.656,1.578v3.053c0,0.227,0.012,0.445,0.035,0.656
			s0.066,0.418,0.129,0.621H1644.387z M1642.471,62.721c0.418,0,0.795-0.107,1.131-0.32c0.336-0.215,0.555-0.461,0.656-0.736v-1.029
			h-1.295c-0.465,0-0.837,0.117-1.116,0.352c-0.279,0.232-0.419,0.508-0.419,0.824c0,0.279,0.088,0.502,0.264,0.666
			C1641.867,62.639,1642.127,62.721,1642.471,62.721z"/>
		<path fill="#FFFFFF" d="M1646.824,60.518c0-1.02,0.218-1.842,0.653-2.467s1.046-0.938,1.831-0.938c0.371,0,0.7,0.068,0.987,0.205
			s0.532,0.336,0.735,0.598V54.43h1.154v9.141h-0.943l-0.135-0.779c-0.207,0.297-0.461,0.521-0.762,0.674s-0.65,0.229-1.049,0.229
			c-0.773,0-1.379-0.279-1.816-0.84s-0.656-1.299-0.656-2.213V60.518z M1647.979,60.641c0,0.641,0.131,1.154,0.393,1.539
			s0.668,0.576,1.219,0.576c0.344,0,0.633-0.078,0.867-0.234s0.426-0.375,0.574-0.656v-2.959c-0.148-0.262-0.341-0.469-0.577-0.623
			s-0.521-0.232-0.853-0.232c-0.555,0-0.964,0.229-1.228,0.686s-0.396,1.051-0.396,1.781V60.641z"/>
	</g>
	<image width="44" height="36" xlink:href="quote0.png"  transform="matrix(0.2727 0 0 0.2727 1680.917 19.1738)">
	</image>
	<image width="44" height="36" xlink:href="quote0.png"  transform="matrix(-0.2727 0 0 -0.2727 1775.3799 28.9922)">
	</image>
	<image width="62" height="18" xlink:href="BFFDAF5FDC0AE223.png"  transform="matrix(1 0 0 1 1697.5 15.5)">
	</image>
	<g>
		<path d="M1704.686,21.248l0.082,0.943c0.211-0.336,0.477-0.596,0.795-0.781s0.68-0.279,1.086-0.279
			c0.684,0,1.213,0.201,1.588,0.602s0.562,1.018,0.562,1.854v4.002h-1.154v-3.979c0-0.559-0.109-0.955-0.33-1.189
			s-0.559-0.352-1.012-0.352c-0.332,0-0.625,0.08-0.881,0.24s-0.461,0.379-0.613,0.656v4.623h-1.154v-6.34H1704.686z"/>
		<path d="M1713.105,27.711c-0.883,0-1.584-0.293-2.105-0.881s-0.783-1.352-0.783-2.289v-0.258c0-0.902,0.27-1.652,0.807-2.252
			s1.172-0.9,1.906-0.9c0.855,0,1.502,0.258,1.939,0.773s0.656,1.203,0.656,2.062v0.721h-4.113l-0.018,0.029
			c0.012,0.607,0.166,1.107,0.463,1.5c0.297,0.391,0.713,0.586,1.248,0.586c0.391,0,0.734-0.055,1.029-0.166
			s0.549-0.266,0.764-0.461l0.451,0.752c-0.227,0.223-0.525,0.41-0.896,0.559C1714.082,27.637,1713.633,27.711,1713.105,27.711z
			 M1712.93,22.039c-0.387,0-0.717,0.162-0.99,0.488c-0.273,0.324-0.441,0.732-0.504,1.223l0.012,0.029h2.924v-0.15
			c0-0.453-0.121-0.83-0.363-1.135C1713.766,22.191,1713.406,22.039,1712.93,22.039z"/>
		<path d="M1718.443,25.279l0.135,0.768h0.035l0.164-0.768l1.266-4.031h0.926l1.271,4.031l0.182,0.855h0.035l0.17-0.855l0.996-4.031
			h1.148l-1.84,6.34H1722l-1.225-3.861l-0.264-1.078l-0.035,0.006l-0.252,1.072l-1.207,3.861h-0.932l-1.84-6.34h1.148
			L1718.443,25.279z"/>
		<path d="M1730.496,28.496h-5.408v-0.908h5.408V28.496z"/>
		<path d="M1732.512,22.098c0.219-0.305,0.488-0.541,0.807-0.711s0.67-0.256,1.057-0.256c0.676,0,1.203,0.203,1.58,0.609
			s0.564,1.031,0.564,1.875v3.973h-1.154v-3.984c0-0.523-0.111-0.91-0.336-1.16s-0.561-0.375-1.006-0.375
			c-0.32,0-0.609,0.076-0.869,0.227s-0.475,0.354-0.643,0.611v4.682h-1.154v-9.141h1.154V22.098z"/>
		<path d="M1740.809,27.711c-0.883,0-1.584-0.293-2.105-0.881s-0.783-1.352-0.783-2.289v-0.258c0-0.902,0.27-1.652,0.807-2.252
			s1.172-0.9,1.906-0.9c0.855,0,1.502,0.258,1.939,0.773s0.656,1.203,0.656,2.062v0.721h-4.113l-0.018,0.029
			c0.012,0.607,0.166,1.107,0.463,1.5c0.297,0.391,0.713,0.586,1.248,0.586c0.391,0,0.734-0.055,1.029-0.166
			s0.549-0.266,0.764-0.461l0.451,0.752c-0.227,0.223-0.525,0.41-0.896,0.559C1741.785,27.637,1741.336,27.711,1740.809,27.711z
			 M1740.633,22.039c-0.387,0-0.717,0.162-0.99,0.488c-0.273,0.324-0.441,0.732-0.504,1.223l0.012,0.029h2.924v-0.15
			c0-0.453-0.121-0.83-0.363-1.135C1741.469,22.191,1741.109,22.039,1740.633,22.039z"/>
		<path d="M1747.523,22.268l-0.592-0.035c-0.305,0-0.561,0.072-0.77,0.217s-0.371,0.348-0.484,0.609v4.529h-1.154v-6.34h1.031
			l0.111,0.926c0.18-0.328,0.402-0.584,0.666-0.768s0.566-0.275,0.91-0.275c0.086,0,0.168,0.008,0.246,0.021
			s0.143,0.027,0.193,0.043L1747.523,22.268z"/>
		<path d="M1751.156,27.711c-0.883,0-1.584-0.293-2.105-0.881s-0.783-1.352-0.783-2.289v-0.258c0-0.902,0.27-1.652,0.807-2.252
			s1.172-0.9,1.906-0.9c0.855,0,1.502,0.258,1.939,0.773s0.656,1.203,0.656,2.062v0.721h-4.113l-0.018,0.029
			c0.012,0.607,0.166,1.107,0.463,1.5c0.297,0.391,0.713,0.586,1.248,0.586c0.391,0,0.734-0.055,1.029-0.166
			s0.549-0.266,0.764-0.461l0.451,0.752c-0.227,0.223-0.525,0.41-0.896,0.559C1752.133,27.637,1751.684,27.711,1751.156,27.711z
			 M1750.98,22.039c-0.387,0-0.717,0.162-0.99,0.488c-0.273,0.324-0.441,0.732-0.504,1.223l0.012,0.029h2.924v-0.15
			c0-0.453-0.121-0.83-0.363-1.135C1751.816,22.191,1751.457,22.039,1750.98,22.039z"/>
	</g>
	<g>
		<path id="_x31_01_4_" fill="#B1C800" d="M1681.533,43.545h101.684v33.037h-101.684V63.545v-5
			c-4.217,0.098-4.471-0.541-5.281-1.609c-1.108-1.459-1.159-3.82-0.159-7.119l0.33-1.062l5.11,0.441v-5.201V43.545z"/>
		<image width="44" height="36" xlink:href="quote0.png"  transform="matrix(0.2727 0 0 0.2727 1691.917 55.1562)">
		</image>
		<image width="44" height="36" xlink:href="quote0.png"  transform="matrix(-0.2727 0 0 -0.2727 1772.3799 64.9746)">
		</image>
		<image width="47" height="18" xlink:href="BFFDAF5FDC0AE225.png"  transform="matrix(1 0 0 1 1708.5 51.5)">
		</image>
		<g>
			<path d="M1720.824,55.701v1.529h1.201v0.855h-1.201v3.85c0,0.297,0.062,0.506,0.186,0.627s0.285,0.182,0.488,0.182
				c0.066,0,0.141-0.008,0.221-0.023s0.15-0.035,0.213-0.059l0.152,0.791c-0.086,0.07-0.211,0.129-0.377,0.174
				s-0.334,0.066-0.502,0.066c-0.469,0-0.842-0.141-1.119-0.424s-0.416-0.729-0.416-1.334v-3.85h-1.008V57.23h1.008v-1.529H1720.824
				z"/>
			<path d="M1724.604,58.08c0.219-0.305,0.488-0.541,0.807-0.711s0.67-0.256,1.057-0.256c0.676,0,1.203,0.203,1.58,0.609
				s0.564,1.031,0.564,1.875v3.973h-1.154v-3.984c0-0.523-0.111-0.91-0.336-1.16s-0.561-0.375-1.006-0.375
				c-0.32,0-0.609,0.076-0.869,0.227s-0.475,0.354-0.643,0.611v4.682h-1.154V54.43h1.154V58.08z"/>
			<path d="M1731.518,55.607h-1.154V54.43h1.154V55.607z M1731.518,63.57h-1.154v-6.34h1.154V63.57z"/>
			<path d="M1736.979,61.883c0-0.254-0.096-0.463-0.289-0.627s-0.561-0.307-1.1-0.428c-0.77-0.168-1.348-0.395-1.736-0.682
				c-0.389-0.285-0.584-0.678-0.584-1.172c0-0.516,0.219-0.953,0.656-1.316s1.008-0.545,1.711-0.545
				c0.738,0,1.326,0.189,1.762,0.568s0.643,0.84,0.623,1.383l-0.012,0.035h-1.102c0-0.277-0.115-0.525-0.348-0.746
				s-0.541-0.332-0.924-0.332c-0.41,0-0.715,0.09-0.914,0.27s-0.299,0.396-0.299,0.65c0,0.25,0.088,0.447,0.264,0.592
				s0.533,0.273,1.072,0.387c0.801,0.172,1.396,0.406,1.787,0.701s0.586,0.689,0.586,1.186c0,0.562-0.227,1.018-0.682,1.365
				s-1.051,0.521-1.785,0.521c-0.809,0-1.445-0.205-1.91-0.615s-0.686-0.889-0.662-1.436l0.012-0.035h1.102
				c0.02,0.408,0.172,0.707,0.457,0.895c0.285,0.189,0.619,0.283,1.002,0.283c0.41,0,0.732-0.082,0.965-0.248
				S1736.979,62.152,1736.979,61.883z"/>
			<path d="M1740.887,60.77h-1.154v-5.73h1.154V60.77z M1740.893,63.57h-1.16v-1.195h1.16V63.57z"/>
		</g>
	</g>
</g>
</svg>
