<?xml version="1.0" encoding="utf-8"?>
<!-- Generator: Adobe Illustrator 16.0.3, SVG Export Plug-In . SVG Version: 6.00 Build 0)  -->
<svg version="1.2" baseProfile="tiny" id="Ebene_2" xmlns="http://www.w3.org/2000/svg" xmlns:xlink="http://www.w3.org/1999/xlink"
	 x="0px" y="0px" width="160.711px" height="154.289px" viewBox="0 0 160.711 154.289" xml:space="preserve">
<path fill="#3D3D3C" stroke="#000000" stroke-width="1.5467" d="M96.968,127.481c0,6.795-6.149,12.293-13.738,12.293
	s-13.754-5.498-13.754-12.293c0-6.779,6.165-12.296,13.754-12.296S96.968,120.703,96.968,127.481z"/>
<path d="M87.184,123.854c0,1.488-1.814,2.691-4.039,2.691c-2.233,0-4.047-1.203-4.047-2.691c0-1.453,1.813-2.635,4.047-2.635
	C85.369,121.218,87.184,122.401,87.184,123.854z"/>
<linearGradient id="SVGID_1_" gradientUnits="userSpaceOnUse" x1="58.228" y1="111.2437" x2="58.228" y2="142.3511">
	<stop  offset="0" style="stop-color:#B5B5B5"/>
	<stop  offset="1" style="stop-color:#454545"/>
</linearGradient>
<path fill="url(#SVGID_1_)" stroke="#000000" stroke-width="1.5467" d="M72.063,126.802c0,8.582-6.195,15.549-13.841,15.549
	c-7.636,0-13.83-6.967-13.83-15.549c0-8.6,6.194-15.558,13.83-15.558C65.868,111.244,72.063,118.202,72.063,126.802z"/>
<path d="M64.665,125.418c0,2.235-1.804,4.048-4.027,4.048c-2.234,0-4.047-1.813-4.047-4.048c0-2.233,1.813-4.027,4.047-4.027
	C62.861,121.391,64.665,123.185,64.665,125.418z"/>
<path fill="#F4D007" stroke="#000000" stroke-width="1.5467" d="M98.879,85.464c0,0,21.818-6.357,25.599-7.221
	c3.761-0.859,5.497,1.035,6.872,6.362c1.373,5.326,1.526,12.37,1.526,12.37s-19.738,22.181-26.115,16.34
	c-6.354-5.861-7.73-27.508-7.73-27.508"/>
<path fill="#F4D007" stroke="#000000" stroke-width="1.5467" d="M73.609,88.899c0,0,33-7.388,34.031-1.202
	c1.013,6.185,3.417,22.859,5.154,24.758c1.718,1.871-16.342,12.523-20.126,12.028c-3.771-0.526-16.311-1.375-19.757-1.719
	c-3.426-0.364-7.55,1.546-7.206-6.013c0.343-7.579-1.212-19.424,1.191-23.9C69.314,88.384,73.609,88.899,73.609,88.899z"/>
<path d="M82.361,56.423c0,0-6.175,20.274-6.69,22.34c-0.525,2.062-3.607,14.088,4.973,14.423c8.599,0.372,10.661-0.153,11.167,6.538
	c0.525,6.71-7.035,5.335-8.924,5.335c-1.89,0-17.524,0.344-20.274-16.159c0,0,0.336-6.356,2.397-13.744
	c2.062-7.397,4.305-14.27,4.305-14.27S73.78,43.371,82.361,56.423z"/>
<linearGradient id="SVGID_2_" gradientUnits="userSpaceOnUse" x1="130.0518" y1="94.3018" x2="130.0518" y2="146.4595">
	<stop  offset="0" style="stop-color:#B5B5B5"/>
	<stop  offset="1" style="stop-color:#454545"/>
</linearGradient>
<path fill="url(#SVGID_2_)" stroke="#000000" stroke-width="1.5467" d="M148.225,123.243c-2.251,14.307-12.216,24.627-22.258,23.059
	c-10.022-1.594-16.341-14.479-14.09-28.787c2.273-14.337,12.237-24.645,22.259-23.051
	C144.178,96.048,150.478,108.915,148.225,123.243z"/>
<path fill="#FFFFFF" stroke="#000000" stroke-width="1.5467" d="M139.864,122.555c-1.184,4.62-3.704,7.942-5.631,7.446
	c-1.968-0.488-2.578-4.62-1.394-9.231c1.164-4.601,3.684-7.932,5.631-7.445C140.417,113.812,141.029,117.954,139.864,122.555z"/>
<linearGradient id="SVGID_3_" gradientUnits="userSpaceOnUse" x1="106.5405" y1="111.1665" x2="106.5405" y2="143.9546">
	<stop  offset="0" style="stop-color:#B5B5B5"/>
	<stop  offset="1" style="stop-color:#454545"/>
</linearGradient>
<path fill="url(#SVGID_3_)" stroke="#000000" stroke-width="1.5467" d="M119.267,132.827c-3.514,8.561-12.103,13.17-19.109,10.248
	c-7.049-2.881-9.874-12.178-6.343-20.759c3.537-8.581,12.108-13.182,19.133-10.28C119.973,114.938,122.798,124.234,119.267,132.827z
	"/>
<path fill="#FFFFFF" stroke="#000000" stroke-width="1.5467" d="M113.786,130.001c-1.336,3.254-3.932,5.268-5.803,4.504
	c-1.87-0.781-2.29-4.027-0.953-7.291c1.336-3.267,3.951-5.271,5.802-4.507C114.703,123.471,115.144,126.755,113.786,130.001z"/>
<polygon fill="#9B9B9B" stroke="#000000" stroke-width="1.5467" points="38.762,42.537 40.303,55.895 49.561,54.344 100.428,48.439 
	111.997,47.417 111.485,34.563 98.887,36.101 51.35,40.476 "/>
<linearGradient id="SVGID_4_" gradientUnits="userSpaceOnUse" x1="54.7461" y1="34.5947" x2="72.8759" y2="60.4868">
	<stop  offset="0.618" style="stop-color:#FFFFFF"/>
	<stop  offset="1" style="stop-color:#C2C2C2"/>
</linearGradient>
<path fill="url(#SVGID_4_)" stroke="#000000" stroke-width="1.5467" d="M79.606,47.541c0,8.722-7.058,15.803-15.792,15.803
	c-8.735,0-15.803-7.081-15.803-15.803c0-8.729,7.068-15.803,15.803-15.803C72.548,31.738,79.606,38.812,79.606,47.541z"/>
<path d="M70.883,48.112c0,2.56-2.074,4.624-4.633,4.624c-2.55,0-4.614-2.064-4.614-4.624c0-2.554,2.064-4.623,4.614-4.623
	C68.809,43.489,70.883,45.558,70.883,48.112z"/>
<path fill="#FFFFFF" d="M68.97,47.263c0,0.919-0.745,1.666-1.667,1.666c-0.931,0-1.674-0.747-1.674-1.666
	c0-0.927,0.743-1.68,1.674-1.68C68.225,45.583,68.97,46.336,68.97,47.263z"/>
<path fill="#D9D9D9" stroke="#000000" stroke-width="1.5467" stroke-miterlimit="3.8637" d="M102.217,43.948
	c0,8.169-6.603,14.772-14.75,14.772c-8.184,0-14.795-6.603-14.795-14.772c0-8.167,6.612-14.784,14.795-14.784
	C95.615,29.165,102.217,35.781,102.217,43.948z"/>
<path fill="#C20016" stroke="#000000" stroke-width="1.5467" d="M117.887,48.674c0,0,10.853,3.291,16.669,5.702
	c5.813,2.419,9.301,2.975,4.469-0.767c-4.857-3.741-3.949-2.556-1.488-3.943c2.463-1.417,3.248-4.45-1.717-4.402
	c-4.955,0.061-8.59,1.105-8.59,1.105s6.008-6.141,3.191-5.944c-2.813,0.208-13.105,1.479-14.066,3.925
	C115.395,46.787,114.571,47.612,117.887,48.674z"/>
<path fill="#C20016" stroke="#000000" stroke-width="1.5467" d="M32.305,61.714c-0.627-0.02-23.654,18.74-19.852,10.318
	c0,0,9.428-7.631,7.603-8.064c-1.821-0.442-7.784-0.148-6.448-1.138c1.333-0.985,7.52-2.804,10.294-3.413
	c2.766-0.598,5.397-1.302,1.956-3.081c-3.426-1.794-2.057-2.529,1.278-2.116c3.33,0.452,11.72-0.259,9.542,3.104
	C34.522,60.718,32.305,61.714,32.305,61.714z"/>
<path stroke="#000000" stroke-width="0.3059" stroke-miterlimit="3.8637" d="M79.077,21.699c-0.29,0.61,0.006,1.172,0.612,1.161
	c1.018-0.021,5.597-5.489,8.277-6.999c0.113-0.098,5.59-4.092,7.223-4.65c0,0-0.773-3.401-1.792-3.381
	c-0.585,0.012-1.946,1.06-2.351,1.465c-2.404,2.374-5.073,5.063-7.541,7.408C81.864,18.445,79.241,21.352,79.077,21.699
	L79.077,21.699z"/>
<path stroke="#000000" stroke-width="0.3059" stroke-miterlimit="3.8637" d="M46.522,29.44c-0.454,0.499-0.336,1.123,0.247,1.29
	c0.977,0.276,2.069-0.918,1.979-0.729c2.446-1.816,8.346-3.846,8.469-3.938c2.347-0.717,6.055-1.884,7.778-1.942
	c0,0,0.297-1.029,0.186-1.037c0.196-0.138,0.07-2.441-0.908-2.719c-0.565-0.161-2.172,0.443-2.678,0.714
	c-2.994,1.566-6.333,3.359-9.376,4.878C50.14,27.145,46.783,29.156,46.522,29.44L46.522,29.44z"/>
<path fill-rule="evenodd" stroke="#000000" stroke-width="0.2169" stroke-miterlimit="3.8637" d="M78.17,45.726
	c0,0,10.556-1.917,10.7-1.895c0.134,0.004,4.505-0.701,4.642-0.679c1.678-0.221,3.384-0.598,5.104-0.598
	c1.724,0,1.979,0.398,2.206,0.923c0.236,0.545-0.203,1.636-1.004,1.798c-0.315,0.063-2.829,0.052-3.49,0.15
	c-0.166-0.024-9.359,0.432-9.757,0.469c-0.298,0.028-4.88,0.618-5.194,0.681c-0.314,0.063-3.289,0.496-3.604,0.554
	c-0.548,0.101-1.167,0.285-1.55,0.276c-0.285-0.006-1.061-0.103-0.871-0.804C75.449,46.242,78.17,45.726,78.17,45.726z"/>
</svg>
