<svg xmlns="http://www.w3.org/2000/svg" version="1.1" viewBox="0 0 310 82"><path fill="#9B9B9B" d="M244 82c1.65 0 3-1.35 3-3V3c0-1.65-1.35-3-3-3h-46.8c-23.6 15.05-45.79 32.9-55.87 47.35C133.44 58.67 126.66 70.8 122.58 82H244z"/><path fill="#93C01C" d="M130.69 82H244c1.65 0 3-1.35 3-3V3c0-1.65-1.35-3-3-3h-24.52c-3.88 1.85-7.71 3.77-11.47 5.8C163.96 29.6 137.82 59.46 130.69 82z"/><path fill="#678913" d="M210.13 36.63c-5.84 1.3-12.72 4.37-15.73 2.56 -3.01-1.8-4.63-11.16-19.55-11.7 0 0-1.97 12-4.45 9.32 -2.49-2.69-5.55-0.93-5.55-0.93s0 0-0.57 5.65c-0.57 5.65 1.15 5.48-5.27 11.23 -6.42 5.74 0 0-4.97 10.2 -4.97 10.2-2.66 7.99 1.16 6.69 3.82-1.31 3.76 2.25 4.16 8.48 0.41 6.23 0 0 7.06 1.83 5.67 1.47 2.24 0.58 4.83 2.05h34.62l5.2-8.86c0 0-1.39-8.02 1.44-11.12 2.83-3.1 3.24-12.44 3.3-16C215.85 42.46 215.97 35.33 210.13 36.63z"/><path fill="#6C4813" d="M169.58 55.45c0 0 0.21 0.03 0.57 0.1 2.13 0.37 9.56 1.77 11.8 3.49 2.62 2.02-5.05-9.76-4.57-13.97 0.42-3.63 5.81 14.57 7.94 15.65 0.68 0.35 1.78 0.09 2.22 1.13 0.92 2.21 1.01 4.79 4.61 4.16 5.31-0.92 8.08-2.09 7.79-1.59 -0.29 0.5-7.07 5.88-8.91 5.45 -1.84-0.43-2.78-1.44-3.1-1.86 -0.33-0.42-2.73-1.19-2.94-0.19 -0.2 1-0.14 2.84-0.47 5.34 -0.32 2.5-2.99-0.55-1.56-3.96 1.43-3.41 3-3.04 1.18-4.81C182.32 62.63 169.58 55.45 169.58 55.45z"/><rect x="80.93" y="33.1" width="4.42" height="3.83"/><defs><rect x="119.77" y="27.88" width="1.62" height="14.28"/></defs><clipPath><use overflow="visible"/></clipPath><rect x="119.77" y="27.88" clip-path="url(#SVGID_2_)" fill="#683B11" width="0.26" height="14.28"/><rect x="120.03" y="27.88" clip-path="url(#SVGID_2_)" fill="#683B11" width="0.02" height="14.28"/><rect x="120.04" y="27.88" clip-path="url(#SVGID_2_)" fill="#6A3D11" width="0.02" height="14.28"/><rect x="120.06" y="27.88" clip-path="url(#SVGID_2_)" fill="#6B3F11" width="0.02" height="14.28"/><rect x="120.08" y="27.88" clip-path="url(#SVGID_2_)" fill="#6D4111" width="0.02" height="14.28"/><rect x="120.1" y="27.88" clip-path="url(#SVGID_2_)" fill="#6F4311" width="0.02" height="14.28"/><rect x="120.12" y="27.88" clip-path="url(#SVGID_2_)" fill="#704512" width="0.02" height="14.28"/><rect x="120.13" y="27.88" clip-path="url(#SVGID_2_)" fill="#724712" width="0.02" height="14.28"/><rect x="120.15" y="27.88" clip-path="url(#SVGID_2_)" fill="#734912" width="0.02" height="14.28"/><rect x="120.17" y="27.88" clip-path="url(#SVGID_2_)" fill="#754B12" width="0.02" height="14.28"/><rect x="120.19" y="27.88" clip-path="url(#SVGID_2_)" fill="#764C12" width="0.02" height="14.28"/><rect x="120.2" y="27.88" clip-path="url(#SVGID_2_)" fill="#784E12" width="0.02" height="14.28"/><rect x="120.22" y="27.88" clip-path="url(#SVGID_2_)" fill="#795012" width="0.02" height="14.28"/><rect x="120.24" y="27.88" clip-path="url(#SVGID_2_)" fill="#7B5212" width="0.02" height="14.28"/><rect x="120.26" y="27.88" clip-path="url(#SVGID_2_)" fill="#7C5312" width="0.02" height="14.28"/><rect x="120.28" y="27.88" clip-path="url(#SVGID_2_)" fill="#7E5512" width="0.02" height="14.28"/><rect x="120.29" y="27.88" clip-path="url(#SVGID_2_)" fill="#7F5712" width="0.02" height="14.28"/><rect x="120.31" y="27.88" clip-path="url(#SVGID_2_)" fill="#805813" width="0.02" height="14.28"/><rect x="120.33" y="27.88" clip-path="url(#SVGID_2_)" fill="#825A13" width="0.02" height="14.28"/><rect x="120.35" y="27.88" clip-path="url(#SVGID_2_)" fill="#835B13" width="0.02" height="14.28"/><rect x="120.37" y="27.88" clip-path="url(#SVGID_2_)" fill="#845D13" width="0.02" height="14.28"/><rect x="120.38" y="27.88" clip-path="url(#SVGID_2_)" fill="#855E13" width="0.02" height="14.28"/><rect x="120.4" y="27.88" clip-path="url(#SVGID_2_)" fill="#876013" width="0.02" height="14.28"/><rect x="120.42" y="27.88" clip-path="url(#SVGID_2_)" fill="#886113" width="0.02" height="14.28"/><rect x="120.44" y="27.88" clip-path="url(#SVGID_2_)" fill="#896313" width="0.02" height="14.28"/><rect x="120.45" y="27.88" clip-path="url(#SVGID_2_)" fill="#8A6413" width="0.02" height="14.28"/><rect x="120.47" y="27.88" clip-path="url(#SVGID_2_)" fill="#8B6613" width="0.02" height="14.28"/><rect x="120.49" y="27.88" clip-path="url(#SVGID_2_)" fill="#8C6713" width="0.02" height="14.28"/><rect x="120.51" y="27.88" clip-path="url(#SVGID_2_)" fill="#8D6813" width="0.02" height="14.28"/><rect x="120.53" y="27.88" clip-path="url(#SVGID_2_)" fill="#8F6A13" width="0.02" height="14.28"/><rect x="120.54" y="27.88" clip-path="url(#SVGID_2_)" fill="#906B14" width="0.02" height="14.28"/><rect x="120.56" y="27.88" clip-path="url(#SVGID_2_)" fill="#916C14" width="0.02" height="14.28"/><rect x="120.58" y="27.88" clip-path="url(#SVGID_2_)" fill="#926D14" width="0.02" height="14.28"/><rect x="120.6" y="27.88" clip-path="url(#SVGID_2_)" fill="#936E14" width="0.02" height="14.28"/><rect x="120.62" y="27.88" clip-path="url(#SVGID_2_)" fill="#947014" width="0.02" height="14.28"/><rect x="120.63" y="27.88" clip-path="url(#SVGID_2_)" fill="#947114" width="0.02" height="14.28"/><rect x="120.65" y="27.88" clip-path="url(#SVGID_2_)" fill="#957214" width="0.02" height="14.28"/><rect x="120.67" y="27.88" clip-path="url(#SVGID_2_)" fill="#967314" width="0.02" height="14.28"/><rect x="120.69" y="27.88" clip-path="url(#SVGID_2_)" fill="#977414" width="0.02" height="14.28"/><rect x="120.7" y="27.88" clip-path="url(#SVGID_2_)" fill="#987514" width="0.02" height="14.28"/><rect x="120.72" y="27.88" clip-path="url(#SVGID_2_)" fill="#997614" width="0.02" height="14.28"/><rect x="120.74" y="27.88" clip-path="url(#SVGID_2_)" fill="#9A7714" width="0.02" height="14.28"/><rect x="120.76" y="27.88" clip-path="url(#SVGID_2_)" fill="#9A7814" width="0.02" height="14.28"/><rect x="120.78" y="27.88" clip-path="url(#SVGID_2_)" fill="#9B7914" width="0.02" height="14.28"/><rect x="120.8" y="27.88" clip-path="url(#SVGID_2_)" fill="#9C7914" width="0.02" height="14.28"/><rect x="120.81" y="27.88" clip-path="url(#SVGID_2_)" fill="#9C7A14" width="0.02" height="14.28"/><rect x="120.83" y="27.88" clip-path="url(#SVGID_2_)" fill="#9D7B14" width="0.02" height="14.28"/><rect x="120.85" y="27.88" clip-path="url(#SVGID_2_)" fill="#9E7C14" width="0.02" height="14.28"/><rect x="120.87" y="27.88" clip-path="url(#SVGID_2_)" fill="#9E7D14" width="0.02" height="14.28"/><rect x="120.88" y="27.88" clip-path="url(#SVGID_2_)" fill="#9F7D14" width="0.02" height="14.28"/><rect x="120.9" y="27.88" clip-path="url(#SVGID_2_)" fill="#A07E15" width="0.02" height="14.28"/><rect x="120.92" y="27.88" clip-path="url(#SVGID_2_)" fill="#A07F15" width="0.02" height="14.28"/><rect x="120.94" y="27.88" clip-path="url(#SVGID_2_)" fill="#A17F15" width="0.02" height="14.28"/><rect x="120.96" y="27.88" clip-path="url(#SVGID_2_)" fill="#A18015" width="0.02" height="14.28"/><rect x="120.97" y="27.88" clip-path="url(#SVGID_2_)" fill="#A28115" width="0.02" height="14.28"/><rect x="120.99" y="27.88" clip-path="url(#SVGID_2_)" fill="#A28115" width="0.02" height="14.28"/><rect x="121.01" y="27.88" clip-path="url(#SVGID_2_)" fill="#A38215" width="0.02" height="14.28"/><rect x="121.03" y="27.88" clip-path="url(#SVGID_2_)" fill="#A38215" width="0.02" height="14.28"/><rect x="121.05" y="27.88" clip-path="url(#SVGID_2_)" fill="#A48315" width="0.02" height="14.28"/><rect x="121.06" y="27.88" clip-path="url(#SVGID_2_)" fill="#A48315" width="0.02" height="14.28"/><rect x="121.08" y="27.88" clip-path="url(#SVGID_2_)" fill="#A48415" width="0.02" height="14.28"/><rect x="121.1" y="27.88" clip-path="url(#SVGID_2_)" fill="#A58415" width="0.02" height="14.28"/><rect x="121.12" y="27.88" clip-path="url(#SVGID_2_)" fill="#A58415" width="0.02" height="14.28"/><rect x="121.13" y="27.88" clip-path="url(#SVGID_2_)" fill="#A58515" width="0.02" height="14.28"/><rect x="121.15" y="27.88" clip-path="url(#SVGID_2_)" fill="#A58515" width="0.02" height="14.28"/><rect x="121.17" y="27.88" clip-path="url(#SVGID_2_)" fill="#A68515" width="0.02" height="14.28"/><rect x="121.19" y="27.88" clip-path="url(#SVGID_2_)" fill="#A68615" width="0.02" height="14.28"/><rect x="121.21" y="27.88" clip-path="url(#SVGID_2_)" fill="#A68615" width="0.02" height="14.28"/><rect x="121.22" y="27.88" clip-path="url(#SVGID_2_)" fill="#A68615" width="0.02" height="14.28"/><rect x="121.24" y="27.88" clip-path="url(#SVGID_2_)" fill="#A68615" width="0.02" height="14.28"/><rect x="121.26" y="27.88" clip-path="url(#SVGID_2_)" fill="#A78715" width="0.02" height="14.28"/><rect x="121.28" y="27.88" clip-path="url(#SVGID_2_)" fill="#A78715" width="0.02" height="14.28"/><rect x="121.3" y="27.88" clip-path="url(#SVGID_2_)" fill="#A78715" width="0.02" height="14.28"/><rect x="121.31" y="27.88" clip-path="url(#SVGID_2_)" fill="#A78715" width="0.02" height="14.28"/><rect x="121.33" y="27.88" clip-path="url(#SVGID_2_)" fill="#A78715" width="0.02" height="14.28"/><rect x="121.35" y="27.88" clip-path="url(#SVGID_2_)" fill="#A78715" width="0.02" height="14.28"/><rect x="121.37" y="27.88" clip-path="url(#SVGID_2_)" fill="#A78715" width="0.02" height="14.28"/><path clip-path="url(#SVGID_2_)" fill="#A78715" d="M121.38 42.16V27.88 42.16z"/><path fill="#FBCB00" d="M120.1 47.9c0 0.72-0.58 1.29-1.3 1.29H85.98c-0.72 0-1.3-0.58-1.3-1.29V22.14c0-0.71 0.58-1.29 1.3-1.29h32.82c0.72 0 1.3 0.58 1.3 1.29V47.9z"/><rect x="121.13" y="18.97" fill="#FDCB37" width="2.44" height="32.11"/><rect x="104.89" y="17.2" fill="#3C3C3B" width="1.91" height="1.4"/><rect x="104.89" y="51.44" fill="#3C3C3B" width="1.91" height="1.4"/><rect x="100.18" y="18.16" width="11.34" height="5.67"/><rect x="100.18" y="46.47" width="11.34" height="5.67"/><path fill="#FFFFFF" d="M119.92 35.02c0 1.96-1.59 3.54-3.54 3.54 -1.95 0-3.54-1.58-3.54-3.54 0-1.96 1.58-3.54 3.54-3.54C118.33 31.48 119.92 33.06 119.92 35.02z"/><path fill="#1D1D1B" d="M116.38 38.78c-2.07 0-3.76-1.69-3.76-3.76 0-2.08 1.69-3.76 3.76-3.76 2.08 0 3.76 1.69 3.76 3.76C120.14 37.1 118.45 38.78 116.38 38.78zM116.38 31.7c-1.83 0-3.32 1.49-3.32 3.32 0 1.83 1.49 3.32 3.32 3.32 1.83 0 3.32-1.49 3.32-3.32C119.7 33.19 118.21 31.7 116.38 31.7z"/><defs><path d="M105.96 35.02c0 3.94-3.2 7.14-7.14 7.14 -3.94 0-7.14-3.2-7.14-7.14 0-3.95 3.2-7.14 7.14-7.14C102.76 27.88 105.96 31.08 105.96 35.02z"/></defs><clipPath><use overflow="visible"/></clipPath><rect x="91.67" y="27.88" clip-path="url(#SVGID_4_)" fill="#FBCB00" width="14.29" height="14.28"/><circle clip-path="url(#SVGID_4_)" fill="#FBCB00" cx="98.82" cy="35.02" r="7.14"/><circle clip-path="url(#SVGID_4_)" fill="#FBCB00" cx="98.82" cy="35.02" r="7.11"/><circle clip-path="url(#SVGID_4_)" fill="#FBCB00" cx="98.82" cy="35.02" r="7.09"/><circle clip-path="url(#SVGID_4_)" fill="#FBCB01" cx="98.82" cy="35.02" r="7.06"/><circle clip-path="url(#SVGID_4_)" fill="#FBCB01" cx="98.82" cy="35.02" r="7.03"/><circle clip-path="url(#SVGID_4_)" fill="#FBCB01" cx="98.82" cy="35.02" r="7"/><circle clip-path="url(#SVGID_4_)" fill="#FBCB02" cx="98.82" cy="35.02" r="6.97"/><circle clip-path="url(#SVGID_4_)" fill="#FBCB02" cx="98.82" cy="35.02" r="6.95"/><circle clip-path="url(#SVGID_4_)" fill="#FBCC03" cx="98.82" cy="35.02" r="6.92"/><circle clip-path="url(#SVGID_4_)" fill="#FBCC03" cx="98.82" cy="35.02" r="6.89"/><circle clip-path="url(#SVGID_4_)" fill="#FBCC04" cx="98.82" cy="35.02" r="6.86"/><path clip-path="url(#SVGID_4_)" fill="#FBCC04" d="M105.65 35.02c0 3.77-3.06 6.83-6.84 6.83s-6.83-3.06-6.83-6.83c0-3.78 3.06-6.84 6.83-6.84S105.65 31.25 105.65 35.02z"/><path clip-path="url(#SVGID_4_)" fill="#FBCC05" d="M105.63 35.02c0 3.76-3.05 6.81-6.81 6.81s-6.8-3.05-6.8-6.8c0-3.76 3.05-6.81 6.81-6.81S105.63 31.26 105.63 35.02z"/><path clip-path="url(#SVGID_4_)" fill="#FBCC05" d="M105.59 35.02c0 3.74-3.03 6.78-6.78 6.78s-6.78-3.03-6.78-6.78c0-3.75 3.04-6.78 6.78-6.78S105.59 31.28 105.59 35.02z"/><circle clip-path="url(#SVGID_4_)" fill="#FBCC06" cx="98.82" cy="35.02" r="6.75"/><path clip-path="url(#SVGID_4_)" fill="#FBCC06" d="M105.54 35.02c0 3.71-3.01 6.72-6.72 6.72 -3.71 0-6.72-3.01-6.72-6.72 0-3.71 3.01-6.72 6.72-6.72C102.53 28.3 105.54 31.31 105.54 35.02z"/><path clip-path="url(#SVGID_4_)" fill="#FBCC07" d="M105.51 35.02c0 3.7-3 6.69-6.69 6.69 -3.69 0-6.69-3-6.69-6.69 0-3.7 3-6.69 6.69-6.69C102.52 28.33 105.51 31.32 105.51 35.02z"/><path clip-path="url(#SVGID_4_)" fill="#FBCC07" d="M105.48 35.02c0 3.68-2.98 6.66-6.67 6.66 -3.68 0-6.66-2.98-6.66-6.66 0-3.68 2.98-6.67 6.66-6.67C102.5 28.36 105.48 31.34 105.48 35.02z"/><circle clip-path="url(#SVGID_4_)" fill="#FBCD08" cx="98.82" cy="35.02" r="6.64"/><circle clip-path="url(#SVGID_4_)" fill="#FBCD08" cx="98.82" cy="35.02" r="6.61"/><circle clip-path="url(#SVGID_4_)" fill="#FBCD09" cx="98.82" cy="35.02" r="6.58"/><path clip-path="url(#SVGID_4_)" fill="#FBCD09" d="M105.37 35.02c0 3.62-2.93 6.55-6.55 6.55s-6.55-2.93-6.55-6.55c0-3.62 2.93-6.55 6.56-6.55S105.37 31.4 105.37 35.02z"/><circle clip-path="url(#SVGID_4_)" fill="#FBCD0A" cx="98.82" cy="35.02" r="6.53"/><circle clip-path="url(#SVGID_4_)" fill="#FBCD0B" cx="98.82" cy="35.02" r="6.5"/><circle clip-path="url(#SVGID_4_)" fill="#FBCD0B" cx="98.82" cy="35.02" r="6.47"/><path clip-path="url(#SVGID_4_)" fill="#FBCD0C" d="M105.26 35.02c0 3.56-2.88 6.44-6.44 6.44s-6.44-2.89-6.44-6.44c0-3.56 2.88-6.44 6.44-6.44S105.26 31.47 105.26 35.02z"/><path clip-path="url(#SVGID_4_)" fill="#FBCE0D" d="M105.23 35.02c0 3.54-2.87 6.41-6.41 6.41s-6.41-2.87-6.41-6.41c0-3.54 2.87-6.41 6.41-6.41S105.23 31.48 105.23 35.02z"/><circle clip-path="url(#SVGID_4_)" fill="#FBCE0D" cx="98.82" cy="35.02" r="6.39"/><circle clip-path="url(#SVGID_4_)" fill="#FBCE0E" cx="98.82" cy="35.02" r="6.36"/><circle clip-path="url(#SVGID_4_)" fill="#FBCE0E" cx="98.82" cy="35.02" r="6.33"/><circle clip-path="url(#SVGID_4_)" fill="#FBCE0F" cx="98.82" cy="35.02" r="6.3"/><circle clip-path="url(#SVGID_4_)" fill="#FBCE10" cx="98.82" cy="35.02" r="6.27"/><path clip-path="url(#SVGID_4_)" fill="#FBCE11" d="M105.06 35.02c0 3.45-2.8 6.24-6.25 6.24s-6.25-2.79-6.25-6.24c0-3.45 2.8-6.25 6.25-6.25S105.06 31.57 105.06 35.02z"/><path clip-path="url(#SVGID_4_)" fill="#FBCF11" d="M105.04 35.02c0 3.43-2.78 6.22-6.22 6.22s-6.22-2.78-6.22-6.21c0-3.44 2.79-6.22 6.22-6.22S105.04 31.59 105.04 35.02z"/><path clip-path="url(#SVGID_4_)" fill="#FBCF12" d="M105.01 35.02c0 3.42-2.77 6.19-6.19 6.19s-6.19-2.77-6.19-6.19c0-3.42 2.77-6.19 6.19-6.19S105.01 31.6 105.01 35.02z"/><path clip-path="url(#SVGID_4_)" fill="#FBCF13" d="M104.98 35.02c0 3.4-2.76 6.16-6.16 6.16s-6.16-2.76-6.16-6.16c0-3.41 2.76-6.16 6.16-6.16S104.98 31.62 104.98 35.02z"/><path clip-path="url(#SVGID_4_)" fill="#FBCF13" d="M104.95 35.02c0 3.39-2.75 6.13-6.13 6.13s-6.13-2.75-6.13-6.13c0-3.39 2.75-6.14 6.13-6.14S104.95 31.63 104.95 35.02z"/><path clip-path="url(#SVGID_4_)" fill="#FBCF14" d="M104.92 35.02c0 3.37-2.73 6.11-6.1 6.11s-6.1-2.73-6.1-6.1c0-3.37 2.73-6.11 6.11-6.11S104.92 31.65 104.92 35.02z"/><circle clip-path="url(#SVGID_4_)" fill="#FBCF15" cx="98.82" cy="35.02" r="6.08"/><path clip-path="url(#SVGID_4_)" fill="#FBCF15" d="M104.87 35.02c0 3.34-2.71 6.05-6.05 6.05s-6.05-2.71-6.05-6.05c0-3.34 2.71-6.05 6.05-6.05S104.87 31.68 104.87 35.02z"/><path clip-path="url(#SVGID_4_)" fill="#FBD016" d="M104.84 35.02c0 3.32-2.7 6.02-6.02 6.02s-6.02-2.69-6.02-6.02c0-3.33 2.7-6.02 6.02-6.02S104.84 31.7 104.84 35.02z"/><path clip-path="url(#SVGID_4_)" fill="#FBD017" d="M104.81 35.02c0 3.31-2.69 5.99-6 5.99s-5.99-2.68-5.99-5.99c0-3.31 2.68-6 5.99-6S104.81 31.71 104.81 35.02z"/><circle clip-path="url(#SVGID_4_)" fill="#FBD018" cx="98.82" cy="35.02" r="5.97"/><circle clip-path="url(#SVGID_4_)" fill="#FBD018" cx="98.82" cy="35.02" r="5.94"/><path clip-path="url(#SVGID_4_)" fill="#FBD019" d="M104.73 35.02c0 3.26-2.64 5.91-5.91 5.91 -3.26 0-5.91-2.64-5.91-5.91 0-3.27 2.65-5.91 5.91-5.91C102.08 29.11 104.73 31.76 104.73 35.02z"/><path clip-path="url(#SVGID_4_)" fill="#FBD01A" d="M104.7 35.02c0 3.25-2.63 5.88-5.88 5.88 -3.25 0-5.88-2.63-5.88-5.88 0-3.25 2.64-5.88 5.88-5.88C102.07 29.14 104.7 31.77 104.7 35.02z"/><circle clip-path="url(#SVGID_4_)" fill="#FBD01B" cx="98.82" cy="35.02" r="5.85"/><circle clip-path="url(#SVGID_4_)" fill="#FBD11B" cx="98.82" cy="35.02" r="5.82"/><circle clip-path="url(#SVGID_4_)" fill="#FBD11C" cx="98.82" cy="35.02" r="5.8"/><path clip-path="url(#SVGID_4_)" fill="#FBD11D" d="M104.59 35.02c0 3.18-2.58 5.77-5.77 5.77s-5.77-2.59-5.77-5.77c0-3.19 2.58-5.77 5.77-5.77S104.59 31.84 104.59 35.02z"/><path clip-path="url(#SVGID_4_)" fill="#FBD11E" d="M104.56 35.02c0 3.17-2.57 5.74-5.74 5.74s-5.74-2.57-5.74-5.74c0-3.17 2.57-5.74 5.74-5.74S104.56 31.85 104.56 35.02z"/><circle clip-path="url(#SVGID_4_)" fill="#FBD11F" cx="98.82" cy="35.02" r="5.72"/><circle clip-path="url(#SVGID_4_)" fill="#FBD11F" cx="98.82" cy="35.02" r="5.69"/><circle clip-path="url(#SVGID_4_)" fill="#FCD220" cx="98.82" cy="35.02" r="5.66"/><circle clip-path="url(#SVGID_4_)" fill="#FCD221" cx="98.82" cy="35.02" r="5.63"/><circle clip-path="url(#SVGID_4_)" fill="#FCD222" cx="98.82" cy="35.02" r="5.6"/><circle clip-path="url(#SVGID_4_)" fill="#FCD223" cx="98.82" cy="35.02" r="5.57"/><circle clip-path="url(#SVGID_4_)" fill="#FCD223" cx="98.82" cy="35.02" r="5.55"/><circle clip-path="url(#SVGID_4_)" fill="#FCD224" cx="98.82" cy="35.02" r="5.52"/><circle clip-path="url(#SVGID_4_)" fill="#FCD325" cx="98.82" cy="35.02" r="5.49"/><circle clip-path="url(#SVGID_4_)" fill="#FCD326" cx="98.82" cy="35.02" r="5.46"/><path clip-path="url(#SVGID_4_)" fill="#FCD327" d="M104.25 35.02c0 3-2.43 5.43-5.43 5.43s-5.43-2.43-5.43-5.43c0-3 2.43-5.43 5.43-5.43S104.25 32.02 104.25 35.02z"/><circle clip-path="url(#SVGID_4_)" fill="#FCD328" cx="98.82" cy="35.02" r="5.41"/><path clip-path="url(#SVGID_4_)" fill="#FCD328" d="M104.2 35.02c0 2.97-2.41 5.38-5.38 5.38s-5.38-2.41-5.38-5.37c0-2.97 2.41-5.38 5.38-5.38S104.2 32.05 104.2 35.02z"/><path clip-path="url(#SVGID_4_)" fill="#FCD329" d="M104.17 35.02c0 2.95-2.39 5.35-5.35 5.35 -2.95 0-5.35-2.39-5.35-5.35 0-2.96 2.4-5.35 5.35-5.35C101.77 29.67 104.17 32.07 104.17 35.02z"/><path clip-path="url(#SVGID_4_)" fill="#FCD42A" d="M104.14 35.02c0 2.94-2.38 5.32-5.32 5.32 -2.94 0-5.32-2.38-5.32-5.32 0-2.94 2.38-5.32 5.32-5.32C101.76 29.7 104.14 32.08 104.14 35.02z"/><circle clip-path="url(#SVGID_4_)" fill="#FCD42B" cx="98.82" cy="35.02" r="5.29"/><circle clip-path="url(#SVGID_4_)" fill="#FCD42C" cx="98.82" cy="35.02" r="5.27"/><path clip-path="url(#SVGID_4_)" fill="#FCD42D" d="M104.06 35.02c0 2.89-2.34 5.23-5.24 5.23 -2.89 0-5.24-2.34-5.24-5.23 0-2.89 2.35-5.24 5.24-5.24C101.71 29.79 104.06 32.13 104.06 35.02z"/><path clip-path="url(#SVGID_4_)" fill="#FCD42E" d="M104.03 35.02c0 2.88-2.33 5.21-5.21 5.21 -2.87 0-5.21-2.33-5.21-5.21 0-2.88 2.33-5.21 5.21-5.21C101.7 29.81 104.03 32.15 104.03 35.02z"/><circle clip-path="url(#SVGID_4_)" fill="#FCD42E" cx="98.82" cy="35.02" r="5.18"/><circle clip-path="url(#SVGID_4_)" fill="#FCD52F" cx="98.82" cy="35.02" r="5.15"/><circle clip-path="url(#SVGID_4_)" fill="#FCD530" cx="98.82" cy="35.02" r="5.13"/><path clip-path="url(#SVGID_4_)" fill="#FCD531" d="M103.91 35.02c0 2.81-2.28 5.1-5.1 5.1s-5.1-2.28-5.1-5.1c0-2.82 2.28-5.1 5.1-5.1S103.91 32.21 103.91 35.02z"/><circle clip-path="url(#SVGID_4_)" fill="#FCD532" cx="98.82" cy="35.02" r="5.07"/><circle clip-path="url(#SVGID_4_)" fill="#FCD533" cx="98.82" cy="35.02" r="5.04"/><circle clip-path="url(#SVGID_4_)" fill="#FCD634" cx="98.82" cy="35.02" r="5.01"/><path clip-path="url(#SVGID_4_)" fill="#FCD635" d="M103.8 35.02c0 2.75-2.23 4.98-4.98 4.98s-4.98-2.23-4.98-4.98c0-2.75 2.23-4.99 4.98-4.99S103.8 32.27 103.8 35.02z"/><path clip-path="url(#SVGID_4_)" fill="#FCD636" d="M103.77 35.02c0 2.73-2.22 4.96-4.96 4.96s-4.96-2.22-4.96-4.96c0-2.74 2.22-4.96 4.96-4.96S103.77 32.28 103.77 35.02z"/><circle clip-path="url(#SVGID_4_)" fill="#FCD636" cx="98.82" cy="35.02" r="4.93"/><circle clip-path="url(#SVGID_4_)" fill="#FCD637" cx="98.82" cy="35.02" r="4.9"/><circle clip-path="url(#SVGID_4_)" fill="#FCD638" cx="98.82" cy="35.02" r="4.87"/><path clip-path="url(#SVGID_4_)" fill="#FCD739" d="M103.66 35.02c0 2.68-2.17 4.84-4.85 4.84s-4.84-2.17-4.84-4.84c0-2.68 2.17-4.85 4.84-4.85S103.66 32.34 103.66 35.02z"/><path clip-path="url(#SVGID_4_)" fill="#FCD73A" d="M103.63 35.02c0 2.66-2.16 4.82-4.82 4.82S94 37.68 94 35.02c0-2.66 2.16-4.82 4.82-4.82S103.63 32.36 103.63 35.02z"/><path clip-path="url(#SVGID_4_)" fill="#FCD73B" d="M103.61 35.02c0 2.65-2.14 4.79-4.79 4.79s-4.79-2.14-4.79-4.79c0-2.65 2.15-4.79 4.79-4.79S103.61 32.38 103.61 35.02z"/><path clip-path="url(#SVGID_4_)" fill="#FCD73C" d="M103.58 35.02c0 2.63-2.13 4.76-4.76 4.76s-4.76-2.13-4.76-4.76c0-2.63 2.13-4.76 4.76-4.76S103.58 32.39 103.58 35.02z"/><path clip-path="url(#SVGID_4_)" fill="#FCD73D" d="M103.55 35.02c0 2.61-2.12 4.73-4.73 4.73s-4.73-2.12-4.73-4.73c0-2.62 2.12-4.73 4.73-4.73S103.55 32.41 103.55 35.02z"/><path clip-path="url(#SVGID_4_)" fill="#FCD83E" d="M103.52 35.02c0 2.6-2.11 4.7-4.71 4.7s-4.71-2.1-4.71-4.7c0-2.6 2.11-4.71 4.71-4.71S103.52 32.42 103.52 35.02z"/><path clip-path="url(#SVGID_4_)" fill="#FCD83F" d="M103.49 35.02c0 2.58-2.09 4.68-4.68 4.68s-4.68-2.09-4.68-4.68c0-2.59 2.09-4.68 4.68-4.68S103.49 32.44 103.49 35.02z"/><path clip-path="url(#SVGID_4_)" fill="#FCD840" d="M103.47 35.02c0 2.57-2.08 4.65-4.65 4.65s-4.65-2.08-4.65-4.65c0-2.57 2.08-4.65 4.65-4.65S103.47 32.45 103.47 35.02z"/><circle clip-path="url(#SVGID_4_)" fill="#FCD841" cx="98.82" cy="35.02" r="4.62"/><circle clip-path="url(#SVGID_4_)" fill="#FCD842" cx="98.82" cy="35.02" r="4.59"/><path clip-path="url(#SVGID_4_)" fill="#FCD943" d="M103.38 35.02c0 2.52-2.04 4.56-4.57 4.56 -2.52 0-4.57-2.04-4.57-4.56 0-2.52 2.05-4.57 4.57-4.57C101.34 30.46 103.38 32.5 103.38 35.02z"/><path clip-path="url(#SVGID_4_)" fill="#FCD944" d="M103.36 35.02c0 2.5-2.03 4.54-4.54 4.54 -2.5 0-4.53-2.03-4.53-4.53 0-2.51 2.03-4.54 4.54-4.54C101.32 30.48 103.36 32.52 103.36 35.02z"/><circle clip-path="url(#SVGID_4_)" fill="#FCD945" cx="98.82" cy="35.02" r="4.51"/><circle clip-path="url(#SVGID_4_)" fill="#FCD946" cx="98.82" cy="35.02" r="4.48"/><circle clip-path="url(#SVGID_4_)" fill="#FCD946" cx="98.82" cy="35.02" r="4.45"/><path clip-path="url(#SVGID_4_)" fill="#FCDA47" d="M103.24 35.02c0 2.44-1.98 4.42-4.43 4.42 -2.44 0-4.43-1.98-4.43-4.42 0-2.44 1.98-4.43 4.43-4.43C101.26 30.6 103.24 32.58 103.24 35.02z"/><circle clip-path="url(#SVGID_4_)" fill="#FCDA48" cx="98.82" cy="35.02" r="4.4"/><circle clip-path="url(#SVGID_4_)" fill="#FCDA49" cx="98.82" cy="35.02" r="4.37"/><circle clip-path="url(#SVGID_4_)" fill="#FCDA4A" cx="98.82" cy="35.02" r="4.34"/><circle clip-path="url(#SVGID_4_)" fill="#FCDA4B" cx="98.82" cy="35.02" r="4.31"/><circle clip-path="url(#SVGID_4_)" fill="#FCDB4C" cx="98.82" cy="35.02" r="4.29"/><circle clip-path="url(#SVGID_4_)" fill="#FCDB4D" cx="98.82" cy="35.02" r="4.26"/><circle clip-path="url(#SVGID_4_)" fill="#FCDB4E" cx="98.82" cy="35.02" r="4.23"/><circle clip-path="url(#SVGID_4_)" fill="#FCDB4F" cx="98.82" cy="35.02" r="4.2"/><circle clip-path="url(#SVGID_4_)" fill="#FCDB50" cx="98.82" cy="35.02" r="4.17"/><circle clip-path="url(#SVGID_4_)" fill="#FCDC51" cx="98.82" cy="35.02" r="4.14"/><circle clip-path="url(#SVGID_4_)" fill="#FCDC52" cx="98.82" cy="35.02" r="4.12"/><circle clip-path="url(#SVGID_4_)" fill="#FCDC53" cx="98.82" cy="35.02" r="4.09"/><path clip-path="url(#SVGID_4_)" fill="#FCDC54" d="M102.88 35.02c0 2.24-1.82 4.06-4.06 4.06s-4.06-1.82-4.06-4.06c0-2.25 1.82-4.06 4.06-4.06S102.88 32.78 102.88 35.02z"/><path clip-path="url(#SVGID_4_)" fill="#FCDC55" d="M102.85 35.02c0 2.23-1.81 4.03-4.03 4.03s-4.03-1.8-4.03-4.03c0-2.23 1.81-4.03 4.03-4.03S102.85 32.79 102.85 35.02z"/><path clip-path="url(#SVGID_4_)" fill="#FCDD56" d="M102.82 35.02c0 2.21-1.79 4-4 4s-4-1.79-4-4c0-2.21 1.79-4.01 4-4.01S102.82 32.81 102.82 35.02z"/><path clip-path="url(#SVGID_4_)" fill="#FCDD57" d="M102.79 35.02c0 2.19-1.78 3.98-3.98 3.98s-3.98-1.78-3.98-3.98c0-2.2 1.78-3.98 3.98-3.98S102.79 32.82 102.79 35.02z"/><circle clip-path="url(#SVGID_4_)" fill="#FCDD58" cx="98.82" cy="35.02" r="3.95"/><circle clip-path="url(#SVGID_4_)" fill="#FCDD59" cx="98.82" cy="35.02" r="3.92"/><path clip-path="url(#SVGID_4_)" fill="#FCDD5B" d="M102.71 35.02c0 2.15-1.74 3.89-3.89 3.89 -2.15 0-3.89-1.74-3.89-3.89 0-2.15 1.75-3.89 3.9-3.89C100.97 31.13 102.71 32.87 102.71 35.02z"/><path clip-path="url(#SVGID_4_)" fill="#FCDE5C" d="M102.68 35.02c0 2.13-1.73 3.86-3.87 3.86 -2.13 0-3.86-1.73-3.86-3.86 0-2.14 1.73-3.87 3.86-3.87C100.95 31.16 102.68 32.89 102.68 35.02z"/><circle clip-path="url(#SVGID_4_)" fill="#FCDE5D" cx="98.82" cy="35.02" r="3.84"/><circle clip-path="url(#SVGID_4_)" fill="#FCDE5E" cx="98.82" cy="35.02" r="3.81"/><circle clip-path="url(#SVGID_4_)" fill="#FCDE5F" cx="98.82" cy="35.02" r="3.78"/><path clip-path="url(#SVGID_4_)" fill="#FDDF60" d="M102.57 35.02c0 2.07-1.68 3.75-3.75 3.75s-3.75-1.68-3.75-3.75c0-2.07 1.68-3.75 3.75-3.75S102.57 32.95 102.57 35.02z"/><circle clip-path="url(#SVGID_4_)" fill="#FDDF61" cx="98.82" cy="35.02" r="3.73"/><circle clip-path="url(#SVGID_4_)" fill="#FDDF62" cx="98.82" cy="35.02" r="3.7"/><circle clip-path="url(#SVGID_4_)" fill="#FDDF63" cx="98.82" cy="35.02" r="3.67"/><path clip-path="url(#SVGID_4_)" fill="#FDDF64" d="M102.46 35.02c0 2.01-1.63 3.64-3.64 3.64s-3.64-1.63-3.64-3.64c0-2.01 1.63-3.64 3.64-3.64S102.46 33.01 102.46 35.02z"/><path clip-path="url(#SVGID_4_)" fill="#FDE065" d="M102.43 35.02c0 1.99-1.62 3.61-3.61 3.61s-3.61-1.62-3.61-3.61c0-2 1.62-3.61 3.61-3.61S102.43 33.03 102.43 35.02z"/><circle clip-path="url(#SVGID_4_)" fill="#FDE066" cx="98.82" cy="35.02" r="3.59"/><circle clip-path="url(#SVGID_4_)" fill="#FDE067" cx="98.82" cy="35.02" r="3.56"/><circle clip-path="url(#SVGID_4_)" fill="#FDE068" cx="98.82" cy="35.02" r="3.53"/><circle clip-path="url(#SVGID_4_)" fill="#FDE069" cx="98.82" cy="35.02" r="3.5"/><circle clip-path="url(#SVGID_4_)" fill="#FDE16A" cx="98.82" cy="35.02" r="3.47"/><path clip-path="url(#SVGID_4_)" fill="#FDE16B" d="M102.26 35.02c0 1.9-1.54 3.45-3.44 3.45s-3.44-1.54-3.44-3.44c0-1.91 1.54-3.44 3.45-3.44S102.26 33.12 102.26 35.02z"/><path clip-path="url(#SVGID_4_)" fill="#FDE16C" d="M102.23 35.02c0 1.89-1.53 3.41-3.42 3.41s-3.42-1.53-3.42-3.41c0-1.89 1.53-3.42 3.42-3.42S102.23 33.13 102.23 35.02z"/><path clip-path="url(#SVGID_4_)" fill="#FDE16E" d="M102.21 35.02c0 1.87-1.52 3.39-3.39 3.39s-3.39-1.52-3.39-3.39c0-1.87 1.52-3.39 3.39-3.39S102.21 33.15 102.21 35.02z"/><path clip-path="url(#SVGID_4_)" fill="#FDE26F" d="M102.18 35.02c0 1.86-1.51 3.36-3.36 3.36s-3.36-1.5-3.36-3.36c0-1.86 1.5-3.36 3.36-3.36S102.18 33.16 102.18 35.02z"/><path clip-path="url(#SVGID_4_)" fill="#FDE270" d="M102.15 35.02c0 1.84-1.49 3.33-3.33 3.33s-3.33-1.49-3.33-3.33c0-1.84 1.49-3.34 3.33-3.34S102.15 33.18 102.15 35.02z"/><path clip-path="url(#SVGID_4_)" fill="#FDE271" d="M102.12 35.02c0 1.82-1.48 3.31-3.3 3.31s-3.3-1.48-3.3-3.3c0-1.83 1.48-3.3 3.31-3.3S102.12 33.2 102.12 35.02z"/><path clip-path="url(#SVGID_4_)" fill="#FDE272" d="M102.09 35.02c0 1.81-1.47 3.27-3.28 3.27s-3.28-1.46-3.28-3.27c0-1.81 1.47-3.28 3.28-3.28S102.09 33.21 102.09 35.02z"/><path clip-path="url(#SVGID_4_)" fill="#FDE273" d="M102.07 35.02c0 1.79-1.46 3.25-3.25 3.25s-3.25-1.45-3.25-3.25c0-1.8 1.46-3.25 3.25-3.25S102.07 33.23 102.07 35.02z"/><path clip-path="url(#SVGID_4_)" fill="#FDE374" d="M102.04 35.02c0 1.78-1.44 3.22-3.22 3.22s-3.22-1.44-3.22-3.22c0-1.78 1.44-3.22 3.22-3.22S102.04 33.24 102.04 35.02z"/><path clip-path="url(#SVGID_4_)" fill="#FDE375" d="M102.01 35.02c0 1.76-1.43 3.19-3.19 3.19s-3.19-1.43-3.19-3.19c0-1.77 1.43-3.19 3.19-3.19S102.01 33.26 102.01 35.02z"/><circle clip-path="url(#SVGID_4_)" fill="#FDE376" cx="98.82" cy="35.02" r="3.16"/><circle clip-path="url(#SVGID_4_)" fill="#FDE377" cx="98.82" cy="35.02" r="3.14"/><circle clip-path="url(#SVGID_4_)" fill="#FDE478" cx="98.82" cy="35.02" r="3.11"/><path clip-path="url(#SVGID_4_)" fill="#FDE47A" d="M101.9 35.02c0 1.7-1.38 3.08-3.08 3.08 -1.7 0-3.08-1.38-3.08-3.08 0-1.7 1.38-3.08 3.08-3.08C100.52 31.94 101.9 33.32 101.9 35.02z"/><circle clip-path="url(#SVGID_4_)" fill="#FDE47B" cx="98.82" cy="35.02" r="3.05"/><path clip-path="url(#SVGID_4_)" fill="#FDE47C" d="M101.84 35.02c0 1.67-1.35 3.02-3.03 3.02 -1.67 0-3.02-1.35-3.02-3.02 0-1.67 1.36-3.03 3.02-3.03C100.49 32 101.84 33.35 101.84 35.02z"/><circle clip-path="url(#SVGID_4_)" fill="#FDE47D" cx="98.82" cy="35.02" r="3"/><path clip-path="url(#SVGID_4_)" fill="#FDE57E" d="M101.79 35.02c0 1.64-1.33 2.97-2.97 2.97s-2.97-1.33-2.97-2.97c0-1.64 1.33-2.97 2.97-2.97S101.79 33.38 101.79 35.02z"/><circle clip-path="url(#SVGID_4_)" fill="#FDE57F" cx="98.82" cy="35.02" r="2.94"/><circle clip-path="url(#SVGID_4_)" fill="#FDE580" cx="98.82" cy="35.02" r="2.91"/><circle clip-path="url(#SVGID_4_)" fill="#FDE581" cx="98.82" cy="35.02" r="2.89"/><circle clip-path="url(#SVGID_4_)" fill="#FDE683" cx="98.82" cy="35.02" r="2.86"/><circle clip-path="url(#SVGID_4_)" fill="#FDE684" cx="98.82" cy="35.02" r="2.83"/><circle clip-path="url(#SVGID_4_)" fill="#FDE685" cx="98.82" cy="35.02" r="2.8"/><circle clip-path="url(#SVGID_4_)" fill="#FDE686" cx="98.82" cy="35.02" r="2.77"/><circle clip-path="url(#SVGID_4_)" fill="#FDE787" cx="98.82" cy="35.02" r="2.75"/><circle clip-path="url(#SVGID_4_)" fill="#FDE788" cx="98.82" cy="35.02" r="2.72"/><circle clip-path="url(#SVGID_4_)" fill="#FDE789" cx="98.82" cy="35.02" r="2.69"/><path clip-path="url(#SVGID_4_)" fill="#FDE78A" d="M101.48 35.02c0 1.47-1.19 2.66-2.66 2.66s-2.66-1.19-2.66-2.66c0-1.47 1.19-2.66 2.66-2.66S101.48 33.55 101.48 35.02z"/><path clip-path="url(#SVGID_4_)" fill="#FDE78C" d="M101.45 35.02c0 1.45-1.18 2.63-2.63 2.63s-2.63-1.18-2.63-2.63c0-1.46 1.18-2.63 2.63-2.63S101.45 33.57 101.45 35.02z"/><path clip-path="url(#SVGID_4_)" fill="#FDE88D" d="M101.42 35.02c0 1.44-1.17 2.6-2.6 2.6s-2.6-1.16-2.6-2.6c0-1.44 1.17-2.6 2.61-2.6S101.42 33.58 101.42 35.02z"/><path clip-path="url(#SVGID_4_)" fill="#FDE88E" d="M101.4 35.02c0 1.42-1.15 2.57-2.58 2.57 -1.42 0-2.57-1.15-2.57-2.57 0-1.43 1.15-2.58 2.57-2.58C100.24 32.45 101.4 33.6 101.4 35.02z"/><path clip-path="url(#SVGID_4_)" fill="#FDE88F" d="M101.37 35.02c0 1.41-1.14 2.55-2.55 2.55 -1.41 0-2.55-1.14-2.55-2.55 0-1.41 1.14-2.55 2.55-2.55C100.23 32.47 101.37 33.61 101.37 35.02z"/><path clip-path="url(#SVGID_4_)" fill="#FDE890" d="M101.34 35.02c0 1.39-1.12 2.52-2.52 2.52 -1.39 0-2.52-1.13-2.52-2.52 0-1.39 1.13-2.52 2.52-2.52C100.21 32.5 101.34 33.63 101.34 35.02z"/><circle clip-path="url(#SVGID_4_)" fill="#FDE991" cx="98.82" cy="35.02" r="2.49"/><circle clip-path="url(#SVGID_4_)" fill="#FDE993" cx="98.82" cy="35.02" r="2.47"/><path clip-path="url(#SVGID_4_)" fill="#FDE994" d="M101.25 35.02c0 1.34-1.09 2.43-2.44 2.43 -1.34 0-2.44-1.09-2.44-2.43 0-1.35 1.09-2.44 2.44-2.44C100.16 32.59 101.25 33.68 101.25 35.02z"/><path clip-path="url(#SVGID_4_)" fill="#FDE995" d="M101.23 35.02c0 1.33-1.08 2.41-2.41 2.41 -1.33 0-2.41-1.08-2.41-2.41 0-1.33 1.08-2.41 2.41-2.41C100.15 32.61 101.23 33.69 101.23 35.02z"/><circle clip-path="url(#SVGID_4_)" fill="#FDEA96" cx="98.82" cy="35.02" r="2.38"/><circle clip-path="url(#SVGID_4_)" fill="#FDEA97" cx="98.82" cy="35.02" r="2.35"/><circle clip-path="url(#SVGID_4_)" fill="#FDEA98" cx="98.82" cy="35.02" r="2.32"/><path clip-path="url(#SVGID_4_)" fill="#FDEA9A" d="M101.11 35.02c0 1.27-1.03 2.3-2.3 2.3s-2.3-1.03-2.3-2.3c0-1.27 1.03-2.3 2.3-2.3S101.11 33.75 101.11 35.02z"/><circle clip-path="url(#SVGID_4_)" fill="#FDEB9B" cx="98.82" cy="35.02" r="2.27"/><circle clip-path="url(#SVGID_4_)" fill="#FDEB9C" cx="98.82" cy="35.02" r="2.24"/><circle clip-path="url(#SVGID_4_)" fill="#FDEB9D" cx="98.82" cy="35.02" r="2.21"/><path clip-path="url(#SVGID_4_)" fill="#FDEB9E" d="M101 35.02c0 1.2-0.98 2.18-2.18 2.18s-2.18-0.98-2.18-2.18c0-1.21 0.98-2.19 2.18-2.19S101 33.82 101 35.02z"/><path clip-path="url(#SVGID_4_)" fill="#FEEC9F" d="M100.97 35.02c0 1.19-0.96 2.16-2.16 2.16s-2.16-0.97-2.16-2.16c0-1.19 0.97-2.16 2.16-2.16S100.97 33.83 100.97 35.02z"/><circle clip-path="url(#SVGID_4_)" fill="#FEECA1" cx="98.82" cy="35.02" r="2.13"/><circle clip-path="url(#SVGID_4_)" fill="#FEECA2" cx="98.82" cy="35.02" r="2.1"/><circle clip-path="url(#SVGID_4_)" fill="#FEECA3" cx="98.82" cy="35.02" r="2.07"/><path clip-path="url(#SVGID_4_)" fill="#FEECA4" d="M100.86 35.02c0 1.13-0.91 2.04-2.04 2.04s-2.04-0.91-2.04-2.04c0-1.13 0.91-2.05 2.04-2.05S100.86 33.89 100.86 35.02z"/><path clip-path="url(#SVGID_4_)" fill="#FEEDA5" d="M100.83 35.02c0 1.11-0.9 2.02-2.02 2.02s-2.02-0.9-2.02-2.02c0-1.12 0.9-2.02 2.02-2.02S100.83 33.91 100.83 35.02z"/><path clip-path="url(#SVGID_4_)" fill="#FEEDA7" d="M100.81 35.02c0 1.1-0.89 1.99-1.99 1.99s-1.99-0.89-1.99-1.99c0-1.1 0.89-1.99 1.99-1.99S100.81 33.92 100.81 35.02z"/><path clip-path="url(#SVGID_4_)" fill="#FEEDA8" d="M100.78 35.02c0 1.08-0.88 1.96-1.96 1.96s-1.96-0.88-1.96-1.96c0-1.09 0.88-1.96 1.96-1.96S100.78 33.94 100.78 35.02z"/><path clip-path="url(#SVGID_4_)" fill="#FEEDA9" d="M100.75 35.02c0 1.07-0.87 1.93-1.93 1.93s-1.93-0.86-1.93-1.93c0-1.07 0.87-1.93 1.93-1.93S100.75 33.95 100.75 35.02z"/><path clip-path="url(#SVGID_4_)" fill="#FEEEAA" d="M100.72 35.02c0 1.05-0.85 1.9-1.91 1.9s-1.9-0.85-1.9-1.9c0-1.05 0.85-1.91 1.9-1.91S100.72 33.97 100.72 35.02z"/><path clip-path="url(#SVGID_4_)" fill="#FEEEAB" d="M100.7 35.02c0 1.03-0.84 1.88-1.88 1.88s-1.87-0.84-1.87-1.87c0-1.04 0.84-1.88 1.88-1.88S100.7 33.98 100.7 35.02z"/><path clip-path="url(#SVGID_4_)" fill="#FEEEAD" d="M100.66 35.02c0 1.02-0.83 1.85-1.85 1.85s-1.85-0.83-1.85-1.85c0-1.02 0.83-1.85 1.85-1.85S100.66 34 100.66 35.02z"/><circle clip-path="url(#SVGID_4_)" fill="#FEEEAE" cx="98.82" cy="35.02" r="1.82"/><path clip-path="url(#SVGID_4_)" fill="#FEEFAF" d="M100.61 35.02c0 0.99-0.8 1.79-1.79 1.79s-1.79-0.8-1.79-1.79c0-0.99 0.81-1.79 1.79-1.79S100.61 34.03 100.61 35.02z"/><path clip-path="url(#SVGID_4_)" fill="#FEEFB0" d="M100.58 35.02c0 0.97-0.79 1.76-1.77 1.76 -0.97 0-1.77-0.79-1.77-1.76 0-0.98 0.79-1.77 1.77-1.77C99.79 33.26 100.58 34.05 100.58 35.02z"/><path clip-path="url(#SVGID_4_)" fill="#FEEFB1" d="M100.56 35.02c0 0.96-0.78 1.73-1.74 1.73 -0.96 0-1.73-0.78-1.73-1.73 0-0.96 0.78-1.74 1.73-1.74C99.78 33.28 100.56 34.06 100.56 35.02z"/><circle clip-path="url(#SVGID_4_)" fill="#FEEFB3" cx="98.82" cy="35.02" r="1.71"/><circle clip-path="url(#SVGID_4_)" fill="#FEF0B4" cx="98.82" cy="35.02" r="1.68"/><circle clip-path="url(#SVGID_4_)" fill="#FEF0B5" cx="98.82" cy="35.02" r="1.65"/><path clip-path="url(#SVGID_4_)" fill="#FEF0B6" d="M100.44 35.02c0 0.9-0.73 1.63-1.62 1.63 -0.89 0-1.62-0.73-1.62-1.62 0-0.9 0.73-1.62 1.63-1.62C99.72 33.4 100.44 34.13 100.44 35.02z"/><circle clip-path="url(#SVGID_4_)" fill="#FEF0B7" cx="98.82" cy="35.02" r="1.6"/><circle clip-path="url(#SVGID_4_)" fill="#FEF1B9" cx="98.82" cy="35.02" r="1.57"/><circle clip-path="url(#SVGID_4_)" fill="#FEF1BA" cx="98.82" cy="35.02" r="1.54"/><circle clip-path="url(#SVGID_4_)" fill="#FEF1BB" cx="98.82" cy="35.02" r="1.51"/><circle clip-path="url(#SVGID_4_)" fill="#FEF1BC" cx="98.82" cy="35.02" r="1.48"/><circle clip-path="url(#SVGID_4_)" fill="#FEF2BE" cx="98.82" cy="35.02" r="1.46"/><circle clip-path="url(#SVGID_4_)" fill="#FEF2BF" cx="98.82" cy="35.02" r="1.43"/><circle clip-path="url(#SVGID_4_)" fill="#FEF2C0" cx="98.82" cy="35.02" r="1.4"/><circle clip-path="url(#SVGID_4_)" fill="#FEF2C1" cx="98.82" cy="35.02" r="1.37"/><circle clip-path="url(#SVGID_4_)" fill="#FEF3C3" cx="98.82" cy="35.02" r="1.34"/><circle clip-path="url(#SVGID_4_)" fill="#FEF3C4" cx="98.82" cy="35.02" r="1.32"/><circle clip-path="url(#SVGID_4_)" fill="#FEF3C5" cx="98.82" cy="35.02" r="1.29"/><path clip-path="url(#SVGID_4_)" fill="#FEF3C6" d="M100.08 35.02c0 0.7-0.57 1.26-1.26 1.26s-1.26-0.56-1.26-1.26c0-0.7 0.57-1.26 1.26-1.26S100.08 34.32 100.08 35.02z"/><path clip-path="url(#SVGID_4_)" fill="#FEF4C8" d="M100.05 35.02c0 0.68-0.56 1.23-1.23 1.23s-1.23-0.55-1.23-1.23c0-0.68 0.55-1.23 1.23-1.23S100.05 34.34 100.05 35.02z"/><path clip-path="url(#SVGID_4_)" fill="#FEF4C9" d="M100.02 35.02c0 0.66-0.54 1.2-1.21 1.2s-1.2-0.54-1.2-1.2c0-0.67 0.54-1.21 1.2-1.21S100.02 34.35 100.02 35.02z"/><path clip-path="url(#SVGID_4_)" fill="#FEF4CA" d="M99.99 35.02c0 0.65-0.52 1.18-1.18 1.18 -0.65 0-1.18-0.53-1.18-1.18 0-0.65 0.53-1.18 1.18-1.18C99.47 33.84 99.99 34.37 99.99 35.02z"/><circle clip-path="url(#SVGID_4_)" fill="#FEF4CB" cx="98.82" cy="35.02" r="1.15"/><path clip-path="url(#SVGID_4_)" fill="#FEF5CD" d="M99.94 35.02c0 0.62-0.5 1.12-1.12 1.12 -0.62 0-1.12-0.5-1.12-1.12 0-0.62 0.5-1.12 1.12-1.12C99.44 33.9 99.94 34.4 99.94 35.02z"/><path clip-path="url(#SVGID_4_)" fill="#FEF5CE" d="M99.91 35.02c0 0.6-0.49 1.09-1.09 1.09 -0.6 0-1.09-0.49-1.09-1.09 0-0.6 0.49-1.09 1.09-1.09C99.42 33.93 99.91 34.42 99.91 35.02z"/><path clip-path="url(#SVGID_4_)" fill="#FEF5CF" d="M99.88 35.02c0 0.59-0.48 1.06-1.07 1.06 -0.59 0-1.06-0.48-1.06-1.06 0-0.59 0.48-1.07 1.06-1.07C99.41 33.96 99.88 34.43 99.88 35.02z"/><circle clip-path="url(#SVGID_4_)" fill="#FEF5D0" cx="98.82" cy="35.02" r="1.03"/><circle clip-path="url(#SVGID_4_)" fill="#FEF6D2" cx="98.82" cy="35.02" r="1.01"/><circle clip-path="url(#SVGID_4_)" fill="#FEF6D3" cx="98.82" cy="35.02" r="0.98"/><path clip-path="url(#SVGID_4_)" fill="#FEF6D4" d="M99.77 35.02c0 0.52-0.43 0.95-0.95 0.95s-0.95-0.43-0.95-0.95c0-0.53 0.43-0.95 0.95-0.95S99.77 34.5 99.77 35.02z"/><circle clip-path="url(#SVGID_4_)" fill="#FEF7D5" cx="98.82" cy="35.02" r="0.93"/><circle clip-path="url(#SVGID_4_)" fill="#FEF7D7" cx="98.82" cy="35.02" r="0.9"/><circle clip-path="url(#SVGID_4_)" fill="#FEF7D8" cx="98.82" cy="35.02" r="0.87"/><path clip-path="url(#SVGID_4_)" fill="#FEF7D9" d="M99.66 35.02c0 0.46-0.37 0.84-0.84 0.84s-0.84-0.38-0.84-0.84c0-0.46 0.38-0.84 0.84-0.84S99.66 34.56 99.66 35.02z"/><path clip-path="url(#SVGID_4_)" fill="#FEF8DB" d="M99.63 35.02c0 0.45-0.36 0.81-0.81 0.81s-0.81-0.37-0.81-0.81c0-0.45 0.36-0.81 0.81-0.81S99.63 34.57 99.63 35.02z"/><circle clip-path="url(#SVGID_4_)" fill="#FEF8DC" cx="98.82" cy="35.02" r="0.79"/><circle clip-path="url(#SVGID_4_)" fill="#FEF8DD" cx="98.82" cy="35.02" r="0.76"/><circle clip-path="url(#SVGID_4_)" fill="#FEF8DE" cx="98.82" cy="35.02" r="0.73"/><circle clip-path="url(#SVGID_4_)" fill="#FFF9E0" cx="98.82" cy="35.02" r="0.7"/><circle clip-path="url(#SVGID_4_)" fill="#FFF9E1" cx="98.82" cy="35.02" r="0.67"/><path clip-path="url(#SVGID_4_)" fill="#FFF9E2" d="M99.46 35.02c0 0.36-0.29 0.64-0.64 0.64s-0.64-0.28-0.64-0.64c0-0.36 0.29-0.64 0.65-0.64S99.46 34.66 99.46 35.02z"/><path clip-path="url(#SVGID_4_)" fill="#FFF9E4" d="M99.43 35.02c0 0.34-0.28 0.61-0.62 0.61s-0.62-0.27-0.62-0.61c0-0.34 0.28-0.62 0.62-0.62S99.43 34.68 99.43 35.02z"/><path clip-path="url(#SVGID_4_)" fill="#FFFAE5" d="M99.41 35.02c0 0.32-0.27 0.59-0.59 0.59s-0.59-0.26-0.59-0.59c0-0.33 0.27-0.59 0.59-0.59S99.41 34.7 99.41 35.02z"/><path clip-path="url(#SVGID_4_)" fill="#FFFAE6" d="M99.38 35.02c0 0.31-0.25 0.56-0.56 0.56s-0.56-0.25-0.56-0.56c0-0.31 0.25-0.56 0.56-0.56S99.38 34.71 99.38 35.02z"/><path clip-path="url(#SVGID_4_)" fill="#FFFAE7" d="M99.35 35.02c0 0.29-0.24 0.53-0.53 0.53s-0.53-0.24-0.53-0.53c0-0.3 0.24-0.53 0.53-0.53S99.35 34.73 99.35 35.02z"/><path clip-path="url(#SVGID_4_)" fill="#FFFAE9" d="M99.32 35.02c0 0.28-0.23 0.5-0.5 0.5s-0.5-0.23-0.5-0.5c0-0.28 0.23-0.5 0.5-0.5S99.32 34.74 99.32 35.02z"/><circle clip-path="url(#SVGID_4_)" fill="#FFFBEA" cx="98.82" cy="35.02" r="0.48"/><path clip-path="url(#SVGID_4_)" fill="#FFFBEB" d="M99.27 35.02c0 0.25-0.2 0.45-0.45 0.45s-0.45-0.2-0.45-0.44c0-0.25 0.2-0.45 0.45-0.45S99.27 34.77 99.27 35.02z"/><path clip-path="url(#SVGID_4_)" fill="#FFFBED" d="M99.24 35.02c0 0.23-0.19 0.42-0.42 0.42s-0.42-0.19-0.42-0.42c0-0.23 0.19-0.42 0.42-0.42S99.24 34.79 99.24 35.02z"/><path clip-path="url(#SVGID_4_)" fill="#FFFCEE" d="M99.21 35.02c0 0.22-0.18 0.39-0.39 0.39 -0.21 0-0.39-0.18-0.39-0.39 0-0.22 0.18-0.39 0.39-0.39C99.04 34.63 99.21 34.81 99.21 35.02z"/><circle clip-path="url(#SVGID_4_)" fill="#FFFCEF" cx="98.82" cy="35.02" r="0.36"/><circle clip-path="url(#SVGID_4_)" fill="#FFFCF1" cx="98.82" cy="35.02" r="0.34"/><path clip-path="url(#SVGID_4_)" fill="#FFFCF2" d="M99.13 35.02c0 0.17-0.14 0.31-0.31 0.31 -0.17 0-0.31-0.14-0.31-0.3 0-0.17 0.14-0.31 0.31-0.31C98.99 34.72 99.13 34.85 99.13 35.02z"/><path clip-path="url(#SVGID_4_)" fill="#FFFDF3" d="M99.1 35.02c0 0.15-0.12 0.28-0.28 0.28 -0.15 0-0.28-0.12-0.28-0.28 0-0.16 0.13-0.28 0.28-0.28C98.97 34.74 99.1 34.87 99.1 35.02z"/><circle clip-path="url(#SVGID_4_)" fill="#FFFDF4" cx="98.82" cy="35.02" r="0.25"/><circle clip-path="url(#SVGID_4_)" fill="#FFFDF6" cx="98.82" cy="35.02" r="0.22"/><circle clip-path="url(#SVGID_4_)" fill="#FFFDF7" cx="98.82" cy="35.02" r="0.2"/><path clip-path="url(#SVGID_4_)" fill="#FFFEF8" d="M98.98 35.02c0 0.09-0.07 0.17-0.17 0.17s-0.17-0.08-0.17-0.17c0-0.09 0.07-0.17 0.17-0.17S98.98 34.93 98.98 35.02z"/><path clip-path="url(#SVGID_4_)" fill="#FFFEFA" d="M98.96 35.02c0 0.07-0.06 0.14-0.14 0.14s-0.14-0.07-0.14-0.14c0-0.08 0.06-0.14 0.14-0.14S98.96 34.95 98.96 35.02z"/><circle clip-path="url(#SVGID_4_)" fill="#FFFEFB" cx="98.82" cy="35.02" r="0.11"/><circle clip-path="url(#SVGID_4_)" fill="#FFFEFC" cx="98.82" cy="35.02" r="0.08"/><circle clip-path="url(#SVGID_4_)" fill="#FFFFFE" cx="98.82" cy="35.02" r="0.06"/><circle clip-path="url(#SVGID_4_)" fill="#FFFFFF" cx="98.82" cy="35.02" r="0.03"/><path fill="#B1B1B1" d="M208.95 72.63l-13.35-5.58 0.26-0.61 13.35 5.58L208.95 72.63zM171.04 56.77l-13.35-5.58 0.26-0.61 13.35 5.58L171.04 56.77zM133.14 40.91l-13.35-5.58 0.26-0.61 13.35 5.58L133.14 40.91z"/><path fill="#B1B1B1" d="M246.62 61l-5.96-1.18 0.13-0.65 5.96 1.18L246.62 61zM214.57 54.54l-14.18-2.87 0.13-0.65 14.18 2.87L214.57 54.54zM174.3 46.38l-14.18-2.87 0.13-0.65 14.18 2.87L174.3 46.38zM134.04 38.22l-14.18-2.87 0.13-0.65 14.18 2.87L134.04 38.22z"/><path fill="#B1B1B1" d="M119.98 35.35l-0.13-0.65 14.2-2.76 0.13 0.65L119.98 35.35zM160.32 27.52l-0.13-0.65 14.2-2.76 0.13 0.65L160.32 27.52zM200.65 19.69l-0.13-0.65 14.2-2.76 0.13 0.65L200.65 19.69zM240.99 11.87l-0.13-0.65 5.62-1.16 0.13 0.65L240.99 11.87z"/><path fill="#B1B1B1" d="M120.05 35.33l-0.25-0.61 13.38-5.5 0.25 0.61L120.05 35.33zM158.05 19.72l-0.25-0.61 13.38-5.5 0.25 0.61L158.05 19.72zM196.06 4.12l-0.25-0.61 8-3.3 0.25 0.61L196.06 4.12z"/><path fill="#1D1D1B" d="M247 35.35h-3.82v-0.66H247V35.35zM216.56 35.35h-14.47v-0.66h14.47V35.35zM175.48 35.35h-14.47v-0.66h14.47V35.35zM134.39 35.35H119.92v-0.66h14.47V35.35z"/><path fill="#8DA800" d="M244 1c1.1 0 2 0.9 2 2v76c0 1.1-0.9 2-2 2H66c-1.1 0-2-0.9-2-2V3c0-1.1 0.9-2 2-2H244M244 0H66c-1.65 0-3 1.35-3 3v76c0 1.65 1.35 3 3 3h178c1.65 0 3-1.35 3-3V3C247 1.35 245.65 0 244 0L244 0z"/></svg>