<svg  xmlns="http://www.w3.org/2000/svg" width="36" height="90" viewBox="18 0 36 90">
<path transform="scale(2)" fill="#333333" d="M11.997 10.003c0.036 0.035 0.075 0.071 0.113 0.104l6.735 6.56-6.795 6.619c-0.017 0.016-0.033 0.032-0.051 0.048l-0.003-13.331zM12 7.333c-1.472 0-2.667 1.195-2.667 2.667v13.333c0 1.472 1.195 2.667 2.667 2.667 0.724 0 1.377-0.291 1.857-0.757 3.525-3.431 8.809-8.576 8.809-8.576s-5.284-5.145-8.805-8.577c-0.484-0.465-1.137-0.756-1.861-0.756z"></path>
<path transform=" translate(20,40) scale(0.1)" fill="#333333" d="M0 180H60V200H80V20h20V0h40V20h20v80h40v20h60v20h40v20h20v20h20V320H320v60H300v60H100V380H80V340H60V300H40V260H20V240H0V180"/>
<path transform=" translate(20,40) scale(0.1)" fill="#fff" d="M20 200H60V220H80v60h20V20h40V200h20V120h40v80h20V140h40v80h20V160h20V180h20V320H300v60H280v40H120V380H100V340H80V300H60V260H40V240H20V200"/>
</svg>
