<?xml version="1.0" encoding="utf-8"?>
<!-- Generator: Adobe Illustrator 22.1.0, SVG Export Plug-In . SVG Version: 6.00 Build 0)  -->
<svg version="1.1" id="Ebene_1" xmlns="http://www.w3.org/2000/svg" xmlns:xlink="http://www.w3.org/1999/xlink" x="0px" y="0px"
	 viewBox="0 0 17 48" style="enable-background:new 0 0 17 48;" xml:space="preserve">
<style type="text/css">
	.st0{fill:#EAF0BB;}
	.st1{fill:#FFFFFF;}
	.st2{fill:#BACC1E;}
</style>
<rect x="0" class="st0" width="17" height="48"/>
<g>
	<g>
		<path class="st1" d="M3,48H0V34.3l9.5,0.6l2.4-5.3c1.8-6.3,1.6-10.8-0.4-13.2c-1.7-2.1-5.1-3.1-10-2.8L0,13.7V0h3v10.5
			c5.2,0,8.7,1.3,10.9,4c2.7,3.3,3,8.6,0.9,16l-0.1,0.2L11.4,38L3,37.5V48z"/>
	</g>
</g>
<path class="st2" d="M0,34.3l9.5,0.6l2.4-5.3c1.8-6.3,1.6-10.8-0.4-13.2c-1.7-2.1-5.1-3.1-10-2.8L0,13.7V34.3z"/>
</svg>
