<?xml version="1.0" encoding="utf-8"?>
<!-- Generator: Adobe Illustrator 16.0.3, SVG Export Plug-In . SVG Version: 6.00 Build 0)  -->
<svg version="1.2" baseProfile="tiny" xmlns="http://www.w3.org/2000/svg" xmlns:xlink="http://www.w3.org/1999/xlink" x="0px"
	 y="0px" width="240.379px" height="89.639px" viewBox="1231.833 189.867 240.379 89.639" xml:space="preserve">
<g id="Ebene_2">
</g>
<g id="Ebene_1">
	<path id="_x37_9_3_" fill="#F29400" d="M1285.896,229.914c0-1.105,0.896-2,2-2h13h2.5l5,5l5-5h2.5h46.583v4.1l-5.153-0.469
		c0,0-1.097,3.125-1.33,4.656c-0.234,1.531-0.25,3.703,0.405,5.078c0.656,1.375,1.984,2.688,3.484,2.953
		c1.5,0.264,2.375,0.203,2.594,0.219v3.5v13h-46.583h-3.5l-4,4l-4-4h-3.5h-13c-1.104,0-2-0.896-2-2V229.914z"/>
	<path id="_x32_2_3_" fill="#EB6A0A" d="M1231.833,189.869h15h2.5l5,5l5-5h2.5h69.75v4.1l-5.154-0.469c0,0-1.096,3.125-1.33,4.656
		c-0.233,1.531-0.25,3.703,0.406,5.078s1.984,2.688,3.484,2.953c1.5,0.264,2.375,0.203,2.594,0.219v3.5v17h-15.684h-3.5l-4,4l-4-4
		h-3.5h-14c-1.104,0-2,0.895-2,2v34.6c0,1.105,0.896,2,2,2h44.684v10h-69.75h-3.5l-4,4l-4-4h-3.5h-15V189.869z"/>
	<path id="_x33_1_3_" fill="#33B8CA" d="M1332.629,189.867h20h119.583v37h-139.583v-17v-5c-4.217,0.098-4.471-0.541-5.281-1.609
		c-1.108-1.459-1.159-3.82-0.159-7.119l0.33-1.063l5.11,0.441v-5.201V189.867z M1468.246,194.867h-117.018v1v4.1l-5.153-0.469
		c0,0-1.097,3.125-1.33,4.656c-0.234,1.531-0.25,3.703,0.406,5.078c0.655,1.375,1.983,2.688,3.483,2.953
		c1.5,0.264,2.375,0.203,2.594,0.219v3.5v6h117.018V194.867z"/>
	<path id="_x39_7_3_" fill="#B1C800" d="M1352.259,195.949h115.017v25h-115.017v-5v-5c-4.217,0.098-4.471-0.541-5.281-1.609
		c-1.108-1.459-1.159-3.82-0.159-7.119l0.33-1.063l5.11,0.441v-5.201V195.949z"/>
	<g>
		<path fill="#FFFFFF" d="M1244.599,209.002l0.158,1.066l0.035,0.006l0.229-1.072l1.564-5.578h1.02l1.576,5.578l0.234,1.096h0.035
			l0.17-1.096l1.271-5.578h1.154l-2.057,8.531h-1.031l-1.682-5.918l-0.152-0.768h-0.035l-0.146,0.768l-1.711,5.918h-1.031
			l-2.051-8.531h1.148L1244.599,209.002z"/>
		<path fill="#FFFFFF" d="M1255.72,212.078c-0.883,0-1.585-0.293-2.106-0.881s-0.782-1.352-0.782-2.289v-0.258
			c0-0.902,0.269-1.652,0.806-2.252s1.173-0.9,1.907-0.9c0.855,0,1.502,0.258,1.939,0.773s0.656,1.203,0.656,2.063v0.721h-4.113
			l-0.018,0.029c0.012,0.607,0.166,1.107,0.463,1.5c0.297,0.391,0.713,0.586,1.248,0.586c0.391,0,0.733-0.055,1.028-0.166
			s0.55-0.266,0.765-0.461l0.451,0.752c-0.227,0.223-0.525,0.41-0.896,0.559C1256.696,212.004,1256.247,212.078,1255.72,212.078z
			 M1255.544,206.406c-0.387,0-0.717,0.162-0.99,0.488c-0.273,0.324-0.441,0.732-0.504,1.223l0.012,0.029h2.924v-0.15
			c0-0.453-0.121-0.83-0.363-1.135C1256.38,206.559,1256.021,206.406,1255.544,206.406z"/>
		<path fill="#FFFFFF" d="M1260.466,205.615l0.082,0.943c0.211-0.336,0.476-0.596,0.794-0.781s0.681-0.279,1.087-0.279
			c0.684,0,1.213,0.201,1.588,0.602s0.563,1.018,0.563,1.854v4.002h-1.154v-3.979c0-0.559-0.11-0.955-0.331-1.189
			s-0.558-0.352-1.011-0.352c-0.332,0-0.626,0.08-0.882,0.24s-0.46,0.379-0.612,0.656v4.623h-1.154v-6.34H1260.466z"/>
		<path fill="#FFFFFF" d="M1267.286,205.615l0.082,0.943c0.211-0.336,0.476-0.596,0.794-0.781s0.681-0.279,1.087-0.279
			c0.684,0,1.213,0.201,1.588,0.602s0.563,1.018,0.563,1.854v4.002h-1.154v-3.979c0-0.559-0.11-0.955-0.331-1.189
			s-0.558-0.352-1.011-0.352c-0.332,0-0.626,0.08-0.882,0.24s-0.46,0.379-0.612,0.656v4.623h-1.154v-6.34H1267.286z"/>
	</g>
	<g>
		<path fill="#FFFFFF" d="M1242.407,244.885c0-1.02,0.218-1.842,0.653-2.467s1.046-0.938,1.831-0.938c0.371,0,0.7,0.068,0.987,0.205
			s0.532,0.336,0.735,0.598v-3.486h1.154v9.141h-0.943l-0.135-0.779c-0.207,0.297-0.461,0.521-0.762,0.674s-0.65,0.229-1.049,0.229
			c-0.773,0-1.379-0.279-1.816-0.84s-0.656-1.299-0.656-2.213V244.885z M1243.562,245.008c0,0.641,0.131,1.154,0.393,1.539
			s0.668,0.576,1.219,0.576c0.344,0,0.633-0.078,0.867-0.234s0.426-0.375,0.574-0.656v-2.959c-0.148-0.262-0.341-0.469-0.577-0.623
			s-0.521-0.232-0.853-0.232c-0.555,0-0.964,0.229-1.228,0.686s-0.396,1.051-0.396,1.781V245.008z"/>
		<path fill="#FFFFFF" d="M1253.388,247.938c-0.039-0.191-0.069-0.359-0.091-0.506s-0.034-0.295-0.038-0.443
			c-0.215,0.305-0.495,0.561-0.841,0.766s-0.718,0.307-1.116,0.307c-0.66,0-1.163-0.168-1.509-0.506s-0.519-0.805-0.519-1.398
			c0-0.605,0.245-1.078,0.735-1.42s1.155-0.514,1.995-0.514h1.254v-0.627c0-0.371-0.113-0.664-0.34-0.881s-0.547-0.326-0.961-0.326
			c-0.371,0-0.673,0.096-0.905,0.285s-0.349,0.416-0.349,0.682h-1.102l-0.012-0.035c-0.023-0.461,0.194-0.883,0.653-1.266
			s1.052-0.574,1.778-0.574c0.719,0,1.297,0.184,1.734,0.549s0.656,0.891,0.656,1.578v3.053c0,0.227,0.012,0.445,0.035,0.656
			s0.066,0.418,0.129,0.621H1253.388z M1251.472,247.088c0.418,0,0.795-0.107,1.131-0.32c0.336-0.215,0.555-0.461,0.656-0.736
			v-1.029h-1.295c-0.465,0-0.837,0.117-1.116,0.352c-0.279,0.232-0.419,0.508-0.419,0.824c0,0.279,0.088,0.502,0.264,0.666
			C1250.868,247.006,1251.128,247.088,1251.472,247.088z"/>
		<path fill="#FFFFFF" d="M1257.12,241.598l0.082,0.943c0.211-0.336,0.476-0.596,0.794-0.781s0.681-0.279,1.087-0.279
			c0.684,0,1.213,0.201,1.588,0.602s0.563,1.018,0.563,1.854v4.002h-1.154v-3.979c0-0.559-0.11-0.955-0.331-1.189
			s-0.558-0.352-1.011-0.352c-0.332,0-0.626,0.08-0.882,0.24s-0.46,0.379-0.612,0.656v4.623h-1.154v-6.34H1257.12z"/>
		<path fill="#FFFFFF" d="M1263.94,241.598l0.082,0.943c0.211-0.336,0.476-0.596,0.794-0.781s0.681-0.279,1.087-0.279
			c0.684,0,1.213,0.201,1.588,0.602s0.563,1.018,0.563,1.854v4.002h-1.154v-3.979c0-0.559-0.11-0.955-0.331-1.189
			s-0.558-0.352-1.011-0.352c-0.332,0-0.626,0.08-0.882,0.24s-0.46,0.379-0.612,0.656v4.623h-1.154v-6.34H1263.94z"/>
	</g>
	<g>
		<path fill="#FFFFFF" d="M1300.76,247c-0.199,0.34-0.455,0.602-0.768,0.785s-0.674,0.275-1.084,0.275
			c-0.691,0-1.23-0.221-1.617-0.662s-0.58-1.129-0.58-2.063v-3.738h1.154v3.75c0,0.676,0.1,1.141,0.299,1.395
			s0.51,0.381,0.932,0.381c0.41,0,0.749-0.082,1.017-0.248s0.47-0.402,0.606-0.707v-4.57h1.154v6.34h-1.037L1300.76,247z"/>
		<path fill="#FFFFFF" d="M1304.586,241.598l0.082,0.943c0.211-0.336,0.476-0.596,0.794-0.781s0.681-0.279,1.087-0.279
			c0.684,0,1.213,0.201,1.588,0.602s0.563,1.018,0.563,1.854v4.002h-1.154v-3.979c0-0.559-0.11-0.955-0.331-1.189
			s-0.558-0.352-1.011-0.352c-0.332,0-0.626,0.08-0.882,0.24s-0.46,0.379-0.612,0.656v4.623h-1.154v-6.34H1304.586z"/>
		<path fill="#FFFFFF" d="M1315.789,245.008c0,0.914-0.22,1.652-0.659,2.213s-1.044,0.84-1.813,0.84c-0.418,0-0.781-0.08-1.09-0.242
			s-0.564-0.402-0.768-0.719l-0.141,0.838h-0.943v-9.141h1.154v3.551c0.199-0.281,0.446-0.496,0.741-0.645s0.64-0.223,1.034-0.223
			c0.781,0,1.391,0.313,1.828,0.938s0.656,1.447,0.656,2.467V245.008z M1314.635,244.885c0-0.727-0.134-1.318-0.401-1.777
			s-0.675-0.689-1.222-0.689c-0.355,0-0.655,0.088-0.899,0.262s-0.438,0.406-0.583,0.699v2.748c0.148,0.313,0.343,0.557,0.583,0.732
			s0.544,0.264,0.911,0.264c0.543,0,0.947-0.193,1.213-0.58s0.398-0.898,0.398-1.535V244.885z"/>
		<path fill="#FFFFFF" d="M1319.826,248.061c-0.883,0-1.585-0.293-2.106-0.881s-0.782-1.352-0.782-2.289v-0.258
			c0-0.902,0.269-1.652,0.806-2.252s1.173-0.9,1.907-0.9c0.855,0,1.502,0.258,1.939,0.773s0.656,1.203,0.656,2.063v0.721h-4.113
			l-0.018,0.029c0.012,0.607,0.166,1.107,0.463,1.5c0.297,0.391,0.713,0.586,1.248,0.586c0.391,0,0.733-0.055,1.028-0.166
			s0.55-0.266,0.765-0.461l0.451,0.752c-0.227,0.223-0.525,0.41-0.896,0.559C1320.803,247.986,1320.354,248.061,1319.826,248.061z
			 M1319.65,242.389c-0.387,0-0.717,0.162-0.99,0.488c-0.273,0.324-0.441,0.732-0.504,1.223l0.012,0.029h2.924v-0.15
			c0-0.453-0.121-0.83-0.363-1.135C1320.486,242.541,1320.127,242.389,1319.65,242.389z"/>
		<path fill="#FFFFFF" d="M1323.277,244.885c0-1.02,0.218-1.842,0.653-2.467s1.046-0.938,1.831-0.938c0.371,0,0.7,0.068,0.987,0.205
			s0.532,0.336,0.735,0.598v-3.486h1.154v9.141h-0.943l-0.135-0.779c-0.207,0.297-0.461,0.521-0.762,0.674s-0.65,0.229-1.049,0.229
			c-0.773,0-1.379-0.279-1.816-0.84s-0.656-1.299-0.656-2.213V244.885z M1324.432,245.008c0,0.641,0.131,1.154,0.393,1.539
			s0.668,0.576,1.219,0.576c0.344,0,0.633-0.078,0.867-0.234s0.426-0.375,0.574-0.656v-2.959c-0.148-0.262-0.341-0.469-0.577-0.623
			s-0.521-0.232-0.853-0.232c-0.555,0-0.964,0.229-1.228,0.686s-0.396,1.051-0.396,1.781V245.008z"/>
		<path fill="#FFFFFF" d="M1331.609,239.975h-1.154v-1.178h1.154V239.975z M1331.609,247.938h-1.154v-6.34h1.154V247.938z"/>
		<path fill="#FFFFFF" d="M1334.416,241.598l0.082,0.943c0.211-0.336,0.476-0.596,0.794-0.781s0.681-0.279,1.087-0.279
			c0.684,0,1.213,0.201,1.588,0.602s0.563,1.018,0.563,1.854v4.002h-1.154v-3.979c0-0.559-0.11-0.955-0.331-1.189
			s-0.558-0.352-1.011-0.352c-0.332,0-0.626,0.08-0.882,0.24s-0.46,0.379-0.612,0.656v4.623h-1.154v-6.34H1334.416z"/>
		<path fill="#FFFFFF" d="M1339.953,244.885c0-1.02,0.223-1.842,0.668-2.467s1.061-0.938,1.846-0.938
			c0.402,0,0.756,0.082,1.061,0.244s0.559,0.395,0.762,0.699l0.141-0.826h0.92v6.375c0,0.813-0.236,1.438-0.709,1.873
			s-1.154,0.652-2.045,0.652c-0.305,0-0.634-0.041-0.987-0.125s-0.665-0.199-0.935-0.344l0.293-0.896
			c0.207,0.117,0.457,0.213,0.75,0.285s0.582,0.107,0.867,0.107c0.563,0,0.972-0.127,1.228-0.383s0.384-0.646,0.384-1.17v-0.715
			c-0.207,0.266-0.455,0.467-0.744,0.602s-0.621,0.201-0.996,0.201c-0.777,0-1.389-0.281-1.834-0.844s-0.668-1.299-0.668-2.209
			V244.885z M1341.107,245.008c0,0.637,0.135,1.148,0.404,1.535s0.68,0.58,1.23,0.58c0.348,0,0.639-0.078,0.873-0.236
			s0.428-0.383,0.58-0.672v-2.918c-0.148-0.27-0.342-0.482-0.58-0.641s-0.525-0.238-0.861-0.238c-0.551,0-0.963,0.23-1.236,0.691
			s-0.41,1.053-0.41,1.775V245.008z"/>
		<path fill="#FFFFFF" d="M1348.549,240.068v1.529h1.201v0.855h-1.201v3.85c0,0.297,0.062,0.506,0.185,0.627
			s0.286,0.182,0.489,0.182c0.066,0,0.14-0.008,0.22-0.023s0.151-0.035,0.214-0.059l0.152,0.791
			c-0.086,0.07-0.212,0.129-0.378,0.174s-0.333,0.066-0.501,0.066c-0.469,0-0.842-0.141-1.119-0.424s-0.416-0.729-0.416-1.334v-3.85
			h-1.008v-0.855h1.008v-1.529H1348.549z"/>
	</g>
	<image width="44" height="36" xlink:href="B44A2419.png"  transform="matrix(0.2727 0 0 0.2727 1362.917 203.541)">
	</image>
	<image width="44" height="36" xlink:href="B44A241B.png"  transform="matrix(-0.2727 0 0 -0.2727 1457.3799 213.3594)">
	</image>
	<image width="62" height="18" xlink:href="B44A241E.png"  transform="matrix(1 0 0 1 1379.5 199.5)">
	</image>
	<g>
		<path d="M1389.422,205.615l0.082,0.943c0.211-0.336,0.476-0.596,0.794-0.781s0.681-0.279,1.087-0.279
			c0.684,0,1.213,0.201,1.588,0.602s0.563,1.018,0.563,1.854v4.002h-1.154v-3.979c0-0.559-0.11-0.955-0.331-1.189
			s-0.558-0.352-1.011-0.352c-0.332,0-0.626,0.08-0.882,0.24s-0.46,0.379-0.612,0.656v4.623h-1.154v-6.34H1389.422z"/>
		<path d="M1397.842,212.078c-0.883,0-1.585-0.293-2.106-0.881s-0.782-1.352-0.782-2.289v-0.258c0-0.902,0.269-1.652,0.806-2.252
			s1.173-0.9,1.907-0.9c0.855,0,1.502,0.258,1.939,0.773s0.656,1.203,0.656,2.063v0.721h-4.113l-0.018,0.029
			c0.012,0.607,0.166,1.107,0.463,1.5c0.297,0.391,0.713,0.586,1.248,0.586c0.391,0,0.733-0.055,1.028-0.166s0.55-0.266,0.765-0.461
			l0.451,0.752c-0.227,0.223-0.525,0.41-0.896,0.559C1398.818,212.004,1398.369,212.078,1397.842,212.078z M1397.666,206.406
			c-0.387,0-0.717,0.162-0.99,0.488c-0.273,0.324-0.441,0.732-0.504,1.223l0.012,0.029h2.924v-0.15c0-0.453-0.121-0.83-0.363-1.135
			C1398.502,206.559,1398.143,206.406,1397.666,206.406z"/>
		<path d="M1405.582,211.018c-0.199,0.34-0.455,0.602-0.768,0.785s-0.674,0.275-1.084,0.275c-0.691,0-1.23-0.221-1.617-0.662
			s-0.58-1.129-0.58-2.063v-3.738h1.154v3.75c0,0.676,0.1,1.141,0.299,1.395s0.51,0.381,0.932,0.381c0.41,0,0.749-0.082,1.017-0.248
			s0.47-0.402,0.606-0.707v-4.57h1.154v6.34h-1.037L1405.582,211.018z"/>
		<path d="M1412.971,212.863h-5.408v-0.908h5.408V212.863z"/>
		<path d="M1414.986,206.465c0.219-0.305,0.487-0.541,0.806-0.711s0.671-0.256,1.058-0.256c0.676,0,1.202,0.203,1.579,0.609
			s0.565,1.031,0.565,1.875v3.973h-1.154v-3.984c0-0.523-0.112-0.91-0.337-1.16s-0.56-0.375-1.005-0.375
			c-0.32,0-0.61,0.076-0.87,0.227s-0.474,0.354-0.642,0.611v4.682h-1.154v-9.141h1.154V206.465z"/>
		<path d="M1421.9,203.992h-1.154v-1.178h1.154V203.992z M1421.9,211.955h-1.154v-6.34h1.154V211.955z"/>
		<path d="M1426.307,212.078c-0.883,0-1.585-0.293-2.106-0.881s-0.782-1.352-0.782-2.289v-0.258c0-0.902,0.269-1.652,0.806-2.252
			s1.173-0.9,1.907-0.9c0.855,0,1.502,0.258,1.939,0.773s0.656,1.203,0.656,2.063v0.721h-4.113l-0.018,0.029
			c0.012,0.607,0.166,1.107,0.463,1.5c0.297,0.391,0.713,0.586,1.248,0.586c0.391,0,0.733-0.055,1.028-0.166s0.55-0.266,0.765-0.461
			l0.451,0.752c-0.227,0.223-0.525,0.41-0.896,0.559C1427.283,212.004,1426.834,212.078,1426.307,212.078z M1426.131,206.406
			c-0.387,0-0.717,0.162-0.99,0.488c-0.273,0.324-0.441,0.732-0.504,1.223l0.012,0.029h2.924v-0.15c0-0.453-0.121-0.83-0.363-1.135
			C1426.967,206.559,1426.607,206.406,1426.131,206.406z"/>
		<path d="M1433.021,206.635l-0.592-0.035c-0.305,0-0.562,0.072-0.771,0.217s-0.37,0.348-0.483,0.609v4.529h-1.154v-6.34h1.031
			l0.111,0.926c0.18-0.328,0.401-0.584,0.665-0.768s0.567-0.275,0.911-0.275c0.086,0,0.168,0.008,0.246,0.021
			s0.143,0.027,0.193,0.043L1433.021,206.635z"/>
	</g>
	<g>
		<path id="_x31_01_3_" fill="#B1C800" d="M1363.533,227.912h101.684v33.037h-101.684v-13.037v-5
			c-4.217,0.098-4.471-0.541-5.281-1.609c-1.108-1.459-1.159-3.82-0.159-7.119l0.33-1.063l5.11,0.441v-5.201V227.912z"/>
		<image width="44" height="36" xlink:href="B44A241F.png"  transform="matrix(0.2727 0 0 0.2727 1373.917 239.5234)">
		</image>
		<image width="44" height="36" xlink:href="B44A241A.png"  transform="matrix(-0.2727 0 0 -0.2727 1454.3799 249.3418)">
		</image>
		<image width="47" height="18" xlink:href="B44A2415.png"  transform="matrix(1 0 0 1 1390.5 235.5)">
		</image>
		<g>
			<path d="M1400.026,247.938h-1.154v-9.141h1.154V247.938z"/>
			<path d="M1404.433,248.061c-0.883,0-1.585-0.293-2.106-0.881s-0.782-1.352-0.782-2.289v-0.258c0-0.902,0.269-1.652,0.806-2.252
				s1.173-0.9,1.907-0.9c0.855,0,1.502,0.258,1.939,0.773s0.656,1.203,0.656,2.063v0.721h-4.113l-0.018,0.029
				c0.012,0.607,0.166,1.107,0.463,1.5c0.297,0.391,0.713,0.586,1.248,0.586c0.391,0,0.733-0.055,1.028-0.166
				s0.55-0.266,0.765-0.461l0.451,0.752c-0.227,0.223-0.525,0.41-0.896,0.559C1405.409,247.986,1404.96,248.061,1404.433,248.061z
				 M1404.257,242.389c-0.387,0-0.717,0.162-0.99,0.488c-0.273,0.324-0.441,0.732-0.504,1.223l0.012,0.029h2.924v-0.15
				c0-0.453-0.121-0.83-0.363-1.135C1405.093,242.541,1404.733,242.389,1404.257,242.389z"/>
			<path d="M1411.833,246.25c0-0.254-0.097-0.463-0.29-0.627s-0.56-0.307-1.099-0.428c-0.77-0.168-1.349-0.395-1.737-0.682
				c-0.389-0.285-0.583-0.678-0.583-1.172c0-0.516,0.219-0.953,0.656-1.316s1.008-0.545,1.711-0.545
				c0.738,0,1.325,0.189,1.761,0.568s0.644,0.84,0.624,1.383l-0.012,0.035h-1.102c0-0.277-0.116-0.525-0.349-0.746
				s-0.54-0.332-0.923-0.332c-0.41,0-0.715,0.09-0.914,0.27s-0.299,0.396-0.299,0.65c0,0.25,0.088,0.447,0.264,0.592
				s0.533,0.273,1.072,0.387c0.801,0.172,1.396,0.406,1.787,0.701s0.586,0.689,0.586,1.186c0,0.563-0.228,1.018-0.683,1.365
				s-1.05,0.521-1.784,0.521c-0.809,0-1.445-0.205-1.91-0.615s-0.686-0.889-0.662-1.436l0.012-0.035h1.102
				c0.02,0.408,0.172,0.707,0.457,0.895c0.285,0.189,0.619,0.283,1.002,0.283c0.41,0,0.731-0.082,0.964-0.248
				S1411.833,246.52,1411.833,246.25z"/>
			<path d="M1417.054,248.061c-0.883,0-1.585-0.293-2.106-0.881s-0.782-1.352-0.782-2.289v-0.258c0-0.902,0.269-1.652,0.806-2.252
				s1.173-0.9,1.907-0.9c0.855,0,1.502,0.258,1.939,0.773s0.656,1.203,0.656,2.063v0.721h-4.113l-0.018,0.029
				c0.012,0.607,0.166,1.107,0.463,1.5c0.297,0.391,0.713,0.586,1.248,0.586c0.391,0,0.733-0.055,1.028-0.166
				s0.55-0.266,0.765-0.461l0.451,0.752c-0.227,0.223-0.525,0.41-0.896,0.559C1418.03,247.986,1417.581,248.061,1417.054,248.061z
				 M1416.878,242.389c-0.387,0-0.717,0.162-0.99,0.488c-0.273,0.324-0.441,0.732-0.504,1.223l0.012,0.029h2.924v-0.15
				c0-0.453-0.121-0.83-0.363-1.135C1417.714,242.541,1417.354,242.389,1416.878,242.389z"/>
			<path d="M1421.8,241.598l0.082,0.943c0.211-0.336,0.476-0.596,0.794-0.781s0.681-0.279,1.087-0.279
				c0.684,0,1.213,0.201,1.588,0.602s0.563,1.018,0.563,1.854v4.002h-1.154v-3.979c0-0.559-0.11-0.955-0.331-1.189
				s-0.558-0.352-1.011-0.352c-0.332,0-0.626,0.08-0.882,0.24s-0.46,0.379-0.612,0.656v4.623h-1.154v-6.34H1421.8z"/>
			<path d="M1428.907,245.137h-1.154v-5.73h1.154V245.137z M1428.913,247.938h-1.16v-1.195h1.16V247.938z"/>
		</g>
	</g>
</g>
</svg>
