<?xml version="1.0" encoding="UTF-8" standalone="no"?>
<svg
   xmlns:dc="http://purl.org/dc/elements/1.1/"
   xmlns:cc="http://creativecommons.org/ns#"
   xmlns:rdf="http://www.w3.org/1999/02/22-rdf-syntax-ns#"
   xmlns:svg="http://www.w3.org/2000/svg"
   xmlns="http://www.w3.org/2000/svg"
   xmlns:sodipodi="http://sodipodi.sourceforge.net/DTD/sodipodi-0.dtd"
   xmlns:inkscape="http://www.inkscape.org/namespaces/inkscape"
   version="1.1"
   id="Calliope_mini_v2"
   x="0px"
   y="0px"
   viewBox="0 0 322.08151 282.75128"
   xml:space="preserve"
   sodipodi:docname="calliope_calliope.svg"
   width="322.08151"
   height="282.75128"
   inkscape:version="1.0.1 (3bc2e813f5, 2020-09-07)"><metadata
   id="metadata517"><rdf:RDF><cc:Work
       rdf:about=""><dc:format>image/svg+xml</dc:format><dc:type
         rdf:resource="http://purl.org/dc/dcmitype/StillImage" /></cc:Work></rdf:RDF></metadata><defs
   id="defs515" /><sodipodi:namedview
   pagecolor="#ffffff"
   bordercolor="#666666"
   borderopacity="1"
   objecttolerance="10"
   gridtolerance="10"
   guidetolerance="10"
   inkscape:pageopacity="0"
   inkscape:pageshadow="2"
   inkscape:window-width="2560"
   inkscape:window-height="1377"
   id="namedview513"
   showgrid="false"
   inkscape:zoom="1.3410553"
   inkscape:cx="429.83453"
   inkscape:cy="256.77657"
   inkscape:window-x="-8"
   inkscape:window-y="-8"
   inkscape:window-maximized="1"
   inkscape:current-layer="Calliope_mini_v2" />
<style
   type="text/css"
   id="style2">
	.st0{fill:#044854;}
	.st1{fill:#F6C426;}
	.st2{fill:#DFD775;}
	.st3{fill:#BCCAC3;}
	.st4{fill:none;stroke:#FFFFFF;stroke-width:4;stroke-miterlimit:10;}
	.st5{enable-background:new    ;}
	.st6{fill:#FFFFFF;}
	.st7{fill:#42C9C9;}
	.st8{fill:#E6007D;}
	.st9{fill:#E0DAAD;}
	.st10{fill:none;stroke:#FFFFFF;stroke-width:4.8;stroke-miterlimit:10;}
</style>
<path
   id="mini_Board"
   class="st0"
   d="m 321.06889,140.63445 c -0.41138,-6.67706 -4.81002,-12.43641 -11.13898,-14.6199 -2.46829,-0.82277 -4.87331,-1.8354 -7.21502,-3.00626 -2.56323,-1.29744 -5.03152,-2.72146 -7.43653,-4.30369 0,0 -0.0316,-0.0316 -0.0633,-0.0316 -9.05042,-5.94923 -19.52485,-15.37938 -30.7904,-30.094218 C 248.03267,67.186859 248.53899,40.447 250.12123,23.643608 c 0.47467,-1.645531 0.69619,-3.322705 0.69619,-5.031524 0,-10.2529165 -8.32259,-18.60714474 -18.5755,-18.60714474 -5.72772,0 -11.13897,2.62651864 -14.65155,7.15172544 -0.12658,0.158224 -0.25316,0.3480928 -0.37974,0.5063168 -12.62627,8.5440815 -25.66393,14.5249505 -39.30284,17.1514685 -1.04428,0.221513 -2.05691,0.443027 -3.10119,0.632896 h -0.0316 c -4.39863,0.85441 -8.86055,1.297437 -13.32247,1.297437 -4.33534,-0.03164 -8.63903,-0.474672 -12.87944,-1.297437 -2.49993,-0.474672 -4.99988,-1.107568 -7.43652,-1.803754 -0.0633,0 -0.15823,-0.03165 -0.22152,-0.06329 C 126.64322,19.498135 113.3524,12.061606 103.98554,6.0174483 97.055325,-1.5456597 85.283463,-2.0519766 77.720353,4.9098802 73.891334,8.4224535 71.70784,13.390688 71.70784,18.580436 c 0,0.189869 0,0.379738 0,0.601251 0.12658,1.044278 0.253159,2.120202 0.348096,3.16448 0,0 0,0 0,0.03164 2.784742,26.170253 -1.677177,46.92924 -11.740224,63.574407 -0.348095,0.537963 -0.727833,1.075927 -1.10757,1.645533 -11.80351,17.214773 -29.904338,28.828423 -43.036931,35.568763 -10.1896277,1.32908 -17.3413533,10.6643 -16.01227157,20.85392 1.20250257,9.05042 8.76561077,15.8857 17.87931457,16.17049 0.189869,0 0.379738,0 0.569606,0 0.506317,0.25316 1.012633,0.53797 1.487306,0.79113 0.03165,0 0.03165,0.0317 0.06329,0.0317 6.044158,3.22777 11.803511,6.89857 17.246417,11.04404 5.189748,4.43027 11.075682,10.37949 18.005893,18.5755 1.58224,1.89868 3.101191,3.89232 4.461919,5.91758 0.03166,0.0316 0.06329,0.0633 0.06329,0.12657 10.189626,16.55024 14.809766,37.24594 12.18325,63.3529 -0.126579,1.36073 -0.284805,2.72145 -0.474674,4.11382 0,5.94923 2.848032,11.55036 7.658044,15.06293 l 0.03164,0.0316 c 3.069537,2.24678 6.771982,3.44929 10.569363,3.51258 3.196124,-0.0949 6.29732,-0.85442 9.176994,-2.24679 l 0.09494,-0.0316 c 1.012628,-0.53795 1.961968,-1.2025 2.816378,-1.93033 5.91758,-4.49356 12.1516,-8.4808 18.73373,-11.96173 1.13921,-0.56961 2.27842,-1.13922 3.38599,-1.67718 5.4429,-2.49994 11.13897,-4.43027 16.99326,-5.75936 1.67717,-0.37973 3.35434,-0.63289 5.06316,-0.79112 1.26581,-0.0633 2.49996,-0.37973 3.67081,-0.91769 1.29745,-0.56961 2.27843,-1.67718 2.7531,-3.00626 1.07592,-3.29106 3.48093,-7.12007 8.79725,-7.12007 5.18974,0 7.65804,3.57586 8.86054,6.70869 0.53797,1.39237 1.48731,2.56323 2.7531,3.35436 0.85441,0.53795 1.8354,0.8544 2.84803,0.94934 3.57586,0.31645 9.84154,1.67718 20.75899,5.791 0.0316,0 0.0949,0.0316 0.15823,0.0633 7.49981,3.32271 14.65154,7.37323 21.36024,12.08831 6.7087,7.75299 18.41728,8.63903 26.17026,1.93034 0.2848,-0.25316 0.56961,-0.50632 0.8544,-0.79112 0.22152,-0.18987 0.4114,-0.41139 0.60125,-0.6329 3.22778,-3.44928 4.99988,-7.97449 4.99988,-12.68956 0,-2.15185 -0.37973,-4.27205 -1.07592,-6.26568 -1.07593,-12.37312 -0.47468,-23.54373 1.61388,-33.63842 0,-0.0633 0,-0.15823 0.0316,-0.22152 2.18349,-9.17699 5.69606,-17.97424 10.44279,-26.10696 12.15159,-20.75899 30.69546,-31.48658 43.63817,-37.7839 0.82277,-0.41138 1.6139,-0.79112 2.37336,-1.13921 7.81627,-3.70244 13.89208,-9.71495 13.29084,-18.29069 z m -302.429401,9.65166 c -4.81001,0 -8.7023208,-3.89231 -8.7023208,-8.70232 0,-4.81001 3.8923108,-8.70233 8.7023208,-8.70233 4.810011,0 8.702322,3.89232 8.702322,8.70233 0,4.81001 -3.923956,8.70232 -8.702322,8.70232 z m 71.643837,122.52868 c -4.810007,0 -8.702323,-3.89231 -8.702323,-8.70232 0,-4.81001 3.892316,-8.70232 8.702323,-8.70232 4.810008,0 8.702324,3.89231 8.702324,8.70232 0,4.81001 -3.892316,8.70232 -8.702324,8.70232 z m 0,-245.500385 c -4.810007,0 -8.702323,-3.892311 -8.702323,-8.702321 0,-4.810011 3.892316,-8.7023216 8.702323,-8.7023216 4.810008,0 8.702324,3.8923106 8.702324,8.7023216 0,4.81001 -3.892316,8.702321 -8.702324,8.702321 z M 232.27356,272.81479 c -4.81002,0 -8.70232,-3.89231 -8.70232,-8.70232 0,-4.81001 3.8923,-8.70232 8.70232,-8.70232 4.81001,0 8.70232,3.89231 8.70232,8.70232 0,4.81001 -3.89231,8.70232 -8.70232,8.70232 z m 0,-245.500385 c -4.81002,0 -8.70232,-3.892311 -8.70232,-8.702321 0,-4.810011 3.8923,-8.7023216 8.70232,-8.7023216 4.81001,0 8.70232,3.8923106 8.70232,8.7023216 0,4.81001 -3.89231,8.702321 -8.70232,8.702321 z m 71.23245,122.971705 c -4.81001,0 -8.70232,-3.89231 -8.70232,-8.70232 0,-4.81001 3.89231,-8.70233 8.70232,-8.70233 4.81001,0 8.70232,3.89232 8.70232,8.70233 0,4.81001 -3.89231,8.70232 -8.70232,8.70232 z"
   style="stroke-width:0.316448" />
<g
   id="Pins"
   transform="matrix(0.31644804,0,0,0.31644804,-13.923014,-10.437846)">
	<path
   id="Pin3"
   class="st1"
   d="m 1003.1,421.6 c -32.5,0 -58.8,26.3 -58.8,58.7 0,32.5 26.3,58.8 58.7,58.8 32.4,0 58.8,-26.3 58.8,-58.7 v 0 c 0,-32.5 -26.3,-58.8 -58.7,-58.8 z m 0,86.3 c -15.2,0 -27.5,-12.3 -27.5,-27.5 0,-15.2 12.3,-27.5 27.5,-27.5 15.2,0 27.5,12.3 27.5,27.5 0,15.2 -12.3,27.5 -27.5,27.5 z" />
	<path
   id="Pin2"
   class="st2"
   d="m 778,808.8 c -32.5,0 -58.8,26.3 -58.8,58.7 0,32.5 26.3,58.8 58.7,58.8 32.5,0 58.8,-26.3 58.8,-58.7 v 0 c 0,-32.5 -26.3,-58.8 -58.7,-58.8 z m 0,86.3 c -15.2,0 -27.5,-12.3 -27.5,-27.5 0,-15.2 12.3,-27.5 27.5,-27.5 15.2,0 27.5,12.3 27.5,27.5 0,15.2 -12.3,27.5 -27.5,27.5 z" />
	<path
   id="Pin0"
   class="st1"
   d="m 102.9,421.6 c -32.5,0 -58.8,26.2 -58.8,58.7 0,32.5 26.2,58.8 58.7,58.8 32.5,0 58.8,-26.2 58.8,-58.7 v -0.1 c 0,-32.4 -26.3,-58.7 -58.7,-58.7 z m 0,86.3 c -15.2,0 -27.5,-12.3 -27.5,-27.5 0,-15.2 12.3,-27.5 27.5,-27.5 15.2,0 27.5,12.3 27.5,27.5 0,15.2 -12.3,27.5 -27.5,27.5 z" />
	<path
   id="Pin_"
   class="st1"
   d="m 778,33 c -32.5,0 -58.8,26.3 -58.8,58.7 0,32.5 26.3,58.8 58.7,58.8 32.5,0 58.8,-26.3 58.8,-58.7 v 0 C 836.7,59.3 810.4,33 778,33 Z m 0,86.3 c -15.2,0 -27.5,-12.3 -27.5,-27.5 0,-15.2 12.3,-27.5 27.5,-27.5 15.2,0 27.5,12.3 27.5,27.5 0,15.2 -12.3,27.5 -27.5,27.5 z" />
	<path
   id="Pin_-"
   class="st1"
   d="m 329.3,33 c -32.5,0 -58.8,26.3 -58.8,58.7 0,32.4 26.3,58.8 58.7,58.8 32.5,0 58.8,-26.3 58.8,-58.7 v 0 C 388.1,59.3 361.8,33 329.3,33 Z m 0,86.3 c -15.2,0 -27.5,-12.3 -27.5,-27.5 0,-15.2 12.3,-27.5 27.5,-27.5 15.2,0 27.5,12.3 27.5,27.5 0,15.2 -12.3,27.5 -27.5,27.5 z" />
	<path
   id="Pin2-2"
   class="st1"
   d="m 778,808.8 c -32.5,0 -58.8,26.3 -58.8,58.7 0,32.5 26.3,58.8 58.7,58.8 32.5,0 58.8,-26.3 58.8,-58.7 v 0 c 0,-32.5 -26.3,-58.8 -58.7,-58.8 z m 0,86.3 c -15.2,0 -27.5,-12.3 -27.5,-27.5 0,-15.2 12.3,-27.5 27.5,-27.5 15.2,0 27.5,12.3 27.5,27.5 0,15.2 -12.3,27.5 -27.5,27.5 z" />
	<path
   id="Pin2-3"
   class="st1"
   d="m 329.3,808.8 c -32.5,0 -58.8,26.3 -58.8,58.7 0,32.5 26.3,58.8 58.7,58.8 32.5,0 58.8,-26.3 58.8,-58.7 v 0 c 0.1,-32.5 -26.2,-58.8 -58.7,-58.8 z m 0,86.3 c -15.2,0 -27.5,-12.3 -27.5,-27.5 0,-15.2 12.3,-27.5 27.5,-27.5 15.2,0 27.5,12.3 27.5,27.5 0,15.2 -12.3,27.5 -27.5,27.5 z" />
</g>
<g
   id="USB"
   transform="matrix(0.31644804,0,0,0.31644804,-13.923014,-10.437846)">
	<path
   class="st3"
   d="m 596.4,113.5 v 61.2 c 0,3.3 -2.6,5.9 -5.9,6 h -72.2 c -3.3,0 -6,-2.7 -6,-5.9 v 0 -61.2 h 1.1 c 13.4,2.7 27,4 40.7,4.1 14.2,-0.2 28.4,-1.5 42.3,-4.2 z"
   id="path13" />
	<path
   class="st4"
   d="m 555.5,182.7 v 15.9 c 0,3.3 -2.7,6 -6,6 v 0 h -8"
   id="path15" />
	<g
   class="st5"
   id="g23">
		<path
   class="st6"
   d="m 507.8,196.8 v 10.3 c 0,1.6 -0.5,2.9 -1.6,3.9 -1.1,1 -2.4,1.4 -4.2,1.4 -1.8,0 -3.2,-0.5 -4.2,-1.4 -1,-0.9 -1.5,-2.2 -1.5,-3.9 v -10.2 h 2.7 v 10.3 c 0,1 0.3,1.8 0.8,2.3 0.5,0.5 1.3,0.8 2.3,0.8 2.1,0 3.1,-1.1 3.1,-3.2 v -10.2 z"
   id="path17" />
		<path
   class="st6"
   d="m 518.7,208.1 c 0,-0.7 -0.2,-1.2 -0.7,-1.6 -0.5,-0.4 -1.3,-0.7 -2.6,-1.1 -1.2,-0.4 -2.2,-0.8 -3,-1.2 -1.4,-0.9 -2.1,-2 -2.1,-3.4 0,-1.2 0.5,-2.3 1.5,-3.1 1,-0.8 2.3,-1.2 3.9,-1.2 1.1,0 2,0.2 2.9,0.6 0.9,0.4 1.5,1 2,1.7 0.5,0.7 0.7,1.5 0.7,2.4 h -2.7 c 0,-0.8 -0.3,-1.4 -0.8,-1.9 -0.5,-0.5 -1.2,-0.7 -2.2,-0.7 -0.9,0 -1.5,0.2 -2,0.6 -0.5,0.4 -0.7,0.9 -0.7,1.6 0,0.6 0.3,1 0.8,1.4 0.5,0.4 1.4,0.7 2.6,1.1 1.2,0.4 2.2,0.8 2.9,1.2 0.7,0.4 1.3,1 1.6,1.6 0.3,0.6 0.5,1.3 0.5,2.1 0,1.3 -0.5,2.3 -1.5,3.1 -1,0.8 -2.3,1.1 -4,1.1 -1.1,0 -2.1,-0.2 -3.1,-0.6 -0.9,-0.4 -1.7,-1 -2.2,-1.7 -0.5,-0.7 -0.8,-1.6 -0.8,-2.5 h 2.7 c 0,0.9 0.3,1.5 0.9,2 0.6,0.5 1.4,0.7 2.5,0.7 0.9,0 1.6,-0.2 2.1,-0.6 0.6,-0.4 0.8,-0.9 0.8,-1.6 z"
   id="path19" />
		<path
   class="st6"
   d="m 523.7,212.1 v -15.3 h 5.3 c 1.7,0 3.1,0.3 4,1 0.9,0.7 1.4,1.7 1.4,3.1 0,0.7 -0.2,1.3 -0.6,1.9 -0.4,0.6 -0.9,1 -1.7,1.3 0.8,0.2 1.5,0.6 1.9,1.3 0.5,0.6 0.7,1.4 0.7,2.2 0,1.4 -0.5,2.5 -1.4,3.3 -0.9,0.8 -2.2,1.2 -4,1.2 z m 2.7,-8.9 h 2.6 c 0.8,0 1.5,-0.2 1.9,-0.6 0.5,-0.4 0.7,-0.9 0.7,-1.6 0,-0.8 -0.2,-1.3 -0.6,-1.6 -0.4,-0.3 -1.1,-0.5 -2,-0.5 h -2.6 z m 0,2 v 4.8 h 3 c 0.8,0 1.5,-0.2 2,-0.6 0.5,-0.4 0.7,-1 0.7,-1.7 0,-1.6 -0.8,-2.4 -2.4,-2.4 z"
   id="path21" />
	</g>
</g>
<g
   id="RESET"
   transform="matrix(0.31644804,0,0,0.31644804,-13.923014,-10.437846)">
	<g
   class="st5"
   id="g36">
		<path
   class="st6"
   d="m 617.9,197.8 h -3 v 5.9 h -2.7 v -15.3 h 5.4 c 1.8,0 3.1,0.4 4.1,1.2 1,0.8 1.4,1.9 1.4,3.4 0,1 -0.2,1.9 -0.7,2.6 -0.5,0.7 -1.2,1.2 -2.1,1.6 l 3.4,6.4 v 0.1 h -2.9 z m -3,-2.1 h 2.7 c 0.9,0 1.6,-0.2 2.1,-0.7 0.5,-0.5 0.8,-1.1 0.8,-1.9 0,-0.8 -0.2,-1.5 -0.7,-1.9 -0.5,-0.4 -1.2,-0.7 -2.1,-0.7 h -2.8 z"
   id="path26" />
		<path
   class="st6"
   d="m 634.7,196.9 h -6.3 v 4.7 h 7.4 v 2.1 h -10 v -15.3 h 10 v 2.2 h -7.3 v 4.2 h 6.3 z"
   id="path28" />
		<path
   class="st6"
   d="m 645.9,199.8 c 0,-0.7 -0.2,-1.2 -0.7,-1.6 -0.5,-0.4 -1.3,-0.7 -2.6,-1.1 -1.2,-0.4 -2.2,-0.8 -3,-1.2 -1.4,-0.9 -2.1,-2 -2.1,-3.4 0,-1.2 0.5,-2.3 1.5,-3.1 1,-0.8 2.3,-1.2 3.9,-1.2 1.1,0 2,0.2 2.9,0.6 0.9,0.4 1.5,1 2,1.7 0.5,0.7 0.7,1.5 0.7,2.4 h -2.7 c 0,-0.8 -0.3,-1.4 -0.8,-1.9 -0.5,-0.5 -1.2,-0.7 -2.2,-0.7 -0.9,0 -1.5,0.2 -2,0.6 -0.5,0.4 -0.7,0.9 -0.7,1.6 0,0.6 0.3,1 0.8,1.4 0.5,0.4 1.4,0.7 2.6,1.1 1.2,0.4 2.2,0.8 2.9,1.2 0.7,0.4 1.3,1 1.6,1.6 0.3,0.6 0.5,1.3 0.5,2.1 0,1.3 -0.5,2.3 -1.5,3.1 -1,0.8 -2.3,1.1 -4,1.1 -1.1,0 -2.1,-0.2 -3.1,-0.6 -0.9,-0.4 -1.7,-1 -2.2,-1.7 -0.5,-0.7 -0.8,-1.6 -0.8,-2.5 h 2.7 c 0,0.9 0.3,1.5 0.9,2 0.6,0.5 1.4,0.7 2.5,0.7 0.9,0 1.6,-0.2 2.1,-0.6 0.6,-0.5 0.8,-1 0.8,-1.6 z"
   id="path30" />
		<path
   class="st6"
   d="m 659.9,196.9 h -6.3 v 4.7 h 7.4 v 2.1 h -10 v -15.3 h 10 v 2.2 h -7.3 v 4.2 h 6.3 z"
   id="path32" />
		<path
   class="st6"
   d="m 674.4,190.6 h -4.8 v 13.1 H 667 v -13.2 h -4.7 v -2.2 h 12.2 z"
   id="path34" />
	</g>
	<path
   class="st3"
   d="m 645.4,127.9 h 13.7 c 3.3,0 6,2.7 6,6 V 157 c 0,3.3 -2.7,6 -6,6 h -13.7 c -3.3,0 -6,-2.7 -6,-6 v -23.1 c 0,-3.3 2.7,-6 6,-6 z"
   id="path38" />
	<path
   class="st4"
   d="m 665.2,146.4 h 14.4 c 3.3,0 6,2.7 6,6 v 37.9 c 0,3.3 -2.7,6 -6,6 h 0.6"
   id="path40" />
	<path
   class="st6"
   d="m 652.3,131.2 v 0 c 4.6,0 8.3,3.7 8.3,8.3 v 12 c 0,4.6 -3.7,8.3 -8.3,8.3 v 0 c -4.6,0 -8.3,-3.7 -8.3,-8.3 v -12 c 0,-4.6 3.7,-8.3 8.3,-8.3 z"
   id="path42" />
</g>
<g
   id="Grove_links"
   transform="matrix(0.31644804,0,0,0.31644804,-13.923014,-10.437846)">
	
		<rect
   x="229.7"
   y="271.29999"
   transform="matrix(0.5647,-0.8253,0.8253,0.5647,-116.0337,360.2341)"
   class="st6"
   width="107.5"
   height="37.599998"
   id="rect45" />
	<circle
   class="st3"
   cx="260.79999"
   cy="321.89999"
   r="4.0999999"
   id="circle47" />
	<circle
   class="st3"
   cx="275.89999"
   cy="300.70001"
   r="4.0999999"
   id="circle49" />
	<circle
   class="st3"
   cx="291"
   cy="279.5"
   r="4.0999999"
   id="circle51" />
	<circle
   class="st3"
   cx="306"
   cy="258.29999"
   r="4.0999999"
   id="circle53" />
</g>
<g
   id="Grove_rechts"
   transform="matrix(0.31644804,0,0,0.31644804,-13.923014,-10.437846)">
	
		<rect
   x="810.09998"
   y="237.5"
   transform="matrix(0.8253,-0.5647,0.5647,0.8253,-19.6631,518.9455)"
   class="st6"
   width="37.599998"
   height="107.5"
   id="rect56" />
	<circle
   class="st3"
   cx="851.5"
   cy="323.20001"
   r="4.0999999"
   id="circle58" />
	<circle
   class="st3"
   cx="836.40002"
   cy="302"
   r="4.0999999"
   id="circle60" />
	<circle
   class="st3"
   cx="821.29999"
   cy="280.79999"
   r="4.0999999"
   id="circle62" />
	<circle
   class="st3"
   cx="806.20001"
   cy="259.60001"
   r="4.0999999"
   id="circle64" />
</g>
<g
   id="Button_A"
   transform="matrix(0.31644804,0,0,0.31644804,-13.923014,-10.437846)">
	<path
   class="st6"
   d="m 254.8,431 62.8,-23.6 c 25,-11.8 0.7,-63.5 -24.3,-51.7 l -45.9,15.7 z"
   id="path67" />
	
		<rect
   x="181.60001"
   y="424.10001"
   transform="matrix(0.458,-0.8889,0.8889,0.458,-277.0148,403.7755)"
   class="st1"
   width="22.1"
   height="9.8999996"
   id="rect69" />
	
		<rect
   x="225.10001"
   y="446.5"
   transform="matrix(0.458,-0.8889,0.8889,0.458,-273.349,454.5542)"
   class="st1"
   width="22.1"
   height="9.8999996"
   id="rect71" />
	
		<rect
   x="221.5"
   y="346.39999"
   transform="matrix(0.458,-0.8889,0.8889,0.458,-186.2883,397.1983)"
   class="st1"
   width="22.1"
   height="9.8999996"
   id="rect73" />
	
		<rect
   x="265"
   y="368.89999"
   transform="matrix(0.458,-0.8889,0.8889,0.458,-182.7263,447.9844)"
   class="st1"
   width="22.1"
   height="9.8999996"
   id="rect75" />
	<g
   class="st5"
   id="g79">
		<path
   class="st0"
   d="m 309.1,389.1 h -10.9 l -2.1,6.2 h -6.6 l 11.2,-30.1 h 5.7 l 11.3,30.1 h -6.6 z m -9.2,-5 h 7.5 l -3.8,-11.3 z"
   id="path77" />
	</g>
	
		<rect
   x="200.89999"
   y="368.5"
   transform="matrix(0.458,-0.8889,0.8889,0.458,-229.9439,424.9123)"
   class="st3"
   width="65.099998"
   height="65.099998"
   id="rect81" />
	<circle
   cx="266.29999"
   cy="390.70001"
   r="6.5999999"
   id="circle83" />
	<circle
   cx="224.10001"
   cy="368.89999"
   r="6.5999999"
   id="circle85" />
	<circle
   cx="245.2"
   cy="433.20001"
   r="6.5999999"
   id="circle87" />
	<circle
   cx="202.89999"
   cy="411.39999"
   r="6.5999999"
   id="circle89" />
	<circle
   class="st7"
   cx="234.5"
   cy="401.39999"
   r="20.299999"
   id="circle91" />
</g>
<g
   id="Button_B"
   transform="matrix(0.31644804,0,0,0.31644804,-13.923014,-10.437846)">
	<path
   class="st6"
   d="m 854.4,431 -62.8,-23.6 c -25,-11.8 -0.7,-63.5 24.3,-51.7 l 45.9,15.7 z"
   id="path94" />
	
		<rect
   x="911.29999"
   y="417.89999"
   transform="matrix(0.8889,-0.458,0.458,0.8889,-94.7312,467.3084)"
   class="st1"
   width="9.8999996"
   height="22.1"
   id="rect96" />
	
		<rect
   x="867.90002"
   y="440.29999"
   transform="matrix(0.8889,-0.458,0.458,0.8889,-109.8031,449.925)"
   class="st1"
   width="9.8999996"
   height="22.1"
   id="rect98" />
	
		<rect
   x="871.40002"
   y="340.39999"
   transform="matrix(0.8889,-0.458,0.458,0.8889,-63.6214,440.4199)"
   class="st1"
   width="9.8999996"
   height="22.1"
   id="rect100" />
	
		<rect
   x="827.90002"
   y="362.79999"
   transform="matrix(0.8889,-0.458,0.458,0.8889,-78.7114,422.9827)"
   class="st1"
   width="9.8999996"
   height="22.1"
   id="rect102" />
	<g
   class="st5"
   id="g106">
		<path
   class="st0"
   d="m 792.7,395.3 v -30.1 h 10.5 c 3.7,0 6.4,0.7 8.3,2.1 1.9,1.4 2.8,3.4 2.8,6.1 0,1.5 -0.4,2.8 -1.1,3.9 -0.8,1.1 -1.8,1.9 -3.2,2.5 1.5,0.4 2.8,1.2 3.6,2.3 0.8,1.1 1.3,2.6 1.3,4.3 0,2.9 -0.9,5.1 -2.8,6.6 -1.8,1.5 -4.5,2.2 -7.9,2.3 z m 6.2,-17.4 h 4.6 c 3.1,-0.1 4.7,-1.3 4.7,-3.7 0,-1.4 -0.4,-2.3 -1.2,-2.9 -0.8,-0.6 -2,-0.9 -3.8,-0.9 h -4.3 z m 0,4.3 v 8.1 h 5.3 c 1.5,0 2.6,-0.3 3.4,-1 0.8,-0.7 1.2,-1.7 1.2,-2.9 0,-2.8 -1.4,-4.2 -4.3,-4.2 z"
   id="path104" />
	</g>
	
		<rect
   x="842.79999"
   y="368.60001"
   transform="matrix(0.8889,-0.458,0.458,0.8889,-86.496,445.4803)"
   class="st3"
   width="65.099998"
   height="65.099998"
   id="rect108" />
	<circle
   cx="843"
   cy="390.70001"
   r="6.5999999"
   id="circle110" />
	<circle
   cx="885.20001"
   cy="368.89999"
   r="6.5999999"
   id="circle112" />
	<circle
   cx="864.09998"
   cy="433.20001"
   r="6.5999999"
   id="circle114" />
	<circle
   cx="906.29999"
   cy="411.39999"
   r="6.5999999"
   id="circle116" />
	<circle
   class="st8"
   cx="875.59998"
   cy="401"
   r="20.299999"
   id="circle118" />
</g>
<g
   id="Lagesensor"
   transform="matrix(0.31644804,0,0,0.31644804,-13.923014,-10.437846)">
	<g
   class="st5"
   id="g141">
		<path
   class="st6"
   d="m 171.4,510.8 h 7 v 2.1 h -9.7 v -15.3 h 2.7 z"
   id="path121" />
		<path
   class="st6"
   d="m 189.2,509.4 h -5.9 l -1.2,3.6 h -2.8 l 5.8,-15.3 h 2.4 l 5.8,15.3 h -2.8 z m -5.2,-2.2 h 4.4 l -2.2,-6.4 z"
   id="path123" />
		<path
   class="st6"
   d="m 206.5,511 c -0.6,0.7 -1.3,1.3 -2.3,1.6 -1,0.3 -2.1,0.6 -3.4,0.6 -1.3,0 -2.4,-0.3 -3.4,-0.9 -1,-0.6 -1.8,-1.4 -2.3,-2.5 -0.5,-1.1 -0.8,-2.4 -0.8,-3.8 v -1.2 c 0,-2.3 0.6,-4.1 1.7,-5.4 1.1,-1.3 2.7,-2 4.6,-2 1.7,0 3.1,0.4 4.1,1.3 1,0.8 1.6,2.1 1.8,3.7 h -2.6 c -0.3,-1.8 -1.4,-2.8 -3.2,-2.8 -1.2,0 -2.1,0.4 -2.7,1.3 -0.6,0.9 -0.9,2.1 -1,3.8 v 1.2 c 0,1.7 0.3,2.9 1,3.9 0.7,0.9 1.7,1.4 2.9,1.4 1.4,0 2.3,-0.3 2.9,-0.9 v -3 h -3.1 v -2 h 5.8 z"
   id="path125" />
		<path
   class="st6"
   d="m 218.4,506.1 h -6.3 v 4.7 h 7.4 v 2.1 h -10 v -15.3 h 10 v 2.2 h -7.3 v 4.2 h 6.3 v 2.1 z"
   id="path127" />
		<path
   class="st6"
   d="m 229.6,509 c 0,-0.7 -0.2,-1.2 -0.7,-1.6 -0.5,-0.4 -1.3,-0.7 -2.6,-1.1 -1.2,-0.4 -2.2,-0.8 -3,-1.2 -1.4,-0.9 -2.1,-2 -2.1,-3.4 0,-1.2 0.5,-2.3 1.5,-3.1 1,-0.8 2.3,-1.2 3.9,-1.2 1.1,0 2,0.2 2.9,0.6 0.9,0.4 1.5,1 2,1.7 0.5,0.7 0.7,1.5 0.7,2.4 h -2.7 c 0,-0.8 -0.3,-1.4 -0.8,-1.9 -0.5,-0.5 -1.2,-0.7 -2.2,-0.7 -0.9,0 -1.5,0.2 -2,0.6 -0.5,0.4 -0.7,0.9 -0.7,1.6 0,0.6 0.3,1 0.8,1.4 0.5,0.4 1.4,0.7 2.6,1.1 1.2,0.4 2.2,0.8 2.9,1.2 0.7,0.5 1.3,1 1.6,1.6 0.3,0.6 0.5,1.3 0.5,2.1 0,1.3 -0.5,2.3 -1.5,3.1 -1,0.8 -2.3,1.1 -4,1.1 -1.1,0 -2.1,-0.2 -3.1,-0.6 -0.9,-0.4 -1.7,-1 -2.2,-1.7 -0.5,-0.7 -0.8,-1.6 -0.8,-2.5 h 2.7 c 0,0.9 0.3,1.5 0.9,2 0.6,0.5 1.4,0.7 2.5,0.7 0.9,0 1.6,-0.2 2.1,-0.6 0.6,-0.5 0.8,-1 0.8,-1.6 z"
   id="path129" />
		<path
   class="st6"
   d="m 243.6,506.1 h -6.3 v 4.7 h 7.4 v 2.1 h -10 v -15.3 h 10 v 2.2 h -7.3 v 4.2 h 6.3 v 2.1 z"
   id="path131" />
		<path
   class="st6"
   d="m 259,512.9 h -2.7 L 249.5,502 v 10.9 h -2.7 v -15.3 h 2.7 l 6.9,10.9 v -10.9 h 2.6 z"
   id="path133" />
		<path
   class="st6"
   d="m 270.2,509 c 0,-0.7 -0.2,-1.2 -0.7,-1.6 -0.5,-0.4 -1.3,-0.7 -2.6,-1.1 -1.2,-0.4 -2.2,-0.8 -3,-1.2 -1.4,-0.9 -2.1,-2 -2.1,-3.4 0,-1.2 0.5,-2.3 1.5,-3.1 1,-0.8 2.3,-1.2 3.9,-1.2 1.1,0 2,0.2 2.9,0.6 0.8,0.4 1.5,1 2,1.7 0.5,0.7 0.7,1.5 0.7,2.4 h -2.7 c 0,-0.8 -0.3,-1.4 -0.8,-1.9 -0.5,-0.5 -1.2,-0.7 -2.2,-0.7 -0.9,0 -1.5,0.2 -2,0.6 -0.5,0.4 -0.7,0.9 -0.7,1.6 0,0.6 0.3,1 0.8,1.4 0.5,0.4 1.4,0.7 2.6,1.1 1.2,0.4 2.2,0.8 2.9,1.2 0.7,0.4 1.3,1 1.6,1.6 0.3,0.6 0.5,1.3 0.5,2.1 0,1.3 -0.5,2.3 -1.5,3.1 -1,0.8 -2.3,1.1 -4,1.1 -1.1,0 -2.1,-0.2 -3.1,-0.6 -0.9,-0.4 -1.7,-1 -2.2,-1.7 -0.5,-0.7 -0.8,-1.6 -0.8,-2.5 h 2.7 c 0,0.9 0.3,1.5 0.9,2 0.6,0.5 1.4,0.7 2.5,0.7 0.9,0 1.6,-0.2 2.1,-0.6 0.6,-0.5 0.8,-1 0.8,-1.6 z"
   id="path135" />
		<path
   class="st6"
   d="m 287.5,505.7 c 0,1.5 -0.3,2.8 -0.8,4 -0.5,1.1 -1.3,2 -2.2,2.6 -1,0.6 -2.1,0.9 -3.3,0.9 -1.2,0 -2.4,-0.3 -3.3,-0.9 -1,-0.6 -1.7,-1.5 -2.3,-2.6 -0.5,-1.1 -0.8,-2.4 -0.8,-3.9 v -0.9 c 0,-1.5 0.3,-2.8 0.8,-4 0.5,-1.1 1.3,-2 2.2,-2.6 0.9,-0.6 2.1,-0.9 3.3,-0.9 1.3,0 2.4,0.3 3.3,0.9 0.9,0.6 1.7,1.5 2.2,2.6 0.5,1.1 0.8,2.4 0.8,3.9 z m -2.7,-0.8 c 0,-1.7 -0.3,-3 -1,-3.9 -0.6,-0.9 -1.6,-1.4 -2.7,-1.4 -1.2,0 -2.1,0.5 -2.7,1.4 -0.7,0.9 -1,2.2 -1,3.8 v 0.9 c 0,1.7 0.3,3 1,3.9 0.7,0.9 1.6,1.4 2.7,1.4 1.2,0 2.1,-0.4 2.7,-1.3 0.6,-0.9 1,-2.2 1,-3.9 z"
   id="path137" />
		<path
   class="st6"
   d="m 295.7,507 h -3 v 5.9 H 290 v -15.3 h 5.4 c 1.8,0 3.1,0.4 4.1,1.2 1,0.8 1.4,1.9 1.4,3.4 0,1 -0.2,1.9 -0.7,2.6 -0.5,0.7 -1.2,1.2 -2.1,1.6 l 3.4,6.4 v 0.1 h -2.9 z m -2.9,-2.1 h 2.7 c 0.9,0 1.6,-0.2 2.1,-0.7 0.5,-0.5 0.8,-1.1 0.8,-1.9 0,-0.8 -0.2,-1.5 -0.7,-1.9 -0.5,-0.4 -1.2,-0.7 -2.1,-0.7 h -2.8 z"
   id="path139" />
	</g>
	<rect
   x="319.39999"
   y="439.79999"
   width="42.299999"
   height="24.799999"
   id="rect143" />
	<path
   class="st4"
   d="m 333.6,464.6 v 35.3 c 0,3.3 -2.7,6 -6,6 v 0 H 304"
   id="path145" />
</g>
<g
   id="Lautsprecher"
   transform="matrix(0.31644804,0,0,0.31644804,-13.923014,-10.437846)">
	<line
   class="st4"
   x1="815.09998"
   y1="504.39999"
   x2="733.79999"
   y2="504.39999"
   id="line148" />
	<rect
   x="804.40002"
   y="481.70001"
   transform="rotate(-69.439261,854.75281,530.27889)"
   width="100.8"
   height="97.099998"
   id="rect150" />
	<g
   class="st5"
   id="g176">
		<path
   class="st6"
   d="m 574.9,511.4 h 7 v 2.1 h -9.6 v -15.3 h 2.7 z"
   id="path152" />
		<path
   class="st6"
   d="m 592.7,510 h -5.9 l -1.2,3.6 h -2.8 l 5.8,-15.3 h 2.4 l 5.8,15.3 H 594 Z m -5.2,-2.2 h 4.4 l -2.2,-6.4 z"
   id="path154" />
		<path
   class="st6"
   d="m 609.5,498.2 v 10.3 c 0,1.6 -0.5,2.9 -1.6,3.9 -1,1 -2.4,1.4 -4.2,1.4 -1.8,0 -3.2,-0.5 -4.2,-1.4 -1,-0.9 -1.5,-2.2 -1.5,-3.9 v -10.2 h 2.7 v 10.3 c 0,1 0.3,1.8 0.8,2.3 0.5,0.5 1.3,0.8 2.3,0.8 2.1,0 3.1,-1.1 3.1,-3.2 v -10.2 z"
   id="path156" />
		<path
   class="st6"
   d="m 623.5,500.3 h -4.8 v 13.2 h -2.6 v -13.2 h -4.7 v -2.2 h 12.2 z"
   id="path158" />
		<path
   class="st6"
   d="m 633.3,509.6 c 0,-0.7 -0.2,-1.2 -0.7,-1.6 -0.5,-0.4 -1.3,-0.7 -2.6,-1.1 -1.2,-0.4 -2.2,-0.8 -3,-1.2 -1.4,-0.9 -2.1,-2 -2.1,-3.4 0,-1.2 0.5,-2.3 1.5,-3.1 1,-0.8 2.3,-1.2 3.9,-1.2 1.1,0 2,0.2 2.9,0.6 0.8,0.4 1.5,1 2,1.7 0.5,0.7 0.7,1.5 0.7,2.4 h -2.7 c 0,-0.8 -0.3,-1.4 -0.8,-1.9 -0.5,-0.5 -1.2,-0.7 -2.2,-0.7 -0.9,0 -1.5,0.2 -2,0.6 -0.5,0.4 -0.7,0.9 -0.7,1.6 0,0.6 0.3,1 0.8,1.4 0.5,0.4 1.4,0.7 2.6,1.1 1.2,0.4 2.2,0.8 2.9,1.2 0.7,0.5 1.3,1 1.6,1.6 0.3,0.6 0.5,1.3 0.5,2.1 0,1.3 -0.5,2.3 -1.5,3.1 -1,0.8 -2.3,1.1 -4,1.1 -1.1,0 -2.1,-0.2 -3.1,-0.6 -0.9,-0.4 -1.7,-1 -2.2,-1.7 -0.5,-0.7 -0.8,-1.6 -0.8,-2.5 h 2.7 c 0,0.9 0.3,1.5 0.9,2 0.6,0.5 1.4,0.7 2.5,0.7 0.9,0 1.6,-0.2 2.1,-0.6 0.6,-0.5 0.8,-1 0.8,-1.6 z"
   id="path160" />
		<path
   class="st6"
   d="m 641,507.8 v 5.7 h -2.7 v -15.3 h 5.9 c 1.7,0 3.1,0.4 4.1,1.3 1,0.9 1.5,2.1 1.5,3.5 0,1.5 -0.5,2.7 -1.5,3.5 -1,0.8 -2.4,1.3 -4.1,1.3 z m 0,-2.1 h 3.2 c 0.9,0 1.7,-0.2 2.2,-0.7 0.5,-0.4 0.7,-1.1 0.7,-1.9 0,-0.8 -0.3,-1.5 -0.8,-2 -0.5,-0.5 -1.2,-0.8 -2.1,-0.8 h -3.3 v 5.4 z"
   id="path162" />
		<path
   class="st6"
   d="m 657.8,507.6 h -3 v 5.9 h -2.7 v -15.3 h 5.4 c 1.8,0 3.1,0.4 4.1,1.2 1,0.8 1.4,1.9 1.4,3.4 0,1 -0.2,1.9 -0.7,2.6 -0.5,0.7 -1.2,1.2 -2.1,1.6 l 3.4,6.4 v 0.1 h -2.9 z m -3,-2.1 h 2.7 c 0.9,0 1.6,-0.2 2.1,-0.7 0.5,-0.5 0.8,-1.1 0.8,-1.9 0,-0.8 -0.2,-1.5 -0.7,-1.9 -0.5,-0.4 -1.2,-0.7 -2.1,-0.7 h -2.8 z"
   id="path164" />
		<path
   class="st6"
   d="m 674.6,506.7 h -6.3 v 4.7 h 7.4 v 2.1 h -10 v -15.3 h 10 v 2.2 h -7.3 v 4.2 h 6.3 z"
   id="path166" />
		<path
   class="st6"
   d="m 689.5,508.5 c -0.2,1.6 -0.8,2.9 -1.8,3.8 -1.1,0.9 -2.5,1.4 -4.2,1.4 -1.2,0 -2.3,-0.3 -3.2,-0.9 -0.9,-0.6 -1.6,-1.4 -2.2,-2.5 -0.5,-1.1 -0.8,-2.3 -0.8,-3.7 v -1.4 c 0,-1.4 0.3,-2.7 0.8,-3.8 0.5,-1.1 1.2,-2 2.2,-2.5 1,-0.6 2.1,-0.9 3.3,-0.9 1.7,0 3.1,0.5 4.1,1.4 1,0.9 1.6,2.2 1.8,3.9 h -2.7 c -0.1,-1.1 -0.4,-1.9 -1,-2.4 -0.6,-0.5 -1.3,-0.7 -2.3,-0.7 -1.2,0 -2,0.4 -2.7,1.3 -0.6,0.8 -0.9,2.1 -1,3.7 v 1.4 c 0,1.7 0.3,2.9 0.9,3.8 0.6,0.9 1.5,1.3 2.6,1.3 1,0 1.8,-0.2 2.4,-0.7 0.5,-0.5 0.9,-1.3 1,-2.3 h 2.8 z"
   id="path168" />
		<path
   class="st6"
   d="m 704.1,513.5 h -2.7 v -6.8 h -6.9 v 6.8 h -2.7 v -15.3 h 2.7 v 6.4 h 6.9 v -6.4 h 2.7 z"
   id="path170" />
		<path
   class="st6"
   d="m 716.2,506.7 h -6.3 v 4.7 h 7.4 v 2.1 h -10 v -15.3 h 10 v 2.2 H 710 v 4.2 h 6.3 z"
   id="path172" />
		<path
   class="st6"
   d="m 725.1,507.6 h -3 v 5.9 h -2.7 v -15.3 h 5.4 c 1.8,0 3.1,0.4 4.1,1.2 1,0.8 1.4,1.9 1.4,3.4 0,1 -0.2,1.9 -0.7,2.6 -0.5,0.7 -1.2,1.2 -2.1,1.6 l 3.4,6.4 v 0.1 H 728 Z m -3,-2.1 h 2.7 c 0.9,0 1.6,-0.2 2.1,-0.7 0.5,-0.5 0.8,-1.1 0.8,-1.9 0,-0.8 -0.2,-1.5 -0.7,-1.9 -0.5,-0.4 -1.2,-0.7 -2.1,-0.7 h -2.8 z"
   id="path174" />
	</g>
</g>
<g
   id="RGB_LED"
   transform="matrix(0.31644804,0,0,0.31644804,-13.923014,-10.437846)">
	<rect
   x="534.09998"
   y="562.40002"
   class="st6"
   width="44.900002"
   height="44.900002"
   id="rect179" />
	<path
   class="st4"
   d="m 579.1,580.4 h 42.1 c 3.3,0 6,-2.7 6,-6 v -27.6 c 0,-3.3 -2.7,-6 -6,-6 h -3"
   id="path181" />
	<g
   class="st5"
   id="g195">
		<path
   class="st6"
   d="m 527.1,541.9 h -3 v 5.9 h -2.7 v -15.3 h 5.4 c 1.8,0 3.1,0.4 4.1,1.2 1,0.8 1.4,1.9 1.4,3.4 0,1 -0.2,1.9 -0.7,2.6 -0.5,0.7 -1.2,1.2 -2.1,1.6 l 3.4,6.4 v 0.1 H 530 Z m -3,-2.2 h 2.7 c 0.9,0 1.6,-0.2 2.1,-0.7 0.5,-0.5 0.8,-1.1 0.8,-1.9 0,-0.8 -0.2,-1.5 -0.7,-1.9 -0.5,-0.4 -1.2,-0.7 -2.1,-0.7 h -2.8 z"
   id="path183" />
		<path
   class="st6"
   d="m 546.7,545.8 c -0.6,0.7 -1.3,1.3 -2.3,1.6 -1,0.3 -2.1,0.6 -3.4,0.6 -1.3,0 -2.4,-0.3 -3.4,-0.9 -1,-0.6 -1.8,-1.4 -2.3,-2.5 -0.5,-1.1 -0.8,-2.4 -0.8,-3.8 v -1.2 c 0,-2.3 0.6,-4.1 1.7,-5.4 1.1,-1.3 2.7,-2 4.6,-2 1.7,0 3.1,0.4 4.1,1.3 1,0.8 1.6,2.1 1.8,3.7 h -2.6 c -0.3,-1.8 -1.4,-2.8 -3.2,-2.8 -1.2,0 -2.1,0.4 -2.7,1.3 -0.6,0.9 -0.9,2.1 -1,3.8 v 1.2 c 0,1.7 0.3,2.9 1,3.9 0.7,0.9 1.7,1.4 2.9,1.4 1.4,0 2.3,-0.3 2.9,-0.9 v -3 h -3.2 v -2 h 5.8 z"
   id="path185" />
		<path
   class="st6"
   d="m 549.6,547.8 v -15.3 h 5.3 c 1.7,0 3.1,0.3 4,1 0.9,0.7 1.4,1.7 1.4,3.1 0,0.7 -0.2,1.3 -0.6,1.9 -0.4,0.6 -0.9,1 -1.7,1.3 0.8,0.2 1.5,0.6 1.9,1.3 0.5,0.6 0.7,1.4 0.7,2.2 0,1.4 -0.5,2.5 -1.4,3.3 -0.9,0.8 -2.2,1.2 -4,1.2 z m 2.7,-8.9 h 2.6 c 0.8,0 1.5,-0.2 1.9,-0.6 0.5,-0.4 0.7,-0.9 0.7,-1.6 0,-0.8 -0.2,-1.3 -0.6,-1.6 -0.4,-0.3 -1.1,-0.5 -2,-0.5 h -2.6 z m 0,2 v 4.8 h 3 c 0.8,0 1.5,-0.2 2,-0.6 0.5,-0.4 0.7,-1 0.7,-1.7 0,-1.6 -0.8,-2.4 -2.4,-2.4 z"
   id="path187" />
		<path
   class="st6"
   d="m 571.3,545.7 h 7 v 2.1 h -9.6 v -15.3 h 2.7 z"
   id="path189" />
		<path
   class="st6"
   d="M 589.3,540.9 H 583 v 4.7 h 7.4 v 2.1 h -10 v -15.3 h 10 v 2.2 h -7.3 v 4.2 h 6.3 z"
   id="path191" />
		<path
   class="st6"
   d="m 592.5,547.8 v -15.3 h 4.5 c 1.4,0 2.6,0.3 3.6,0.9 1,0.6 1.9,1.5 2.4,2.6 0.6,1.1 0.9,2.4 0.9,3.8 v 0.8 c 0,1.5 -0.3,2.7 -0.9,3.8 -0.6,1.1 -1.4,2 -2.5,2.6 -1.1,0.6 -2.3,0.9 -3.7,0.9 z m 2.7,-13.2 v 11.1 h 1.7 c 1.4,0 2.5,-0.4 3.2,-1.3 0.7,-0.9 1.1,-2.1 1.1,-3.8 v -0.9 c 0,-1.7 -0.4,-2.9 -1.1,-3.8 -0.7,-0.9 -1.8,-1.3 -3.2,-1.3 z"
   id="path193" />
	</g>
</g>
<g
   id="weitere_Boardelemente"
   transform="matrix(0.31644804,0,0,0.31644804,-13.923014,-10.437846)">
	<rect
   x="702.59998"
   y="173"
   width="43.799999"
   height="53.700001"
   id="rect198" />
	<rect
   x="364.10001"
   y="270.79999"
   class="st6"
   width="10"
   height="17.9"
   id="rect200" />
	<circle
   class="st3"
   cx="369.10001"
   cy="279.79999"
   r="4.0999999"
   id="circle202" />
	<rect
   x="377.10001"
   y="651.20001"
   class="st6"
   width="34.5"
   height="31"
   id="rect204" />
	<rect
   x="707.79999"
   y="314.79999"
   class="st1"
   width="34"
   height="20.200001"
   id="rect206" />
	<circle
   cx="716.59998"
   cy="323.20001"
   r="3.4000001"
   id="circle208" />
	<rect
   x="659.20001"
   y="560.59998"
   class="st1"
   width="50.099998"
   height="88.699997"
   id="rect210" />
</g>
<g
   id="Batterie"
   transform="matrix(0.31644804,0,0,0.31644804,-13.923014,-10.437846)">
	<path
   class="st9"
   d="m 880.3,624.5 -33.6,81.8 c -1.3,3.1 -4.8,4.5 -7.8,3.3 l -95.4,-39.2 5.8,-14.2 23,10.1 28.3,-64.2 -24.6,-10.8 5.7,-13.8 95.4,39.1 c 3,1.3 4.5,4.8 3.2,7.9 z"
   id="path213" />
	<path
   class="st4"
   d="m 753,701.9 h 29.5 c 1.1,0 2.1,-0.3 3,-0.8 l 13.5,-7.9"
   id="path215" />
	<g
   class="st5"
   id="g233">
		<path
   class="st6"
   d="m 644.1,707.8 v -15.3 h 5.3 c 1.7,0 3.1,0.3 4,1 0.9,0.7 1.4,1.7 1.4,3.1 0,0.7 -0.2,1.3 -0.6,1.9 -0.4,0.6 -0.9,1 -1.7,1.3 0.8,0.2 1.5,0.6 1.9,1.3 0.5,0.6 0.7,1.4 0.7,2.2 0,1.4 -0.5,2.5 -1.4,3.3 -0.9,0.8 -2.2,1.2 -4,1.2 z m 2.7,-8.9 h 2.6 c 0.8,0 1.5,-0.2 1.9,-0.6 0.5,-0.4 0.7,-0.9 0.7,-1.6 0,-0.8 -0.2,-1.3 -0.6,-1.6 -0.4,-0.3 -1.1,-0.5 -2,-0.5 h -2.6 z m 0,2 v 4.8 h 3 c 0.8,0 1.5,-0.2 2,-0.6 0.5,-0.4 0.7,-1 0.7,-1.7 0,-1.6 -0.8,-2.4 -2.4,-2.4 z"
   id="path217" />
		<path
   class="st6"
   d="m 666.3,704.2 h -5.9 l -1.2,3.6 h -2.8 l 5.8,-15.3 h 2.4 l 5.8,15.3 h -2.8 z m -5.2,-2.1 h 4.4 l -2.2,-6.4 z"
   id="path219" />
		<path
   class="st6"
   d="m 681.9,694.6 h -4.8 v 13.2 h -2.6 v -13.2 h -4.7 v -2.2 H 682 Z"
   id="path221" />
		<path
   class="st6"
   d="m 695.2,694.6 h -4.8 v 13.2 h -2.6 v -13.2 h -4.7 v -2.2 h 12.2 z"
   id="path223" />
		<path
   class="st6"
   d="m 706.1,700.9 h -6.3 v 4.7 h 7.4 v 2.1 h -10 v -15.3 h 10 v 2.2 h -7.3 v 4.2 h 6.3 z"
   id="path225" />
		<path
   class="st6"
   d="m 715,701.9 h -3 v 5.9 h -2.7 v -15.3 h 5.4 c 1.8,0 3.1,0.4 4.1,1.2 1,0.8 1.4,1.9 1.4,3.4 0,1 -0.2,1.9 -0.7,2.6 -0.5,0.7 -1.2,1.2 -2.1,1.6 l 3.4,6.4 v 0.1 h -2.9 z m -3,-2.2 h 2.7 c 0.9,0 1.6,-0.2 2.1,-0.7 0.5,-0.5 0.8,-1.1 0.8,-1.9 0,-0.8 -0.2,-1.5 -0.7,-1.9 -0.5,-0.4 -1.2,-0.7 -2.1,-0.7 H 712 Z"
   id="path227" />
		<path
   class="st6"
   d="M 725.7,707.8 H 723 v -15.3 h 2.7 z"
   id="path229" />
		<path
   class="st6"
   d="m 737.9,700.9 h -6.3 v 4.7 h 7.4 v 2.1 h -10 v -15.3 h 10 v 2.2 h -7.3 v 4.2 h 6.3 z"
   id="path231" />
	</g>
</g>
<g
   id="_1._Reihe_Pins"
   transform="matrix(0.31644804,0,0,0.31644804,-13.923014,-10.437846)">
	<circle
   class="st1"
   cx="625.20001"
   cy="700.09998"
   r="9.1999998"
   id="circle236" />
	<circle
   cx="625.20001"
   cy="700.09998"
   r="3.9000001"
   id="circle238" />
	<circle
   class="st1"
   cx="596.5"
   cy="704.29999"
   r="9.1999998"
   id="circle240" />
	<circle
   cx="596.5"
   cy="704.29999"
   r="3.9000001"
   id="circle242" />
	<circle
   class="st1"
   cx="567.79999"
   cy="700.09998"
   r="9.1999998"
   id="circle244" />
	<circle
   cx="567.79999"
   cy="700.09998"
   r="3.9000001"
   id="circle246" />
	<circle
   class="st1"
   cx="539.20001"
   cy="704.29999"
   r="9.1999998"
   id="circle248" />
	<circle
   cx="539.20001"
   cy="704.29999"
   r="3.9000001"
   id="circle250" />
	<circle
   class="st1"
   cx="510.5"
   cy="700.09998"
   r="9.1999998"
   id="circle252" />
	<circle
   cx="510.5"
   cy="700.09998"
   r="3.9000001"
   id="circle254" />
	<circle
   class="st1"
   cx="481.79999"
   cy="704.29999"
   r="9.1999998"
   id="circle256" />
	<circle
   cx="481.79999"
   cy="704.29999"
   r="3.9000001"
   id="circle258" />
</g>
<g
   id="_2._Reihe_Pins"
   transform="matrix(0.31644804,0,0,0.31644804,-13.923014,-10.437846)">
	<circle
   class="st1"
   cx="741"
   cy="757.59998"
   r="9.1999998"
   id="circle261" />
	<circle
   cx="741"
   cy="757.59998"
   r="3.9000001"
   id="circle263" />
	<circle
   class="st1"
   cx="741"
   cy="788.40002"
   r="9.1999998"
   id="circle265" />
	<circle
   cx="741"
   cy="788.40002"
   r="3.9000001"
   id="circle267" />
	<circle
   class="st1"
   cx="710.29999"
   cy="757.59998"
   r="9.1999998"
   id="circle269" />
	<circle
   cx="710.29999"
   cy="757.59998"
   r="3.9000001"
   id="circle271" />
	<circle
   class="st1"
   cx="710.29999"
   cy="788.40002"
   r="9.1999998"
   id="circle273" />
	<circle
   cx="710.29999"
   cy="788.40002"
   r="3.9000001"
   id="circle275" />
	<circle
   class="st1"
   cx="679.59998"
   cy="757.59998"
   r="9.1999998"
   id="circle277" />
	<circle
   cx="679.59998"
   cy="757.59998"
   r="3.9000001"
   id="circle279" />
	<circle
   class="st1"
   cx="679.59998"
   cy="788.40002"
   r="9.1999998"
   id="circle281" />
	<circle
   cx="679.59998"
   cy="788.40002"
   r="3.9000001"
   id="circle283" />
	<circle
   class="st1"
   cx="648.79999"
   cy="757.59998"
   r="9.1999998"
   id="circle285" />
	<circle
   cx="648.79999"
   cy="757.59998"
   r="3.9000001"
   id="circle287" />
	<circle
   class="st1"
   cx="648.79999"
   cy="788.40002"
   r="9.1999998"
   id="circle289" />
	<circle
   cx="648.79999"
   cy="788.40002"
   r="3.9000001"
   id="circle291" />
	<circle
   class="st1"
   cx="618.09998"
   cy="757.59998"
   r="9.1999998"
   id="circle293" />
	<circle
   cx="618.09998"
   cy="757.59998"
   r="3.9000001"
   id="circle295" />
	<circle
   class="st1"
   cx="618.09998"
   cy="788.40002"
   r="9.1999998"
   id="circle297" />
	<circle
   cx="618.09998"
   cy="788.40002"
   r="3.9000001"
   id="circle299" />
	
		<circle
   transform="matrix(0.9239,-0.3827,0.3827,0.9239,-245.2019,282.52)"
   class="st1"
   cx="587.5"
   cy="757.59998"
   id="ellipse301"
   r="9.1999998" />
	<circle
   cx="587.40002"
   cy="757.59998"
   r="3.9000001"
   id="circle303" />
	
		<circle
   transform="matrix(0.9239,-0.3827,0.3827,0.9239,-256.9888,284.8645)"
   class="st1"
   cx="587.5"
   cy="788.40002"
   id="ellipse305"
   r="9.1999998" />
	<circle
   cx="587.40002"
   cy="788.40002"
   r="3.9000001"
   id="circle307" />
	<circle
   class="st1"
   cx="556.59998"
   cy="757.59998"
   r="9.1999998"
   id="circle309" />
	<circle
   cx="556.59998"
   cy="757.59998"
   r="3.9000001"
   id="circle311" />
	<circle
   class="st1"
   cx="556.59998"
   cy="788.40002"
   r="9.1999998"
   id="circle313" />
	<circle
   cx="556.59998"
   cy="788.40002"
   r="3.9000001"
   id="circle315" />
	<circle
   class="st1"
   cx="525.90002"
   cy="757.59998"
   r="9.1999998"
   id="circle317" />
	<circle
   cx="525.90002"
   cy="757.59998"
   r="3.9000001"
   id="circle319" />
	<circle
   class="st1"
   cx="525.90002"
   cy="788.40002"
   r="9.1999998"
   id="circle321" />
	<circle
   cx="525.90002"
   cy="788.40002"
   r="3.9000001"
   id="circle323" />
	<circle
   class="st1"
   cx="495.10001"
   cy="757.59998"
   r="9.1999998"
   id="circle325" />
	<circle
   cx="495.10001"
   cy="757.59998"
   r="3.9000001"
   id="circle327" />
	<circle
   class="st1"
   cx="495.10001"
   cy="788.40002"
   r="9.1999998"
   id="circle329" />
	<circle
   cx="495.10001"
   cy="788.40002"
   r="3.9000001"
   id="circle331" />
	<circle
   class="st1"
   cx="464.39999"
   cy="757.59998"
   r="9.1999998"
   id="circle333" />
	<circle
   cx="464.39999"
   cy="757.59998"
   r="3.9000001"
   id="circle335" />
	<circle
   class="st1"
   cx="464.39999"
   cy="788.40002"
   r="9.1999998"
   id="circle337" />
	<circle
   cx="464.39999"
   cy="788.40002"
   r="3.9000001"
   id="circle339" />
	<circle
   class="st1"
   cx="433.70001"
   cy="757.59998"
   r="9.1999998"
   id="circle341" />
	<circle
   cx="433.70001"
   cy="757.59998"
   r="3.9000001"
   id="circle343" />
	<circle
   class="st1"
   cx="433.70001"
   cy="788.40002"
   r="9.1999998"
   id="circle345" />
	<circle
   cx="433.70001"
   cy="788.40002"
   r="3.9000001"
   id="circle347" />
	<circle
   class="st1"
   cx="402.89999"
   cy="757.59998"
   r="9.1999998"
   id="circle349" />
	<circle
   cx="402.89999"
   cy="757.59998"
   r="3.9000001"
   id="circle351" />
	<circle
   class="st1"
   cx="402.89999"
   cy="788.40002"
   r="9.1999998"
   id="circle353" />
	<circle
   cx="402.89999"
   cy="788.40002"
   r="3.9000001"
   id="circle355" />
	<circle
   class="st1"
   cx="372.20001"
   cy="757.59998"
   r="9.1999998"
   id="circle357" />
	<circle
   cx="372.20001"
   cy="757.59998"
   r="3.9000001"
   id="circle359" />
	<circle
   class="st1"
   cx="372.20001"
   cy="788.40002"
   r="9.1999998"
   id="circle361" />
	<circle
   cx="372.20001"
   cy="788.40002"
   r="3.9000001"
   id="circle363" />
</g>
<g
   id="Beschriftungen"
   transform="matrix(0.31644804,0,0,0.31644804,-13.923014,-10.437846)">
	<line
   id="_-"
   class="st10"
   x1="395.79999"
   y1="103.2"
   x2="413.20001"
   y2="103.2" />
	<g
   id="_">
		<line
   class="st10"
   x1="693.5"
   y1="103.2"
   x2="710.90002"
   y2="103.2"
   id="line367" />
		<line
   class="st10"
   x1="702.20001"
   y1="94.5"
   x2="702.20001"
   y2="111.9"
   id="line369" />
	</g>
	<g
   class="st5"
   id="g376">
		<path
   class="st6"
   d="m 328.4,304.3 h -5.9 l -1.2,3.6 h -2.8 l 5.8,-15.3 h 2.4 l 5.8,15.3 h -2.8 z m -5.2,-2.2 h 4.4 l -2.2,-6.4 z"
   id="path372" />
		<path
   class="st6"
   d="m 343.8,301.4 c 0,2.2 -0.4,3.9 -1.2,5 -0.8,1.1 -2.1,1.7 -3.8,1.7 -1.7,0 -2.9,-0.5 -3.7,-1.6 -0.8,-1.1 -1.3,-2.7 -1.3,-4.9 v -2.7 c 0,-2.2 0.4,-3.9 1.2,-5 0.8,-1.1 2.1,-1.7 3.8,-1.7 1.7,0 2.9,0.5 3.8,1.6 0.8,1.1 1.2,2.7 1.3,4.8 v 2.8 z m -2.6,-2.9 c 0,-1.4 -0.2,-2.5 -0.6,-3.2 -0.4,-0.7 -1,-1 -1.9,-1 -0.8,0 -1.5,0.3 -1.8,1 -0.4,0.6 -0.6,1.6 -0.6,3 v 3.5 c 0,1.4 0.2,2.5 0.6,3.2 0.4,0.7 1,1.1 1.9,1.1 0.8,0 1.4,-0.3 1.8,-1 0.4,-0.6 0.6,-1.7 0.6,-3.1 z"
   id="path374" />
	</g>
	<g
   class="st5"
   id="g380">
		<path
   class="st6"
   d="m 152.8,541.3 c 0,2.2 -0.4,3.9 -1.2,5 -0.8,1.1 -2.1,1.7 -3.8,1.7 -1.7,0 -2.9,-0.5 -3.7,-1.6 -0.8,-1.1 -1.3,-2.7 -1.3,-4.9 v -2.7 c 0,-2.2 0.4,-3.9 1.2,-5 0.8,-1.1 2.1,-1.7 3.8,-1.7 1.7,0 2.9,0.5 3.8,1.6 0.8,1.1 1.2,2.7 1.3,4.8 z m -2.6,-2.8 c 0,-1.4 -0.2,-2.5 -0.6,-3.2 -0.4,-0.7 -1,-1 -1.9,-1 -0.8,0 -1.5,0.3 -1.8,1 -0.4,0.6 -0.6,1.6 -0.6,3 v 3.5 c 0,1.4 0.2,2.5 0.6,3.2 0.4,0.7 1,1.1 1.9,1.1 0.8,0 1.4,-0.3 1.8,-1 0.4,-0.6 0.6,-1.7 0.6,-3.1 z"
   id="path378" />
	</g>
	<g
   class="st5"
   id="g386">
		<path
   class="st6"
   d="m 340.7,802.3 c -0.1,1 -0.4,1.7 -1.1,2.3 -0.6,0.5 -1.4,0.8 -2.5,0.8 -0.7,0 -1.4,-0.2 -1.9,-0.5 -0.5,-0.3 -1,-0.8 -1.3,-1.5 -0.3,-0.7 -0.5,-1.4 -0.5,-2.2 v -0.8 c 0,-0.9 0.2,-1.6 0.5,-2.3 0.3,-0.6 0.7,-1.1 1.3,-1.5 0.6,-0.4 1.2,-0.5 2,-0.5 1,0 1.8,0.3 2.4,0.8 0.6,0.5 1,1.3 1.1,2.3 h -1.6 c -0.1,-0.6 -0.3,-1.1 -0.6,-1.4 -0.3,-0.3 -0.7,-0.4 -1.3,-0.4 -0.7,0 -1.2,0.2 -1.6,0.7 -0.4,0.5 -0.6,1.2 -0.6,2.2 v 0.8 c 0,1 0.2,1.7 0.5,2.2 0.3,0.5 0.9,0.8 1.5,0.8 0.6,0 1.1,-0.1 1.4,-0.4 0.3,-0.3 0.5,-0.7 0.6,-1.4 z"
   id="path382" />
		<path
   class="st6"
   d="m 345.9,805.3 h -1.5 V 798 l -2.2,0.8 v -1.3 l 3.5,-1.3 h 0.2 z"
   id="path384" />
	</g>
	<g
   class="st5"
   id="g390">
		<path
   class="st6"
   d="m 405.7,862.7 h -2.6 v -12.3 l -3.8,1.3 v -2.1 l 6,-2.2 h 0.3 z"
   id="path388" />
	</g>
	<g
   class="st5"
   id="g394">
		<path
   class="st6"
   d="m 708.1,862.7 h -10.3 v -1.8 l 5.1,-5.6 c 0.7,-0.8 1.3,-1.5 1.6,-2.1 0.3,-0.6 0.5,-1.1 0.5,-1.7 0,-0.7 -0.2,-1.3 -0.6,-1.8 -0.4,-0.4 -1,-0.7 -1.7,-0.7 -0.8,0 -1.5,0.3 -1.9,0.8 -0.5,0.5 -0.7,1.2 -0.7,2.1 h -2.6 c 0,-0.9 0.2,-1.8 0.6,-2.5 0.4,-0.7 1,-1.3 1.8,-1.7 0.8,-0.4 1.7,-0.6 2.7,-0.6 1.5,0 2.7,0.4 3.5,1.1 0.8,0.7 1.3,1.8 1.3,3.1 0,0.8 -0.2,1.6 -0.6,2.4 -0.4,0.8 -1.1,1.8 -2.1,2.9 l -3.8,4 h 7.1 z"
   id="path392" />
	</g>
	<g
   class="st5"
   id="g398">
		<path
   class="st6"
   d="m 956.7,538.9 h 1.6 c 0.8,0 1.4,-0.2 1.9,-0.6 0.5,-0.4 0.7,-1 0.7,-1.7 0,-0.7 -0.2,-1.3 -0.6,-1.7 -0.4,-0.4 -1,-0.6 -1.8,-0.6 -0.7,0 -1.3,0.2 -1.7,0.6 -0.4,0.4 -0.7,0.9 -0.7,1.6 h -2.6 c 0,-0.8 0.2,-1.5 0.6,-2.1 0.4,-0.6 1,-1.2 1.7,-1.5 0.7,-0.4 1.6,-0.5 2.5,-0.5 1.5,0 2.7,0.4 3.6,1.2 0.9,0.8 1.3,1.8 1.3,3.2 0,0.7 -0.2,1.3 -0.7,1.9 -0.4,0.6 -1,1.1 -1.7,1.4 0.8,0.3 1.5,0.7 1.9,1.4 0.4,0.6 0.7,1.4 0.7,2.2 0,1.4 -0.5,2.5 -1.4,3.3 -0.9,0.8 -2.2,1.2 -3.7,1.2 -1.5,0 -2.7,-0.4 -3.6,-1.2 -0.9,-0.8 -1.4,-1.8 -1.4,-3.1 h 2.6 c 0,0.7 0.2,1.2 0.7,1.6 0.5,0.4 1.1,0.6 1.8,0.6 0.8,0 1.4,-0.2 1.9,-0.6 0.5,-0.4 0.7,-1 0.7,-1.8 0,-0.8 -0.2,-1.4 -0.7,-1.9 -0.5,-0.4 -1.2,-0.7 -2.1,-0.7 h -1.5 z"
   id="path396" />
	</g>
	<g
   class="st5"
   id="g404">
		<path
   class="st6"
   d="m 769.6,304.3 h -5.9 l -1.2,3.6 h -2.8 l 5.8,-15.3 h 2.4 l 5.8,15.3 h -2.8 z m -5.2,-2.2 h 4.4 l -2.2,-6.4 z"
   id="path400" />
		<path
   class="st6"
   d="m 781.9,307.9 h -2.6 v -12.3 l -3.8,1.3 v -2.2 l 6,-2.2 h 0.3 z"
   id="path402" />
	</g>
</g>
<g
   id="Calliope_mini_Logo"
   transform="matrix(0.31644804,0,0,0.31644804,-13.923014,-10.437846)">
	<path
   class="st6"
   d="m 311.9,635.1 -1.2,-2.1 1.7,-1.3 c 0.1,-0.5 0.2,-0.9 0.1,-1.4 -0.1,-0.6 -0.3,-1.1 -0.6,-1.6 -0.6,-1.1 -1.7,-1.9 -2.9,-2.1 -1.4,-0.1 -2.8,0.2 -4,1 l -0.5,0.3 c -1.3,0.6 -2.3,1.7 -2.9,2.9 -0.5,1.1 -0.4,2.5 0.2,3.5 0.3,0.5 0.6,1 1.1,1.4 0.4,0.3 0.8,0.6 1.2,0.7 l 2,-0.8 1.2,2.1 -2.8,1.6 c -1,-0.2 -2,-0.6 -2.8,-1.3 -0.9,-0.7 -1.7,-1.6 -2.2,-2.6 -1,-1.7 -1.3,-3.8 -0.7,-5.7 0.7,-2 2.1,-3.6 4,-4.6 l 0.5,-0.3 c 1.8,-1.1 3.9,-1.5 6,-1.1 2,0.4 3.6,1.7 4.6,3.5 0.6,1 0.9,2.1 1.1,3.2 0.1,1 0,2.1 -0.3,3 z"
   id="path407" />
	<path
   class="st6"
   d="m 305.7,641.7 0.7,0.9 14.5,-2.7 1.6,2.9 -9.7,11.1 0.4,1.1 -1.7,1 -2.7,-4.7 1.7,-1 0.7,0.9 1.6,-1.7 -2.6,-4.5 -2.3,0.5 0.4,1.1 -1.7,1 -2.7,-4.8 z m 7,2.7 1.8,3.2 4,-4.4 v -0.1 z"
   id="path409" />
	<path
   class="st6"
   d="m 312.8,658.1 1.7,-1 1.1,1.3 10,-5.7 -0.6,-1.7 1.7,-1 0.8,1.5 1.6,2.8 0.8,1.5 -1.7,1 -1.1,-1.3 -9.8,5.6 2.2,3.9 1.8,-0.9 1.2,2.1 -3.9,2.2 z"
   id="path411" />
	<path
   class="st6"
   d="m 320,670.7 1.7,-1 1.1,1.3 10,-5.7 -0.6,-1.6 1.7,-1 0.8,1.5 1.6,2.8 0.8,1.5 -1.7,1 -1.1,-1.3 -9.8,5.6 2.2,3.9 1.8,-0.9 1.2,2.1 -3.9,2.2 z"
   id="path413" />
	<path
   class="st6"
   d="m 339.4,676.4 1.7,-1 3.3,5.8 -1.7,1 -1.1,-1.3 -10,5.7 0.6,1.7 -1.7,1 -3.3,-5.8 1.7,-1 1.1,1.3 10,-5.7 z"
   id="path415" />
	<path
   class="st6"
   d="m 345.8,700.2 c -1.8,1.1 -4,1.5 -6.1,1.1 -3.9,-0.9 -6.2,-4.7 -5.4,-8.6 0,-0.2 0.1,-0.4 0.1,-0.5 0.7,-2 2.2,-3.6 4.1,-4.6 l 0.2,-0.1 c 1.8,-1.1 4,-1.5 6,-1.1 2,0.4 3.7,1.6 4.6,3.4 1.1,1.7 1.3,3.8 0.6,5.7 -0.7,2 -2.2,3.6 -4.1,4.7 z m -1.3,-2.9 c 1.3,-0.6 2.3,-1.7 3,-2.9 0.6,-1.1 0.5,-2.4 -0.2,-3.4 -0.5,-1.1 -1.6,-1.8 -2.8,-1.9 -1.4,0 -2.8,0.4 -4,1.1 l -0.2,0.1 c -1.3,0.6 -2.3,1.7 -3,2.9 -0.6,1.1 -0.5,2.4 0.1,3.4 0.5,1.1 1.6,1.8 2.9,1.9 1.4,0 2.8,-0.4 4,-1.1 z"
   id="path417" />
	<path
   class="st6"
   d="m 358,705.1 c 0.8,1.3 1.2,2.9 0.9,4.5 -0.7,2.7 -3.4,4.4 -6.2,3.7 -0.1,0 -0.2,0 -0.3,-0.1 -1.5,-0.6 -2.7,-1.7 -3.4,-3.1 l -1.3,-2.3 -3.1,1.8 0.6,1.7 -1.7,1 -3.3,-5.8 1.7,-1 1.1,1.3 10,-5.7 -0.6,-1.7 1.7,-1 0.8,1.5 z m -8.1,1.5 1.3,2.4 c 0.3,0.7 0.9,1.2 1.6,1.4 0.7,0.2 1.4,0 2,-0.3 0.6,-0.3 1.1,-0.9 1.3,-1.5 0.2,-0.7 0.1,-1.5 -0.3,-2.1 l -1.3,-2.4 z"
   id="path419" />
	<path
   class="st6"
   d="m 359.4,725.8 -2.7,-4.7 -4,2.3 2.5,4.5 1.7,-0.8 1.2,2.1 -3.8,2.1 -6.3,-11 1.7,-1 1.1,1.4 10,-5.7 -0.6,-1.6 1.7,-1 0.8,1.5 5.4,9.5 -3.8,2.2 -1.2,-2.1 1.6,-1.1 -2.5,-4.5 -3.5,2 2.7,4.7 z"
   id="path421" />
	<path
   class="st6"
   d="m 285.9,641 -2.4,1.6 c 1.1,-0.1 2.2,0.2 3.2,0.7 1,0.5 1.9,1.4 2.4,2.4 0.5,0.9 0.8,1.8 0.8,2.9 -0.1,1 -0.4,1.9 -1.1,2.6 1,0 2,0.3 2.8,0.8 0.9,0.5 1.7,1.3 2.2,2.3 0.4,0.7 0.7,1.5 0.8,2.4 0.1,0.8 0,1.6 -0.3,2.4 -0.3,0.9 -0.9,1.6 -1.5,2.3 -0.9,0.9 -1.8,1.6 -2.9,2.2 l -17.4,9.9 -2.8,-4.9 17.4,-9.9 c 1,-0.6 1.5,-1.1 1.6,-1.7 0.1,-0.6 0,-1.3 -0.3,-1.9 -0.3,-0.5 -0.7,-0.9 -1.2,-1.2 -0.5,-0.2 -1,-0.2 -1.6,-0.1 l -18.4,10.4 -2.7,-4.8 17.5,-9.9 c 0.7,-0.3 1.3,-0.9 1.6,-1.7 0.2,-0.6 0,-1.3 -0.3,-1.9 -0.3,-0.5 -0.7,-1 -1.2,-1.2 -0.5,-0.2 -1,-0.3 -1.5,-0.2 l -18.5,10.5 -2.8,-4.9 23.7,-13.5 z"
   id="path423" />
	<path
   class="st6"
   d="m 300.2,666.2 7.2,12.7 -19.4,11.1 4,7.1 -4.3,2.5 -11.3,-19.9 4.4,-2.5 4.2,7.4 15.1,-8.6 -4.2,-7.4 z m 10.1,3.4 c 0.7,-0.5 1.6,-0.6 2.5,-0.4 1.8,0.7 2.9,2.6 2.5,4.5 -0.5,1.7 -2.3,2.7 -4.1,2.3 -1.8,-0.7 -2.9,-2.6 -2.5,-4.5 0.2,-0.8 0.8,-1.5 1.6,-1.9 z"
   id="path425" />
	<path
   class="st6"
   d="m 317.7,697.1 -3.1,2.2 c 1.6,0.2 3.2,0.7 4.5,1.6 1.4,0.9 2.5,2.1 3.3,3.5 0.7,1.1 1.1,2.4 1.4,3.6 0.2,1.2 0.2,2.4 -0.2,3.5 -0.4,1.2 -1.1,2.4 -1.9,3.3 -1.1,1.2 -2.5,2.3 -3.9,3 l -14.9,8.5 -3,-5.3 14.8,-8.4 c 0.8,-0.5 1.6,-1 2.3,-1.7 0.5,-0.5 0.9,-1.2 1.1,-1.9 0.2,-0.7 0.2,-1.4 0,-2 -0.2,-0.8 -0.5,-1.5 -0.9,-2.2 -0.6,-1.1 -1.4,-2 -2.5,-2.6 -1,-0.6 -2.1,-0.9 -3.3,-0.9 l -17.1,9.7 -3,-5.3 23.8,-13.5 z"
   id="path427" />
	<path
   class="st6"
   d="m 329.9,718.9 7.2,12.7 -19.5,11.1 4,7.1 -4.3,2.5 -11.2,-19.8 4.4,-2.5 4.2,7.4 15.1,-8.6 -4.2,-7.4 z m 10.1,3.4 c 0.7,-0.5 1.6,-0.6 2.5,-0.4 0.9,0.3 1.7,0.9 2.1,1.8 0.5,0.8 0.7,1.8 0.5,2.7 -0.5,1.7 -2.3,2.7 -4.1,2.3 -0.9,-0.3 -1.7,-0.9 -2.1,-1.8 -0.5,-0.8 -0.7,-1.8 -0.5,-2.7 0.3,-0.8 0.9,-1.5 1.6,-1.9 z"
   id="path429" />
	<path
   class="st6"
   d="m 309.4,597.3 -7.1,-12.4 c -1.1,-1.9 -3.4,-2.5 -5.3,-1.4 l -9.4,5.3 c 7.9,-4.3 10.9,-14.2 6.6,-22.1 -4.3,-7.9 -14.2,-10.9 -22.1,-6.6 -0.2,0.1 -0.4,0.2 -0.7,0.4 l -15.6,8.9 -22.1,-9.6 c -15.1,-6.4 -29.7,10 -21.6,24.2 l 1.9,3.4 c 11.2,-4.5 26,-8.6 37.5,-6.5 l 0.2,0.4 8.5,15 c -4.1,11.2 -15.2,21.3 -24.9,28.6 l 2.7,4.8 c 3,5.3 9.7,7.1 15,4.1 v 0 l 36.3,-20.6 18.4,-10.5 c 2.1,-1.2 2.7,-3.6 1.7,-5.4 z m -27.9,-31 6.6,11.6 -7.9,4.5 c -2.5,1.5 -5.8,0.6 -7.2,-2 v 0 l -1.4,-2.4 c -1.5,-2.5 -0.6,-5.8 2,-7.2 v 0 z m -24.3,10.2 13.1,-0.5 -8.3,8.9 z m 4.9,8.7 12,-2.6 -7.2,11.1 z m 18,11.3 17.3,-9.9 8,14 -17.3,9.9 z"
   id="path431" />
	<path
   class="st6"
   d="m 231.4,617.5 c 1.1,-10.6 11.7,-24.7 20.5,-36.3 L 220.8,599 Z"
   id="path433" />
</g>
<g
   id="Prozessor"
   transform="matrix(0.31644804,0,0,0.31644804,-13.923014,-10.437846)">
	<rect
   x="387.60001"
   y="571"
   transform="matrix(0.7071,-0.7071,0.7071,0.7071,-304.4466,475.6995)"
   width="68.699997"
   height="68.699997"
   id="rect436" />
	<path
   class="st4"
   d="m 442.2,633.9 34.8,34.8 c 1.1,1.1 2.6,1.8 4.2,1.8 h 7.7"
   id="path438" />
	<g
   class="st5"
   id="g458">
		<path
   class="st6"
   d="m 501.9,673.6 v 5.7 h -2.7 V 664 h 5.9 c 1.7,0 3.1,0.4 4.1,1.3 1,0.9 1.5,2.1 1.5,3.5 0,1.5 -0.5,2.7 -1.5,3.5 -1,0.8 -2.4,1.3 -4.1,1.3 z m 0,-2.2 h 3.2 c 0.9,0 1.7,-0.2 2.2,-0.7 0.5,-0.4 0.7,-1.1 0.7,-1.9 0,-0.8 -0.3,-1.5 -0.8,-2 -0.5,-0.5 -1.2,-0.8 -2.1,-0.8 h -3.3 v 5.4 z"
   id="path440" />
		<path
   class="st6"
   d="m 518.6,673.3 h -3 v 5.9 h -2.7 v -15.3 h 5.4 c 1.8,0 3.1,0.4 4.1,1.2 1,0.8 1.4,1.9 1.4,3.4 0,1 -0.2,1.9 -0.7,2.6 -0.5,0.7 -1.2,1.2 -2.1,1.6 l 3.4,6.4 v 0.1 h -2.9 z m -3,-2.1 h 2.7 c 0.9,0 1.6,-0.2 2.1,-0.7 0.5,-0.5 0.8,-1.1 0.8,-1.9 0,-0.8 -0.2,-1.5 -0.7,-1.9 -0.5,-0.4 -1.2,-0.7 -2.1,-0.7 h -2.8 z"
   id="path442" />
		<path
   class="st6"
   d="m 538.7,672 c 0,1.5 -0.3,2.8 -0.8,4 -0.5,1.1 -1.3,2 -2.2,2.6 -1,0.6 -2.1,0.9 -3.3,0.9 -1.2,0 -2.4,-0.3 -3.3,-0.9 -1,-0.6 -1.7,-1.5 -2.3,-2.6 -0.5,-1.1 -0.8,-2.4 -0.8,-3.9 v -0.9 c 0,-1.5 0.3,-2.8 0.8,-4 0.5,-1.1 1.3,-2 2.2,-2.6 1,-0.6 2.1,-0.9 3.3,-0.9 1.2,0 2.4,0.3 3.3,0.9 1,0.6 1.7,1.5 2.2,2.6 0.5,1.1 0.8,2.4 0.8,3.9 v 0.9 z m -2.7,-0.8 c 0,-1.7 -0.3,-3 -1,-3.9 -0.6,-0.9 -1.6,-1.4 -2.7,-1.4 -1.2,0 -2.1,0.5 -2.7,1.4 -0.6,0.9 -1,2.2 -1,3.8 v 0.9 c 0,1.7 0.3,3 1,3.9 0.7,0.9 1.6,1.4 2.7,1.4 1.2,0 2.1,-0.4 2.7,-1.3 0.6,-0.9 1,-2.2 1,-3.9 z"
   id="path444" />
		<path
   class="st6"
   d="m 543.6,677.1 h 8.2 v 2.1 h -11.4 v -1.7 l 7.9,-11.5 h -7.9 v -2.2 h 11.1 v 1.7 z"
   id="path446" />
		<path
   class="st6"
   d="m 563.1,672.4 h -6.3 v 4.7 h 7.4 v 2.1 h -10 v -15.3 h 10 v 2.2 h -7.3 v 4.2 h 6.3 z"
   id="path448" />
		<path
   class="st6"
   d="m 574.3,675.3 c 0,-0.7 -0.2,-1.2 -0.7,-1.6 -0.5,-0.4 -1.3,-0.7 -2.6,-1.1 -1.2,-0.4 -2.2,-0.8 -3,-1.2 -1.4,-0.9 -2.1,-2 -2.1,-3.4 0,-1.2 0.5,-2.3 1.5,-3.1 1,-0.8 2.3,-1.2 3.9,-1.2 1.1,0 2,0.2 2.9,0.6 0.8,0.4 1.5,1 2,1.7 0.5,0.7 0.7,1.5 0.7,2.4 h -2.7 c 0,-0.8 -0.3,-1.4 -0.8,-1.9 -0.5,-0.5 -1.2,-0.7 -2.2,-0.7 -0.9,0 -1.5,0.2 -2,0.6 -0.5,0.4 -0.7,0.9 -0.7,1.6 0,0.6 0.3,1 0.8,1.4 0.5,0.4 1.4,0.7 2.6,1.1 1.2,0.4 2.2,0.8 2.9,1.2 0.7,0.4 1.3,1 1.6,1.6 0.3,0.6 0.5,1.3 0.5,2.1 0,1.3 -0.5,2.3 -1.5,3.1 -1,0.8 -2.3,1.1 -4,1.1 -1.1,0 -2.1,-0.2 -3.1,-0.6 -0.9,-0.4 -1.7,-1 -2.2,-1.7 -0.5,-0.7 -0.8,-1.6 -0.8,-2.5 h 2.7 c 0,0.9 0.3,1.5 0.9,2 0.6,0.5 1.4,0.7 2.5,0.7 0.9,0 1.6,-0.2 2.1,-0.6 0.6,-0.5 0.8,-1 0.8,-1.6 z"
   id="path450" />
		<path
   class="st6"
   d="m 587.3,675.3 c 0,-0.7 -0.2,-1.2 -0.7,-1.6 -0.5,-0.4 -1.3,-0.7 -2.6,-1.1 -1.2,-0.4 -2.2,-0.8 -3,-1.2 -1.4,-0.9 -2.1,-2 -2.1,-3.4 0,-1.2 0.5,-2.3 1.5,-3.1 1,-0.8 2.3,-1.2 3.9,-1.2 1.1,0 2,0.2 2.9,0.6 0.8,0.4 1.5,1 2,1.7 0.5,0.7 0.7,1.5 0.7,2.4 h -2.7 c 0,-0.8 -0.3,-1.4 -0.8,-1.9 -0.5,-0.5 -1.2,-0.7 -2.2,-0.7 -0.9,0 -1.5,0.2 -2,0.6 -0.5,0.4 -0.7,0.9 -0.7,1.6 0,0.6 0.3,1 0.8,1.4 0.5,0.4 1.4,0.7 2.6,1.1 1.2,0.4 2.2,0.8 2.9,1.2 0.7,0.4 1.3,1 1.6,1.6 0.3,0.6 0.5,1.3 0.5,2.1 0,1.3 -0.5,2.3 -1.5,3.1 -1,0.8 -2.3,1.1 -4,1.1 -1.1,0 -2.1,-0.2 -3.1,-0.6 -0.9,-0.4 -1.7,-1 -2.2,-1.7 -0.5,-0.7 -0.8,-1.6 -0.8,-2.5 h 2.7 c 0,0.9 0.3,1.5 0.9,2 0.6,0.5 1.4,0.7 2.5,0.7 0.9,0 1.6,-0.2 2.1,-0.6 0.6,-0.5 0.8,-1 0.8,-1.6 z"
   id="path452" />
		<path
   class="st6"
   d="m 604.6,672 c 0,1.5 -0.3,2.8 -0.8,4 -0.5,1.1 -1.3,2 -2.2,2.6 -1,0.6 -2.1,0.9 -3.3,0.9 -1.2,0 -2.4,-0.3 -3.3,-0.9 -1,-0.6 -1.7,-1.5 -2.3,-2.6 -0.5,-1.1 -0.8,-2.4 -0.8,-3.9 v -0.9 c 0,-1.5 0.3,-2.8 0.8,-4 0.5,-1.1 1.3,-2 2.2,-2.6 0.9,-0.6 2.1,-0.9 3.3,-0.9 1.3,0 2.4,0.3 3.3,0.9 0.9,0.6 1.7,1.5 2.2,2.6 0.5,1.1 0.8,2.4 0.8,3.9 v 0.9 z m -2.7,-0.8 c 0,-1.7 -0.3,-3 -1,-3.9 -0.6,-0.9 -1.6,-1.4 -2.7,-1.4 -1.2,0 -2.1,0.5 -2.7,1.4 -0.7,0.9 -1,2.2 -1,3.8 v 0.9 c 0,1.7 0.3,3 1,3.9 0.7,0.9 1.6,1.4 2.7,1.4 1.2,0 2.1,-0.4 2.7,-1.3 0.6,-0.9 1,-2.2 1,-3.9 z"
   id="path454" />
		<path
   class="st6"
   d="m 612.9,673.3 h -3 v 5.9 h -2.7 v -15.3 h 5.4 c 1.8,0 3.1,0.4 4.1,1.2 1,0.8 1.4,1.9 1.4,3.4 0,1 -0.2,1.9 -0.7,2.6 -0.5,0.7 -1.2,1.2 -2.1,1.6 l 3.4,6.4 v 0.1 h -2.9 z m -3,-2.1 h 2.7 c 0.9,0 1.6,-0.2 2.1,-0.7 0.5,-0.5 0.8,-1.1 0.8,-1.9 0,-0.8 -0.2,-1.5 -0.7,-1.9 -0.5,-0.4 -1.2,-0.7 -2.1,-0.7 h -2.8 z"
   id="path456" />
	</g>
</g>
<g
   id="Display"
   transform="matrix(0.31644804,0,0,0.31644804,-13.923014,-10.437846)">
	<rect
   x="456.29999"
   y="255.10001"
   class="st6"
   width="11.1"
   height="23.4"
   id="rect461" />
	<rect
   x="501.89999"
   y="255.10001"
   class="st6"
   width="11.1"
   height="23.4"
   id="rect463" />
	<rect
   x="547.5"
   y="255.10001"
   class="st6"
   width="11.1"
   height="23.4"
   id="rect465" />
	<rect
   x="593"
   y="255.10001"
   class="st6"
   width="11.1"
   height="23.4"
   id="rect467" />
	<rect
   x="638.5"
   y="255.10001"
   class="st6"
   width="11.1"
   height="23.4"
   id="rect469" />
	<rect
   x="456.29999"
   y="304.39999"
   class="st6"
   width="11.1"
   height="23.4"
   id="rect471" />
	<rect
   x="501.89999"
   y="304.39999"
   class="st6"
   width="11.1"
   height="23.4"
   id="rect473" />
	<rect
   x="547.5"
   y="304.39999"
   class="st6"
   width="11.1"
   height="23.4"
   id="rect475" />
	<rect
   x="593"
   y="304.39999"
   class="st6"
   width="11.1"
   height="23.4"
   id="rect477" />
	<rect
   x="638.5"
   y="304.39999"
   class="st6"
   width="11.1"
   height="23.4"
   id="rect479" />
	<rect
   x="456.29999"
   y="353.70001"
   class="st6"
   width="11.1"
   height="23.4"
   id="rect481" />
	<rect
   x="501.89999"
   y="353.70001"
   class="st6"
   width="11.1"
   height="23.4"
   id="rect483" />
	<rect
   x="547.5"
   y="353.70001"
   class="st6"
   width="11.1"
   height="23.4"
   id="rect485" />
	<rect
   x="593"
   y="353.70001"
   class="st6"
   width="11.1"
   height="23.4"
   id="rect487" />
	<rect
   x="638.5"
   y="353.70001"
   class="st6"
   width="11.1"
   height="23.4"
   id="rect489" />
	<rect
   x="456.29999"
   y="403.10001"
   class="st6"
   width="11.1"
   height="23.4"
   id="rect491" />
	<rect
   x="501.89999"
   y="403.10001"
   class="st6"
   width="11.1"
   height="23.4"
   id="rect493" />
	<rect
   x="547.5"
   y="403.10001"
   class="st6"
   width="11.1"
   height="23.4"
   id="rect495" />
	<rect
   x="593"
   y="403.10001"
   class="st6"
   width="11.1"
   height="23.4"
   id="rect497" />
	<rect
   x="638.5"
   y="403.10001"
   class="st6"
   width="11.1"
   height="23.4"
   id="rect499" />
	<rect
   x="456.29999"
   y="452.39999"
   class="st6"
   width="11.1"
   height="23.4"
   id="rect501" />
	<rect
   x="501.89999"
   y="452.39999"
   class="st6"
   width="11.1"
   height="23.4"
   id="rect503" />
	<rect
   x="547.5"
   y="452.39999"
   class="st6"
   width="11.1"
   height="23.4"
   id="rect505" />
	<rect
   x="593"
   y="452.39999"
   class="st6"
   width="11.1"
   height="23.4"
   id="rect507" />
	<rect
   x="638.5"
   y="452.39999"
   class="st6"
   width="11.1"
   height="23.4"
   id="rect509" />
</g>
</svg>
