<?xml version="1.0" encoding="utf-8"?>
<!-- Generator: Adobe Illustrator 16.0.4, SVG Export Plug-In . SVG Version: 6.00 Build 0)  -->
<!DOCTYPE svg PUBLIC "-//W3C//DTD SVG 1.1//EN" "http://www.w3.org/Graphics/SVG/1.1/DTD/svg11.dtd">
<svg version="1.1" id="Ebene_1" xmlns="http://www.w3.org/2000/svg" xmlns:xlink="http://www.w3.org/1999/xlink" x="0px" y="0px"
	 width="24px" height="24px" viewBox="0 0 24 24" enable-background="new 0 0 24 24" xml:space="preserve">
<g>
	<ellipse fill="#FFFFFF" stroke="#1B1B1B" stroke-width="0.9612" cx="10.886" cy="20.338" rx="2.309" ry="2.063"/>
	<path fill="#1B1B1B" d="M11.552,19.989c0,0.249-0.305,0.452-0.679,0.452c-0.375,0-0.68-0.203-0.68-0.452
		c0-0.245,0.305-0.442,0.68-0.442C11.247,19.547,11.552,19.744,11.552,19.989z"/>
	<ellipse fill="#FFFFFF" stroke="#1B1B1B" stroke-width="0.9612" cx="6.689" cy="20.223" rx="2.323" ry="2.613"/>
	<circle fill="#1B1B1B" cx="7.092" cy="19.992" r="0.678"/>
	<polygon fill="#FFFFFF" stroke="#1B1B1B" stroke-width="0.9612" points="3.426,6.065 3.687,8.317 5.246,8.055 13.816,7.062 
		15.767,6.889 15.679,4.723 13.558,4.98 5.547,5.719 	"/>
	<path fill="#FFFFFF" stroke="#1B1B1B" stroke-width="0.9612" d="M13.516,13.281c0,0,3.663-1.067,4.299-1.213
		c0.632-0.144,0.924,0.173,1.154,1.069c0.231,0.895,0.257,2.077,0.257,2.077s-3.315,3.728-4.387,2.744
		c-1.066-0.985-1.298-4.619-1.298-4.619"/>
	<path fill="#FFFFFF" stroke="#1B1B1B" stroke-width="0.9612" d="M9.271,13.857c0,0,5.542-1.24,5.715-0.201
		c0.172,1.039,0.574,3.84,0.866,4.157c0.288,0.316-2.745,2.104-3.38,2.021c-0.633-0.091-2.74-0.231-3.319-0.288
		c-0.575-0.062-1.268,0.259-1.21-1.012c0.058-1.272-0.204-3.263,0.201-4.014C8.55,13.771,9.271,13.857,9.271,13.857z"/>
	<path fill="#FFFFFF" stroke="#1B1B1B" stroke-width="0.9612" d="M10.742,8.404c0,0-1.036,3.405-1.125,3.752
		c-0.087,0.347-0.605,2.366,0.836,2.422c1.443,0.062,1.791-0.026,1.875,1.099c0.088,1.126-1.181,0.896-1.498,0.896
		c-0.318,0-2.944,0.057-3.406-2.715c0,0,0.057-1.066,0.404-2.308C8.173,10.308,8.55,9.153,8.55,9.153S9.3,6.212,10.742,8.404z"/>
	<path fill="#FFFFFF" stroke="#1B1B1B" stroke-width="0.9612" d="M21.803,19.627c-0.377,2.402-2.052,4.136-3.738,3.873
		c-1.682-0.269-2.744-2.433-2.365-4.835c0.381-2.408,2.055-4.14,3.738-3.871C21.123,15.059,22.182,17.22,21.803,19.627z"/>
	<path fill="#1B1B1B" d="M20.399,19.511c-0.199,0.775-0.623,1.333-0.946,1.251c-0.331-0.083-0.434-0.775-0.234-1.55
		c0.196-0.775,0.619-1.333,0.946-1.251C20.49,18.042,20.595,18.737,20.399,19.511z"/>
	<path fill="#1B1B1B" stroke="#1B1B1B" stroke-width="0.9612" d="M3.555,6.557c0,0-0.029-1.876,0.058-2.916
		c0.088-1.039,0-1.616-0.347-0.666C2.923,3.93,3.063,3.727,2.72,3.409C2.372,3.093,1.854,3.121,2.113,3.902
		C2.372,4.68,2.72,5.2,2.72,5.2S1.448,4.563,1.622,4.997C1.796,5.431,2.517,6.988,2.95,7.018C3.383,7.045,3.555,7.134,3.555,6.557z"
		/>
	<path fill="#1B1B1B" stroke="#1B1B1B" stroke-width="0.9612" d="M16.141,4.103c0.086-0.058,1.414-4.792,1.702-3.289
		c0,0-0.549,1.931-0.258,1.816c0.287-0.115,1.065-0.722,0.979-0.46c-0.086,0.26-0.75,1.095-1.068,1.444
		c-0.317,0.343-0.604,0.689,0.031,0.603c0.633-0.085,0.518,0.145,0.027,0.407c-0.493,0.256-1.562,1.153-1.586,0.49
		C15.937,4.449,16.141,4.103,16.141,4.103z"/>
	<path fill="#1B1B1B" d="M4.797,4.074c0,0-0.26-0.144,0.201-0.433C5.46,3.354,6.73,2.63,6.787,3.005
		c0.059,0.377-0.029,0.116-0.2,0.174c-0.174,0.057-0.72,0.403-0.954,0.606c-0.23,0.202-0.546,0.72-0.604,0.548
		C4.97,4.16,4.797,4.074,4.797,4.074z"/>
	<path fill="#1B1B1B" d="M10.625,2.63c0,0-0.663-0.115-0.344-0.231c0.318-0.116,1.615-0.144,2.135-0.056
		c0.522,0.086,1.788,0.086,1.591,0.489c-0.206,0.403-0.206,0.403-0.609,0.316C12.993,3.064,11.665,2.689,10.625,2.63z"/>
	<circle fill="#FFFFFF" stroke="#1B1B1B" stroke-width="0.9612" cx="7.647" cy="6.908" r="2.661"/>
	<circle fill="#FFFFFF" cx="8.123" cy="6.651" r="0.282"/>
	<path fill="#FFFFFF" stroke="#1B1B1B" stroke-width="0.9612" d="M14.116,6.304c0,1.377-1.11,2.489-2.483,2.489
		c-1.378,0-2.493-1.112-2.493-2.489c0-1.375,1.114-2.49,2.493-2.49C13.006,3.814,14.116,4.928,14.116,6.304z"/>
	<circle fill="#FFFFFF" cx="12.041" cy="5.977" r="0.347"/>
	<path fill="#FFFFFF" stroke="#1B1B1B" stroke-width="0.9612" d="M16.939,21.237c-0.591,1.438-2.033,2.208-3.21,1.719
		c-1.183-0.483-1.658-2.043-1.064-3.484c0.594-1.442,2.034-2.215,3.213-1.728C17.057,18.232,17.531,19.792,16.939,21.237z"/>
	<path fill="#1B1B1B" d="M16.02,20.762c-0.226,0.546-0.66,0.884-0.975,0.756c-0.315-0.133-0.385-0.676-0.16-1.223
		c0.224-0.551,0.663-0.888,0.975-0.759C16.173,19.665,16.247,20.215,16.02,20.762z"/>
	<circle fill="#1B1B1B" cx="11.893" cy="6.239" r="0.8"/>
	<circle fill="#1B1B1B" cx="8.067" cy="6.875" r="0.744"/>
</g>
</svg>
