<?xml version="1.0" encoding="utf-8"?>
<!-- Generator: Adobe Illustrator 16.0.3, SVG Export Plug-In . SVG Version: 6.00 Build 0)  -->
<!DOCTYPE svg PUBLIC "-//W3C//DTD SVG 1.1//EN" "http://www.w3.org/Graphics/SVG/1.1/DTD/svg11.dtd">
<svg version="1.1" id="Ebene_1" xmlns="http://www.w3.org/2000/svg" xmlns:xlink="http://www.w3.org/1999/xlink" x="0px" y="0px"
	 width="1200px" height="1000px" viewBox="0 0 1200 1000" enable-background="new 0 0 1200 1000" xml:space="preserve">
<rect fill="#002E05" width="1200" height="1000"/>
<g>
	<g>
		<line fill="#004006" stroke="#004006" stroke-width="1.0687" stroke-miterlimit="10" x1="40" y1="0" x2="40" y2="1000"/>
		<g>
			<circle fill="#004006" cx="40" cy="10" r="2"/>
			<circle fill="#004006" cx="40" cy="70" r="2"/>
			<circle fill="#004006" cx="40" cy="130" r="2"/>
			<circle fill="#004006" cx="40" cy="190" r="2"/>
			<circle fill="#004006" cx="40" cy="250" r="2"/>
			<circle fill="#004006" cx="40" cy="310" r="2"/>
			<circle fill="#004006" cx="40" cy="370" r="2"/>
			<circle fill="#004006" cx="40" cy="430" r="2"/>
			<circle fill="#004006" cx="40" cy="490" r="2"/>
			<circle fill="#004006" cx="40" cy="550" r="2"/>
			<circle fill="#004006" cx="40" cy="610" r="2"/>
			<circle fill="#004006" cx="40" cy="670" r="2"/>
			<circle fill="#004006" cx="40" cy="730" r="2"/>
			<circle fill="#004006" cx="40" cy="790" r="2"/>
			<circle fill="#004006" cx="40" cy="850" r="2"/>
			<circle fill="#004006" cx="40" cy="910" r="2"/>
			<circle fill="#004006" cx="40" cy="970" r="2"/>
		</g>
	</g>
	<g>
		<line fill="#004006" stroke="#004006" stroke-width="1.0687" stroke-miterlimit="10" x1="100" y1="0" x2="100" y2="999.999"/>
		<g>
			<circle fill="#004006" cx="100" cy="10" r="2"/>
			<circle fill="#004006" cx="100" cy="70" r="2"/>
			<circle fill="#004006" cx="100" cy="130" r="2"/>
			<circle fill="#004006" cx="100" cy="190" r="2"/>
			<circle fill="#004006" cx="100" cy="250" r="2"/>
			<circle fill="#004006" cx="100" cy="310" r="2"/>
			<circle fill="#004006" cx="100" cy="370" r="2"/>
			<circle fill="#004006" cx="100" cy="430" r="2"/>
			<circle fill="#004006" cx="100" cy="490" r="2"/>
			<circle fill="#004006" cx="100" cy="550" r="2"/>
			<circle fill="#004006" cx="100" cy="610" r="2"/>
			<circle fill="#004006" cx="100" cy="670" r="2"/>
			<circle fill="#004006" cx="100" cy="730" r="2"/>
			<circle fill="#004006" cx="100" cy="790" r="2"/>
			<circle fill="#004006" cx="100" cy="850" r="2"/>
			<circle fill="#004006" cx="100" cy="910" r="2"/>
			<circle fill="#004006" cx="100" cy="969.999" r="2"/>
		</g>
	</g>
	<g>
		<line fill="#004006" stroke="#004006" stroke-width="1.0687" stroke-miterlimit="10" x1="160" y1="0" x2="160" y2="1000"/>
		<g>
			<circle fill="#004006" cx="160" cy="10" r="2"/>
			<circle fill="#004006" cx="160" cy="70" r="2"/>
			<circle fill="#004006" cx="160" cy="130" r="2"/>
			<circle fill="#004006" cx="160" cy="190" r="2"/>
			<circle fill="#004006" cx="160" cy="250" r="2"/>
			<circle fill="#004006" cx="160" cy="310" r="2"/>
			<circle fill="#004006" cx="160" cy="370" r="2"/>
			<circle fill="#004006" cx="160" cy="430" r="2"/>
			<circle fill="#004006" cx="160" cy="490" r="2"/>
			<circle fill="#004006" cx="160" cy="550" r="2"/>
			<circle fill="#004006" cx="160" cy="610" r="2"/>
			<circle fill="#004006" cx="160" cy="670" r="2"/>
			<circle fill="#004006" cx="160" cy="730" r="2"/>
			<circle fill="#004006" cx="160" cy="790" r="2"/>
			<circle fill="#004006" cx="160" cy="850" r="2"/>
			<circle fill="#004006" cx="160" cy="910" r="2"/>
			<circle fill="#004006" cx="160" cy="970" r="2"/>
		</g>
	</g>
	<g>
		<line fill="#004006" stroke="#004006" stroke-width="1.0687" stroke-miterlimit="10" x1="220" y1="0" x2="220" y2="1000"/>
		<g>
			<circle fill="#004006" cx="220" cy="10" r="2"/>
			<circle fill="#004006" cx="220" cy="70" r="2"/>
			<circle fill="#004006" cx="220" cy="130" r="2"/>
			<circle fill="#004006" cx="220" cy="190" r="2"/>
			<circle fill="#004006" cx="220" cy="250" r="2"/>
			<circle fill="#004006" cx="220" cy="310" r="2"/>
			<circle fill="#004006" cx="220" cy="370" r="2"/>
			<circle fill="#004006" cx="220" cy="430" r="2"/>
			<circle fill="#004006" cx="220" cy="490" r="2"/>
			<circle fill="#004006" cx="220" cy="550" r="2"/>
			<circle fill="#004006" cx="220" cy="610" r="2"/>
			<circle fill="#004006" cx="220" cy="670" r="2"/>
			<circle fill="#004006" cx="220" cy="730" r="2"/>
			<circle fill="#004006" cx="220" cy="790" r="2"/>
			<circle fill="#004006" cx="220" cy="850" r="2"/>
			<circle fill="#004006" cx="220" cy="910" r="2"/>
			<circle fill="#004006" cx="220" cy="970" r="2"/>
		</g>
	</g>
	<g>
		<line fill="#004006" stroke="#004006" stroke-width="1.0687" stroke-miterlimit="10" x1="280" y1="0" x2="280" y2="1000"/>
		<g>
			<circle fill="#004006" cx="280" cy="10" r="2"/>
			<circle fill="#004006" cx="280" cy="70" r="2"/>
			<circle fill="#004006" cx="280" cy="130" r="2"/>
			<circle fill="#004006" cx="280" cy="190" r="2"/>
			<circle fill="#004006" cx="280" cy="250" r="2"/>
			<circle fill="#004006" cx="280" cy="310" r="2"/>
			<circle fill="#004006" cx="280" cy="370" r="2"/>
			<circle fill="#004006" cx="280" cy="430" r="2"/>
			<circle fill="#004006" cx="280" cy="490" r="2"/>
			<circle fill="#004006" cx="280" cy="550" r="2"/>
			<circle fill="#004006" cx="280" cy="610" r="2"/>
			<circle fill="#004006" cx="280" cy="670" r="2"/>
			<circle fill="#004006" cx="280" cy="730" r="2"/>
			<circle fill="#004006" cx="280" cy="790" r="2"/>
			<circle fill="#004006" cx="280" cy="850" r="2"/>
			<circle fill="#004006" cx="280" cy="910" r="2"/>
			<circle fill="#004006" cx="280" cy="970" r="2"/>
		</g>
	</g>
	<g>
		<line fill="#004006" stroke="#004006" stroke-width="1.0687" stroke-miterlimit="10" x1="340" y1="0" x2="340" y2="1000"/>
		<g>
			<circle fill="#004006" cx="340" cy="10" r="2"/>
			<circle fill="#004006" cx="340" cy="70" r="2"/>
			<circle fill="#004006" cx="340" cy="130" r="2"/>
			<circle fill="#004006" cx="340" cy="190" r="2"/>
			<circle fill="#004006" cx="340" cy="250" r="2"/>
			<circle fill="#004006" cx="340" cy="310" r="2"/>
			<circle fill="#004006" cx="340" cy="370" r="2"/>
			<circle fill="#004006" cx="340" cy="430" r="2"/>
			<circle fill="#004006" cx="340" cy="490" r="2"/>
			<circle fill="#004006" cx="340" cy="550" r="2"/>
			<circle fill="#004006" cx="340" cy="610" r="2"/>
			<circle fill="#004006" cx="340" cy="670" r="2"/>
			<circle fill="#004006" cx="340" cy="730" r="2"/>
			<circle fill="#004006" cx="340" cy="790" r="2"/>
			<circle fill="#004006" cx="340" cy="850" r="2"/>
			<circle fill="#004006" cx="340" cy="910" r="2"/>
			<circle fill="#004006" cx="340" cy="970" r="2"/>
		</g>
	</g>
	<g>
		<line fill="#004006" stroke="#004006" stroke-width="1.0687" stroke-miterlimit="10" x1="400" y1="0" x2="400" y2="1000"/>
		<g>
			<circle fill="#004006" cx="400" cy="10" r="2"/>
			<circle fill="#004006" cx="400" cy="70" r="2"/>
			<circle fill="#004006" cx="400" cy="130" r="2"/>
			<circle fill="#004006" cx="400" cy="190" r="2"/>
			<circle fill="#004006" cx="400" cy="250" r="2"/>
			<circle fill="#004006" cx="400" cy="310" r="2"/>
			<circle fill="#004006" cx="400" cy="370" r="2"/>
			<circle fill="#004006" cx="400" cy="430" r="2"/>
			<circle fill="#004006" cx="400" cy="490" r="2"/>
			<circle fill="#004006" cx="400" cy="550" r="2"/>
			<circle fill="#004006" cx="400" cy="610" r="2"/>
			<circle fill="#004006" cx="400" cy="670" r="2"/>
			<circle fill="#004006" cx="400" cy="730" r="2"/>
			<circle fill="#004006" cx="400" cy="790" r="2"/>
			<circle fill="#004006" cx="400" cy="850" r="2"/>
			<circle fill="#004006" cx="400" cy="910" r="2"/>
			<circle fill="#004006" cx="400" cy="970" r="2"/>
		</g>
	</g>
	<g>
		<line fill="#004006" stroke="#004006" stroke-width="1.0687" stroke-miterlimit="10" x1="460" y1="0" x2="460" y2="1000"/>
		<g>
			<path fill="#004006" d="M462,10c0,1.104-0.893,2-2,2c-1.106,0-2-0.896-2-2c0-1.105,0.894-2,2-2C461.107,8,462,8.896,462,10z"/>
			<path fill="#004006" d="M462,70c0,1.105-0.893,2-2,2c-1.106,0-2-0.895-2-2c0-1.104,0.894-2,2-2C461.107,68,462,68.896,462,70z"/>
			<path fill="#004006" d="M462,130c0,1.104-0.893,2-2,2c-1.106,0-2-0.896-2-2s0.894-2,2-2C461.107,128,462,128.896,462,130z"/>
			<path fill="#004006" d="M462,190c0,1.104-0.893,2-2,2c-1.106,0-2-0.896-2-2s0.894-2,2-2C461.107,188,462,188.896,462,190z"/>
			<path fill="#004006" d="M462,250c0,1.104-0.893,2-2,2c-1.106,0-2-0.896-2-2c0-1.104,0.894-2,2-2C461.107,248,462,248.896,462,250
				z"/>
			<path fill="#004006" d="M462,310c0,1.104-0.893,2-2,2c-1.106,0-2-0.896-2-2c0-1.105,0.894-2,2-2C461.107,308,462,308.896,462,310
				z"/>
			<path fill="#004006" d="M462,370c0,1.105-0.893,2-2,2c-1.106,0-2-0.895-2-2c0-1.104,0.894-2,2-2C461.107,368,462,368.896,462,370
				z"/>
			<path fill="#004006" d="M462,430c0,1.104-0.893,2-2,2c-1.106,0-2-0.896-2-2s0.894-2,2-2C461.107,428,462,428.896,462,430z"/>
			<path fill="#004006" d="M462,490c0,1.105-0.893,2-2,2c-1.106,0-2-0.895-2-2c0-1.104,0.894-2,2-2C461.107,488,462,488.896,462,490
				z"/>
			<path fill="#004006" d="M462,550c0,1.105-0.893,2-2,2c-1.106,0-2-0.895-2-2s0.894-2,2-2C461.107,548,462,548.895,462,550z"/>
			<path fill="#004006" d="M462,610c0,1.105-0.893,2-2,2c-1.106,0-2-0.895-2-2s0.894-2,2-2C461.107,608,462,608.895,462,610z"/>
			<path fill="#004006" d="M462,670c0,1.105-0.893,2-2,2c-1.106,0-2-0.895-2-2s0.894-2,2-2C461.107,668,462,668.895,462,670z"/>
			<path fill="#004006" d="M462,730c0,1.105-0.893,2-2,2c-1.106,0-2-0.895-2-2s0.894-2,2-2C461.107,728,462,728.895,462,730z"/>
			<path fill="#004006" d="M462,790c0,1.105-0.893,2-2,2c-1.106,0-2-0.895-2-2s0.894-2,2-2C461.107,788,462,788.895,462,790z"/>
			<path fill="#004006" d="M462,850c0,1.105-0.893,2-2,2c-1.106,0-2-0.895-2-2s0.894-2,2-2C461.107,848,462,848.895,462,850z"/>
			<path fill="#004006" d="M462,910c0,1.105-0.893,2-2,2c-1.106,0-2-0.895-2-2s0.894-2,2-2C461.107,908,462,908.895,462,910z"/>
			<path fill="#004006" d="M462,970c0,1.105-0.893,2-2,2c-1.106,0-2-0.895-2-2s0.894-2,2-2C461.107,968,462,968.895,462,970z"/>
		</g>
	</g>
	<g>
		<line fill="#004006" stroke="#004006" stroke-width="1.0687" stroke-miterlimit="10" x1="520" y1="0" x2="520" y2="1000"/>
		<g>
			<circle fill="#004006" cx="520" cy="10" r="2"/>
			<circle fill="#004006" cx="520" cy="70" r="2"/>
			<circle fill="#004006" cx="520" cy="130" r="2"/>
			<circle fill="#004006" cx="520" cy="190" r="2"/>
			<circle fill="#004006" cx="520" cy="250" r="2"/>
			<circle fill="#004006" cx="520" cy="310" r="2"/>
			<circle fill="#004006" cx="520" cy="370" r="2"/>
			<circle fill="#004006" cx="520" cy="430" r="2"/>
			<circle fill="#004006" cx="520" cy="490" r="2"/>
			<circle fill="#004006" cx="520" cy="550" r="2"/>
			<circle fill="#004006" cx="520" cy="610" r="2"/>
			<circle fill="#004006" cx="520" cy="670" r="2"/>
			<circle fill="#004006" cx="520" cy="730" r="2"/>
			<circle fill="#004006" cx="520" cy="790" r="2"/>
			<circle fill="#004006" cx="520" cy="850" r="2"/>
			<circle fill="#004006" cx="520" cy="910" r="2"/>
			<circle fill="#004006" cx="520" cy="970" r="2"/>
		</g>
	</g>
	<g>
		<line fill="#004006" stroke="#004006" stroke-width="1.0687" stroke-miterlimit="10" x1="580" y1="0" x2="580" y2="1000"/>
		<g>
			<circle fill="#004006" cx="580" cy="10" r="2"/>
			<circle fill="#004006" cx="580" cy="70" r="2"/>
			<circle fill="#004006" cx="580" cy="130" r="2"/>
			<circle fill="#004006" cx="580" cy="190" r="2"/>
			<circle fill="#004006" cx="580" cy="250" r="2"/>
			<circle fill="#004006" cx="580" cy="310" r="2"/>
			<circle fill="#004006" cx="580" cy="370" r="2"/>
			<circle fill="#004006" cx="580" cy="430" r="2"/>
			<circle fill="#004006" cx="580" cy="490" r="2"/>
			<circle fill="#004006" cx="580" cy="550" r="2"/>
			<circle fill="#004006" cx="580" cy="610" r="2"/>
			<circle fill="#004006" cx="580" cy="670" r="2"/>
			<circle fill="#004006" cx="580" cy="730" r="2"/>
			<circle fill="#004006" cx="580" cy="790" r="2"/>
			<circle fill="#004006" cx="580" cy="850" r="2"/>
			<circle fill="#004006" cx="580" cy="910" r="2"/>
			<circle fill="#004006" cx="580" cy="970" r="2"/>
		</g>
	</g>
	<g>
		<line fill="#004006" stroke="#004006" stroke-width="1.0687" stroke-miterlimit="10" x1="640" y1="0" x2="640" y2="1000"/>
		<g>
			<circle fill="#004006" cx="640" cy="10" r="2"/>
			<circle fill="#004006" cx="640" cy="70" r="2"/>
			<circle fill="#004006" cx="640" cy="130" r="2"/>
			<circle fill="#004006" cx="640" cy="190" r="2"/>
			<circle fill="#004006" cx="640" cy="250" r="2"/>
			<circle fill="#004006" cx="640" cy="310" r="2"/>
			<circle fill="#004006" cx="640" cy="370" r="2"/>
			<circle fill="#004006" cx="640" cy="430" r="2"/>
			<circle fill="#004006" cx="640" cy="490" r="2"/>
			<circle fill="#004006" cx="640" cy="550" r="2"/>
			<circle fill="#004006" cx="640" cy="610" r="2"/>
			<circle fill="#004006" cx="640" cy="670" r="2"/>
			<circle fill="#004006" cx="640" cy="730" r="2"/>
			<circle fill="#004006" cx="640" cy="790" r="2"/>
			<circle fill="#004006" cx="640" cy="850" r="2"/>
			<circle fill="#004006" cx="640" cy="910" r="2"/>
			<circle fill="#004006" cx="640" cy="970" r="2"/>
		</g>
	</g>
	<g>
		<line fill="#004006" stroke="#004006" stroke-width="1.0687" stroke-miterlimit="10" x1="700" y1="0" x2="700" y2="1000"/>
		<g>
			<circle fill="#004006" cx="700" cy="10" r="2"/>
			<circle fill="#004006" cx="700" cy="70" r="2"/>
			<circle fill="#004006" cx="700" cy="130" r="2"/>
			<circle fill="#004006" cx="700" cy="190" r="2"/>
			<circle fill="#004006" cx="700" cy="250" r="2"/>
			<circle fill="#004006" cx="700" cy="310" r="2"/>
			<circle fill="#004006" cx="700" cy="370" r="2"/>
			<circle fill="#004006" cx="700" cy="430" r="2"/>
			<circle fill="#004006" cx="700" cy="490" r="2"/>
			<circle fill="#004006" cx="700" cy="550" r="2"/>
			<circle fill="#004006" cx="700" cy="610" r="2"/>
			<circle fill="#004006" cx="700" cy="670" r="2"/>
			<circle fill="#004006" cx="700" cy="730" r="2"/>
			<circle fill="#004006" cx="700" cy="790" r="2"/>
			<circle fill="#004006" cx="700" cy="850" r="2"/>
			<circle fill="#004006" cx="700" cy="910" r="2"/>
			<circle fill="#004006" cx="700" cy="970" r="2"/>
		</g>
	</g>
	<g>
		<line fill="#004006" stroke="#004006" stroke-width="1.0687" stroke-miterlimit="10" x1="760" y1="0" x2="760" y2="1000"/>
		<g>
			<path fill="#004006" d="M762,10c0,1.104-0.893,2-2,2c-1.106,0-2-0.896-2-2s0.894-2,2-2C761.107,8,762,8.896,762,10z"/>
			<path fill="#004006" d="M762,70c0,1.104-0.893,2-2,2c-1.106,0-2-0.896-2-2s0.894-2,2-2C761.107,68,762,68.896,762,70z"/>
			<path fill="#004006" d="M762,130c0,1.104-0.893,2-2,2c-1.106,0-2-0.896-2-2s0.894-2,2-2C761.107,128,762,128.896,762,130z"/>
			<path fill="#004006" d="M762,190c0,1.104-0.893,2-2,2c-1.106,0-2-0.896-2-2s0.894-2,2-2C761.107,188,762,188.896,762,190z"/>
			<path fill="#004006" d="M762,250c0,1.104-0.893,2-2,2c-1.106,0-2-0.896-2-2s0.894-2,2-2C761.107,248,762,248.896,762,250z"/>
			<path fill="#004006" d="M762,310c0,1.104-0.893,2-2,2c-1.106,0-2-0.896-2-2s0.894-2,2-2C761.107,308,762,308.896,762,310z"/>
			<path fill="#004006" d="M762,370c0,1.105-0.893,2-2,2c-1.106,0-2-0.895-2-2c0-1.104,0.894-2,2-2C761.107,368,762,368.896,762,370
				z"/>
			<path fill="#004006" d="M762,430c0,1.104-0.893,2-2,2c-1.106,0-2-0.896-2-2s0.894-2,2-2C761.107,428,762,428.896,762,430z"/>
			<path fill="#004006" d="M762,490c0,1.105-0.893,2-2,2c-1.106,0-2-0.895-2-2c0-1.104,0.894-2,2-2C761.107,488,762,488.896,762,490
				z"/>
			<path fill="#004006" d="M762,550c0,1.105-0.893,2-2,2c-1.106,0-2-0.895-2-2s0.894-2,2-2C761.107,548,762,548.895,762,550z"/>
			<path fill="#004006" d="M762,610c0,1.105-0.893,2-2,2c-1.106,0-2-0.895-2-2s0.894-2,2-2C761.107,608,762,608.895,762,610z"/>
			<path fill="#004006" d="M762,670c0,1.105-0.893,2-2,2c-1.106,0-2-0.895-2-2s0.894-2,2-2C761.107,668,762,668.895,762,670z"/>
			<path fill="#004006" d="M762,730c0,1.105-0.893,2-2,2c-1.106,0-2-0.895-2-2s0.894-2,2-2C761.107,728,762,728.895,762,730z"/>
			<path fill="#004006" d="M762,790c0,1.105-0.893,2-2,2c-1.106,0-2-0.895-2-2s0.894-2,2-2C761.107,788,762,788.895,762,790z"/>
			<path fill="#004006" d="M762,850c0,1.105-0.893,2-2,2c-1.106,0-2-0.895-2-2s0.894-2,2-2C761.107,848,762,848.895,762,850z"/>
			<path fill="#004006" d="M762,910c0,1.105-0.893,2-2,2c-1.106,0-2-0.895-2-2s0.894-2,2-2C761.107,908,762,908.895,762,910z"/>
			<path fill="#004006" d="M762,970c0,1.105-0.893,2-2,2c-1.106,0-2-0.895-2-2s0.894-2,2-2C761.107,968,762,968.895,762,970z"/>
		</g>
	</g>
	<g>
		<line fill="#004006" stroke="#004006" stroke-width="1.0687" stroke-miterlimit="10" x1="820" y1="0" x2="820" y2="1000"/>
		<g>
			<circle fill="#004006" cx="820" cy="10" r="2"/>
			<circle fill="#004006" cx="820" cy="70" r="2"/>
			<circle fill="#004006" cx="820" cy="130" r="2"/>
			<circle fill="#004006" cx="820" cy="190" r="2"/>
			<circle fill="#004006" cx="820" cy="250" r="2"/>
			<circle fill="#004006" cx="820" cy="310" r="2"/>
			<circle fill="#004006" cx="820" cy="370" r="2"/>
			<circle fill="#004006" cx="820" cy="430" r="2"/>
			<circle fill="#004006" cx="820" cy="490" r="2"/>
			<circle fill="#004006" cx="820" cy="550" r="2"/>
			<circle fill="#004006" cx="820" cy="610" r="2"/>
			<circle fill="#004006" cx="820" cy="670" r="2"/>
			<circle fill="#004006" cx="820" cy="730" r="2"/>
			<circle fill="#004006" cx="820" cy="790" r="2"/>
			<circle fill="#004006" cx="820" cy="850" r="2"/>
			<circle fill="#004006" cx="820" cy="910" r="2"/>
			<circle fill="#004006" cx="820" cy="970" r="2"/>
		</g>
	</g>
	<g>
		<line fill="#004006" stroke="#004006" stroke-width="1.0687" stroke-miterlimit="10" x1="880" y1="0" x2="880" y2="1000"/>
		<g>
			<circle fill="#004006" cx="880" cy="10" r="2"/>
			<circle fill="#004006" cx="880" cy="70" r="2"/>
			<circle fill="#004006" cx="880" cy="130" r="2"/>
			<circle fill="#004006" cx="880" cy="190" r="2"/>
			<circle fill="#004006" cx="880" cy="250" r="2"/>
			<circle fill="#004006" cx="880" cy="310" r="2"/>
			<circle fill="#004006" cx="880" cy="370" r="2"/>
			<circle fill="#004006" cx="880" cy="430" r="2"/>
			<circle fill="#004006" cx="880" cy="490" r="2"/>
			<circle fill="#004006" cx="880" cy="550" r="2"/>
			<circle fill="#004006" cx="880" cy="610" r="2"/>
			<circle fill="#004006" cx="880" cy="670" r="2"/>
			<circle fill="#004006" cx="880" cy="730" r="2"/>
			<circle fill="#004006" cx="880" cy="790" r="2"/>
			<circle fill="#004006" cx="880" cy="850" r="2"/>
			<circle fill="#004006" cx="880" cy="910" r="2"/>
			<circle fill="#004006" cx="880" cy="970" r="2"/>
		</g>
	</g>
	<g>
		<line fill="#004006" stroke="#004006" stroke-width="1.0687" stroke-miterlimit="10" x1="940" y1="0" x2="940" y2="1000"/>
		<g>
			<circle fill="#004006" cx="940" cy="10" r="2"/>
			<circle fill="#004006" cx="940" cy="70" r="2"/>
			<circle fill="#004006" cx="940" cy="130" r="2"/>
			<circle fill="#004006" cx="940" cy="190" r="2"/>
			<circle fill="#004006" cx="940" cy="250" r="2"/>
			<circle fill="#004006" cx="940" cy="310" r="2"/>
			<circle fill="#004006" cx="940" cy="370" r="2"/>
			<circle fill="#004006" cx="940" cy="430" r="2"/>
			<circle fill="#004006" cx="940" cy="490" r="2"/>
			<circle fill="#004006" cx="940" cy="550" r="2"/>
			<circle fill="#004006" cx="940" cy="610" r="2"/>
			<circle fill="#004006" cx="940" cy="670" r="2"/>
			<circle fill="#004006" cx="940" cy="730" r="2"/>
			<circle fill="#004006" cx="940" cy="790" r="2"/>
			<circle fill="#004006" cx="940" cy="850" r="2"/>
			<circle fill="#004006" cx="940" cy="910" r="2"/>
			<circle fill="#004006" cx="940" cy="970" r="2"/>
		</g>
	</g>
	<g>
		<line fill="#004006" stroke="#004006" stroke-width="1.0687" stroke-miterlimit="10" x1="1000" y1="0" x2="1000" y2="1000"/>
		<g>
			<circle fill="#004006" cx="1000" cy="10" r="2"/>
			<circle fill="#004006" cx="1000" cy="70" r="2"/>
			<circle fill="#004006" cx="1000" cy="130" r="2"/>
			<circle fill="#004006" cx="1000" cy="190" r="2"/>
			<circle fill="#004006" cx="1000" cy="250" r="2"/>
			<circle fill="#004006" cx="1000" cy="310" r="2"/>
			<circle fill="#004006" cx="1000" cy="370" r="2"/>
			<circle fill="#004006" cx="1000" cy="430" r="2"/>
			<circle fill="#004006" cx="1000" cy="490" r="2"/>
			<circle fill="#004006" cx="1000" cy="550" r="2"/>
			<circle fill="#004006" cx="1000" cy="610" r="2"/>
			<circle fill="#004006" cx="1000" cy="670" r="2"/>
			<circle fill="#004006" cx="1000" cy="730" r="2"/>
			<circle fill="#004006" cx="1000" cy="790" r="2"/>
			<circle fill="#004006" cx="1000" cy="850" r="2"/>
			<circle fill="#004006" cx="1000" cy="910" r="2"/>
			<circle fill="#004006" cx="1000" cy="970" r="2"/>
		</g>
	</g>
	<g>
		<line fill="#004006" stroke="#004006" stroke-width="1.0687" stroke-miterlimit="10" x1="1060" y1="0" x2="1060" y2="1000"/>
		<g>
			<circle fill="#004006" cx="1060" cy="10" r="2"/>
			<circle fill="#004006" cx="1060" cy="70" r="2"/>
			<circle fill="#004006" cx="1060" cy="130" r="2"/>
			<circle fill="#004006" cx="1060" cy="190" r="2"/>
			<circle fill="#004006" cx="1060" cy="250" r="2"/>
			<circle fill="#004006" cx="1060" cy="310" r="2"/>
			<circle fill="#004006" cx="1060" cy="370" r="2"/>
			<circle fill="#004006" cx="1060" cy="430" r="2"/>
			<circle fill="#004006" cx="1060" cy="490" r="2"/>
			<circle fill="#004006" cx="1060" cy="550" r="2"/>
			<circle fill="#004006" cx="1060" cy="610" r="2"/>
			<circle fill="#004006" cx="1060" cy="670" r="2"/>
			<circle fill="#004006" cx="1060" cy="730" r="2"/>
			<circle fill="#004006" cx="1060" cy="790" r="2"/>
			<circle fill="#004006" cx="1060" cy="850" r="2"/>
			<circle fill="#004006" cx="1060" cy="910" r="2"/>
			<circle fill="#004006" cx="1060" cy="970" r="2"/>
		</g>
	</g>
	<g>
		<line fill="#004006" stroke="#004006" stroke-width="1.0687" stroke-miterlimit="10" x1="1120" y1="0" x2="1120" y2="1000"/>
		<g>
			<circle fill="#004006" cx="1120" cy="10" r="2"/>
			<circle fill="#004006" cx="1120" cy="70" r="2"/>
			<circle fill="#004006" cx="1120" cy="130" r="2"/>
			<circle fill="#004006" cx="1120" cy="190" r="2"/>
			<circle fill="#004006" cx="1120" cy="250" r="2"/>
			<circle fill="#004006" cx="1120" cy="310" r="2"/>
			<circle fill="#004006" cx="1120" cy="370" r="2"/>
			<circle fill="#004006" cx="1120" cy="430" r="2"/>
			<circle fill="#004006" cx="1120" cy="490" r="2"/>
			<circle fill="#004006" cx="1120" cy="550" r="2"/>
			<circle fill="#004006" cx="1120" cy="610" r="2"/>
			<circle fill="#004006" cx="1120" cy="670" r="2"/>
			<circle fill="#004006" cx="1120" cy="730" r="2"/>
			<circle fill="#004006" cx="1120" cy="790" r="2"/>
			<circle fill="#004006" cx="1120" cy="850" r="2"/>
			<circle fill="#004006" cx="1120" cy="910" r="2"/>
			<circle fill="#004006" cx="1120" cy="970" r="2"/>
		</g>
	</g>
	<g>
		<line fill="#004006" stroke="#004006" stroke-width="1.0687" stroke-miterlimit="10" x1="1180" y1="0" x2="1180" y2="1000"/>
		<g>
			<circle fill="#004006" cx="1180" cy="10" r="2"/>
			<circle fill="#004006" cx="1180" cy="70" r="2"/>
			<circle fill="#004006" cx="1180" cy="130" r="2"/>
			<circle fill="#004006" cx="1180" cy="190" r="2"/>
			<circle fill="#004006" cx="1180" cy="250" r="2"/>
			<circle fill="#004006" cx="1180" cy="310" r="2"/>
			<circle fill="#004006" cx="1180" cy="370" r="2"/>
			<circle fill="#004006" cx="1180" cy="430" r="2"/>
			<circle fill="#004006" cx="1180" cy="490" r="2"/>
			<circle fill="#004006" cx="1180" cy="550" r="2"/>
			<circle fill="#004006" cx="1180" cy="610" r="2"/>
			<circle fill="#004006" cx="1180" cy="670" r="2"/>
			<circle fill="#004006" cx="1180" cy="730" r="2"/>
			<circle fill="#004006" cx="1180" cy="790" r="2"/>
			<circle fill="#004006" cx="1180" cy="850" r="2"/>
			<circle fill="#004006" cx="1180" cy="910" r="2"/>
			<circle fill="#004006" cx="1180" cy="970" r="2"/>
		</g>
	</g>
</g>
<line fill="none" x1="1180" y1="500" x2="40" y2="500"/>
<g>
	<line fill="none" stroke="#004006" stroke-miterlimit="10" x1="0" y1="10" x2="1200" y2="10"/>
	<line fill="none" stroke="#004006" stroke-miterlimit="10" x1="0" y1="70" x2="1200" y2="70"/>
	<line fill="none" stroke="#004006" stroke-miterlimit="10" x1="0" y1="130" x2="1200" y2="130"/>
	<line fill="none" stroke="#004006" stroke-miterlimit="10" x1="0" y1="190" x2="1200" y2="190"/>
	<line fill="none" stroke="#004006" stroke-miterlimit="10" x1="0" y1="250" x2="1200" y2="250"/>
	<line fill="none" stroke="#004006" stroke-miterlimit="10" x1="0" y1="310" x2="1200" y2="310"/>
	<line fill="none" stroke="#004006" stroke-miterlimit="10" x1="0" y1="370" x2="1200" y2="370"/>
	<line fill="none" stroke="#004006" stroke-miterlimit="10" x1="0" y1="430" x2="1200" y2="430"/>
	<line fill="none" stroke="#004006" stroke-miterlimit="10" x1="0" y1="490" x2="1200" y2="490"/>
	<line fill="none" stroke="#004006" stroke-miterlimit="10" x1="0" y1="550" x2="1200" y2="550"/>
	<line fill="none" stroke="#004006" stroke-miterlimit="10" x1="0" y1="610" x2="1200" y2="610"/>
	<line fill="none" stroke="#004006" stroke-miterlimit="10" x1="0" y1="670" x2="1200" y2="670"/>
	<line fill="none" stroke="#004006" stroke-miterlimit="10" x1="0" y1="730" x2="1200" y2="730"/>
	<line fill="none" stroke="#004006" stroke-miterlimit="10" x1="0" y1="790" x2="1200" y2="790"/>
	<line fill="none" stroke="#004006" stroke-miterlimit="10" x1="0" y1="850" x2="1200" y2="850"/>
	<line fill="none" stroke="#004006" stroke-miterlimit="10" x1="0" y1="910" x2="1200" y2="910"/>
	<line fill="none" stroke="#004006" stroke-miterlimit="10" x1="0" y1="970" x2="1200" y2="970"/>
</g>
<g>
	<g>
		<line fill="none" stroke="#FFFFFF" stroke-width="2" stroke-miterlimit="10" x1="400" y1="20.046" x2="400" y2="479.954"/>
		<g>
			<polygon fill="#FFFFFF" points="393.019,22.089 400,10 406.981,22.089 			"/>
		</g>
		<g>
			<polygon fill="#FFFFFF" points="393.019,477.911 400,490 406.981,477.911 			"/>
		</g>
	</g>
</g>
<g>
	<g>
		<line fill="none" stroke="#FFFFFF" stroke-width="2" stroke-miterlimit="10" x1="170.046" y1="250" x2="629.954" y2="250"/>
		<g>
			<polygon fill="#FFFFFF" points="172.089,256.981 160,250 172.089,243.019 			"/>
		</g>
		<g>
			<polygon fill="#FFFFFF" points="627.911,256.981 640,250 627.911,243.019 			"/>
		</g>
	</g>
</g>
<line fill="none" stroke="#FFFFFF" stroke-width="2" stroke-miterlimit="10" x1="460" y1="250" x2="460" y2="255"/>
<line fill="none" stroke="#FFFFFF" stroke-width="2" stroke-miterlimit="10" x1="520" y1="250" x2="520" y2="255"/>
<line fill="none" stroke="#FFFFFF" stroke-width="2" stroke-miterlimit="10" x1="580" y1="250" x2="580" y2="255"/>
<line fill="none" stroke="#FFFFFF" stroke-width="2" stroke-miterlimit="10" x1="340" y1="250" x2="340" y2="255"/>
<line fill="none" stroke="#FFFFFF" stroke-width="2" stroke-miterlimit="10" x1="280" y1="250" x2="280" y2="255"/>
<line fill="none" stroke="#FFFFFF" stroke-width="2" stroke-miterlimit="10" x1="220" y1="250" x2="220" y2="255"/>
<line fill="none" stroke="#FFFFFF" stroke-width="2" stroke-miterlimit="10" x1="400" y1="190" x2="395" y2="190"/>
<line fill="none" stroke="#FFFFFF" stroke-width="2" stroke-miterlimit="10" x1="400" y1="130" x2="395" y2="130"/>
<line fill="none" stroke="#FFFFFF" stroke-width="2" stroke-miterlimit="10" x1="400" y1="70" x2="395" y2="70"/>
<line fill="none" stroke="#FFFFFF" stroke-width="2" stroke-miterlimit="10" x1="400" y1="310" x2="395" y2="310"/>
<line fill="none" stroke="#FFFFFF" stroke-width="2" stroke-miterlimit="10" x1="400" y1="370" x2="395" y2="370"/>
<line fill="none" stroke="#FFFFFF" stroke-width="2" stroke-miterlimit="10" x1="400" y1="430" x2="395" y2="430"/>
<g>
	<path fill="#FFFFFF" d="M459.57,265h-4.722v-0.82l2.314-2.52c0.377-0.414,0.638-0.753,0.781-1.018s0.215-0.525,0.215-0.779
		c0-0.319-0.093-0.586-0.278-0.801s-0.436-0.322-0.752-0.322c-0.417,0-0.726,0.117-0.928,0.352s-0.303,0.557-0.303,0.967h-1.147
		l-0.01-0.029c-0.016-0.631,0.19-1.163,0.62-1.594s1.019-0.647,1.768-0.647c0.684,0,1.224,0.189,1.621,0.566
		s0.596,0.871,0.596,1.479c0,0.407-0.115,0.796-0.344,1.167s-0.585,0.822-1.067,1.353l-1.582,1.665l0.015,0.029h3.203V265z"/>
	<path fill="#FFFFFF" d="M465.171,262.261c0,0.924-0.208,1.629-0.625,2.114s-0.983,0.728-1.699,0.728
		c-0.719,0-1.289-0.243-1.709-0.728s-0.63-1.19-0.63-2.114v-1.626c0-0.921,0.208-1.626,0.625-2.114s0.985-0.732,1.704-0.732
		c0.716,0,1.284,0.244,1.704,0.732s0.63,1.193,0.63,2.114V262.261z M463.984,260.453c0-0.582-0.098-1.013-0.293-1.293
		s-0.48-0.419-0.854-0.419s-0.658,0.14-0.852,0.419s-0.291,0.711-0.291,1.293v1.976c0,0.585,0.099,1.019,0.295,1.3
		s0.482,0.422,0.857,0.422s0.658-0.14,0.85-0.419s0.288-0.714,0.288-1.303V260.453z"/>
</g>
<g>
	<path fill="#FFFFFF" d="M518.853,262.466h0.898v0.952h-0.898V265h-1.182v-1.582h-3.052l-0.029-0.724l3.042-4.804h1.221V262.466z
		 M515.762,262.466h1.909v-2.886l-0.029-0.01l-0.098,0.21L515.762,262.466z"/>
	<path fill="#FFFFFF" d="M525.171,262.261c0,0.924-0.208,1.629-0.625,2.114s-0.983,0.728-1.699,0.728
		c-0.719,0-1.289-0.243-1.709-0.728s-0.63-1.19-0.63-2.114v-1.626c0-0.921,0.208-1.626,0.625-2.114s0.985-0.732,1.704-0.732
		c0.716,0,1.284,0.244,1.704,0.732s0.63,1.193,0.63,2.114V262.261z M523.984,260.453c0-0.582-0.098-1.013-0.293-1.293
		s-0.48-0.419-0.854-0.419s-0.658,0.14-0.852,0.419s-0.291,0.711-0.291,1.293v1.976c0,0.585,0.099,1.019,0.295,1.3
		s0.482,0.422,0.857,0.422s0.658-0.14,0.85-0.419s0.288-0.714,0.288-1.303V260.453z"/>
</g>
<g>
	<path fill="#FFFFFF" d="M577.637,257.788c0.254,0,0.498,0.027,0.732,0.08c0.234,0.053,0.444,0.124,0.63,0.21l-0.225,0.911
		c-0.182-0.078-0.36-0.139-0.532-0.183s-0.373-0.066-0.601-0.066c-0.475,0-0.857,0.185-1.145,0.553
		c-0.288,0.369-0.432,0.865-0.432,1.488v0.034c0.195-0.179,0.422-0.317,0.681-0.415s0.543-0.146,0.852-0.146
		c0.635,0,1.137,0.222,1.506,0.667s0.554,1.01,0.554,1.697c0,0.726-0.211,1.322-0.635,1.787s-0.978,0.698-1.665,0.698
		c-0.723,0-1.316-0.254-1.78-0.762s-0.696-1.217-0.696-2.129v-1.357c0-0.924,0.261-1.667,0.784-2.227
		S576.846,257.788,577.637,257.788z M577.305,261.177c-0.299,0-0.553,0.053-0.762,0.159c-0.208,0.105-0.368,0.249-0.479,0.431v0.507
		c0,0.602,0.121,1.064,0.364,1.39c0.243,0.325,0.553,0.487,0.93,0.487c0.345,0,0.617-0.148,0.815-0.443
		c0.199-0.296,0.298-0.66,0.298-1.092c0-0.426-0.104-0.771-0.313-1.038S577.666,261.177,577.305,261.177z"/>
	<path fill="#FFFFFF" d="M585.171,262.261c0,0.924-0.208,1.629-0.625,2.114s-0.983,0.728-1.699,0.728
		c-0.719,0-1.289-0.243-1.709-0.728s-0.63-1.19-0.63-2.114v-1.626c0-0.921,0.208-1.626,0.625-2.114s0.985-0.732,1.704-0.732
		c0.716,0,1.284,0.244,1.704,0.732s0.63,1.193,0.63,2.114V262.261z M583.984,260.453c0-0.582-0.098-1.013-0.293-1.293
		s-0.48-0.419-0.854-0.419s-0.658,0.14-0.852,0.419s-0.291,0.711-0.291,1.293v1.976c0,0.585,0.099,1.019,0.295,1.3
		s0.482,0.422,0.857,0.422s0.658-0.14,0.85-0.419s0.288-0.714,0.288-1.303V260.453z"/>
</g>
<g>
	<path fill="#FFFFFF" d="M384.57,193.922h-4.722v-0.82l2.314-2.52c0.377-0.414,0.638-0.753,0.781-1.018s0.215-0.525,0.215-0.779
		c0-0.319-0.093-0.586-0.278-0.801s-0.436-0.322-0.752-0.322c-0.417,0-0.726,0.117-0.928,0.352s-0.303,0.557-0.303,0.967h-1.147
		l-0.01-0.029c-0.016-0.631,0.19-1.163,0.62-1.594s1.019-0.647,1.768-0.647c0.684,0,1.224,0.189,1.621,0.566
		s0.596,0.871,0.596,1.479c0,0.407-0.115,0.796-0.344,1.167s-0.585,0.822-1.067,1.353l-1.582,1.665l0.015,0.029h3.203V193.922z"/>
	<path fill="#FFFFFF" d="M390.171,191.183c0,0.924-0.208,1.629-0.625,2.114s-0.983,0.728-1.699,0.728
		c-0.719,0-1.289-0.243-1.709-0.728s-0.63-1.19-0.63-2.114v-1.626c0-0.921,0.208-1.626,0.625-2.114s0.985-0.732,1.704-0.732
		c0.716,0,1.284,0.244,1.704,0.732s0.63,1.193,0.63,2.114V191.183z M388.984,189.375c0-0.582-0.098-1.013-0.293-1.293
		s-0.48-0.419-0.854-0.419s-0.658,0.14-0.852,0.419s-0.291,0.711-0.291,1.293v1.976c0,0.585,0.099,1.019,0.295,1.3
		s0.482,0.422,0.857,0.422s0.658-0.14,0.85-0.419s0.288-0.714,0.288-1.303V189.375z"/>
</g>
<g>
	<path fill="#FFFFFF" d="M383.853,131.388h0.898v0.952h-0.898v1.582h-1.182v-1.582h-3.052l-0.029-0.724l3.042-4.804h1.221V131.388z
		 M380.762,131.388h1.909v-2.886l-0.029-0.01l-0.098,0.21L380.762,131.388z"/>
	<path fill="#FFFFFF" d="M390.171,131.183c0,0.924-0.208,1.629-0.625,2.114s-0.983,0.728-1.699,0.728
		c-0.719,0-1.289-0.243-1.709-0.728s-0.63-1.19-0.63-2.114v-1.626c0-0.921,0.208-1.626,0.625-2.114s0.985-0.732,1.704-0.732
		c0.716,0,1.284,0.244,1.704,0.732s0.63,1.193,0.63,2.114V131.183z M388.984,129.375c0-0.582-0.098-1.013-0.293-1.293
		s-0.48-0.419-0.854-0.419s-0.658,0.14-0.852,0.419s-0.291,0.711-0.291,1.293v1.976c0,0.585,0.099,1.019,0.295,1.3
		s0.482,0.422,0.857,0.422s0.658-0.14,0.85-0.419s0.288-0.714,0.288-1.303V129.375z"/>
</g>
<g>
	<path fill="#FFFFFF" d="M382.637,66.71c0.254,0,0.498,0.027,0.732,0.08c0.234,0.053,0.444,0.124,0.63,0.21l-0.225,0.911
		c-0.182-0.078-0.36-0.139-0.532-0.183s-0.373-0.066-0.601-0.066c-0.475,0-0.857,0.185-1.145,0.553
		c-0.288,0.369-0.432,0.865-0.432,1.488v0.034c0.195-0.179,0.422-0.317,0.681-0.415s0.543-0.146,0.852-0.146
		c0.635,0,1.137,0.222,1.506,0.667s0.554,1.01,0.554,1.697c0,0.726-0.211,1.322-0.635,1.787s-0.978,0.698-1.665,0.698
		c-0.723,0-1.316-0.254-1.78-0.762s-0.696-1.217-0.696-2.129v-1.357c0-0.924,0.261-1.667,0.784-2.227S381.846,66.71,382.637,66.71z
		 M382.305,70.099c-0.299,0-0.553,0.053-0.762,0.159c-0.208,0.105-0.368,0.249-0.479,0.431v0.507c0,0.602,0.121,1.064,0.364,1.39
		c0.243,0.325,0.553,0.487,0.93,0.487c0.345,0,0.617-0.148,0.815-0.443c0.199-0.296,0.298-0.66,0.298-1.092
		c0-0.426-0.104-0.771-0.313-1.038S382.666,70.099,382.305,70.099z"/>
	<path fill="#FFFFFF" d="M390.171,71.183c0,0.924-0.208,1.629-0.625,2.114s-0.983,0.728-1.699,0.728
		c-0.719,0-1.289-0.243-1.709-0.728s-0.63-1.19-0.63-2.114v-1.626c0-0.921,0.208-1.626,0.625-2.114s0.985-0.732,1.704-0.732
		c0.716,0,1.284,0.244,1.704,0.732s0.63,1.193,0.63,2.114V71.183z M388.984,69.375c0-0.582-0.098-1.013-0.293-1.293
		s-0.48-0.419-0.854-0.419s-0.658,0.14-0.852,0.419s-0.291,0.711-0.291,1.293v1.976c0,0.585,0.099,1.019,0.295,1.3
		s0.482,0.422,0.857,0.422s0.658-0.14,0.85-0.419s0.288-0.714,0.288-1.303V69.375z"/>
</g>
</svg>
