<?xml version="1.0" encoding="utf-8"?>
<!-- Generator: Adobe Illustrator 21.0.0, SVG Export Plug-In . SVG Version: 6.00 Build 0)  -->
<svg version="1.1" id="calliope" xmlns="http://www.w3.org/2000/svg" xmlns:xlink="http://www.w3.org/1999/xlink" x="0px" y="0px"
	 width="452" height="452"  viewBox="0 0 452 452" style="enable-background:new 0 0 452 452;" xml:space="preserve">
<style type="text/css">
	.st0{fill:#034854;}
	.st1{display:none;}
	.st2{display:inline;}
	.st3{fill:#EFDA48;}
	.st4{fill:#FFFFFF;}
	.st5{fill:#0000FF;}
	.st6{fill:#FF0000;}
	.st7{fill:#B4B4B4;}
	.st8{display:inline;fill:#FFFFFF;}
	.st9{display:none;fill:none;stroke:#FFFFFF;stroke-width:0.75;stroke-miterlimit:10;}
	.st10{fill:#BDD1CF;}
</style>
<symbol  id="calliope_mini_backside" viewBox="-149.5 -131.8 298.9 263.5">
	<path class="st0" d="M-75.9,127.6L-75.9,127.6c6.2,4.6,14.6,4.8,20.9,0.5c12.5-8.4,34.7-21,56-21c23.2,0,45.7,13.5,56.4,21
		c4.3,3,9.8,3.8,14.7,2l0.6-0.2c7.3-2.6,11.8-9.8,11-17.4c-1.7-15.4-3-41.9,13-62.9c16.8-21.9,31.7-31.2,42.3-34.8
		c5.9-2,9.9-7.4,10.4-13.6l0,0c0.5-8-5.1-13.6-12.3-17c-12-5.7-30.8-15.7-42.8-36.2c-14.4-24.9-13-51.3-11.4-62.7
		c0.7-5.1-1.6-10.1-5.9-12.8c-4.8-3-11.9-4.6-21.4,1.5c-5.5,3.6-12,8.6-20.8,12c-10.8,4.1-16.9,5.5-20.3,5.8c-2.4,0.2-4.4,1.8-5.2,4
		c-1.1,2.9-3.4,6.2-8.2,6.2c-5,0-7.2-3.6-8.2-6.6c-0.8-2.5-3.3-3.4-5.9-3.7c-4.9-0.4-12.5-2.4-20.5-6.1c-7.1-3.3-14-7.9-20.4-12.7
		c-5.5-4.1-15-5.5-20.4-1.3l0,0c-5.7,4.4-7.4,11.7-6.5,18.8c1.9,15.3,1.1,43.3-16.7,64.2c-17.6,20.8-28.2,26.2-37.2,29.2
		c-3.9,1.3-11.4,5.4-12.3,14.1c-0.9,8.7,3,14.5,10.9,18.4c12.3,6.1,30.5,17.2,42.1,34.1C-79,72.4-79,98.4-81,112.1
		C-81.7,117.8-80.5,124.2-75.9,127.6z"/>
	<g id="holes_4_">
		<g class="st1">
			<g class="st2">
				<path class="st3" d="M-52.3-89.3c-1.4,0-2.6-1.2-2.6-2.6s1.2-2.6,2.6-2.6s2.6,1.2,2.6,2.6S-50.8-89.3-52.3-89.3z M-52.3-93
					c-0.7,0-1.2,0.6-1.2,1.2c0,0.7,0.6,1.2,1.2,1.2c0.7,0,1.2-0.6,1.2-1.2C-51-92.5-51.6-93-52.3-93z"/>
				<path d="M-52.3-93c-0.7,0-1.2,0.6-1.2,1.2c0,0.7,0.6,1.2,1.2,1.2c0.7,0,1.2-0.6,1.2-1.2C-51-92.5-51.6-93-52.3-93z"/>
			</g>
			<g class="st2">
				<path class="st3" d="M-43.5-89.3c-1.4,0-2.6-1.2-2.6-2.6s1.2-2.6,2.6-2.6s2.6,1.2,2.6,2.6S-42-89.3-43.5-89.3z M-43.5-93
					c-0.7,0-1.2,0.6-1.2,1.2c0,0.7,0.6,1.2,1.2,1.2c0.7,0,1.2-0.6,1.2-1.2C-42.3-92.5-42.8-93-43.5-93z"/>
				<path d="M-43.5-93c-0.7,0-1.2,0.6-1.2,1.2c0,0.7,0.6,1.2,1.2,1.2c0.7,0,1.2-0.6,1.2-1.2C-42.3-92.5-42.8-93-43.5-93z"/>
			</g>
			<g class="st2">
				<path class="st3" d="M-34.8-89.3c-1.4,0-2.6-1.2-2.6-2.6s1.2-2.6,2.6-2.6s2.6,1.2,2.6,2.6S-33.3-89.3-34.8-89.3z M-34.8-93
					c-0.7,0-1.2,0.6-1.2,1.2c0,0.7,0.6,1.2,1.2,1.2c0.7,0,1.2-0.6,1.2-1.2C-33.4-92.5-34-93-34.8-93z"/>
				<path d="M-34.8-93c-0.7,0-1.2,0.6-1.2,1.2c0,0.7,0.6,1.2,1.2,1.2c0.7,0,1.2-0.6,1.2-1.2C-33.4-92.5-34-93-34.8-93z"/>
			</g>
			<g class="st2">
				<path class="st3" d="M-25.8-89.3c-1.4,0-2.6-1.2-2.6-2.6s1.2-2.6,2.6-2.6s2.6,1.2,2.6,2.6S-24.4-89.3-25.8-89.3z M-25.8-93
					c-0.7,0-1.2,0.6-1.2,1.2c0,0.7,0.6,1.2,1.2,1.2c0.7,0,1.2-0.6,1.2-1.2C-24.6-92.5-25.2-93-25.8-93z"/>
				<path d="M-25.8-93c-0.7,0-1.2,0.6-1.2,1.2c0,0.7,0.6,1.2,1.2,1.2c0.7,0,1.2-0.6,1.2-1.2C-24.6-92.5-25.2-93-25.8-93z"/>
			</g>
			<g class="st2">
				<path class="st3" d="M-17-89.3c-1.4,0-2.6-1.2-2.6-2.6s1.2-2.6,2.6-2.6s2.6,1.2,2.6,2.6S-15.6-89.3-17-89.3z M-17-93
					c-0.7,0-1.2,0.6-1.2,1.2c0,0.7,0.6,1.2,1.2,1.2c0.7,0,1.2-0.6,1.2-1.2C-15.8-92.5-16.4-93-17-93z"/>
				<path d="M-17-93c-0.7,0-1.2,0.6-1.2,1.2c0,0.7,0.6,1.2,1.2,1.2c0.7,0,1.2-0.6,1.2-1.2C-15.8-92.5-16.4-93-17-93z"/>
			</g>
			<g class="st2">
				<path class="st3" d="M-8.2-89.3c-1.4,0-2.6-1.2-2.6-2.6s1.2-2.6,2.6-2.6s2.6,1.2,2.6,2.6S-6.8-89.3-8.2-89.3z M-8.2-93
					c-0.7,0-1.2,0.6-1.2,1.2c0,0.7,0.6,1.2,1.2,1.2S-7-91.3-7-91.8C-7-92.5-7.5-93-8.2-93z"/>
				<path d="M-8.2-93c-0.7,0-1.2,0.6-1.2,1.2c0,0.7,0.6,1.2,1.2,1.2S-7-91.3-7-91.8C-7-92.5-7.5-93-8.2-93z"/>
			</g>
			<g class="st2">
				<path class="st3" d="M0.6-89.3c-1.4,0-2.6-1.2-2.6-2.6s1.2-2.6,2.6-2.6s2.6,1.2,2.6,2.6S2-89.3,0.6-89.3z M0.6-93
					c-0.7,0-1.2,0.6-1.2,1.2c0,0.7,0.6,1.2,1.2,1.2s1.2-0.6,1.2-1.2C1.8-92.5,1.3-93,0.6-93z"/>
				<path d="M0.6-93c-0.7,0-1.2,0.6-1.2,1.2c0,0.7,0.6,1.2,1.2,1.2s1.2-0.6,1.2-1.2C1.8-92.5,1.3-93,0.6-93z"/>
			</g>
			<g class="st2">
				<path class="st3" d="M9.4-89.3c-1.4,0-2.6-1.2-2.6-2.6s1.2-2.6,2.6-2.6s2.6,1.2,2.6,2.6S10.8-89.3,9.4-89.3z M9.4-93
					c-0.7,0-1.2,0.6-1.2,1.2c0,0.7,0.6,1.2,1.2,1.2s1.2-0.6,1.2-1.2C10.6-92.5,10.1-93,9.4-93z"/>
				<path d="M9.4-93c-0.7,0-1.2,0.6-1.2,1.2c0,0.7,0.6,1.2,1.2,1.2s1.2-0.6,1.2-1.2C10.6-92.5,10.1-93,9.4-93z"/>
			</g>
			<g class="st2">
				<path class="st3" d="M18.2-89.3c-1.4,0-2.6-1.2-2.6-2.6s1.2-2.6,2.6-2.6s2.6,1.2,2.6,2.6S19.6-89.3,18.2-89.3z M18.2-93
					c-0.7,0-1.2,0.6-1.2,1.2c0,0.7,0.6,1.2,1.2,1.2c0.7,0,1.2-0.6,1.2-1.2C19.4-92.5,18.9-93,18.2-93z"/>
				<path d="M18.2-93c-0.7,0-1.2,0.6-1.2,1.2c0,0.7,0.6,1.2,1.2,1.2c0.7,0,1.2-0.6,1.2-1.2C19.4-92.5,18.9-93,18.2-93z"/>
			</g>
			<g class="st2">
				<path class="st3" d="M27-89.3c-1.4,0-2.6-1.2-2.6-2.6s1.2-2.6,2.6-2.6s2.6,1.2,2.6,2.6S28.4-89.3,27-89.3z M27-93
					c-0.7,0-1.2,0.6-1.2,1.2c0,0.7,0.6,1.2,1.2,1.2s1.2-0.6,1.2-1.2C28.2-92.5,27.7-93,27-93z"/>
				<path d="M27-93c-0.7,0-1.2,0.6-1.2,1.2c0,0.7,0.6,1.2,1.2,1.2s1.2-0.6,1.2-1.2C28.2-92.5,27.7-93,27-93z"/>
			</g>
			<g class="st2">
				<path class="st3" d="M35.8-89.3c-1.4,0-2.6-1.2-2.6-2.6s1.2-2.6,2.6-2.6s2.6,1.2,2.6,2.6S37.3-89.3,35.8-89.3z M35.8-93
					c-0.7,0-1.2,0.6-1.2,1.2c0,0.7,0.6,1.2,1.2,1.2c0.7,0,1.2-0.6,1.2-1.2C37.1-92.5,36.5-93,35.8-93z"/>
				<path d="M35.8-93c-0.7,0-1.2,0.6-1.2,1.2c0,0.7,0.6,1.2,1.2,1.2c0.7,0,1.2-0.6,1.2-1.2C37.1-92.5,36.5-93,35.8-93z"/>
			</g>
			<g class="st2">
				<path class="st3" d="M44.6-89.3c-1.4,0-2.6-1.2-2.6-2.6s1.2-2.6,2.6-2.6s2.6,1.2,2.6,2.6S46.1-89.3,44.6-89.3z M44.6-93
					c-0.7,0-1.2,0.6-1.2,1.2c0,0.7,0.6,1.2,1.2,1.2s1.2-0.6,1.2-1.2C45.9-92.5,45.3-93,44.6-93z"/>
				<path d="M44.6-93c-0.7,0-1.2,0.6-1.2,1.2c0,0.7,0.6,1.2,1.2,1.2s1.2-0.6,1.2-1.2C45.9-92.5,45.3-93,44.6-93z"/>
			</g>
			<g class="st2">
				<path class="st3" d="M53.4-89.3c-1.4,0-2.6-1.2-2.6-2.6s1.2-2.6,2.6-2.6s2.6,1.2,2.6,2.6S54.9-89.3,53.4-89.3z M53.4-93
					c-0.7,0-1.2,0.6-1.2,1.2c0,0.7,0.6,1.2,1.2,1.2c0.7,0,1.2-0.6,1.2-1.2C54.7-92.5,54.1-93,53.4-93z"/>
				<path d="M53.4-93c-0.7,0-1.2,0.6-1.2,1.2c0,0.7,0.6,1.2,1.2,1.2c0.7,0,1.2-0.6,1.2-1.2C54.7-92.5,54.1-93,53.4-93z"/>
			</g>
		</g>
		<g class="st1">
			<g class="st2">
				<path class="st3" d="M-52.3-80.3c-1.4,0-2.6-1.2-2.6-2.6s1.2-2.6,2.6-2.6s2.6,1.2,2.6,2.6S-50.8-80.3-52.3-80.3z M-52.3-84.3
					c-0.7,0-1.2,0.6-1.2,1.2s0.6,1.2,1.2,1.2c0.7,0,1.2-0.6,1.2-1.2S-51.6-84.3-52.3-84.3z"/>
				<path d="M-52.3-84.3c-0.7,0-1.2,0.6-1.2,1.2s0.6,1.2,1.2,1.2c0.7,0,1.2-0.6,1.2-1.2S-51.6-84.3-52.3-84.3z"/>
			</g>
			<g class="st2">
				<path class="st3" d="M-43.5-80.3c-1.4,0-2.6-1.2-2.6-2.6s1.2-2.6,2.6-2.6s2.6,1.2,2.6,2.6S-42-80.3-43.5-80.3z M-43.5-84.3
					c-0.7,0-1.2,0.6-1.2,1.2s0.6,1.2,1.2,1.2c0.7,0,1.2-0.6,1.2-1.2S-42.8-84.3-43.5-84.3z"/>
				<path d="M-43.5-84.3c-0.7,0-1.2,0.6-1.2,1.2s0.6,1.2,1.2,1.2c0.7,0,1.2-0.6,1.2-1.2S-42.8-84.3-43.5-84.3z"/>
			</g>
			<g class="st2">
				<path class="st3" d="M-34.8-80.3c-1.4,0-2.6-1.2-2.6-2.6s1.2-2.6,2.6-2.6s2.6,1.2,2.6,2.6S-33.3-80.3-34.8-80.3z M-34.8-84.3
					c-0.7,0-1.2,0.6-1.2,1.2s0.6,1.2,1.2,1.2c0.7,0,1.2-0.6,1.2-1.2S-34-84.3-34.8-84.3z"/>
				<path d="M-34.8-84.3c-0.7,0-1.2,0.6-1.2,1.2s0.6,1.2,1.2,1.2c0.7,0,1.2-0.6,1.2-1.2S-34-84.3-34.8-84.3z"/>
			</g>
			<g class="st2">
				<path class="st3" d="M-25.8-80.3c-1.4,0-2.6-1.2-2.6-2.6s1.2-2.6,2.6-2.6s2.6,1.2,2.6,2.6S-24.4-80.3-25.8-80.3z M-25.8-84.3
					c-0.7,0-1.2,0.6-1.2,1.2s0.6,1.2,1.2,1.2c0.7,0,1.2-0.6,1.2-1.2S-25.2-84.3-25.8-84.3z"/>
				<path d="M-25.8-84.3c-0.7,0-1.2,0.6-1.2,1.2s0.6,1.2,1.2,1.2c0.7,0,1.2-0.6,1.2-1.2S-25.2-84.3-25.8-84.3z"/>
			</g>
			<g class="st2">
				<path class="st3" d="M-17-80.3c-1.4,0-2.6-1.2-2.6-2.6s1.2-2.6,2.6-2.6s2.6,1.2,2.6,2.6S-15.6-80.3-17-80.3z M-17-84.3
					c-0.7,0-1.2,0.6-1.2,1.2s0.6,1.2,1.2,1.2c0.7,0,1.2-0.6,1.2-1.2S-16.4-84.3-17-84.3z"/>
				<path d="M-17-84.3c-0.7,0-1.2,0.6-1.2,1.2s0.6,1.2,1.2,1.2c0.7,0,1.2-0.6,1.2-1.2S-16.4-84.3-17-84.3z"/>
			</g>
			<g class="st2">
				<path class="st3" d="M-8.2-80.3c-1.4,0-2.6-1.2-2.6-2.6s1.2-2.6,2.6-2.6s2.6,1.2,2.6,2.6S-6.8-80.3-8.2-80.3z M-8.2-84.3
					c-0.7,0-1.2,0.6-1.2,1.2s0.6,1.2,1.2,1.2S-7-82.5-7-83.1S-7.5-84.3-8.2-84.3z"/>
				<path d="M-8.2-84.3c-0.7,0-1.2,0.6-1.2,1.2s0.6,1.2,1.2,1.2S-7-82.5-7-83.1S-7.5-84.3-8.2-84.3z"/>
			</g>
			<g class="st2">
				<path class="st3" d="M0.6-80.3c-1.4,0-2.6-1.2-2.6-2.6s1.2-2.6,2.6-2.6s2.6,1.1,2.6,2.5S2-80.3,0.6-80.3z M0.6-84.3
					c-0.7,0-1.2,0.6-1.2,1.2s0.6,1.2,1.2,1.2s1.2-0.6,1.2-1.2S1.3-84.3,0.6-84.3z"/>
				<path d="M0.6-84.3c-0.7,0-1.2,0.6-1.2,1.2s0.6,1.2,1.2,1.2s1.2-0.6,1.2-1.2S1.3-84.3,0.6-84.3z"/>
			</g>
			<g class="st2">
				<path class="st3" d="M9.4-80.3c-1.4,0-2.6-1.2-2.6-2.6s1.2-2.6,2.6-2.6s2.6,1.2,2.6,2.6S10.8-80.3,9.4-80.3z M9.4-84.3
					c-0.7,0-1.2,0.6-1.2,1.2s0.6,1.2,1.2,1.2s1.2-0.6,1.2-1.2S10.1-84.3,9.4-84.3z"/>
				<path d="M9.4-84.3c-0.7,0-1.2,0.6-1.2,1.2s0.6,1.2,1.2,1.2s1.2-0.6,1.2-1.2S10.1-84.3,9.4-84.3z"/>
			</g>
			<g class="st2">
				<path class="st3" d="M18.2-80.3c-1.4,0-2.6-1.2-2.6-2.6s1.2-2.6,2.6-2.6s2.6,1.2,2.6,2.6S19.6-80.3,18.2-80.3z M18.2-84.3
					c-0.7,0-1.2,0.6-1.2,1.2s0.6,1.2,1.2,1.2c0.7,0,1.2-0.6,1.2-1.2S18.9-84.3,18.2-84.3z"/>
				<path d="M18.2-84.3c-0.7,0-1.2,0.6-1.2,1.2s0.6,1.2,1.2,1.2c0.7,0,1.2-0.6,1.2-1.2S18.9-84.3,18.2-84.3z"/>
			</g>
			<g class="st2">
				<path class="st3" d="M27-80.3c-1.4,0-2.6-1.2-2.6-2.6s1.2-2.6,2.6-2.6s2.6,1.2,2.6,2.6S28.4-80.3,27-80.3z M27-84.3
					c-0.7,0-1.2,0.6-1.2,1.2s0.6,1.2,1.2,1.2s1.2-0.6,1.2-1.2S27.7-84.3,27-84.3z"/>
				<path d="M27-84.3c-0.7,0-1.2,0.6-1.2,1.2s0.6,1.2,1.2,1.2s1.2-0.6,1.2-1.2S27.7-84.3,27-84.3z"/>
			</g>
			<g class="st2">
				<path class="st3" d="M35.8-80.3c-1.4,0-2.6-1.2-2.6-2.6s1.2-2.6,2.6-2.6s2.6,1.2,2.6,2.6S37.3-80.3,35.8-80.3z M35.8-84.3
					c-0.7,0-1.2,0.6-1.2,1.2s0.6,1.2,1.2,1.2c0.7,0,1.2-0.6,1.2-1.2S36.5-84.3,35.8-84.3z"/>
				<path d="M35.8-84.3c-0.7,0-1.2,0.6-1.2,1.2s0.6,1.2,1.2,1.2c0.7,0,1.2-0.6,1.2-1.2S36.5-84.3,35.8-84.3z"/>
			</g>
			<g class="st2">
				<path class="st3" d="M44.6-80.3c-1.4,0-2.6-1.2-2.6-2.6s1.2-2.6,2.6-2.6s2.6,1.2,2.6,2.6S46.1-80.3,44.6-80.3z M44.6-84.3
					c-0.7,0-1.2,0.6-1.2,1.2s0.6,1.2,1.2,1.2s1.2-0.6,1.2-1.2S45.3-84.3,44.6-84.3z"/>
				<path d="M44.6-84.3c-0.7,0-1.2,0.6-1.2,1.2s0.6,1.2,1.2,1.2s1.2-0.6,1.2-1.2S45.3-84.3,44.6-84.3z"/>
			</g>
			<g class="st2">
				<path class="st3" d="M53.4-80.3c-1.4,0-2.6-1.2-2.6-2.6s1.2-2.6,2.6-2.6s2.6,1.2,2.6,2.6S54.9-80.3,53.4-80.3z M53.4-84.3
					c-0.7,0-1.2,0.6-1.2,1.2s0.6,1.2,1.2,1.2c0.7,0,1.2-0.6,1.2-1.2S54.1-84.3,53.4-84.3z"/>
				<path d="M53.4-84.3c-0.7,0-1.2,0.6-1.2,1.2s0.6,1.2,1.2,1.2c0.7,0,1.2-0.6,1.2-1.2S54.1-84.3,53.4-84.3z"/>
			</g>
		</g>
		<g class="st1">
			<g class="st2">
				<path class="st3" d="M-17-63.4c-1.4,0-2.6-1.2-2.6-2.6s1.2-2.6,2.6-2.6s2.6,1.2,2.6,2.6S-15.6-63.4-17-63.4z M-17-67.3
					c-0.7,0-1.2,0.6-1.2,1.2S-17.6-65-17-65c0.7,0,1.2-0.6,1.2-1.2S-16.4-67.3-17-67.3z"/>
				<path d="M-17-67.3c-0.7,0-1.2,0.6-1.2,1.2S-17.6-65-17-65c0.7,0,1.2-0.6,1.2-1.2S-16.4-67.3-17-67.3z"/>
			</g>
			<g class="st2">
				<path class="st3" d="M-8.2-63.4c-1.4,0-2.6-1.2-2.6-2.6s1.2-2.6,2.6-2.6s2.6,1.2,2.6,2.6S-6.8-63.4-8.2-63.4z M-8.2-67.3
					c-0.7,0-1.2,0.6-1.2,1.2S-8.8-65-8.2-65S-7-65.6-7-66.2S-7.5-67.3-8.2-67.3z"/>
				<path d="M-8.2-67.3c-0.7,0-1.2,0.6-1.2,1.2S-8.8-65-8.2-65S-7-65.6-7-66.2S-7.5-67.3-8.2-67.3z"/>
			</g>
			<g class="st2">
				<path class="st3" d="M0.6-63.4C-0.8-63.4-2-64.6-2-66s1.2-2.6,2.6-2.6s2.6,1.1,2.6,2.6S2-63.4,0.6-63.4z M0.6-67.3
					c-0.7,0-1.2,0.6-1.2,1.2S0-65,0.6-65s1.2-0.6,1.2-1.2S1.3-67.3,0.6-67.3z"/>
				<path d="M0.6-67.3c-0.7,0-1.2,0.6-1.2,1.2S0-65,0.6-65s1.2-0.6,1.2-1.2S1.3-67.3,0.6-67.3z"/>
			</g>
			<g class="st2">
				<path class="st3" d="M9.4-63.4c-1.4,0-2.6-1.2-2.6-2.6s1.2-2.6,2.6-2.6S12-67.4,12-66S10.8-63.4,9.4-63.4z M9.4-67.3
					c-0.7,0-1.2,0.6-1.2,1.2S8.8-65,9.4-65s1.2-0.6,1.2-1.2S10.1-67.3,9.4-67.3z"/>
				<path d="M9.4-67.3c-0.7,0-1.2,0.6-1.2,1.2S8.8-65,9.4-65s1.2-0.6,1.2-1.2S10.1-67.3,9.4-67.3z"/>
			</g>
			<g class="st2">
				<path class="st3" d="M18.2-63.4c-1.4,0-2.6-1.2-2.6-2.6s1.2-2.6,2.6-2.6s2.6,1.2,2.6,2.6S19.6-63.4,18.2-63.4z M18.2-67.3
					c-0.7,0-1.2,0.6-1.2,1.2s0.6,1.2,1.2,1.2c0.7,0,1.2-0.6,1.2-1.2S18.9-67.3,18.2-67.3z"/>
				<path d="M18.2-67.3c-0.7,0-1.2,0.6-1.2,1.2s0.6,1.2,1.2,1.2c0.7,0,1.2-0.6,1.2-1.2S18.9-67.3,18.2-67.3z"/>
			</g>
		</g>
		<g class="st1">
			<g class="st2">
				<polygon class="st3" points="98.3,28.1 94.7,31.7 98.3,35.3 101.8,31.7 				"/>
				<path d="M97.3,30.9c-0.5,0.5-0.5,1.3,0,1.8s1.3,0.5,1.8,0s0.5-1.3,0-1.8S97.8,30.4,97.3,30.9z"/>
			</g>
			<g class="st2">
				<path class="st3" d="M105.3,28.7c-1,1-2.7,1-3.7,0s-1-2.7,0-3.7s2.7-1,3.7,0S106.3,27.6,105.3,28.7z M102.6,25.9
					c-0.5,0.5-0.5,1.3,0,1.8s1.3,0.5,1.8,0s0.5-1.3,0-1.8C103.8,25.4,103.1,25.4,102.6,25.9z"/>
				<path d="M102.6,25.9c-0.5,0.5-0.5,1.3,0,1.8s1.3,0.5,1.8,0s0.5-1.3,0-1.8C103.8,25.4,103.1,25.4,102.6,25.9z"/>
			</g>
			<g class="st2">
				<path class="st3" d="M110,24.1c-1,1-2.7,1-3.7,0s-1-2.7,0-3.7s2.7-1,3.7,0S111,23.1,110,24.1z M107.2,21.4
					c-0.5,0.5-0.5,1.3,0,1.8s1.3,0.5,1.8,0s0.5-1.3,0-1.8S107.7,20.9,107.2,21.4z"/>
				<path d="M107.2,21.4c-0.5,0.5-0.5,1.3,0,1.8s1.3,0.5,1.8,0s0.5-1.3,0-1.8S107.7,20.9,107.2,21.4z"/>
			</g>
			<g class="st2">
				<path class="st3" d="M115.3,18.8c-1,1-2.7,1-3.7,0s-1-2.7,0-3.7s2.7-1,3.7,0S116.3,17.8,115.3,18.8z M112.5,16.1
					c-0.5,0.5-0.5,1.3,0,1.8s1.3,0.5,1.8,0s0.5-1.3,0-1.8C113.8,15.6,113,15.6,112.5,16.1z"/>
				<path d="M112.5,16.1c-0.5,0.5-0.5,1.3,0,1.8s1.3,0.5,1.8,0s0.5-1.3,0-1.8C113.8,15.6,113,15.6,112.5,16.1z"/>
			</g>
		</g>
		<g class="st1">
			<g class="st2">
				<polygon class="st3" points="-108.2,17.1 -111.8,13.5 -115.4,17.1 -111.8,20.8 				"/>
				<path d="M-110.9,16.3c-0.5-0.5-1.3-0.5-1.8,0s-0.5,1.3,0,1.8s1.3,0.5,1.8,0S-110.4,16.8-110.9,16.3z"/>
			</g>
			<g class="st2">
				<path class="st3" d="M-108.8,24.2c-1-1-1-2.7,0-3.7s2.7-1,3.7,0s1,2.7,0,3.7S-107.8,25.2-108.8,24.2z M-106,21.4
					c-0.5-0.5-1.3-0.5-1.8,0s-0.5,1.3,0,1.8s1.3,0.5,1.8,0C-105.5,22.7-105.5,21.9-106,21.4z"/>
				<path d="M-106,21.4c-0.5-0.5-1.3-0.5-1.8,0s-0.5,1.3,0,1.8s1.3,0.5,1.8,0C-105.5,22.7-105.5,21.9-106,21.4z"/>
			</g>
			<g class="st2">
				<path class="st3" d="M-104.2,28.8c-1-1-1-2.7,0-3.7s2.7-1,3.7,0s1,2.7,0,3.7S-103.2,29.9-104.2,28.8z M-101.4,26.1
					c-0.5-0.5-1.3-0.5-1.8,0s-0.5,1.3,0,1.8s1.3,0.5,1.8,0S-100.9,26.6-101.4,26.1z"/>
				<path d="M-101.4,26.1c-0.5-0.5-1.3-0.5-1.8,0s-0.5,1.3,0,1.8s1.3,0.5,1.8,0S-100.9,26.6-101.4,26.1z"/>
			</g>
			<g class="st2">
				<path class="st3" d="M-98.9,34.1c-1-1-1-2.7,0-3.7s2.7-1,3.7,0s1,2.7,0,3.7S-97.8,35.1-98.9,34.1z M-96.2,31.4
					c-0.5-0.5-1.3-0.5-1.8,0s-0.5,1.3,0,1.8s1.3,0.5,1.8,0S-95.7,31.9-96.2,31.4z"/>
				<path d="M-96.2,31.4c-0.5-0.5-1.3-0.5-1.8,0s-0.5,1.3,0,1.8s1.3,0.5,1.8,0S-95.7,31.9-96.2,31.4z"/>
			</g>
		</g>
		<g>
			<path class="st3" d="M-132.4,17.1c-9.4,0-17.1-7.6-17.1-17.1s7.6-17.1,17.1-17.1s17.1,7.6,17.1,17.1S-122.9,17.1-132.4,17.1z
				 M-132.4-8.1c-4.5,0-8.1,3.6-8.1,8.1s3.6,8.1,8.1,8.1c4.5,0,8.1-3.6,8.1-8.1S-127.8-8.1-132.4-8.1z"/>
			<path class="st3" d="M66.7,131.8c-9.4,0-17.1-7.6-17.1-17.1s7.6-17.1,17.1-17.1s17.1,7.6,17.1,17.1S76.1,131.8,66.7,131.8z
				 M66.7,106.6c-4.5,0-8.1,3.6-8.1,8.1s3.6,8.1,8.1,8.1s8.1-3.6,8.1-8.1S71.2,106.6,66.7,106.6z"/>
			<path class="st3" d="M132.4,17.1c-9.4,0-17.1-7.6-17.1-17.1s7.6-17.1,17.1-17.1S149.5-9.5,149.5,0S141.8,17.1,132.4,17.1z
				 M132.4-8.1c-4.5,0-8.1,3.6-8.1,8.1s3.6,8.1,8.1,8.1c4.5,0,8.1-3.6,8.1-8.1S136.8-8.1,132.4-8.1z"/>
			<path class="st3" d="M66.7-96.5c-9.4,0-17.1-7.6-17.1-17.1s7.6-17.1,17.1-17.1s17.1,7.6,17.1,17.1S76.1-96.5,66.7-96.5z
				 M66.7-121.6c-4.5,0-8.1,3.6-8.1,8.1s3.6,8.1,8.1,8.1s8.1-3.6,8.1-8.1S71.2-121.6,66.7-121.6z"/>
			<path class="st3" d="M-65.3-97.5c-9.4,0-17.1-7.6-17.1-17.1s7.6-17.1,17.1-17.1s17.1,7.6,17.1,17.1S-55.9-97.5-65.3-97.5z
				 M-65.3-122.6c-4.5,0-8.1,3.6-8.1,8.1s3.6,8.1,8.1,8.1s8.1-3.6,8.1-8.1S-60.8-122.6-65.3-122.6z"/>
			<path class="st3" d="M-65.3,131.8c-9.4,0-17.1-7.6-17.1-17.1s7.6-17.1,17.1-17.1s17.1,7.6,17.1,17.1S-55.9,131.8-65.3,131.8z
				 M-65.3,106.6c-4.5,0-8.1,3.6-8.1,8.1s3.6,8.1,8.1,8.1s8.1-3.6,8.1-8.1S-60.8,106.6-65.3,106.6z"/>
		</g>
	</g>
	<path class="st4" d="M132.4-8.1c-4.5,0-8.1,3.6-8.1,8.1s3.6,8.1,8.1,8.1c4.5,0,8.1-3.6,8.1-8.1S136.8-8.1,132.4-8.1z"/>
	<path class="st4" d="M66.7,106.6c-4.5,0-8.1,3.6-8.1,8.1s3.6,8.1,8.1,8.1s8.1-3.6,8.1-8.1S71.2,106.6,66.7,106.6z"/>
	<path class="st4" d="M-65.3,106.6c-4.5,0-8.1,3.6-8.1,8.1s3.6,8.1,8.1,8.1s8.1-3.6,8.1-8.1S-60.8,106.6-65.3,106.6z"/>
	<path class="st4" d="M-132.4-8c-4.5,0-8.1,3.6-8.1,8.1s3.6,8.1,8.1,8.1c4.5,0,8.1-3.6,8.1-8.1S-127.8-8-132.4-8z"/>
	<path class="st4" d="M-65.3-122.6c-4.5,0-8.1,3.6-8.1,8.1s3.6,8.1,8.1,8.1s8.1-3.6,8.1-8.1S-60.8-122.6-65.3-122.6z"/>
	<path class="st4" d="M66.7-121.6c-4.5,0-8.1,3.6-8.1,8.1s3.6,8.1,8.1,8.1s8.1-3.6,8.1-8.1S71.2-121.6,66.7-121.6z"/>
</symbol>
<path class="st0" d="M113.2,37.5L113.2,37.5c9.2-6.8,21.6-7.1,30.9-0.7c18.5,12.4,51.3,31.1,82.8,31.1c34.3,0,67.6-20,83.4-31.1
	c6.4-4.4,14.5-5.6,21.7-3l0.9,0.3c10.8,3.8,17.4,14.5,16.3,25.7c-2.5,22.8-4.4,62,19.2,93c24.8,32.4,46.9,46.1,62.5,51.5
	c8.7,3,14.6,10.9,15.4,20.1l0,0c0.7,11.8-7.5,20.1-18.2,25.1c-17.7,8.4-45.5,23.2-63.3,53.5c-21.3,36.8-19.2,75.9-16.9,92.7
	c1,7.5-2.4,14.9-8.7,18.9c-7.1,4.4-17.6,6.8-31.6-2.2c-8.1-5.3-17.7-12.7-30.8-17.7c-16-6.1-25-8.1-30-8.6c-3.5-0.3-6.5-2.7-7.7-5.9
	c-1.6-4.3-5-9.2-12.1-9.2c-7.4,0-10.6,5.3-12.1,9.8c-1.2,3.7-4.9,5-8.7,5.5c-7.2,0.6-18.5,3.5-30.3,9c-10.5,4.9-20.7,11.7-30.2,18.8
	c-8.1,6.1-22.2,8.1-30.2,1.9l0,0c-8.4-6.5-10.9-17.3-9.6-27.8c2.8-22.6,1.6-64-24.7-94.9c-26-30.8-41.7-38.7-55-43.2
	c-5.8-1.9-16.9-8-18.2-20.8s4.4-21.4,16.1-27.2c18.2-9,45.1-25.4,62.3-50.4c22.3-32.5,22.3-71.1,19.4-91.2
	C104.7,52,106.4,42.5,113.2,37.5z M434.7,226.2c0-6.9-5.6-12.5-12.5-12.5c-6.9,0-12.5,5.6-12.5,12.5s5.6,12.5,12.5,12.5
	C429,238.7,434.7,233.1,434.7,226.2z M337,56.6c0-6.9-5.6-12.5-12.5-12.5S312,49.6,312,56.6s5.6,12.5,12.5,12.5S337,63.5,337,56.6z
	 M142.1,56.3c0-6.9-5.6-12.5-12.5-12.5s-12.5,5.6-12.5,12.5s5.6,12.5,12.5,12.5S142.1,63.2,142.1,56.3z M42.3,226.2
	c0-6.9-5.6-12.5-12.5-12.5s-12.5,5.6-12.5,12.5s5.6,12.5,12.5,12.5S42.3,233.1,42.3,226.2z M142.1,395.6c0-6.9-5.6-12.5-12.5-12.5
	s-12.5,5.6-12.5,12.5c0,6.9,5.6,12.5,12.5,12.5S142.1,402.6,142.1,395.6z M337.5,394c0-6.9-5.6-12.5-12.5-12.5
	c-6.9,0-12.5,5.6-12.5,12.5c0,6.9,5.6,12.5,12.5,12.5C332,406.5,337.5,401,337.5,394z"/>
<path class="st3" d="M29.8,200.9c-13.9,0-25.3,11.2-25.3,25.3s11.2,25.3,25.3,25.3s25.3-11.2,25.3-25.3S43.7,200.9,29.8,200.9z
	 M29.8,238.2c-6.7,0-12-5.3-12-12s5.3-12,12-12s12,5.3,12,12S36.4,238.2,29.8,238.2z"/>
<path class="st3" d="M324.5,31.3c-13.9,0-25.3,11.2-25.3,25.3s11.2,25.3,25.3,25.3s25.3-11.2,25.3-25.3S338.4,31.3,324.5,31.3z
	 M324.5,68.6c-6.7,0-12-5.3-12-12s5.3-12,12-12s12,5.3,12,12S331.2,68.6,324.5,68.6z"/>
<path class="st3" d="M422.2,200.9c-13.9,0-25.3,11.2-25.3,25.3s11.2,25.3,25.3,25.3s25.3-11.2,25.3-25.3S436.1,200.9,422.2,200.9z
	 M422.2,238.2c-6.7,0-12-5.3-12-12s5.3-12,12-12c6.7,0,12,5.3,12,12S428.7,238.2,422.2,238.2z"/>
<path class="st3" d="M325,368.9c-13.9,0-25.3,11.2-25.3,25.3s11.2,25.3,25.3,25.3s25.3-11.2,25.3-25.3S338.9,368.9,325,368.9z
	 M325,406c-6.7,0-12-5.3-12-12c0-6.7,5.3-12,12-12c6.7,0,12,5.3,12,12C337,400.7,331.7,406,325,406z"/>
<path class="st3" d="M129.6,370.4c-13.9,0-25.3,11.2-25.3,25.3s11.2,25.3,25.3,25.3s25.3-11.2,25.3-25.3S143.5,370.4,129.6,370.4z
	 M129.6,407.5c-6.7,0-12-5.3-12-12c0-6.7,5.3-12,12-12s12,5.3,12,12C141.6,402.1,136.3,407.5,129.6,407.5z"/>
<path class="st3" d="M129.6,31c-13.9,0-25.3,11.2-25.3,25.3s11.2,25.3,25.3,25.3s25.3-11.2,25.3-25.3S143.5,31,129.6,31z
	 M129.6,68.3c-6.7,0-12-5.3-12-12s5.3-12,12-12s12,5.3,12,12S136.3,68.3,129.6,68.3z"/>
<circle class="st5" cx="96" cy="171" r="15"/>
<circle class="st6" cx="356" cy="171" r="15"/>
<g>
	<g>
		<g>
			<polygon class="st4" points="169,214.3 163,214.3 163,198.3 169,198.3 			"/>
		</g>
		<g>
			<polygon class="st4" points="229,214.3 223,214.3 223,198.3 229,198.3 			"/>
		</g>
		<g>
			<polygon class="st4" points="259,214.3 253,214.3 253,198.3 259,198.3 			"/>
		</g>
		<g>
			<polygon class="st4" points="289,214.3 283,214.3 283,198.3 289,198.3 			"/>
		</g>
		<g>
			<polygon class="st4" points="199,214.3 193,214.3 193,198.3 199,198.3 			"/>
		</g>
	</g>
	<g>
		<g>
			<polygon class="st4" points="169,184.3 163,184.3 163,168.3 169,168.3 			"/>
		</g>
		<g>
			<polygon class="st4" points="229,184.3 223,184.3 223,168.3 229,168.3 			"/>
		</g>
		<g>
			<polygon class="st4" points="259,184.3 253,184.3 253,168.3 259,168.3 			"/>
		</g>
		<g>
			<polygon class="st4" points="289,184.3 283,184.3 283,168.3 289,168.3 			"/>
		</g>
		<g>
			<polygon class="st4" points="199,184.3 193,184.3 193,168.3 199,168.3 			"/>
		</g>
	</g>
	<g>
		<g>
			<polygon class="st4" points="169,154.3 163,154.3 163,138.3 169,138.3 			"/>
		</g>
		<g>
			<polygon class="st4" points="229,154.3 223,154.3 223,138.3 229,138.3 			"/>
		</g>
		<g>
			<polygon class="st4" points="259,154.3 253,154.3 253,138.3 259,138.3 			"/>
		</g>
		<g>
			<polygon class="st4" points="289,154.3 283,154.3 283,138.3 289,138.3 			"/>
		</g>
		<g>
			<polygon class="st4" points="199,154.3 193,154.3 193,138.3 199,138.3 			"/>
		</g>
	</g>
	<g>
		<g>
			<polygon class="st4" points="169,244.3 163,244.3 163,228.3 169,228.3 			"/>
		</g>
		<g>
			<polygon class="st4" points="229,244.3 223,244.3 223,228.3 229,228.3 			"/>
		</g>
		<g>
			<polygon class="st4" points="259,244.3 253,244.3 253,228.3 259,228.3 			"/>
		</g>
		<g>
			<polygon class="st4" points="289,244.3 283,244.3 283,228.3 289,228.3 			"/>
		</g>
		<g>
			<polygon class="st4" points="199,244.3 193,244.3 193,228.3 199,228.3 			"/>
		</g>
	</g>
	<g>
		<g>
			<polygon class="st4" points="169,274.3 163,274.3 163,258.3 169,258.3 			"/>
		</g>
		<g>
			<polygon class="st4" points="229,274.3 223,274.3 223,258.3 229,258.3 			"/>
		</g>
		<g>
			<polygon class="st4" points="259,274.3 253,274.3 253,258.3 259,258.3 			"/>
		</g>
		<g>
			<polygon class="st4" points="289,274.3 283,274.3 283,258.3 289,258.3 			"/>
		</g>
		<g>
			<polygon class="st4" points="199,274.3 193,274.3 193,258.3 199,258.3 			"/>
		</g>
	</g>
</g>
<g>
	<polygon class="st4" points="236,326.1 216,326.1 216,306.1 236,306.1 	"/>
	<path class="st7" d="M235.5,316c0,5.3-4.2,9.5-9.5,9.5s-9.5-4.2-9.5-9.5c0-5.3,4.2-9.5,9.5-9.5S235.5,310.9,235.5,316z"/>
</g>
<g>
	<g class="st1">
		<path class="st8" d="M212.6,100.3v5.3c0,0.4,0,0.7-0.2,1.1c-0.2,0.4-0.4,0.5-0.5,0.9s-0.5,0.4-0.7,0.5c-0.4,0.2-0.7,0.2-1.1,0.2
			c-0.4,0-0.7,0-1.1-0.2c-0.4-0.2-0.5-0.4-0.7-0.5c-0.2-0.2-0.4-0.5-0.5-0.9s-0.2-0.7-0.2-1.1v-5.3h0.9v5.3c0,0.2,0,0.4,0.2,0.7
			c0,0.2,0.2,0.4,0.4,0.5s0.4,0.4,0.5,0.4c0.2,0.2,0.4,0.2,0.7,0.2c0.4,0,0.5,0,0.7-0.2c0.2-0.2,0.4-0.2,0.5-0.4
			c0.2-0.2,0.2-0.4,0.4-0.5c0.2-0.2,0.2-0.4,0.2-0.7v-5.3H212.6z"/>
		<path class="st8" d="M218.4,106.1c0-0.2,0-0.4-0.2-0.5c-0.2-0.2-0.2-0.4-0.4-0.4c-0.2-0.2-0.4-0.2-0.5-0.4
			c-0.2-0.2-0.4-0.2-0.5-0.2c-0.4,0-0.5-0.2-0.9-0.4c-0.4-0.2-0.5-0.4-0.7-0.5c-0.2-0.2-0.4-0.4-0.5-0.7c-0.2-0.2-0.2-0.5-0.2-0.9
			s0-0.5,0.2-0.9c0.2-0.2,0.4-0.5,0.5-0.7c0.2-0.2,0.5-0.4,0.7-0.4c0.2,0,0.5-0.2,0.9-0.2c0.4,0,0.7,0,0.9,0.2
			c0.4,0.2,0.5,0.2,0.9,0.5c0.4,0.4,0.4,0.4,0.5,0.7s0.2,0.5,0.2,0.9h-1.1c0-0.2,0-0.4-0.2-0.5c-0.2-0.2-0.2-0.4-0.4-0.5
			c-0.2-0.2-0.4-0.2-0.5-0.4c-0.2,0-0.4-0.2-0.5-0.2c-0.2,0-0.4,0-0.5,0s-0.4,0.2-0.5,0.2c-0.2,0.2-0.2,0.2-0.4,0.4
			c-0.2,0.2-0.2,0.4-0.2,0.5c0,0.2,0,0.4,0.2,0.5c0.2,0.2,0.2,0.4,0.4,0.4c0.2,0.2,0.4,0.2,0.5,0.2s0.4,0.2,0.5,0.2
			c0.2,0,0.4,0.2,0.5,0.2c0.2,0,0.4,0.2,0.5,0.2s0.4,0.2,0.5,0.4c0.2,0.2,0.4,0.2,0.4,0.4c0.2,0.2,0.2,0.4,0.4,0.5
			c0,0.2,0.2,0.4,0.2,0.5c0,0.4,0,0.7-0.2,0.9c-0.2,0.2-0.4,0.5-0.5,0.7c-0.2,0.2-0.5,0.4-0.9,0.4c-0.4,0-0.5,0.2-0.9,0.2
			c-0.4,0-0.7,0-1.1-0.2c-0.4-0.2-0.5-0.2-0.9-0.5c-0.2-0.2-0.5-0.4-0.7-0.7c-0.2-0.4-0.2-0.5-0.2-0.9h1.1c0,0.2,0.2,0.4,0.2,0.7
			c0.2,0.2,0.2,0.4,0.4,0.5c0.2,0.2,0.4,0.2,0.5,0.4c0.2,0.2,0.4,0.2,0.7,0.2c0.2,0,0.4,0,0.5,0c0.2,0,0.4-0.2,0.5-0.2
			c0.2-0.2,0.2-0.2,0.4-0.4C218.4,106.5,218.4,106.3,218.4,106.1z"/>
		<path class="st8" d="M220.7,108.1v-7.8h2.4c0.4,0,0.5,0,0.9,0.2c0.4,0,0.5,0.2,0.7,0.4c0.2,0.2,0.4,0.4,0.5,0.7
			c0.2,0.4,0.2,0.5,0.2,0.9c0,0.2,0,0.4-0.2,0.5c-0.2,0.2-0.2,0.4-0.2,0.4c-0.2,0.2-0.2,0.2-0.4,0.4c-0.2,0.2-0.4,0.2-0.5,0.2
			c0.2,0,0.4,0.2,0.5,0.2c0.2,0.2,0.4,0.2,0.4,0.4s0.2,0.4,0.4,0.5c0,0.2,0.2,0.4,0.2,0.7s0,0.7-0.2,0.9s-0.4,0.5-0.5,0.7
			s-0.5,0.4-0.9,0.4c-0.4,0.2-0.5,0.2-0.9,0.2h-2.4V108.1z M221.8,103.6h1.4c0.2,0,0.4,0,0.5,0c0.2,0,0.4-0.2,0.5-0.2
			c0.2-0.2,0.2-0.2,0.4-0.4c0.2-0.2,0.2-0.4,0.2-0.5c0-0.2,0-0.4-0.2-0.5c0-0.2-0.2-0.4-0.4-0.4s-0.4-0.2-0.5-0.2
			c-0.2,0-0.4,0-0.5,0H222v2.2H221.8z M221.8,104.5v2.7h1.4c0.2,0,0.4,0,0.5-0.2c0.2,0,0.4-0.2,0.5-0.4c0.2-0.2,0.2-0.2,0.4-0.4
			c0-0.2,0.2-0.4,0.2-0.5c0-0.2,0-0.4-0.2-0.5c-0.2-0.2-0.2-0.4-0.4-0.4s-0.4-0.2-0.5-0.4c-0.2-0.2-0.4-0.2-0.5-0.2h-1.4V104.5z"/>
	</g>
	<g>
		<path d="M50.6,226.3c0,0.5,0,0.9-0.2,1.3c-0.2,0.4-0.4,0.7-0.5,0.9c-0.2,0.2-0.5,0.5-0.7,0.5s-0.7,0.2-1.1,0.2
			c-0.4,0-0.7,0-1.1-0.2s-0.5-0.4-0.7-0.5c-0.2-0.2-0.4-0.5-0.5-0.9c-0.2-0.4-0.2-0.9-0.2-1.3v-1.8c0-0.5,0-0.9,0.2-1.3
			c0.2-0.4,0.4-0.7,0.5-0.9c0.2-0.2,0.5-0.5,0.7-0.5c0.4-0.2,0.7-0.2,1.1-0.2c0.4,0,0.7,0,1.1,0.2c0.4,0.2,0.5,0.4,0.7,0.5
			s0.4,0.5,0.5,0.9c0.2,0.4,0.2,0.9,0.2,1.3V226.3z M46.6,226.1l3.1-2.4c0-0.5-0.2-0.9-0.4-1.1c-0.2-0.2-0.5-0.4-1.1-0.4
			c-0.5,0-0.9,0.2-1.1,0.5c-0.2,0.4-0.4,0.9-0.4,1.4v1.8H46.6z M49.5,224.6l-3.1,2.4c0,0.5,0.2,0.9,0.5,1.1c0.4,0.2,0.5,0.4,1.1,0.4
			c0.5,0,0.9-0.2,1.1-0.5c0.2-0.4,0.4-0.9,0.4-1.4V224.6z"/>
	</g>
	<g>
		<path d="M131.2,75.2h-4v-0.7h4V75.2z"/>
	</g>
	<g>
		<path d="M324.9,74.1h2.2V75h-2.2v2.4H324V75h-2.2v-0.9h2.2v-2.2h0.9V74.1z"/>
	</g>
	<g>
		<path d="M403,224.8h0.7c0.2,0,0.5,0,0.7-0.2c0.2-0.2,0.4-0.2,0.5-0.4c0.2-0.2,0.2-0.2,0.4-0.4c0.2-0.2,0.2-0.4,0.2-0.5
			c0-0.4-0.2-0.7-0.4-1.1c-0.2-0.2-0.5-0.4-1.1-0.4c-0.2,0-0.4,0-0.5,0.2c-0.2,0-0.4,0.2-0.4,0.2c-0.2,0.2-0.2,0.2-0.4,0.4
			c-0.2,0.2-0.2,0.4-0.2,0.5h-0.9c0-0.4,0-0.5,0.2-0.9c0.2-0.2,0.4-0.5,0.5-0.7c0.2-0.2,0.5-0.4,0.7-0.5c0.4-0.2,0.5-0.2,0.9-0.2
			s0.7,0,0.9,0.2c0.2,0.2,0.5,0.2,0.7,0.4c0.2,0.2,0.4,0.4,0.5,0.7c0.2,0.4,0.2,0.5,0.2,0.9c0,0.2,0,0.4,0,0.5
			c0,0.2-0.2,0.4-0.2,0.5s-0.2,0.4-0.4,0.4c-0.2,0.2-0.4,0.2-0.5,0.4c0.2,0,0.5,0.2,0.5,0.4s0.4,0.4,0.4,0.4
			c0.2,0.2,0.2,0.4,0.2,0.5s0,0.4,0,0.5c0,0.4,0,0.7-0.2,0.9c-0.2,0.2-0.4,0.5-0.5,0.7c-0.2,0.2-0.5,0.4-0.7,0.4
			c-0.4,0.2-0.5,0.2-0.9,0.2s-0.7,0-0.9-0.2s-0.5-0.2-0.7-0.4c-0.2-0.2-0.4-0.4-0.5-0.7c-0.2-0.2-0.2-0.5-0.2-0.9h0.9
			c0,0.2,0,0.4,0.2,0.5c0,0.2,0.2,0.4,0.4,0.4c0.2,0,0.4,0.2,0.5,0.2s0.4,0.2,0.5,0.2c0.2,0,0.4,0,0.5,0c0.2,0,0.4-0.2,0.5-0.2
			c0.2,0,0.2-0.2,0.4-0.4c0-0.2,0.2-0.4,0.2-0.5s0-0.4-0.2-0.5c0-0.2-0.2-0.4-0.4-0.4c-0.2-0.2-0.4-0.2-0.5-0.2c-0.2,0-0.4,0-0.7,0
			h-0.7v-0.9H403z"/>
	</g>
	<g>
		<path d="M131.1,380.1h-0.9v-6.5l-2,0.7v-0.9l2.9-1.1l0,0V380.1z"/>
	</g>
	<g>
		<path d="M326.4,379h-5.1v-0.7l2.5-2.9c0.2-0.2,0.4-0.5,0.5-0.7c0.2-0.2,0.4-0.4,0.4-0.5c0.2-0.2,0.2-0.4,0.2-0.5
			c0-0.2,0-0.4,0-0.4c0-0.2,0-0.4-0.2-0.5c0-0.2-0.2-0.4-0.4-0.4s-0.2-0.2-0.4-0.4c-0.2,0-0.4-0.2-0.5-0.2c-0.2,0-0.5,0-0.7,0.2
			c-0.2,0-0.4,0.2-0.5,0.4c-0.2,0.2-0.2,0.4-0.4,0.5c0,0.2-0.2,0.4-0.2,0.7h-0.9c0-0.4,0-0.5,0.2-0.9c0.2-0.4,0.4-0.5,0.5-0.7
			s0.5-0.4,0.7-0.5c0.2-0.2,0.7-0.2,1.1-0.2c0.4,0,0.7,0,0.9,0.2c0.4,0.2,0.5,0.2,0.7,0.4c0.2,0.2,0.4,0.4,0.5,0.7
			c0.2,0.4,0.2,0.5,0.2,0.9c0,0.2,0,0.5-0.2,0.7c-0.2,0.2-0.2,0.4-0.4,0.7c-0.2,0.2-0.4,0.4-0.5,0.7c-0.2,0.2-0.4,0.4-0.5,0.7
			l-2,2.2h3.8v0.5H326.4z"/>
	</g>
	<g class="st1">
		<path class="st8" d="M230.2,256v-7.8h2.4c0.4,0,0.5,0,0.9,0.2c0.4,0,0.5,0.2,0.7,0.4c0.2,0.2,0.4,0.4,0.5,0.7
			c0.2,0.4,0.2,0.5,0.2,0.9c0,0.2,0,0.4-0.2,0.5s-0.2,0.4-0.2,0.4c-0.2,0.2-0.2,0.2-0.4,0.4s-0.4,0.2-0.5,0.2c0.2,0,0.4,0.2,0.5,0.2
			c0.2,0.2,0.4,0.2,0.4,0.4c0,0.2,0.2,0.4,0.4,0.5c0,0.2,0.2,0.4,0.2,0.7c0,0.4,0,0.7-0.2,0.9s-0.4,0.5-0.5,0.7
			c-0.2,0.2-0.5,0.4-0.9,0.4c-0.4,0.2-0.5,0.2-0.9,0.2h-2.4V256z M231.1,251.6h1.4c0.2,0,0.4,0,0.5,0c0.2,0,0.4-0.2,0.5-0.2
			c0.2-0.2,0.2-0.2,0.4-0.4c0.2-0.2,0.2-0.4,0.2-0.5c0-0.2,0-0.4-0.2-0.5c0-0.2-0.2-0.4-0.4-0.4s-0.4-0.2-0.5-0.2
			c-0.2,0-0.4,0-0.5,0h-1.3v2.2H231.1z M231.1,252.4v2.7h1.4c0.2,0,0.4,0,0.5-0.2c0.2,0,0.4-0.2,0.5-0.4s0.2-0.2,0.4-0.4
			c0-0.2,0.2-0.4,0.2-0.5c0-0.2,0-0.4-0.2-0.5c-0.2-0.2-0.2-0.4-0.4-0.4s-0.4-0.2-0.5-0.4c-0.2-0.2-0.4-0.2-0.5-0.2h-1.4V252.4z"/>
		<path class="st8" d="M240.3,254h-2.5l-0.5,2h-0.9l2.5-7.8h0.9l2.5,7.8h-0.9L240.3,254z M238.1,253.1h2l-1.1-3.4L238.1,253.1z"/>
		<path class="st8" d="M248.5,249.1h-2.4v6.9h-0.9v-6.9h-2.4v-0.9h5.8v0.9H248.5z"/>
		<path class="st8" d="M255,249.1h-2.4v6.9h-0.9v-6.9h-2.4v-0.9h5.8v0.9H255z"/>
		<path class="st8" d="M260.6,252.4h-3.3v2.7h3.8v0.9h-4.7v-7.8h4.7v0.9h-3.8v2.5h3.3V252.4z"/>
		<path class="st8" d="M265.3,252.9h-1.4v3.1H263v-7.8h2.4c0.4,0,0.7,0,1.1,0.2c0.4,0.2,0.5,0.2,0.9,0.4c0.2,0.2,0.4,0.4,0.5,0.7
			c0.2,0.4,0.2,0.5,0.2,1.1c0,0.2,0,0.5-0.2,0.7c-0.2,0.2-0.2,0.4-0.4,0.5s-0.4,0.4-0.5,0.4c-0.2,0-0.4,0.2-0.5,0.4l1.6,3.3l0,0
			h-1.1L265.3,252.9z M263.9,252h1.3c0.2,0,0.4,0,0.5-0.2s0.4-0.2,0.5-0.4c0.2-0.2,0.2-0.4,0.4-0.5c0-0.2,0.2-0.4,0.2-0.5
			s0-0.5-0.2-0.7c0-0.2-0.2-0.4-0.4-0.5c-0.2-0.2-0.4-0.2-0.5-0.4c-0.2-0.2-0.4-0.2-0.7-0.2h-1.1V252z"/>
		<path class="st8" d="M269.3,248.2h4.7v0.9h-1.8v6h1.8v0.9h-4.7v-0.9h1.8v-6h-1.8V248.2z"/>
		<path class="st8" d="M280.2,252.4h-3.3v2.7h3.8v0.9H276v-7.8h4.7v0.9h-3.8v2.5h3.3V252.4z"/>
	</g>
	<g class="st1">
		<path class="st8" d="M231.3,242.8h3.8v0.9h-4.7v-7.8h0.9V242.8z"/>
		<path class="st8" d="M240.3,241.7h-2.5l-0.5,2h-0.9l2.5-7.8h0.9l2.5,7.8h-0.9L240.3,241.7z M238.1,240.8h2l-1.1-3.4L238.1,240.8z"
			/>
		<path class="st8" d="M248.1,235.9v5.3c0,0.4,0,0.7-0.2,1.1c-0.2,0.4-0.4,0.5-0.5,0.9c-0.2,0.4-0.5,0.4-0.7,0.5
			c-0.4,0.2-0.7,0.2-1.1,0.2c-0.4,0-0.7,0-1.1-0.2c-0.4-0.2-0.5-0.4-0.7-0.5c-0.2-0.2-0.4-0.5-0.5-0.9c-0.2-0.4-0.2-0.7-0.2-1.1
			v-5.3h0.9v5.3c0,0.2,0,0.4,0.2,0.7c0,0.2,0.2,0.4,0.4,0.5c0.2,0.2,0.4,0.4,0.5,0.4c0.2,0.2,0.4,0.2,0.7,0.2c0.4,0,0.5,0,0.7-0.2
			c0.2-0.2,0.4-0.2,0.5-0.4c0.2-0.2,0.2-0.4,0.4-0.5c0.2-0.2,0.2-0.4,0.2-0.7v-5.3H248.1z"/>
		<path class="st8" d="M255,236.8h-2.4v6.9h-0.9v-6.9h-2.4v-0.9h5.8v0.9H255z"/>
		<path class="st8" d="M260.2,241.7c0-0.2,0-0.4-0.2-0.5c-0.2-0.2-0.2-0.4-0.4-0.4c-0.2-0.2-0.4-0.2-0.5-0.4
			c-0.2-0.2-0.4-0.2-0.5-0.2c-0.4,0-0.5-0.2-0.9-0.4c-0.4-0.2-0.5-0.4-0.7-0.5s-0.4-0.4-0.5-0.7c-0.2-0.2-0.2-0.5-0.2-0.9
			c0-0.4,0-0.5,0.2-0.9c0.2-0.2,0.4-0.5,0.5-0.7s0.5-0.4,0.7-0.4c0.2,0,0.5-0.2,0.9-0.2c0.4,0,0.7,0,0.9,0.2
			c0.4,0.2,0.5,0.2,0.9,0.5c0.4,0.4,0.4,0.4,0.5,0.7c0.2,0.4,0.2,0.5,0.2,0.9h-0.9c0-0.2,0-0.4-0.2-0.5c-0.2-0.2-0.2-0.4-0.4-0.5
			c-0.2-0.2-0.4-0.2-0.5-0.4c-0.2,0-0.4-0.2-0.5-0.2c-0.2,0-0.4,0-0.5,0c-0.2,0-0.4,0.2-0.5,0.2c-0.2,0.2-0.2,0.2-0.4,0.4
			c-0.2,0.2-0.2,0.4-0.2,0.5s0,0.4,0.2,0.5c0.2,0.2,0.2,0.4,0.4,0.4c0.2,0.2,0.4,0.2,0.5,0.2c0.2,0,0.4,0.2,0.5,0.2
			c0.2,0,0.4,0.2,0.5,0.2c0.2,0,0.4,0.2,0.5,0.2c0.2,0,0.4,0.2,0.5,0.4c0.2,0.2,0.4,0.2,0.4,0.4c0.2,0.2,0.2,0.4,0.4,0.5
			c0,0.2,0.2,0.4,0.2,0.5c0,0.4,0,0.7-0.2,0.9c-0.2,0.2-0.4,0.5-0.5,0.7c-0.2,0.2-0.5,0.4-0.9,0.4c-0.4,0-0.5,0.2-0.9,0.2
			c-0.4,0-0.7,0-1.1-0.2s-0.5-0.2-0.9-0.5c-0.2-0.2-0.5-0.4-0.7-0.7c-0.2-0.4-0.2-0.5-0.2-0.9h1.1c0,0.2,0.2,0.4,0.2,0.7
			c0.2,0.2,0.2,0.4,0.4,0.5c0.2,0.2,0.4,0.2,0.5,0.4c0.2,0.2,0.4,0.2,0.7,0.2c0.2,0,0.4,0,0.5,0c0.2,0,0.4-0.2,0.5-0.2
			c0.2-0.2,0.2-0.2,0.4-0.4C260.2,242,260.2,241.9,260.2,241.7z"/>
		<path class="st8" d="M263.9,240.6v3.1H263v-7.8h2.5c0.4,0,0.7,0,0.9,0.2c0.4,0.2,0.5,0.2,0.7,0.4c0.2,0.2,0.4,0.4,0.5,0.7
			c0.2,0.4,0.2,0.5,0.2,0.9s0,0.7-0.2,0.9c-0.2,0.4-0.4,0.5-0.5,0.7c-0.2,0.2-0.5,0.4-0.7,0.4c-0.4,0.2-0.7,0.2-0.9,0.2h-1.6V240.6z
			 M263.9,239.7h1.4c0.2,0,0.4,0,0.5-0.2c0.2,0,0.4-0.2,0.5-0.4c0.2-0.2,0.2-0.4,0.4-0.5c0-0.2,0.2-0.4,0.2-0.5s0-0.4-0.2-0.5
			c0-0.2-0.2-0.4-0.4-0.5c-0.2-0.2-0.4-0.2-0.5-0.4c-0.2-0.2-0.4-0.2-0.5-0.2h-1.4V239.7z"/>
		<path class="st8" d="M271.8,240.4h-1.6v3.1h-0.9v-7.8h2.4c0.4,0,0.7,0,1.1,0.2c0.4,0.2,0.5,0.2,0.9,0.4c0.2,0.2,0.4,0.4,0.5,0.7
			c0.2,0.4,0.2,0.5,0.2,1.1c0,0.2,0,0.5-0.2,0.7c-0.2,0.2-0.2,0.4-0.4,0.5s-0.4,0.4-0.5,0.4c-0.2,0-0.4,0.2-0.5,0.4l1.6,3.3l0,0
			h-1.1L271.8,240.4z M270.4,239.7h1.3c0.2,0,0.4,0,0.5-0.2c0.2-0.2,0.4-0.2,0.5-0.4c0.2-0.2,0.2-0.4,0.4-0.5c0-0.2,0.2-0.4,0.2-0.5
			s0-0.5-0.2-0.7c0-0.2-0.2-0.4-0.4-0.5c-0.2-0.2-0.4-0.2-0.5-0.4c-0.2-0.2-0.4-0.2-0.7-0.2h-1.3v3.4H270.4z"/>
		<path class="st8" d="M280.2,240h-3.3v2.7h3.8v0.9H276v-7.8h4.7v0.9h-3.8v2.5h3.3V240z"/>
		<path class="st8" d="M287.4,241.3c0,0.4-0.2,0.7-0.4,0.9c-0.2,0.4-0.4,0.5-0.5,0.7c-0.2,0.2-0.5,0.4-0.7,0.5
			c-0.4,0.2-0.7,0.2-1.1,0.2s-0.5,0-0.9-0.2c-0.2-0.2-0.5-0.2-0.7-0.4c-0.2-0.2-0.4-0.4-0.5-0.5c-0.2-0.2-0.2-0.4-0.4-0.7
			c-0.2-0.2-0.2-0.5-0.2-0.7c0-0.4,0-0.5,0-0.9v-1.1c0-0.4,0-0.5,0-0.9c0-0.4,0.2-0.5,0.2-0.7c0.2-0.2,0.2-0.5,0.4-0.7
			c0.2-0.2,0.4-0.4,0.5-0.5c0.2-0.2,0.4-0.4,0.7-0.4c0.2,0,0.5-0.2,0.9-0.2c0.4,0,0.7,0,1.1,0.2s0.5,0.4,0.7,0.5
			c0.2,0.2,0.4,0.5,0.5,0.7c0.2,0.4,0.2,0.7,0.2,1.1h-0.9c0-0.2,0-0.4-0.2-0.7c-0.2-0.4-0.2-0.4-0.4-0.5c-0.2-0.2-0.4-0.2-0.5-0.4
			c-0.2,0-0.4-0.2-0.7-0.2c-0.2,0-0.4,0-0.5,0.2c-0.2,0-0.4,0.2-0.5,0.4c-0.2,0.2-0.2,0.4-0.4,0.5c0,0.2-0.2,0.4-0.2,0.5
			c0,0.2-0.2,0.4-0.2,0.5s0,0.4,0,0.5v1.1c0,0.2,0,0.4,0,0.5s0,0.4,0.2,0.5c0,0.2,0.2,0.4,0.2,0.5c0,0.2,0.2,0.4,0.4,0.5
			c0.2,0.2,0.4,0.2,0.5,0.4c0.2,0.2,0.4,0.2,0.5,0.2s0.5,0,0.7-0.2c0.2-0.2,0.4-0.2,0.5-0.4c0.2-0.2,0.2-0.4,0.4-0.5
			c0.2-0.2,0.2-0.4,0.2-0.7h1.1V241.3z"/>
		<path class="st8" d="M293.8,243.7h-0.9V240h-3.1v3.6h-0.9v-7.8h0.9v3.3h3.1v-3.3h0.9V243.7z"/>
		<path class="st8" d="M299.7,240h-3.3v2.7h3.8v0.9h-4.7v-7.8h4.7v0.9h-3.8v2.5h3.3V240z"/>
		<path class="st8" d="M304.5,240.4h-1.6v3.1h-0.9v-7.8h2.4c0.4,0,0.7,0,1.1,0.2s0.5,0.2,0.9,0.4c0.2,0.2,0.4,0.4,0.5,0.7
			c0.2,0.4,0.2,0.5,0.2,1.1c0,0.2,0,0.5-0.2,0.7c-0.2,0.2-0.2,0.4-0.4,0.5s-0.4,0.4-0.5,0.4s-0.4,0.2-0.5,0.4l1.6,3.3l0,0h-1.1
			L304.5,240.4z M303,239.7h1.3c0.2,0,0.4,0,0.5-0.2c0.2-0.2,0.4-0.2,0.5-0.4c0.2-0.2,0.2-0.4,0.4-0.5c0-0.2,0.2-0.4,0.2-0.5
			s0-0.5-0.2-0.7c0-0.2-0.2-0.4-0.4-0.5s-0.4-0.2-0.5-0.4c-0.2-0.2-0.4-0.2-0.7-0.2h-1.3v3.4H303z"/>
	</g>
	<g class="st1">
		<path class="st8" d="M64.7,252.9v3.1h-0.9v-7.8h2.5c0.4,0,0.7,0,0.9,0.2c0.4,0.2,0.5,0.2,0.7,0.4c0.2,0.2,0.4,0.4,0.5,0.7
			c0.2,0.4,0.2,0.5,0.2,0.9c0,0.4,0,0.7-0.2,0.9c-0.2,0.4-0.4,0.5-0.5,0.7c-0.2,0.2-0.5,0.4-0.7,0.4c-0.4,0.2-0.7,0.2-0.9,0.2h-1.6
			V252.9z M64.7,252.2h1.4c0.2,0,0.4,0,0.5-0.2c0.2,0,0.4-0.2,0.5-0.4c0.2-0.2,0.2-0.4,0.4-0.5c0-0.2,0.2-0.4,0.2-0.5
			c0-0.2,0-0.4-0.2-0.5c0-0.2-0.2-0.4-0.4-0.5c-0.2-0.2-0.4-0.2-0.5-0.4c-0.2-0.2-0.4-0.2-0.5-0.2h-1.4V252.2z"/>
		<path class="st8" d="M72.7,252.9h-1.6v3.1h-0.9v-7.8h2.4c0.4,0,0.7,0,1.1,0.2s0.5,0.2,0.9,0.4c0.2,0.2,0.4,0.4,0.5,0.7
			c0.2,0.4,0.2,0.5,0.2,1.1c0,0.2,0,0.5-0.2,0.7c-0.2,0.2-0.2,0.4-0.4,0.5c-0.2,0.2-0.4,0.4-0.5,0.4c-0.2,0-0.4,0.2-0.5,0.4l1.6,3.3
			l0,0h-1.1L72.7,252.9z M71.3,252h1.3c0.2,0,0.4,0,0.5-0.2c0.2-0.2,0.4-0.2,0.5-0.4c0.2-0.2,0.2-0.4,0.4-0.5c0-0.2,0.2-0.4,0.2-0.5
			s0-0.5-0.2-0.7c0-0.2-0.2-0.4-0.4-0.5c-0.2-0.2-0.4-0.2-0.5-0.4c-0.2-0.2-0.4-0.2-0.7-0.2h-1.3v3.4H71.3z"/>
		<path class="st8" d="M81.8,252.5c0,0.4,0,0.5,0,0.9c0,0.4-0.2,0.5-0.2,0.9c0,0.4-0.2,0.5-0.4,0.7c-0.2,0.2-0.4,0.4-0.5,0.5
			c-0.2,0.2-0.4,0.4-0.7,0.4c-0.2,0.2-0.5,0.2-0.9,0.2s-0.5,0-0.9-0.2c-0.2-0.2-0.5-0.2-0.7-0.4c-0.2-0.2-0.4-0.4-0.5-0.5
			c-0.2-0.2-0.2-0.5-0.4-0.7c-0.2-0.2-0.2-0.5-0.2-0.7c0-0.2,0-0.5,0-0.9v-0.9c0-0.4,0-0.5,0-0.9c0-0.4,0.2-0.5,0.2-0.9
			c0.2-0.2,0.2-0.5,0.4-0.7c0.2-0.2,0.4-0.4,0.5-0.5c0.2-0.2,0.4-0.4,0.7-0.4c0.2-0.2,0.5-0.2,0.9-0.2s0.5,0,0.9,0.2
			c0.2,0.2,0.5,0.2,0.7,0.4c0.2,0.2,0.4,0.4,0.5,0.5c0.2,0.2,0.2,0.5,0.4,0.7c0.2,0.2,0.2,0.5,0.2,0.9c0,0.4,0,0.5,0,0.9V252.5z
			 M80.7,251.6c0-0.2,0-0.4,0-0.5s0-0.4-0.2-0.5c0-0.2-0.2-0.4-0.2-0.5s-0.2-0.4-0.4-0.5c-0.2-0.2-0.4-0.2-0.4-0.4
			c-0.2,0-0.4-0.2-0.5-0.2c-0.2,0-0.4,0-0.5,0.2c-0.2,0.2-0.4,0.2-0.4,0.4c-0.2,0.2-0.2,0.4-0.4,0.5c-0.2,0.2-0.2,0.4-0.2,0.5
			c0,0.2,0,0.4-0.2,0.5c-0.2,0.2,0,0.4,0,0.5v0.9c0,0.2,0,0.4,0,0.5s0,0.4,0.2,0.5c0,0.2,0.2,0.4,0.2,0.5c0,0.2,0.2,0.4,0.4,0.5
			c0.2,0.2,0.4,0.2,0.4,0.4c0,0.2,0.4,0.2,0.5,0.2c0.2,0,0.4,0,0.5-0.2c0.2,0,0.4-0.2,0.4-0.4c0.2-0.2,0.2-0.4,0.4-0.5
			c0-0.2,0.2-0.4,0.2-0.5c0-0.2,0-0.4,0.2-0.5c0.2-0.2,0-0.4,0-0.5V251.6z"/>
		<path class="st8" d="M83.9,255.1h4.2v0.9H83v-0.7l3.8-6.2H83v-0.9h4.9v0.7L83.9,255.1z"/>
		<path class="st8" d="M93.9,252.4h-3.3v2.7h3.8v0.9h-4.7v-7.8h4.7v0.9h-3.8v2.5h3.3V252.4z"/>
		<path class="st8" d="M100.3,254c0-0.2,0-0.4-0.2-0.5c-0.2-0.2-0.2-0.4-0.4-0.4c-0.2-0.2-0.4-0.2-0.5-0.4c-0.2-0.2-0.4-0.2-0.5-0.2
			c-0.4,0-0.5-0.2-0.9-0.4c-0.4-0.2-0.5-0.4-0.7-0.5c-0.2-0.2-0.4-0.4-0.5-0.7c-0.2-0.2-0.2-0.5-0.2-0.9c0-0.4,0-0.5,0.2-0.9
			c0.2-0.2,0.4-0.5,0.5-0.7c0.2-0.2,0.5-0.4,0.7-0.4c0.2,0,0.5-0.2,0.9-0.2s0.7,0,0.9,0.2c0.4,0.2,0.5,0.2,0.9,0.5
			c0.4,0.4,0.4,0.4,0.5,0.7c0.2,0.4,0.2,0.5,0.2,0.9h-1.1c0-0.2,0-0.4-0.2-0.5c-0.2-0.2-0.2-0.4-0.4-0.5c-0.2-0.2-0.4-0.2-0.5-0.4
			c-0.2,0-0.4-0.2-0.5-0.2c-0.2,0-0.4,0-0.5,0c-0.2,0-0.4,0.2-0.5,0.2c-0.2,0.2-0.2,0.2-0.4,0.4c-0.2,0.2-0.2,0.4-0.2,0.5
			s0,0.4,0.2,0.5c0.2,0.2,0.2,0.4,0.4,0.4c0.2,0.2,0.4,0.2,0.5,0.2c0.2,0,0.4,0.2,0.5,0.2c0.2,0,0.4,0.2,0.5,0.2
			c0.2,0,0.4,0.2,0.5,0.2c0.2,0,0.4,0.2,0.5,0.4c0.2,0.2,0.4,0.2,0.4,0.4c0.2,0.2,0.2,0.4,0.4,0.5c0,0.2,0.2,0.4,0.2,0.5
			c0,0.4,0,0.7-0.2,0.9c-0.2,0.2-0.4,0.5-0.5,0.7c-0.2,0.2-0.5,0.4-0.9,0.4s-0.5,0.2-0.9,0.2s-0.7,0-1.1-0.2
			c-0.4-0.2-0.5-0.2-0.9-0.5c-0.2-0.2-0.5-0.4-0.7-0.7c-0.2-0.4-0.2-0.5-0.2-0.9h1.1c0,0.2,0.2,0.4,0.2,0.7c0.2,0.2,0.2,0.4,0.4,0.5
			c0.2,0.2,0.4,0.2,0.5,0.4c0.2,0.2,0.4,0.2,0.7,0.2c0.2,0,0.4,0,0.5,0c0.2,0,0.4-0.2,0.5-0.2c0.2-0.2,0.2-0.2,0.4-0.4
			C100.3,254.4,100.3,254.2,100.3,254z"/>
		<path class="st8" d="M106.8,254c0-0.2,0-0.4-0.2-0.5c-0.2-0.2-0.2-0.4-0.4-0.4c-0.2-0.2-0.4-0.2-0.5-0.4c-0.2-0.2-0.4-0.2-0.5-0.2
			c-0.4,0-0.5-0.2-0.9-0.4c-0.4-0.2-0.5-0.4-0.7-0.5c-0.2-0.2-0.4-0.4-0.5-0.7c-0.2-0.2-0.2-0.5-0.2-0.9c0-0.4,0-0.5,0.2-0.9
			c0.2-0.2,0.4-0.5,0.5-0.7c0.2-0.2,0.5-0.4,0.7-0.4c0.2,0,0.5-0.2,0.9-0.2s0.7,0,0.9,0.2c0.4,0.2,0.5,0.2,0.9,0.5
			c0.4,0.4,0.4,0.4,0.5,0.7c0.2,0.4,0.2,0.5,0.2,0.9h-1.1c0-0.2,0-0.4-0.2-0.5c-0.2-0.2-0.2-0.4-0.4-0.5c-0.2-0.2-0.4-0.2-0.5-0.4
			c-0.2,0-0.4-0.2-0.5-0.2c-0.2,0-0.4,0-0.5,0c-0.2,0-0.4,0.2-0.5,0.2c-0.2,0.2-0.2,0.2-0.4,0.4c-0.2,0.2-0.2,0.4-0.2,0.5
			s0,0.4,0.2,0.5c0.2,0.2,0.2,0.4,0.4,0.4c0.2,0.2,0.4,0.2,0.5,0.2c0.2,0,0.4,0.2,0.5,0.2c0.2,0,0.4,0.2,0.5,0.2
			c0.2,0,0.4,0.2,0.5,0.2c0.2,0,0.4,0.2,0.5,0.4c0.2,0.2,0.4,0.2,0.4,0.4c0.2,0.2,0.2,0.4,0.4,0.5c0,0.2,0.2,0.4,0.2,0.5
			c0,0.4,0,0.7-0.2,0.9c-0.2,0.2-0.4,0.5-0.5,0.7c-0.2,0.2-0.5,0.4-0.9,0.4s-0.5,0.2-0.9,0.2s-0.7,0-1.1-0.2
			c-0.4-0.2-0.5-0.2-0.9-0.5c-0.2-0.2-0.5-0.4-0.7-0.7c-0.2-0.4-0.2-0.5-0.2-0.9h1.1c0,0.2,0.2,0.4,0.2,0.7c0.2,0.2,0.2,0.4,0.4,0.5
			c0.2,0.2,0.4,0.2,0.5,0.4c0.2,0.2,0.4,0.2,0.7,0.2c0.2,0,0.4,0,0.5,0c0.2,0,0.4-0.2,0.5-0.2c0.2-0.2,0.2-0.2,0.4-0.4
			C106.8,254.4,106.8,254.2,106.8,254z"/>
		<path class="st8" d="M114.4,252.5c0,0.4,0,0.5,0,0.9c0,0.4-0.2,0.5-0.2,0.9c0,0.4-0.2,0.5-0.4,0.7c-0.2,0.2-0.4,0.4-0.5,0.5
			c-0.2,0.2-0.4,0.4-0.7,0.4c-0.2,0.2-0.5,0.2-0.9,0.2c-0.4,0-0.5,0-0.9-0.2c-0.2-0.2-0.5-0.2-0.7-0.4c-0.2-0.2-0.4-0.4-0.5-0.5
			c-0.2-0.2-0.2-0.5-0.4-0.7c-0.2-0.2-0.2-0.5-0.2-0.7c0-0.2,0-0.5,0-0.9v-0.9c0-0.4,0-0.5,0-0.9c0-0.4,0.2-0.5,0.2-0.9
			c0.2-0.2,0.2-0.5,0.4-0.7c0.2-0.2,0.4-0.4,0.5-0.5c0.2-0.2,0.4-0.4,0.7-0.4c0.2-0.2,0.5-0.2,0.9-0.2c0.4,0,0.5,0,0.9,0.2
			c0.2,0.2,0.5,0.2,0.7,0.4c0.2,0.2,0.4,0.4,0.5,0.5c0.2,0.2,0.2,0.5,0.4,0.7c0.2,0.2,0.2,0.5,0.2,0.9c0,0.4,0,0.5,0,0.9V252.5z
			 M113.3,251.6c0-0.2,0-0.4,0-0.5s0-0.4-0.2-0.5c0-0.2-0.2-0.4-0.2-0.5s-0.2-0.4-0.4-0.5c-0.2-0.2-0.4-0.2-0.4-0.4
			c-0.2,0-0.4-0.2-0.5-0.2c-0.2,0-0.4,0-0.5,0.2c-0.2,0.2-0.4,0.2-0.4,0.4c-0.2,0.2-0.2,0.4-0.4,0.5c-0.2,0.2-0.2,0.4-0.2,0.5
			c0,0.2,0,0.4-0.2,0.5c-0.2,0.2,0,0.4,0,0.5v0.9c0,0.2,0,0.4,0,0.5s0,0.4,0.2,0.5c0,0.2,0.2,0.4,0.2,0.5c0,0.2,0.2,0.4,0.4,0.5
			c0.2,0.2,0.4,0.2,0.4,0.4c0,0.2,0.4,0.2,0.5,0.2c0.2,0,0.4,0,0.5-0.2c0.2,0,0.4-0.2,0.4-0.4c0.2-0.2,0.2-0.4,0.4-0.5
			c0-0.2,0.2-0.4,0.2-0.5c0-0.2,0-0.4,0.2-0.5s0-0.4,0-0.5V251.6z"/>
		<path class="st8" d="M118.4,252.9h-1.6v3.1h-0.9v-7.8h2.4c0.4,0,0.7,0,1.1,0.2s0.5,0.2,0.9,0.4c0.2,0.2,0.4,0.4,0.5,0.7
			c0.2,0.4,0.2,0.5,0.2,1.1c0,0.2,0,0.5-0.2,0.7c-0.2,0.2-0.2,0.4-0.4,0.5c-0.2,0.2-0.4,0.4-0.5,0.4c-0.2,0-0.4,0.2-0.5,0.4l1.6,3.3
			l0,0h-1.1L118.4,252.9z M116.9,252h1.3c0.2,0,0.4,0,0.5-0.2c0.2-0.2,0.4-0.2,0.5-0.4c0.2-0.2,0.2-0.4,0.4-0.5
			c0-0.2,0.2-0.4,0.2-0.5s0-0.5-0.2-0.7c0-0.2-0.2-0.4-0.4-0.5c-0.2-0.2-0.4-0.2-0.5-0.4c-0.2-0.2-0.4-0.2-0.7-0.2h-1.3v3.4H116.9z"
			/>
	</g>
	<g class="st1">
		<path class="st8" d="M66.2,240.4h-1.6v3.1h-0.9v-7.8H66c0.4,0,0.7,0,1.1,0.2s0.5,0.2,0.9,0.4c0.2,0.2,0.4,0.4,0.5,0.7
			c0.2,0.4,0.2,0.5,0.2,1.1c0,0.2,0,0.5-0.2,0.7c-0.2,0.2-0.2,0.4-0.4,0.5c-0.2,0.2-0.4,0.4-0.5,0.4c-0.2,0-0.4,0.2-0.5,0.4l1.6,3.3
			l0,0h-1.1L66.2,240.4z M64.7,239.7H66c0.2,0,0.4,0,0.5-0.2c0.2-0.2,0.4-0.2,0.5-0.4c0.2-0.2,0.2-0.4,0.4-0.5
			c0-0.2,0.2-0.4,0.2-0.5s0-0.5-0.2-0.7c0-0.2-0.2-0.4-0.4-0.5c-0.2-0.2-0.4-0.2-0.5-0.4c-0.2-0.2-0.4-0.2-0.7-0.2h-1.3v3.4H64.7z"
			/>
		<path class="st8" d="M75.3,242.6c-0.4,0.4-0.7,0.7-1.1,0.9c-0.4,0.2-0.9,0.4-1.4,0.2c-0.4,0-0.5,0-0.9-0.2
			c-0.2-0.2-0.5-0.2-0.7-0.4c-0.2-0.2-0.4-0.4-0.5-0.5c-0.2-0.2-0.4-0.5-0.4-0.7c-0.2-0.2-0.2-0.5-0.2-0.9c0-0.4,0-0.5,0-0.9v-0.9
			c0-0.4,0-0.5,0-0.9c0-0.4,0.2-0.5,0.2-0.9c0-0.4,0.2-0.5,0.4-0.7c0.2-0.2,0.4-0.4,0.5-0.5c0.2-0.2,0.4-0.4,0.7-0.4
			s0.5-0.2,0.9-0.2s0.7,0,1.1,0.2c0.4,0.2,0.5,0.4,0.7,0.5c0.2,0.2,0.4,0.5,0.5,0.7c0.2,0.4,0.2,0.5,0.2,0.9h-0.9
			c0-0.2-0.2-0.4-0.2-0.5s-0.2-0.4-0.4-0.5c-0.2-0.2-0.4-0.2-0.5-0.4c-0.2,0-0.4-0.2-0.7-0.2c-0.2,0-0.4,0-0.5,0.2
			c-0.2,0-0.4,0.2-0.5,0.4c-0.2,0.2-0.2,0.4-0.4,0.5c0,0.2-0.2,0.4-0.2,0.5c0,0.2-0.2,0.4-0.2,0.5s0,0.4,0,0.5v0.9
			c0,0.2,0,0.4,0,0.5s0,0.4,0.2,0.5c0.2,0.2,0.2,0.4,0.2,0.5c0,0.2,0.2,0.4,0.4,0.5c0.2,0.2,0.4,0.2,0.5,0.4c0.2,0,0.4,0.2,0.5,0.2
			c0.2,0,0.4,0,0.4,0c0.2,0,0.4,0,0.4,0s0.2-0.2,0.4-0.2c0.2,0,0.2-0.2,0.4-0.4v-1.8h-1.6v-0.9h2.5L75.3,242.6z"/>
		<path class="st8" d="M76.7,243.7v-7.8h2.4c0.4,0,0.5,0,0.9,0.2c0.4,0,0.5,0.2,0.7,0.4c0.2,0.2,0.4,0.4,0.5,0.7
			c0.2,0.4,0.2,0.5,0.2,0.9c0,0.2,0,0.4-0.2,0.5C81,238.8,81,239,81,239c-0.2,0.2-0.2,0.2-0.4,0.4c-0.2,0.2-0.4,0.2-0.5,0.2
			c0.2,0,0.4,0.2,0.5,0.2c0.2,0.2,0.4,0.2,0.4,0.4c0,0.2,0.2,0.4,0.4,0.5c0,0.2,0.2,0.4,0.2,0.7c0,0.4,0,0.7-0.2,0.9
			c-0.2,0.2-0.4,0.5-0.5,0.7c-0.2,0.2-0.5,0.4-0.9,0.4c-0.4,0.2-0.5,0.2-0.9,0.2h-2.4V243.7z M77.6,239.1h1.4c0.2,0,0.4,0,0.5,0
			c0.2,0,0.4-0.2,0.5-0.2c0.2-0.2,0.2-0.2,0.4-0.4c0.2-0.2,0.2-0.4,0.2-0.5s0-0.4-0.2-0.5c0-0.2-0.2-0.4-0.4-0.4
			c-0.2,0-0.4-0.2-0.5-0.2c-0.2,0-0.4,0-0.5,0h-1.3v2.2H77.6z M77.6,240v2.7h1.4c0.2,0,0.4,0,0.5-0.2c0.2,0,0.4-0.2,0.5-0.4
			c0.2-0.2,0.2-0.2,0.4-0.4c0-0.2,0.2-0.4,0.2-0.5c0-0.2,0-0.4-0.2-0.5c-0.2-0.2-0.2-0.4-0.4-0.4c-0.2,0-0.4-0.2-0.5-0.4
			c-0.2-0.2-0.4-0.2-0.5-0.2h-1.4V240z"/>
		<path class="st8" d="M87.2,242.8H91v0.9h-4.7v-7.8h0.9V242.8z"/>
		<path class="st8" d="M96.8,240h-3.3v2.7h3.8v0.9h-4.7v-7.8h4.7v0.9h-3.8v2.5h3.3V240z"/>
		<path class="st8" d="M99,243.7v-7.8h1.8c0.5,0,1.1,0.2,1.4,0.4c0.4,0.2,0.7,0.4,1.1,0.7c0.4,0.4,0.5,0.7,0.7,1.1
			c0.2,0.4,0.2,0.9,0.2,1.4v0.5c0,0.5,0,1.1-0.2,1.4c-0.2,0.4-0.4,0.7-0.7,1.1c-0.4,0.4-0.7,0.5-1.1,0.7c-0.4,0.2-0.9,0.2-1.4,0.2
			H99V243.7z M100.1,236.6v6.2h0.7c0.4,0,0.7,0,1.1-0.2s0.5-0.4,0.7-0.5c0.2-0.2,0.4-0.5,0.4-0.9c0.2-0.4,0.2-0.7,0.2-1.1v-0.5
			c0-0.4,0-0.7-0.2-1.1c-0.2-0.4-0.2-0.5-0.4-0.9c-0.2-0.2-0.4-0.4-0.7-0.5s-0.7-0.2-1.1-0.2h-0.7V236.6z"/>
	</g>
	<g class="st1">
		<path class="st8" d="M173.1,338.6h3.8v0.9h-4.7v-7.8h0.9V338.6z"/>
		<path class="st8" d="M182.3,337.3h-2.5l-0.5,2h-0.9l2.5-7.8h0.9l2.5,7.8h-0.9L182.3,337.3z M180,336.6h2l-1.1-3.4L180,336.6z"/>
		<path class="st8" d="M190.1,338.4c-0.4,0.4-0.7,0.7-1.1,0.9c-0.4,0.2-0.9,0.4-1.4,0.2c-0.4,0-0.5,0-0.9-0.2
			c-0.2-0.2-0.5-0.2-0.7-0.4c-0.2-0.2-0.4-0.4-0.5-0.5s-0.4-0.5-0.4-0.7c-0.2-0.2-0.2-0.5-0.2-0.9c0-0.4,0-0.5,0-0.9V335
			c0-0.4,0-0.5,0-0.9s0.2-0.5,0.2-0.9s0.2-0.5,0.4-0.7c0.2-0.2,0.4-0.4,0.5-0.5c0.2-0.2,0.4-0.4,0.7-0.4c0.4,0,0.5-0.2,0.9-0.2
			c0.4,0,0.7,0,1.1,0.2c0.4,0.2,0.5,0.4,0.7,0.5c0.2,0.2,0.4,0.5,0.5,0.7c0.2,0.4,0.2,0.5,0.2,0.9h-0.9c0-0.2-0.2-0.4-0.2-0.5
			c0-0.2-0.2-0.4-0.4-0.5c-0.2-0.2-0.4-0.2-0.5-0.4c-0.2,0-0.4-0.2-0.7-0.2c-0.2,0-0.4,0-0.5,0.2c-0.2,0-0.4,0.2-0.5,0.4
			s-0.2,0.4-0.4,0.5c0,0.2-0.2,0.4-0.2,0.5c0,0.2-0.2,0.4-0.2,0.5c0,0.2,0,0.4,0,0.5v0.9c0,0.2,0,0.4,0,0.5c0,0.2,0,0.4,0.2,0.5
			c0.2,0.2,0.2,0.4,0.2,0.5c0,0.2,0.2,0.4,0.4,0.5s0.4,0.2,0.5,0.4c0.2,0,0.4,0.2,0.5,0.2c0.2,0,0.4,0,0.4,0c0.2,0,0.4,0,0.4,0
			s0.2-0.2,0.4-0.2c0.2,0,0.2-0.2,0.4-0.4v-1.8h-1.6v-0.9h2.5L190.1,338.4z"/>
		<path class="st8" d="M195.9,335.9h-3.3v2.7h3.8v0.9h-4.7v-7.8h4.7v0.9h-3.8v2.5h3.3V335.9z"/>
		<path class="st8" d="M202.1,337.5c0-0.2,0-0.4-0.2-0.5s-0.2-0.4-0.4-0.4c-0.2-0.2-0.4-0.2-0.5-0.4c-0.2-0.2-0.4-0.2-0.5-0.2
			c-0.4,0-0.5-0.2-0.9-0.4c-0.4-0.2-0.5-0.4-0.7-0.5c-0.2-0.2-0.4-0.4-0.5-0.7c-0.2-0.2-0.2-0.5-0.2-0.9s0-0.5,0.2-0.9
			c0.2-0.2,0.4-0.5,0.5-0.7c0.2-0.2,0.5-0.4,0.7-0.4c0.2,0,0.5-0.2,0.9-0.2s0.7,0,0.9,0.2c0.4,0.2,0.5,0.2,0.9,0.5
			c0.4,0.4,0.4,0.4,0.5,0.7c0.2,0.4,0.2,0.5,0.2,0.9h-1.1c0-0.2,0-0.4-0.2-0.5c-0.2-0.2-0.2-0.4-0.4-0.5c-0.2-0.2-0.4-0.2-0.5-0.4
			c-0.2,0-0.4-0.2-0.5-0.2s-0.4,0-0.5,0s-0.4,0.2-0.5,0.2c-0.2,0.2-0.2,0.2-0.4,0.4c-0.2,0.2-0.2,0.4-0.2,0.5c0,0.2,0,0.4,0.2,0.5
			c0.2,0.2,0.2,0.4,0.4,0.4c0.2,0.2,0.4,0.2,0.5,0.2s0.4,0.2,0.5,0.2s0.4,0.2,0.5,0.2c0.2,0,0.4,0.2,0.5,0.2s0.4,0.2,0.5,0.4
			c0.2,0.2,0.4,0.2,0.4,0.4c0.2,0.2,0.2,0.4,0.4,0.5c0,0.2,0.2,0.4,0.2,0.5c0,0.4,0,0.7-0.2,0.9c-0.2,0.2-0.4,0.5-0.5,0.7
			c-0.2,0.2-0.5,0.4-0.9,0.4c-0.4,0-0.5,0.2-0.9,0.2c-0.4,0-0.7,0-1.1-0.2c-0.4-0.2-0.5-0.2-0.9-0.5c-0.2-0.2-0.5-0.4-0.7-0.7
			c-0.2-0.4-0.2-0.5-0.2-0.9h1.1c0,0.2,0.2,0.4,0.2,0.7c0.2,0.2,0.2,0.4,0.4,0.5c0.2,0.2,0.4,0.2,0.5,0.4c0.2,0.2,0.4,0.2,0.7,0.2
			c0.2,0,0.4,0,0.5,0c0.2,0,0.4-0.2,0.5-0.2c0.2-0.2,0.2-0.2,0.4-0.4C202.1,337.9,202.1,337.7,202.1,337.5z"/>
		<path class="st8" d="M209,335.9h-3.3v2.7h3.8v0.9h-4.7v-7.8h4.7v0.9h-3.8v2.5h3.3V335.9z"/>
		<path class="st8" d="M216,339.5h-1.1l-3.1-5.8v5.8H211v-7.8h1.1l3.1,5.8v-5.8h0.9V339.5z"/>
		<path class="st8" d="M221.8,337.5c0-0.2,0-0.4-0.2-0.5c-0.2-0.2-0.2-0.4-0.4-0.4c-0.2-0.2-0.4-0.2-0.5-0.4
			c-0.2-0.2-0.4-0.2-0.5-0.2c-0.4,0-0.5-0.2-0.9-0.4c-0.4-0.2-0.5-0.4-0.7-0.5c-0.2-0.2-0.4-0.4-0.5-0.7c-0.2-0.2-0.2-0.5-0.2-0.9
			s0-0.5,0.2-0.9c0.2-0.2,0.4-0.5,0.5-0.7c0.2-0.2,0.5-0.4,0.7-0.4c0.2,0,0.5-0.2,0.9-0.2c0.4,0,0.7,0,0.9,0.2
			c0.4,0.2,0.5,0.2,0.9,0.5s0.4,0.4,0.5,0.7c0.2,0.4,0.2,0.5,0.2,0.9h-1.1c0-0.2,0-0.4-0.2-0.5c-0.2-0.2-0.2-0.4-0.4-0.5
			c-0.2-0.2-0.4-0.2-0.5-0.4c-0.2,0-0.4-0.2-0.5-0.2s-0.4,0-0.5,0c-0.2,0-0.4,0.2-0.5,0.2c-0.2,0.2-0.2,0.2-0.4,0.4
			c-0.2,0.2-0.2,0.4-0.2,0.5c0,0.2,0,0.4,0.2,0.5c0.2,0.2,0.2,0.4,0.4,0.4c0.2,0.2,0.4,0.2,0.5,0.2c0.2,0,0.4,0.2,0.5,0.2
			s0.4,0.2,0.5,0.2s0.4,0.2,0.5,0.2s0.4,0.2,0.5,0.4c0.2,0.2,0.4,0.2,0.4,0.4c0.2,0.2,0.2,0.4,0.4,0.5c0,0.2,0.2,0.4,0.2,0.5
			c0,0.4,0,0.7-0.2,0.9c-0.2,0.2-0.4,0.5-0.5,0.7c-0.2,0.2-0.5,0.4-0.9,0.4c-0.4,0-0.5,0.2-0.9,0.2c-0.4,0-0.7,0-1.1-0.2
			c-0.4-0.2-0.5-0.2-0.9-0.5c-0.2-0.2-0.5-0.4-0.7-0.7c-0.2-0.4-0.2-0.5-0.2-0.9h1.1c0,0.2,0.2,0.4,0.2,0.7c0.2,0.2,0.2,0.4,0.4,0.5
			c0.2,0.2,0.4,0.2,0.5,0.4c0.2,0.2,0.4,0.2,0.7,0.2c0.2,0,0.4,0,0.5,0s0.4-0.2,0.5-0.2c0.2-0.2,0.2-0.2,0.4-0.4
			C221.7,337.9,221.8,337.7,221.8,337.5z"/>
		<path class="st8" d="M229.3,336.1c0,0.4,0,0.5,0,0.9s-0.2,0.5-0.2,0.9s-0.2,0.5-0.4,0.7c-0.2,0.2-0.4,0.4-0.5,0.5
			c-0.2,0.2-0.4,0.4-0.7,0.4c-0.2,0.2-0.5,0.2-0.9,0.2c-0.4,0-0.5,0-0.9-0.2c-0.2-0.2-0.5-0.2-0.7-0.4c-0.2-0.2-0.4-0.4-0.5-0.5
			c-0.2-0.2-0.2-0.5-0.4-0.7c-0.2-0.2-0.2-0.5-0.2-0.7c0-0.2,0-0.5,0-0.9v-0.9c0-0.4,0-0.5,0-0.9c0-0.4,0.2-0.5,0.2-0.9
			c0.2-0.2,0.2-0.5,0.4-0.7c0.2-0.2,0.4-0.4,0.5-0.5c0.2-0.2,0.4-0.4,0.7-0.4c0.2-0.2,0.5-0.2,0.9-0.2c0.4,0,0.5,0,0.9,0.2
			c0.2,0.2,0.5,0.2,0.7,0.4c0.2,0.2,0.4,0.4,0.5,0.5c0.2,0.2,0.2,0.5,0.4,0.7c0.2,0.2,0.2,0.5,0.2,0.9c0,0.4,0,0.5,0,0.9V336.1z
			 M228.4,335.2c0-0.2,0-0.4,0-0.5s0-0.4-0.2-0.5c0-0.2-0.2-0.4-0.2-0.5c0-0.2-0.2-0.4-0.4-0.5c-0.2-0.2-0.4-0.2-0.4-0.4
			c-0.2,0-0.4-0.2-0.5-0.2s-0.4,0-0.5,0.2s-0.4,0.2-0.4,0.4c-0.2,0.2-0.2,0.4-0.4,0.5c-0.2,0.2-0.2,0.4-0.2,0.5s0,0.4-0.2,0.5
			c-0.2,0.2,0,0.4,0,0.5v0.9c0,0.2,0,0.4,0,0.5c0,0.2,0,0.4,0.2,0.5c0,0.2,0.2,0.4,0.2,0.5c0,0.2,0.2,0.4,0.4,0.5
			c0.2,0.2,0.4,0.2,0.4,0.4c0,0.2,0.4,0.2,0.5,0.2s0.4,0,0.5-0.2c0.2,0,0.4-0.2,0.4-0.4c0.2-0.2,0.2-0.4,0.4-0.5
			c0-0.2,0.2-0.4,0.2-0.5c0-0.2,0-0.4,0.2-0.5c0.2-0.2,0-0.4,0-0.5V335.2z"/>
		<path class="st8" d="M233.2,336.3h-1.6v3.1h-0.9v-7.8h2.4c0.4,0,0.7,0,1.1,0.2c0.4,0.2,0.5,0.2,0.9,0.4c0.2,0.2,0.4,0.4,0.5,0.7
			c0.2,0.4,0.2,0.5,0.2,1.1c0,0.2,0,0.5-0.2,0.7c-0.2,0.2-0.2,0.4-0.4,0.5c-0.2,0.2-0.4,0.4-0.5,0.4c-0.2,0-0.4,0.2-0.5,0.4l1.6,3.3
			l0,0h-0.9L233.2,336.3z M231.8,335.5h1.3c0.2,0,0.4,0,0.5-0.2c0.2-0.2,0.4-0.2,0.5-0.4s0.2-0.4,0.4-0.5c0-0.2,0.2-0.4,0.2-0.5
			c0-0.2,0-0.5-0.2-0.7c0-0.2-0.2-0.4-0.4-0.5c-0.2-0.2-0.4-0.2-0.5-0.4c-0.2-0.2-0.4-0.2-0.7-0.2h-1.3v3.4H231.8z"/>
	</g>
	<g class="st1">
		<path class="st8" d="M210.4,116.7h-1.6v3.1h-0.9v-7.8h2.4c0.4,0,0.7,0,1.1,0.2c0.4,0.2,0.5,0.2,0.9,0.4c0.2,0.2,0.4,0.4,0.5,0.7
			c0.2,0.4,0.2,0.5,0.2,1.1c0,0.2,0,0.5-0.2,0.7c-0.2,0.2-0.2,0.4-0.4,0.5c-0.2,0.2-0.4,0.4-0.5,0.4c-0.2,0-0.4,0.2-0.5,0.4l1.6,3.3
			l0,0h-1.1L210.4,116.7z M208.8,115.9h1.3c0.2,0,0.4,0,0.5-0.2c0.2,0,0.4-0.2,0.5-0.4c0.2-0.2,0.2-0.4,0.4-0.4
			c0-0.2,0.2-0.4,0.2-0.5c0-0.2,0-0.5-0.2-0.7c0-0.2-0.2-0.4-0.4-0.5c-0.2-0.2-0.4-0.2-0.5-0.4c-0.2-0.2-0.4-0.2-0.7-0.2h-1.3v3.3
			H208.8z"/>
		<path class="st8" d="M218.6,116.3h-3.3v2.7h3.8v0.9h-4.7v-7.8h4.7v0.9h-3.8v2.5h3.3V116.3z"/>
		<path class="st8" d="M224.9,117.9c0-0.2,0-0.4-0.2-0.5c-0.2-0.2-0.2-0.4-0.4-0.4c-0.2-0.2-0.4-0.2-0.5-0.4
			c-0.2-0.2-0.4-0.2-0.5-0.2c-0.4,0-0.5-0.2-0.9-0.4c-0.4-0.2-0.5-0.4-0.7-0.5c-0.2-0.2-0.4-0.4-0.5-0.7c-0.2-0.2-0.2-0.5-0.2-0.9
			s0-0.5,0.2-0.9c0.2-0.2,0.4-0.5,0.5-0.7c0.2-0.2,0.5-0.4,0.7-0.4c0.4-0.2,0.5-0.2,0.9-0.2c0.4,0,0.7,0,0.9,0.2
			c0.4,0.2,0.5,0.2,0.9,0.5c0.4,0.4,0.4,0.4,0.5,0.7s0.2,0.5,0.2,0.9h-1.1c0-0.2,0-0.4-0.2-0.5c0-0.2-0.2-0.4-0.4-0.5
			c-0.2-0.2-0.4-0.2-0.5-0.4c-0.2,0-0.4-0.2-0.5-0.2c-0.2,0-0.4,0-0.5,0s-0.4,0.2-0.5,0.2c-0.2,0.2-0.2,0.2-0.4,0.4
			c-0.2,0.2-0.2,0.4-0.2,0.5c0,0.2,0,0.4,0.2,0.5c0.2,0.2,0.2,0.4,0.4,0.4c0.2,0.2,0.4,0.2,0.5,0.2s0.4,0.2,0.5,0.2
			c0.2,0,0.4,0.2,0.5,0.2c0.2,0,0.4,0.2,0.5,0.2s0.4,0.2,0.5,0.4c0.2,0.2,0.4,0.2,0.4,0.4c0.2,0.2,0.2,0.4,0.4,0.5
			c0,0.2,0.2,0.4,0.2,0.5c0,0.4,0,0.7-0.2,0.9c-0.2,0.2-0.4,0.5-0.5,0.7c-0.2,0.2-0.5,0.4-0.9,0.4c-0.4,0-0.5,0.2-0.9,0.2
			c-0.4,0-0.7,0-1.1-0.2c-0.4-0.2-0.5-0.2-0.9-0.5c-0.2-0.2-0.5-0.4-0.7-0.7c-0.2-0.4-0.2-0.5-0.2-0.9h1.1c0,0.2,0.2,0.4,0.2,0.7
			c0.2,0.2,0.2,0.4,0.4,0.5c0.2,0.2,0.4,0.2,0.5,0.4c0.2,0,0.4,0.2,0.7,0.2c0.2,0,0.4,0,0.5,0c0.2,0,0.4-0.2,0.5-0.2
			c0.2-0.2,0.2-0.2,0.4-0.4C224.9,118.3,224.9,118.1,224.9,117.9z"/>
		<path class="st8" d="M231.6,116.3h-3.3v2.7h3.8v0.9h-4.7v-7.8h4.7v0.9h-3.8v2.5h3.3V116.3z"/>
		<path class="st8" d="M239,113h-2.4v6.9h-0.9V113h-2.4v-0.9h5.8v0.9H239z"/>
	</g>
	<g>
		<g>
			<path class="st4" d="M351.4,140.9c1.4,0,2.7,0.4,3.6,0.9c0.9,0.5,1.3,1.4,1.3,2.7c0,0.5-0.2,1.1-0.5,1.6
				c-0.4,0.5-0.7,0.9-1.4,1.1c0.7,0.2,1.3,0.5,1.8,1.1c0.4,0.5,0.5,1.1,0.5,1.8c0,1.3-0.4,2.2-1.3,2.7c-0.7,0.7-2,0.9-3.4,0.9h-6.3
				v-1.6l1.4-0.2v-9.2l-1.4-0.2v-1.6h1.4H351.4z M349.6,146.2h1.8c0.7,0,1.3-0.2,1.6-0.4s0.5-0.7,0.5-1.3c0-0.5-0.2-1.1-0.5-1.3
				c-0.4-0.4-0.9-0.4-1.6-0.4h-1.8V146.2z M349.6,148v3.8h2.4c0.7,0,1.3-0.2,1.6-0.4c0.4-0.4,0.5-0.7,0.5-1.3c0-0.5-0.2-1.1-0.5-1.4
				c-0.4-0.4-0.7-0.5-1.4-0.5h-2.5V148z"/>
		</g>
		<g class="st1">
			<polygon class="st8" points="359.9,166.7 356.8,165 358.4,168.1 			"/>
			<path class="st8" d="M364.2,158.3c-2.4-2.4-6.2-2.4-8.3,0l-2.2,2.2c-2.4,2.4-2.4,6.2,0,8.3l7.6,7.6l10.7-10.7L364.2,158.3z
				 M362.6,167.9l-1.8-0.9l-1.8,1.8l0.9,1.8l-0.7,0.7l-3.6-7.2l0.5-0.5l7.2,3.8L362.6,167.9z M360.3,161.2l-0.9,2l-0.5-0.7l1.3-2.9
				l0,0l5.4,5.4l-0.7,0.7L360.3,161.2z"/>
		</g>
	</g>
	<g>
		<g>
			<path class="st4" d="M93.9,152.5l0.9-0.2l4-11.2h2.7l3.8,11.2l0.9,0.2v1.6h-4.3v-1.6l0.9-0.2l-0.5-1.8h-4.2l-0.5,1.8l0.9,0.2v1.6
				h-4.3v-1.6H93.9z M98.6,148.7h2.9l-1.4-4.5l0,0L98.6,148.7z"/>
		</g>
		<g class="st1">
			<path class="st8" d="M91.2,168.3c0,0.4,0.2,0.7,0.5,1.1c0.4,0.4,0.7,0.5,1.3,0.4c0.5-0.2,0.9-0.4,1.3-0.9l1.3-1.3l-3.8-0.5
				C91.2,167.6,91.2,167.9,91.2,168.3z"/>
			<path class="st8" d="M94.8,164.5c-0.4,0-0.9,0.4-1.3,0.9l-1.3,1.3l3.8,0.5c0.4-0.4,0.5-0.7,0.5-1.1c0-0.4-0.2-0.7-0.5-1.1
				C95.7,164.5,95.4,164.3,94.8,164.5z"/>
			<polygon class="st8" points="89.7,164.5 91.4,161.4 88.3,163 			"/>
			<path class="st8" d="M97.9,161l-2.2-2.2c-2.4-2.4-6.2-2.4-8.3,0l-7.6,7.6l10.7,10.7l7.6-7.6C100.3,167,100.3,163.4,97.9,161z
				 M88.3,167l0.9-1.8l-1.8-1.8l-1.8,0.9l-0.7-0.7l7.2-3.6l0.5,0.5l-3.8,7.2L88.3,167z M97,167.2c-0.2,0.4-0.5,0.7-0.7,1.1l-1.3,1.3
				c-0.4,0.4-0.7,0.5-1.1,0.7s-0.7,0.4-1.1,0.4s-0.7,0-0.9-0.2c-0.4-0.2-0.5-0.4-0.9-0.5c-0.4-0.4-0.5-0.5-0.5-0.9
				c-0.2-0.4-0.2-0.7-0.2-0.9c0-0.4,0.2-0.7,0.4-1.1c0.2-0.4,0.5-0.7,0.7-1.1l1.3-1.3c0.4-0.4,0.7-0.5,1.1-0.7
				c0.4-0.2,0.7-0.4,1.1-0.4c0.4,0,0.7,0,0.9,0.2c0.4,0.2,0.5,0.4,0.9,0.5c0.4,0.4,0.5,0.5,0.5,0.9c0.2,0.4,0.2,0.7,0.2,0.9
				C97.4,166.3,97.2,166.8,97,167.2z"/>
		</g>
	</g>
	<g class="st1">
		<path class="st8" d="M320.4,187.9h-8c-1.3,0-2.2,0.9-2.2,2.2c0,0,0,6.9,0,6c0-5.1-4.2-9.2-9.2-9.2c-5.1,0-9.2,4.2-9.2,9.2
			c0,0.7,0,6.2,0,10.1l-10.9,8.2c-7.2,5.6-3.4,17.2,5.8,17.2h2.2c0.9-6.7,3.1-15,7.2-20.1h0.2h9.8c4.3,5.1,6.2,13.4,7.1,20.1h3.1
			c3.4,0,6.2-2.7,6.2-6.2v-23.6v-12C322.6,188.8,321.5,187.9,320.4,187.9z M297.4,192.8h7.6v5.1c0,1.6-1.3,2.9-2.9,2.9h-1.6
			c-1.6,0-2.9-1.3-2.9-2.9v-5.1H297.4z M295.6,207.6l3.4-6.5l2,6.5H295.6z M301.2,207.6l2-6.5l3.4,6.5H301.2z M311.7,201.8v-11.2
			h9.1v11.2H311.7z"/>
		<path class="st8" d="M308.4,231.5c-4.9-3.4-8.9-12.7-12-20.1v20.1H308.4z"/>
	</g>
	<polyline class="st9" points="240,116.5 253.9,116.5 257,113.4 257,100.2 259.7,97.3 265.3,97.3 	"/>
	<polyline class="st9" points="213.9,266.5 184.5,266.5 162.8,244.8 129.4,244.8 124.4,239.3 105.7,239.3 	"/>
	<polyline class="st9" points="124.5,251.8 129.4,251.8 134,247.3 154.1,247.3 165.1,258.5 	"/>
	<polyline class="st9" points="229.4,103.8 248.8,103.8 251.9,100.7 251.9,90.9 249.2,88.2 245.7,88.2 	"/>
	<polyline class="st9" points="282.9,251.5 307.5,251.5 310.6,254.5 310.6,278.8 	"/>
	<line class="st9" x1="310.1" y1="239.3" x2="332.9" y2="239.3"/>
	<polyline class="st9" points="216,305.8 177.1,305.8 162,321.8 162,330.1 168.2,336.4 	"/>
</g>
<path class="st10" d="M236,86c0,5.6-4.4,10-10,10s-10-4.4-10-10c0-5.6,4.4-10,10-10S236,80.7,236,86z"/>
</svg>
