<?xml version="1.0" encoding="utf-8"?>
<!-- Generator: Adobe Illustrator 21.0.0, SVG Export Plug-In . SVG Version: 6.00 Build 0)  -->
<svg version="1.1" id="Ebene_1" xmlns="http://www.w3.org/2000/svg" xmlns:xlink="http://www.w3.org/1999/xlink" x="0px" y="0px"
	 width="700px" height="500px" viewBox="0 0 700 500" style="enable-background:new 0 0 700 500;" xml:space="preserve">
<style type="text/css">
	.st0{fill:#002E05;}
	.st1{fill:none;stroke:#004006;stroke-width:0.7557;stroke-miterlimit:10;}
	.st2{fill:#004006;}
	.st3{fill:none;stroke:#004006;stroke-width:0.7638;stroke-miterlimit:10;}
	.st4{fill:none;stroke:#FFFFFF;stroke-width:2;stroke-miterlimit:10;}
	.st5{fill:#FFFFFF;}
</style>
<rect y="0" class="st0" width="700" height="500"/>
<line class="st1" x1="50" y1="0" x2="50" y2="500"/>
<circle class="st2" cx="50" cy="10" r="2"/>
<circle class="st2" cx="50" cy="70" r="2"/>
<circle class="st2" cx="50" cy="130" r="2"/>
<circle class="st2" cx="50" cy="190" r="2"/>
<circle class="st2" cx="50" cy="250" r="2"/>
<circle class="st2" cx="50" cy="310" r="2"/>
<circle class="st2" cx="50" cy="370" r="2"/>
<circle class="st2" cx="50" cy="430" r="2"/>
<circle class="st2" cx="50" cy="490" r="2"/>
<line class="st1" x1="110" y1="0" x2="110" y2="500"/>
<circle class="st2" cx="110" cy="10" r="2"/>
<circle class="st2" cx="110" cy="70" r="2"/>
<circle class="st2" cx="110" cy="130" r="2"/>
<circle class="st2" cx="110" cy="190" r="2"/>
<circle class="st2" cx="110" cy="250" r="2"/>
<circle class="st2" cx="110" cy="310" r="2"/>
<circle class="st2" cx="110" cy="370" r="2"/>
<circle class="st2" cx="110" cy="430" r="2"/>
<circle class="st2" cx="110" cy="490" r="2"/>
<line class="st1" x1="170" y1="0" x2="170" y2="500"/>
<circle class="st2" cx="170" cy="10" r="2"/>
<circle class="st2" cx="170" cy="70" r="2"/>
<circle class="st2" cx="170" cy="130" r="2"/>
<circle class="st2" cx="170" cy="190" r="2"/>
<circle class="st2" cx="170" cy="250" r="2"/>
<circle class="st2" cx="170" cy="310" r="2"/>
<circle class="st2" cx="170" cy="370" r="2"/>
<circle class="st2" cx="170" cy="430" r="2"/>
<circle class="st2" cx="170" cy="490" r="2"/>
<line class="st1" x1="230" y1="0" x2="230" y2="500"/>
<circle class="st2" cx="230" cy="10" r="2"/>
<circle class="st2" cx="230" cy="70" r="2"/>
<circle class="st2" cx="230" cy="130" r="2"/>
<circle class="st2" cx="230" cy="190" r="2"/>
<circle class="st2" cx="230" cy="250" r="2"/>
<circle class="st2" cx="230" cy="310" r="2"/>
<circle class="st2" cx="230" cy="370" r="2"/>
<circle class="st2" cx="230" cy="430" r="2"/>
<circle class="st2" cx="230" cy="490" r="2"/>
<line class="st1" x1="290" y1="0" x2="290" y2="500"/>
<circle class="st2" cx="290" cy="10" r="2"/>
<circle class="st2" cx="290" cy="70" r="2"/>
<circle class="st2" cx="290" cy="130" r="2"/>
<circle class="st2" cx="290" cy="190" r="2"/>
<circle class="st2" cx="290" cy="250" r="2"/>
<circle class="st2" cx="290" cy="310" r="2"/>
<circle class="st2" cx="290" cy="370" r="2"/>
<circle class="st2" cx="290" cy="430" r="2"/>
<circle class="st2" cx="290" cy="490" r="2"/>
<line class="st1" x1="350" y1="0" x2="350" y2="500"/>
<circle class="st2" cx="350" cy="10" r="2"/>
<circle class="st2" cx="350" cy="70" r="2"/>
<circle class="st2" cx="350" cy="130" r="2"/>
<circle class="st2" cx="350" cy="190" r="2"/>
<circle class="st2" cx="350" cy="250" r="2"/>
<circle class="st2" cx="350" cy="310" r="2"/>
<circle class="st2" cx="350" cy="370" r="2"/>
<circle class="st2" cx="350" cy="430" r="2"/>
<circle class="st2" cx="350" cy="490" r="2"/>
<line class="st1" x1="410" y1="0" x2="410" y2="500"/>
<path class="st2" d="M412,10c0,1.1-0.9,2-2,2c-1.1,0-2-0.9-2-2c0-1.1,0.9-2,2-2C411.1,8,412,8.9,412,10z"/>
<path class="st2" d="M412,70c0,1.1-0.9,2-2,2c-1.1,0-2-0.9-2-2c0-1.1,0.9-2,2-2C411.1,68,412,68.9,412,70z"/>
<path class="st2" d="M412,130c0,1.1-0.9,2-2,2c-1.1,0-2-0.9-2-2s0.9-2,2-2C411.1,128,412,128.9,412,130z"/>
<path class="st2" d="M412,190c0,1.1-0.9,2-2,2c-1.1,0-2-0.9-2-2s0.9-2,2-2C411.1,188,412,188.9,412,190z"/>
<path class="st2" d="M412,250c0,1.1-0.9,2-2,2c-1.1,0-2-0.9-2-2s0.9-2,2-2C411.1,248,412,248.9,412,250z"/>
<path class="st2" d="M412,310c0,1.1-0.9,2-2,2c-1.1,0-2-0.9-2-2c0-1.1,0.9-2,2-2C411.1,308,412,308.9,412,310z"/>
<path class="st2" d="M412,370c0,1.1-0.9,2-2,2c-1.1,0-2-0.9-2-2c0-1.1,0.9-2,2-2C411.1,368,412,368.9,412,370z"/>
<path class="st2" d="M412,430c0,1.1-0.9,2-2,2c-1.1,0-2-0.9-2-2s0.9-2,2-2C411.1,428,412,428.9,412,430z"/>
<path class="st2" d="M412,490c0,1.1-0.9,2-2,2c-1.1,0-2-0.9-2-2c0-1.1,0.9-2,2-2C411.1,488,412,488.9,412,490z"/>
<line class="st1" x1="470" y1="0" x2="470" y2="500"/>
<circle class="st2" cx="470" cy="10" r="2"/>
<circle class="st2" cx="470" cy="70" r="2"/>
<circle class="st2" cx="470" cy="130" r="2"/>
<circle class="st2" cx="470" cy="190" r="2"/>
<circle class="st2" cx="470" cy="250" r="2"/>
<circle class="st2" cx="470" cy="310" r="2"/>
<circle class="st2" cx="470" cy="370" r="2"/>
<circle class="st2" cx="470" cy="430" r="2"/>
<circle class="st2" cx="470" cy="490" r="2"/>
<line class="st1" x1="530" y1="0" x2="530" y2="500"/>
<circle class="st2" cx="530" cy="10" r="2"/>
<circle class="st2" cx="530" cy="70" r="2"/>
<circle class="st2" cx="530" cy="130" r="2"/>
<circle class="st2" cx="530" cy="190" r="2"/>
<circle class="st2" cx="530" cy="250" r="2"/>
<circle class="st2" cx="530" cy="310" r="2"/>
<circle class="st2" cx="530" cy="370" r="2"/>
<circle class="st2" cx="530" cy="430" r="2"/>
<circle class="st2" cx="530" cy="490" r="2"/>
<line class="st1" x1="590" y1="0" x2="590" y2="500"/>
<circle class="st2" cx="590" cy="10" r="2"/>
<circle class="st2" cx="590" cy="70" r="2"/>
<circle class="st2" cx="590" cy="130" r="2"/>
<circle class="st2" cx="590" cy="190" r="2"/>
<circle class="st2" cx="590" cy="250" r="2"/>
<circle class="st2" cx="590" cy="310" r="2"/>
<circle class="st2" cx="590" cy="370" r="2"/>
<circle class="st2" cx="590" cy="430" r="2"/>
<circle class="st2" cx="590" cy="490" r="2"/>
<line class="st1" x1="650" y1="0" x2="650" y2="500"/>
<circle class="st2" cx="650" cy="10" r="2"/>
<circle class="st2" cx="650" cy="70" r="2"/>
<circle class="st2" cx="650" cy="130" r="2"/>
<circle class="st2" cx="650" cy="190" r="2"/>
<circle class="st2" cx="650" cy="250" r="2"/>
<circle class="st2" cx="650" cy="310" r="2"/>
<circle class="st2" cx="650" cy="370" r="2"/>
<circle class="st2" cx="650" cy="430" r="2"/>
<circle class="st2" cx="650" cy="490" r="2"/>
<g>
	<line class="st3" x1="0" y1="10" x2="700" y2="10"/>
	<line class="st3" x1="0" y1="70" x2="700" y2="70"/>
	<line class="st3" x1="0" y1="130" x2="700" y2="130"/>
	<line class="st3" x1="0" y1="190" x2="700" y2="190"/>
	<line class="st3" x1="0" y1="250" x2="700" y2="250"/>
	<line class="st3" x1="0" y1="310" x2="700" y2="310"/>
	<line class="st3" x1="0" y1="370" x2="700" y2="370"/>
	<line class="st3" x1="0" y1="430" x2="700" y2="430"/>
	<line class="st3" x1="0" y1="490" x2="700" y2="490"/>
</g>
<g>
	<g>
		<line class="st4" x1="350" y1="20" x2="350" y2="480"/>
		<g>
			<polygon class="st5" points="343,22.1 350,10 357,22.1 			"/>
		</g>
		<g>
			<polygon class="st5" points="343,477.9 350,490 357,477.9 			"/>
		</g>
	</g>
</g>
<g>
	<g>
		<line class="st4" x1="120" y1="250" x2="580" y2="250"/>
		<g>
			<polygon class="st5" points="122.1,257 110,250 122.1,243 			"/>
		</g>
		<g>
			<polygon class="st5" points="577.9,257 590,250 577.9,243 			"/>
		</g>
	</g>
</g>
<line class="st4" x1="410" y1="250" x2="410" y2="255"/>
<line class="st4" x1="470" y1="250" x2="470" y2="255"/>
<line class="st4" x1="530" y1="250" x2="530" y2="255"/>
<line class="st4" x1="290" y1="250" x2="290" y2="255"/>
<line class="st4" x1="230" y1="250" x2="230" y2="255"/>
<line class="st4" x1="170" y1="250" x2="170" y2="255"/>
<line class="st4" x1="350" y1="190" x2="345" y2="190"/>
<line class="st4" x1="350" y1="130" x2="345" y2="130"/>
<line class="st4" x1="350" y1="70" x2="345" y2="70"/>
<line class="st4" x1="350" y1="310" x2="345" y2="310"/>
<line class="st4" x1="350" y1="370" x2="345" y2="370"/>
<line class="st4" x1="350" y1="430" x2="345" y2="430"/>
<g>
	<path class="st5" d="M409.6,265h-4.7v-0.8l2.3-2.5c0.4-0.4,0.6-0.8,0.8-1s0.2-0.5,0.2-0.8c0-0.3-0.1-0.6-0.3-0.8s-0.4-0.3-0.8-0.3
		c-0.4,0-0.7,0.1-0.9,0.4s-0.3,0.6-0.3,1h-1.1l0,0c0-0.6,0.2-1.2,0.6-1.6s1-0.6,1.8-0.6c0.7,0,1.2,0.2,1.6,0.6s0.6,0.9,0.6,1.5
		c0,0.4-0.1,0.8-0.3,1.2s-0.6,0.8-1.1,1.4l-1.6,1.7l0,0h3.2V265z"/>
	<path class="st5" d="M415.2,262.3c0,0.9-0.2,1.6-0.6,2.1s-1,0.7-1.7,0.7c-0.7,0-1.3-0.2-1.7-0.7s-0.6-1.2-0.6-2.1v-1.6
		c0-0.9,0.2-1.6,0.6-2.1s1-0.7,1.7-0.7c0.7,0,1.3,0.2,1.7,0.7s0.6,1.2,0.6,2.1V262.3z M414,260.5c0-0.6-0.1-1-0.3-1.3
		s-0.5-0.4-0.9-0.4s-0.7,0.1-0.9,0.4s-0.3,0.7-0.3,1.3v2c0,0.6,0.1,1,0.3,1.3s0.5,0.4,0.9,0.4s0.7-0.1,0.9-0.4s0.3-0.7,0.3-1.3
		L414,260.5L414,260.5z"/>
</g>
<g>
	<path class="st5" d="M468.9,262.5h0.9v1h-0.9v1.6h-1.2v-1.6h-3.1l0-0.7l3-4.8h1.2V262.5z M465.8,262.5h1.9v-2.9l0,0l-0.1,0.2
		L465.8,262.5z"/>
	<path class="st5" d="M475.2,262.3c0,0.9-0.2,1.6-0.6,2.1s-1,0.7-1.7,0.7c-0.7,0-1.3-0.2-1.7-0.7s-0.6-1.2-0.6-2.1v-1.6
		c0-0.9,0.2-1.6,0.6-2.1s1-0.7,1.7-0.7c0.7,0,1.3,0.2,1.7,0.7s0.6,1.2,0.6,2.1V262.3z M474,260.5c0-0.6-0.1-1-0.3-1.3
		s-0.5-0.4-0.9-0.4s-0.7,0.1-0.9,0.4s-0.3,0.7-0.3,1.3v2c0,0.6,0.1,1,0.3,1.3s0.5,0.4,0.9,0.4s0.7-0.1,0.8-0.4s0.3-0.7,0.3-1.3
		L474,260.5L474,260.5z"/>
</g>
<g>
	<path class="st5" d="M527.6,257.8c0.3,0,0.5,0,0.7,0.1c0.2,0.1,0.4,0.1,0.6,0.2l-0.2,0.9c-0.2-0.1-0.4-0.1-0.5-0.2
		s-0.4-0.1-0.6-0.1c-0.5,0-0.9,0.2-1.1,0.6c-0.3,0.4-0.4,0.9-0.4,1.5v0c0.2-0.2,0.4-0.3,0.7-0.4s0.5-0.1,0.9-0.1
		c0.6,0,1.1,0.2,1.5,0.7s0.6,1,0.6,1.7c0,0.7-0.2,1.3-0.6,1.8s-1,0.7-1.7,0.7c-0.7,0-1.3-0.3-1.8-0.8s-0.7-1.2-0.7-2.1v-1.4
		c0-0.9,0.3-1.7,0.8-2.2S526.8,257.8,527.6,257.8z M527.3,261.2c-0.3,0-0.6,0.1-0.8,0.2c-0.2,0.1-0.4,0.2-0.5,0.4v0.5
		c0,0.6,0.1,1.1,0.4,1.4c0.2,0.3,0.6,0.5,0.9,0.5c0.3,0,0.6-0.1,0.8-0.4c0.2-0.3,0.3-0.7,0.3-1.1c0-0.4-0.1-0.8-0.3-1
		S527.7,261.2,527.3,261.2z"/>
	<path class="st5" d="M535.2,262.3c0,0.9-0.2,1.6-0.6,2.1s-1,0.7-1.7,0.7c-0.7,0-1.3-0.2-1.7-0.7s-0.6-1.2-0.6-2.1v-1.6
		c0-0.9,0.2-1.6,0.6-2.1s1-0.7,1.7-0.7c0.7,0,1.3,0.2,1.7,0.7s0.6,1.2,0.6,2.1V262.3z M534,260.5c0-0.6-0.1-1-0.3-1.3
		s-0.5-0.4-0.9-0.4s-0.7,0.1-0.9,0.4s-0.3,0.7-0.3,1.3v2c0,0.6,0.1,1,0.3,1.3s0.5,0.4,0.9,0.4s0.7-0.1,0.8-0.4s0.3-0.7,0.3-1.3
		L534,260.5L534,260.5z"/>
</g>
<g>
	<path class="st5" d="M334.6,193.9h-4.7v-0.8l2.3-2.5c0.4-0.4,0.6-0.8,0.8-1s0.2-0.5,0.2-0.8c0-0.3-0.1-0.6-0.3-0.8
		s-0.4-0.3-0.8-0.3c-0.4,0-0.7,0.1-0.9,0.4s-0.3,0.6-0.3,1h-1.1l0,0c0-0.6,0.2-1.2,0.6-1.6s1-0.6,1.8-0.6c0.7,0,1.2,0.2,1.6,0.6
		s0.6,0.9,0.6,1.5c0,0.4-0.1,0.8-0.3,1.2s-0.6,0.8-1.1,1.4l-1.6,1.7l0,0h3.2V193.9z"/>
	<path class="st5" d="M340.2,191.2c0,0.9-0.2,1.6-0.6,2.1s-1,0.7-1.7,0.7c-0.7,0-1.3-0.2-1.7-0.7s-0.6-1.2-0.6-2.1v-1.6
		c0-0.9,0.2-1.6,0.6-2.1s1-0.7,1.7-0.7c0.7,0,1.3,0.2,1.7,0.7s0.6,1.2,0.6,2.1V191.2z M339,189.4c0-0.6-0.1-1-0.3-1.3
		s-0.5-0.4-0.9-0.4s-0.7,0.1-0.9,0.4s-0.3,0.7-0.3,1.3v2c0,0.6,0.1,1,0.3,1.3s0.5,0.4,0.9,0.4s0.7-0.1,0.9-0.4s0.3-0.7,0.3-1.3
		L339,189.4L339,189.4z"/>
</g>
<g>
	<path class="st5" d="M333.9,131.4h0.9v1h-0.9v1.6h-1.2v-1.6h-3.1l0-0.7l3-4.8h1.2V131.4z M330.8,131.4h1.9v-2.9l0,0l-0.1,0.2
		L330.8,131.4z"/>
	<path class="st5" d="M340.2,131.2c0,0.9-0.2,1.6-0.6,2.1s-1,0.7-1.7,0.7c-0.7,0-1.3-0.2-1.7-0.7s-0.6-1.2-0.6-2.1v-1.6
		c0-0.9,0.2-1.6,0.6-2.1s1-0.7,1.7-0.7c0.7,0,1.3,0.2,1.7,0.7s0.6,1.2,0.6,2.1V131.2z M339,129.4c0-0.6-0.1-1-0.3-1.3
		c-0.2-0.3-0.5-0.4-0.9-0.4s-0.7,0.1-0.9,0.4c-0.2,0.3-0.3,0.7-0.3,1.3v2c0,0.6,0.1,1,0.3,1.3s0.5,0.4,0.9,0.4s0.7-0.1,0.9-0.4
		s0.3-0.7,0.3-1.3L339,129.4L339,129.4z"/>
</g>
<g>
	<path class="st5" d="M332.6,66.7c0.3,0,0.5,0,0.7,0.1s0.4,0.1,0.6,0.2l-0.2,0.9c-0.2-0.1-0.4-0.1-0.5-0.2s-0.4-0.1-0.6-0.1
		c-0.5,0-0.9,0.2-1.1,0.6c-0.3,0.4-0.4,0.9-0.4,1.5v0c0.2-0.2,0.4-0.3,0.7-0.4s0.5-0.1,0.9-0.1c0.6,0,1.1,0.2,1.5,0.7s0.6,1,0.6,1.7
		c0,0.7-0.2,1.3-0.6,1.8s-1,0.7-1.7,0.7c-0.7,0-1.3-0.3-1.8-0.8s-0.7-1.2-0.7-2.1v-1.4c0-0.9,0.3-1.7,0.8-2.2S331.8,66.7,332.6,66.7
		z M332.3,70.1c-0.3,0-0.6,0.1-0.8,0.2c-0.2,0.1-0.4,0.2-0.5,0.4v0.5c0,0.6,0.1,1.1,0.4,1.4c0.2,0.3,0.6,0.5,0.9,0.5
		c0.3,0,0.6-0.1,0.8-0.4c0.2-0.3,0.3-0.7,0.3-1.1c0-0.4-0.1-0.8-0.3-1S332.7,70.1,332.3,70.1z"/>
	<path class="st5" d="M340.2,71.2c0,0.9-0.2,1.6-0.6,2.1s-1,0.7-1.7,0.7c-0.7,0-1.3-0.2-1.7-0.7s-0.6-1.2-0.6-2.1v-1.6
		c0-0.9,0.2-1.6,0.6-2.1s1-0.7,1.7-0.7c0.7,0,1.3,0.2,1.7,0.7s0.6,1.2,0.6,2.1V71.2z M339,69.4c0-0.6-0.1-1-0.3-1.3
		s-0.5-0.4-0.9-0.4s-0.7,0.1-0.9,0.4s-0.3,0.7-0.3,1.3v2c0,0.6,0.1,1,0.3,1.3s0.5,0.4,0.9,0.4s0.7-0.1,0.9-0.4s0.3-0.7,0.3-1.3
		L339,69.4L339,69.4z"/>
</g>
</svg>
