<?xml version="1.0" encoding="utf-8"?>
<!-- Generator: Adobe Illustrator 21.0.0, SVG Export Plug-In . SVG Version: 6.00 Build 0)  -->
<svg version="1.1" id="Ebene_3_1_" xmlns="http://www.w3.org/2000/svg" xmlns:xlink="http://www.w3.org/1999/xlink" x="0px" y="0px"
	 width="452" height="452"  viewBox="0 0 452 452" style="enable-background:new 0 0 452 452;" xml:space="preserve">
<style type="text/css">
	.st0{fill:#034854;}
	.st1{display:none;}
	.st2{display:inline;}
	.st3{fill:#EFDA48;}
	.st4{fill:#FFFFFF;}
	.st5{fill:#4C636F;}
	.st6{fill:#179C7D;}
	.st7{display:inline;fill:#202020;}
	.st8{display:inline;fill:#FF7F7F;fill-opacity:0;}
	.st9{fill:none;}
	.st10{fill:url(#SVGID_1_);}
	.st11{fill:url(#SVGID_2_);}
	.st12{fill:url(#SVGID_3_);}
	.st13{fill:url(#SVGID_4_);}
	.st14{fill:url(#SVGID_5_);}
	.st15{fill:url(#SVGID_6_);}
	.st16{fill:url(#SVGID_7_);}
	.st17{fill:url(#SVGID_8_);}
	.st18{fill:url(#SVGID_9_);}
	.st19{fill:url(#SVGID_10_);}
	.st20{fill:url(#SVGID_11_);}
	.st21{fill:url(#SVGID_12_);}
	.st22{fill:url(#SVGID_13_);}
	.st23{fill:url(#SVGID_14_);}
	.st24{fill:url(#SVGID_15_);}
	.st25{fill:url(#SVGID_16_);}
	.st26{fill:url(#SVGID_17_);}
	.st27{fill:url(#SVGID_18_);}
	.st28{fill:url(#SVGID_19_);}
	.st29{fill:url(#SVGID_20_);}
	.st30{fill:url(#SVGID_21_);}
	.st31{fill:url(#SVGID_22_);}
	.st32{fill:url(#SVGID_23_);}
	.st33{fill:url(#SVGID_24_);}
	.st34{fill:url(#SVGID_25_);}
	.st35{display:inline;fill:#979797;}
	.st36{display:inline;fill:#704A4A;}
	.st37{display:none;fill:#333333;}
	.st38{display:none;fill:#704A4A;}
</style>
<symbol  id="calliope_mini_backside" viewBox="-149.5 -131.8 298.9 263.5">
	<path class="st0" d="M-75.9,127.6L-75.9,127.6c6.2,4.6,14.6,4.8,20.9,0.5c12.5-8.4,34.7-21,56-21c23.2,0,45.7,13.5,56.4,21
		c4.3,3,9.8,3.8,14.7,2l0.6-0.2c7.3-2.6,11.8-9.8,11-17.4c-1.7-15.4-3-41.9,13-62.9c16.8-21.9,31.7-31.2,42.3-34.8
		c5.9-2,9.9-7.4,10.4-13.6l0,0c0.5-8-5.1-13.6-12.3-17c-12-5.7-30.8-15.7-42.8-36.2c-14.4-24.9-13-51.3-11.4-62.7
		c0.7-5.1-1.6-10.1-5.9-12.8c-4.8-3-11.9-4.6-21.4,1.5c-5.5,3.6-12,8.6-20.8,12c-10.8,4.1-16.9,5.5-20.3,5.8c-2.4,0.2-4.4,1.8-5.2,4
		c-1.1,2.9-3.4,6.2-8.2,6.2c-5,0-7.2-3.6-8.2-6.6c-0.8-2.5-3.3-3.4-5.9-3.7c-4.9-0.4-12.5-2.4-20.5-6.1c-7.1-3.3-14-7.9-20.4-12.7
		c-5.5-4.1-15-5.5-20.4-1.3l0,0c-5.7,4.4-7.4,11.7-6.5,18.8c1.9,15.3,1.1,43.3-16.7,64.2c-17.6,20.8-28.2,26.2-37.2,29.2
		c-3.9,1.3-11.4,5.4-12.3,14.1c-0.9,8.7,3,14.5,10.9,18.4c12.3,6.1,30.5,17.2,42.1,34.1C-79,72.4-79,98.4-81,112.1
		C-81.7,117.8-80.5,124.2-75.9,127.6z"/>
	<g id="holes_6_">
		<g class="st1">
			<g class="st2">
				<path class="st3" d="M-52.3-89.3c-1.4,0-2.6-1.2-2.6-2.6s1.2-2.6,2.6-2.6s2.6,1.2,2.6,2.6S-50.8-89.3-52.3-89.3z M-52.3-93
					c-0.7,0-1.2,0.6-1.2,1.2c0,0.7,0.6,1.2,1.2,1.2c0.7,0,1.2-0.6,1.2-1.2C-51-92.5-51.6-93-52.3-93z"/>
				<path d="M-52.3-93c-0.7,0-1.2,0.6-1.2,1.2c0,0.7,0.6,1.2,1.2,1.2c0.7,0,1.2-0.6,1.2-1.2C-51-92.5-51.6-93-52.3-93z"/>
			</g>
			<g class="st2">
				<path class="st3" d="M-43.5-89.3c-1.4,0-2.6-1.2-2.6-2.6s1.2-2.6,2.6-2.6s2.6,1.2,2.6,2.6S-42-89.3-43.5-89.3z M-43.5-93
					c-0.7,0-1.2,0.6-1.2,1.2c0,0.7,0.6,1.2,1.2,1.2c0.7,0,1.2-0.6,1.2-1.2C-42.3-92.5-42.8-93-43.5-93z"/>
				<path d="M-43.5-93c-0.7,0-1.2,0.6-1.2,1.2c0,0.7,0.6,1.2,1.2,1.2c0.7,0,1.2-0.6,1.2-1.2C-42.3-92.5-42.8-93-43.5-93z"/>
			</g>
			<g class="st2">
				<path class="st3" d="M-34.8-89.3c-1.4,0-2.6-1.2-2.6-2.6s1.2-2.6,2.6-2.6s2.6,1.2,2.6,2.6S-33.3-89.3-34.8-89.3z M-34.8-93
					c-0.7,0-1.2,0.6-1.2,1.2c0,0.7,0.6,1.2,1.2,1.2c0.7,0,1.2-0.6,1.2-1.2C-33.4-92.5-34-93-34.8-93z"/>
				<path d="M-34.8-93c-0.7,0-1.2,0.6-1.2,1.2c0,0.7,0.6,1.2,1.2,1.2c0.7,0,1.2-0.6,1.2-1.2C-33.4-92.5-34-93-34.8-93z"/>
			</g>
			<g class="st2">
				<path class="st3" d="M-25.8-89.3c-1.4,0-2.6-1.2-2.6-2.6s1.2-2.6,2.6-2.6s2.6,1.2,2.6,2.6S-24.4-89.3-25.8-89.3z M-25.8-93
					c-0.7,0-1.2,0.6-1.2,1.2c0,0.7,0.6,1.2,1.2,1.2c0.7,0,1.2-0.6,1.2-1.2C-24.6-92.5-25.2-93-25.8-93z"/>
				<path d="M-25.8-93c-0.7,0-1.2,0.6-1.2,1.2c0,0.7,0.6,1.2,1.2,1.2c0.7,0,1.2-0.6,1.2-1.2C-24.6-92.5-25.2-93-25.8-93z"/>
			</g>
			<g class="st2">
				<path class="st3" d="M-17-89.3c-1.4,0-2.6-1.2-2.6-2.6s1.2-2.6,2.6-2.6s2.6,1.2,2.6,2.6S-15.6-89.3-17-89.3z M-17-93
					c-0.7,0-1.2,0.6-1.2,1.2c0,0.7,0.6,1.2,1.2,1.2c0.7,0,1.2-0.6,1.2-1.2C-15.8-92.5-16.4-93-17-93z"/>
				<path d="M-17-93c-0.7,0-1.2,0.6-1.2,1.2c0,0.7,0.6,1.2,1.2,1.2c0.7,0,1.2-0.6,1.2-1.2C-15.8-92.5-16.4-93-17-93z"/>
			</g>
			<g class="st2">
				<path class="st3" d="M-8.2-89.3c-1.4,0-2.6-1.2-2.6-2.6s1.2-2.6,2.6-2.6s2.6,1.2,2.6,2.6S-6.8-89.3-8.2-89.3z M-8.2-93
					c-0.7,0-1.2,0.6-1.2,1.2c0,0.7,0.6,1.2,1.2,1.2S-7-91.3-7-91.8C-7-92.5-7.5-93-8.2-93z"/>
				<path d="M-8.2-93c-0.7,0-1.2,0.6-1.2,1.2c0,0.7,0.6,1.2,1.2,1.2S-7-91.3-7-91.8C-7-92.5-7.5-93-8.2-93z"/>
			</g>
			<g class="st2">
				<path class="st3" d="M0.6-89.3c-1.4,0-2.6-1.2-2.6-2.6s1.2-2.6,2.6-2.6s2.6,1.2,2.6,2.6S2-89.3,0.6-89.3z M0.6-93
					c-0.7,0-1.2,0.6-1.2,1.2c0,0.7,0.6,1.2,1.2,1.2s1.2-0.6,1.2-1.2C1.8-92.5,1.3-93,0.6-93z"/>
				<path d="M0.6-93c-0.7,0-1.2,0.6-1.2,1.2c0,0.7,0.6,1.2,1.2,1.2s1.2-0.6,1.2-1.2C1.8-92.5,1.3-93,0.6-93z"/>
			</g>
			<g class="st2">
				<path class="st3" d="M9.4-89.3c-1.4,0-2.6-1.2-2.6-2.6s1.2-2.6,2.6-2.6s2.6,1.2,2.6,2.6S10.8-89.3,9.4-89.3z M9.4-93
					c-0.7,0-1.2,0.6-1.2,1.2c0,0.7,0.6,1.2,1.2,1.2s1.2-0.6,1.2-1.2C10.6-92.5,10.1-93,9.4-93z"/>
				<path d="M9.4-93c-0.7,0-1.2,0.6-1.2,1.2c0,0.7,0.6,1.2,1.2,1.2s1.2-0.6,1.2-1.2C10.6-92.5,10.1-93,9.4-93z"/>
			</g>
			<g class="st2">
				<path class="st3" d="M18.2-89.3c-1.4,0-2.6-1.2-2.6-2.6s1.2-2.6,2.6-2.6s2.6,1.2,2.6,2.6S19.6-89.3,18.2-89.3z M18.2-93
					c-0.7,0-1.2,0.6-1.2,1.2c0,0.7,0.6,1.2,1.2,1.2c0.7,0,1.2-0.6,1.2-1.2C19.4-92.5,18.9-93,18.2-93z"/>
				<path d="M18.2-93c-0.7,0-1.2,0.6-1.2,1.2c0,0.7,0.6,1.2,1.2,1.2c0.7,0,1.2-0.6,1.2-1.2C19.4-92.5,18.9-93,18.2-93z"/>
			</g>
			<g class="st2">
				<path class="st3" d="M27-89.3c-1.4,0-2.6-1.2-2.6-2.6s1.2-2.6,2.6-2.6s2.6,1.2,2.6,2.6S28.4-89.3,27-89.3z M27-93
					c-0.7,0-1.2,0.6-1.2,1.2c0,0.7,0.6,1.2,1.2,1.2s1.2-0.6,1.2-1.2C28.2-92.5,27.7-93,27-93z"/>
				<path d="M27-93c-0.7,0-1.2,0.6-1.2,1.2c0,0.7,0.6,1.2,1.2,1.2s1.2-0.6,1.2-1.2C28.2-92.5,27.7-93,27-93z"/>
			</g>
			<g class="st2">
				<path class="st3" d="M35.8-89.3c-1.4,0-2.6-1.2-2.6-2.6s1.2-2.6,2.6-2.6s2.6,1.2,2.6,2.6S37.3-89.3,35.8-89.3z M35.8-93
					c-0.7,0-1.2,0.6-1.2,1.2c0,0.7,0.6,1.2,1.2,1.2c0.7,0,1.2-0.6,1.2-1.2C37.1-92.5,36.5-93,35.8-93z"/>
				<path d="M35.8-93c-0.7,0-1.2,0.6-1.2,1.2c0,0.7,0.6,1.2,1.2,1.2c0.7,0,1.2-0.6,1.2-1.2C37.1-92.5,36.5-93,35.8-93z"/>
			</g>
			<g class="st2">
				<path class="st3" d="M44.6-89.3c-1.4,0-2.6-1.2-2.6-2.6s1.2-2.6,2.6-2.6s2.6,1.2,2.6,2.6S46.1-89.3,44.6-89.3z M44.6-93
					c-0.7,0-1.2,0.6-1.2,1.2c0,0.7,0.6,1.2,1.2,1.2s1.2-0.6,1.2-1.2C45.9-92.5,45.3-93,44.6-93z"/>
				<path d="M44.6-93c-0.7,0-1.2,0.6-1.2,1.2c0,0.7,0.6,1.2,1.2,1.2s1.2-0.6,1.2-1.2C45.9-92.5,45.3-93,44.6-93z"/>
			</g>
			<g class="st2">
				<path class="st3" d="M53.4-89.3c-1.4,0-2.6-1.2-2.6-2.6s1.2-2.6,2.6-2.6s2.6,1.2,2.6,2.6S54.9-89.3,53.4-89.3z M53.4-93
					c-0.7,0-1.2,0.6-1.2,1.2c0,0.7,0.6,1.2,1.2,1.2c0.7,0,1.2-0.6,1.2-1.2C54.7-92.5,54.1-93,53.4-93z"/>
				<path d="M53.4-93c-0.7,0-1.2,0.6-1.2,1.2c0,0.7,0.6,1.2,1.2,1.2c0.7,0,1.2-0.6,1.2-1.2C54.7-92.5,54.1-93,53.4-93z"/>
			</g>
		</g>
		<g class="st1">
			<g class="st2">
				<path class="st3" d="M-52.3-80.3c-1.4,0-2.6-1.2-2.6-2.6s1.2-2.6,2.6-2.6s2.6,1.2,2.6,2.6S-50.8-80.3-52.3-80.3z M-52.3-84.3
					c-0.7,0-1.2,0.6-1.2,1.2s0.6,1.2,1.2,1.2c0.7,0,1.2-0.6,1.2-1.2S-51.6-84.3-52.3-84.3z"/>
				<path d="M-52.3-84.3c-0.7,0-1.2,0.6-1.2,1.2s0.6,1.2,1.2,1.2c0.7,0,1.2-0.6,1.2-1.2S-51.6-84.3-52.3-84.3z"/>
			</g>
			<g class="st2">
				<path class="st3" d="M-43.5-80.3c-1.4,0-2.6-1.2-2.6-2.6s1.2-2.6,2.6-2.6s2.6,1.2,2.6,2.6S-42-80.3-43.5-80.3z M-43.5-84.3
					c-0.7,0-1.2,0.6-1.2,1.2s0.6,1.2,1.2,1.2c0.7,0,1.2-0.6,1.2-1.2S-42.8-84.3-43.5-84.3z"/>
				<path d="M-43.5-84.3c-0.7,0-1.2,0.6-1.2,1.2s0.6,1.2,1.2,1.2c0.7,0,1.2-0.6,1.2-1.2S-42.8-84.3-43.5-84.3z"/>
			</g>
			<g class="st2">
				<path class="st3" d="M-34.8-80.3c-1.4,0-2.6-1.2-2.6-2.6s1.2-2.6,2.6-2.6s2.6,1.2,2.6,2.6S-33.3-80.3-34.8-80.3z M-34.8-84.3
					c-0.7,0-1.2,0.6-1.2,1.2s0.6,1.2,1.2,1.2c0.7,0,1.2-0.6,1.2-1.2S-34-84.3-34.8-84.3z"/>
				<path d="M-34.8-84.3c-0.7,0-1.2,0.6-1.2,1.2s0.6,1.2,1.2,1.2c0.7,0,1.2-0.6,1.2-1.2S-34-84.3-34.8-84.3z"/>
			</g>
			<g class="st2">
				<path class="st3" d="M-25.8-80.3c-1.4,0-2.6-1.2-2.6-2.6s1.2-2.6,2.6-2.6s2.6,1.2,2.6,2.6S-24.4-80.3-25.8-80.3z M-25.8-84.3
					c-0.7,0-1.2,0.6-1.2,1.2s0.6,1.2,1.2,1.2c0.7,0,1.2-0.6,1.2-1.2S-25.2-84.3-25.8-84.3z"/>
				<path d="M-25.8-84.3c-0.7,0-1.2,0.6-1.2,1.2s0.6,1.2,1.2,1.2c0.7,0,1.2-0.6,1.2-1.2S-25.2-84.3-25.8-84.3z"/>
			</g>
			<g class="st2">
				<path class="st3" d="M-17-80.3c-1.4,0-2.6-1.2-2.6-2.6s1.2-2.6,2.6-2.6s2.6,1.2,2.6,2.6S-15.6-80.3-17-80.3z M-17-84.3
					c-0.7,0-1.2,0.6-1.2,1.2s0.6,1.2,1.2,1.2c0.7,0,1.2-0.6,1.2-1.2S-16.4-84.3-17-84.3z"/>
				<path d="M-17-84.3c-0.7,0-1.2,0.6-1.2,1.2s0.6,1.2,1.2,1.2c0.7,0,1.2-0.6,1.2-1.2S-16.4-84.3-17-84.3z"/>
			</g>
			<g class="st2">
				<path class="st3" d="M-8.2-80.3c-1.4,0-2.6-1.2-2.6-2.6s1.2-2.6,2.6-2.6s2.6,1.2,2.6,2.6S-6.8-80.3-8.2-80.3z M-8.2-84.3
					c-0.7,0-1.2,0.6-1.2,1.2s0.6,1.2,1.2,1.2S-7-82.5-7-83.1S-7.5-84.3-8.2-84.3z"/>
				<path d="M-8.2-84.3c-0.7,0-1.2,0.6-1.2,1.2s0.6,1.2,1.2,1.2S-7-82.5-7-83.1S-7.5-84.3-8.2-84.3z"/>
			</g>
			<g class="st2">
				<path class="st3" d="M0.6-80.3c-1.4,0-2.6-1.2-2.6-2.6s1.2-2.6,2.6-2.6s2.6,1.1,2.6,2.5S2-80.3,0.6-80.3z M0.6-84.3
					c-0.7,0-1.2,0.6-1.2,1.2s0.6,1.2,1.2,1.2s1.2-0.6,1.2-1.2S1.3-84.3,0.6-84.3z"/>
				<path d="M0.6-84.3c-0.7,0-1.2,0.6-1.2,1.2s0.6,1.2,1.2,1.2s1.2-0.6,1.2-1.2S1.3-84.3,0.6-84.3z"/>
			</g>
			<g class="st2">
				<path class="st3" d="M9.4-80.3c-1.4,0-2.6-1.2-2.6-2.6s1.2-2.6,2.6-2.6s2.6,1.2,2.6,2.6S10.8-80.3,9.4-80.3z M9.4-84.3
					c-0.7,0-1.2,0.6-1.2,1.2s0.6,1.2,1.2,1.2s1.2-0.6,1.2-1.2S10.1-84.3,9.4-84.3z"/>
				<path d="M9.4-84.3c-0.7,0-1.2,0.6-1.2,1.2s0.6,1.2,1.2,1.2s1.2-0.6,1.2-1.2S10.1-84.3,9.4-84.3z"/>
			</g>
			<g class="st2">
				<path class="st3" d="M18.2-80.3c-1.4,0-2.6-1.2-2.6-2.6s1.2-2.6,2.6-2.6s2.6,1.2,2.6,2.6S19.6-80.3,18.2-80.3z M18.2-84.3
					c-0.7,0-1.2,0.6-1.2,1.2s0.6,1.2,1.2,1.2c0.7,0,1.2-0.6,1.2-1.2S18.9-84.3,18.2-84.3z"/>
				<path d="M18.2-84.3c-0.7,0-1.2,0.6-1.2,1.2s0.6,1.2,1.2,1.2c0.7,0,1.2-0.6,1.2-1.2S18.9-84.3,18.2-84.3z"/>
			</g>
			<g class="st2">
				<path class="st3" d="M27-80.3c-1.4,0-2.6-1.2-2.6-2.6s1.2-2.6,2.6-2.6s2.6,1.2,2.6,2.6S28.4-80.3,27-80.3z M27-84.3
					c-0.7,0-1.2,0.6-1.2,1.2s0.6,1.2,1.2,1.2s1.2-0.6,1.2-1.2S27.7-84.3,27-84.3z"/>
				<path d="M27-84.3c-0.7,0-1.2,0.6-1.2,1.2s0.6,1.2,1.2,1.2s1.2-0.6,1.2-1.2S27.7-84.3,27-84.3z"/>
			</g>
			<g class="st2">
				<path class="st3" d="M35.8-80.3c-1.4,0-2.6-1.2-2.6-2.6s1.2-2.6,2.6-2.6s2.6,1.2,2.6,2.6S37.3-80.3,35.8-80.3z M35.8-84.3
					c-0.7,0-1.2,0.6-1.2,1.2s0.6,1.2,1.2,1.2c0.7,0,1.2-0.6,1.2-1.2S36.5-84.3,35.8-84.3z"/>
				<path d="M35.8-84.3c-0.7,0-1.2,0.6-1.2,1.2s0.6,1.2,1.2,1.2c0.7,0,1.2-0.6,1.2-1.2S36.5-84.3,35.8-84.3z"/>
			</g>
			<g class="st2">
				<path class="st3" d="M44.6-80.3c-1.4,0-2.6-1.2-2.6-2.6s1.2-2.6,2.6-2.6s2.6,1.2,2.6,2.6S46.1-80.3,44.6-80.3z M44.6-84.3
					c-0.7,0-1.2,0.6-1.2,1.2s0.6,1.2,1.2,1.2s1.2-0.6,1.2-1.2S45.3-84.3,44.6-84.3z"/>
				<path d="M44.6-84.3c-0.7,0-1.2,0.6-1.2,1.2s0.6,1.2,1.2,1.2s1.2-0.6,1.2-1.2S45.3-84.3,44.6-84.3z"/>
			</g>
			<g class="st2">
				<path class="st3" d="M53.4-80.3c-1.4,0-2.6-1.2-2.6-2.6s1.2-2.6,2.6-2.6s2.6,1.2,2.6,2.6S54.9-80.3,53.4-80.3z M53.4-84.3
					c-0.7,0-1.2,0.6-1.2,1.2s0.6,1.2,1.2,1.2c0.7,0,1.2-0.6,1.2-1.2S54.1-84.3,53.4-84.3z"/>
				<path d="M53.4-84.3c-0.7,0-1.2,0.6-1.2,1.2s0.6,1.2,1.2,1.2c0.7,0,1.2-0.6,1.2-1.2S54.1-84.3,53.4-84.3z"/>
			</g>
		</g>
		<g class="st1">
			<g class="st2">
				<path class="st3" d="M-17-63.4c-1.4,0-2.6-1.2-2.6-2.6s1.2-2.6,2.6-2.6s2.6,1.2,2.6,2.6S-15.6-63.4-17-63.4z M-17-67.3
					c-0.7,0-1.2,0.6-1.2,1.2S-17.6-65-17-65c0.7,0,1.2-0.6,1.2-1.2S-16.4-67.3-17-67.3z"/>
				<path d="M-17-67.3c-0.7,0-1.2,0.6-1.2,1.2S-17.6-65-17-65c0.7,0,1.2-0.6,1.2-1.2S-16.4-67.3-17-67.3z"/>
			</g>
			<g class="st2">
				<path class="st3" d="M-8.2-63.4c-1.4,0-2.6-1.2-2.6-2.6s1.2-2.6,2.6-2.6s2.6,1.2,2.6,2.6S-6.8-63.4-8.2-63.4z M-8.2-67.3
					c-0.7,0-1.2,0.6-1.2,1.2S-8.8-65-8.2-65S-7-65.6-7-66.2S-7.5-67.3-8.2-67.3z"/>
				<path d="M-8.2-67.3c-0.7,0-1.2,0.6-1.2,1.2S-8.8-65-8.2-65S-7-65.6-7-66.2S-7.5-67.3-8.2-67.3z"/>
			</g>
			<g class="st2">
				<path class="st3" d="M0.6-63.4C-0.8-63.4-2-64.6-2-66s1.2-2.6,2.6-2.6s2.6,1.1,2.6,2.6S2-63.4,0.6-63.4z M0.6-67.3
					c-0.7,0-1.2,0.6-1.2,1.2S0-65,0.6-65s1.2-0.6,1.2-1.2S1.3-67.3,0.6-67.3z"/>
				<path d="M0.6-67.3c-0.7,0-1.2,0.6-1.2,1.2S0-65,0.6-65s1.2-0.6,1.2-1.2S1.3-67.3,0.6-67.3z"/>
			</g>
			<g class="st2">
				<path class="st3" d="M9.4-63.4c-1.4,0-2.6-1.2-2.6-2.6s1.2-2.6,2.6-2.6S12-67.4,12-66S10.8-63.4,9.4-63.4z M9.4-67.3
					c-0.7,0-1.2,0.6-1.2,1.2S8.8-65,9.4-65s1.2-0.6,1.2-1.2S10.1-67.3,9.4-67.3z"/>
				<path d="M9.4-67.3c-0.7,0-1.2,0.6-1.2,1.2S8.8-65,9.4-65s1.2-0.6,1.2-1.2S10.1-67.3,9.4-67.3z"/>
			</g>
			<g class="st2">
				<path class="st3" d="M18.2-63.4c-1.4,0-2.6-1.2-2.6-2.6s1.2-2.6,2.6-2.6s2.6,1.2,2.6,2.6S19.6-63.4,18.2-63.4z M18.2-67.3
					c-0.7,0-1.2,0.6-1.2,1.2s0.6,1.2,1.2,1.2c0.7,0,1.2-0.6,1.2-1.2S18.9-67.3,18.2-67.3z"/>
				<path d="M18.2-67.3c-0.7,0-1.2,0.6-1.2,1.2s0.6,1.2,1.2,1.2c0.7,0,1.2-0.6,1.2-1.2S18.9-67.3,18.2-67.3z"/>
			</g>
		</g>
		<g class="st1">
			<g class="st2">
				<polygon class="st3" points="98.3,28.1 94.7,31.7 98.3,35.3 101.8,31.7 				"/>
				<path d="M97.3,30.9c-0.5,0.5-0.5,1.3,0,1.8s1.3,0.5,1.8,0s0.5-1.3,0-1.8S97.8,30.4,97.3,30.9z"/>
			</g>
			<g class="st2">
				<path class="st3" d="M105.3,28.7c-1,1-2.7,1-3.7,0s-1-2.7,0-3.7s2.7-1,3.7,0S106.3,27.6,105.3,28.7z M102.6,25.9
					c-0.5,0.5-0.5,1.3,0,1.8s1.3,0.5,1.8,0s0.5-1.3,0-1.8C103.8,25.4,103.1,25.4,102.6,25.9z"/>
				<path d="M102.6,25.9c-0.5,0.5-0.5,1.3,0,1.8s1.3,0.5,1.8,0s0.5-1.3,0-1.8C103.8,25.4,103.1,25.4,102.6,25.9z"/>
			</g>
			<g class="st2">
				<path class="st3" d="M110,24.1c-1,1-2.7,1-3.7,0s-1-2.7,0-3.7s2.7-1,3.7,0S111,23.1,110,24.1z M107.2,21.4
					c-0.5,0.5-0.5,1.3,0,1.8s1.3,0.5,1.8,0s0.5-1.3,0-1.8S107.7,20.9,107.2,21.4z"/>
				<path d="M107.2,21.4c-0.5,0.5-0.5,1.3,0,1.8s1.3,0.5,1.8,0s0.5-1.3,0-1.8S107.7,20.9,107.2,21.4z"/>
			</g>
			<g class="st2">
				<path class="st3" d="M115.3,18.8c-1,1-2.7,1-3.7,0s-1-2.7,0-3.7s2.7-1,3.7,0S116.3,17.8,115.3,18.8z M112.5,16.1
					c-0.5,0.5-0.5,1.3,0,1.8s1.3,0.5,1.8,0s0.5-1.3,0-1.8C113.8,15.6,113,15.6,112.5,16.1z"/>
				<path d="M112.5,16.1c-0.5,0.5-0.5,1.3,0,1.8s1.3,0.5,1.8,0s0.5-1.3,0-1.8C113.8,15.6,113,15.6,112.5,16.1z"/>
			</g>
		</g>
		<g class="st1">
			<g class="st2">
				<polygon class="st3" points="-108.2,17.1 -111.8,13.5 -115.4,17.1 -111.8,20.8 				"/>
				<path d="M-110.9,16.3c-0.5-0.5-1.3-0.5-1.8,0s-0.5,1.3,0,1.8s1.3,0.5,1.8,0S-110.4,16.8-110.9,16.3z"/>
			</g>
			<g class="st2">
				<path class="st3" d="M-108.8,24.2c-1-1-1-2.7,0-3.7s2.7-1,3.7,0s1,2.7,0,3.7S-107.8,25.2-108.8,24.2z M-106,21.4
					c-0.5-0.5-1.3-0.5-1.8,0s-0.5,1.3,0,1.8s1.3,0.5,1.8,0C-105.5,22.7-105.5,21.9-106,21.4z"/>
				<path d="M-106,21.4c-0.5-0.5-1.3-0.5-1.8,0s-0.5,1.3,0,1.8s1.3,0.5,1.8,0C-105.5,22.7-105.5,21.9-106,21.4z"/>
			</g>
			<g class="st2">
				<path class="st3" d="M-104.2,28.8c-1-1-1-2.7,0-3.7s2.7-1,3.7,0s1,2.7,0,3.7S-103.2,29.9-104.2,28.8z M-101.4,26.1
					c-0.5-0.5-1.3-0.5-1.8,0s-0.5,1.3,0,1.8s1.3,0.5,1.8,0S-100.9,26.6-101.4,26.1z"/>
				<path d="M-101.4,26.1c-0.5-0.5-1.3-0.5-1.8,0s-0.5,1.3,0,1.8s1.3,0.5,1.8,0S-100.9,26.6-101.4,26.1z"/>
			</g>
			<g class="st2">
				<path class="st3" d="M-98.9,34.1c-1-1-1-2.7,0-3.7s2.7-1,3.7,0s1,2.7,0,3.7S-97.8,35.1-98.9,34.1z M-96.2,31.4
					c-0.5-0.5-1.3-0.5-1.8,0s-0.5,1.3,0,1.8s1.3,0.5,1.8,0S-95.7,31.9-96.2,31.4z"/>
				<path d="M-96.2,31.4c-0.5-0.5-1.3-0.5-1.8,0s-0.5,1.3,0,1.8s1.3,0.5,1.8,0S-95.7,31.9-96.2,31.4z"/>
			</g>
		</g>
		<g>
			<path class="st3" d="M-132.4,17.1c-9.4,0-17.1-7.6-17.1-17.1s7.6-17.1,17.1-17.1s17.1,7.6,17.1,17.1S-122.9,17.1-132.4,17.1z
				 M-132.4-8.1c-4.5,0-8.1,3.6-8.1,8.1s3.6,8.1,8.1,8.1c4.5,0,8.1-3.6,8.1-8.1S-127.8-8.1-132.4-8.1z"/>
			<path class="st3" d="M66.7,131.8c-9.4,0-17.1-7.6-17.1-17.1s7.6-17.1,17.1-17.1s17.1,7.6,17.1,17.1S76.1,131.8,66.7,131.8z
				 M66.7,106.6c-4.5,0-8.1,3.6-8.1,8.1s3.6,8.1,8.1,8.1s8.1-3.6,8.1-8.1S71.2,106.6,66.7,106.6z"/>
			<path class="st3" d="M132.4,17.1c-9.4,0-17.1-7.6-17.1-17.1s7.6-17.1,17.1-17.1S149.5-9.5,149.5,0S141.8,17.1,132.4,17.1z
				 M132.4-8.1c-4.5,0-8.1,3.6-8.1,8.1s3.6,8.1,8.1,8.1c4.5,0,8.1-3.6,8.1-8.1S136.8-8.1,132.4-8.1z"/>
			<path class="st3" d="M66.7-96.5c-9.4,0-17.1-7.6-17.1-17.1s7.6-17.1,17.1-17.1s17.1,7.6,17.1,17.1S76.1-96.5,66.7-96.5z
				 M66.7-121.6c-4.5,0-8.1,3.6-8.1,8.1s3.6,8.1,8.1,8.1s8.1-3.6,8.1-8.1S71.2-121.6,66.7-121.6z"/>
			<path class="st3" d="M-65.3-97.5c-9.4,0-17.1-7.6-17.1-17.1s7.6-17.1,17.1-17.1s17.1,7.6,17.1,17.1S-55.9-97.5-65.3-97.5z
				 M-65.3-122.6c-4.5,0-8.1,3.6-8.1,8.1s3.6,8.1,8.1,8.1s8.1-3.6,8.1-8.1S-60.8-122.6-65.3-122.6z"/>
			<path class="st3" d="M-65.3,131.8c-9.4,0-17.1-7.6-17.1-17.1s7.6-17.1,17.1-17.1s17.1,7.6,17.1,17.1S-55.9,131.8-65.3,131.8z
				 M-65.3,106.6c-4.5,0-8.1,3.6-8.1,8.1s3.6,8.1,8.1,8.1s8.1-3.6,8.1-8.1S-60.8,106.6-65.3,106.6z"/>
		</g>
	</g>
	<path class="st4" d="M132.4-8.1c-4.5,0-8.1,3.6-8.1,8.1s3.6,8.1,8.1,8.1c4.5,0,8.1-3.6,8.1-8.1S136.8-8.1,132.4-8.1z"/>
	<path class="st4" d="M66.7,106.6c-4.5,0-8.1,3.6-8.1,8.1s3.6,8.1,8.1,8.1s8.1-3.6,8.1-8.1S71.2,106.6,66.7,106.6z"/>
	<path class="st4" d="M-65.3,106.6c-4.5,0-8.1,3.6-8.1,8.1s3.6,8.1,8.1,8.1s8.1-3.6,8.1-8.1S-60.8,106.6-65.3,106.6z"/>
	<path class="st4" d="M-132.4-8c-4.5,0-8.1,3.6-8.1,8.1s3.6,8.1,8.1,8.1c4.5,0,8.1-3.6,8.1-8.1S-127.8-8-132.4-8z"/>
	<path class="st4" d="M-65.3-122.6c-4.5,0-8.1,3.6-8.1,8.1s3.6,8.1,8.1,8.1s8.1-3.6,8.1-8.1S-60.8-122.6-65.3-122.6z"/>
	<path class="st4" d="M66.7-121.6c-4.5,0-8.1,3.6-8.1,8.1s3.6,8.1,8.1,8.1s8.1-3.6,8.1-8.1S71.2-121.6,66.7-121.6z"/>
</symbol>
<g>
	<path class="st5" d="M452,56.6c0-16-13-28.9-28.9-28.9H28.9C13,27.6,0,40.6,0,56.6v310.6c0,16,13,28.9,28.9,28.9H423
		c16,0,28.9-13,28.9-28.9L452,56.6L452,56.6z M13,215.2c-2.4,0-4.4-2-4.4-4.4c0-2.4,2-4.4,4.4-4.4c2.4,0,4.4,2,4.4,4.4
		C17.4,213.3,15.4,215.2,13,215.2z M441.3,215.2c-2.4,0-4.4-2-4.4-4.4c0-2.5,0.2-4.4,4.4-4.4c2.4,0,4.4,2,4.4,4.4
		C445.7,213.3,443.7,215.2,441.3,215.2z"/>
	<path class="st1" d="M303,325.2H150.5c-7.5,0-13.6-6.1-13.6-13.6V159.3c0-7.5,6.1-13.6,13.6-13.6h152.3c7.5,0,13.6,6.1,13.6,13.6
		v152.3C316.6,319.2,310.5,325.2,303,325.2z"/>
	<polygon class="st6" points="104.4,79.1 157.1,27.6 104.4,27.6 	"/>
	<path class="st6" d="M103.6,27.6H23.5C10.9,29.6,0,39.7,0,52.8v76.1L103.6,27.6z"/>
	<polygon class="st6" points="157,52.9 183.8,27.6 157,27.6 	"/>
	<polygon class="st6" points="49.1,247.7 49.1,276.4 20.3,276.4 	"/>
	<polygon class="st6" points="405,177 405,148.2 433.8,148.2 	"/>
	<g class="st1">
		<path class="st7" d="M141.6,146.2h5.5c1,0,1.8,0.8,1.8,1.8v14.5c0,1-0.8,1.8-1.8,1.8h-5.5c-1,0-1.8-0.8-1.8-1.8V148
			C139.8,147,140.6,146.2,141.6,146.2z"/>
		<path class="st7" d="M183.3,146.2h5.5c1,0,1.8,0.8,1.8,1.8v14.5c0,1-0.8,1.8-1.8,1.8h-5.5c-1,0-1.8-0.8-1.8-1.8V148
			C181.5,147,182.3,146.2,183.3,146.2z"/>
		<path class="st7" d="M225.1,146.2h5.5c1,0,1.8,0.8,1.8,1.8v14.5c0,1-0.8,1.8-1.8,1.8h-5.5c-1,0-1.8-0.8-1.8-1.8V148
			C223.3,147,224.1,146.2,225.1,146.2z"/>
		<path class="st7" d="M266.8,146.2h5.5c1,0,1.8,0.8,1.8,1.8v14.5c0,1-0.8,1.8-1.8,1.8h-5.5c-1,0-1.8-0.8-1.8-1.8V148
			C265,147,265.8,146.2,266.8,146.2z"/>
		<path class="st7" d="M308.6,146.2h5.5c1,0,1.8,0.8,1.8,1.8v14.5c0,1-0.8,1.8-1.8,1.8h-5.5c-1,0-1.8-0.8-1.8-1.8V148
			C306.7,147,307.6,146.2,308.6,146.2z"/>
		<path class="st7" d="M141.6,186.1h5.5c1,0,1.8,0.8,1.8,1.8v14.5c0,1-0.8,1.8-1.8,1.8h-5.5c-1,0-1.8-0.8-1.8-1.8v-14.5
			C139.8,187,140.6,186.1,141.6,186.1z"/>
		<path class="st7" d="M183.3,186.1h5.5c1,0,1.8,0.8,1.8,1.8v14.5c0,1-0.8,1.8-1.8,1.8h-5.5c-1,0-1.8-0.8-1.8-1.8v-14.5
			C181.5,187,182.3,186.1,183.3,186.1z"/>
		<path class="st7" d="M225.1,186.1h5.5c1,0,1.8,0.8,1.8,1.8v14.5c0,1-0.8,1.8-1.8,1.8h-5.5c-1,0-1.8-0.8-1.8-1.8v-14.5
			C223.3,187,224.1,186.1,225.1,186.1z"/>
		<path class="st7" d="M266.8,186.1h5.5c1,0,1.8,0.8,1.8,1.8v14.5c0,1-0.8,1.8-1.8,1.8h-5.5c-1,0-1.8-0.8-1.8-1.8v-14.5
			C265,187,265.8,186.1,266.8,186.1z"/>
		<path class="st7" d="M308.6,186.1h5.5c1,0,1.8,0.8,1.8,1.8v14.5c0,1-0.8,1.8-1.8,1.8h-5.5c-1,0-1.8-0.8-1.8-1.8v-14.5
			C306.7,187,307.6,186.1,308.6,186.1z"/>
		<path class="st7" d="M141.6,226.1h5.5c1,0,1.8,0.8,1.8,1.8v14.5c0,1-0.8,1.8-1.8,1.8h-5.5c-1,0-1.8-0.8-1.8-1.8v-14.5
			C139.8,226.9,140.6,226.1,141.6,226.1z"/>
		<path class="st7" d="M183.3,226.1h5.5c1,0,1.8,0.8,1.8,1.8v14.5c0,1-0.8,1.8-1.8,1.8h-5.5c-1,0-1.8-0.8-1.8-1.8v-14.5
			C181.5,226.9,182.3,226.1,183.3,226.1z"/>
		<path class="st7" d="M225.1,226.1h5.5c1,0,1.8,0.8,1.8,1.8v14.5c0,1-0.8,1.8-1.8,1.8h-5.5c-1,0-1.8-0.8-1.8-1.8v-14.5
			C223.3,226.9,224.1,226.1,225.1,226.1z"/>
		<path class="st7" d="M266.8,226.1h5.5c1,0,1.8,0.8,1.8,1.8v14.5c0,1-0.8,1.8-1.8,1.8h-5.5c-1,0-1.8-0.8-1.8-1.8v-14.5
			C265,226.9,265.8,226.1,266.8,226.1z"/>
		<path class="st7" d="M308.6,226.1h5.5c1,0,1.8,0.8,1.8,1.8v14.5c0,1-0.8,1.8-1.8,1.8h-5.5c-1,0-1.8-0.8-1.8-1.8v-14.5
			C306.7,226.9,307.6,226.1,308.6,226.1z"/>
		<path class="st7" d="M141.6,266h5.5c1,0,1.8,0.8,1.8,1.8v14.5c0,1-0.8,1.8-1.8,1.8h-5.5c-1,0-1.8-0.8-1.8-1.8v-14.5
			C139.8,266.8,140.6,266,141.6,266z"/>
		<path class="st7" d="M183.3,266h5.5c1,0,1.8,0.8,1.8,1.8v14.5c0,1-0.8,1.8-1.8,1.8h-5.5c-1,0-1.8-0.8-1.8-1.8v-14.5
			C181.5,266.8,182.3,266,183.3,266z"/>
		<path class="st7" d="M225.1,266h5.5c1,0,1.8,0.8,1.8,1.8v14.5c0,1-0.8,1.8-1.8,1.8h-5.5c-1,0-1.8-0.8-1.8-1.8v-14.5
			C223.3,266.8,224.1,266,225.1,266z"/>
		<path class="st7" d="M266.8,266h5.5c1,0,1.8,0.8,1.8,1.8v14.5c0,1-0.8,1.8-1.8,1.8h-5.5c-1,0-1.8-0.8-1.8-1.8v-14.5
			C265,266.8,265.8,266,266.8,266z"/>
		<path class="st7" d="M308.6,266h5.5c1,0,1.8,0.8,1.8,1.8v14.5c0,1-0.8,1.8-1.8,1.8h-5.5c-1,0-1.8-0.8-1.8-1.8v-14.5
			C306.7,266.8,307.6,266,308.6,266z"/>
		<path class="st7" d="M141.6,306h5.5c1,0,1.8,0.8,1.8,1.8v14.5c0,1-0.8,1.8-1.8,1.8h-5.5c-1,0-1.8-0.8-1.8-1.8v-14.5
			C139.8,306.8,140.6,306,141.6,306z"/>
		<path class="st7" d="M183.3,306h5.5c1,0,1.8,0.8,1.8,1.8v14.5c0,1-0.8,1.8-1.8,1.8h-5.5c-1,0-1.8-0.8-1.8-1.8v-14.5
			C181.5,306.8,182.3,306,183.3,306z"/>
		<path class="st7" d="M225.1,306h5.5c1,0,1.8,0.8,1.8,1.8v14.5c0,1-0.8,1.8-1.8,1.8h-5.5c-1,0-1.8-0.8-1.8-1.8v-14.5
			C223.3,306.8,224.1,306,225.1,306z"/>
		<path class="st7" d="M266.8,306h5.5c1,0,1.8,0.8,1.8,1.8v14.5c0,1-0.8,1.8-1.8,1.8h-5.5c-1,0-1.8-0.8-1.8-1.8v-14.5
			C265,306.8,265.8,306,266.8,306z"/>
		<path class="st7" d="M308.6,306h5.5c1,0,1.8,0.8,1.8,1.8v14.5c0,1-0.8,1.8-1.8,1.8h-5.5c-1,0-1.8-0.8-1.8-1.8v-14.5
			C306.7,306.8,307.6,306,308.6,306z"/>
	</g>
	<g class="st1">
		<path class="st8" d="M140.7,144.4h7.3c1.5,0,2.7,1.2,2.7,2.7v16.4c0,1.5-1.2,2.7-2.7,2.7h-7.3c-1.5,0-2.7-1.2-2.7-2.7v-16.4
			C138,145.6,139.2,144.4,140.7,144.4z		">
<title>(0,0)</title>
		</path>
		<path class="st8" d="M182.5,144.4h7.3c1.5,0,2.7,1.2,2.7,2.7v16.4c0,1.5-1.2,2.7-2.7,2.7h-7.3c-1.5,0-2.7-1.2-2.7-2.7v-16.4
			C179.7,145.6,180.9,144.4,182.5,144.4z		">
<title>(1,0)</title>
		</path>
		<path class="st8" d="M224.2,144.4h7.3c1.5,0,2.7,1.2,2.7,2.7v16.4c0,1.5-1.2,2.7-2.7,2.7h-7.3c-1.5,0-2.7-1.2-2.7-2.7v-16.4
			C221.5,145.6,222.7,144.4,224.2,144.4z		">
<title>(2,0)</title>
		</path>
		<path class="st8" d="M265.9,144.4h7.3c1.5,0,2.7,1.2,2.7,2.7v16.4c0,1.5-1.2,2.7-2.7,2.7h-7.3c-1.5,0-2.7-1.2-2.7-2.7v-16.4
			C263.2,145.6,264.4,144.4,265.9,144.4z		">
<title>(3,0)</title>
		</path>
		<path class="st8" d="M307.7,144.4h7.3c1.5,0,2.7,1.2,2.7,2.7v16.4c0,1.5-1.2,2.7-2.7,2.7h-7.3c-1.5,0-2.7-1.2-2.7-2.7v-16.4
			C304.9,145.6,306.2,144.4,307.7,144.4z		">
<title>(4,0)</title>
		</path>
		<path class="st8" d="M140.7,184.3h7.3c1.5,0,2.7,1.2,2.7,2.7v16.4c0,1.5-1.2,2.7-2.7,2.7h-7.3c-1.5,0-2.7-1.2-2.7-2.7V187
			C138,185.5,139.2,184.3,140.7,184.3z		">
<title>(0,1)</title>
		</path>
		<path class="st8" d="M182.5,184.3h7.3c1.5,0,2.7,1.2,2.7,2.7v16.4c0,1.5-1.2,2.7-2.7,2.7h-7.3c-1.5,0-2.7-1.2-2.7-2.7V187
			C179.7,185.5,180.9,184.3,182.5,184.3z		">
<title>(1,1)</title>
		</path>
		<path class="st8" d="M224.2,184.3h7.3c1.5,0,2.7,1.2,2.7,2.7v16.4c0,1.5-1.2,2.7-2.7,2.7h-7.3c-1.5,0-2.7-1.2-2.7-2.7V187
			C221.5,185.5,222.7,184.3,224.2,184.3z		">
<title>(2,1)</title>
		</path>
		<path class="st8" d="M265.9,184.3h7.3c1.5,0,2.7,1.2,2.7,2.7v16.4c0,1.5-1.2,2.7-2.7,2.7h-7.3c-1.5,0-2.7-1.2-2.7-2.7V187
			C263.2,185.5,264.4,184.3,265.9,184.3z		">
<title>(3,1)</title>
		</path>
		<path class="st8" d="M307.7,184.3h7.3c1.5,0,2.7,1.2,2.7,2.7v16.4c0,1.5-1.2,2.7-2.7,2.7h-7.3c-1.5,0-2.7-1.2-2.7-2.7V187
			C304.9,185.5,306.2,184.3,307.7,184.3z		">
<title>(4,1)</title>
		</path>
		<path class="st8" d="M140.7,224.2h7.3c1.5,0,2.7,1.2,2.7,2.7v16.4c0,1.5-1.2,2.7-2.7,2.7h-7.3c-1.5,0-2.7-1.2-2.7-2.7V227
			C138,225.5,139.2,224.2,140.7,224.2z		">
<title>(0,2)</title>
		</path>
		<path class="st8" d="M182.5,224.2h7.3c1.5,0,2.7,1.2,2.7,2.7v16.4c0,1.5-1.2,2.7-2.7,2.7h-7.3c-1.5,0-2.7-1.2-2.7-2.7V227
			C179.7,225.5,180.9,224.2,182.5,224.2z		">
<title>(1,2)</title>
		</path>
		<path class="st8" d="M224.2,224.2h7.3c1.5,0,2.7,1.2,2.7,2.7v16.4c0,1.5-1.2,2.7-2.7,2.7h-7.3c-1.5,0-2.7-1.2-2.7-2.7V227
			C221.5,225.5,222.7,224.2,224.2,224.2z		">
<title>(2,2)</title>
		</path>
		<path class="st8" d="M265.9,224.2h7.3c1.5,0,2.7,1.2,2.7,2.7v16.4c0,1.5-1.2,2.7-2.7,2.7h-7.3c-1.5,0-2.7-1.2-2.7-2.7V227
			C263.2,225.5,264.4,224.2,265.9,224.2z		">
<title>(3,2)</title>
		</path>
		<path class="st8" d="M307.7,224.2h7.3c1.5,0,2.7,1.2,2.7,2.7v16.4c0,1.5-1.2,2.7-2.7,2.7h-7.3c-1.5,0-2.7-1.2-2.7-2.7V227
			C304.9,225.5,306.2,224.2,307.7,224.2z		">
<title>(4,2)</title>
		</path>
		<path class="st8" d="M140.7,264.2h7.3c1.5,0,2.7,1.2,2.7,2.7v16.4c0,1.5-1.2,2.7-2.7,2.7h-7.3c-1.5,0-2.7-1.2-2.7-2.7v-16.4
			C138,265.4,139.2,264.2,140.7,264.2z		">
<title>(0,3)</title>
		</path>
		<path class="st8" d="M182.5,264.2h7.3c1.5,0,2.7,1.2,2.7,2.7v16.4c0,1.5-1.2,2.7-2.7,2.7h-7.3c-1.5,0-2.7-1.2-2.7-2.7v-16.4
			C179.7,265.4,180.9,264.2,182.5,264.2z		">
<title>(1,3)</title>
		</path>
		<path class="st8" d="M224.2,264.2h7.3c1.5,0,2.7,1.2,2.7,2.7v16.4c0,1.5-1.2,2.7-2.7,2.7h-7.3c-1.5,0-2.7-1.2-2.7-2.7v-16.4
			C221.5,265.4,222.7,264.2,224.2,264.2z		">
<title>(2,3)</title>
		</path>
		<path class="st8" d="M265.9,264.2h7.3c1.5,0,2.7,1.2,2.7,2.7v16.4c0,1.5-1.2,2.7-2.7,2.7h-7.3c-1.5,0-2.7-1.2-2.7-2.7v-16.4
			C263.2,265.4,264.4,264.2,265.9,264.2z		">
<title>(3,3)</title>
		</path>
		<path class="st8" d="M307.7,264.2h7.3c1.5,0,2.7,1.2,2.7,2.7v16.4c0,1.5-1.2,2.7-2.7,2.7h-7.3c-1.5,0-2.7-1.2-2.7-2.7v-16.4
			C304.9,265.4,306.2,264.2,307.7,264.2z		">
<title>(4,3)</title>
		</path>
		<path class="st8" d="M140.7,304.1h7.3c1.5,0,2.7,1.2,2.7,2.7v16.4c0,1.5-1.2,2.7-2.7,2.7h-7.3c-1.5,0-2.7-1.2-2.7-2.7v-16.4
			C138,305.3,139.2,304.1,140.7,304.1z		">
<title>(0,4)</title>
		</path>
		<path class="st8" d="M182.5,304.1h7.3c1.5,0,2.7,1.2,2.7,2.7v16.4c0,1.5-1.2,2.7-2.7,2.7h-7.3c-1.5,0-2.7-1.2-2.7-2.7v-16.4
			C179.7,305.3,180.9,304.1,182.5,304.1z		">
<title>(1,4)</title>
		</path>
		<path class="st8" d="M224.2,304.1h7.3c1.5,0,2.7,1.2,2.7,2.7v16.4c0,1.5-1.2,2.7-2.7,2.7h-7.3c-1.5,0-2.7-1.2-2.7-2.7v-16.4
			C221.5,305.3,222.7,304.1,224.2,304.1z		">
<title>(2,4)</title>
		</path>
		<path class="st8" d="M265.9,304.1h7.3c1.5,0,2.7,1.2,2.7,2.7v16.4c0,1.5-1.2,2.7-2.7,2.7h-7.3c-1.5,0-2.7-1.2-2.7-2.7v-16.4
			C263.2,305.3,264.4,304.1,265.9,304.1z		">
<title>(3,4)</title>
		</path>
		<path class="st8" d="M307.7,304.1h7.3c1.5,0,2.7,1.2,2.7,2.7v16.4c0,1.5-1.2,2.7-2.7,2.7h-7.3c-1.5,0-2.7-1.2-2.7-2.7v-16.4
			C304.9,305.3,306.2,304.1,307.7,304.1z		">
<title>(4,4)</title>
		</path>
	</g>
	<g>
		<circle class="st9" cx="234.1" cy="95.7" r="90.8"/>
		<path class="st6" d="M245,73.2L245,73.2h-35.8l0,0c-12.8,0.1-22.3,9.7-22.3,22.5c0,12.6,9.5,22.1,22.1,22.4l0,0h36
			c12.9,0,22.5-9.6,22.5-22.4C267.3,83,257.8,73.3,245,73.2 M244.8,108.6L244.8,108.6h-35.6c-7-0.1-12.7-5.8-12.7-12.9
			s5.8-12.9,12.9-12.9h35.5c7.1,0,12.9,5.8,12.9,12.9C257.7,102.9,251.9,108.6,244.8,108.6"/>
		<path class="st6" d="M209.3,90.9c-2.6,0-4.8,2.2-4.8,4.8s2.2,4.8,4.8,4.8c2.6,0,4.8-2.2,4.8-4.8C214.1,93.1,211.9,90.9,209.3,90.9
			"/>
		<path class="st6" d="M244.8,100.5c2.6,0,4.8-2.2,4.8-4.8s-2.2-4.8-4.8-4.8c-2.6,0-4.8,2.2-4.8,4.8S242.2,100.5,244.8,100.5"/>
	</g>
	
		<linearGradient id="SVGID_1_" gradientUnits="userSpaceOnUse" x1="-1862.2386" y1="875.9787" x2="-1862.2386" y2="876.6004" gradientTransform="matrix(69.4493 0 0 128.9774 129367.6953 -112665.625)">
		<stop  offset="0" style="stop-color:#D4AF37"/>
		<stop  offset="1" style="stop-color:#D4AF37"/>
		<stop  offset="1" style="stop-color:#FF5500"/>
		<stop  offset="1" style="stop-color:#FF5500"/>
	</linearGradient>
	<path class="st10" d="M15,337.3c0,0.4-0.1,0.8-0.1,1.2v55.1c3.7,1.6,7.8,2.4,11.7,2.4h31.2v-58.7h0.2v-0.1
		c0-11.8-9.6-21.4-21.5-21.4C24.7,315.9,15,325.4,15,337.3z M19.2,337.7c0-9.7,7.9-17.5,17.5-17.5c9.7,0,17.5,7.9,17.5,17.5
		c0,9.7-7.8,17.5-17.5,17.5C27.1,355.2,19.2,347.3,19.2,337.7z	">
<title>P0, ANALOG IN</title>
	</path>
	
		<linearGradient id="SVGID_2_" gradientUnits="userSpaceOnUse" x1="-1862.2587" y1="875.9544" x2="-1862.2587" y2="876.5764" gradientTransform="matrix(67.4067 0 0 129.4151 125654.9297 -113046.1406)">
		<stop  offset="0" style="stop-color:#D4AF37"/>
		<stop  offset="1" style="stop-color:#D4AF37"/>
		<stop  offset="1" style="stop-color:#FF5500"/>
		<stop  offset="1" style="stop-color:#FF5500"/>
	</linearGradient>
	<path class="st11" d="M126.2,315.6c-11.6,0-20,9.3-21,21v59.5h41.9v-59.5C147.2,325,137.9,315.6,126.2,315.6z M126.4,354.5
		c-9.7,0-17.5-7.8-17.5-17.5c0-9.8,7.8-17.5,17.5-17.5c9.7,0,17.5,7.9,17.5,17.5C143.9,346.6,136.1,354.5,126.4,354.5z	">
<title>P1, ANALOG IN</title>
	</path>
	
		<linearGradient id="SVGID_3_" gradientUnits="userSpaceOnUse" x1="-1863.1571" y1="875.9544" x2="-1863.1571" y2="876.5764" gradientTransform="matrix(67.4067 0 0 129.4151 125815.2734 -113046.1406)">
		<stop  offset="0" style="stop-color:#D4AF37"/>
		<stop  offset="1" style="stop-color:#D4AF37"/>
		<stop  offset="1" style="stop-color:#FF5500"/>
		<stop  offset="1" style="stop-color:#FF5500"/>
	</linearGradient>
	<path class="st12" d="M226,315.6c-11.6,0-20,9.3-21,21v59.5H247v-59.5C247,325,237.6,315.6,226,315.6z M226.4,354.5
		c-9.7,0-17.5-7.8-17.5-17.5c0-9.8,7.8-17.5,17.5-17.5c9.7,0,17.5,7.9,17.5,17.5C243.9,346.6,236.1,354.5,226.4,354.5z	">
<title>P2, ANALOG IN</title>
	</path>
	
		<linearGradient id="SVGID_4_" gradientUnits="userSpaceOnUse" x1="-1801.2705" y1="882.8568" x2="-1801.2705" y2="883.479" gradientTransform="matrix(21.0099 0 0 64.7805 37851.043 -56839.6172)">
		<stop  offset="0" style="stop-color:#D4AF37"/>
		<stop  offset="1" style="stop-color:#D4AF37"/>
		<stop  offset="1" style="stop-color:#FF5500"/>
		<stop  offset="1" style="stop-color:#FF5500"/>
	</linearGradient>
	<path class="st13" d="M0,352.3v17.4c0,9.8,5.6,18.4,13.1,22.9v-40.3H0L0,352.3z	">
<title>P3, ANALOG IN, LED Col 1</title>
	</path>
	
		<linearGradient id="SVGID_5_" gradientUnits="userSpaceOnUse" x1="-1765.4119" y1="881.2776" x2="-1765.4119" y2="881.9001" gradientTransform="matrix(14.5902 0 0 72.951 25822.7832 -63938.7266)">
		<stop  offset="0" style="stop-color:#D4AF37"/>
		<stop  offset="1" style="stop-color:#D4AF37"/>
		<stop  offset="1" style="stop-color:#FF5500"/>
		<stop  offset="1" style="stop-color:#FF5500"/>
	</linearGradient>
	<rect x="60.5" y="351.4" class="st14" width="9.1" height="45.4">
	<title>P4, ANALOG IN, LED Col 2</title>
	</rect>
	
		<linearGradient id="SVGID_6_" gradientUnits="userSpaceOnUse" x1="-1765.8802" y1="881.2776" x2="-1765.8802" y2="881.9001" gradientTransform="matrix(14.5902 0 0 72.951 25840.875 -63938.7266)">
		<stop  offset="0" style="stop-color:#D4AF37"/>
		<stop  offset="1" style="stop-color:#D4AF37"/>
		<stop  offset="1" style="stop-color:#FF5500"/>
		<stop  offset="1" style="stop-color:#FF5500"/>
	</linearGradient>
	<rect x="71.8" y="351.4" class="st15" width="9.1" height="45.4">
	<title>P5, BUTTON A</title>
	</rect>
	
		<linearGradient id="SVGID_7_" gradientUnits="userSpaceOnUse" x1="-1766.347" y1="881.2776" x2="-1766.347" y2="881.9001" gradientTransform="matrix(14.5902 0 0 72.951 25858.8203 -63938.7266)">
		<stop  offset="0" style="stop-color:#D4AF37"/>
		<stop  offset="1" style="stop-color:#D4AF37"/>
		<stop  offset="1" style="stop-color:#FF5500"/>
		<stop  offset="1" style="stop-color:#FF5500"/>
	</linearGradient>
	<rect x="82.9" y="351.4" class="st16" width="9.1" height="45.4">
	<title>P6, LED Col 9</title>
	</rect>
	
		<linearGradient id="SVGID_8_" gradientUnits="userSpaceOnUse" x1="-1766.8096" y1="881.2776" x2="-1766.8096" y2="881.9001" gradientTransform="matrix(14.5902 0 0 72.951 25876.7656 -63938.7266)">
		<stop  offset="0" style="stop-color:#D4AF37"/>
		<stop  offset="1" style="stop-color:#D4AF37"/>
		<stop  offset="1" style="stop-color:#FF5500"/>
		<stop  offset="1" style="stop-color:#FF5500"/>
	</linearGradient>
	<rect x="94.1" y="351.4" class="st17" width="9.1" height="45.4">
	<title>P7, LED Col 8</title>
	</rect>
	
		<linearGradient id="SVGID_9_" gradientUnits="userSpaceOnUse" x1="-1769.1005" y1="881.2776" x2="-1769.1005" y2="881.9001" gradientTransform="matrix(14.5902 0 0 72.951 25965.1836 -63938.7266)">
		<stop  offset="0" style="stop-color:#D4AF37"/>
		<stop  offset="1" style="stop-color:#D4AF37"/>
		<stop  offset="1" style="stop-color:#FF5500"/>
		<stop  offset="1" style="stop-color:#FF5500"/>
	</linearGradient>
	<rect x="149.1" y="351.4" class="st18" width="9.1" height="45.4">
	<title>P8</title>
	</rect>
	
		<linearGradient id="SVGID_10_" gradientUnits="userSpaceOnUse" x1="-1769.563" y1="881.2776" x2="-1769.563" y2="881.9001" gradientTransform="matrix(14.5902 0 0 72.951 25983.1289 -63938.7266)">
		<stop  offset="0" style="stop-color:#D4AF37"/>
		<stop  offset="1" style="stop-color:#D4AF37"/>
		<stop  offset="1" style="stop-color:#FF5500"/>
		<stop  offset="1" style="stop-color:#FF5500"/>
	</linearGradient>
	<rect x="160.3" y="351.4" class="st19" width="9.1" height="45.4">
	<title>P9, LED Col 7</title>
	</rect>
	
		<linearGradient id="SVGID_11_" gradientUnits="userSpaceOnUse" x1="-1770.0298" y1="881.2776" x2="-1770.0298" y2="881.9001" gradientTransform="matrix(14.5902 0 0 72.951 26001.0742 -63938.7266)">
		<stop  offset="0" style="stop-color:#D4AF37"/>
		<stop  offset="1" style="stop-color:#D4AF37"/>
		<stop  offset="1" style="stop-color:#FF5500"/>
		<stop  offset="1" style="stop-color:#FF5500"/>
	</linearGradient>
	<rect x="171.4" y="351.4" class="st20" width="9.1" height="45.4">
	<title>P10, ANALOG IN, LED Col 3</title>
	</rect>
	
		<linearGradient id="SVGID_12_" gradientUnits="userSpaceOnUse" x1="-1770.498" y1="881.2776" x2="-1770.498" y2="881.9001" gradientTransform="matrix(14.5902 0 0 72.951 26019.166 -63938.7266)">
		<stop  offset="0" style="stop-color:#D4AF37"/>
		<stop  offset="1" style="stop-color:#D4AF37"/>
		<stop  offset="1" style="stop-color:#FF5500"/>
		<stop  offset="1" style="stop-color:#FF5500"/>
	</linearGradient>
	<rect x="182.7" y="351.4" class="st21" width="9.1" height="45.4">
	<title>P11, BUTTON B</title>
	</rect>
	
		<linearGradient id="SVGID_13_" gradientUnits="userSpaceOnUse" x1="-1770.965" y1="881.2776" x2="-1770.965" y2="881.9001" gradientTransform="matrix(14.5902 0 0 72.951 26037.1133 -63938.7266)">
		<stop  offset="0" style="stop-color:#D4AF37"/>
		<stop  offset="1" style="stop-color:#D4AF37"/>
		<stop  offset="1" style="stop-color:#FF5500"/>
		<stop  offset="1" style="stop-color:#FF5500"/>
	</linearGradient>
	<rect x="193.8" y="351.4" class="st22" width="9.1" height="45.4">
	<title>P12, RESERVED ACCESSIBILITY</title>
	</rect>
	
		<linearGradient id="SVGID_14_" gradientUnits="userSpaceOnUse" x1="-1773.2919" y1="881.2776" x2="-1773.2919" y2="881.9001" gradientTransform="matrix(14.5902 0 0 72.951 26126.9883 -63938.7266)">
		<stop  offset="0" style="stop-color:#D4AF37"/>
		<stop  offset="1" style="stop-color:#D4AF37"/>
		<stop  offset="1" style="stop-color:#FF5500"/>
		<stop  offset="1" style="stop-color:#FF5500"/>
	</linearGradient>
	<rect x="249.8" y="351.4" class="st23" width="9.1" height="45.4">
	<title>P13, SPI - SCK</title>
	</rect>
	
		<linearGradient id="SVGID_15_" gradientUnits="userSpaceOnUse" x1="-1773.7544" y1="881.2776" x2="-1773.7544" y2="881.9001" gradientTransform="matrix(14.5902 0 0 72.951 26144.9336 -63938.7266)">
		<stop  offset="0" style="stop-color:#D4AF37"/>
		<stop  offset="1" style="stop-color:#D4AF37"/>
		<stop  offset="1" style="stop-color:#FF5500"/>
		<stop  offset="1" style="stop-color:#FF5500"/>
	</linearGradient>
	<rect x="261" y="351.4" class="st24" width="9.1" height="45.4">
	<title>P14, SPI - MISO</title>
	</rect>
	
		<linearGradient id="SVGID_16_" gradientUnits="userSpaceOnUse" x1="-1774.2212" y1="881.2776" x2="-1774.2212" y2="881.9001" gradientTransform="matrix(14.5902 0 0 72.951 26162.8809 -63938.7266)">
		<stop  offset="0" style="stop-color:#D4AF37"/>
		<stop  offset="1" style="stop-color:#D4AF37"/>
		<stop  offset="1" style="stop-color:#FF5500"/>
		<stop  offset="1" style="stop-color:#FF5500"/>
	</linearGradient>
	<rect x="272.1" y="351.4" class="st25" width="9.1" height="45.4">
	<title>P15, SPI - MOSI</title>
	</rect>
	
		<linearGradient id="SVGID_17_" gradientUnits="userSpaceOnUse" x1="-1774.6837" y1="881.2776" x2="-1774.6837" y2="881.9001" gradientTransform="matrix(14.5902 0 0 72.951 26180.8262 -63938.7266)">
		<stop  offset="0" style="stop-color:#D4AF37"/>
		<stop  offset="1" style="stop-color:#D4AF37"/>
		<stop  offset="1" style="stop-color:#FF5500"/>
		<stop  offset="1" style="stop-color:#FF5500"/>
	</linearGradient>
	<rect x="283.3" y="351.4" class="st26" width="9.1" height="45.4">
	<title>P16, SPI - Chip Select</title>
	</rect>
	
		<linearGradient id="SVGID_18_" gradientUnits="userSpaceOnUse" x1="-1775.1564" y1="881.2776" x2="-1775.1564" y2="881.9001" gradientTransform="matrix(14.5902 0 0 72.951 26198.918 -63938.7266)">
		<stop  offset="0" style="stop-color:#D4AF37"/>
		<stop  offset="1" style="stop-color:#D4AF37"/>
		<stop  offset="1" style="stop-color:#FF5500"/>
		<stop  offset="1" style="stop-color:#FF5500"/>
	</linearGradient>
	<rect x="294.5" y="351.4" class="st27" width="9.1" height="45.4">
	<title>P17, +3v3</title>
	</rect>
	
		<linearGradient id="SVGID_19_" gradientUnits="userSpaceOnUse" x1="-1777.443" y1="881.2776" x2="-1777.443" y2="881.9001" gradientTransform="matrix(14.5902 0 0 72.951 26287.334 -63938.7266)">
		<stop  offset="0" style="stop-color:#D4AF37"/>
		<stop  offset="1" style="stop-color:#D4AF37"/>
		<stop  offset="1" style="stop-color:#FF5500"/>
		<stop  offset="1" style="stop-color:#FF5500"/>
	</linearGradient>
	<rect x="349.5" y="351.4" class="st28" width="9.1" height="45.4">
	<title>P18, +3v3</title>
	</rect>
	
		<linearGradient id="SVGID_20_" gradientUnits="userSpaceOnUse" x1="-1777.9098" y1="881.2776" x2="-1777.9098" y2="881.9001" gradientTransform="matrix(14.5902 0 0 72.951 26305.2813 -63938.7266)">
		<stop  offset="0" style="stop-color:#D4AF37"/>
		<stop  offset="1" style="stop-color:#D4AF37"/>
		<stop  offset="1" style="stop-color:#FF5500"/>
		<stop  offset="1" style="stop-color:#FF5500"/>
	</linearGradient>
	<rect x="360.7" y="351.4" class="st29" width="9.1" height="45.4">
	<title>P19, I2C - SCL</title>
	</rect>
	
		<linearGradient id="SVGID_21_" gradientUnits="userSpaceOnUse" x1="-1778.3723" y1="881.2776" x2="-1778.3723" y2="881.9001" gradientTransform="matrix(14.5902 0 0 72.951 26323.2266 -63938.7266)">
		<stop  offset="0" style="stop-color:#D4AF37"/>
		<stop  offset="1" style="stop-color:#D4AF37"/>
		<stop  offset="1" style="stop-color:#FF5500"/>
		<stop  offset="1" style="stop-color:#FF5500"/>
	</linearGradient>
	<rect x="371.9" y="351.4" class="st30" width="9.1" height="45.4">
	<title>P20, I2C - SDA</title>
	</rect>
	
		<linearGradient id="SVGID_22_" gradientUnits="userSpaceOnUse" x1="-1778.8391" y1="881.2776" x2="-1778.8391" y2="881.9001" gradientTransform="matrix(14.5902 0 0 72.951 26341.1719 -63938.7266)">
		<stop  offset="0" style="stop-color:#D4AF37"/>
		<stop  offset="1" style="stop-color:#D4AF37"/>
		<stop  offset="1" style="stop-color:#FF5500"/>
		<stop  offset="1" style="stop-color:#FF5500"/>
	</linearGradient>
	<rect x="383" y="351.4" class="st31" width="9.1" height="45.4">
	<title>GND</title>
	</rect>
	
		<linearGradient id="SVGID_23_" gradientUnits="userSpaceOnUse" x1="-1813.9619" y1="882.8888" x2="-1813.9619" y2="883.5105" gradientTransform="matrix(21.0099 0 0 64.6346 38556.625 -56712.875)">
		<stop  offset="0" style="stop-color:#D4AF37"/>
		<stop  offset="1" style="stop-color:#D4AF37"/>
		<stop  offset="1" style="stop-color:#FF5500"/>
		<stop  offset="1" style="stop-color:#FF5500"/>
	</linearGradient>
	<path class="st32" d="M438.9,392.5c7.5-4.5,13.1-13.1,13.1-22.8v-17.4h-13.1V392.5z	">
<title>GND</title>
	</path>
	
		<linearGradient id="SVGID_24_" gradientUnits="userSpaceOnUse" x1="-1864.0643" y1="875.9544" x2="-1864.0643" y2="876.5764" gradientTransform="matrix(67.4067 0 0 129.4151 125977.0781 -113046.1406)">
		<stop  offset="0" style="stop-color:#D4AF37"/>
		<stop  offset="1" style="stop-color:#D4AF37"/>
		<stop  offset="1" style="stop-color:#FF5500"/>
		<stop  offset="1" style="stop-color:#FF5500"/>
	</linearGradient>
	<path class="st33" d="M326.7,315.6c-11.6,0-20,9.3-21,21v59.5h41.9v-59.5C347.6,325,338.3,315.6,326.7,315.6z M326.7,354.5
		c-9.7,0-17.5-7.8-17.5-17.5c0-9.8,7.8-17.5,17.5-17.5c9.8,0,17.5,7.9,17.5,17.5C344.3,346.6,336.4,354.5,326.7,354.5z	">
<title>+3v3</title>
	</path>
	
		<linearGradient id="SVGID_25_" gradientUnits="userSpaceOnUse" x1="-1865.3633" y1="875.9778" x2="-1865.3633" y2="876.5995" gradientTransform="matrix(68.8657 0 0 128.9773 128875.25 -112665.3516)">
		<stop  offset="0" style="stop-color:#D4AF37"/>
		<stop  offset="1" style="stop-color:#D4AF37"/>
		<stop  offset="1" style="stop-color:#FF5500"/>
		<stop  offset="1" style="stop-color:#FF5500"/>
	</linearGradient>
	<path class="st34" d="M415.7,315.9c-11.8,0-21.4,9.6-21.4,21.4v0.1l0,0v58.7h31.4c3.9,0,7.7-0.9,11.4-2.4v-55.1c0-0.4,0-0.8,0-1.2
		C437.1,325.4,427.5,315.9,415.7,315.9z M415.5,355.2c-9.7,0-17.5-7.8-17.5-17.5c0-9.7,7.8-17.5,17.5-17.5c9.7,0,17.5,7.9,17.5,17.5
		S425.1,355.2,415.5,355.2z	">
<title>GND</title>
	</path>
	<g class="st1">
		<path class="st35" d="M28.1,203.7h43.7c2,0,3.6,1.6,3.6,3.6v43.7c0,2-1.6,3.6-3.6,3.6H28.1c-2,0-3.6-1.6-3.6-3.6v-43.7
			C24.5,205.4,26.1,203.7,28.1,203.7z"/>
		<circle class="st36" cx="33.6" cy="212.8" r="5.5"/>
		<circle class="st36" cx="33.6" cy="245.7" r="5.5"/>
		<circle class="st36" cx="66.4" cy="245.7" r="5.5"/>
		<circle class="st36" cx="66.4" cy="212.8" r="5.5"/>
	</g>
	<path class="st1" d="M64.3,228.3c0,7.9-6.3,14.2-14.2,14.2s-14.2-6.3-14.2-14.2c0-7.9,6.3-14.2,14.2-14.2S64.3,220.5,64.3,228.3"/>
	<g class="st1">
		<path class="st35" d="M384.1,203.7h43.7c2,0,3.6,1.6,3.6,3.6v43.7c0,2-1.6,3.6-3.6,3.6h-43.7c-2,0-3.6-1.6-3.6-3.6v-43.7
			C380.5,205.4,382.1,203.7,384.1,203.7z"/>
		<circle class="st36" cx="389.5" cy="212.8" r="5.5"/>
		<circle class="st36" cx="389.5" cy="245.7" r="5.5"/>
		<circle class="st36" cx="422.4" cy="245.7" r="5.5"/>
		<circle class="st36" cx="422.4" cy="212.8" r="5.5"/>
	</g>
	<path class="st1" d="M420.2,228.3c0,7.9-6.3,14.2-14.2,14.2s-14.2-6.3-14.2-14.2c0-7.9,6.3-14.2,14.2-14.2S420.2,220.5,420.2,228.3
		"/>
	<path d="M32.4,369.3c0-2.6,1.9-4.6,5-4.6c3,0,5,2.2,5,4.6v4.3c0,2.6-2,4.6-5,4.6c-3,0-5-2.2-5-4.6V369.3z M39.3,369.3
		c0-1.2-0.7-2.1-2-2.1c-1.2,0-1.9,1-1.9,2.1v4.3c0,1.1,0.7,2.1,1.9,2.1c1.2,0,2-1,2-2.1V369.3z"/>
	<path d="M123.6,367.2c2.6,0,3.1-0.7,3.1-2.2h2.6v12.9h-3.1v-8.6h-2.7v-2.1L123.6,367.2L123.6,367.2z"/>
	<path d="M225.6,371.1c1.6-0.9,2.7-1.6,2.7-2.8c0-1-0.6-1.4-1.4-1.4c-0.9,0-1.6,0.6-1.6,1.9h-3c0-2.4,1.6-4.2,4.6-4.2
		c2.4,0,4.4,1.2,4.4,3.9c0,2.2-2.1,3.5-3.4,4.3c-1.8,1.2-2.2,1.6-2.2,2.6h5.5v2.4h-9.1C222.2,373.6,223.6,372.4,225.6,371.1z"/>
	<path class="st5" d="M43.7,273.5l-0.6-1.6h-4.6l-0.6,1.6h-3.2l4.6-13h2.8l4.7,13H43.7z M40.8,264.3l-1.6,5.3h3.2L40.8,264.3z"/>
	<path class="st5" d="M407.6,150.9h5.3c3.5,0,4.3,2.2,4.3,3.5c0,1.6-1.2,2.6-2.2,2.9c0.8,0,2.4,1,2.4,3c0,1.4-0.7,3.6-4.3,3.6h-5.5
		V150.9z M412.4,156.2c1.4,0,1.8-0.9,1.8-1.6c0-0.6-0.2-1.6-1.8-1.6h-1.8v3.1H412.4z M410.6,158.4v3.2h1.9c1.4,0,1.8-0.9,1.8-1.6
		c0-0.6-0.4-1.6-1.8-1.6L410.6,158.4L410.6,158.4z"/>
	<path d="M319.6,373.5c0,1.4,0.8,2.2,2,2.2c1.1,0,1.7-0.8,1.7-1.7c0-1.1-0.6-1.8-1.9-1.8h-1.2v-2.4h1.2c1.4,0,1.7-0.6,1.7-1.6
		s-0.6-1.4-1.4-1.4c-1.2,0-1.6,0.7-1.6,1.9h-3c0-2.2,1.4-4.2,4.6-4.2c2.4,0,4.5,1.2,4.5,3.6c0,1.4-0.9,2.6-1.9,2.9
		c1.2,0.4,2.1,1.4,2.1,3.2c0,2.4-2.2,3.9-4.7,3.9c-3.2,0-5-1.9-5-4.6L319.6,373.5L319.6,373.5z"/>
	<path d="M334.4,377.9h-2.8l-4.6-13h3.2l2.8,9.1l2.8-9.1h3.3L334.4,377.9z"/>
	<path d="M403.4,370.9h6.7v2.2h-1.4c-0.6,3-2.7,5-6.5,5c-4.4,0-6.8-3.2-6.8-6.8c0-3.5,2.6-6.8,6.8-6.8c3.4,0,5.8,2.1,6,4.5H405
		c-0.2-1-1.2-2-2.8-2c-2.4,0-3.7,2.1-3.7,4.3c0,2.2,1.2,4.3,4,4.3c1.8,0,2.9-1.1,3.1-2.4h-2.2V370.9L403.4,370.9z"/>
	<path d="M418.8,373.3v-8.5h3v13h-3.2l-4.7-8.3v8.3h-3v-13h3.2L418.8,373.3z"/>
	<path d="M429,364.9c4.4,0,6.8,3.2,6.8,6.5s-2.4,6.5-6.8,6.5h-4.8v-13L429,364.9L429,364.9z M427.3,367.5v7.8h1.6
		c2.4,0,3.8-1.9,3.8-3.9c0-2-1.4-3.9-3.8-3.9L427.3,367.5L427.3,367.5z"/>
</g>
</svg>
