<?xml version="1.0" encoding="utf-8"?>
<svg viewBox="0 0 260 220" height="220px" width="260px" id="svg2" version="1.1" xmlns="http://www.w3.org/2000/svg">
  <rect width="260" height="220" style="stroke: rgb(0, 0, 0); stroke-width: 0px; paint-order: stroke; fill-rule: nonzero; fill: rgb(176, 221, 229);"/>
  <g transform="matrix(1.002762, 0, 0, 1, -5.860793, 24.403364)">
    <path d="M 61.188 13.941 L 213.397 14.159 C 220.73 13.935 227.466 19.621 227.917 28.679 L 228.929 71.4 C 228.963 83.801 223.375 88.374 214.778 89.47 L 182.044 89.471 C 163.383 88.3 154.61 63.033 168.643 48.836 C 177.998 39.245 204.655 40.147 204.828 61.478 L 204.575 102.595 C 203.985 113.804 216.182 122.463 219.814 126.737 C 229.808 141.082 217.737 158.02 208.767 157.588 L 145.635 157.588 C 142.77 157.757 138.743 155.128 136.046 152.178 L 50.343 56.866 C 47.056 53.832 44.033 49.115 44.033 45.322 C 43.773 44.888 44.018 29.915 44.033 29.28 C 44.266 19.71 55.894 13.724 61.188 13.941 Z" style="fill: none; stroke-width: 16px; stroke: rgb(255, 255, 255);"/>
    <path d="M 61.188 13.941 L 213.397 14.159 C 220.73 13.935 227.466 19.621 227.917 28.679 L 228.929 71.4 C 228.963 83.801 223.375 88.374 214.778 89.47 L 182.044 89.471 C 163.383 88.3 154.61 63.033 168.643 48.836 C 177.998 39.245 204.655 40.147 204.828 61.478 L 204.575 102.595 C 203.985 113.804 216.182 122.463 219.814 126.737 C 229.808 141.082 217.737 158.02 208.767 157.588 L 145.635 157.588 C 142.77 157.757 138.743 155.128 136.046 152.178 L 50.343 56.866 C 47.056 53.832 44.033 49.115 44.033 45.322 C 43.773 44.888 44.018 29.915 44.033 29.28 C 44.266 19.71 55.894 13.724 61.188 13.941 Z" style="fill: none; stroke: rgb(0, 0, 0); stroke-width: 4.44px;"/>
  </g>
</svg>