<?xml version="1.0" encoding="UTF-8" standalone="no"?>
<!-- Generator: Adobe Illustrator 16.0.4, SVG Export Plug-In . SVG Version: 6.00 Build 0)  -->

<svg
   xmlns:dc="http://purl.org/dc/elements/1.1/"
   xmlns:cc="http://creativecommons.org/ns#"
   xmlns:rdf="http://www.w3.org/1999/02/22-rdf-syntax-ns#"
   xmlns:svg="http://www.w3.org/2000/svg"
   xmlns="http://www.w3.org/2000/svg"
   xmlns:sodipodi="http://sodipodi.sourceforge.net/DTD/sodipodi-0.dtd"
   xmlns:inkscape="http://www.inkscape.org/namespaces/inkscape"
   version="1.1"
   id="Ebene_1"
   x="0px"
   y="0px"
   width="730"
   height="460"
   viewBox="80 60 730 460"
   enable-background="new 0 0 500 250"
   xml:space="preserve"
   inkscape:version="0.48.5 r10040"
   sodipodi:docname="simpleBackground.svg"><metadata
   id="metadata29"><rdf:RDF><cc:Work
       rdf:about=""><dc:format>image/svg+xml</dc:format><dc:type
         rdf:resource="http://purl.org/dc/dcmitype/StillImage" /><dc:title /></cc:Work></rdf:RDF></metadata><defs
   id="defs27" /><sodipodi:namedview
   pagecolor="#ffffff"
   bordercolor="#666666"
   borderopacity="1"
   objecttolerance="10"
   gridtolerance="10"
   guidetolerance="10"
   inkscape:pageopacity="0"
   inkscape:pageshadow="2"
   inkscape:window-width="1920"
   inkscape:window-height="1018"
   id="namedview25"
   showgrid="false"
   inkscape:zoom="0.70710678"
   inkscape:cx="832.81636"
   inkscape:cy="768.90042"
   inkscape:window-x="-8"
   inkscape:window-y="-8"
   inkscape:window-maximized="1"
   inkscape:current-layer="Ebene_1" />
<path
   style="fill:#ffffff;fill-opacity:1;stroke:none"
   d="M -36.599241,-26.621927 -36.599241,1021.2218 1218.4946,1021.2218 1218.4946,-26.621927 -36.599241,-26.621927 z"
   id="rect3006"
   inkscape:connector-curvature="0" /><path
   stroke-miterlimit="10"
   d="M 209.70862,122.08314 C 209.70862,122.08314 255.58811,117.1635 295.9455,124.54369 336.30289,131.92388 392.37783,144.2237 408.51976,145.69974 424.6617,147.17577 470.54247,151.60388 515.9963,145.69974 561.45013,139.79559 599.68432,129.95632 654.90921,174.72896 710.13411,219.50161 753.0429,261.32217 752.61724,322.82422 752.19158,384.32627 731.80197,431.06647 708.01218,444.35081 684.22239,457.63515 613.70306,470.42796 536.81285,465.99985 459.92264,461.57174 374.96019,460.58722 352.02044,460.58722 329.08069,460.58722 226.27749,460.58575 193.56668,410.89347 160.85588,361.2012 126.02186,270.1784 143.01385,215.56501 160.00583,160.95163 176.57343,129.46332 209.70862,122.08314 z"
   id="path3"
   inkscape:connector-curvature="0"
   style="fill:none;stroke:#000000;stroke-width:10;stroke-miterlimit:10" />
<rect
   x="289.09714"
   y="234.27577"
   clip-rule="evenodd"
   width="40"
   height="80"
   id="rect5"
   style="fill:#0000ff;fill-rule:evenodd" />
<rect
   x="360.65314"
   y="234.27577"
   clip-rule="evenodd"
   width="40"
   height="80"
   id="rect7"
   style="fill:#ffed00;fill-rule:evenodd" />
<rect
   x="432.20914"
   y="234.27577"
   clip-rule="evenodd"
   width="40"
   height="80"
   id="rect9"
   style="fill:#009640;fill-rule:evenodd" />
<rect
   x="503.76514"
   y="234.27577"
   clip-rule="evenodd"
   width="40"
   height="80"
   id="rect11"
   style="fill:#ff0000;fill-rule:evenodd" />



<path
   style="fill:none;stroke:#000000;stroke-width:2;stroke-linecap:butt;stroke-linejoin:miter;stroke-miterlimit:4;stroke-opacity:1;stroke-dasharray:none"
   d="M 354.60171,374.3624 503.60175,374.3624 503.60175,374.3624"
   id="path3794"
   inkscape:connector-curvature="0"
   sodipodi:nodetypes="ccc" /><path
   style="fill:none;stroke:#000000;stroke-width:1px;stroke-linecap:butt;stroke-linejoin:miter;stroke-opacity:1"
   d="M 355.14852,371.01457 355.14852,377.89863"
   id="path3796"
   inkscape:connector-curvature="0"
   sodipodi:nodetypes="cc" /><path
   style="fill:none;stroke:#000000;stroke-width:1px;stroke-linecap:butt;stroke-linejoin:miter;stroke-opacity:1"
   d="M 503.33705,370.83341 503.33705,377.71747"
   id="path3796-5"
   inkscape:connector-curvature="0"
   sodipodi:nodetypes="cc" /><path
   style="fill:none;stroke:#000000;stroke-width:1px;stroke-linecap:butt;stroke-linejoin:miter;stroke-opacity:1"
   d="M 385.21736,370.83342 385.21736,377.71748"
   id="path3796-3"
   inkscape:connector-curvature="0"
   sodipodi:nodetypes="cc" /><path
   style="fill:none;stroke:#000000;stroke-width:0.99999994px;stroke-linecap:butt;stroke-linejoin:miter;stroke-opacity:1"
   d="M 415.17393,370.80805 415.17393,377.69211"
   id="path3796-1"
   inkscape:connector-curvature="0"
   sodipodi:nodetypes="cc" /><path
   style="fill:none;stroke:#000000;stroke-width:0.99999994px;stroke-linecap:butt;stroke-linejoin:miter;stroke-opacity:1"
   d="M 445.17388,370.73921 445.17388,377.62327"
   id="path3796-1-6"
   inkscape:connector-curvature="0"
   sodipodi:nodetypes="cc" /><path
   style="fill:none;stroke:#000000;stroke-width:0.99999994px;stroke-linecap:butt;stroke-linejoin:miter;stroke-opacity:1"
   d="M 475.04903,370.73921 475.04903,377.62327"
   id="path3796-1-8"
   inkscape:connector-curvature="0"
   sodipodi:nodetypes="cc" /></svg>