<?xml version="1.0" encoding="utf-8"?>
<!-- Generator: Adobe Illustrator 21.0.0, SVG Export Plug-In . SVG Version: 6.00 Build 0)  -->
<svg version="1.1" id="Ebene_1" xmlns="http://www.w3.org/2000/svg" xmlns:xlink="http://www.w3.org/1999/xlink" x="0px" y="0px" width="900" height="540" viewBox="0 0 900 540" style="enable-background:new 0 0 900 540;" xml:space="preserve">
<style type="text/css">
	.st0{display:none;}
	.st1{display:inline;fill:#FFFFFF;}
	.st2{display:inline;fill:none;stroke:#000000;stroke-width:10;stroke-miterlimit:10;}
	.st3{display:inline;fill:#0000FF;}
	.st4{display:inline;fill:#FFED00;}
	.st5{display:inline;fill:#009640;}
	.st6{display:inline;fill:#FF0000;}
	.st7{display:inline;fill:none;stroke:#000000;stroke-width:2;}
	.st8{display:inline;fill:none;stroke:#000000;}
	.st9{clip-path:url(#SVGID_2_);fill:#FFF3BF;}
	.st10{clip-path:url(#SVGID_4_);}
	.st11{clip-path:url(#SVGID_6_);}
	.st12{clip-path:url(#SVGID_8_);}
	.st13{clip-path:url(#SVGID_10_);}
	.st14{clip-path:url(#SVGID_12_);}
	.st15{clip-path:url(#SVGID_14_);}
	.st16{clip-path:url(#SVGID_16_);}
	.st17{clip-path:url(#SVGID_18_);fill:#028D35;}
	.st18{clip-path:url(#SVGID_20_);fill:#E3000F;}
	.st19{clip-path:url(#SVGID_22_);fill:#D9DADA;}
	.st20{clip-path:url(#SVGID_24_);fill:#D9DADA;}
	.st21{clip-path:url(#SVGID_26_);}
	.st22{clip-path:url(#SVGID_28_);}
	.st23{fill:#FFDD00;}
	.st24{clip-path:url(#SVGID_30_);fill:#009EE3;}
	.st25{clip-path:url(#SVGID_32_);fill:#009EE3;}
	.st26{clip-path:url(#SVGID_34_);fill:#009EE3;}
	.st27{clip-path:url(#SVGID_36_);fill:#009EE3;}
	.st28{clip-path:url(#SVGID_38_);fill:#009EE3;}
	.st29{clip-path:url(#SVGID_40_);fill:#009EE3;}
	.st30{clip-path:url(#SVGID_42_);fill:#FFDD00;}
	.st31{clip-path:url(#SVGID_44_);fill:#FFDD00;}
	.st32{clip-path:url(#SVGID_46_);fill:#FFDD00;}
	.st33{clip-path:url(#SVGID_48_);fill:#009EE3;}
	.st34{clip-path:url(#SVGID_50_);fill:#FFDD00;}
	.st35{clip-path:url(#SVGID_52_);fill:#FFDD00;}
	.st36{clip-path:url(#SVGID_54_);fill:#FFDD00;}
	.st37{clip-path:url(#SVGID_56_);fill:#FFDD00;}
</style>
<rect class="st1" width="900" height="540"/>
<g id="Ebene_1_1_" inkscape:version="0.48.5 r10040" sodipodi:docname="simpleBackground.svg" xmlns:cc="http://creativecommons.org/ns#" xmlns:dc="http://purl.org/dc/elements/1.1/" xmlns:inkscape="http://www.inkscape.org/namespaces/inkscape" xmlns:rdf="http://www.w3.org/1999/02/22-rdf-syntax-ns#" xmlns:sodipodi="http://sodipodi.sourceforge.net/DTD/sodipodi-0.dtd" xmlns:svg="http://www.w3.org/2000/svg" class="st0">
	<path id="r1ct3006" inkscape:connector-curvature="0" class="st1" d="M-35.6-25.8V1022h1255.1V-25.8H-35.6z"/>
	<path id="path3" inkscape:connector-curvature="0" class="st2" d="M210.7,122.9c0,0,45.9-4.9,86.2,2.5
		c40.4,7.4,96.4,19.7,112.6,21.2c16.1,1.5,62,5.9,107.5,0s83.7-15.7,138.9,29c55.2,44.8,98.1,86.6,97.7,148.1S732.8,431.9,709,445.2
		s-94.3,26.1-171.2,21.6S376,461.4,353,461.4s-125.7,0-158.5-49.7S127,271,144,216.4S177.6,130.3,210.7,122.9z"/>
	<rect id="rect5" x="290.1" y="235.1" class="st3" width="40" height="80"/>
	<rect id="rect7" x="361.7" y="235.1" class="st4" width="40" height="80"/>
	<rect id="rect9" x="433.2" y="235.1" class="st5" width="40" height="80"/>
	<rect id="rect11" x="504.8" y="235.1" class="st6" width="40" height="80"/>
	<path id="path3794" inkscape:connector-curvature="0" sodipodi:nodetypes="ccc" class="st7" d="M355.6,375.2h149l0,0"/>
	<path id="path3796" inkscape:connector-curvature="0" sodipodi:nodetypes="cc" class="st8" d="M356.1,371.8v6.9"/>
	<path id="path3796-5" inkscape:connector-curvature="0" sodipodi:nodetypes="cc" class="st8" d="M504.3,371.6v6.9"/>
	<path id="path3796-3" inkscape:connector-curvature="0" sodipodi:nodetypes="cc" class="st8" d="M386.2,371.6v6.9"/>
	<path id="path3796-1" inkscape:connector-curvature="0" sodipodi:nodetypes="cc" class="st8" d="M416.2,371.6v6.9"/>
	<path id="path3796-1-6" inkscape:connector-curvature="0" sodipodi:nodetypes="cc" class="st8" d="M446.2,371.5v6.9"/>
	<path id="path3796-1-8" inkscape:connector-curvature="0" sodipodi:nodetypes="cc" class="st8" d="M476,371.5v6.9"/>
</g>
<g id="Ebene_2">
	<g>
		<g>
			<g>
				<g>
					<defs>
						<rect id="SVGID_1_" x="-35.5" y="51.5" width="884.9" height="433"/>
					</defs>
					<clipPath id="SVGID_2_">
						<use xlink:href="#SVGID_1_"  style="overflow:visible;"/>
					</clipPath>
					<path class="st9" d="M312,250.3l-11.8-18.8l11.3-7.1c3.2-2.1,6.6-3.7,9.7-3.7c1,0,1.9,0.1,2.8,0.5l23.2,13.1
						c-1.4-0.4-2.8-0.6-4.1-0.6c-3.9,0-7.2,1.6-9.6,3.3L312,250.3 M284.7,267.2c-3.8-2.1-7.8-4.5-9.6-7.4c-1.9-2.9-3.7-9.4,1.1-12.4
						l10-6.6l-2.9-6.9l18.3,10l-0.2,21.6l-3.6-5.7L284.7,267.2 M344.2,267.2l-18.8-10.7l6.7-0.4l-0.1-15c3.7-2.4,7.7-4.6,11.1-4.8
						c0.2,0,0.4,0,0.6,0c3.6,0,9.5,1.7,9.7,7l0.9,12l7.5,0.8L344.2,267.2 M291.8,299.6l-11.7-6.5c-4.4-2.3-8.2-5.3-8.9-9.4l0.3-26.6
						c1.3,5.7,5.4,9,9,10.7l22.1,12.5L291.8,299.6 M326.5,313.7c4.4-3.9,5.2-9.1,5-13l0.2-25.4h22.2v13.4c0.1,5-0.7,9.8-3.9,12.3
						L326.5,313.7 M318.8,315.1c-1,0-2-0.3-3.1-0.8l-10.6-5.6l-4.6,5.9l-0.2-20.8l19-10.2l-3.2,5.9l12.8,7.8c0.1,4.3-0.1,9-1.8,12
						C325.7,311.6,322.5,315.1,318.8,315.1"/>
				</g>
			</g>
			<g>
				<g>
					<defs>
						<rect id="SVGID_3_" x="-35.5" y="51.5" width="884.9" height="433"/>
					</defs>
					<clipPath id="SVGID_4_">
						<use xlink:href="#SVGID_3_"  style="overflow:visible;"/>
					</clipPath>
					<polygon class="st10" points="244.4,118 589.3,374.6 584.6,380.4 239.6,123.8 					"/>
				</g>
			</g>
			<g>
				<g>
					<defs>
						<rect id="SVGID_5_" x="-35.5" y="51.5" width="884.9" height="433"/>
					</defs>
					<clipPath id="SVGID_6_">
						<use xlink:href="#SVGID_5_"  style="overflow:visible;"/>
					</clipPath>
					<polygon class="st11" points="241.9,116.7 587.6,154.5 586.7,161.9 241,124.2 					"/>
				</g>
			</g>
			<g>
				<g>
					<defs>
						<rect id="SVGID_7_" x="-35.5" y="51.5" width="884.9" height="433"/>
					</defs>
					<clipPath id="SVGID_8_">
						<use xlink:href="#SVGID_7_"  style="overflow:visible;"/>
					</clipPath>
					<polygon class="st12" points="244.6,417.8 589.5,161.1 584.8,155.3 239.8,411.9 					"/>
				</g>
			</g>
			<g>
				<g>
					<defs>
						<rect id="SVGID_9_" x="-35.5" y="51.5" width="884.9" height="433"/>
					</defs>
					<clipPath id="SVGID_10_">
						<use xlink:href="#SVGID_9_"  style="overflow:visible;"/>
					</clipPath>
					<path class="st13" d="M243.1,418.6c-14,0-27.5-4.1-40.2-12.2c-12.1-7.7-23-18.7-32.2-32.7c-9.2-13.8-16.4-29.9-21.5-47.8
						c-5.2-18.5-7.8-38.1-7.8-58.3c0-20.2,2.6-39.8,7.8-58.3c5-17.9,12.3-34,21.5-47.8c9.3-14,20.1-25,32.2-32.7
						c12.7-8.1,26.2-12.2,40.2-12.2v8.3c-12.4,0-24.4,3.7-35.8,10.9c-11.1,7.1-21.2,17.3-29.8,30.3c-8.7,13.1-15.6,28.4-20.4,45.5
						c-5,17.7-7.5,36.6-7.5,56s2.5,38.3,7.5,56c4.8,17.1,11.7,32.4,20.4,45.5c8.6,13,18.7,23.2,29.8,30.3
						c11.4,7.2,23.4,10.9,35.8,10.9V418.6z"/>
				</g>
			</g>
			<g>
				<g>
					<defs>
						<rect id="SVGID_11_" x="-35.5" y="51.5" width="884.9" height="433"/>
					</defs>
					<clipPath id="SVGID_12_">
						<use xlink:href="#SVGID_11_"  style="overflow:visible;"/>
					</clipPath>
					<polygon class="st14" points="242.1,419 587.7,381.3 586.8,373.8 241.2,411.5 					"/>
				</g>
			</g>
			<g>
				<g>
					<defs>
						<rect id="SVGID_13_" x="-35.5" y="51.5" width="884.9" height="433"/>
					</defs>
					<clipPath id="SVGID_14_">
						<use xlink:href="#SVGID_13_"  style="overflow:visible;"/>
					</clipPath>
					<rect x="792.9" y="175.8" class="st15" width="7.5" height="196.5"/>
				</g>
			</g>
			<g>
				<g>
					<defs>
						<rect id="SVGID_15_" x="-35.5" y="51.5" width="884.9" height="433"/>
					</defs>
					<clipPath id="SVGID_16_">
						<use xlink:href="#SVGID_15_"  style="overflow:visible;"/>
					</clipPath>
					<rect x="589.6" y="264.2" class="st16" width="203.3" height="7.5"/>
				</g>
			</g>
			<g>
				<g>
					<defs>
						<rect id="SVGID_17_" x="-35.5" y="51.5" width="884.9" height="433"/>
					</defs>
					<clipPath id="SVGID_18_">
						<use xlink:href="#SVGID_17_"  style="overflow:visible;"/>
					</clipPath>
					<rect x="740.2" y="371.4" class="st17" width="113" height="116.7"/>
				</g>
			</g>
			<g>
				<g>
					<defs>
						<rect id="SVGID_19_" x="-35.5" y="51.5" width="884.9" height="433"/>
					</defs>
					<clipPath id="SVGID_20_">
						<use xlink:href="#SVGID_19_"  style="overflow:visible;"/>
					</clipPath>
					<rect x="736.4" y="47.7" class="st18" width="116.7" height="120.6"/>
				</g>
			</g>
			<g>
				<g>
					<defs>
						<rect id="SVGID_21_" x="-35.5" y="51.5" width="884.9" height="433"/>
					</defs>
					<clipPath id="SVGID_22_">
						<use xlink:href="#SVGID_21_"  style="overflow:visible;"/>
					</clipPath>
					<rect x="736.4" y="168.2" class="st19" width="116.7" height="7.5"/>
				</g>
			</g>
			<g>
				<g>
					<defs>
						<rect id="SVGID_23_" x="-35.5" y="51.5" width="884.9" height="433"/>
					</defs>
					<clipPath id="SVGID_24_">
						<use xlink:href="#SVGID_23_"  style="overflow:visible;"/>
					</clipPath>
					<rect x="732.6" y="371.4" class="st20" width="7.5" height="116.7"/>
				</g>
			</g>
			<g>
				<g>
					<defs>
						<rect id="SVGID_25_" x="-35.5" y="51.5" width="884.9" height="433"/>
					</defs>
					<clipPath id="SVGID_26_">
						<use xlink:href="#SVGID_25_"  style="overflow:visible;"/>
					</clipPath>
					<rect x="582" y="158.8" class="st21" width="7.5" height="218.4"/>
				</g>
			</g>
			<g>
				<g>
					<defs>
						<rect id="SVGID_27_" x="-35.5" y="51.5" width="884.9" height="433"/>
					</defs>
					<clipPath id="SVGID_28_">
						<use xlink:href="#SVGID_27_"  style="overflow:visible;"/>
					</clipPath>
					<rect x="239.4" y="120.9" class="st22" width="7.5" height="293.7"/>
				</g>
			</g>
			<rect x="60" width="7.5" height="540"/>
			<rect class="st23" width="60.2" height="540"/>
			<g>
				<g>
					<defs>
						<rect id="SVGID_29_" x="-35.5" y="51.5" width="884.9" height="433"/>
					</defs>
					<clipPath id="SVGID_30_">
						<use xlink:href="#SVGID_29_"  style="overflow:visible;"/>
					</clipPath>
					<rect x="579.8" y="152.8" class="st24" width="12" height="12"/>
				</g>
			</g>
			<g>
				<g>
					<defs>
						<rect id="SVGID_31_" x="-35.5" y="51.5" width="884.9" height="433"/>
					</defs>
					<clipPath id="SVGID_32_">
						<use xlink:href="#SVGID_31_"  style="overflow:visible;"/>
					</clipPath>
					<rect x="237.1" y="114.8" class="st25" width="12" height="12"/>
				</g>
			</g>
			<g>
				<g>
					<defs>
						<rect id="SVGID_33_" x="-35.5" y="51.5" width="884.9" height="433"/>
					</defs>
					<clipPath id="SVGID_34_">
						<use xlink:href="#SVGID_33_"  style="overflow:visible;"/>
					</clipPath>
					<rect x="579.8" y="371.2" class="st26" width="12" height="12"/>
				</g>
			</g>
			<g>
				<g>
					<defs>
						<rect id="SVGID_35_" x="-35.5" y="51.5" width="884.9" height="433"/>
					</defs>
					<clipPath id="SVGID_36_">
						<use xlink:href="#SVGID_35_"  style="overflow:visible;"/>
					</clipPath>
					<rect x="237.1" y="408.5" class="st27" width="12" height="12"/>
				</g>
			</g>
			<g>
				<g>
					<defs>
						
							<rect id="SVGID_37_" x="-128.3" y="-83.9" transform="matrix(0.7999 -0.6001 0.6001 0.7999 -16.7345 215.0973)" width="885" height="433"/>
					</defs>
					<clipPath id="SVGID_38_">
						<use xlink:href="#SVGID_37_"  style="overflow:visible;"/>
					</clipPath>
					
						<rect x="151.6" y="333.4" transform="matrix(0.9487 -0.3163 0.3163 0.9487 -99.2703 67.2755)" class="st28" width="12" height="12.1"/>
				</g>
			</g>
			<g>
				<g>
					<defs>
						
							<rect id="SVGID_39_" x="-68.1" y="-163.1" transform="matrix(0.6489 -0.7608 0.7608 0.6489 90.7889 303.6019)" width="884.9" height="433"/>
					</defs>
					<clipPath id="SVGID_40_">
						<use xlink:href="#SVGID_39_"  style="overflow:visible;"/>
					</clipPath>
					
						<rect x="152.2" y="189.9" transform="matrix(0.3458 -0.9383 0.9383 0.3458 -80.3308 276.5356)" class="st29" width="12" height="12"/>
				</g>
			</g>
			<g>
				<g>
					<defs>
						<rect id="SVGID_41_" x="-35.5" y="51.5" width="884.9" height="433"/>
					</defs>
					<clipPath id="SVGID_42_">
						<use xlink:href="#SVGID_41_"  style="overflow:visible;"/>
					</clipPath>
					<path class="st30" d="M267,120.9h-0.7c0,6.3-2.6,12-6.7,16.2c-4.1,4.1-9.9,6.7-16.2,6.7s-12-2.6-16.2-6.7
						c-4.1-4.1-6.7-9.9-6.7-16.2c0-6.3,2.6-12,6.7-16.2c4.1-4.1,9.9-6.7,16.2-6.7s12,2.6,16.2,6.7c4.1,4.1,6.7,9.9,6.7,16.2
						L267,120.9l0.7,0c0-6.7-2.7-12.7-7.1-17.1s-10.4-7.1-17.1-7.1c-6.7,0-12.7,2.7-17.1,7.1c-4.4,4.4-7.1,10.4-7.1,17.1
						s2.7,12.7,7.1,17.1c4.4,4.4,10.4,7.1,17.1,7.1c6.7,0,12.7-2.7,17.1-7.1c4.4-4.4,7.1-10.4,7.1-17.1L267,120.9L267,120.9z"/>
				</g>
			</g>
			<g>
				<g>
					<defs>
						<rect id="SVGID_43_" x="-35.5" y="51.5" width="884.9" height="433"/>
					</defs>
					<clipPath id="SVGID_44_">
						<use xlink:href="#SVGID_43_"  style="overflow:visible;"/>
					</clipPath>
					<path class="st31" d="M609.3,158.8h-0.7c0,6.3-2.6,12-6.7,16.2c-4.1,4.1-9.9,6.7-16.2,6.7s-12-2.6-16.2-6.7
						c-4.1-4.1-6.7-9.9-6.7-16.2s2.6-12,6.7-16.2c4.1-4.1,9.9-6.7,16.2-6.7s12,2.6,16.2,6.7c4.1,4.1,6.7,9.9,6.7,16.2H609.3h0.7
						c0-6.7-2.7-12.7-7.1-17.1c-4.4-4.4-10.4-7.1-17.1-7.1c-6.7,0-12.7,2.7-17.1,7.1c-4.4,4.4-7.1,10.4-7.1,17.1
						c0,6.7,2.7,12.7,7.1,17.1c4.4,4.4,10.4,7.1,17.1,7.1c6.7,0,12.7-2.7,17.1-7.1c4.4-4.4,7.1-10.4,7.1-17.1H609.3z"/>
				</g>
			</g>
			<g>
				<g>
					<defs>
						<rect id="SVGID_45_" x="-35.5" y="51.5" width="884.9" height="433"/>
					</defs>
					<clipPath id="SVGID_46_">
						<use xlink:href="#SVGID_45_"  style="overflow:visible;"/>
					</clipPath>
					<path class="st32" d="M609.3,377.2h-0.7c0,6.3-2.6,12-6.7,16.2c-4.1,4.1-9.9,6.7-16.2,6.7s-12-2.6-16.2-6.7
						c-4.1-4.1-6.7-9.9-6.7-16.2c0-6.3,2.6-12,6.7-16.2c4.1-4.1,9.9-6.7,16.2-6.7s12,2.6,16.2,6.7c4.1,4.1,6.7,9.9,6.7,16.2H609.3
						h0.7c0-6.7-2.7-12.7-7.1-17.1c-4.4-4.4-10.4-7.1-17.1-7.1c-6.7,0-12.7,2.7-17.1,7.1c-4.4,4.4-7.1,10.4-7.1,17.1
						s2.7,12.7,7.1,17.1c4.4,4.4,10.4,7.1,17.1,7.1c6.7,0,12.7-2.7,17.1-7.1c4.4-4.4,7.1-10.4,7.1-17.1H609.3z"/>
				</g>
			</g>
			<g>
				<g>
					<defs>
						<rect id="SVGID_47_" x="223.1" y="-141.8" width="433" height="884.9"/>
					</defs>
					<clipPath id="SVGID_48_">
						<use xlink:href="#SVGID_47_"  style="overflow:visible;"/>
					</clipPath>
					
						<rect x="433.6" y="262" transform="matrix(0.7071 -0.7071 0.7071 0.7071 -60.7479 389.3375)" class="st33" width="12" height="12"/>
				</g>
			</g>
			<g>
				<g>
					<defs>
						<rect id="SVGID_49_" x="-35.5" y="51.5" width="884.9" height="433"/>
					</defs>
					<clipPath id="SVGID_50_">
						<use xlink:href="#SVGID_49_"  style="overflow:visible;"/>
					</clipPath>
					<path class="st34" d="M456.3,251.4l-0.5,0.5c2.2,2.2,3.9,4.8,5,7.6c1.1,2.8,1.7,5.7,1.7,8.7c0,5.8-2.3,11.6-6.7,16.1
						c-4.4,4.4-10.3,6.7-16.1,6.7c-2.9,0-5.9-0.6-8.7-1.7c-2.8-1.1-5.4-2.8-7.6-5s-3.9-4.8-5-7.6c-1.1-2.8-1.7-5.7-1.7-8.7
						c0-5.8,2.3-11.6,6.7-16.1c4.4-4.4,10.3-6.7,16.1-6.7c2.9,0,5.9,0.6,8.7,1.7c2.8,1.1,5.4,2.8,7.6,5L456.3,251.4l0.5-0.5
						c-2.4-2.4-5.1-4.1-8.1-5.3c-2.9-1.2-6-1.8-9.2-1.8c-6.2,0-12.3,2.4-17,7.1c-4.7,4.7-7.1,10.9-7.1,17c0,3.1,0.6,6.2,1.8,9.2
						c1.2,2.9,3,5.7,5.3,8.1c2.4,2.4,5.1,4.1,8.1,5.3c2.9,1.2,6,1.8,9.2,1.8c6.2,0,12.3-2.4,17-7.1s7.1-10.9,7.1-17
						c0-3.1-0.6-6.2-1.8-9.2c-1.2-2.9-3-5.7-5.3-8.1L456.3,251.4z"/>
				</g>
			</g>
			<g>
				<g>
					<defs>
						<rect id="SVGID_51_" x="-35.5" y="51.5" width="884.9" height="433"/>
					</defs>
					<clipPath id="SVGID_52_">
						<use xlink:href="#SVGID_51_"  style="overflow:visible;"/>
					</clipPath>
					<path class="st35" d="M267,414.5h-0.7c0,6.3-2.6,12-6.7,16.2c-4.1,4.1-9.9,6.7-16.2,6.7s-12-2.6-16.2-6.7
						c-4.1-4.1-6.7-9.9-6.7-16.2c0-6.3,2.6-12,6.7-16.2c4.1-4.1,9.9-6.7,16.2-6.7s12,2.6,16.2,6.7c4.1,4.1,6.7,9.9,6.7,16.2H267h0.7
						c0-6.7-2.7-12.7-7.1-17.1s-10.4-7.1-17.1-7.1c-6.7,0-12.7,2.7-17.1,7.1c-4.4,4.4-7.1,10.4-7.1,17.1s2.7,12.7,7.1,17.1
						c4.4,4.4,10.4,7.1,17.1,7.1c6.7,0,12.7-2.7,17.1-7.1s7.1-10.4,7.1-17.1H267z"/>
				</g>
			</g>
			<g>
				<g>
					<defs>
						<rect id="SVGID_53_" x="-35.5" y="51.5" width="884.9" height="433"/>
					</defs>
					<clipPath id="SVGID_54_">
						<use xlink:href="#SVGID_53_"  style="overflow:visible;"/>
					</clipPath>
					<path class="st36" d="M181.7,339.5H181c0,6.3-2.6,12-6.7,16.2c-4.1,4.1-9.9,6.7-16.2,6.7s-12-2.6-16.2-6.7
						c-4.1-4.1-6.7-9.9-6.7-16.2c0-6.3,2.6-12,6.7-16.2c4.1-4.1,9.9-6.7,16.2-6.7s12,2.6,16.2,6.7c4.1,4.1,6.7,9.9,6.7,16.2H181.7
						h0.7c0-6.7-2.7-12.7-7.1-17.1c-4.4-4.4-10.4-7.1-17.1-7.1c-6.7,0-12.7,2.7-17.1,7.1c-4.4,4.4-7.1,10.4-7.1,17.1
						s2.7,12.7,7.1,17.1c4.4,4.4,10.4,7.1,17.1,7.1c6.7,0,12.7-2.7,17.1-7.1c4.4-4.4,7.1-10.4,7.1-17.1H181.7z"/>
				</g>
			</g>
			<g>
				<g>
					<defs>
						<rect id="SVGID_55_" x="-35.5" y="51.5" width="884.9" height="433"/>
					</defs>
					<clipPath id="SVGID_56_">
						<use xlink:href="#SVGID_55_"  style="overflow:visible;"/>
					</clipPath>
					<path class="st37" d="M181.7,195.9H181c0,6.3-2.6,12-6.7,16.2c-4.1,4.1-9.9,6.7-16.2,6.7s-12-2.6-16.2-6.7
						c-4.1-4.1-6.7-9.9-6.7-16.2s2.6-12,6.7-16.2c4.1-4.1,9.9-6.7,16.2-6.7s12,2.6,16.2,6.7c4.1,4.1,6.7,9.9,6.7,16.2H181.7h0.7
						c0-6.7-2.7-12.7-7.1-17.1c-4.4-4.4-10.4-7.1-17.1-7.1c-6.7,0-12.7,2.7-17.1,7.1c-4.4,4.4-7.1,10.4-7.1,17.1
						c0,6.7,2.7,12.7,7.1,17.1c4.4,4.4,10.4,7.1,17.1,7.1c6.7,0,12.7-2.7,17.1-7.1c4.4-4.4,7.1-10.4,7.1-17.1H181.7z"/>
				</g>
			</g>
		</g>
	</g>
</g>
</svg>
