<?xml version="1.0" standalone="no"?>
<!DOCTYPE svg PUBLIC "-//W3C//DTD SVG 20010904//EN"
 "http://www.w3.org/TR/2001/REC-SVG-20010904/DTD/svg10.dtd">
<svg version="1.0" xmlns="http://www.w3.org/2000/svg"
 width="640.000000pt" height="588.000000pt" viewBox="0 0 640.000000 588.000000"
 preserveAspectRatio="xMidYMid meet">

<g transform="translate(0.000000,588.000000) scale(0.100000,-0.100000)"
fill="#000000" stroke="none">
<path d="M3029 5763 c-15 -128 -19 -716 -6 -766 8 -28 10 -29 54 -23 37 4 49
2 59 -12 18 -23 19 -116 1 -109 -9 3 -11 -6 -9 -35 2 -21 0 -38 -4 -37 -28 5
-54 -2 -48 -12 5 -8 -1 -10 -19 -7 -15 3 -24 2 -22 -3 3 -4 -1 -9 -7 -12 -8
-2 -9 -8 -4 -13 5 -5 11 -4 13 4 3 6 10 12 16 12 7 -1 3 -9 -9 -18 -22 -18
-28 -52 -10 -52 6 0 4 -5 -4 -10 -13 -8 -12 -10 3 -10 12 0 17 -8 17 -30 0
-16 7 -33 15 -37 8 -5 16 -25 17 -45 2 -26 7 -34 17 -30 9 3 12 1 7 -6 -3 -6
-15 -10 -25 -9 -13 1 -17 7 -13 20 3 14 1 18 -9 15 -15 -5 -23 -58 -8 -58 5 0
9 -4 9 -10 0 -5 -18 -10 -40 -10 -38 0 -40 -2 -40 -30 0 -25 3 -29 16 -22 19
10 76 3 68 -9 -3 -5 -23 -9 -45 -9 -24 0 -38 -4 -34 -10 10 -16 82 -12 89 5 3
8 12 15 20 15 7 0 17 7 20 16 3 8 2 13 -2 10 -4 -2 -14 0 -22 5 -12 8 -12 12
-2 16 6 2 12 13 12 23 0 12 6 17 18 15 9 -1 23 2 30 8 16 12 15 7 -3 -36 -18
-44 -19 -68 -2 -62 9 4 11 -16 8 -86 -5 -134 4 -175 40 -193 19 -9 27 -10 22
-3 -4 7 1 6 11 -2 22 -18 56 -22 50 -6 -3 6 2 12 10 12 9 0 12 -6 8 -16 -5
-14 -4 -14 12 -2 25 21 56 22 48 2 -4 -13 -1 -12 16 3 12 11 22 14 22 8 0 -7
5 -12 11 -12 5 0 8 4 5 9 -3 5 7 14 23 19 l30 11 3 148 c2 88 -1 154 -7 162
-7 10 -6 16 3 18 6 3 12 9 12 15 0 6 -6 8 -14 5 -23 -9 -27 22 -4 34 14 8 18
8 14 0 -5 -7 -1 -9 8 -5 9 3 16 11 16 16 0 6 9 8 20 5 11 -3 18 -1 14 4 -3 5
-12 9 -20 9 -17 0 -14 21 6 37 21 16 7 26 -38 26 -46 0 -63 -8 -56 -28 3 -8 3
-19 0 -24 -10 -16 -36 -1 -36 20 0 15 -7 19 -35 19 -23 0 -35 -5 -35 -14 0 -7
-9 -16 -20 -19 -17 -4 -20 -1 -18 21 3 26 1 27 -50 29 -30 1 -56 3 -58 6 -5 5
-6 34 -4 114 1 34 -1 66 -4 71 -3 5 0 21 7 36 l12 27 173 -3 172 -3 0 35 c0
47 10 60 50 65 53 6 60 22 72 141 10 111 5 680 -8 742 l-6 32 -293 0 -293 0
-13 -117z m106 -1180 c-10 -42 -18 -18 -9 29 6 32 9 37 12 19 2 -12 1 -34 -3
-48z m83 -15 c2 -12 -4 -14 -23 -11 -16 4 -25 12 -25 24 0 15 4 17 23 10 12
-5 23 -15 25 -23z m-48 -37 c0 -5 -9 -7 -20 -4 -11 3 -20 7 -20 9 0 2 9 4 20
4 11 0 20 -4 20 -9z m-113 -87 c-3 -3 -12 -4 -19 -1 -8 3 -5 6 6 6 11 1 17 -2
13 -5z"/>
<path d="M3184 4769 c3 -17 6 -38 6 -45 0 -8 8 -14 19 -14 14 0 21 10 26 36 7
42 9 39 -29 48 -28 7 -29 6 -22 -25z m27 -42 c-13 -13 -15 1 -4 30 7 17 8 17
11 -1 2 -10 -1 -23 -7 -29z"/>
<path d="M3452 4753 c2 -20 10 -41 20 -47 22 -13 25 -9 30 38 3 36 1 39 -25
42 -27 3 -28 1 -25 -33z m25 -25 c-3 -7 -5 -2 -5 12 0 14 2 19 5 13 2 -7 2
-19 0 -25z"/>
<path d="M2760 4477 c0 -18 4 -25 14 -21 7 3 16 -2 20 -11 3 -9 10 -13 16 -10
15 9 12 -2 -6 -19 -8 -9 -11 -16 -5 -16 17 0 13 -36 -10 -84 -16 -35 -18 -49
-10 -65 7 -13 8 -28 1 -45 -9 -25 -8 -26 30 -26 35 0 42 4 51 26 7 21 6 31 -7
45 -16 18 -16 19 2 20 15 1 13 3 -6 9 -25 8 -25 8 8 15 34 8 46 40 18 51 -16
6 -18 45 -3 55 12 9 -1 31 -14 24 -5 -4 -9 -4 -9 0 0 3 11 10 25 15 14 5 25
15 25 22 0 10 -3 9 -9 -1 -7 -11 -10 -9 -13 10 -4 34 -45 39 -57 7 l-10 -23 0
24 c-1 18 -4 21 -14 12 -10 -8 -17 -7 -25 1 -9 9 -12 6 -12 -15z m90 -111 c0
-3 -4 -8 -10 -11 -5 -3 -10 -1 -10 4 0 6 5 11 10 11 6 0 10 -2 10 -4z"/>
<path d="M3802 4283 l2 -178 3 173 3 172 123 0 c85 0 127 -4 136 -12 11 -11
13 -10 9 2 -4 12 -30 16 -141 18 l-137 3 2 -178z"/>
<path d="M2621 4406 c-1 -19 -5 -27 -14 -23 -34 13 -59 -48 -48 -113 5 -25 9
-37 10 -27 0 9 6 17 11 17 6 0 10 7 10 15 0 27 17 16 28 -17 8 -26 10 -28 11
-11 1 27 24 21 39 -10 10 -21 11 -21 12 -2 1 27 26 59 39 50 6 -3 11 2 11 13
0 11 3 34 7 52 6 32 5 33 -25 28 -18 -2 -32 0 -32 5 0 5 -6 4 -14 -2 -15 -13
-30 0 -39 34 -3 15 -5 12 -6 -9z"/>
<path d="M3636 4422 c-12 -11 -5 -39 15 -61 23 -25 20 -41 -3 -17 -13 12 -15
9 -17 -32 -1 -26 -4 -56 -7 -67 -3 -12 -2 -15 3 -9 4 7 17 13 28 15 18 4 20
13 23 85 3 74 1 82 -17 87 -11 2 -22 2 -25 -1z m29 -43 c11 -16 1 -19 -13 -3
-7 8 -8 14 -3 14 5 0 13 -5 16 -11z m-5 -74 c0 -8 -4 -15 -10 -15 -5 0 -10 7
-10 15 0 8 5 15 10 15 6 0 10 -7 10 -15z"/>
<path d="M3825 4422 c-5 -5 -7 -81 -2 -83 1 0 21 -2 43 -5 l42 -6 4 42 c2 22
1 44 -2 48 -6 8 -77 12 -85 4z m71 -34 c7 -24 -19 -50 -42 -41 -14 5 -19 44
-7 56 14 15 42 6 49 -15z"/>
<path d="M3590 4333 c0 -47 3 -83 7 -79 11 10 12 166 1 166 -4 0 -8 -39 -8
-87z"/>
<path d="M3973 4413 c-16 -6 -17 -55 -1 -71 7 -7 21 -12 33 -12 12 0 26 5 33
12 7 7 12 21 12 33 0 37 -36 55 -77 38z m52 -38 c0 -23 -5 -30 -19 -30 -28 0
-43 29 -26 50 21 25 45 14 45 -20z"/>
<path d="M3085 4370 c-3 -5 -1 -10 4 -10 6 0 11 5 11 10 0 6 -2 10 -4 10 -3 0
-8 -4 -11 -10z"/>
<path d="M2445 4319 c-3 -20 -5 -49 -3 -64 4 -40 25 -43 22 -4 -2 23 3 33 16
36 10 3 20 13 23 24 4 15 0 19 -18 19 -13 0 -25 6 -28 13 -2 6 -8 -4 -12 -24z"/>
<path d="M3016 4300 c-11 -3 -23 -15 -27 -26 -7 -18 -8 -18 -8 2 -1 17 -7 22
-26 20 -20 -1 -25 -6 -24 -26 0 -14 3 -19 6 -12 2 6 9 10 13 7 5 -3 7 -11 4
-18 -4 -10 8 -12 50 -7 51 6 90 20 53 20 -9 0 -17 10 -19 24 -2 18 -7 22 -22
16z"/>
<path d="M3832 4268 c-17 -17 -15 -42 6 -61 37 -34 76 -11 70 40 -2 23 -8 29
-33 31 -17 2 -36 -3 -43 -10z m63 -18 c7 -23 -10 -50 -31 -50 -21 0 -38 38
-23 56 17 21 47 17 54 -6z"/>
<path d="M3973 4273 c-18 -7 -16 -58 2 -73 22 -19 64 -4 71 25 10 42 -27 67
-73 48z m55 -29 c2 -11 -4 -27 -13 -34 -22 -19 -50 9 -40 39 9 29 49 25 53 -5z"/>
<path d="M3590 4141 c0 -52 3 -91 7 -88 9 10 11 155 1 170 -4 6 -8 -30 -8 -82z"/>
<path d="M3630 4195 c0 -18 4 -24 13 -19 10 6 10 4 0 -7 -7 -7 -13 -37 -13
-66 0 -46 3 -53 20 -53 12 0 20 7 21 18 1 9 3 33 4 52 2 19 -2 41 -8 49 -10
12 -9 13 1 7 10 -6 13 -2 10 15 -2 16 -11 25 -25 27 -19 3 -23 -1 -23 -23z
m25 -45 c-3 -5 -1 -10 6 -10 7 0 10 -3 6 -6 -9 -9 -28 6 -22 17 4 5 8 9 11 9
3 0 2 -4 -1 -10z m7 -45 c0 -5 -5 -11 -11 -13 -6 -2 -11 4 -11 13 0 9 5 15 11
13 6 -2 11 -8 11 -13z"/>
<path d="M2987 4193 c-12 -20 -19 -161 -8 -167 7 -5 11 1 11 14 0 12 4 19 9
15 5 -3 12 -1 16 5 3 5 1 10 -4 10 -6 0 -11 14 -11 30 0 22 5 30 18 31 12 0
11 3 -7 10 -18 7 -22 15 -19 34 5 25 3 31 -5 18z"/>
<path d="M2828 4165 c-3 -3 -24 -6 -45 -7 l-40 0 -1 -65 c-1 -36 1 -63 5 -59
3 3 11 2 17 -3 9 -8 82 -9 146 -2 13 1 13 2 0 12 -12 9 -11 10 7 6 21 -5 22
-1 22 54 -1 48 -4 59 -17 59 -9 1 -33 3 -52 6 -20 3 -38 2 -42 -1z"/>
<path d="M2640 4109 c0 -32 4 -49 11 -47 6 2 10 8 9 13 -1 5 7 12 17 16 17 7
17 8 1 8 -25 1 -23 21 2 21 11 0 20 5 20 11 0 5 -4 8 -9 4 -5 -3 -16 2 -24 10
-24 23 -27 19 -27 -36z"/>
<path d="M3832 4128 c-18 -18 -15 -43 8 -63 17 -15 24 -16 45 -7 25 11 31 34
19 66 -7 19 -55 21 -72 4z m56 -10 c18 -18 15 -36 -10 -49 -18 -9 -24 -8 -34
6 -25 34 15 72 44 43z"/>
<path d="M3964 4126 c-16 -43 20 -91 53 -70 29 18 39 42 27 62 -14 22 -72 29
-80 8z m64 -27 c4 -30 -22 -46 -44 -28 -17 14 -18 31 -2 47 19 19 43 9 46 -19z"/>
<path d="M4071 4093 l-1 -52 33 2 c28 2 33 5 29 21 -4 13 -1 17 9 14 8 -3 13
-11 12 -17 -3 -12 -2 -13 42 -13 57 -1 65 2 65 22 0 18 -7 20 -80 20 -44 0
-83 -1 -87 -2 -4 -2 -11 11 -14 27 -5 24 -7 20 -8 -22z m139 -20 c0 -1 -8 -7
-18 -12 -13 -7 -19 -6 -19 2 0 7 9 13 19 13 10 0 18 -1 18 -3z"/>
<path d="M2328 4094 c-3 -3 -4 -14 -1 -24 4 -16 15 -18 94 -17 86 1 89 2 89
24 0 16 -6 23 -20 23 -12 0 -20 -7 -20 -17 0 -15 -2 -16 -10 -3 -5 8 -10 10
-10 4 0 -6 -7 -11 -15 -11 -10 0 -12 4 -5 12 6 7 3 11 -11 11 -10 0 -19 -6
-19 -13 0 -7 -7 -13 -16 -13 -10 0 -14 6 -10 15 4 11 -1 15 -18 15 -12 0 -25
-3 -28 -6z"/>
<path d="M3802 4068 l-2 -38 118 2 117 2 -112 3 -112 4 -4 32 c-4 31 -4 31 -5
-5z"/>
<path d="M2640 4040 c0 -5 5 -10 11 -10 5 0 7 5 4 10 -3 6 -8 10 -11 10 -2 0
-4 -4 -4 -10z"/>
<path d="M2360 4024 c0 -8 6 -11 15 -8 8 4 15 9 15 13 0 4 -7 8 -15 8 -8 0
-15 -6 -15 -13z"/>
<path d="M4090 4020 c0 -5 5 -10 11 -10 5 0 7 5 4 10 -3 6 -8 10 -11 10 -2 0
-4 -4 -4 -10z"/>
<path d="M2293 3920 c0 -25 2 -35 4 -22 2 12 2 32 0 45 -2 12 -4 2 -4 -23z"/>
<path d="M2433 3933 c-7 -15 -13 -34 -13 -43 0 -9 -22 -38 -50 -65 -48 -48
-50 -51 -50 -106 0 -66 18 -89 72 -89 25 0 41 7 59 28 l24 27 -26 -22 c-31
-28 -80 -30 -102 -5 -11 12 -17 36 -17 64 0 40 5 50 50 98 28 29 50 63 50 75
0 11 5 26 11 32 6 6 10 16 8 22 -2 6 -10 -2 -16 -16z"/>
<path d="M2530 3948 c0 -8 -9 -23 -19 -32 -14 -12 -18 -29 -17 -57 3 -59 16
-60 16 -1 0 29 4 52 9 52 12 0 25 39 17 47 -3 4 -6 0 -6 -9z"/>
<path d="M2557 3926 c-35 -45 -34 -60 1 -19 26 29 41 37 70 34 21 -2 14 -49
-10 -65 -12 -9 -18 -16 -12 -16 27 0 45 27 42 60 -3 31 -7 35 -34 38 -25 2
-36 -3 -57 -32z"/>
<path d="M3027 3953 c-11 -10 -8 -93 3 -93 6 0 10 4 10 9 0 5 11 12 25 15 42
11 28 76 -15 76 -9 0 -20 -3 -23 -7z m48 -33 c0 -8 -8 -16 -17 -18 -13 -2 -18
3 -18 18 0 15 5 20 18 18 9 -2 17 -10 17 -18z"/>
<path d="M2356 3916 c-20 -18 -36 -38 -36 -45 0 -23 -49 -11 -74 20 -14 17
-26 27 -26 23 0 -15 54 -64 71 -64 28 0 49 11 49 25 0 7 17 27 38 44 20 17 32
30 25 31 -6 0 -28 -15 -47 -34z"/>
<path d="M2476 3931 c-13 -15 -16 -34 -14 -87 3 -68 4 -69 32 -72 39 -5 88 41
82 77 -2 16 4 34 17 49 11 12 16 22 10 22 -20 0 -43 -38 -43 -72 0 -41 -28
-71 -62 -66 -21 3 -23 9 -26 62 -2 44 1 63 14 77 9 11 15 21 12 24 -3 3 -12
-3 -22 -14z"/>
<path d="M3370 3907 c0 -49 17 -65 50 -47 14 8 19 20 17 48 -2 34 -5 37 -34
40 -33 3 -33 3 -33 -41z m41 10 c-13 -13 -26 -3 -16 12 3 6 11 8 17 5 6 -4 6
-10 -1 -17z m9 -37 c0 -5 -7 -10 -15 -10 -8 0 -15 5 -15 10 0 6 7 10 15 10 8
0 15 -4 15 -10z"/>
<path d="M3550 3906 c0 -35 4 -45 20 -49 47 -12 68 48 22 68 -12 5 -22 13 -22
17 0 5 -4 8 -10 8 -5 0 -10 -20 -10 -44z m50 -16 c0 -11 -7 -20 -15 -20 -8 0
-15 9 -15 20 0 11 7 20 15 20 8 0 15 -9 15 -20z"/>
<path d="M4197 3885 c3 -38 7 -72 9 -74 7 -8 2 84 -6 114 -5 18 -6 2 -3 -40z"/>
<path d="M4276 3931 c-12 -13 -16 -31 -13 -58 l4 -38 1 36 c2 43 31 74 61 64
14 -4 21 -16 22 -33 2 -25 2 -25 6 -4 9 48 -47 71 -81 33z"/>
<path d="M3994 3926 c-3 -8 -4 -25 -2 -38 3 -17 5 -13 9 15 5 38 2 47 -7 23z"/>
<path d="M4074 3928 c3 -10 1 -20 -4 -23 -6 -4 -10 -11 -10 -18 0 -7 7 -5 16
5 13 13 14 20 4 34 -10 16 -11 16 -6 2z"/>
<path d="M3114 3921 c-8 -9 -4 -61 6 -61 6 0 10 7 10 15 0 8 9 20 20 27 11 7
20 16 20 20 0 8 -48 7 -56 -1z"/>
<path d="M3203 3923 c-18 -7 -16 -48 3 -64 31 -26 70 25 44 56 -13 15 -25 17
-47 8z m35 -30 c-4 -22 -22 -20 -26 1 -2 10 3 16 13 16 10 0 15 -7 13 -17z"/>
<path d="M3292 3918 c-18 -18 -14 -45 8 -61 11 -8 17 -17 12 -21 -4 -5 2 -7
13 -4 16 2 21 12 23 51 3 44 1 47 -20 47 -13 0 -29 -5 -36 -12z m38 -29 c0
-24 -23 -21 -28 4 -2 10 3 17 12 17 10 0 16 -9 16 -21z"/>
<path d="M3470 3915 c-20 -25 -8 -50 25 -50 21 0 31 5 33 18 4 21 -14 47 -33
47 -7 0 -18 -7 -25 -15z m40 -25 c0 -11 -7 -20 -15 -20 -8 0 -15 9 -15 20 0
11 7 20 15 20 8 0 15 -9 15 -20z"/>
<path d="M4101 3909 c-1 -34 -21 -50 -65 -52 -19 -1 -31 -6 -27 -10 5 -5 24
-5 43 -2 39 7 63 39 55 71 -3 14 -5 12 -6 -7z"/>
<path d="M4135 3864 c-4 -36 -4 -68 -1 -71 3 -4 6 10 6 30 0 20 4 38 8 41 11
7 13 66 2 66 -4 0 -11 -30 -15 -66z"/>
<path d="M3664 3889 c-3 -6 -2 -15 4 -21 13 -13 32 -2 32 18 0 16 -26 19 -36
3z m26 -9 c0 -5 -4 -10 -10 -10 -5 0 -10 5 -10 10 0 6 5 10 10 10 6 0 10 -4
10 -10z"/>
<path d="M3720 3889 c0 -5 5 -7 10 -4 6 3 10 8 10 11 0 2 -4 4 -10 4 -5 0 -10
-5 -10 -11z"/>
<path d="M3760 3886 c0 -8 4 -17 8 -20 4 -2 8 4 8 15 0 10 -4 19 -8 19 -4 0
-8 -6 -8 -14z"/>
<path d="M4301 3881 c0 -13 11 -40 27 -60 15 -19 30 -47 33 -61 7 -25 7 -25 8
-1 0 13 -12 40 -28 60 -16 20 -31 48 -34 61 l-4 25 -2 -24z"/>
<path d="M2333 3839 c-40 -43 -43 -50 -43 -103 0 -62 -16 -80 -51 -58 -23 15
-32 15 -24 1 4 -5 18 -15 32 -20 20 -7 30 -6 45 7 15 14 17 26 12 66 -7 48 -6
51 36 93 23 24 41 47 39 52 -2 4 -23 -13 -46 -38z"/>
<path d="M2823 3880 c2 -8 12 -16 23 -17 13 -2 15 -1 4 4 -8 3 -19 11 -23 17
-6 7 -7 6 -4 -4z"/>
<path d="M2970 3882 c0 -6 -8 -13 -17 -15 -16 -4 -16 -5 -1 -6 18 -1 34 16 24
26 -3 4 -6 1 -6 -5z"/>
<path d="M2895 3870 c-19 -8 -19 -9 3 -9 12 -1 22 4 22 9 0 6 -1 10 -2 9 -2 0
-12 -4 -23 -9z"/>
<path d="M3786 3853 c-6 -14 -5 -15 5 -6 7 7 10 15 7 18 -3 3 -9 -2 -12 -12z"/>
<path d="M2222 3830 c-1 -14 5 -34 13 -44 8 -11 15 -35 15 -53 0 -18 4 -33 8
-33 12 0 1 73 -13 90 -7 8 -15 26 -18 40 l-4 25 -1 -25z"/>
<path d="M1894 3822 c-23 -11 -52 -35 -65 -53 -23 -33 -24 -40 -24 -219 0
-210 8 -246 61 -287 71 -54 189 -35 245 40 23 31 24 39 27 220 3 174 2 191
-18 230 -11 23 -32 51 -47 62 -39 28 -127 31 -179 7z m134 -42 c46 -28 68 -82
53 -132 -15 -48 -56 -77 -114 -79 -40 -2 -49 2 -76 32 -25 27 -31 42 -31 77 0
54 12 78 53 102 41 25 74 25 115 0z m-3 -280 c4 -6 -15 -10 -50 -10 -35 0 -54
4 -50 10 3 6 26 10 50 10 24 0 47 -4 50 -10z m33 -24 c3 -3 -15 -6 -39 -7 -24
0 -64 -4 -89 -9 -38 -7 -30 -8 48 -8 51 1 95 -2 99 -6 5 -5 -123 -11 -184 -9
-7 1 -13 -2 -13 -6 0 -4 47 -6 105 -3 74 3 105 1 105 -7 0 -7 -35 -12 -107
-13 l-108 -2 108 -3 c60 -2 107 -8 107 -13 0 -6 -46 -11 -107 -12 l-108 -2
103 -3 c56 -2 102 -8 102 -13 0 -6 -43 -11 -97 -12 l-98 -2 95 -5 95 -6 -29
-23 c-38 -29 -70 -37 -109 -25 -66 18 -100 121 -58 174 17 22 25 24 96 22 42
-1 79 -4 83 -7z"/>
<path d="M1931 3744 c0 -11 3 -14 6 -6 3 7 2 16 -1 19 -3 4 -6 -2 -5 -13z"/>
<path d="M1981 3738 c-1 -21 4 -28 17 -28 11 0 13 3 6 8 -7 4 -14 16 -17 27
-4 15 -5 14 -6 -7z"/>
<path d="M1938 3713 c6 -2 18 -2 25 0 6 3 1 5 -13 5 -14 0 -19 -2 -12 -5z"/>
<path d="M1938 3653 c-20 -5 -23 -21 -7 -43 9 -12 10 -10 6 8 -4 19 -3 21 8
12 8 -7 18 -9 24 -6 5 3 12 0 14 -6 3 -8 6 -6 6 5 1 11 6 15 12 11 7 -4 10 -1
7 7 -5 15 -40 21 -70 12z"/>
<path d="M1948 3313 c18 -2 45 -2 60 0 15 2 0 4 -33 4 -33 0 -45 -2 -27 -4z"/>
<path d="M4160 3802 c0 -31 7 -45 40 -77 41 -40 50 -70 28 -95 -11 -12 -10
-12 5 -1 27 21 20 50 -24 98 -36 40 -40 49 -35 79 4 21 3 34 -4 34 -5 0 -10
-17 -10 -38z"/>
<path d="M4510 3822 c-20 -11 -44 -37 -57 -62 -21 -40 -23 -56 -23 -212 0
-190 7 -220 61 -259 44 -31 116 -33 156 -3 53 40 71 78 78 171 10 113 0 265
-20 302 -35 69 -129 99 -195 63z m120 -37 c51 -26 74 -94 49 -147 -12 -27 -68
-68 -93 -68 -26 0 -73 27 -90 52 -33 47 -15 127 36 158 40 24 59 25 98 5z
m-21 -262 c23 -6 23 -7 5 -14 -15 -6 -12 -8 14 -8 17 -1 32 -5 32 -11 0 -5
-35 -11 -77 -13 l-78 -3 85 -2 c78 -2 86 -4 87 -22 1 -12 -5 -20 -15 -21 -12
-1 -11 -3 4 -7 20 -6 21 -10 10 -41 -12 -37 -46 -67 -86 -76 -36 -8 -91 31
-108 77 -13 34 -12 41 7 82 27 55 66 74 120 59z"/>
<path d="M4540 3636 c0 -16 2 -18 9 -7 5 8 14 10 21 6 9 -5 11 -4 6 3 -4 7 -2
12 3 12 6 0 11 -7 11 -15 0 -9 6 -12 15 -9 8 4 15 13 15 20 0 11 -11 14 -40
12 -33 -1 -40 -6 -40 -22z"/>
<path d="M4538 3503 c6 -2 18 -2 25 0 6 3 1 5 -13 5 -14 0 -19 -2 -12 -5z"/>
<path d="M4578 3443 c12 -2 30 -2 40 0 9 3 -1 5 -23 4 -22 0 -30 -2 -17 -4z"/>
<path d="M4543 3393 c26 -2 67 -2 90 0 23 2 2 3 -48 3 -49 0 -68 -1 -42 -3z"/>
<path d="M4091 3814 c0 -11 3 -14 6 -6 3 7 2 16 -1 19 -3 4 -6 -2 -5 -13z"/>
<path d="M2418 3809 c18 -19 15 -43 -8 -64 -11 -10 -20 -24 -20 -32 0 -8 11
-1 26 16 28 33 30 81 4 89 -12 4 -13 2 -2 -9z"/>
<path d="M4232 3798 c-18 -18 -15 -53 7 -72 10 -10 21 -34 24 -54 17 -111 39
-153 81 -151 20 1 20 1 1 6 -34 9 -55 34 -55 69 0 18 -4 36 -10 39 -5 3 -10
20 -10 37 0 16 -9 41 -20 55 -11 14 -20 34 -20 43 0 19 26 34 41 24 5 -3 9 0
9 5 0 15 -33 14 -48 -1z"/>
<path d="M2841 3781 c-127 -32 -234 -93 -332 -191 -93 -92 -143 -171 -186
-291 -25 -70 -26 -88 -33 -347 -5 -151 -7 -281 -5 -290 2 -9 4 -21 4 -25 1 -4
38 -7 84 -5 81 3 82 3 80 28 -1 14 0 19 3 13 3 -7 16 -13 29 -13 12 0 28 -7
35 -15 7 -8 16 -13 20 -10 4 3 14 -3 21 -12 10 -12 10 -14 2 -9 -19 11 -39 -4
-22 -15 10 -6 6 -8 -11 -7 -16 2 -24 -2 -23 -9 2 -7 -2 -13 -7 -13 -6 0 -10 5
-10 11 0 8 -4 8 -12 1 -7 -5 -34 -13 -60 -17 -26 -4 -49 -13 -52 -21 -3 -7 -6
-119 -7 -249 -1 -129 -4 -237 -8 -239 -12 -8 -2 -131 12 -153 5 -7 4 -13 -2
-13 -7 0 -7 -8 -2 -22 5 -13 9 -126 11 -253 3 -407 6 -538 13 -640 4 -55 9
-147 11 -204 3 -57 9 -108 14 -113 9 -9 91 -15 290 -22 99 -4 153 -15 81 -17
-28 -1 -30 -2 -11 -7 20 -6 21 -9 10 -25 -10 -14 -35 -20 -103 -26 -50 -5
-108 -14 -130 -19 -22 -6 -41 -9 -43 -8 -1 2 3 15 9 29 6 14 8 34 5 44 -7 16
-9 15 -22 -10 -8 -15 -14 -38 -12 -50 3 -21 -2 -22 -127 -34 -71 -6 -132 -9
-134 -7 -2 2 5 4 17 4 11 0 23 4 26 9 7 11 -51 -1 -80 -17 -43 -23 -74 -74
-74 -121 0 -73 17 -116 61 -156 41 -37 42 -37 108 -31 36 3 111 9 166 11 118
6 507 32 617 41 51 4 82 12 90 22 9 11 13 59 13 169 0 107 3 153 11 153 6 0
18 9 25 20 11 15 31 20 89 25 133 12 220 13 220 5 0 -4 8 -7 18 -6 13 1 16 -6
14 -29 -15 -155 -19 -291 -11 -307 9 -17 19 -18 77 -13 37 3 162 12 277 20
378 28 539 45 563 61 12 8 36 34 53 57 28 37 30 48 26 96 -3 49 -8 59 -42 88
l-37 32 -182 -7 c-329 -12 -455 -6 -415 19 10 6 1 9 -28 9 -24 0 -43 4 -43 9
0 8 62 25 97 26 6 0 15 4 20 9 4 5 3 6 -4 2 -7 -4 -13 -3 -13 3 0 12 81 28
185 36 44 3 105 10 136 16 l56 11 11 317 c16 424 22 1092 14 1326 l-7 190
-100 3 c-55 1 -109 6 -120 11 -11 5 -33 12 -49 16 -23 5 -27 8 -15 16 7 5 9 9
3 9 -6 0 -11 7 -11 15 0 8 9 15 19 15 11 0 16 5 13 10 -4 6 11 10 39 10 25 0
51 6 59 14 8 9 32 15 56 14 38 0 41 -3 41 -27 0 -25 3 -27 35 -23 30 4 35 8
41 37 3 18 4 143 1 276 -4 252 -9 285 -58 394 -74 166 -237 313 -413 372 l-81
28 -410 2 c-369 2 -417 0 -484 -16z m696 -87 c74 -16 211 -68 239 -89 10 -8
-8 -3 -41 11 -119 53 -221 75 -370 82 -104 5 -127 8 -90 13 68 8 187 0 262
-17z m-324 -1 c-7 -2 -21 -2 -30 0 -10 3 -4 5 12 5 17 0 24 -2 18 -5z m-132
-29 c-46 -13 -92 -29 -103 -35 -11 -6 -22 -8 -25 -5 -7 6 2 10 100 42 39 13
81 23 92 23 11 0 -18 -11 -64 -25z m309 -4 c46 -24 61 -117 26 -157 -23 -27
-77 -39 -103 -24 -15 9 -14 10 14 11 46 0 52 20 6 21 -21 1 -42 1 -47 0 -31
-6 -53 97 -24 115 6 4 39 6 72 5 48 -2 58 0 49 10 -7 6 -29 15 -50 19 l-38 8
38 1 c21 0 47 -4 57 -9z m-455 -50 c-3 -5 -11 -10 -16 -10 -6 0 -7 5 -4 10 3
6 11 10 16 10 6 0 7 -4 4 -10z m-40 -20 c-3 -5 -12 -10 -18 -10 -7 0 -6 4 3
10 19 12 23 12 15 0z m945 -26 c0 -2 -9 0 -20 6 -11 6 -20 13 -20 16 0 2 9 0
20 -6 11 -6 20 -13 20 -16z m-980 11 c0 -2 -10 -9 -22 -15 -22 -11 -22 -10 -4
4 21 17 26 19 26 11z m-90 -59 c0 -2 -8 -10 -17 -17 -16 -13 -17 -12 -4 4 13
16 21 21 21 13z m-70 -60 c0 -2 -8 -10 -17 -17 -16 -13 -17 -12 -4 4 13 16 21
21 21 13z m-50 -50 c0 -2 -8 -10 -17 -17 -16 -13 -17 -12 -4 4 13 16 21 21 21
13z m1150 -245 c99 -71 91 -221 -14 -270 -61 -28 -258 -55 -301 -41 -56 18
-91 68 -99 137 -8 69 3 107 36 124 12 7 81 27 153 45 138 34 183 35 225 5z
m-674 -17 c163 -33 178 -44 175 -136 -2 -84 -25 -127 -82 -155 -44 -22 -45
-23 -171 -8 -147 17 -163 22 -202 63 -66 70 -47 191 37 242 42 26 88 25 243
-6z m331 -456 c-3 -8 -6 -5 -6 6 -1 11 2 17 5 13 3 -3 4 -12 1 -19z m110 0
c-3 -8 -6 -5 -6 6 -1 11 2 17 5 13 3 -3 4 -12 1 -19z m-160 -75 c-2 -16 -4 -5
-4 22 0 28 2 40 4 28 2 -13 2 -35 0 -50z m160 5 c-2 -13 -4 -5 -4 17 -1 22 1
32 4 23 2 -10 2 -28 0 -40z m-330 10 c-3 -7 -5 -2 -5 12 0 14 2 19 5 13 2 -7
2 -19 0 -25z m220 0 c-3 -8 -6 -5 -6 6 -1 11 2 17 5 13 3 -3 4 -12 1 -19z
m-110 -10 c-3 -8 -6 -5 -6 6 -1 11 2 17 5 13 3 -3 4 -12 1 -19z m170 -10 c-3
-7 -5 -2 -5 12 0 14 2 19 5 13 2 -7 2 -19 0 -25z m212 -90 c6 -16 5 -27 -5
-38 -12 -13 -17 -12 -34 6 -13 12 -18 27 -14 37 9 25 43 21 53 -5z m128 11 c7
-7 7 -17 -1 -35 -6 -13 -13 -24 -16 -24 -9 0 -28 58 -22 64 9 9 27 7 39 -5z
m-417 -14 c9 -11 9 -17 -1 -28 -11 -12 -16 -12 -27 0 -14 14 -10 43 6 43 5 0
15 -7 22 -15z m143 -13 c-2 -14 1 -21 7 -17 13 8 13 -5 0 -25 -8 -13 -10 -12
-10 3 0 9 -6 17 -14 17 -16 0 -29 27 -20 41 11 19 39 4 37 -19z m640 19 c4 -1
7 -7 7 -14 0 -8 -13 -13 -35 -14 -20 -1 -42 -7 -50 -13 -11 -9 -15 -9 -15 -1
0 6 -17 11 -40 11 -42 0 -43 1 -35 22 4 9 26 13 83 11 42 0 80 -2 85 -2z
m-1069 -10 c4 -5 3 -16 0 -24 -5 -14 -8 -14 -25 1 -14 12 -15 18 -6 24 16 10
25 10 31 -1z m156 -12 c7 -11 9 -23 6 -27 -3 -3 -6 1 -6 9 0 12 -2 12 -9 0 -7
-10 -13 -11 -30 -2 -22 12 -26 23 -14 34 13 14 43 6 53 -14z m-421 -21 c13
-35 5 -53 -11 -24 -8 15 -12 16 -19 5 -7 -11 -9 -10 -9 4 0 9 -7 17 -15 17 -9
0 -12 6 -9 15 4 8 16 15 29 15 17 0 26 -9 34 -32z m121 10 c0 -12 -1 -19 -3
-17 -1 2 -9 12 -16 22 -12 14 -11 17 3 17 10 0 16 -8 16 -22z m-459 -7 c8 12
10 12 18 0 7 -11 13 -12 23 -3 11 9 17 9 26 0 26 -26 11 -33 -78 -33 -75 0
-90 3 -88 15 2 8 13 15 25 15 12 0 25 3 29 7 4 4 14 3 21 -4 11 -9 17 -9 24 3z
m618 -37 c-17 -20 -63 -14 -67 9 -4 18 -2 18 21 2 25 -16 26 -15 38 7 8 14 14
18 17 10 2 -7 -2 -19 -9 -28z m501 26 c0 -5 -2 -10 -4 -10 -3 0 -8 5 -11 10
-3 6 -1 10 4 10 6 0 11 -4 11 -10z m480 -15 c-11 -13 -10 -14 4 -9 9 3 17 14
17 23 1 14 2 14 6 -1 3 -11 14 -18 29 -18 28 0 32 -16 7 -23 -10 -3 -51 -6
-92 -7 -56 -1 -72 2 -69 12 3 7 16 13 29 14 35 1 69 14 69 26 0 6 3 8 6 5 4
-4 1 -13 -6 -22z m-879 -7 c10 -18 9 -20 -6 -15 -9 4 -19 7 -21 7 -2 0 -4 7
-4 15 0 22 18 18 31 -7z m129 1 c0 -6 -4 -7 -10 -4 -5 3 -10 11 -10 16 0 6 5
7 10 4 6 -3 10 -11 10 -16z m-415 -18 c-6 -5 -25 10 -25 20 0 5 6 4 14 -3 8
-7 12 -15 11 -17z m-155 9 c0 -5 7 -7 15 -4 10 4 15 0 15 -10 0 -13 -4 -15
-19 -6 -24 12 -36 30 -22 30 6 0 11 -4 11 -10z m-280 -22 c0 -18 2 -20 9 -8 6
8 7 18 5 22 -3 4 0 8 5 8 6 0 11 -10 11 -21 0 -17 5 -20 25 -17 17 4 25 1 25
-8 0 -8 -3 -14 -7 -15 -106 -7 -173 -5 -173 7 0 8 16 14 42 16 26 2 43 8 45
18 4 13 3 13 -6 0 -6 -8 -11 -10 -11 -4 0 6 3 14 7 17 13 13 23 7 23 -15z
m1496 -88 c-6 -80 -16 -76 -31 13 -5 33 -4 37 14 37 18 0 20 -5 17 -50z m-339
-43 c4 -47 10 -67 19 -67 8 0 14 -9 14 -20 0 -11 5 -20 10 -20 6 0 10 -9 10
-20 0 -11 -7 -20 -15 -20 -8 0 -15 -4 -15 -10 0 -5 5 -10 10 -10 6 0 10 -13
10 -29 0 -30 -19 -45 -44 -35 -15 6 -19 54 -5 54 16 0 10 16 -17 45 l-26 29
22 8 c20 7 21 12 15 64 -8 70 -13 84 -33 84 -13 0 -12 3 4 14 27 20 34 9 41
-67z m-333 56 c4 -9 3 -19 -2 -22 -12 -8 -23 -84 -14 -98 4 -6 16 -12 27 -14
28 -6 34 -68 8 -83 -27 -15 -37 -15 -58 0 -17 13 -18 18 -7 48 8 20 11 63 8
110 -5 69 -3 76 13 76 11 0 22 -8 25 -17z m634 -8 c-3 -3 -9 2 -12 12 -6 14
-5 15 5 6 7 -7 10 -15 7 -18z m-973 5 c4 -6 3 -36 -1 -67 -8 -63 -23 -54 -27
16 -1 23 -6 41 -10 41 -5 0 -5 5 -2 10 8 13 32 13 40 0z m-355 -73 c0 -68 8
-107 21 -107 5 0 5 7 2 17 -4 11 -3 14 5 9 16 -9 15 -59 0 -74 -8 -8 -9 -15
-1 -23 5 -5 8 -21 5 -35 -3 -19 -11 -24 -33 -24 -19 0 -29 5 -29 15 0 8 6 15
13 16 6 0 3 4 -8 9 -17 7 -17 9 -2 9 23 1 21 16 -6 43 l-24 24 25 18 c21 16
23 23 17 65 -3 25 -13 51 -21 57 -12 10 -12 13 -2 17 10 4 10 7 -1 15 -11 8
-10 11 5 14 30 7 34 0 34 -65z m1010 -43 c0 -8 -4 -14 -10 -14 -5 0 -10 9 -10
21 0 11 5 17 10 14 6 -3 10 -13 10 -21z m327 4 c-3 -8 -6 -5 -6 6 -1 11 2 17
5 13 3 -3 4 -12 1 -19z m54 2 c15 0 19 -7 19 -35 0 -24 -5 -35 -15 -35 -8 0
-15 -5 -15 -11 0 -6 7 -8 15 -5 12 4 15 0 12 -22 -3 -22 -9 -28 -37 -30 -30
-3 -32 -2 -21 12 8 9 10 16 5 16 -4 0 -3 5 4 12 9 9 4 18 -21 39 -22 19 -27
28 -16 29 9 0 22 12 29 28 7 15 15 22 17 15 3 -7 13 -13 24 -13z m-439 -22
c-6 -7 -12 -26 -15 -43 -4 -28 -4 -27 -6 7 -1 31 6 43 28 47 2 1 -1 -5 -7 -11z
m335 -25 c-3 -10 -5 -4 -5 12 0 17 2 24 5 18 2 -7 2 -21 0 -30z m-889 -21 c2
-22 -2 -34 -12 -38 -19 -7 -21 -34 -3 -34 9 0 12 -10 9 -30 -4 -25 -9 -30 -33
-30 -24 0 -29 4 -29 25 0 14 7 28 15 31 20 8 19 34 -1 34 -8 0 -22 6 -30 14
-12 13 -11 18 8 39 13 14 32 24 47 23 22 -1 27 -6 29 -34z m209 6 c-3 -7 -5
-2 -5 12 0 14 2 19 5 13 2 -7 2 -19 0 -25z m-325 -8 c-2 -16 -6 -30 -8 -30 -2
0 -4 14 -4 30 0 17 4 30 8 30 5 0 7 -13 4 -30z m-359 9 c-7 -7 -10 -26 -7 -43
l4 -31 -10 30 c-11 34 -7 55 12 55 9 0 9 -3 1 -11z m800 -91 c-4 -22 -11 -28
-32 -28 -40 0 -37 38 4 49 16 4 31 8 32 7 1 -1 -1 -13 -4 -28z m687 -45 c0
-16 3 -38 6 -50 6 -21 3 -23 -34 -23 -23 0 -44 5 -47 10 -3 6 0 10 8 10 11 0
13 10 11 40 -3 38 -2 40 26 40 26 0 30 -4 30 -27z m-340 -13 c0 -16 -7 -20
-30 -20 -21 0 -28 4 -24 14 3 8 15 17 27 19 12 2 23 5 25 6 1 0 2 -8 2 -19z
m-340 -9 c0 -19 -18 -31 -46 -31 -17 0 -19 36 -1 43 27 12 47 7 47 -12z m-332
-18 c-4 -23 -68 -32 -68 -10 0 20 10 27 42 27 23 0 29 -4 26 -17z m-366 -25
c3 -18 7 -40 9 -48 5 -17 -38 -26 -77 -16 l-24 7 26 24 c23 21 24 26 10 31
-30 11 -18 34 18 34 31 0 34 -3 38 -32z m1045 -22 c-7 -18 -53 -21 -77 -6 -19
12 -9 21 32 30 37 8 54 -1 45 -24z m-342 -16 c-10 -16 -75 -12 -75 4 0 19 63
36 73 19 4 -7 5 -18 2 -23z m-331 4 c8 -22 9 -21 -17 -28 -30 -7 -69 4 -64 18
3 9 23 17 68 25 4 0 10 -6 13 -15z m1012 -11 c-4 -16 -14 -33 -22 -39 -7 -6
-14 -25 -14 -42 0 -20 -10 -42 -29 -62 -23 -26 -28 -28 -27 -13 0 11 9 27 19
37 9 10 17 29 17 43 0 14 8 32 18 39 16 12 16 13 0 14 -10 0 -22 9 -28 19 -9
17 -6 20 18 24 55 8 55 9 48 -20z m-351 -33 c-9 -10 -22 -17 -29 -14 -8 3 -10
-8 -8 -36 5 -50 -14 -100 -38 -100 -29 0 -32 27 -4 34 19 5 24 14 26 39 2 43
2 59 -3 76 -3 10 6 17 26 21 40 9 50 2 30 -20z m-331 -14 c-3 -14 -13 -26 -21
-26 -8 0 -12 4 -9 9 4 5 -4 7 -16 3 -14 -3 -19 -2 -14 6 4 7 2 12 -5 12 -22 0
-1 12 33 19 41 9 40 9 32 -23z m-691 -8 c3 -12 2 -29 -3 -37 -8 -14 -9 -14
-10 1 0 31 -30 8 -30 -23 0 -16 -5 -29 -10 -29 -6 0 -8 15 -6 34 3 25 0 36
-12 41 -20 7 -5 22 28 28 14 2 28 5 31 6 4 0 9 -9 12 -21z m364 0 c-2 -12 -10
-24 -17 -26 -8 -3 -10 0 -5 9 6 11 5 12 -5 2 -8 -8 -13 -30 -11 -57 1 -24 -3
-47 -9 -51 -6 -4 -10 13 -10 47 0 29 -5 60 -10 68 -7 11 -4 17 13 22 44 12 57
9 54 -14z m298 -65 c-3 -50 -5 -54 -15 -48 -5 3 -10 27 -10 52 0 37 2 43 14
34 7 -6 12 -23 11 -38z m501 -33 c-3 -39 -15 -50 -29 -25 -18 32 -18 53 1 58
26 5 30 0 28 -33z m-1213 -6 c8 -8 -3 -34 -14 -34 -5 0 -9 9 -9 20 0 19 11 26
23 14z m179 -21 c5 -20 -11 -63 -22 -63 -4 0 -10 9 -13 20 -4 14 0 20 11 21
12 0 10 3 -5 9 -30 12 -29 30 1 30 15 0 26 -7 28 -17z m507 -2 c10 -17 8 -18
-13 -8 -14 7 -22 15 -20 19 9 14 23 9 33 -11z m741 -10 c0 -10 -9 -21 -20 -24
-16 -4 -20 0 -20 19 0 17 6 24 20 24 13 0 20 -7 20 -19z m40 -1 c0 -11 -2 -20
-5 -20 -2 0 -9 9 -15 20 -9 16 -8 20 5 20 8 0 15 -9 15 -20z m-1115 -10 c-3
-5 -11 -10 -16 -10 -6 0 -7 5 -4 10 3 6 11 10 16 10 6 0 7 -4 4 -10z m-375
-16 c0 -14 -3 -14 -15 -4 -8 7 -15 14 -15 16 0 2 7 4 15 4 8 0 15 -7 15 -16z
m-93 -61 c-3 -10 -5 -2 -5 17 0 19 2 27 5 18 2 -10 2 -26 0 -35z m35 25 c-5
-19 -3 -21 9 -11 12 10 15 8 15 -6 0 -22 -28 -22 -37 -1 -7 17 -1 40 11 40 5
0 6 -10 2 -22z m1594 -9 c19 -22 19 -22 -3 -10 -24 12 -39 31 -25 31 5 0 17
-10 28 -21z m-841 1 c3 -5 1 -10 -4 -10 -6 0 -11 5 -11 10 0 6 2 10 4 10 3 0
8 -4 11 -10z m22 -22 c-3 -7 -5 -2 -5 12 0 14 2 19 5 13 2 -7 2 -19 0 -25z
m33 10 c0 -18 -2 -20 -9 -8 -6 8 -7 18 -5 22 9 14 14 9 14 -14z m30 0 c0 -19
-2 -20 -10 -8 -13 19 -13 30 0 30 6 0 10 -10 10 -22z m17 -10 c-3 -7 -5 -2 -5
12 0 14 2 19 5 13 2 -7 2 -19 0 -25z m586 10 c-11 -13 -28 -36 -36 -53 -9 -16
-16 -24 -17 -17 0 28 44 92 63 92 6 0 1 -10 -10 -22z m-776 -10 c-3 -8 -6 -5
-6 6 -1 11 2 17 5 13 3 -3 4 -12 1 -19z m30 0 c-3 -8 -6 -5 -6 6 -1 11 2 17 5
13 3 -3 4 -12 1 -19z m33 7 c0 -8 -2 -15 -4 -15 -2 0 -6 7 -10 15 -3 8 -1 15
4 15 6 0 10 -7 10 -15z m494 -6 c-3 -6 0 -15 7 -20 10 -6 8 -9 -8 -9 -16 0
-23 6 -23 20 0 11 7 20 16 20 8 0 12 -5 8 -11z m91 1 c-3 -5 1 -10 9 -10 9 0
16 -4 16 -10 0 -5 -9 -10 -20 -10 -13 0 -20 7 -20 20 0 11 5 20 11 20 5 0 7
-4 4 -10z m-675 -15 c0 -9 -6 -12 -15 -9 -8 4 -15 10 -15 15 0 5 7 9 15 9 8 0
15 -7 15 -15z m-615 -15 c3 -5 2 -10 -2 -10 -5 0 -9 -8 -9 -19 0 -10 5 -17 11
-15 13 5 27 -5 48 -35 l16 -25 10 25 c10 23 10 23 9 -6 0 -16 -3 -41 -7 -55
-6 -23 -7 -24 -15 -5 l-7 20 -12 -20 c-6 -11 -11 -27 -12 -35 0 -8 -7 -15 -15
-16 -35 -2 -40 -5 -40 -18 0 -8 6 -17 13 -20 6 -3 1 -3 -13 0 -37 8 -80 59
-80 94 0 17 4 29 8 28 4 -2 23 10 42 26 19 16 26 26 15 21 -11 -4 -33 -9 -48
-10 -23 -3 -26 -1 -16 11 14 17 23 19 13 2 -4 -7 -3 -8 4 -4 7 4 12 14 12 22
0 9 7 14 18 12 12 -2 17 3 16 20 -1 23 29 32 41 12z m890 0 c-3 -5 -11 -10
-16 -10 -6 0 -7 5 -4 10 3 6 11 10 16 10 6 0 7 -4 4 -10z m-840 -20 c26 -28
15 -31 -14 -3 -13 13 -20 23 -14 23 5 0 18 -9 28 -20z m243 -8 c3 -18 -2 -22
-22 -22 -19 0 -26 5 -26 19 0 36 43 38 48 3z m-413 -25 c-30 -52 -31 -74 -5
-107 22 -28 25 -40 9 -40 -5 0 -19 21 -30 46 -22 49 -17 88 18 126 29 33 34
19 8 -25z m305 23 c0 -15 -7 -20 -26 -20 -14 0 -23 4 -19 10 4 6 11 8 16 5 5
-4 12 1 15 9 8 22 14 20 14 -4z m854 -12 c7 -36 3 -43 -18 -35 -9 4 -13 13
-10 21 3 8 1 17 -5 21 -17 10 -13 25 8 25 13 0 20 -10 25 -32z m-149 12 c-3
-5 -11 -10 -16 -10 -6 0 -7 5 -4 10 3 6 11 10 16 10 6 0 7 -4 4 -10z m-290
-10 c3 -5 1 -10 -4 -10 -6 0 -11 5 -11 10 0 6 2 10 4 10 3 0 8 -4 11 -10z
m-115 -7 c0 -5 3 -18 6 -30 10 -35 -21 -29 -40 7 -14 29 -14 30 10 30 13 0 24
-3 24 -7z m1090 -3 c0 -5 -4 -10 -10 -10 -5 0 -10 5 -10 10 0 6 5 10 10 10 6
0 10 -4 10 -10z m-980 -14 c0 -3 -4 -8 -10 -11 -5 -3 -10 -1 -10 4 0 6 5 11
10 11 6 0 10 -2 10 -4z m295 -16 c3 -5 -1 -10 -10 -10 -9 0 -13 5 -10 10 3 6
8 10 10 10 2 0 7 -4 10 -10z m518 -40 c-6 -6 -33 30 -33 43 0 5 9 -1 19 -14
11 -13 17 -26 14 -29z m-1115 -2 c-4 -40 -24 -47 -40 -13 -10 22 -9 28 3 36
28 18 40 10 37 -23z m-106 -8 c4 -24 1 -30 -14 -30 -10 0 -18 3 -18 8 0 4 -3
17 -6 30 -5 17 -2 22 14 22 14 0 21 -8 24 -30z m703 20 c-3 -5 -11 -10 -16
-10 -6 0 -7 5 -4 10 3 6 11 10 16 10 6 0 7 -4 4 -10z m432 -10 c-3 -12 -1 -18
5 -14 6 4 7 -2 3 -17 -8 -26 -25 -40 -37 -33 -9 6 -6 38 7 67 10 24 29 22 22
-3z m-280 -20 c-1 -14 -8 -20 -24 -20 -25 0 -29 10 -11 28 18 18 37 14 35 -8z
m-150 4 c-3 -3 -12 -4 -19 -1 -8 3 -5 6 6 6 11 1 17 -2 13 -5z m351 -24 c2
-21 -2 -30 -13 -30 -10 0 -15 10 -15 30 0 18 5 30 13 30 7 0 14 -13 15 -30z
m-757 7 c-1 -4 -1 -13 -1 -21 0 -7 -11 -16 -25 -18 -29 -6 -32 4 -8 32 17 19
35 23 34 7z m404 -7 c3 -5 -1 -10 -10 -10 -9 0 -13 5 -10 10 3 6 8 10 10 10 2
0 7 -4 10 -10z m295 -22 c0 -5 -4 -8 -10 -8 -5 0 -10 10 -10 23 0 18 2 19 10
7 5 -8 10 -18 10 -22z m-295 -8 c3 -5 -1 -10 -10 -10 -9 0 -13 5 -10 10 3 6 8
10 10 10 2 0 7 -4 10 -10z m625 -42 c16 -17 19 -18 15 -5 -12 29 21 20 44 -12
27 -37 31 -129 7 -165 -9 -15 -12 -26 -6 -26 6 0 9 -11 7 -25 -2 -14 -6 -25
-10 -25 -4 0 -12 0 -19 0 -9 0 -9 3 0 12 15 15 16 32 2 23 -5 -3 -11 0 -11 7
-1 7 -4 0 -8 -17 -9 -42 -41 -47 -41 -7 0 27 -15 43 -42 46 -4 1 -19 16 -33
35 -38 52 -33 85 19 137 24 24 46 44 49 44 4 0 16 -10 27 -22z m-1223 -4 c-3
-3 -12 -4 -19 -1 -8 3 -5 6 6 6 11 1 17 -2 13 -5z m523 -4 c0 -5 -5 -10 -11
-10 -5 0 -7 5 -4 10 3 6 8 10 11 10 2 0 4 -4 4 -10z m589 -29 c-25 -35 -27
-82 -5 -116 22 -33 20 -42 -4 -20 -22 20 -35 73 -26 103 8 25 47 75 53 68 3
-2 -5 -18 -18 -35z m-1159 4 c0 -20 -5 -25 -25 -25 -20 0 -25 5 -25 25 0 20 5
25 25 25 20 0 25 -5 25 -25z m-247 -40 c12 -11 17 -12 20 -2 7 20 40 -5 61
-47 24 -48 15 -92 -27 -138 -17 -19 -32 -46 -32 -59 0 -17 -6 -25 -22 -27 -19
-3 -23 1 -23 21 0 20 -4 24 -19 20 -13 -3 -18 -12 -16 -24 2 -10 0 -19 -6 -19
-5 0 -9 11 -9 25 0 16 6 25 16 25 12 0 8 9 -16 36 -59 67 -59 106 -2 168 35
39 53 44 75 21z m1319 -70 c3 -81 1 -95 -13 -95 -5 0 -9 14 -9 30 0 17 -9 39
-21 51 -11 11 -19 15 -18 7 5 -41 -2 -99 -12 -96 -8 3 -12 36 -13 91 l-1 87
42 0 41 0 4 -75z m-1426 32 c-32 -41 -33 -85 -5 -121 12 -15 19 -30 16 -33
-10 -10 -29 9 -44 44 -17 42 -9 89 20 121 32 34 41 26 13 -11z m353 -21 c7 -8
8 -17 4 -19 -11 -7 -10 -48 1 -66 5 -8 3 -16 -4 -21 -9 -5 -9 -9 -1 -14 8 -5
8 -13 1 -27 -14 -25 -30 -24 -30 1 0 12 -7 20 -17 21 -17 1 -17 2 0 6 9 2 17
8 17 13 0 5 -6 7 -14 4 -8 -3 -17 0 -22 7 -4 7 -2 15 4 17 7 2 12 8 12 13 0 6
-4 7 -10 4 -5 -3 -10 -1 -10 6 0 6 8 9 20 6 16 -4 20 0 20 19 0 19 -5 24 -26
24 l-26 0 4 -80 c2 -58 0 -80 -9 -80 -7 0 -10 7 -6 17 4 9 2 14 -3 11 -5 -4
-9 24 -9 65 0 63 2 73 20 79 35 11 72 8 84 -6z m901 -38 c-30 -3 -197 -14
-370 -22 -173 -9 -360 -18 -415 -21 -66 -4 -93 -2 -80 4 11 5 214 19 450 31
237 12 435 23 440 24 6 2 15 1 20 -3 6 -3 -15 -9 -45 -13z m140 -23 c0 -8 -4
-15 -10 -15 -5 0 -10 7 -10 15 0 8 5 15 10 15 6 0 10 -7 10 -15z m183 -27
c-12 -20 -10 -32 7 -40 12 -5 12 -7 -3 -7 -10 -1 -20 6 -23 14 -8 19 2 45 16
45 7 0 8 -5 3 -12z m-324 -42 c7 -8 11 -31 10 -53 -1 -21 1 -47 4 -58 17 -55
-80 -92 -125 -47 -28 27 -13 51 20 33 30 -16 62 -14 62 4 0 8 -9 15 -19 15
-31 0 -33 28 -4 42 32 16 32 32 -2 36 -16 2 -27 -2 -31 -12 -3 -9 -12 -16 -19
-16 -25 0 -27 21 -4 46 26 27 89 33 108 10z m276 -4 c-3 -3 -11 0 -18 7 -9 10
-8 11 6 5 10 -3 15 -9 12 -12z m-518 -7 c18 -13 21 -25 21 -85 0 -84 -15 -100
-90 -100 l-48 0 0 94 c0 82 2 95 18 99 37 10 78 6 99 -8z m-224 -25 c7 -10 14
-43 16 -71 2 -42 -2 -56 -20 -75 -27 -29 -83 -32 -111 -7 -24 22 -26 128 -1
155 23 26 97 25 116 -2z m911 4 c8 -22 8 -44 -1 -44 -11 0 -32 48 -25 55 10 9
20 5 26 -11z m-1530 -26 c4 -20 3 -28 -7 -28 -11 0 -16 35 -8 59 2 8 8 -4 15
-31z m378 15 c20 -24 22 -131 3 -157 -11 -14 -31 -21 -70 -24 l-55 -4 -1 73
c-2 128 -2 129 59 129 34 0 54 -5 64 -17z m-534 -47 c12 -3 11 -4 -3 -3 -12 1
-20 10 -21 22 -1 14 0 15 3 3 2 -9 12 -19 21 -22z m1541 13 c8 12 12 13 25 1
22 -17 15 -22 -34 -24 -31 -2 -40 1 -40 14 0 26 12 31 26 12 12 -14 15 -15 23
-3z m121 5 c0 -8 -4 -12 -10 -9 -5 3 -10 10 -10 16 0 5 5 9 10 9 6 0 10 -7 10
-16z m-570 -20 c0 -8 -9 -14 -20 -14 -22 0 -28 26 -7 33 16 6 27 -1 27 -19z
m-242 -11 c-2 -10 -10 -18 -18 -18 -8 0 -16 8 -18 18 -2 12 3 17 18 17 15 0
20 -5 18 -17z m-718 -28 c0 -19 -4 -35 -9 -35 -10 0 -22 51 -14 62 11 19 23 5
23 -27z m483 29 c9 -10 -4 -34 -18 -34 -17 0 -28 17 -20 30 7 11 28 13 38 4z
m-603 -14 c0 -5 -2 -10 -4 -10 -3 0 -8 5 -11 10 -3 6 -1 10 4 10 6 0 11 -4 11
-10z m1389 -10 c15 -8 17 -17 11 -57 -9 -58 -7 -64 11 -24 8 17 17 31 21 31
11 0 -1 -172 -13 -187 -17 -20 -86 -17 -98 5 -12 23 -13 184 0 177 5 -4 9 -18
9 -33 0 -15 7 -35 15 -46 13 -17 14 -14 17 25 3 46 -9 89 -25 89 -5 0 -4 7 3
15 14 17 25 19 49 5z m-1409 -34 c0 -3 -4 -8 -10 -11 -5 -3 -10 -1 -10 4 0 6
5 11 10 11 6 0 10 -2 10 -4z m-40 -27 c0 -5 -4 -9 -10 -9 -5 0 -10 7 -10 16 0
8 5 12 10 9 6 -3 10 -10 10 -16z m65 11 c3 -5 -1 -10 -10 -10 -9 0 -13 5 -10
10 3 6 8 10 10 10 2 0 7 -4 10 -10z m299 -25 c23 -23 25 -32 25 -117 0 -81 -3
-95 -21 -115 -27 -28 -67 -29 -96 -3 -20 19 -22 31 -22 113 l0 92 20 -25 c11
-14 20 -28 20 -32 0 -5 6 -8 13 -8 7 0 13 15 14 36 1 19 7 42 14 50 9 12 6 14
-17 15 -25 0 -26 1 -9 9 30 13 32 12 59 -15z m972 -53 c-3 -5 -92 -14 -198
-21 -106 -6 -301 -18 -433 -26 -286 -18 -285 -18 -285 -5 0 6 31 10 73 11 39
0 225 11 412 23 397 27 438 29 431 18z m-126 -197 c0 -8 -7 -15 -15 -15 -16 0
-20 12 -8 23 11 12 23 8 23 -8z m-532 -77 c-2 -6 -10 -14 -16 -16 -7 -2 -10 2
-6 12 7 18 28 22 22 4z"/>
<path d="M3468 3025 c-2 -19 0 -35 4 -35 4 0 8 16 8 35 0 19 -2 35 -4 35 -2 0
-6 -16 -8 -35z"/>
<path d="M3520 3053 c0 -6 5 -15 10 -18 6 -4 8 -11 5 -16 -4 -5 -1 -9 4 -9 15
0 14 13 -4 36 -8 10 -15 14 -15 7z"/>
<path d="M3495 3040 c-3 -5 -1 -10 4 -10 6 0 11 5 11 10 0 6 -2 10 -4 10 -3 0
-8 -4 -11 -10z"/>
<path d="M3464 2938 c3 -13 6 -29 6 -35 0 -18 15 -16 34 3 9 8 16 11 16 5 0
-6 9 -11 20 -11 11 0 20 4 20 10 0 5 -7 7 -15 4 -11 -5 -13 -2 -9 10 3 9 10
13 15 10 5 -3 9 2 9 10 0 12 -11 16 -51 16 -48 0 -51 -1 -45 -22z m32 -25
c-10 -10 -19 5 -10 18 6 11 8 11 12 0 2 -7 1 -15 -2 -18z"/>
<path d="M3120 2976 c0 -84 0 -86 24 -86 15 0 26 7 29 18 4 16 5 16 6 0 1 -11
9 -18 21 -18 16 0 20 7 20 30 0 29 -2 30 -46 30 l-47 0 5 50 c3 28 1 53 -3 56
-5 3 -9 -33 -9 -80z m40 -56 c0 -11 -4 -20 -10 -20 -5 0 -10 9 -10 20 0 11 5
20 10 20 6 0 10 -9 10 -20z m50 0 c0 -11 -4 -20 -10 -20 -5 0 -10 9 -10 20 0
11 5 20 10 20 6 0 10 -9 10 -20z"/>
<path d="M3166 3045 c-19 -15 -19 -15 2 -15 13 0 22 6 22 15 0 18 0 18 -24 0z"/>
<path d="M3180 3010 c-18 -12 -2 -12 25 0 13 6 15 9 5 9 -8 0 -22 -4 -30 -9z"/>
<path d="M3715 2200 c3 -5 8 -10 11 -10 2 0 4 5 4 10 0 6 -5 10 -11 10 -5 0
-7 -4 -4 -10z"/>
<path d="M3372 2188 c6 -18 28 -21 28 -4 0 9 -7 16 -16 16 -9 0 -14 -5 -12
-12z"/>
<path d="M3046 2181 c-3 -5 1 -11 9 -15 8 -3 15 -1 15 4 0 13 -18 22 -24 11z"/>
<path d="M3856 1771 c-4 -5 -2 -12 3 -15 5 -4 12 -2 15 3 4 5 2 12 -3 15 -5 4
-12 2 -15 -3z"/>
<path d="M4070 1730 c0 -5 5 -10 10 -10 6 0 10 5 10 10 0 6 -4 10 -10 10 -5 0
-10 -4 -10 -10z"/>
<path d="M2584 1500 c-30 -12 -37 -26 -13 -27 10 -1 24 7 29 18 6 10 9 19 8
18 -2 0 -13 -4 -24 -9z"/>
<path d="M4080 1371 c0 -6 5 -13 10 -16 6 -3 10 1 10 9 0 9 -4 16 -10 16 -5 0
-10 -4 -10 -9z"/>
<path d="M4166 1337 c3 -10 9 -15 12 -12 3 3 0 11 -7 18 -10 9 -11 8 -5 -6z"/>
<path d="M4120 1140 c0 -5 5 -10 10 -10 6 0 10 5 10 10 0 6 -4 10 -10 10 -5 0
-10 -4 -10 -10z"/>
<path d="M2820 1340 c0 -5 5 -10 10 -10 6 0 10 5 10 10 0 6 -4 10 -10 10 -5 0
-10 -4 -10 -10z"/>
<path d="M2659 1255 c9 -19 19 -34 24 -35 9 0 -19 56 -32 64 -4 3 -1 -10 8
-29z"/>
<path d="M2606 1072 c-2 -4 -1 -14 5 -22 7 -12 9 -10 9 8 0 23 -5 28 -14 14z"/>
<path d="M3870 1280 c0 -14 5 -20 16 -18 10 2 19 -4 21 -12 4 -13 3 -13 -6 0
-6 8 -11 10 -11 4 0 -6 6 -17 14 -23 11 -9 13 -4 12 26 -1 31 -5 39 -23 41
-18 3 -23 -2 -23 -18z"/>
<path d="M3453 1073 c-23 -9 -14 -33 11 -33 29 0 44 19 25 31 -15 10 -18 10
-36 2z"/>
<path d="M3447 994 c-17 -18 -6 -35 21 -32 16 2 27 9 27 18 0 16 -36 26 -48
14z"/>
<path d="M3204 1047 c-3 -8 -4 -32 -2 -53 3 -34 7 -39 30 -42 22 -3 29 2 33
21 4 14 5 38 3 53 -2 23 -9 30 -31 32 -17 2 -29 -2 -33 -11z"/>
<path d="M2970 1030 c0 -21 24 -27 49 -11 19 12 4 31 -25 31 -17 0 -24 -5 -24
-20z"/>
<path d="M2970 949 c0 -17 4 -20 23 -15 12 3 25 6 30 6 4 0 7 7 7 15 0 10 -10
15 -30 15 -24 0 -30 -4 -30 -21z"/>
<path d="M2827 875 c-4 -8 -2 -17 3 -20 6 -4 10 3 10 14 0 25 -6 27 -13 6z"/>
<path d="M2828 822 c-3 -9 -1 -26 3 -37 6 -15 8 -11 8 18 1 40 -4 48 -11 19z"/>
<path d="M4303 3782 c10 -10 17 -30 17 -44 0 -14 10 -33 23 -44 22 -19 22 -19
5 2 -10 11 -18 34 -18 50 0 30 -15 54 -34 54 -5 0 -2 -8 7 -18z"/>
<path d="M4091 3774 c0 -11 3 -14 6 -6 3 7 2 16 -1 19 -3 4 -6 -2 -5 -13z"/>
<path d="M2367 3752 c-21 -23 -22 -65 -3 -82 21 -17 59 -8 71 16 6 12 17 30
25 40 13 15 13 17 0 12 -8 -2 -21 -18 -30 -34 -11 -20 -24 -29 -41 -29 -33 0
-38 39 -8 71 12 13 18 24 12 24 -5 0 -17 -8 -26 -18z"/>
<path d="M4290 3729 c0 -19 4 -41 9 -48 6 -10 8 1 4 30 -7 55 -13 63 -13 18z"/>
<path d="M4098 3723 c11 -16 39 -46 63 -68 40 -38 40 -37 -12 27 -53 65 -90
95 -51 41z"/>
<path d="M4166 3709 c21 -25 41 -44 44 -42 2 2 -16 23 -40 46 l-44 42 40 -46z"/>
<path d="M2261 3620 c-13 -11 -17 -20 -10 -20 7 0 20 7 30 16 14 12 22 13 38
4 29 -15 26 -44 -5 -69 -17 -13 -21 -21 -12 -21 21 0 48 32 48 57 0 23 -29 53
-51 53 -8 -1 -25 -10 -38 -20z"/>
<path d="M4337 3614 c-11 -14 -17 -27 -15 -30 3 -2 14 10 27 26 12 17 18 30
14 30 -4 0 -16 -12 -26 -26z"/>
<path d="M2257 3562 c-20 -21 -37 -41 -37 -45 0 -4 18 11 41 34 22 22 39 42
37 45 -3 2 -21 -13 -41 -34z"/>
<path d="M2370 3580 c0 -12 -30 -52 -69 -93 -38 -39 -68 -73 -66 -75 2 -2 36
31 77 73 65 68 92 115 67 115 -5 0 -9 -9 -9 -20z"/>
<path d="M4258 3537 c23 -23 42 -47 42 -52 1 -14 59 -82 60 -69 0 6 -11 21
-25 34 -14 13 -25 28 -25 34 -1 12 -77 96 -87 96 -4 0 12 -19 35 -43z"/>
<path d="M4508 2459 c-21 -10 -45 -30 -54 -44 -9 -14 -20 -22 -25 -19 -5 3 -6
-3 -2 -12 4 -12 3 -15 -5 -10 -15 9 -15 8 -17 -129 -1 -60 -5 -134 -10 -162
-5 -38 -4 -57 5 -68 9 -10 9 -15 1 -15 -6 0 -11 -5 -11 -11 0 -5 4 -8 8 -5 4
2 8 -4 8 -14 0 -10 -4 -16 -8 -14 -4 3 -8 -4 -8 -15 0 -11 3 -22 8 -24 4 -3 6
-70 5 -149 0 -78 -2 -281 -3 -450 -1 -227 -4 -308 -13 -312 -9 -3 -9 -5 0 -5
7 -1 10 -7 7 -14 -7 -19 52 -96 82 -107 39 -15 108 -12 130 6 18 15 18 15 -3
5 -31 -15 -89 -14 -121 3 -41 21 -69 90 -56 140 5 22 11 23 131 32 101 7 126
6 132 -4 4 -8 14 278 21 635 15 727 16 704 -52 754 -49 35 -96 37 -150 8z
m201 -213 c-1 -46 -5 -89 -8 -94 -4 -6 -64 -14 -135 -18 -120 -7 -129 -6 -123
10 4 10 7 53 7 96 l0 79 58 3 c31 2 90 4 130 6 l73 3 -2 -85z m-9 -330 l0 -93
-92 -7 c-50 -3 -108 -6 -130 -6 l-38 0 0 95 0 94 78 4 c42 1 101 4 130 5 l52
2 0 -94z m-4 -315 c0 -51 -2 -94 -5 -96 -3 -1 -62 -4 -131 -6 l-125 -4 4 90
c2 50 4 91 5 92 2 2 231 20 241 18 6 -1 10 -41 11 -94z m-6 -311 c0 -64 -4
-92 -12 -94 -7 -3 -66 -7 -131 -10 l-118 -6 3 92 3 93 80 6 c44 3 101 6 128 7
l47 2 0 -90z"/>
<path d="M2023 2400 c-49 -11 -95 -42 -118 -80 -23 -40 -23 -25 -5 -730 21
-800 22 -807 105 -855 99 -58 219 -5 244 108 11 45 8 276 -14 1138 -6 227 -17
305 -49 354 -33 50 -103 77 -163 65z m175 -253 l3 -97 -62 0 c-48 0 -59 3 -52
13 16 20 22 57 10 57 -8 0 -7 4 2 9 9 6 12 18 7 37 -5 24 -4 26 5 11 8 -14 14
-16 25 -6 11 9 14 7 14 -10 0 -11 5 -21 11 -21 6 0 9 6 6 14 -3 8 -2 16 3 18
5 2 13 19 16 38 l7 35 -21 -19 c-12 -11 -22 -14 -22 -8 0 8 -33 13 -102 14
l-103 2 110 6 c61 3 117 6 125 5 12 0 16 -19 18 -98z m-216 45 c11 -11 8 -12
-14 -7 -33 8 -39 -10 -7 -20 17 -6 18 -9 8 -16 -22 -13 13 -22 44 -10 29 11
60 5 51 -10 -3 -5 -9 -7 -14 -4 -4 3 -6 -5 -3 -16 6 -21 7 -21 21 -3 13 18 14
16 8 -15 -3 -19 -8 -36 -10 -39 -3 -2 -36 -6 -75 -9 l-71 -5 0 84 c0 83 0 84
25 83 13 0 30 -6 37 -13z m67 -1 c9 -16 8 -18 -9 -14 -11 3 -25 11 -31 19 -9
11 -7 14 9 14 12 0 26 -9 31 -19z m-14 -31 c-3 -5 -14 -10 -23 -10 -15 0 -15
2 -2 10 20 13 33 13 25 0z m171 -347 l-1 -98 -135 -5 c-74 -3 -136 -5 -136 -5
-1 0 -4 44 -7 97 l-6 97 82 4 c45 1 109 4 143 5 l61 2 -1 -97z m8 -285 c3 -29
6 -74 6 -100 l0 -48 -115 -2 c-63 -1 -127 -2 -142 -2 l-28 -1 0 95 0 95 105 6
c58 3 119 6 136 7 30 2 31 1 38 -50z m10 -309 c3 -17 6 -60 6 -95 0 -59 -2
-64 -22 -65 -13 0 -76 -4 -140 -7 l-117 -7 -5 29 c-3 16 -6 59 -6 97 l0 68 88
4 c48 1 110 4 138 5 50 2 52 1 58 -29z m6 -339 c0 -63 -19 -102 -63 -129 -99
-61 -223 10 -215 122 l3 42 105 6 c58 3 120 6 138 7 l32 2 0 -50z"/>
<path d="M2161 2084 c0 -11 3 -14 6 -6 3 7 2 16 -1 19 -3 4 -6 -2 -5 -13z"/>
<path d="M1988 1883 c6 -2 12 -20 12 -39 0 -19 5 -34 11 -34 7 0 8 12 4 33 -9
40 -13 47 -28 46 -9 0 -9 -2 1 -6z"/>
<path d="M2056 1881 c-10 -15 30 -19 60 -5 l29 12 -42 1 c-23 1 -44 -3 -47 -8z"/>
<path d="M2157 1853 c-14 -13 -6 -33 13 -33 22 0 23 1 14 24 -7 17 -16 20 -27
9z"/>
<path d="M4680 1009 c0 -17 -5 -40 -11 -52 -9 -17 -9 -20 1 -10 15 14 31 93
19 93 -5 0 -9 -14 -9 -31z"/>
<path d="M4639 913 c-13 -16 -12 -17 4 -4 16 13 21 21 13 21 -2 0 -10 -8 -17
-17z"/>
</g>
</svg>
