<!-- Generated by IcoMoon.io -->
<svg version="1.1" xmlns="http://www.w3.org/2000/svg" width="16" height="16" viewBox="0 0 32 32" fill="#fff">
<title>arrow-unsorted</title>
<path d="M24.267 12.4l-8.267-8.4-8.267 8.4c-0.267 0.267-0.4 0.533-0.4 0.933s0.133 0.667 0.4 0.933c0.267 0.267 0.533 0.4 0.933 0.4h14.667c0.4 0 0.667-0.133 0.933-0.4s0.4-0.667 0.4-0.933-0.133-0.667-0.4-0.933zM7.733 19.6l8.267 8.4 8.267-8.4c0.267-0.267 0.4-0.667 0.4-0.933s-0.133-0.667-0.4-0.933c-0.267-0.267-0.533-0.4-0.933-0.4h-14.667c-0.4 0-0.667 0.133-0.933 0.4s-0.4 0.667-0.4 0.933 0.133 0.667 0.4 0.933z"></path>
</svg>
