<?xml version="1.0" encoding="utf-8"?>
<!-- Generator: Adobe Illustrator 21.0.0, SVG Export Plug-In . SVG Version: 6.00 Build 0)  -->
<svg version="1.1" id="Ebene_1" xmlns="http://www.w3.org/2000/svg" xmlns:xlink="http://www.w3.org/1999/xlink" x="0px" y="0px"
	 width="666px" height="156px" viewBox="0 0 666.1 155.9" style="enable-background:new 0 0 666.1 155.9;" xml:space="preserve">
<style type="text/css">
	.st0{fill:#F29400;}
	.st1{fill:#33B8CA;}
	.st2{fill:#006E92;}
	.st3{fill:#8FA402;}
</style>
<polygon class="st0" points="529.6,0 510.2,19.6 510.2,136.5 529.6,155.9 646.5,155.9 666.1,136.5 666.1,19.6 646.5,0 "/>
<polygon class="st1" points="170.1,155.9 326,155.9 326,78.1 306.4,78.1 306.4,39 286.9,39 286.9,0 170.1,0 "/>
<polygon class="st2" points="116.9,0 97.5,19.6 58.4,0 0,0 0,155.9 39,155.9 58.4,136.5 97.5,155.9 155.9,155.9 155.9,0 "/>
<polygon class="st3" points="340.2,0 340.2,155.9 476.4,155.9 476.4,116.9 496.1,97.5 496.1,19.6 476.4,0 "/>
</svg>
