<?xml version="1.0" encoding="UTF-8" standalone="no"?>
<!-- Generator: Adobe Illustrator 21.0.0, SVG Export Plug-In . SVG Version: 6.00 Build 0)  -->

<svg
   xmlns:dc="http://purl.org/dc/elements/1.1/"
   xmlns:cc="http://creativecommons.org/ns#"
   xmlns:rdf="http://www.w3.org/1999/02/22-rdf-syntax-ns#"
   xmlns:svg="http://www.w3.org/2000/svg"
   xmlns="http://www.w3.org/2000/svg"
   xmlns:sodipodi="http://sodipodi.sourceforge.net/DTD/sodipodi-0.dtd"
   xmlns:inkscape="http://www.inkscape.org/namespaces/inkscape"
   version="1.1"
   id="Ebene_1"
   x="0px"
   y="0px"
   width="666px"
   height="156px"
   viewBox="0 0 666.1 155.9"
   style="enable-background:new 0 0 666.1 155.9;"
   xml:space="preserve"
   sodipodi:docname="NEPO_Logo_RGB.svg"
   inkscape:version="0.92.4 (5da689c313, 2019-01-14)"><metadata
   id="metadata17"><rdf:RDF><cc:Work
       rdf:about=""><dc:format>image/svg+xml</dc:format><dc:type
         rdf:resource="http://purl.org/dc/dcmitype/StillImage" /></cc:Work></rdf:RDF></metadata><defs
   id="defs15" /><sodipodi:namedview
   pagecolor="#ffffff"
   bordercolor="#666666"
   borderopacity="1"
   objecttolerance="10"
   gridtolerance="10"
   guidetolerance="10"
   inkscape:pageopacity="0"
   inkscape:pageshadow="2"
   inkscape:window-width="1920"
   inkscape:window-height="1001"
   id="namedview13"
   showgrid="false"
   inkscape:zoom="1.4396949"
   inkscape:cx="350.56038"
   inkscape:cy="46.116145"
   inkscape:window-x="-9"
   inkscape:window-y="-9"
   inkscape:window-maximized="1"
   inkscape:current-layer="Ebene_1" />
<style
   type="text/css"
   id="style2">
	.st0{fill:#F29400;}
	.st1{fill:#33B8CA;}
	.st2{fill:#006E92;}
	.st3{fill:#8FA402;}
</style>
<polygon
   class="st0"
   points="529.6,0 510.2,19.6 510.2,136.5 529.6,155.9 646.5,155.9 666.1,136.5 666.1,19.6 646.5,0 "
   id="polygon4" />
<polygon
   class="st1"
   points="170.1,155.9 326,155.9 326,78.1 306.4,78.1 306.4,39 286.9,39 286.9,0 170.1,0 "
   id="polygon6" />
<polygon
   class="st2"
   points="116.9,0 97.5,19.6 58.4,0 0,0 0,155.9 39,155.9 58.4,136.5 97.5,155.9 155.9,155.9 155.9,0 "
   id="polygon8" />
<polygon
   class="st3"
   points="340.2,0 340.2,155.9 476.4,155.9 476.4,116.9 496.1,97.5 496.1,19.6 476.4,0 "
   id="polygon10" />
<path
   style="opacity:1;fill:#808080;fill-opacity:1;stroke-width:0.69459164"
   d="M 0.20837365,78.0021 V 0.55513435 H 29.386011 58.563649 l 19.617246,9.81345765 19.617247,9.813457 9.482858,-9.813457 9.48285,-9.81345765 h 19.51653 19.51652 V 78.0021 155.44907 H 126.70504 97.613179 l -19.792777,-9.64386 -19.792779,-9.64386 -9.625402,9.64386 -9.625402,9.64386 H 19.492596 0.20837365 Z"
   id="path19"
   inkscape:connector-curvature="0"
   transform="matrix(1.0001502,0,0,1.0001502,0,-0.06171171)" /><path
   style="opacity:1;fill:#808080;fill-opacity:1;stroke-width:0.69459164"
   d="M 170.38332,78.0021 V 0.55513435 h 57.9984 57.9984 V 20.0037 39.452265 h 9.72428 9.72429 V 58.90083 78.349396 h 10.07157 10.07158 v 38.549834 38.54984 h -77.79426 -77.79426 z"
   id="path21"
   inkscape:connector-curvature="0"
   transform="matrix(1.0001502,0,0,1.0001502,0,-0.06171171)" /><path
   style="opacity:1;fill:#808080;fill-opacity:1;stroke-width:0.69459164"
   d="M 340.55827,78.0021 V 0.55513435 h 67.90563 67.90564 l 9.54133,9.55962465 9.54133,9.559626 v 38.897446 38.897442 l -9.72429,9.705677 -9.72428,9.70567 v 19.28422 19.28423 h -67.72268 -67.72268 z"
   id="path23"
   inkscape:connector-curvature="0"
   transform="matrix(1.0001502,0,0,1.0001502,0,-0.06171171)" /><path
   style="opacity:1;fill:#f2f2f2;fill-opacity:1;stroke-width:0.69459164"
   d="m 519.9269,146.23641 -9.19369,-9.21264 0.0318,-58.683689 0.0318,-58.683677 9.27052,-9.550635 9.27052,-9.55063465 h 58.60329 58.60328 l 9.54134,9.55962465 9.54132,9.559626 v 58.34601 58.346005 l -9.55962,9.54134 -9.55963,9.54133 h -58.69365 -58.69365 z"
   id="path25"
   inkscape:connector-curvature="0"
   transform="matrix(1.0001502,0,0,1.0001502,0,-0.06171171)" /><path
   style="opacity:1;fill:#f2f2f2;fill-opacity:1;stroke-width:0.69459164"
   d="M 340.55827,78.0021 V 0.55513435 h 67.90563 67.90564 l 9.54133,9.55962465 9.54133,9.559626 v 38.897446 38.897442 l -9.72429,9.705677 -9.72428,9.70567 v 19.28422 19.28423 h -67.72268 -67.72268 z"
   id="path27"
   inkscape:connector-curvature="0"
   transform="matrix(1.0001502,0,0,1.0001502,0,-0.06171171)" /><path
   style="opacity:1;fill:#f2f2f2;fill-opacity:1;stroke-width:0.69459164"
   d="M 170.38332,78.0021 V 0.55513435 h 57.9984 57.9984 V 20.0037 39.452265 h 9.72428 9.72429 V 58.90083 78.349396 h 10.07157 10.07158 v 38.549834 38.54984 h -77.79426 -77.79426 z"
   id="path29"
   inkscape:connector-curvature="0"
   transform="matrix(1.0001502,0,0,1.0001502,0,-0.06171171)" /><path
   style="opacity:1;fill:#f2f2f2;fill-opacity:1;stroke-width:0.69459164"
   d="M 0.20837365,78.0021 V 0.55513435 H 29.038716 57.869058 L 77.308043,10.279417 c 10.691439,5.348355 19.773447,9.724283 20.182235,9.724283 0.408788,0 4.978332,-4.375928 10.154542,-9.724283 l 9.41128,-9.72428265 h 19.3704 19.3704 V 78.0021 155.44907 H 126.95555 98.114209 l -19.942302,-9.72701 -19.942302,-9.727 -9.744388,9.727 -9.744389,9.72701 H 19.474601 0.20837365 Z"
   id="path31"
   inkscape:connector-curvature="0"
   transform="matrix(1.0001502,0,0,1.0001502,0,-0.06171171)" /><path
   style="opacity:1;fill:#b3b3b3;fill-opacity:1;stroke-width:0.69459158"
   d="m 126.97134,155.46396 -29.172845,-0.36219 -19.384308,-9.55064 c -10.661366,-5.25285 -19.729974,-9.55063 -20.15246,-9.55063 -0.422486,0 -5.135709,4.37593 -10.473828,9.72428 l -9.705672,9.72428 H 19.1453 0.20837361 V 78.0021 0.55513514 H 28.629954 57.051535 L 76.687467,10.279418 c 10.799767,5.348355 20.124111,9.730527 20.720779,9.738161 0.596661,0.0076 5.352294,-4.358681 10.568074,-9.702921 l 9.48323,-9.7167979 19.51641,-0.19501042 19.51639,-0.19501034 -4.3e-4,77.96790866 c -2.4e-4,42.882352 -0.0786,77.896472 -0.17408,77.809152 -0.0955,-0.0873 -13.30143,-0.32174 -29.3465,-0.52094 z"
   id="path18"
   inkscape:connector-curvature="0"
   transform="matrix(1.0001502,0,0,1.0001502,0,-0.06171171)" /><path
   style="opacity:1;fill:#b3b3b3;fill-opacity:1;stroke-width:0.69459158"
   d="M 170.38332,78.0021 V 0.55513514 h 57.9984 57.9984 V 20.0037 39.452265 h 9.72428 9.72428 V 58.90083 78.349396 h 10.07158 10.07158 v 38.549834 38.54983 h -77.79426 -77.79426 z"
   id="path20"
   inkscape:connector-curvature="0"
   transform="matrix(1.0001502,0,0,1.0001502,0,-0.06171171)" /><path
   style="opacity:1;fill:#b3b3b3;fill-opacity:1;stroke-width:0.69459158"
   d="M 340.55826,78.0021 V 0.55513514 h 67.55802 67.55802 l 9.88894,9.90662086 9.88895,9.90662 V 58.57153 96.774681 l -9.72428,9.705679 -9.72428,9.70567 v 19.63151 19.63152 h -67.72268 -67.72269 z"
   id="path22"
   inkscape:connector-curvature="0"
   transform="matrix(1.0001502,0,0,1.0001502,0,-0.06171171)" /><path
   style="opacity:1;fill:#b3b3b3;fill-opacity:1;stroke-width:0.69459158"
   d="m 520.27454,145.88944 -9.54133,-9.55963 V 78.278985 20.228161 l 9.43943,-9.836513 9.43943,-9.83651286 h 58.11858 58.1186 l 9.88894,9.90662086 9.88895,9.90662 v 57.651401 57.651393 l -9.90662,9.88895 -9.90662,9.88894 h -57.99902 -57.99901 z"
   id="path24"
   inkscape:connector-curvature="0"
   transform="matrix(1.0001502,0,0,1.0001502,0,-0.06171171)" /></svg>