<?xml version="1.0" encoding="UTF-8" standalone="no"?>
<!-- Generator: Adobe Illustrator 22.1.0, SVG Export Plug-In . SVG Version: 6.00 Build 0)  -->

<svg
   xmlns:dc="http://purl.org/dc/elements/1.1/"
   xmlns:cc="http://creativecommons.org/ns#"
   xmlns:rdf="http://www.w3.org/1999/02/22-rdf-syntax-ns#"
   xmlns:svg="http://www.w3.org/2000/svg"
   xmlns="http://www.w3.org/2000/svg"
   xmlns:sodipodi="http://sodipodi.sourceforge.net/DTD/sodipodi-0.dtd"
   xmlns:inkscape="http://www.inkscape.org/namespaces/inkscape"
   version="1.1"
   id="Ebene_1"
   x="0px"
   y="0px"
   viewBox="0 0 17 48"
   style="enable-background:new 0 0 17 48;"
   xml:space="preserve"
   sodipodi:docname="step_connector_active_last.svg"
   inkscape:version="0.92.4 (5da689c313, 2019-01-14)"><metadata
   id="metadata19"><rdf:RDF><cc:Work
       rdf:about=""><dc:format>image/svg+xml</dc:format><dc:type
         rdf:resource="http://purl.org/dc/dcmitype/StillImage" /></cc:Work></rdf:RDF></metadata><defs
   id="defs17" /><sodipodi:namedview
   pagecolor="#ffffff"
   bordercolor="#666666"
   borderopacity="1"
   objecttolerance="10"
   gridtolerance="10"
   guidetolerance="10"
   inkscape:pageopacity="0"
   inkscape:pageshadow="2"
   inkscape:window-width="748"
   inkscape:window-height="480"
   id="namedview15"
   showgrid="false"
   inkscape:zoom="4.9166667"
   inkscape:cx="8.5"
   inkscape:cy="24"
   inkscape:window-x="0"
   inkscape:window-y="0"
   inkscape:window-maximized="0"
   inkscape:current-layer="Ebene_1" />
<style
   type="text/css"
   id="style2">
	.st0{fill:#FFFFFF;}
	.st1{fill:#FFFFFF;}
	.st2{fill:#BACC1E;}
</style>
<rect
   x="0"
   class="st0"
   width="17"
   height="48"
   id="rect4"
   style="fill:#000000" />
<g
   id="g10">
	<g
   id="g8">
		<path
   class="st1"
   d="M3,48H0V34.3l9.5,0.6l2.4-5.3c1.8-6.3,1.6-10.8-0.4-13.2c-1.7-2.1-5.1-3.1-10-2.8L0,13.7V0h3v10.5    c5.2,0,8.7,1.3,10.9,4c2.7,3.3,3,8.6,0.9,16l-0.1,0.2L11.4,38L3,37.5V48z"
   id="path6" />
	</g>
</g>
<path
   class="st2"
   d="M0,34.3l9.5,0.6l2.4-5.3c1.8-6.3,1.6-10.8-0.4-13.2c-1.7-2.1-5.1-3.1-10-2.8L0,13.7V34.3z"
   id="path12" />
</svg>